0
SECTION
2
HEADER
9
$INSUNITS
70
4
9
$ACADVER
1
AC1014
9
$HANDSEED
5
FFFF
0
ENDSEC
0
SECTION
2
TABLES
0
TABLE
2
VPORT
5
8
100
AcDbSymbolTable
0
ENDTAB
0
TABLE
2
LTYPE
5
5
100
AcDbSymbolTable
0
LTYPE
5
14
100
AcDbSymbolTableRecord
100
AcDbLinetypeTableRecord
2
BYBLOCK
70
0
0
LTYPE
5
15
100
AcDbSymbolTableRecord
100
AcDbLinetypeTableRecord
2
BYLAYER
70
0
0
LTYPE
5
16
100
AcDbSymbolTableRecord
100
AcDbLinetypeTableRecord
2
DASHED
70
0
3
Dashed __ __ __ __ __ __ __ __ __ __ __ __ __ _
72
65
73
2
40
0.75
49
0.5
74
0
49
-0.25
74
0
0
ENDTAB
0
TABLE
2
LAYER
5
2
100
AcDbSymbolTable
70
2
0
LAYER
5
50
100
AcDbSymbolTableRecord
100
AcDbLayerTableRecord
2
0
70
0
62
7
6
CONTINUOUS
0
ENDTAB
0
TABLE
2
STYLE
5
3
100
AcDbSymbolTable
70
1
0
STYLE
5
11
100
AcDbSymbolTableRecord
100
AcDbTextStyleTableRecord
2
STANDARD
70
0
0
ENDTAB
0
TABLE
2
VIEW
5
6
100
AcDbSymbolTable
70
0
0
ENDTAB
0
TABLE
2
UCS
5
7
100
AcDbSymbolTable
70
0
0
ENDTAB
0
TABLE
2
APPID
5
9
100
AcDbSymbolTable
70
2
0
APPID
5
12
100
AcDbSymbolTableRecord
100
AcDbRegAppTableRecord
2
ACAD
70
0
0
ENDTAB
0
TABLE
2
DIMSTYLE
5
A
100
AcDbSymbolTable
70
1
0
ENDTAB
0
TABLE
2
BLOCK_RECORD
5
1
100
AcDbSymbolTable
70
1
0
BLOCK_RECORD
5
1F
100
AcDbSymbolTableRecord
100
AcDbBlockTableRecord
2
*MODEL_SPACE
0
BLOCK_RECORD
5
1B
100
AcDbSymbolTableRecord
100
AcDbBlockTableRecord
2
*PAPER_SPACE
0
ENDTAB
0
ENDSEC
0
SECTION
2
BLOCKS
0
BLOCK
5
20
100
AcDbEntity
100
AcDbBlockBegin
2
*MODEL_SPACE
0
ENDBLK
5
21
100
AcDbEntity
100
AcDbBlockEnd
0
BLOCK
5
1C
100
AcDbEntity
100
AcDbBlockBegin
2
*PAPER_SPACE
0
ENDBLK
5
1D
100
AcDbEntity
100
AcDbBlockEnd
0
ENDSEC
0
SECTION
2
ENTITIES
0
LINE
5
100
100
AcDbEntity
8
0
100
AcDbLine
10
-37.300000000000118
20
-47.099999999999937
30
0
11
37.300000000000033
21
-47.099999999999994
31
0
0
SPLINE
5
101
100
AcDbEntity
8
0
100
AcDbSpline
70
0
71
3
72
20
73
16
74
0
42
0.000000001
43
0.0000000001
44
0.0000000001
40
-1
40
-1
40
-1
40
-1
40
-0.78994495464765802
40
-0.78994495464765802
40
-0.78994495464765802
40
-0.50715858231619459
40
-0.50715858231619459
40
-0.50715858231619459
40
-0.2535792911580973
40
-0.2535792911580973
40
-0.2535792911580973
40
-0.04305946344035505
40
-0.04305946344035505
40
-0.04305946344035505
40
0
40
0
40
0
40
0
10
37.300000000000047
20
-47.099999999999994
30
0
10
39.746709786792159
20
-47.100000000000001
30
0
10
41.946384565545387
20
-47.050308495115601
30
0
10
43.956464522451633
20
-46.642732801377555
30
0
10
46.663718187038647
20
-46.093794045644074
30
0
10
49.038384382316956
20
-44.91521691005039
30
0
10
50.868030521175854
20
-43.141847723416589
30
0
10
52.508922188202305
20
-41.551427226738625
30
0
10
53.688713115658231
20
-39.509510888915564
30
0
10
54.346701499841636
20
-37.182038206144327
30
0
10
54.892743381284383
20
-35.250548846671407
30
0
10
55.07019517051765
20
-33.119190698544337
30
0
10
55.094825293772374
20
-30.773367254885329
30
0
10
55.099869390085637
20
-30.292957178924134
30
0
10
55.100000000000009
20
-29.802310551560787
30
0
10
55.100000000000009
20
-29.300000000000018
30
0
0
LINE
5
102
100
AcDbEntity
8
0
100
AcDbLine
10
55.100000000000009
20
-29.300000000000026
30
0
11
55.100000000000016
21
29.300000000000001
31
0
0
SPLINE
5
103
100
AcDbEntity
8
0
100
AcDbSpline
70
0
71
3
72
20
73
16
74
0
42
0.000000001
43
0.0000000001
44
0.0000000001
40
0
40
0
40
0
40
0
40
0.21005504535234107
40
0.21005504535234107
40
0.21005504535234107
40
0.49284141768380829
40
0.49284141768380829
40
0.49284141768380829
40
0.74642070884190415
40
0.74642070884190415
40
0.74642070884190415
40
0.95694053655964639
40
0.95694053655964639
40
0.95694053655964639
40
1
40
1
40
1
40
1
10
55.100000000000016
20
29.300000000000001
30
0
10
55.100000000000016
20
31.74670978679211
30
0
10
55.05030849511563
20
33.946384565545323
30
0
10
54.642732801377591
20
35.956464522451562
30
0
10
54.093794045644103
20
38.663718187038626
30
0
10
52.915216910050404
20
41.038384382316963
30
0
10
51.141847723416575
20
42.868030521175868
30
0
10
49.55142722673861
20
44.508922188202298
30
0
10
47.509510888915536
20
45.688713115658231
30
0
10
45.182038206144313
20
46.346701499841629
30
0
10
43.250548846671386
20
46.892743381284376
30
0
10
41.11919069854433
20
47.070195170517636
30
0
10
38.773367254885315
20
47.094825293772359
30
0
10
38.292957178924141
20
47.099869390085622
30
0
10
37.802310551560815
20
47.09999999999998
30
0
10
37.300000000000054
20
47.09999999999998
30
0
0
LINE
5
104
100
AcDbEntity
8
0
100
AcDbLine
10
37.300000000000054
20
47.09999999999998
30
0
11
-37.300000000000104
21
47.099999999999952
31
0
0
SPLINE
5
105
100
AcDbEntity
8
0
100
AcDbSpline
70
0
71
3
72
20
73
16
74
0
42
0.000000001
43
0.0000000001
44
0.0000000001
40
-1
40
-1
40
-1
40
-1
40
-0.78994495464766101
40
-0.78994495464766101
40
-0.78994495464766101
40
-0.50715858231618927
40
-0.50715858231618927
40
-0.50715858231618927
40
-0.25357929115809463
40
-0.25357929115809463
40
-0.25357929115809463
40
-0.043059463440349083
40
-0.043059463440349083
40
-0.043059463440349083
40
0
40
0
40
0
40
0
10
-37.300000000000104
20
47.099999999999952
30
0
10
-39.746709786792181
20
47.099999999999952
30
0
10
-41.946384565545365
20
47.050308495115573
30
0
10
-43.95646452245159
20
46.642732801377534
30
0
10
-46.66371818703869
20
46.093794045644046
30
0
10
-49.038384382317091
20
44.915216910050297
30
0
10
-50.86803052117601
20
43.141847723416433
30
0
10
-52.508922188202412
20
41.551427226738468
30
0
10
-53.688713115658317
20
39.509510888915415
30
0
10
-54.346701499841686
20
37.182038206144192
30
0
10
-54.892743381284426
20
35.250548846671236
30
0
10
-55.070195170517707
20
33.119190698544124
30
0
10
-55.094825293772431
20
30.773367254885077
30
0
10
-55.099869390085694
20
30.29295717892396
30
0
10
-55.100000000000037
20
29.802310551560677
30
0
10
-55.100000000000037
20
29.299999999999962
30
0
0
LINE
5
106
100
AcDbEntity
8
0
100
AcDbLine
10
-55.100000000000037
20
29.299999999999965
30
0
11
-55.100000000000044
21
-29.299999999999933
31
0
0
SPLINE
5
107
100
AcDbEntity
8
0
100
AcDbSpline
70
0
71
3
72
20
73
16
74
0
42
0.000000001
43
0.0000000001
44
0.0000000001
40
0
40
0
40
0
40
0
40
0.21005504535234476
40
0.21005504535234476
40
0.21005504535234476
40
0.49284141768380851
40
0.49284141768380851
40
0.49284141768380851
40
0.74642070884190426
40
0.74642070884190426
40
0.74642070884190426
40
0.95694053655964739
40
0.95694053655964739
40
0.95694053655964739
40
1
40
1
40
1
40
1
10
-55.100000000000044
20
-29.299999999999944
30
0
10
-55.100000000000051
20
-31.746709786792096
30
0
10
-55.050308495115672
20
-33.94638456554533
30
0
10
-54.642732801377612
20
-35.956464522451604
30
0
10
-54.09379404564411
20
-38.663718187038626
30
0
10
-52.915216910050404
20
-41.038384382316934
30
0
10
-51.141847723416596
20
-42.868030521175825
30
0
10
-49.551427226738639
20
-44.508922188202256
30
0
10
-47.509510888915585
20
-45.688713115658189
30
0
10
-45.182038206144369
20
-46.346701499841586
30
0
10
-43.250548846671435
20
-46.892743381284333
30
0
10
-41.119190698544365
20
-47.070195170517593
30
0
10
-38.773367254885336
20
-47.094825293772317
30
0
10
-38.292957178924169
20
-47.09986939008558
30
0
10
-37.802310551560858
20
-47.099999999999937
30
0
10
-37.300000000000118
20
-47.099999999999937
30
0
0
CIRCLE
5
108
100
AcDbEntity
8
0
100
AcDbCircle
10
-27.5
20
-19.500000000000011
30
0
40
1.1000000000000001
210
0
220
-0
230
1
0
CIRCLE
5
109
100
AcDbEntity
8
0
100
AcDbCircle
10
-1.4045430886799372e-14
20
-33.500000000000007
30
0
40
1.1000000000000001
210
0
220
-0
230
1
0
CIRCLE
5
110
100
AcDbEntity
8
0
100
AcDbCircle
10
27.500000000000007
20
-19.5
30
0
40
1.1000000000000001
210
0
220
-0
230
1
0
CIRCLE
5
111
100
AcDbEntity
8
0
100
AcDbCircle
10
51.000000000000007
20
-4.0000000000000036
30
0
40
1.1000000000000001
210
0
220
-0
230
1
0
CIRCLE
5
112
100
AcDbEntity
8
0
100
AcDbCircle
10
-51
20
-4.0000000000000036
30
0
40
1.1000000000000001
210
0
220
-0
230
1
0
CIRCLE
5
113
100
AcDbEntity
8
0
100
AcDbCircle
10
-41.999999999999993
20
42.999999999999986
30
0
40
1.1000000000000001
210
0
220
-0
230
1
0
CIRCLE
5
114
100
AcDbEntity
8
0
100
AcDbCircle
10
42.000000000000014
20
42.999999999999986
30
0
40
1.1000000000000001
210
0
220
-0
230
1
0
CIRCLE
5
115
100
AcDbEntity
8
0
100
AcDbCircle
10
-40.5
20
-14.500000000000012
30
0
40
4.5
210
0
220
-0
230
1
0
CIRCLE
5
116
100
AcDbEntity
8
0
100
AcDbCircle
10
0
20
0
30
0
40
28.000000000000004
210
0
220
-0
230
1
0
LINE
5
117
100
AcDbEntity
8
0
100
AcDbLine
10
-51.075518283079305
20
-43.358360995553781
30
0
11
-29.479898987322382
21
-21.762741699796877
31
0
0
LINE
5
118
100
AcDbEntity
8
0
100
AcDbLine
10
-29.762741699797029
20
-21.479898987322304
30
0
11
-29.479898987322382
21
-21.762741699796877
31
0
0
LINE
5
119
100
AcDbEntity
8
0
100
AcDbLine
10
-51.358447818912609
20
-43.075605106437848
30
0
11
-29.762741699797029
21
-21.479898987322304
31
0
0
LINE
5
120
100
AcDbEntity
8
0
100
AcDbLine
10
-0.20000000000002244
20
-36.5
30
0
11
0.19999999999997747
21
-36.5
31
0
0
LINE
5
121
100
AcDbEntity
8
0
100
AcDbLine
10
-0.20000000000003113
20
-47.399999999999963
30
0
11
-0.20000000000002244
21
-36.5
31
0
0
LINE
5
122
100
AcDbEntity
8
0
100
AcDbLine
10
0.19999999999996879
20
-47.399999999999963
30
0
11
0.19999999999997747
21
-36.5
31
0
0
LINE
5
123
100
AcDbEntity
8
0
100
AcDbLine
10
29.479898987322354
20
-21.762741699796948
30
0
11
29.762741699796969
21
-21.479898987322326
31
0
0
LINE
5
124
100
AcDbEntity
8
0
100
AcDbLine
10
51.075605148424437
20
-43.358447860899041
30
0
11
29.479898987322354
21
-21.762741699796948
31
0
0
LINE
5
125
100
AcDbEntity
8
0
100
AcDbLine
10
51.358360926314042
20
-43.075518213839416
30
0
11
29.762741699796969
21
-21.479898987322326
31
0
0
ENDSEC
0
SECTION
2
OBJECTS
0
DICTIONARY
5
C
100
AcDbDictionary
3
ACAD_GROUP
350
D
3
ACAD_MLINESTYLE
350
17
0
DICTIONARY
5
D
100
AcDbDictionary
0
DICTIONARY
5
1A
330
C
100
AcDbDictionary
0
DICTIONARY
5
17
100
AcDbDictionary
0
ENDSEC
0
EOF
