M48
; DRILL file {KiCad 9.0.6} date 2025-12-06T22:06:40+0900
; FORMAT={-:-/ absolute / metric / decimal}
; #@! TF.CreationDate,2025-12-06T22:06:40+09:00
; #@! TF.GenerationSoftware,Kicad,Pcbnew,9.0.6
; #@! TF.FileFunction,Plated,1,2,PTH
FMAT,2
METRIC
; #@! TA.AperFunction,Plated,PTH,ViaDrill
T1C0.200
; #@! TA.AperFunction,Plated,PTH,ViaDrill
T2C0.400
; #@! TA.AperFunction,Plated,PTH,ComponentDrill
T3C0.400
; #@! TA.AperFunction,Plated,PTH,ComponentDrill
T4C0.600
; #@! TA.AperFunction,Plated,PTH,ComponentDrill
T5C0.700
; #@! TA.AperFunction,Plated,PTH,ComponentDrill
T6C0.800
; #@! TA.AperFunction,Plated,PTH,ComponentDrill
T7C1.000
; #@! TA.AperFunction,Plated,PTH,ComponentDrill
T8C1.010
; #@! TA.AperFunction,Plated,PTH,ComponentDrill
T9C1.100
; #@! TA.AperFunction,Plated,PTH,ComponentDrill
T10C1.200
; #@! TA.AperFunction,Plated,PTH,ComponentDrill
T11C1.400
; #@! TA.AperFunction,Plated,PTH,ComponentDrill
T12C1.500
; #@! TA.AperFunction,Plated,PTH,ComponentDrill
T13C2.200
; #@! TA.AperFunction,Plated,PTH,ComponentDrill
T14C2.600
; #@! TA.AperFunction,Plated,PTH,ComponentDrill
T15C3.600
; #@! TA.AperFunction,Plated,PTH,ComponentDrill
T16C4.400
%
G90
G05
T1
X114.75Y-124.7
X116.85Y-127.6
X127.55Y-118.2
X178.85Y-131.2
T2
X96.7Y-98.2
X102.85Y-123.65
X106.45Y-123.9
X107.65Y-77.5
X108.55Y-71.45
X108.6Y-75.6
X109.95Y-73.85
X110.2Y-69.75
X111.75Y-73.1
X113.5Y-64.95
X113.8Y-81.15
X113.95Y-71.65
X115.05Y-79.05
X115.1Y-61.85
X115.35Y-74.3
X116.0Y-65.95
X117.15Y-76.55
X117.2Y-68.7
X117.3Y-67.25
X117.6Y-73.9
X118.7Y-71.1
X119.05Y-122.6
X119.307Y-60.734
X119.5Y-72.0
X119.91Y-69.831
X120.0Y-65.8
X120.0Y-67.0
X120.147Y-122.487
X120.45Y-114.3
X120.55Y-70.6
X122.3Y-69.9
X122.65Y-114.35
X123.4Y-68.45
X123.65Y-116.9
X124.15Y-66.15
X124.326Y-61.324
X126.15Y-65.85
X127.35Y-89.6
X127.4Y-86.45
X127.9Y-65.05
X128.55Y-58.1
X129.25Y-60.05
X129.8Y-84.7
X131.3Y-61.0
X132.6Y-62.6
X132.98Y-67.4
X133.17Y-66.22
X133.45Y-64.95
X133.8Y-88.45
X136.25Y-111.4
X137.25Y-86.9
X137.6Y-89.6
X138.1Y-92.1
X139.217Y-87.733
X140.2Y-93.05
X141.786Y-91.459
X142.3Y-89.55
X142.65Y-86.75
X143.85Y-87.45
X144.95Y-88.05
X146.9Y-136.45
X147.75Y-126.9
X148.45Y-120.7
X150.05Y-125.25
X150.1Y-135.675
X153.35Y-140.8
X156.55Y-143.75
X157.1Y-99.2
X157.95Y-68.3
X159.05Y-141.9
X161.4Y-105.35
X162.313Y-106.6
X162.9Y-138.0
X163.9Y-119.85
X164.5Y-121.2
X164.75Y-136.4
X167.65Y-123.6
X167.9Y-115.05
X167.95Y-65.5
X168.7Y-66.55
X169.305Y-88.795
X170.13Y-89.62
X171.6Y-119.95
X172.3Y-62.469
X173.0Y-108.1
X173.795Y-90.32
X173.8Y-65.15
X174.037Y-63.187
X174.15Y-135.525
X174.3Y-98.95
X175.85Y-126.05
X177.65Y-132.15
X177.9Y-85.4
X179.325Y-85.6
X179.35Y-98.35
X179.745Y-94.955
X180.3Y-88.75
X180.35Y-74.95
X180.5Y-67.05
X180.6Y-136.25
X181.955Y-135.295
X182.6Y-126.05
X183.65Y-137.465
X185.05Y-135.55
X185.3Y-73.1
X187.3Y-138.165
X188.5Y-81.25
X189.75Y-67.5
X189.85Y-115.5
X191.45Y-129.35
X192.25Y-133.6
X193.05Y-134.4
X194.7Y-69.1
X194.7Y-71.45
X196.1Y-87.95
X196.6Y-115.45
X197.3Y-139.5
X201.75Y-97.0
T3
X176.65Y-57.75
X176.65Y-59.1
X177.5Y-57.75
X177.5Y-59.1
X178.35Y-59.1
X178.35Y-57.75
X179.2Y-57.75
X179.2Y-59.1
X180.05Y-59.1
X180.05Y-57.75
X180.9Y-57.75
X180.9Y-59.1
X181.75Y-57.75
X181.75Y-59.1
X182.6Y-59.1
X182.6Y-57.75
T4
X176.29Y-80.721
X177.15Y-81.95
T5
X144.65Y-93.2
X144.65Y-94.98
X144.65Y-96.76
X144.65Y-98.54
X144.65Y-100.32
X144.65Y-102.1
X144.65Y-103.88
X144.65Y-105.66
X155.35Y-92.31
X155.35Y-94.09
X155.35Y-95.87
X155.35Y-97.65
X155.35Y-99.43
X155.35Y-101.21
X155.35Y-102.99
X155.35Y-104.77
T6
X113.64Y-86.794
X115.266Y-82.93
X117.323Y-79.156
X120.429Y-75.115
X120.8Y-89.4
X122.1Y-86.3
X122.712Y-72.612
X123.75Y-83.25
X125.202Y-70.363
X126.266Y-80.013
X127.8Y-68.3
X128.1Y-78.0
X130.1Y-76.2
X130.64Y-66.501
X132.171Y-74.542
X133.627Y-60.611
X134.45Y-73.1
X136.543Y-67.651
X137.159Y-59.283
X139.45Y-66.55
X142.766Y-58.338
X143.2Y-60.8
X143.554Y-62.954
X143.988Y-65.416
X148.191Y-57.702
X148.3Y-60.2
X148.441Y-62.402
X148.55Y-64.9
X153.029Y-65.112
X153.693Y-57.521
X156.058Y-65.478
X157.382Y-57.973
X159.0Y-66.2
X160.972Y-58.84
X161.944Y-67.047
X164.55Y-59.886
X164.8Y-68.25
X167.474Y-74.141
X168.02Y-61.344
X169.634Y-75.835
X171.844Y-67.899
X172.0Y-78.05
X173.768Y-76.282
X174.532Y-69.998
X175.5Y-74.5
X177.268Y-72.732
X182.7Y-92.8
X182.75Y-77.25
X183.0Y-119.0
X183.85Y-109.1
X184.0Y-87.43
X184.0Y-82.55
X184.55Y-106.1
X184.95Y-103.0
X185.165Y-120.25
X185.2Y-92.8
X185.2Y-114.5
X185.25Y-77.25
X187.51Y-115.457
X191.21Y-111.072
X191.88Y-63.66
X191.88Y-66.2
X191.88Y-68.74
X191.88Y-71.28
X191.88Y-73.82
X191.88Y-76.36
X191.88Y-78.9
X191.88Y-81.44
X191.88Y-83.98
X191.88Y-86.52
X191.88Y-89.06
X191.88Y-91.6
X191.88Y-94.14
X191.88Y-96.68
X192.054Y-107.423
X192.541Y-103.664
X199.5Y-63.66
X199.5Y-66.2
X199.5Y-68.74
X199.5Y-71.28
X199.5Y-73.82
X199.5Y-76.36
X199.5Y-78.9
X199.5Y-81.44
X199.5Y-83.98
X199.5Y-86.52
X199.5Y-89.06
X199.5Y-91.6
X199.5Y-94.14
X199.5Y-96.68
T7
X101.18Y-98.1
X103.72Y-98.1
X106.26Y-98.1
X107.0Y-107.0
X107.0Y-121.5
X108.8Y-98.1
X109.5Y-107.0
X112.0Y-107.0
X112.0Y-121.5
T8
X182.75Y-62.25
X187.85Y-63.45
T9
X142.0Y-112.75
X142.0Y-117.25
X148.5Y-112.75
X148.5Y-117.25
X151.5Y-112.75
X151.5Y-117.25
X158.0Y-112.75
X158.0Y-117.25
T10
X99.83Y-135.599
X103.415Y-132.0
X106.83Y-142.198
X107.0Y-128.401
X110.415Y-138.599
X114.0Y-135.0
X187.386Y-135.415
X190.986Y-139.0
X193.0Y-130.0
X194.585Y-142.585
X196.599Y-133.585
X200.198Y-137.17
T11
X147.5Y-130.0
X150.0Y-130.0
X152.5Y-130.0
T12
X116.61Y-58.495
X117.88Y-55.955
X119.15Y-58.495
X120.42Y-55.955
X121.69Y-58.495
X122.96Y-55.955
T13
X99.0Y-104.0
X108.0Y-57.0
X115.38Y-55.955
X122.5Y-119.5
X150.0Y-133.5
X177.5Y-119.5
X192.0Y-57.0
X201.0Y-104.0
T14
X124.19Y-58.495
X126.7Y-94.18
X139.75Y-71.8
X160.27Y-71.83
X173.56Y-95.41
T15
X121.16Y-103.05
X178.84Y-103.025
T16
X129.9Y-112.075
X149.575Y-76.55
X170.5Y-111.4
T4
G00X175.3Y-58.87
M15
G01X175.3Y-57.37
M16
G05
G00X175.3Y-55.14
M15
G01X175.3Y-54.34
M16
G05
G00X183.95Y-55.14
M15
G01X183.95Y-54.34
M16
G05
G00X183.95Y-58.87
M15
G01X183.95Y-57.37
M16
G05
T12
G00X103.9Y-113.85
M15
G01X103.9Y-115.15
M16
G05
G00X115.1Y-113.85
M15
G01X115.1Y-115.15
M16
G05
M30
