G04 #@! TF.GenerationSoftware,KiCad,Pcbnew,9.0.6*
G04 #@! TF.CreationDate,2026-06-09T01:32:53+09:00*
G04 #@! TF.ProjectId,Akira_board,416b6972-615f-4626-9f61-72642e6b6963,rev?*
G04 #@! TF.SameCoordinates,Original*
G04 #@! TF.FileFunction,Paste,Top*
G04 #@! TF.FilePolarity,Positive*
%FSLAX46Y46*%
G04 Gerber Fmt 4.6, Leading zero omitted, Abs format (unit mm)*
G04 Created by KiCad (PCBNEW 9.0.6) date 2026-06-09 01:32:53*
%MOMM*%
%LPD*%
G01*
G04 APERTURE LIST*
G04 Aperture macros list*
%AMRoundRect*
0 Rectangle with rounded corners*
0 $1 Rounding radius*
0 $2 $3 $4 $5 $6 $7 $8 $9 X,Y pos of 4 corners*
0 Add a 4 corners polygon primitive as box body*
4,1,4,$2,$3,$4,$5,$6,$7,$8,$9,$2,$3,0*
0 Add four circle primitives for the rounded corners*
1,1,$1+$1,$2,$3*
1,1,$1+$1,$4,$5*
1,1,$1+$1,$6,$7*
1,1,$1+$1,$8,$9*
0 Add four rect primitives between the rounded corners*
20,1,$1+$1,$2,$3,$4,$5,0*
20,1,$1+$1,$4,$5,$6,$7,0*
20,1,$1+$1,$6,$7,$8,$9,0*
20,1,$1+$1,$8,$9,$2,$3,0*%
G04 Aperture macros list end*
%ADD10RoundRect,0.225000X0.382356X0.212260X-0.007356X0.437260X-0.382356X-0.212260X0.007356X-0.437260X0*%
%ADD11RoundRect,0.100000X-0.204217X-0.137552X0.238947X-0.059410X0.204217X0.137552X-0.238947X0.059410X0*%
%ADD12RoundRect,0.225000X0.106066X-0.424264X0.424264X-0.106066X-0.106066X0.424264X-0.424264X0.106066X0*%
%ADD13RoundRect,0.200000X-0.264360X-0.213866X0.122010X-0.317393X0.264360X0.213866X-0.122010X0.317393X0*%
%ADD14RoundRect,0.200000X-0.149208X-0.305552X0.244715X-0.236092X0.149208X0.305552X-0.244715X0.236092X0*%
%ADD15RoundRect,0.100000X-0.161657X-0.185720X0.246181X0.004458X0.161657X0.185720X-0.246181X-0.004458X0*%
%ADD16RoundRect,0.200000X0.035705X0.338157X-0.310705X0.138157X-0.035705X-0.338157X0.310705X-0.138157X0*%
%ADD17RoundRect,0.225000X0.268659X-0.202355X0.229439X0.245933X-0.268659X0.202355X-0.229439X-0.245933X0*%
%ADD18RoundRect,0.100000X-0.191451X-0.154827X0.243215X-0.038358X0.191451X0.154827X-0.243215X0.038358X0*%
%ADD19RoundRect,0.100000X-0.177229X-0.170924X0.245633X-0.017015X0.177229X0.170924X-0.245633X0.017015X0*%
%ADD20RoundRect,0.225000X0.339688X0.275430X-0.083173X0.429339X-0.339688X-0.275430X0.083173X-0.429339X0*%
%ADD21RoundRect,0.225000X0.399400X0.178127X0.030782X0.436237X-0.399400X-0.178127X-0.030782X-0.436237X0*%
%ADD22RoundRect,0.225000X-0.183247X0.282038X-0.299716X-0.152629X0.183247X-0.282038X0.299716X0.152629X0*%
%ADD23RoundRect,0.200000X-0.256522X0.223207X-0.291385X-0.175271X0.256522X-0.223207X0.291385X0.175271X0*%
%ADD24RoundRect,0.225000X-0.098265X-0.321666X0.309574X-0.131488X0.098265X0.321666X-0.309574X0.131488X0*%
%ADD25RoundRect,0.112500X-0.387500X-0.262500X0.387500X-0.262500X0.387500X0.262500X-0.387500X0.262500X0*%
%ADD26RoundRect,0.200000X0.339982X-0.006097X0.110552X0.321564X-0.339982X0.006097X-0.110552X-0.321564X0*%
%ADD27RoundRect,0.225000X0.131488X-0.309574X0.321666X0.098265X-0.131488X0.309574X-0.321666X-0.098265X0*%
%ADD28R,0.300000X1.150000*%
%ADD29RoundRect,0.250000X0.286362X-0.454006X0.536362X-0.020994X-0.286362X0.454006X-0.536362X0.020994X0*%
%ADD30RoundRect,0.200000X-0.006097X-0.339982X0.321564X-0.110552X0.006097X0.339982X-0.321564X0.110552X0*%
%ADD31RoundRect,0.200000X-0.338157X0.035705X-0.138157X-0.310705X0.338157X-0.035705X0.138157X0.310705X0*%
%ADD32RoundRect,0.200000X-0.335876X-0.053033X-0.053033X-0.335876X0.335876X0.053033X0.053033X0.335876X0*%
%ADD33RoundRect,0.150000X-0.512500X-0.150000X0.512500X-0.150000X0.512500X0.150000X-0.512500X0.150000X0*%
%ADD34RoundRect,0.225000X0.413405X0.142639X0.068685X0.431894X-0.413405X-0.142639X-0.068685X-0.431894X0*%
%ADD35RoundRect,0.200000X-0.236092X0.244715X-0.305552X-0.149208X0.236092X-0.244715X0.305552X0.149208X0*%
%ADD36RoundRect,0.225000X-0.268659X0.202355X-0.229439X-0.245933X0.268659X-0.202355X0.229439X0.245933X0*%
%ADD37RoundRect,0.225000X0.362401X0.244776X-0.045437X0.434955X-0.362401X-0.244776X0.045437X-0.434955X0*%
%ADD38RoundRect,0.250000X-0.303155X-0.482801X0.542569X-0.174983X0.303155X0.482801X-0.542569X0.174983X0*%
%ADD39RoundRect,0.225000X0.142639X-0.413405X0.431894X-0.068685X-0.142639X0.413405X-0.431894X0.068685X0*%
%ADD40RoundRect,0.200000X0.149208X0.305552X-0.244715X0.236092X-0.149208X-0.305552X0.244715X-0.236092X0*%
%ADD41RoundRect,0.225000X-0.336138X0.011663X-0.046884X-0.333057X0.336138X-0.011663X0.046884X0.333057X0*%
%ADD42RoundRect,0.200000X0.023558X-0.339220X0.329975X-0.082105X-0.023558X0.339220X-0.329975X0.082105X0*%
%ADD43RoundRect,0.225000X-0.157969X0.296936X-0.311878X-0.125926X0.157969X-0.296936X0.311878X0.125926X0*%
%ADD44RoundRect,0.250000X0.524568X0.113813X0.203174X0.496835X-0.524568X-0.113813X-0.203174X-0.496835X0*%
%ADD45RoundRect,0.225000X-0.075733X0.327703X-0.333843X-0.040915X0.075733X-0.327703X0.333843X0.040915X0*%
%ADD46RoundRect,0.200000X-0.244715X-0.236092X0.149208X-0.305552X0.244715X0.236092X-0.149208X0.305552X0*%
%ADD47RoundRect,0.225000X-0.152629X-0.299716X0.282038X-0.183247X0.152629X0.299716X-0.282038X0.183247X0*%
%ADD48RoundRect,0.243750X-0.456250X0.243750X-0.456250X-0.243750X0.456250X-0.243750X0.456250X0.243750X0*%
G04 APERTURE END LIST*
D10*
X118878943Y-82024998D03*
X116021057Y-80375002D03*
D11*
X142297554Y-61795491D03*
X142410426Y-62435617D03*
X142523297Y-63075742D03*
X144394432Y-62745811D03*
X144281560Y-62105685D03*
X144168689Y-61465560D03*
D12*
X175383273Y-74566725D03*
X177716727Y-72233275D03*
D13*
X114953111Y-90586475D03*
X116546889Y-91013525D03*
D14*
X187137533Y-93443259D03*
X188762467Y-93156741D03*
D15*
X132664306Y-65062387D03*
X132939009Y-65651488D03*
X133213709Y-66240587D03*
X134935694Y-65437613D03*
X134660991Y-64848512D03*
X134386291Y-64259413D03*
D16*
X184014470Y-80387502D03*
X182585530Y-81212498D03*
D17*
X147017548Y-65422051D03*
X146882452Y-63877949D03*
D18*
X138970188Y-62604664D03*
X139138422Y-63232516D03*
X139306653Y-63860368D03*
X141141912Y-63368612D03*
X140973678Y-62740760D03*
X140805447Y-62112908D03*
D19*
X135758845Y-63677127D03*
X135981159Y-64287927D03*
X136203471Y-64898727D03*
X137988887Y-64248889D03*
X137766573Y-63638089D03*
X137544261Y-63027289D03*
D20*
X116200492Y-87714334D03*
X113099508Y-86585666D03*
D21*
X120551600Y-79396401D03*
X117848400Y-77503599D03*
D22*
X160150587Y-62051408D03*
X159749413Y-63548592D03*
D16*
X181414470Y-81887502D03*
X179985530Y-82712498D03*
D23*
X153171905Y-63828137D03*
X153028095Y-65471863D03*
D24*
X178395222Y-86715029D03*
X179800000Y-86059971D03*
D25*
X142600000Y-113925000D03*
X148600000Y-113925000D03*
X142600000Y-117675000D03*
X148600000Y-117675000D03*
D26*
X130123201Y-71625799D03*
X129176799Y-70274201D03*
D27*
X165922472Y-65802389D03*
X166577528Y-64397611D03*
D28*
X182980000Y-58982500D03*
X182180000Y-58982500D03*
X180880000Y-58982500D03*
X179880000Y-58982500D03*
X179380000Y-58982500D03*
X178380000Y-58982500D03*
X177080000Y-58982500D03*
X176280000Y-58982500D03*
X176580000Y-58982500D03*
X177380000Y-58982500D03*
X177880000Y-58982500D03*
X178880000Y-58982500D03*
X180380000Y-58982500D03*
X181380000Y-58982500D03*
X181880000Y-58982500D03*
X182680000Y-58982500D03*
D29*
X168675002Y-67672724D03*
X169624998Y-66027276D03*
D30*
X180887586Y-78373283D03*
X182239188Y-77426881D03*
D25*
X151400000Y-113925000D03*
X157400000Y-113925000D03*
X151400000Y-117675000D03*
X157400000Y-117675000D03*
D23*
X153447726Y-60836736D03*
X153303916Y-62480462D03*
D30*
X178424199Y-80123201D03*
X179775801Y-79176799D03*
D31*
X131887500Y-68535528D03*
X132712500Y-69964472D03*
D32*
X124366637Y-74316637D03*
X125533363Y-75483363D03*
D33*
X148879280Y-60665676D03*
X148879280Y-61615676D03*
X148879278Y-62565676D03*
X151154280Y-62565676D03*
X151154282Y-60665676D03*
D34*
X122463973Y-76910598D03*
X119936027Y-74789402D03*
D35*
X156843260Y-61287530D03*
X156556740Y-62912470D03*
D13*
X112053113Y-89836474D03*
X113646887Y-90263526D03*
D36*
X146581479Y-60900321D03*
X146716567Y-62444423D03*
D37*
X117395407Y-84797319D03*
X114404593Y-83402681D03*
D38*
X184057054Y-88574960D03*
X186124379Y-87822516D03*
X185542946Y-86225040D03*
X183475621Y-86977484D03*
D39*
X173139401Y-72413971D03*
X175260599Y-69886029D03*
D40*
X182548627Y-94339209D03*
X180923699Y-94625725D03*
D41*
X129101840Y-75106315D03*
X130098160Y-76293685D03*
D42*
X178818017Y-75830302D03*
X180081983Y-74769698D03*
D43*
X163437266Y-63105096D03*
X162907130Y-64561618D03*
D44*
X125910648Y-71277739D03*
X124689352Y-69822261D03*
D31*
X130287500Y-65935528D03*
X131112500Y-67364472D03*
D45*
X172508848Y-67774093D03*
X171619800Y-69043779D03*
D35*
X156293260Y-64237534D03*
X156006740Y-65862466D03*
D46*
X111237533Y-93156741D03*
X112862467Y-93443259D03*
D26*
X128423201Y-69175800D03*
X127476799Y-67824200D03*
D32*
X122233266Y-72033280D03*
X123400000Y-73200000D03*
D46*
X114237533Y-93706741D03*
X115862467Y-93993259D03*
D47*
X180502814Y-91801168D03*
X182000000Y-91400000D03*
D48*
X181799995Y-62562501D03*
X181800005Y-64437499D03*
M02*
