G04 #@! TF.GenerationSoftware,KiCad,Pcbnew,9.0.6*
G04 #@! TF.CreationDate,2026-06-09T01:32:53+09:00*
G04 #@! TF.ProjectId,Akira_board,416b6972-615f-4626-9f61-72642e6b6963,rev?*
G04 #@! TF.SameCoordinates,Original*
G04 #@! TF.FileFunction,Legend,Top*
G04 #@! TF.FilePolarity,Positive*
%FSLAX46Y46*%
G04 Gerber Fmt 4.6, Leading zero omitted, Abs format (unit mm)*
G04 Created by KiCad (PCBNEW 9.0.6) date 2026-06-09 01:32:53*
%MOMM*%
%LPD*%
G01*
G04 APERTURE LIST*
G04 Aperture macros list*
%AMRoundRect*
0 Rectangle with rounded corners*
0 $1 Rounding radius*
0 $2 $3 $4 $5 $6 $7 $8 $9 X,Y pos of 4 corners*
0 Add a 4 corners polygon primitive as box body*
4,1,4,$2,$3,$4,$5,$6,$7,$8,$9,$2,$3,0*
0 Add four circle primitives for the rounded corners*
1,1,$1+$1,$2,$3*
1,1,$1+$1,$4,$5*
1,1,$1+$1,$6,$7*
1,1,$1+$1,$8,$9*
0 Add four rect primitives between the rounded corners*
20,1,$1+$1,$2,$3,$4,$5,0*
20,1,$1+$1,$4,$5,$6,$7,0*
20,1,$1+$1,$6,$7,$8,$9,0*
20,1,$1+$1,$8,$9,$2,$3,0*%
G04 Aperture macros list end*
%ADD10C,0.100000*%
%ADD11C,0.150000*%
%ADD12C,0.120000*%
%ADD13RoundRect,0.225000X0.382356X0.212260X-0.007356X0.437260X-0.382356X-0.212260X0.007356X-0.437260X0*%
%ADD14RoundRect,0.100000X-0.204217X-0.137552X0.238947X-0.059410X0.204217X0.137552X-0.238947X0.059410X0*%
%ADD15C,2.700000*%
%ADD16RoundRect,0.225000X0.106066X-0.424264X0.424264X-0.106066X-0.106066X0.424264X-0.424264X0.106066X0*%
%ADD17C,2.200000*%
%ADD18C,2.600000*%
%ADD19C,1.850000*%
%ADD20RoundRect,0.200000X-0.264360X-0.213866X0.122010X-0.317393X0.264360X0.213866X-0.122010X0.317393X0*%
%ADD21RoundRect,0.200000X-0.149208X-0.305552X0.244715X-0.236092X0.149208X0.305552X-0.244715X0.236092X0*%
%ADD22RoundRect,0.100000X-0.161657X-0.185720X0.246181X0.004458X0.161657X0.185720X-0.246181X-0.004458X0*%
%ADD23RoundRect,0.200000X0.035705X0.338157X-0.310705X0.138157X-0.035705X-0.338157X0.310705X-0.138157X0*%
%ADD24RoundRect,0.225000X0.268659X-0.202355X0.229439X0.245933X-0.268659X0.202355X-0.229439X-0.245933X0*%
%ADD25C,2.000000*%
%ADD26RoundRect,0.100000X-0.191451X-0.154827X0.243215X-0.038358X0.191451X0.154827X-0.243215X0.038358X0*%
%ADD27R,1.600000X1.600000*%
%ADD28O,1.600000X1.600000*%
%ADD29RoundRect,0.100000X-0.177229X-0.170924X0.245633X-0.017015X0.177229X0.170924X-0.245633X0.017015X0*%
%ADD30RoundRect,0.225000X0.339688X0.275430X-0.083173X0.429339X-0.339688X-0.275430X0.083173X-0.429339X0*%
%ADD31RoundRect,0.225000X0.399400X0.178127X0.030782X0.436237X-0.399400X-0.178127X-0.030782X-0.436237X0*%
%ADD32RoundRect,0.225000X-0.183247X0.282038X-0.299716X-0.152629X0.183247X-0.282038X0.299716X0.152629X0*%
%ADD33RoundRect,0.200000X-0.256522X0.223207X-0.291385X-0.175271X0.256522X-0.223207X0.291385X0.175271X0*%
%ADD34RoundRect,0.225000X-0.098265X-0.321666X0.309574X-0.131488X0.098265X0.321666X-0.309574X0.131488X0*%
%ADD35RoundRect,0.112500X-0.387500X-0.262500X0.387500X-0.262500X0.387500X0.262500X-0.387500X0.262500X0*%
%ADD36RoundRect,0.200000X0.339982X-0.006097X0.110552X0.321564X-0.339982X0.006097X-0.110552X-0.321564X0*%
%ADD37RoundRect,0.225000X0.131488X-0.309574X0.321666X0.098265X-0.131488X0.309574X-0.321666X-0.098265X0*%
%ADD38C,0.650000*%
%ADD39R,0.300000X1.150000*%
%ADD40O,1.000000X2.100000*%
%ADD41O,1.000000X1.800000*%
%ADD42RoundRect,0.250000X0.286362X-0.454006X0.536362X-0.020994X-0.286362X0.454006X-0.536362X0.020994X0*%
%ADD43R,2.000000X2.000000*%
%ADD44R,2.000000X3.200000*%
%ADD45RoundRect,0.200000X-0.006097X-0.339982X0.321564X-0.110552X0.006097X0.339982X-0.321564X0.110552X0*%
%ADD46C,5.400000*%
%ADD47C,4.400000*%
%ADD48C,6.400000*%
%ADD49RoundRect,0.200000X-0.338157X0.035705X-0.138157X-0.310705X0.338157X-0.035705X0.138157X0.310705X0*%
%ADD50RoundRect,0.200000X-0.335876X-0.053033X-0.053033X-0.335876X0.335876X0.053033X0.053033X0.335876X0*%
%ADD51RoundRect,0.150000X-0.512500X-0.150000X0.512500X-0.150000X0.512500X0.150000X-0.512500X0.150000X0*%
%ADD52RoundRect,0.225000X0.413405X0.142639X0.068685X0.431894X-0.413405X-0.142639X-0.068685X-0.431894X0*%
%ADD53RoundRect,0.200000X-0.236092X0.244715X-0.305552X-0.149208X0.236092X-0.244715X0.305552X0.149208X0*%
%ADD54RoundRect,0.225000X-0.268659X0.202355X-0.229439X-0.245933X0.268659X-0.202355X0.229439X0.245933X0*%
%ADD55RoundRect,0.225000X0.362401X0.244776X-0.045437X0.434955X-0.362401X-0.244776X0.045437X-0.434955X0*%
%ADD56RoundRect,0.250000X-0.303155X-0.482801X0.542569X-0.174983X0.303155X0.482801X-0.542569X0.174983X0*%
%ADD57RoundRect,0.225000X0.142639X-0.413405X0.431894X-0.068685X-0.142639X0.413405X-0.431894X0.068685X0*%
%ADD58RoundRect,0.200000X0.149208X0.305552X-0.244715X0.236092X-0.149208X-0.305552X0.244715X-0.236092X0*%
%ADD59RoundRect,0.225000X-0.336138X0.011663X-0.046884X-0.333057X0.336138X-0.011663X0.046884X0.333057X0*%
%ADD60RoundRect,0.200000X0.023558X-0.339220X0.329975X-0.082105X-0.023558X0.339220X-0.329975X0.082105X0*%
%ADD61RoundRect,0.225000X-0.157969X0.296936X-0.311878X-0.125926X0.157969X-0.296936X0.311878X0.125926X0*%
%ADD62RoundRect,0.250000X0.524568X0.113813X0.203174X0.496835X-0.524568X-0.113813X-0.203174X-0.496835X0*%
%ADD63RoundRect,0.225000X-0.075733X0.327703X-0.333843X-0.040915X0.075733X-0.327703X0.333843X0.040915X0*%
%ADD64RoundRect,0.200000X-0.244715X-0.236092X0.149208X-0.305552X0.244715X0.236092X-0.149208X0.305552X0*%
%ADD65R,1.700000X1.700000*%
%ADD66O,1.700000X1.700000*%
%ADD67RoundRect,0.225000X-0.152629X-0.299716X0.282038X-0.183247X0.152629X0.299716X-0.282038X0.183247X0*%
%ADD68RoundRect,0.243750X-0.456250X0.243750X-0.456250X-0.243750X0.456250X-0.243750X0.456250X0.243750X0*%
%ADD69R,1.200000X1.200000*%
%ADD70C,1.200000*%
G04 APERTURE END LIST*
D10*
X101256704Y-90143734D02*
X101256704Y-89667544D01*
X101542419Y-90238972D02*
X100542419Y-89905639D01*
X100542419Y-89905639D02*
X101542419Y-89572306D01*
X101542419Y-89238972D02*
X100542419Y-89238972D01*
X101161466Y-89143734D02*
X101542419Y-88858020D01*
X100875752Y-88858020D02*
X101256704Y-89238972D01*
X101542419Y-88429448D02*
X100875752Y-88429448D01*
X100542419Y-88429448D02*
X100590038Y-88477067D01*
X100590038Y-88477067D02*
X100637657Y-88429448D01*
X100637657Y-88429448D02*
X100590038Y-88381829D01*
X100590038Y-88381829D02*
X100542419Y-88429448D01*
X100542419Y-88429448D02*
X100637657Y-88429448D01*
X101542419Y-87953258D02*
X100875752Y-87953258D01*
X101066228Y-87953258D02*
X100970990Y-87905639D01*
X100970990Y-87905639D02*
X100923371Y-87858020D01*
X100923371Y-87858020D02*
X100875752Y-87762782D01*
X100875752Y-87762782D02*
X100875752Y-87667544D01*
X101542419Y-86905639D02*
X101018609Y-86905639D01*
X101018609Y-86905639D02*
X100923371Y-86953258D01*
X100923371Y-86953258D02*
X100875752Y-87048496D01*
X100875752Y-87048496D02*
X100875752Y-87238972D01*
X100875752Y-87238972D02*
X100923371Y-87334210D01*
X101494800Y-86905639D02*
X101542419Y-87000877D01*
X101542419Y-87000877D02*
X101542419Y-87238972D01*
X101542419Y-87238972D02*
X101494800Y-87334210D01*
X101494800Y-87334210D02*
X101399561Y-87381829D01*
X101399561Y-87381829D02*
X101304323Y-87381829D01*
X101304323Y-87381829D02*
X101209085Y-87334210D01*
X101209085Y-87334210D02*
X101161466Y-87238972D01*
X101161466Y-87238972D02*
X101161466Y-87000877D01*
X101161466Y-87000877D02*
X101113847Y-86905639D01*
X101018609Y-85334210D02*
X101066228Y-85191353D01*
X101066228Y-85191353D02*
X101113847Y-85143734D01*
X101113847Y-85143734D02*
X101209085Y-85096115D01*
X101209085Y-85096115D02*
X101351942Y-85096115D01*
X101351942Y-85096115D02*
X101447180Y-85143734D01*
X101447180Y-85143734D02*
X101494800Y-85191353D01*
X101494800Y-85191353D02*
X101542419Y-85286591D01*
X101542419Y-85286591D02*
X101542419Y-85667543D01*
X101542419Y-85667543D02*
X100542419Y-85667543D01*
X100542419Y-85667543D02*
X100542419Y-85334210D01*
X100542419Y-85334210D02*
X100590038Y-85238972D01*
X100590038Y-85238972D02*
X100637657Y-85191353D01*
X100637657Y-85191353D02*
X100732895Y-85143734D01*
X100732895Y-85143734D02*
X100828133Y-85143734D01*
X100828133Y-85143734D02*
X100923371Y-85191353D01*
X100923371Y-85191353D02*
X100970990Y-85238972D01*
X100970990Y-85238972D02*
X101018609Y-85334210D01*
X101018609Y-85334210D02*
X101018609Y-85667543D01*
X101542419Y-84238972D02*
X101018609Y-84238972D01*
X101018609Y-84238972D02*
X100923371Y-84286591D01*
X100923371Y-84286591D02*
X100875752Y-84381829D01*
X100875752Y-84381829D02*
X100875752Y-84572305D01*
X100875752Y-84572305D02*
X100923371Y-84667543D01*
X101494800Y-84238972D02*
X101542419Y-84334210D01*
X101542419Y-84334210D02*
X101542419Y-84572305D01*
X101542419Y-84572305D02*
X101494800Y-84667543D01*
X101494800Y-84667543D02*
X101399561Y-84715162D01*
X101399561Y-84715162D02*
X101304323Y-84715162D01*
X101304323Y-84715162D02*
X101209085Y-84667543D01*
X101209085Y-84667543D02*
X101161466Y-84572305D01*
X101161466Y-84572305D02*
X101161466Y-84334210D01*
X101161466Y-84334210D02*
X101113847Y-84238972D01*
X101542419Y-83619924D02*
X101494800Y-83715162D01*
X101494800Y-83715162D02*
X101399561Y-83762781D01*
X101399561Y-83762781D02*
X100542419Y-83762781D01*
X101542419Y-83096114D02*
X101494800Y-83191352D01*
X101494800Y-83191352D02*
X101399561Y-83238971D01*
X101399561Y-83238971D02*
X100542419Y-83238971D01*
X101447180Y-81953256D02*
X101494800Y-81905637D01*
X101494800Y-81905637D02*
X101542419Y-81953256D01*
X101542419Y-81953256D02*
X101494800Y-82000875D01*
X101494800Y-82000875D02*
X101447180Y-81953256D01*
X101447180Y-81953256D02*
X101542419Y-81953256D01*
X100923371Y-81953256D02*
X100970990Y-81905637D01*
X100970990Y-81905637D02*
X101018609Y-81953256D01*
X101018609Y-81953256D02*
X100970990Y-82000875D01*
X100970990Y-82000875D02*
X100923371Y-81953256D01*
X100923371Y-81953256D02*
X101018609Y-81953256D01*
X101542419Y-80143733D02*
X101066228Y-80477066D01*
X101542419Y-80715161D02*
X100542419Y-80715161D01*
X100542419Y-80715161D02*
X100542419Y-80334209D01*
X100542419Y-80334209D02*
X100590038Y-80238971D01*
X100590038Y-80238971D02*
X100637657Y-80191352D01*
X100637657Y-80191352D02*
X100732895Y-80143733D01*
X100732895Y-80143733D02*
X100875752Y-80143733D01*
X100875752Y-80143733D02*
X100970990Y-80191352D01*
X100970990Y-80191352D02*
X101018609Y-80238971D01*
X101018609Y-80238971D02*
X101066228Y-80334209D01*
X101066228Y-80334209D02*
X101066228Y-80715161D01*
X101494800Y-79334209D02*
X101542419Y-79429447D01*
X101542419Y-79429447D02*
X101542419Y-79619923D01*
X101542419Y-79619923D02*
X101494800Y-79715161D01*
X101494800Y-79715161D02*
X101399561Y-79762780D01*
X101399561Y-79762780D02*
X101018609Y-79762780D01*
X101018609Y-79762780D02*
X100923371Y-79715161D01*
X100923371Y-79715161D02*
X100875752Y-79619923D01*
X100875752Y-79619923D02*
X100875752Y-79429447D01*
X100875752Y-79429447D02*
X100923371Y-79334209D01*
X100923371Y-79334209D02*
X101018609Y-79286590D01*
X101018609Y-79286590D02*
X101113847Y-79286590D01*
X101113847Y-79286590D02*
X101209085Y-79762780D01*
X100875752Y-78953256D02*
X101542419Y-78715161D01*
X101542419Y-78715161D02*
X100875752Y-78477066D01*
X100637657Y-77381827D02*
X100590038Y-77334208D01*
X100590038Y-77334208D02*
X100542419Y-77238970D01*
X100542419Y-77238970D02*
X100542419Y-77000875D01*
X100542419Y-77000875D02*
X100590038Y-76905637D01*
X100590038Y-76905637D02*
X100637657Y-76858018D01*
X100637657Y-76858018D02*
X100732895Y-76810399D01*
X100732895Y-76810399D02*
X100828133Y-76810399D01*
X100828133Y-76810399D02*
X100970990Y-76858018D01*
X100970990Y-76858018D02*
X101542419Y-77429446D01*
X101542419Y-77429446D02*
X101542419Y-76810399D01*
X102628553Y-86000878D02*
X102676172Y-85858021D01*
X102676172Y-85858021D02*
X102723791Y-85810402D01*
X102723791Y-85810402D02*
X102819029Y-85762783D01*
X102819029Y-85762783D02*
X102961886Y-85762783D01*
X102961886Y-85762783D02*
X103057124Y-85810402D01*
X103057124Y-85810402D02*
X103104744Y-85858021D01*
X103104744Y-85858021D02*
X103152363Y-85953259D01*
X103152363Y-85953259D02*
X103152363Y-86334211D01*
X103152363Y-86334211D02*
X102152363Y-86334211D01*
X102152363Y-86334211D02*
X102152363Y-86000878D01*
X102152363Y-86000878D02*
X102199982Y-85905640D01*
X102199982Y-85905640D02*
X102247601Y-85858021D01*
X102247601Y-85858021D02*
X102342839Y-85810402D01*
X102342839Y-85810402D02*
X102438077Y-85810402D01*
X102438077Y-85810402D02*
X102533315Y-85858021D01*
X102533315Y-85858021D02*
X102580934Y-85905640D01*
X102580934Y-85905640D02*
X102628553Y-86000878D01*
X102628553Y-86000878D02*
X102628553Y-86334211D01*
X102485696Y-85429449D02*
X103152363Y-85191354D01*
X102485696Y-84953259D02*
X103152363Y-85191354D01*
X103152363Y-85191354D02*
X103390458Y-85286592D01*
X103390458Y-85286592D02*
X103438077Y-85334211D01*
X103438077Y-85334211D02*
X103485696Y-85429449D01*
X103057124Y-83810401D02*
X103104744Y-83762782D01*
X103104744Y-83762782D02*
X103152363Y-83810401D01*
X103152363Y-83810401D02*
X103104744Y-83858020D01*
X103104744Y-83858020D02*
X103057124Y-83810401D01*
X103057124Y-83810401D02*
X103152363Y-83810401D01*
X102533315Y-83810401D02*
X102580934Y-83762782D01*
X102580934Y-83762782D02*
X102628553Y-83810401D01*
X102628553Y-83810401D02*
X102580934Y-83858020D01*
X102580934Y-83858020D02*
X102533315Y-83810401D01*
X102533315Y-83810401D02*
X102628553Y-83810401D01*
X103152363Y-82572306D02*
X102152363Y-82572306D01*
X103152363Y-82000878D02*
X102580934Y-82429449D01*
X102152363Y-82000878D02*
X102723791Y-82572306D01*
X102485696Y-81667544D02*
X103152363Y-81429449D01*
X102485696Y-81191354D02*
X103152363Y-81429449D01*
X103152363Y-81429449D02*
X103390458Y-81524687D01*
X103390458Y-81524687D02*
X103438077Y-81572306D01*
X103438077Y-81572306D02*
X103485696Y-81667544D01*
X103104744Y-80429449D02*
X103152363Y-80524687D01*
X103152363Y-80524687D02*
X103152363Y-80715163D01*
X103152363Y-80715163D02*
X103104744Y-80810401D01*
X103104744Y-80810401D02*
X103009505Y-80858020D01*
X103009505Y-80858020D02*
X102628553Y-80858020D01*
X102628553Y-80858020D02*
X102533315Y-80810401D01*
X102533315Y-80810401D02*
X102485696Y-80715163D01*
X102485696Y-80715163D02*
X102485696Y-80524687D01*
X102485696Y-80524687D02*
X102533315Y-80429449D01*
X102533315Y-80429449D02*
X102628553Y-80381830D01*
X102628553Y-80381830D02*
X102723791Y-80381830D01*
X102723791Y-80381830D02*
X102819029Y-80858020D01*
X103152363Y-79191353D02*
X102152363Y-79191353D01*
X102152363Y-79191353D02*
X102866648Y-78858020D01*
X102866648Y-78858020D02*
X102152363Y-78524687D01*
X102152363Y-78524687D02*
X103152363Y-78524687D01*
X103152363Y-77905639D02*
X103104744Y-78000877D01*
X103104744Y-78000877D02*
X103057124Y-78048496D01*
X103057124Y-78048496D02*
X102961886Y-78096115D01*
X102961886Y-78096115D02*
X102676172Y-78096115D01*
X102676172Y-78096115D02*
X102580934Y-78048496D01*
X102580934Y-78048496D02*
X102533315Y-78000877D01*
X102533315Y-78000877D02*
X102485696Y-77905639D01*
X102485696Y-77905639D02*
X102485696Y-77762782D01*
X102485696Y-77762782D02*
X102533315Y-77667544D01*
X102533315Y-77667544D02*
X102580934Y-77619925D01*
X102580934Y-77619925D02*
X102676172Y-77572306D01*
X102676172Y-77572306D02*
X102961886Y-77572306D01*
X102961886Y-77572306D02*
X103057124Y-77619925D01*
X103057124Y-77619925D02*
X103104744Y-77667544D01*
X103104744Y-77667544D02*
X103152363Y-77762782D01*
X103152363Y-77762782D02*
X103152363Y-77905639D01*
X103152363Y-77143734D02*
X102485696Y-77143734D01*
X102676172Y-77143734D02*
X102580934Y-77096115D01*
X102580934Y-77096115D02*
X102533315Y-77048496D01*
X102533315Y-77048496D02*
X102485696Y-76953258D01*
X102485696Y-76953258D02*
X102485696Y-76858020D01*
X103152363Y-76524686D02*
X102485696Y-76524686D01*
X102676172Y-76524686D02*
X102580934Y-76477067D01*
X102580934Y-76477067D02*
X102533315Y-76429448D01*
X102533315Y-76429448D02*
X102485696Y-76334210D01*
X102485696Y-76334210D02*
X102485696Y-76238972D01*
X103152363Y-75905638D02*
X102485696Y-75905638D01*
X102152363Y-75905638D02*
X102199982Y-75953257D01*
X102199982Y-75953257D02*
X102247601Y-75905638D01*
X102247601Y-75905638D02*
X102199982Y-75858019D01*
X102199982Y-75858019D02*
X102152363Y-75905638D01*
X102152363Y-75905638D02*
X102247601Y-75905638D01*
X103104744Y-75477067D02*
X103152363Y-75381829D01*
X103152363Y-75381829D02*
X103152363Y-75191353D01*
X103152363Y-75191353D02*
X103104744Y-75096115D01*
X103104744Y-75096115D02*
X103009505Y-75048496D01*
X103009505Y-75048496D02*
X102961886Y-75048496D01*
X102961886Y-75048496D02*
X102866648Y-75096115D01*
X102866648Y-75096115D02*
X102819029Y-75191353D01*
X102819029Y-75191353D02*
X102819029Y-75334210D01*
X102819029Y-75334210D02*
X102771410Y-75429448D01*
X102771410Y-75429448D02*
X102676172Y-75477067D01*
X102676172Y-75477067D02*
X102628553Y-75477067D01*
X102628553Y-75477067D02*
X102533315Y-75429448D01*
X102533315Y-75429448D02*
X102485696Y-75334210D01*
X102485696Y-75334210D02*
X102485696Y-75191353D01*
X102485696Y-75191353D02*
X102533315Y-75096115D01*
X102771410Y-74619924D02*
X102771410Y-73858020D01*
X102152363Y-73524686D02*
X102152363Y-72953258D01*
X103152363Y-73238972D02*
X102152363Y-73238972D01*
X103152363Y-72191353D02*
X102628553Y-72191353D01*
X102628553Y-72191353D02*
X102533315Y-72238972D01*
X102533315Y-72238972D02*
X102485696Y-72334210D01*
X102485696Y-72334210D02*
X102485696Y-72524686D01*
X102485696Y-72524686D02*
X102533315Y-72619924D01*
X103104744Y-72191353D02*
X103152363Y-72286591D01*
X103152363Y-72286591D02*
X103152363Y-72524686D01*
X103152363Y-72524686D02*
X103104744Y-72619924D01*
X103104744Y-72619924D02*
X103009505Y-72667543D01*
X103009505Y-72667543D02*
X102914267Y-72667543D01*
X102914267Y-72667543D02*
X102819029Y-72619924D01*
X102819029Y-72619924D02*
X102771410Y-72524686D01*
X102771410Y-72524686D02*
X102771410Y-72286591D01*
X102771410Y-72286591D02*
X102723791Y-72191353D01*
X103152363Y-71715162D02*
X102152363Y-71715162D01*
X102771410Y-71619924D02*
X103152363Y-71334210D01*
X102485696Y-71334210D02*
X102866648Y-71715162D01*
X103152363Y-70477067D02*
X102628553Y-70477067D01*
X102628553Y-70477067D02*
X102533315Y-70524686D01*
X102533315Y-70524686D02*
X102485696Y-70619924D01*
X102485696Y-70619924D02*
X102485696Y-70810400D01*
X102485696Y-70810400D02*
X102533315Y-70905638D01*
X103104744Y-70477067D02*
X103152363Y-70572305D01*
X103152363Y-70572305D02*
X103152363Y-70810400D01*
X103152363Y-70810400D02*
X103104744Y-70905638D01*
X103104744Y-70905638D02*
X103009505Y-70953257D01*
X103009505Y-70953257D02*
X102914267Y-70953257D01*
X102914267Y-70953257D02*
X102819029Y-70905638D01*
X102819029Y-70905638D02*
X102771410Y-70810400D01*
X102771410Y-70810400D02*
X102771410Y-70572305D01*
X102771410Y-70572305D02*
X102723791Y-70477067D01*
X103152363Y-70000876D02*
X102485696Y-70000876D01*
X102580934Y-70000876D02*
X102533315Y-69953257D01*
X102533315Y-69953257D02*
X102485696Y-69858019D01*
X102485696Y-69858019D02*
X102485696Y-69715162D01*
X102485696Y-69715162D02*
X102533315Y-69619924D01*
X102533315Y-69619924D02*
X102628553Y-69572305D01*
X102628553Y-69572305D02*
X103152363Y-69572305D01*
X102628553Y-69572305D02*
X102533315Y-69524686D01*
X102533315Y-69524686D02*
X102485696Y-69429448D01*
X102485696Y-69429448D02*
X102485696Y-69286591D01*
X102485696Y-69286591D02*
X102533315Y-69191352D01*
X102533315Y-69191352D02*
X102628553Y-69143733D01*
X102628553Y-69143733D02*
X103152363Y-69143733D01*
X103152363Y-68524686D02*
X103104744Y-68619924D01*
X103104744Y-68619924D02*
X103057124Y-68667543D01*
X103057124Y-68667543D02*
X102961886Y-68715162D01*
X102961886Y-68715162D02*
X102676172Y-68715162D01*
X102676172Y-68715162D02*
X102580934Y-68667543D01*
X102580934Y-68667543D02*
X102533315Y-68619924D01*
X102533315Y-68619924D02*
X102485696Y-68524686D01*
X102485696Y-68524686D02*
X102485696Y-68381829D01*
X102485696Y-68381829D02*
X102533315Y-68286591D01*
X102533315Y-68286591D02*
X102580934Y-68238972D01*
X102580934Y-68238972D02*
X102676172Y-68191353D01*
X102676172Y-68191353D02*
X102961886Y-68191353D01*
X102961886Y-68191353D02*
X103057124Y-68238972D01*
X103057124Y-68238972D02*
X103104744Y-68286591D01*
X103104744Y-68286591D02*
X103152363Y-68381829D01*
X103152363Y-68381829D02*
X103152363Y-68524686D01*
X102485696Y-67905638D02*
X102485696Y-67524686D01*
X102152363Y-67762781D02*
X103009505Y-67762781D01*
X103009505Y-67762781D02*
X103104744Y-67715162D01*
X103104744Y-67715162D02*
X103152363Y-67619924D01*
X103152363Y-67619924D02*
X103152363Y-67524686D01*
X103152363Y-67048495D02*
X103104744Y-67143733D01*
X103104744Y-67143733D02*
X103057124Y-67191352D01*
X103057124Y-67191352D02*
X102961886Y-67238971D01*
X102961886Y-67238971D02*
X102676172Y-67238971D01*
X102676172Y-67238971D02*
X102580934Y-67191352D01*
X102580934Y-67191352D02*
X102533315Y-67143733D01*
X102533315Y-67143733D02*
X102485696Y-67048495D01*
X102485696Y-67048495D02*
X102485696Y-66905638D01*
X102485696Y-66905638D02*
X102533315Y-66810400D01*
X102533315Y-66810400D02*
X102580934Y-66762781D01*
X102580934Y-66762781D02*
X102676172Y-66715162D01*
X102676172Y-66715162D02*
X102961886Y-66715162D01*
X102961886Y-66715162D02*
X103057124Y-66762781D01*
X103057124Y-66762781D02*
X103104744Y-66810400D01*
X103104744Y-66810400D02*
X103152363Y-66905638D01*
X103152363Y-66905638D02*
X103152363Y-67048495D01*
X104762307Y-90096115D02*
X104095640Y-90096115D01*
X104286116Y-90096115D02*
X104190878Y-90048496D01*
X104190878Y-90048496D02*
X104143259Y-90000877D01*
X104143259Y-90000877D02*
X104095640Y-89905639D01*
X104095640Y-89905639D02*
X104095640Y-89810401D01*
X104762307Y-89334210D02*
X104714688Y-89429448D01*
X104714688Y-89429448D02*
X104667068Y-89477067D01*
X104667068Y-89477067D02*
X104571830Y-89524686D01*
X104571830Y-89524686D02*
X104286116Y-89524686D01*
X104286116Y-89524686D02*
X104190878Y-89477067D01*
X104190878Y-89477067D02*
X104143259Y-89429448D01*
X104143259Y-89429448D02*
X104095640Y-89334210D01*
X104095640Y-89334210D02*
X104095640Y-89191353D01*
X104095640Y-89191353D02*
X104143259Y-89096115D01*
X104143259Y-89096115D02*
X104190878Y-89048496D01*
X104190878Y-89048496D02*
X104286116Y-89000877D01*
X104286116Y-89000877D02*
X104571830Y-89000877D01*
X104571830Y-89000877D02*
X104667068Y-89048496D01*
X104667068Y-89048496D02*
X104714688Y-89096115D01*
X104714688Y-89096115D02*
X104762307Y-89191353D01*
X104762307Y-89191353D02*
X104762307Y-89334210D01*
X104762307Y-88429448D02*
X104714688Y-88524686D01*
X104714688Y-88524686D02*
X104619449Y-88572305D01*
X104619449Y-88572305D02*
X103762307Y-88572305D01*
X104762307Y-87905638D02*
X104714688Y-88000876D01*
X104714688Y-88000876D02*
X104619449Y-88048495D01*
X104619449Y-88048495D02*
X103762307Y-88048495D01*
X104762307Y-87524685D02*
X104095640Y-87524685D01*
X103762307Y-87524685D02*
X103809926Y-87572304D01*
X103809926Y-87572304D02*
X103857545Y-87524685D01*
X103857545Y-87524685D02*
X103809926Y-87477066D01*
X103809926Y-87477066D02*
X103762307Y-87524685D01*
X103762307Y-87524685D02*
X103857545Y-87524685D01*
X104095640Y-87048495D02*
X104762307Y-87048495D01*
X104190878Y-87048495D02*
X104143259Y-87000876D01*
X104143259Y-87000876D02*
X104095640Y-86905638D01*
X104095640Y-86905638D02*
X104095640Y-86762781D01*
X104095640Y-86762781D02*
X104143259Y-86667543D01*
X104143259Y-86667543D02*
X104238497Y-86619924D01*
X104238497Y-86619924D02*
X104762307Y-86619924D01*
X104095640Y-85715162D02*
X104905164Y-85715162D01*
X104905164Y-85715162D02*
X105000402Y-85762781D01*
X105000402Y-85762781D02*
X105048021Y-85810400D01*
X105048021Y-85810400D02*
X105095640Y-85905638D01*
X105095640Y-85905638D02*
X105095640Y-86048495D01*
X105095640Y-86048495D02*
X105048021Y-86143733D01*
X104714688Y-85715162D02*
X104762307Y-85810400D01*
X104762307Y-85810400D02*
X104762307Y-86000876D01*
X104762307Y-86000876D02*
X104714688Y-86096114D01*
X104714688Y-86096114D02*
X104667068Y-86143733D01*
X104667068Y-86143733D02*
X104571830Y-86191352D01*
X104571830Y-86191352D02*
X104286116Y-86191352D01*
X104286116Y-86191352D02*
X104190878Y-86143733D01*
X104190878Y-86143733D02*
X104143259Y-86096114D01*
X104143259Y-86096114D02*
X104095640Y-86000876D01*
X104095640Y-86000876D02*
X104095640Y-85810400D01*
X104095640Y-85810400D02*
X104143259Y-85715162D01*
X104857545Y-85477067D02*
X104857545Y-84715162D01*
X104762307Y-84477066D02*
X103762307Y-84477066D01*
X104143259Y-84477066D02*
X104095640Y-84381828D01*
X104095640Y-84381828D02*
X104095640Y-84191352D01*
X104095640Y-84191352D02*
X104143259Y-84096114D01*
X104143259Y-84096114D02*
X104190878Y-84048495D01*
X104190878Y-84048495D02*
X104286116Y-84000876D01*
X104286116Y-84000876D02*
X104571830Y-84000876D01*
X104571830Y-84000876D02*
X104667068Y-84048495D01*
X104667068Y-84048495D02*
X104714688Y-84096114D01*
X104714688Y-84096114D02*
X104762307Y-84191352D01*
X104762307Y-84191352D02*
X104762307Y-84381828D01*
X104762307Y-84381828D02*
X104714688Y-84477066D01*
X104762307Y-83143733D02*
X104238497Y-83143733D01*
X104238497Y-83143733D02*
X104143259Y-83191352D01*
X104143259Y-83191352D02*
X104095640Y-83286590D01*
X104095640Y-83286590D02*
X104095640Y-83477066D01*
X104095640Y-83477066D02*
X104143259Y-83572304D01*
X104714688Y-83143733D02*
X104762307Y-83238971D01*
X104762307Y-83238971D02*
X104762307Y-83477066D01*
X104762307Y-83477066D02*
X104714688Y-83572304D01*
X104714688Y-83572304D02*
X104619449Y-83619923D01*
X104619449Y-83619923D02*
X104524211Y-83619923D01*
X104524211Y-83619923D02*
X104428973Y-83572304D01*
X104428973Y-83572304D02*
X104381354Y-83477066D01*
X104381354Y-83477066D02*
X104381354Y-83238971D01*
X104381354Y-83238971D02*
X104333735Y-83143733D01*
X104762307Y-82524685D02*
X104714688Y-82619923D01*
X104714688Y-82619923D02*
X104619449Y-82667542D01*
X104619449Y-82667542D02*
X103762307Y-82667542D01*
X104762307Y-82000875D02*
X104714688Y-82096113D01*
X104714688Y-82096113D02*
X104619449Y-82143732D01*
X104619449Y-82143732D02*
X103762307Y-82143732D01*
X104762307Y-80381827D02*
X104762307Y-80858017D01*
X104762307Y-80858017D02*
X103762307Y-80858017D01*
X104762307Y-79619922D02*
X104238497Y-79619922D01*
X104238497Y-79619922D02*
X104143259Y-79667541D01*
X104143259Y-79667541D02*
X104095640Y-79762779D01*
X104095640Y-79762779D02*
X104095640Y-79953255D01*
X104095640Y-79953255D02*
X104143259Y-80048493D01*
X104714688Y-79619922D02*
X104762307Y-79715160D01*
X104762307Y-79715160D02*
X104762307Y-79953255D01*
X104762307Y-79953255D02*
X104714688Y-80048493D01*
X104714688Y-80048493D02*
X104619449Y-80096112D01*
X104619449Y-80096112D02*
X104524211Y-80096112D01*
X104524211Y-80096112D02*
X104428973Y-80048493D01*
X104428973Y-80048493D02*
X104381354Y-79953255D01*
X104381354Y-79953255D02*
X104381354Y-79715160D01*
X104381354Y-79715160D02*
X104333735Y-79619922D01*
X104762307Y-79143731D02*
X103762307Y-79143731D01*
X104143259Y-79143731D02*
X104095640Y-79048493D01*
X104095640Y-79048493D02*
X104095640Y-78858017D01*
X104095640Y-78858017D02*
X104143259Y-78762779D01*
X104143259Y-78762779D02*
X104190878Y-78715160D01*
X104190878Y-78715160D02*
X104286116Y-78667541D01*
X104286116Y-78667541D02*
X104571830Y-78667541D01*
X104571830Y-78667541D02*
X104667068Y-78715160D01*
X104667068Y-78715160D02*
X104714688Y-78762779D01*
X104714688Y-78762779D02*
X104762307Y-78858017D01*
X104762307Y-78858017D02*
X104762307Y-79048493D01*
X104762307Y-79048493D02*
X104714688Y-79143731D01*
X98456265Y-94214856D02*
X98599122Y-94262475D01*
X98599122Y-94262475D02*
X98837217Y-94262475D01*
X98837217Y-94262475D02*
X98932455Y-94214856D01*
X98932455Y-94214856D02*
X98980074Y-94167236D01*
X98980074Y-94167236D02*
X99027693Y-94071998D01*
X99027693Y-94071998D02*
X99027693Y-93976760D01*
X99027693Y-93976760D02*
X98980074Y-93881522D01*
X98980074Y-93881522D02*
X98932455Y-93833903D01*
X98932455Y-93833903D02*
X98837217Y-93786284D01*
X98837217Y-93786284D02*
X98646741Y-93738665D01*
X98646741Y-93738665D02*
X98551503Y-93691046D01*
X98551503Y-93691046D02*
X98503884Y-93643427D01*
X98503884Y-93643427D02*
X98456265Y-93548189D01*
X98456265Y-93548189D02*
X98456265Y-93452951D01*
X98456265Y-93452951D02*
X98503884Y-93357713D01*
X98503884Y-93357713D02*
X98551503Y-93310094D01*
X98551503Y-93310094D02*
X98646741Y-93262475D01*
X98646741Y-93262475D02*
X98884836Y-93262475D01*
X98884836Y-93262475D02*
X99027693Y-93310094D01*
X99456265Y-94262475D02*
X99456265Y-93262475D01*
X99456265Y-93262475D02*
X99694360Y-93262475D01*
X99694360Y-93262475D02*
X99837217Y-93310094D01*
X99837217Y-93310094D02*
X99932455Y-93405332D01*
X99932455Y-93405332D02*
X99980074Y-93500570D01*
X99980074Y-93500570D02*
X100027693Y-93691046D01*
X100027693Y-93691046D02*
X100027693Y-93833903D01*
X100027693Y-93833903D02*
X99980074Y-94024379D01*
X99980074Y-94024379D02*
X99932455Y-94119617D01*
X99932455Y-94119617D02*
X99837217Y-94214856D01*
X99837217Y-94214856D02*
X99694360Y-94262475D01*
X99694360Y-94262475D02*
X99456265Y-94262475D01*
X100408646Y-93976760D02*
X100884836Y-93976760D01*
X100313408Y-94262475D02*
X100646741Y-93262475D01*
X100646741Y-93262475D02*
X100980074Y-94262475D01*
X101551503Y-94595808D02*
X101551503Y-93167236D01*
X102218170Y-94214856D02*
X102361027Y-94262475D01*
X102361027Y-94262475D02*
X102599122Y-94262475D01*
X102599122Y-94262475D02*
X102694360Y-94214856D01*
X102694360Y-94214856D02*
X102741979Y-94167236D01*
X102741979Y-94167236D02*
X102789598Y-94071998D01*
X102789598Y-94071998D02*
X102789598Y-93976760D01*
X102789598Y-93976760D02*
X102741979Y-93881522D01*
X102741979Y-93881522D02*
X102694360Y-93833903D01*
X102694360Y-93833903D02*
X102599122Y-93786284D01*
X102599122Y-93786284D02*
X102408646Y-93738665D01*
X102408646Y-93738665D02*
X102313408Y-93691046D01*
X102313408Y-93691046D02*
X102265789Y-93643427D01*
X102265789Y-93643427D02*
X102218170Y-93548189D01*
X102218170Y-93548189D02*
X102218170Y-93452951D01*
X102218170Y-93452951D02*
X102265789Y-93357713D01*
X102265789Y-93357713D02*
X102313408Y-93310094D01*
X102313408Y-93310094D02*
X102408646Y-93262475D01*
X102408646Y-93262475D02*
X102646741Y-93262475D01*
X102646741Y-93262475D02*
X102789598Y-93310094D01*
X103789598Y-94167236D02*
X103741979Y-94214856D01*
X103741979Y-94214856D02*
X103599122Y-94262475D01*
X103599122Y-94262475D02*
X103503884Y-94262475D01*
X103503884Y-94262475D02*
X103361027Y-94214856D01*
X103361027Y-94214856D02*
X103265789Y-94119617D01*
X103265789Y-94119617D02*
X103218170Y-94024379D01*
X103218170Y-94024379D02*
X103170551Y-93833903D01*
X103170551Y-93833903D02*
X103170551Y-93691046D01*
X103170551Y-93691046D02*
X103218170Y-93500570D01*
X103218170Y-93500570D02*
X103265789Y-93405332D01*
X103265789Y-93405332D02*
X103361027Y-93310094D01*
X103361027Y-93310094D02*
X103503884Y-93262475D01*
X103503884Y-93262475D02*
X103599122Y-93262475D01*
X103599122Y-93262475D02*
X103741979Y-93310094D01*
X103741979Y-93310094D02*
X103789598Y-93357713D01*
X104694360Y-94262475D02*
X104218170Y-94262475D01*
X104218170Y-94262475D02*
X104218170Y-93262475D01*
X106741978Y-94872419D02*
X106265788Y-94872419D01*
X106265788Y-94872419D02*
X106218169Y-95348609D01*
X106218169Y-95348609D02*
X106265788Y-95300990D01*
X106265788Y-95300990D02*
X106361026Y-95253371D01*
X106361026Y-95253371D02*
X106599121Y-95253371D01*
X106599121Y-95253371D02*
X106694359Y-95300990D01*
X106694359Y-95300990D02*
X106741978Y-95348609D01*
X106741978Y-95348609D02*
X106789597Y-95443847D01*
X106789597Y-95443847D02*
X106789597Y-95681942D01*
X106789597Y-95681942D02*
X106741978Y-95777180D01*
X106741978Y-95777180D02*
X106694359Y-95824800D01*
X106694359Y-95824800D02*
X106599121Y-95872419D01*
X106599121Y-95872419D02*
X106361026Y-95872419D01*
X106361026Y-95872419D02*
X106265788Y-95824800D01*
X106265788Y-95824800D02*
X106218169Y-95777180D01*
X107075312Y-94872419D02*
X107408645Y-95872419D01*
X107408645Y-95872419D02*
X107741978Y-94872419D01*
X108313407Y-96205752D02*
X108313407Y-94777180D01*
X109551502Y-94920038D02*
X109456264Y-94872419D01*
X109456264Y-94872419D02*
X109313407Y-94872419D01*
X109313407Y-94872419D02*
X109170550Y-94920038D01*
X109170550Y-94920038D02*
X109075312Y-95015276D01*
X109075312Y-95015276D02*
X109027693Y-95110514D01*
X109027693Y-95110514D02*
X108980074Y-95300990D01*
X108980074Y-95300990D02*
X108980074Y-95443847D01*
X108980074Y-95443847D02*
X109027693Y-95634323D01*
X109027693Y-95634323D02*
X109075312Y-95729561D01*
X109075312Y-95729561D02*
X109170550Y-95824800D01*
X109170550Y-95824800D02*
X109313407Y-95872419D01*
X109313407Y-95872419D02*
X109408645Y-95872419D01*
X109408645Y-95872419D02*
X109551502Y-95824800D01*
X109551502Y-95824800D02*
X109599121Y-95777180D01*
X109599121Y-95777180D02*
X109599121Y-95443847D01*
X109599121Y-95443847D02*
X109408645Y-95443847D01*
X110027693Y-95872419D02*
X110027693Y-94872419D01*
X110027693Y-94872419D02*
X110599121Y-95872419D01*
X110599121Y-95872419D02*
X110599121Y-94872419D01*
X111075312Y-95872419D02*
X111075312Y-94872419D01*
X111075312Y-94872419D02*
X111313407Y-94872419D01*
X111313407Y-94872419D02*
X111456264Y-94920038D01*
X111456264Y-94920038D02*
X111551502Y-95015276D01*
X111551502Y-95015276D02*
X111599121Y-95110514D01*
X111599121Y-95110514D02*
X111646740Y-95300990D01*
X111646740Y-95300990D02*
X111646740Y-95443847D01*
X111646740Y-95443847D02*
X111599121Y-95634323D01*
X111599121Y-95634323D02*
X111551502Y-95729561D01*
X111551502Y-95729561D02*
X111456264Y-95824800D01*
X111456264Y-95824800D02*
X111313407Y-95872419D01*
X111313407Y-95872419D02*
X111075312Y-95872419D01*
X130691978Y-53962475D02*
X130215788Y-53962475D01*
X130215788Y-53962475D02*
X130168169Y-54438665D01*
X130168169Y-54438665D02*
X130215788Y-54391046D01*
X130215788Y-54391046D02*
X130311026Y-54343427D01*
X130311026Y-54343427D02*
X130549121Y-54343427D01*
X130549121Y-54343427D02*
X130644359Y-54391046D01*
X130644359Y-54391046D02*
X130691978Y-54438665D01*
X130691978Y-54438665D02*
X130739597Y-54533903D01*
X130739597Y-54533903D02*
X130739597Y-54771998D01*
X130739597Y-54771998D02*
X130691978Y-54867236D01*
X130691978Y-54867236D02*
X130644359Y-54914856D01*
X130644359Y-54914856D02*
X130549121Y-54962475D01*
X130549121Y-54962475D02*
X130311026Y-54962475D01*
X130311026Y-54962475D02*
X130215788Y-54914856D01*
X130215788Y-54914856D02*
X130168169Y-54867236D01*
X131025312Y-53962475D02*
X131358645Y-54962475D01*
X131358645Y-54962475D02*
X131691978Y-53962475D01*
X132263407Y-55295808D02*
X132263407Y-53867236D01*
X132977693Y-54962475D02*
X132977693Y-53962475D01*
X132977693Y-53962475D02*
X133311026Y-54676760D01*
X133311026Y-54676760D02*
X133644359Y-53962475D01*
X133644359Y-53962475D02*
X133644359Y-54962475D01*
X134311026Y-53962475D02*
X134501502Y-53962475D01*
X134501502Y-53962475D02*
X134596740Y-54010094D01*
X134596740Y-54010094D02*
X134691978Y-54105332D01*
X134691978Y-54105332D02*
X134739597Y-54295808D01*
X134739597Y-54295808D02*
X134739597Y-54629141D01*
X134739597Y-54629141D02*
X134691978Y-54819617D01*
X134691978Y-54819617D02*
X134596740Y-54914856D01*
X134596740Y-54914856D02*
X134501502Y-54962475D01*
X134501502Y-54962475D02*
X134311026Y-54962475D01*
X134311026Y-54962475D02*
X134215788Y-54914856D01*
X134215788Y-54914856D02*
X134120550Y-54819617D01*
X134120550Y-54819617D02*
X134072931Y-54629141D01*
X134072931Y-54629141D02*
X134072931Y-54295808D01*
X134072931Y-54295808D02*
X134120550Y-54105332D01*
X134120550Y-54105332D02*
X134215788Y-54010094D01*
X134215788Y-54010094D02*
X134311026Y-53962475D01*
X135120550Y-54914856D02*
X135263407Y-54962475D01*
X135263407Y-54962475D02*
X135501502Y-54962475D01*
X135501502Y-54962475D02*
X135596740Y-54914856D01*
X135596740Y-54914856D02*
X135644359Y-54867236D01*
X135644359Y-54867236D02*
X135691978Y-54771998D01*
X135691978Y-54771998D02*
X135691978Y-54676760D01*
X135691978Y-54676760D02*
X135644359Y-54581522D01*
X135644359Y-54581522D02*
X135596740Y-54533903D01*
X135596740Y-54533903D02*
X135501502Y-54486284D01*
X135501502Y-54486284D02*
X135311026Y-54438665D01*
X135311026Y-54438665D02*
X135215788Y-54391046D01*
X135215788Y-54391046D02*
X135168169Y-54343427D01*
X135168169Y-54343427D02*
X135120550Y-54248189D01*
X135120550Y-54248189D02*
X135120550Y-54152951D01*
X135120550Y-54152951D02*
X135168169Y-54057713D01*
X135168169Y-54057713D02*
X135215788Y-54010094D01*
X135215788Y-54010094D02*
X135311026Y-53962475D01*
X135311026Y-53962475D02*
X135549121Y-53962475D01*
X135549121Y-53962475D02*
X135691978Y-54010094D01*
X136120550Y-54962475D02*
X136120550Y-53962475D01*
X136834835Y-55295808D02*
X136834835Y-53867236D01*
X138072930Y-54010094D02*
X137977692Y-53962475D01*
X137977692Y-53962475D02*
X137834835Y-53962475D01*
X137834835Y-53962475D02*
X137691978Y-54010094D01*
X137691978Y-54010094D02*
X137596740Y-54105332D01*
X137596740Y-54105332D02*
X137549121Y-54200570D01*
X137549121Y-54200570D02*
X137501502Y-54391046D01*
X137501502Y-54391046D02*
X137501502Y-54533903D01*
X137501502Y-54533903D02*
X137549121Y-54724379D01*
X137549121Y-54724379D02*
X137596740Y-54819617D01*
X137596740Y-54819617D02*
X137691978Y-54914856D01*
X137691978Y-54914856D02*
X137834835Y-54962475D01*
X137834835Y-54962475D02*
X137930073Y-54962475D01*
X137930073Y-54962475D02*
X138072930Y-54914856D01*
X138072930Y-54914856D02*
X138120549Y-54867236D01*
X138120549Y-54867236D02*
X138120549Y-54533903D01*
X138120549Y-54533903D02*
X137930073Y-54533903D01*
X138549121Y-54962475D02*
X138549121Y-53962475D01*
X138549121Y-53962475D02*
X139120549Y-54962475D01*
X139120549Y-54962475D02*
X139120549Y-53962475D01*
X139596740Y-54962475D02*
X139596740Y-53962475D01*
X139596740Y-53962475D02*
X139834835Y-53962475D01*
X139834835Y-53962475D02*
X139977692Y-54010094D01*
X139977692Y-54010094D02*
X140072930Y-54105332D01*
X140072930Y-54105332D02*
X140120549Y-54200570D01*
X140120549Y-54200570D02*
X140168168Y-54391046D01*
X140168168Y-54391046D02*
X140168168Y-54533903D01*
X140168168Y-54533903D02*
X140120549Y-54724379D01*
X140120549Y-54724379D02*
X140072930Y-54819617D01*
X140072930Y-54819617D02*
X139977692Y-54914856D01*
X139977692Y-54914856D02*
X139834835Y-54962475D01*
X139834835Y-54962475D02*
X139596740Y-54962475D01*
X126453884Y-56572419D02*
X126453884Y-55572419D01*
X126453884Y-55572419D02*
X126787217Y-56286704D01*
X126787217Y-56286704D02*
X127120550Y-55572419D01*
X127120550Y-55572419D02*
X127120550Y-56572419D01*
X127596741Y-56572419D02*
X127596741Y-55572419D01*
X128025312Y-56524800D02*
X128168169Y-56572419D01*
X128168169Y-56572419D02*
X128406264Y-56572419D01*
X128406264Y-56572419D02*
X128501502Y-56524800D01*
X128501502Y-56524800D02*
X128549121Y-56477180D01*
X128549121Y-56477180D02*
X128596740Y-56381942D01*
X128596740Y-56381942D02*
X128596740Y-56286704D01*
X128596740Y-56286704D02*
X128549121Y-56191466D01*
X128549121Y-56191466D02*
X128501502Y-56143847D01*
X128501502Y-56143847D02*
X128406264Y-56096228D01*
X128406264Y-56096228D02*
X128215788Y-56048609D01*
X128215788Y-56048609D02*
X128120550Y-56000990D01*
X128120550Y-56000990D02*
X128072931Y-55953371D01*
X128072931Y-55953371D02*
X128025312Y-55858133D01*
X128025312Y-55858133D02*
X128025312Y-55762895D01*
X128025312Y-55762895D02*
X128072931Y-55667657D01*
X128072931Y-55667657D02*
X128120550Y-55620038D01*
X128120550Y-55620038D02*
X128215788Y-55572419D01*
X128215788Y-55572419D02*
X128453883Y-55572419D01*
X128453883Y-55572419D02*
X128596740Y-55620038D01*
X129215788Y-55572419D02*
X129406264Y-55572419D01*
X129406264Y-55572419D02*
X129501502Y-55620038D01*
X129501502Y-55620038D02*
X129596740Y-55715276D01*
X129596740Y-55715276D02*
X129644359Y-55905752D01*
X129644359Y-55905752D02*
X129644359Y-56239085D01*
X129644359Y-56239085D02*
X129596740Y-56429561D01*
X129596740Y-56429561D02*
X129501502Y-56524800D01*
X129501502Y-56524800D02*
X129406264Y-56572419D01*
X129406264Y-56572419D02*
X129215788Y-56572419D01*
X129215788Y-56572419D02*
X129120550Y-56524800D01*
X129120550Y-56524800D02*
X129025312Y-56429561D01*
X129025312Y-56429561D02*
X128977693Y-56239085D01*
X128977693Y-56239085D02*
X128977693Y-55905752D01*
X128977693Y-55905752D02*
X129025312Y-55715276D01*
X129025312Y-55715276D02*
X129120550Y-55620038D01*
X129120550Y-55620038D02*
X129215788Y-55572419D01*
X130311026Y-56905752D02*
X130311026Y-55477180D01*
X130977693Y-56524800D02*
X131120550Y-56572419D01*
X131120550Y-56572419D02*
X131358645Y-56572419D01*
X131358645Y-56572419D02*
X131453883Y-56524800D01*
X131453883Y-56524800D02*
X131501502Y-56477180D01*
X131501502Y-56477180D02*
X131549121Y-56381942D01*
X131549121Y-56381942D02*
X131549121Y-56286704D01*
X131549121Y-56286704D02*
X131501502Y-56191466D01*
X131501502Y-56191466D02*
X131453883Y-56143847D01*
X131453883Y-56143847D02*
X131358645Y-56096228D01*
X131358645Y-56096228D02*
X131168169Y-56048609D01*
X131168169Y-56048609D02*
X131072931Y-56000990D01*
X131072931Y-56000990D02*
X131025312Y-55953371D01*
X131025312Y-55953371D02*
X130977693Y-55858133D01*
X130977693Y-55858133D02*
X130977693Y-55762895D01*
X130977693Y-55762895D02*
X131025312Y-55667657D01*
X131025312Y-55667657D02*
X131072931Y-55620038D01*
X131072931Y-55620038D02*
X131168169Y-55572419D01*
X131168169Y-55572419D02*
X131406264Y-55572419D01*
X131406264Y-55572419D02*
X131549121Y-55620038D01*
X132549121Y-56477180D02*
X132501502Y-56524800D01*
X132501502Y-56524800D02*
X132358645Y-56572419D01*
X132358645Y-56572419D02*
X132263407Y-56572419D01*
X132263407Y-56572419D02*
X132120550Y-56524800D01*
X132120550Y-56524800D02*
X132025312Y-56429561D01*
X132025312Y-56429561D02*
X131977693Y-56334323D01*
X131977693Y-56334323D02*
X131930074Y-56143847D01*
X131930074Y-56143847D02*
X131930074Y-56000990D01*
X131930074Y-56000990D02*
X131977693Y-55810514D01*
X131977693Y-55810514D02*
X132025312Y-55715276D01*
X132025312Y-55715276D02*
X132120550Y-55620038D01*
X132120550Y-55620038D02*
X132263407Y-55572419D01*
X132263407Y-55572419D02*
X132358645Y-55572419D01*
X132358645Y-55572419D02*
X132501502Y-55620038D01*
X132501502Y-55620038D02*
X132549121Y-55667657D01*
X132977693Y-56572419D02*
X132977693Y-55572419D01*
X133549121Y-56572419D02*
X133120550Y-56000990D01*
X133549121Y-55572419D02*
X132977693Y-56143847D01*
X134215788Y-56905752D02*
X134215788Y-55477180D01*
X135501502Y-56572419D02*
X135168169Y-56096228D01*
X134930074Y-56572419D02*
X134930074Y-55572419D01*
X134930074Y-55572419D02*
X135311026Y-55572419D01*
X135311026Y-55572419D02*
X135406264Y-55620038D01*
X135406264Y-55620038D02*
X135453883Y-55667657D01*
X135453883Y-55667657D02*
X135501502Y-55762895D01*
X135501502Y-55762895D02*
X135501502Y-55905752D01*
X135501502Y-55905752D02*
X135453883Y-56000990D01*
X135453883Y-56000990D02*
X135406264Y-56048609D01*
X135406264Y-56048609D02*
X135311026Y-56096228D01*
X135311026Y-56096228D02*
X134930074Y-56096228D01*
X136311026Y-56524800D02*
X136215788Y-56572419D01*
X136215788Y-56572419D02*
X136025312Y-56572419D01*
X136025312Y-56572419D02*
X135930074Y-56524800D01*
X135930074Y-56524800D02*
X135882455Y-56429561D01*
X135882455Y-56429561D02*
X135882455Y-56048609D01*
X135882455Y-56048609D02*
X135930074Y-55953371D01*
X135930074Y-55953371D02*
X136025312Y-55905752D01*
X136025312Y-55905752D02*
X136215788Y-55905752D01*
X136215788Y-55905752D02*
X136311026Y-55953371D01*
X136311026Y-55953371D02*
X136358645Y-56048609D01*
X136358645Y-56048609D02*
X136358645Y-56143847D01*
X136358645Y-56143847D02*
X135882455Y-56239085D01*
X136739598Y-56524800D02*
X136834836Y-56572419D01*
X136834836Y-56572419D02*
X137025312Y-56572419D01*
X137025312Y-56572419D02*
X137120550Y-56524800D01*
X137120550Y-56524800D02*
X137168169Y-56429561D01*
X137168169Y-56429561D02*
X137168169Y-56381942D01*
X137168169Y-56381942D02*
X137120550Y-56286704D01*
X137120550Y-56286704D02*
X137025312Y-56239085D01*
X137025312Y-56239085D02*
X136882455Y-56239085D01*
X136882455Y-56239085D02*
X136787217Y-56191466D01*
X136787217Y-56191466D02*
X136739598Y-56096228D01*
X136739598Y-56096228D02*
X136739598Y-56048609D01*
X136739598Y-56048609D02*
X136787217Y-55953371D01*
X136787217Y-55953371D02*
X136882455Y-55905752D01*
X136882455Y-55905752D02*
X137025312Y-55905752D01*
X137025312Y-55905752D02*
X137120550Y-55953371D01*
X137977693Y-56524800D02*
X137882455Y-56572419D01*
X137882455Y-56572419D02*
X137691979Y-56572419D01*
X137691979Y-56572419D02*
X137596741Y-56524800D01*
X137596741Y-56524800D02*
X137549122Y-56429561D01*
X137549122Y-56429561D02*
X137549122Y-56048609D01*
X137549122Y-56048609D02*
X137596741Y-55953371D01*
X137596741Y-55953371D02*
X137691979Y-55905752D01*
X137691979Y-55905752D02*
X137882455Y-55905752D01*
X137882455Y-55905752D02*
X137977693Y-55953371D01*
X137977693Y-55953371D02*
X138025312Y-56048609D01*
X138025312Y-56048609D02*
X138025312Y-56143847D01*
X138025312Y-56143847D02*
X137549122Y-56239085D01*
X138311027Y-55905752D02*
X138691979Y-55905752D01*
X138453884Y-55572419D02*
X138453884Y-56429561D01*
X138453884Y-56429561D02*
X138501503Y-56524800D01*
X138501503Y-56524800D02*
X138596741Y-56572419D01*
X138596741Y-56572419D02*
X138691979Y-56572419D01*
D11*
X119615913Y-82977336D02*
X120115913Y-82111311D01*
X120115913Y-82111311D02*
X120322109Y-82230358D01*
X120322109Y-82230358D02*
X120422018Y-82343026D01*
X120422018Y-82343026D02*
X120456877Y-82473124D01*
X120456877Y-82473124D02*
X120450497Y-82579412D01*
X120450497Y-82579412D02*
X120396499Y-82768179D01*
X120396499Y-82768179D02*
X120325070Y-82891897D01*
X120325070Y-82891897D02*
X120188593Y-83033044D01*
X120188593Y-83033044D02*
X120099734Y-83091713D01*
X120099734Y-83091713D02*
X119969637Y-83126573D01*
X119969637Y-83126573D02*
X119822109Y-83096384D01*
X119822109Y-83096384D02*
X119615913Y-82977336D01*
X120228123Y-83440767D02*
X120887951Y-83821719D01*
X121141767Y-83858288D02*
X121641767Y-82992263D01*
X121300344Y-84059814D02*
X121960173Y-84440767D01*
X122625131Y-83669980D02*
X122690179Y-83652550D01*
X122690179Y-83652550D02*
X122796468Y-83658930D01*
X122796468Y-83658930D02*
X123002664Y-83777977D01*
X123002664Y-83777977D02*
X123061333Y-83866836D01*
X123061333Y-83866836D02*
X123078763Y-83931884D01*
X123078763Y-83931884D02*
X123072383Y-84038173D01*
X123072383Y-84038173D02*
X123024764Y-84120651D01*
X123024764Y-84120651D02*
X122912096Y-84220560D01*
X122912096Y-84220560D02*
X122131510Y-84429717D01*
X122131510Y-84429717D02*
X122667621Y-84739241D01*
X142401173Y-60614374D02*
X141932217Y-60697063D01*
X141932217Y-60697063D02*
X141758569Y-59712256D01*
X142674278Y-60517864D02*
X142823234Y-60539953D01*
X142823234Y-60539953D02*
X143057712Y-60498608D01*
X143057712Y-60498608D02*
X143143234Y-60435175D01*
X143143234Y-60435175D02*
X143181861Y-60380010D01*
X143181861Y-60380010D02*
X143212218Y-60277950D01*
X143212218Y-60277950D02*
X143195681Y-60184159D01*
X143195681Y-60184159D02*
X143132247Y-60098637D01*
X143132247Y-60098637D02*
X143077082Y-60060010D01*
X143077082Y-60060010D02*
X142975022Y-60029652D01*
X142975022Y-60029652D02*
X142779171Y-60015832D01*
X142779171Y-60015832D02*
X142677111Y-59985475D01*
X142677111Y-59985475D02*
X142621946Y-59946848D01*
X142621946Y-59946848D02*
X142558513Y-59861326D01*
X142558513Y-59861326D02*
X142541975Y-59767535D01*
X142541975Y-59767535D02*
X142572332Y-59665475D01*
X142572332Y-59665475D02*
X142610959Y-59610310D01*
X142610959Y-59610310D02*
X142696481Y-59546876D01*
X142696481Y-59546876D02*
X142930959Y-59505532D01*
X142930959Y-59505532D02*
X143079915Y-59527620D01*
X143973650Y-59660153D02*
X144089415Y-60316691D01*
X143673020Y-59326333D02*
X143562576Y-60071112D01*
X143562576Y-60071112D02*
X144172219Y-59963615D01*
X178788159Y-71931833D02*
X178081053Y-71224726D01*
X178081053Y-71224726D02*
X178249411Y-71056367D01*
X178249411Y-71056367D02*
X178384098Y-70989024D01*
X178384098Y-70989024D02*
X178518785Y-70989024D01*
X178518785Y-70989024D02*
X178619801Y-71022696D01*
X178619801Y-71022696D02*
X178788159Y-71123711D01*
X178788159Y-71123711D02*
X178889175Y-71224726D01*
X178889175Y-71224726D02*
X178990190Y-71393085D01*
X178990190Y-71393085D02*
X179023862Y-71494100D01*
X179023862Y-71494100D02*
X179023862Y-71628787D01*
X179023862Y-71628787D02*
X178956518Y-71763474D01*
X178956518Y-71763474D02*
X178788159Y-71931833D01*
X179865655Y-70854337D02*
X179461594Y-71258398D01*
X179663625Y-71056367D02*
X178956518Y-70349261D01*
X178956518Y-70349261D02*
X178990190Y-70517619D01*
X178990190Y-70517619D02*
X178990190Y-70652306D01*
X178990190Y-70652306D02*
X178956518Y-70753322D01*
D10*
X111197619Y-57907419D02*
X111197619Y-56907419D01*
X111626190Y-57859800D02*
X111769047Y-57907419D01*
X111769047Y-57907419D02*
X112007142Y-57907419D01*
X112007142Y-57907419D02*
X112102380Y-57859800D01*
X112102380Y-57859800D02*
X112149999Y-57812180D01*
X112149999Y-57812180D02*
X112197618Y-57716942D01*
X112197618Y-57716942D02*
X112197618Y-57621704D01*
X112197618Y-57621704D02*
X112149999Y-57526466D01*
X112149999Y-57526466D02*
X112102380Y-57478847D01*
X112102380Y-57478847D02*
X112007142Y-57431228D01*
X112007142Y-57431228D02*
X111816666Y-57383609D01*
X111816666Y-57383609D02*
X111721428Y-57335990D01*
X111721428Y-57335990D02*
X111673809Y-57288371D01*
X111673809Y-57288371D02*
X111626190Y-57193133D01*
X111626190Y-57193133D02*
X111626190Y-57097895D01*
X111626190Y-57097895D02*
X111673809Y-57002657D01*
X111673809Y-57002657D02*
X111721428Y-56955038D01*
X111721428Y-56955038D02*
X111816666Y-56907419D01*
X111816666Y-56907419D02*
X112054761Y-56907419D01*
X112054761Y-56907419D02*
X112197618Y-56955038D01*
X112626190Y-57907419D02*
X112626190Y-56907419D01*
X112626190Y-56907419D02*
X113007142Y-56907419D01*
X113007142Y-56907419D02*
X113102380Y-56955038D01*
X113102380Y-56955038D02*
X113149999Y-57002657D01*
X113149999Y-57002657D02*
X113197618Y-57097895D01*
X113197618Y-57097895D02*
X113197618Y-57240752D01*
X113197618Y-57240752D02*
X113149999Y-57335990D01*
X113149999Y-57335990D02*
X113102380Y-57383609D01*
X113102380Y-57383609D02*
X113007142Y-57431228D01*
X113007142Y-57431228D02*
X112626190Y-57431228D01*
X114149999Y-57907419D02*
X113578571Y-57907419D01*
X113864285Y-57907419D02*
X113864285Y-56907419D01*
X113864285Y-56907419D02*
X113769047Y-57050276D01*
X113769047Y-57050276D02*
X113673809Y-57145514D01*
X113673809Y-57145514D02*
X113578571Y-57193133D01*
D11*
X117662302Y-91796185D02*
X117463574Y-91249947D01*
X117110345Y-91648288D02*
X117369164Y-90682362D01*
X117369164Y-90682362D02*
X117737136Y-90780960D01*
X117737136Y-90780960D02*
X117816804Y-90851606D01*
X117816804Y-90851606D02*
X117850476Y-90909927D01*
X117850476Y-90909927D02*
X117871823Y-91014245D01*
X117871823Y-91014245D02*
X117834849Y-91152234D01*
X117834849Y-91152234D02*
X117764203Y-91231902D01*
X117764203Y-91231902D02*
X117705881Y-91265574D01*
X117705881Y-91265574D02*
X117601564Y-91286921D01*
X117601564Y-91286921D02*
X117233592Y-91188323D01*
X118749058Y-91052104D02*
X118565072Y-91002805D01*
X118565072Y-91002805D02*
X118460754Y-91024152D01*
X118460754Y-91024152D02*
X118402433Y-91057824D01*
X118402433Y-91057824D02*
X118273466Y-91171164D01*
X118273466Y-91171164D02*
X118178171Y-91342825D01*
X118178171Y-91342825D02*
X118079573Y-91710796D01*
X118079573Y-91710796D02*
X118100920Y-91815114D01*
X118100920Y-91815114D02*
X118134592Y-91873435D01*
X118134592Y-91873435D02*
X118214260Y-91944081D01*
X118214260Y-91944081D02*
X118398246Y-91993380D01*
X118398246Y-91993380D02*
X118502564Y-91972033D01*
X118502564Y-91972033D02*
X118560885Y-91938361D01*
X118560885Y-91938361D02*
X118631531Y-91858693D01*
X118631531Y-91858693D02*
X118693154Y-91628711D01*
X118693154Y-91628711D02*
X118671807Y-91524393D01*
X118671807Y-91524393D02*
X118638136Y-91466072D01*
X118638136Y-91466072D02*
X118558467Y-91395426D01*
X118558467Y-91395426D02*
X118374481Y-91346127D01*
X118374481Y-91346127D02*
X118270164Y-91367474D01*
X118270164Y-91367474D02*
X118211843Y-91401146D01*
X118211843Y-91401146D02*
X118141197Y-91480814D01*
X187220723Y-95225691D02*
X186809764Y-94814618D01*
X186657975Y-95324919D02*
X186484327Y-94340111D01*
X186484327Y-94340111D02*
X186859492Y-94273960D01*
X186859492Y-94273960D02*
X186961552Y-94304317D01*
X186961552Y-94304317D02*
X187016717Y-94342944D01*
X187016717Y-94342944D02*
X187080150Y-94428466D01*
X187080150Y-94428466D02*
X187104957Y-94569153D01*
X187104957Y-94569153D02*
X187074600Y-94671213D01*
X187074600Y-94671213D02*
X187035973Y-94726378D01*
X187035973Y-94726378D02*
X186950451Y-94789811D01*
X186950451Y-94789811D02*
X186575286Y-94855963D01*
X188158635Y-95060312D02*
X187595888Y-95159540D01*
X187877261Y-95109926D02*
X187703613Y-94125118D01*
X187703613Y-94125118D02*
X187634629Y-94282343D01*
X187634629Y-94282343D02*
X187557375Y-94392672D01*
X187557375Y-94392672D02*
X187471853Y-94456106D01*
X188362755Y-95121028D02*
X189113085Y-94988724D01*
X189846877Y-94762630D02*
X189284130Y-94861857D01*
X189565503Y-94812243D02*
X189391855Y-93827436D01*
X189391855Y-93827436D02*
X189322871Y-93984660D01*
X189322871Y-93984660D02*
X189245618Y-94094989D01*
X189245618Y-94094989D02*
X189160095Y-94158423D01*
X132458699Y-63894697D02*
X132027124Y-64095944D01*
X132027124Y-64095944D02*
X131604505Y-63189636D01*
X132697519Y-63730791D02*
X132847117Y-63713575D01*
X132847117Y-63713575D02*
X133062904Y-63612951D01*
X133062904Y-63612951D02*
X133129094Y-63529544D01*
X133129094Y-63529544D02*
X133152127Y-63466262D01*
X133152127Y-63466262D02*
X133155035Y-63359822D01*
X133155035Y-63359822D02*
X133114786Y-63273507D01*
X133114786Y-63273507D02*
X133031379Y-63207317D01*
X133031379Y-63207317D02*
X132968097Y-63184284D01*
X132968097Y-63184284D02*
X132861657Y-63181376D01*
X132861657Y-63181376D02*
X132668903Y-63218717D01*
X132668903Y-63218717D02*
X132562463Y-63215809D01*
X132562463Y-63215809D02*
X132499181Y-63192776D01*
X132499181Y-63192776D02*
X132415774Y-63126586D01*
X132415774Y-63126586D02*
X132375524Y-63040271D01*
X132375524Y-63040271D02*
X132378433Y-62933831D01*
X132378433Y-62933831D02*
X132401465Y-62870549D01*
X132401465Y-62870549D02*
X132467656Y-62787142D01*
X132467656Y-62787142D02*
X132683443Y-62686519D01*
X132683443Y-62686519D02*
X132833041Y-62669302D01*
X134098685Y-63129959D02*
X133580794Y-63371455D01*
X133839739Y-63250707D02*
X133417121Y-62344399D01*
X133417121Y-62344399D02*
X133391180Y-62514121D01*
X133391180Y-62514121D02*
X133345115Y-62640685D01*
X133345115Y-62640685D02*
X133278924Y-62724092D01*
X185798460Y-80148206D02*
X185271689Y-79902480D01*
X185303588Y-80433921D02*
X184803588Y-79567895D01*
X184803588Y-79567895D02*
X185133503Y-79377419D01*
X185133503Y-79377419D02*
X185239791Y-79371039D01*
X185239791Y-79371039D02*
X185304839Y-79388469D01*
X185304839Y-79388469D02*
X185393698Y-79447138D01*
X185393698Y-79447138D02*
X185465126Y-79570856D01*
X185465126Y-79570856D02*
X185471506Y-79677144D01*
X185471506Y-79677144D02*
X185454076Y-79742193D01*
X185454076Y-79742193D02*
X185395407Y-79831051D01*
X185395407Y-79831051D02*
X185065493Y-80021528D01*
X186623246Y-79672016D02*
X186128374Y-79957730D01*
X186375810Y-79814873D02*
X185875810Y-78948848D01*
X185875810Y-78948848D02*
X185864760Y-79120185D01*
X185864760Y-79120185D02*
X185829900Y-79250282D01*
X185829900Y-79250282D02*
X185771231Y-79339141D01*
X186835822Y-79659256D02*
X187495651Y-79278304D01*
X188107861Y-78814873D02*
X187612989Y-79100587D01*
X187860425Y-78957730D02*
X187360425Y-78091705D01*
X187360425Y-78091705D02*
X187349375Y-78263042D01*
X187349375Y-78263042D02*
X187314516Y-78393139D01*
X187314516Y-78393139D02*
X187255847Y-78481998D01*
X187896536Y-77782181D02*
X188432647Y-77472657D01*
X188432647Y-77472657D02*
X188334448Y-77969238D01*
X188334448Y-77969238D02*
X188458166Y-77897810D01*
X188458166Y-77897810D02*
X188564454Y-77891430D01*
X188564454Y-77891430D02*
X188629503Y-77908860D01*
X188629503Y-77908860D02*
X188718362Y-77967529D01*
X188718362Y-77967529D02*
X188837409Y-78173725D01*
X188837409Y-78173725D02*
X188843789Y-78280013D01*
X188843789Y-78280013D02*
X188826359Y-78345062D01*
X188826359Y-78345062D02*
X188767690Y-78433921D01*
X188767690Y-78433921D02*
X188520254Y-78576778D01*
X188520254Y-78576778D02*
X188413966Y-78583157D01*
X188413966Y-78583157D02*
X188348917Y-78565728D01*
X146727261Y-66765307D02*
X146675673Y-66722020D01*
X146675673Y-66722020D02*
X146615784Y-66583856D01*
X146615784Y-66583856D02*
X146607484Y-66488981D01*
X146607484Y-66488981D02*
X146642471Y-66342517D01*
X146642471Y-66342517D02*
X146729046Y-66239341D01*
X146729046Y-66239341D02*
X146819771Y-66183602D01*
X146819771Y-66183602D02*
X147005372Y-66119563D01*
X147005372Y-66119563D02*
X147147686Y-66107112D01*
X147147686Y-66107112D02*
X147341587Y-66137949D01*
X147341587Y-66137949D02*
X147440613Y-66177086D01*
X147440613Y-66177086D02*
X147543790Y-66263662D01*
X147543790Y-66263662D02*
X147603678Y-66401825D01*
X147603678Y-66401825D02*
X147611979Y-66496701D01*
X147611979Y-66496701D02*
X147576992Y-66643164D01*
X147576992Y-66643164D02*
X147533704Y-66694752D01*
X147657632Y-67018517D02*
X147715736Y-67682647D01*
X147715736Y-67682647D02*
X146682189Y-67342862D01*
X108927018Y-142855380D02*
X109061705Y-142788037D01*
X109061705Y-142788037D02*
X109230063Y-142619678D01*
X109230063Y-142619678D02*
X109263735Y-142518663D01*
X109263735Y-142518663D02*
X109263735Y-142451319D01*
X109263735Y-142451319D02*
X109230063Y-142350304D01*
X109230063Y-142350304D02*
X109162720Y-142282960D01*
X109162720Y-142282960D02*
X109061705Y-142249289D01*
X109061705Y-142249289D02*
X108994361Y-142249289D01*
X108994361Y-142249289D02*
X108893346Y-142282960D01*
X108893346Y-142282960D02*
X108724987Y-142383976D01*
X108724987Y-142383976D02*
X108623972Y-142417647D01*
X108623972Y-142417647D02*
X108556628Y-142417647D01*
X108556628Y-142417647D02*
X108455613Y-142383976D01*
X108455613Y-142383976D02*
X108388270Y-142316632D01*
X108388270Y-142316632D02*
X108354598Y-142215617D01*
X108354598Y-142215617D02*
X108354598Y-142148273D01*
X108354598Y-142148273D02*
X108388270Y-142047258D01*
X108388270Y-142047258D02*
X108556628Y-141878899D01*
X108556628Y-141878899D02*
X108691315Y-141811556D01*
X108893346Y-141542182D02*
X109768811Y-142080930D01*
X109768811Y-142080930D02*
X109398422Y-141441167D01*
X109398422Y-141441167D02*
X110038185Y-141811556D01*
X110038185Y-141811556D02*
X109499437Y-140936090D01*
X110374903Y-141609525D02*
X110913651Y-141070777D01*
X111014666Y-140835075D02*
X110307559Y-140127968D01*
X110307559Y-140127968D02*
X111048338Y-140397342D01*
X111048338Y-140397342D02*
X110778964Y-139656564D01*
X110778964Y-139656564D02*
X111486071Y-140363670D01*
X111721773Y-140262655D02*
X112260521Y-139723907D01*
X112731926Y-139117816D02*
X112327865Y-139521877D01*
X112529895Y-139319846D02*
X111822788Y-138612739D01*
X111822788Y-138612739D02*
X111856460Y-138781098D01*
X111856460Y-138781098D02*
X111856460Y-138915785D01*
X111856460Y-138915785D02*
X111822788Y-139016800D01*
X112933956Y-139050472D02*
X113472704Y-138511724D01*
X113944109Y-137905632D02*
X113540048Y-138309693D01*
X113742078Y-138107663D02*
X113034972Y-137400556D01*
X113034972Y-137400556D02*
X113068643Y-137568915D01*
X113068643Y-137568915D02*
X113068643Y-137703602D01*
X113068643Y-137703602D02*
X113034972Y-137804617D01*
X137032380Y-100579726D02*
X137032380Y-99309726D01*
X137032380Y-99914488D02*
X137758095Y-99914488D01*
X137758095Y-100579726D02*
X137758095Y-99309726D01*
X138544285Y-99854011D02*
X138423333Y-99793535D01*
X138423333Y-99793535D02*
X138362856Y-99733059D01*
X138362856Y-99733059D02*
X138302380Y-99612107D01*
X138302380Y-99612107D02*
X138302380Y-99551630D01*
X138302380Y-99551630D02*
X138362856Y-99430678D01*
X138362856Y-99430678D02*
X138423333Y-99370202D01*
X138423333Y-99370202D02*
X138544285Y-99309726D01*
X138544285Y-99309726D02*
X138786190Y-99309726D01*
X138786190Y-99309726D02*
X138907142Y-99370202D01*
X138907142Y-99370202D02*
X138967618Y-99430678D01*
X138967618Y-99430678D02*
X139028095Y-99551630D01*
X139028095Y-99551630D02*
X139028095Y-99612107D01*
X139028095Y-99612107D02*
X138967618Y-99733059D01*
X138967618Y-99733059D02*
X138907142Y-99793535D01*
X138907142Y-99793535D02*
X138786190Y-99854011D01*
X138786190Y-99854011D02*
X138544285Y-99854011D01*
X138544285Y-99854011D02*
X138423333Y-99914488D01*
X138423333Y-99914488D02*
X138362856Y-99974964D01*
X138362856Y-99974964D02*
X138302380Y-100095916D01*
X138302380Y-100095916D02*
X138302380Y-100337821D01*
X138302380Y-100337821D02*
X138362856Y-100458773D01*
X138362856Y-100458773D02*
X138423333Y-100519250D01*
X138423333Y-100519250D02*
X138544285Y-100579726D01*
X138544285Y-100579726D02*
X138786190Y-100579726D01*
X138786190Y-100579726D02*
X138907142Y-100519250D01*
X138907142Y-100519250D02*
X138967618Y-100458773D01*
X138967618Y-100458773D02*
X139028095Y-100337821D01*
X139028095Y-100337821D02*
X139028095Y-100095916D01*
X139028095Y-100095916D02*
X138967618Y-99974964D01*
X138967618Y-99974964D02*
X138907142Y-99914488D01*
X138907142Y-99914488D02*
X138786190Y-99854011D01*
X161032380Y-100579726D02*
X161032380Y-99309726D01*
X161032380Y-99914488D02*
X161758095Y-99914488D01*
X161758095Y-100579726D02*
X161758095Y-99309726D01*
X162423333Y-100579726D02*
X162665237Y-100579726D01*
X162665237Y-100579726D02*
X162786190Y-100519250D01*
X162786190Y-100519250D02*
X162846666Y-100458773D01*
X162846666Y-100458773D02*
X162967618Y-100277345D01*
X162967618Y-100277345D02*
X163028095Y-100035440D01*
X163028095Y-100035440D02*
X163028095Y-99551630D01*
X163028095Y-99551630D02*
X162967618Y-99430678D01*
X162967618Y-99430678D02*
X162907142Y-99370202D01*
X162907142Y-99370202D02*
X162786190Y-99309726D01*
X162786190Y-99309726D02*
X162544285Y-99309726D01*
X162544285Y-99309726D02*
X162423333Y-99370202D01*
X162423333Y-99370202D02*
X162362856Y-99430678D01*
X162362856Y-99430678D02*
X162302380Y-99551630D01*
X162302380Y-99551630D02*
X162302380Y-99854011D01*
X162302380Y-99854011D02*
X162362856Y-99974964D01*
X162362856Y-99974964D02*
X162423333Y-100035440D01*
X162423333Y-100035440D02*
X162544285Y-100095916D01*
X162544285Y-100095916D02*
X162786190Y-100095916D01*
X162786190Y-100095916D02*
X162907142Y-100035440D01*
X162907142Y-100035440D02*
X162967618Y-99974964D01*
X162967618Y-99974964D02*
X163028095Y-99854011D01*
X138970472Y-61419010D02*
X138510507Y-61542257D01*
X138510507Y-61542257D02*
X138251688Y-60576331D01*
X139234126Y-61299065D02*
X139384440Y-61308087D01*
X139384440Y-61308087D02*
X139614423Y-61246464D01*
X139614423Y-61246464D02*
X139694091Y-61175818D01*
X139694091Y-61175818D02*
X139727763Y-61117497D01*
X139727763Y-61117497D02*
X139749110Y-61013179D01*
X139749110Y-61013179D02*
X139724460Y-60921186D01*
X139724460Y-60921186D02*
X139653814Y-60841518D01*
X139653814Y-60841518D02*
X139595493Y-60807846D01*
X139595493Y-60807846D02*
X139491175Y-60786499D01*
X139491175Y-60786499D02*
X139294865Y-60789801D01*
X139294865Y-60789801D02*
X139190547Y-60768454D01*
X139190547Y-60768454D02*
X139132226Y-60734783D01*
X139132226Y-60734783D02*
X139061580Y-60655114D01*
X139061580Y-60655114D02*
X139036931Y-60563121D01*
X139036931Y-60563121D02*
X139058278Y-60458804D01*
X139058278Y-60458804D02*
X139091949Y-60400483D01*
X139091949Y-60400483D02*
X139171618Y-60329837D01*
X139171618Y-60329837D02*
X139401600Y-60268213D01*
X139401600Y-60268213D02*
X139551914Y-60277235D01*
X139861565Y-60144966D02*
X140459519Y-59984745D01*
X140459519Y-59984745D02*
X140236141Y-60438989D01*
X140236141Y-60438989D02*
X140374131Y-60402015D01*
X140374131Y-60402015D02*
X140478448Y-60423362D01*
X140478448Y-60423362D02*
X140536770Y-60457034D01*
X140536770Y-60457034D02*
X140607415Y-60536702D01*
X140607415Y-60536702D02*
X140669039Y-60766685D01*
X140669039Y-60766685D02*
X140647692Y-60871002D01*
X140647692Y-60871002D02*
X140614020Y-60929323D01*
X140614020Y-60929323D02*
X140534352Y-60999969D01*
X140534352Y-60999969D02*
X140258373Y-61073918D01*
X140258373Y-61073918D02*
X140154056Y-61052571D01*
X140154056Y-61052571D02*
X140095734Y-61018899D01*
X190823809Y-100319104D02*
X191299999Y-100319104D01*
X190728571Y-100604819D02*
X191061904Y-99604819D01*
X191061904Y-99604819D02*
X191395237Y-100604819D01*
X191585714Y-99604819D02*
X192157142Y-99604819D01*
X191871428Y-100604819D02*
X191871428Y-99604819D01*
X192490476Y-100604819D02*
X192490476Y-99604819D01*
X192490476Y-99604819D02*
X192823809Y-100319104D01*
X192823809Y-100319104D02*
X193157142Y-99604819D01*
X193157142Y-99604819D02*
X193157142Y-100604819D01*
X193633333Y-100081009D02*
X193966666Y-100081009D01*
X194109523Y-100604819D02*
X193633333Y-100604819D01*
X193633333Y-100604819D02*
X193633333Y-99604819D01*
X193633333Y-99604819D02*
X194109523Y-99604819D01*
X195061904Y-99652438D02*
X194966666Y-99604819D01*
X194966666Y-99604819D02*
X194823809Y-99604819D01*
X194823809Y-99604819D02*
X194680952Y-99652438D01*
X194680952Y-99652438D02*
X194585714Y-99747676D01*
X194585714Y-99747676D02*
X194538095Y-99842914D01*
X194538095Y-99842914D02*
X194490476Y-100033390D01*
X194490476Y-100033390D02*
X194490476Y-100176247D01*
X194490476Y-100176247D02*
X194538095Y-100366723D01*
X194538095Y-100366723D02*
X194585714Y-100461961D01*
X194585714Y-100461961D02*
X194680952Y-100557200D01*
X194680952Y-100557200D02*
X194823809Y-100604819D01*
X194823809Y-100604819D02*
X194919047Y-100604819D01*
X194919047Y-100604819D02*
X195061904Y-100557200D01*
X195061904Y-100557200D02*
X195109523Y-100509580D01*
X195109523Y-100509580D02*
X195109523Y-100176247D01*
X195109523Y-100176247D02*
X194919047Y-100176247D01*
X195490476Y-100319104D02*
X195966666Y-100319104D01*
X195395238Y-100604819D02*
X195728571Y-99604819D01*
X195728571Y-99604819D02*
X196061904Y-100604819D01*
X196300000Y-99604819D02*
X196919047Y-99604819D01*
X196919047Y-99604819D02*
X196585714Y-99985771D01*
X196585714Y-99985771D02*
X196728571Y-99985771D01*
X196728571Y-99985771D02*
X196823809Y-100033390D01*
X196823809Y-100033390D02*
X196871428Y-100081009D01*
X196871428Y-100081009D02*
X196919047Y-100176247D01*
X196919047Y-100176247D02*
X196919047Y-100414342D01*
X196919047Y-100414342D02*
X196871428Y-100509580D01*
X196871428Y-100509580D02*
X196823809Y-100557200D01*
X196823809Y-100557200D02*
X196728571Y-100604819D01*
X196728571Y-100604819D02*
X196442857Y-100604819D01*
X196442857Y-100604819D02*
X196347619Y-100557200D01*
X196347619Y-100557200D02*
X196300000Y-100509580D01*
X197300000Y-99700057D02*
X197347619Y-99652438D01*
X197347619Y-99652438D02*
X197442857Y-99604819D01*
X197442857Y-99604819D02*
X197680952Y-99604819D01*
X197680952Y-99604819D02*
X197776190Y-99652438D01*
X197776190Y-99652438D02*
X197823809Y-99700057D01*
X197823809Y-99700057D02*
X197871428Y-99795295D01*
X197871428Y-99795295D02*
X197871428Y-99890533D01*
X197871428Y-99890533D02*
X197823809Y-100033390D01*
X197823809Y-100033390D02*
X197252381Y-100604819D01*
X197252381Y-100604819D02*
X197871428Y-100604819D01*
X198442857Y-100033390D02*
X198347619Y-99985771D01*
X198347619Y-99985771D02*
X198300000Y-99938152D01*
X198300000Y-99938152D02*
X198252381Y-99842914D01*
X198252381Y-99842914D02*
X198252381Y-99795295D01*
X198252381Y-99795295D02*
X198300000Y-99700057D01*
X198300000Y-99700057D02*
X198347619Y-99652438D01*
X198347619Y-99652438D02*
X198442857Y-99604819D01*
X198442857Y-99604819D02*
X198633333Y-99604819D01*
X198633333Y-99604819D02*
X198728571Y-99652438D01*
X198728571Y-99652438D02*
X198776190Y-99700057D01*
X198776190Y-99700057D02*
X198823809Y-99795295D01*
X198823809Y-99795295D02*
X198823809Y-99842914D01*
X198823809Y-99842914D02*
X198776190Y-99938152D01*
X198776190Y-99938152D02*
X198728571Y-99985771D01*
X198728571Y-99985771D02*
X198633333Y-100033390D01*
X198633333Y-100033390D02*
X198442857Y-100033390D01*
X198442857Y-100033390D02*
X198347619Y-100081009D01*
X198347619Y-100081009D02*
X198300000Y-100128628D01*
X198300000Y-100128628D02*
X198252381Y-100223866D01*
X198252381Y-100223866D02*
X198252381Y-100414342D01*
X198252381Y-100414342D02*
X198300000Y-100509580D01*
X198300000Y-100509580D02*
X198347619Y-100557200D01*
X198347619Y-100557200D02*
X198442857Y-100604819D01*
X198442857Y-100604819D02*
X198633333Y-100604819D01*
X198633333Y-100604819D02*
X198728571Y-100557200D01*
X198728571Y-100557200D02*
X198776190Y-100509580D01*
X198776190Y-100509580D02*
X198823809Y-100414342D01*
X198823809Y-100414342D02*
X198823809Y-100223866D01*
X198823809Y-100223866D02*
X198776190Y-100128628D01*
X198776190Y-100128628D02*
X198728571Y-100081009D01*
X198728571Y-100081009D02*
X198633333Y-100033390D01*
X199252381Y-100604819D02*
X199252381Y-99604819D01*
X199252381Y-99604819D02*
X199633333Y-99604819D01*
X199633333Y-99604819D02*
X199728571Y-99652438D01*
X199728571Y-99652438D02*
X199776190Y-99700057D01*
X199776190Y-99700057D02*
X199823809Y-99795295D01*
X199823809Y-99795295D02*
X199823809Y-99938152D01*
X199823809Y-99938152D02*
X199776190Y-100033390D01*
X199776190Y-100033390D02*
X199728571Y-100081009D01*
X199728571Y-100081009D02*
X199633333Y-100128628D01*
X199633333Y-100128628D02*
X199252381Y-100128628D01*
X200776190Y-100604819D02*
X200204762Y-100604819D01*
X200490476Y-100604819D02*
X200490476Y-99604819D01*
X200490476Y-99604819D02*
X200395238Y-99747676D01*
X200395238Y-99747676D02*
X200300000Y-99842914D01*
X200300000Y-99842914D02*
X200204762Y-99890533D01*
X135655792Y-62495960D02*
X135208319Y-62658826D01*
X135208319Y-62658826D02*
X134866299Y-61719134D01*
X135907989Y-62353492D02*
X136058517Y-62349380D01*
X136058517Y-62349380D02*
X136282253Y-62267946D01*
X136282253Y-62267946D02*
X136355461Y-62190626D01*
X136355461Y-62190626D02*
X136383922Y-62129592D01*
X136383922Y-62129592D02*
X136396096Y-62023810D01*
X136396096Y-62023810D02*
X136363522Y-61934316D01*
X136363522Y-61934316D02*
X136286202Y-61861108D01*
X136286202Y-61861108D02*
X136225168Y-61832647D01*
X136225168Y-61832647D02*
X136119387Y-61820474D01*
X136119387Y-61820474D02*
X135924111Y-61840873D01*
X135924111Y-61840873D02*
X135818330Y-61828699D01*
X135818330Y-61828699D02*
X135757296Y-61800238D01*
X135757296Y-61800238D02*
X135679975Y-61727031D01*
X135679975Y-61727031D02*
X135647402Y-61637536D01*
X135647402Y-61637536D02*
X135659576Y-61531755D01*
X135659576Y-61531755D02*
X135688036Y-61470721D01*
X135688036Y-61470721D02*
X135761244Y-61393400D01*
X135761244Y-61393400D02*
X135984981Y-61311967D01*
X135984981Y-61311967D02*
X136135509Y-61307854D01*
X136509774Y-61222308D02*
X136538235Y-61161274D01*
X136538235Y-61161274D02*
X136611442Y-61083954D01*
X136611442Y-61083954D02*
X136835179Y-61002520D01*
X136835179Y-61002520D02*
X136940960Y-61014694D01*
X136940960Y-61014694D02*
X137001994Y-61043155D01*
X137001994Y-61043155D02*
X137079314Y-61116363D01*
X137079314Y-61116363D02*
X137111888Y-61205857D01*
X137111888Y-61205857D02*
X137116001Y-61356386D01*
X137116001Y-61356386D02*
X136774473Y-62088793D01*
X136774473Y-62088793D02*
X137356188Y-61877066D01*
X117077865Y-88481081D02*
X117419886Y-87541389D01*
X117419886Y-87541389D02*
X117643622Y-87622822D01*
X117643622Y-87622822D02*
X117761577Y-87716429D01*
X117761577Y-87716429D02*
X117818498Y-87838497D01*
X117818498Y-87838497D02*
X117830672Y-87944278D01*
X117830672Y-87944278D02*
X117810273Y-88139554D01*
X117810273Y-88139554D02*
X117761413Y-88273796D01*
X117761413Y-88273796D02*
X117651519Y-88436498D01*
X117651519Y-88436498D02*
X117574198Y-88509706D01*
X117574198Y-88509706D02*
X117452130Y-88566627D01*
X117452130Y-88566627D02*
X117301602Y-88562515D01*
X117301602Y-88562515D02*
X117077865Y-88481081D01*
X117761248Y-88831162D02*
X118477205Y-89091749D01*
X118733515Y-89083688D02*
X119075535Y-88143996D01*
X118924677Y-89254616D02*
X119640633Y-89515203D01*
X120686436Y-88730316D02*
X120238963Y-88567449D01*
X120238963Y-88567449D02*
X120031349Y-88998635D01*
X120031349Y-88998635D02*
X120092383Y-88970174D01*
X120092383Y-88970174D02*
X120198165Y-88958000D01*
X120198165Y-88958000D02*
X120421901Y-89039434D01*
X120421901Y-89039434D02*
X120495109Y-89116754D01*
X120495109Y-89116754D02*
X120523569Y-89177788D01*
X120523569Y-89177788D02*
X120535743Y-89283570D01*
X120535743Y-89283570D02*
X120454310Y-89507306D01*
X120454310Y-89507306D02*
X120376989Y-89580514D01*
X120376989Y-89580514D02*
X120315955Y-89608974D01*
X120315955Y-89608974D02*
X120210174Y-89621148D01*
X120210174Y-89621148D02*
X119986438Y-89539715D01*
X119986438Y-89539715D02*
X119913230Y-89462394D01*
X119913230Y-89462394D02*
X119884769Y-89401360D01*
X121189836Y-80319277D02*
X121763413Y-79500125D01*
X121763413Y-79500125D02*
X121958449Y-79636691D01*
X121958449Y-79636691D02*
X122048157Y-79757638D01*
X122048157Y-79757638D02*
X122071545Y-79890279D01*
X122071545Y-79890279D02*
X122055926Y-79995606D01*
X122055926Y-79995606D02*
X121985681Y-80178948D01*
X121985681Y-80178948D02*
X121903741Y-80295970D01*
X121903741Y-80295970D02*
X121755482Y-80424686D01*
X121755482Y-80424686D02*
X121661848Y-80475387D01*
X121661848Y-80475387D02*
X121529207Y-80498775D01*
X121529207Y-80498775D02*
X121384872Y-80455843D01*
X121384872Y-80455843D02*
X121189836Y-80319277D01*
X121759326Y-80834302D02*
X122383441Y-81271313D01*
X122633104Y-81329864D02*
X123206681Y-80510712D01*
X122773514Y-81544444D02*
X123397630Y-81981455D01*
X124142854Y-81166228D02*
X124649948Y-81521299D01*
X124649948Y-81521299D02*
X124158392Y-81642165D01*
X124158392Y-81642165D02*
X124275414Y-81724105D01*
X124275414Y-81724105D02*
X124326115Y-81817738D01*
X124326115Y-81817738D02*
X124337809Y-81884059D01*
X124337809Y-81884059D02*
X124322190Y-81989386D01*
X124322190Y-81989386D02*
X124185625Y-82184422D01*
X124185625Y-82184422D02*
X124091991Y-82235124D01*
X124091991Y-82235124D02*
X124025671Y-82246818D01*
X124025671Y-82246818D02*
X123920343Y-82231199D01*
X123920343Y-82231199D02*
X123686300Y-82067320D01*
X123686300Y-82067320D02*
X123635598Y-81973686D01*
X123635598Y-81973686D02*
X123623904Y-81907366D01*
X159538205Y-65500962D02*
X159571876Y-65559283D01*
X159571876Y-65559283D02*
X159580899Y-65709597D01*
X159580899Y-65709597D02*
X159556249Y-65801590D01*
X159556249Y-65801590D02*
X159473279Y-65927255D01*
X159473279Y-65927255D02*
X159356636Y-65994599D01*
X159356636Y-65994599D02*
X159252319Y-66015946D01*
X159252319Y-66015946D02*
X159056008Y-66012643D01*
X159056008Y-66012643D02*
X158918019Y-65975669D01*
X158918019Y-65975669D02*
X158746357Y-65880374D01*
X158746357Y-65880374D02*
X158666689Y-65809728D01*
X158666689Y-65809728D02*
X158599346Y-65693085D01*
X158599346Y-65693085D02*
X158590323Y-65542771D01*
X158590323Y-65542771D02*
X158614973Y-65450778D01*
X158614973Y-65450778D02*
X158697944Y-65325114D01*
X158697944Y-65325114D02*
X158756265Y-65291442D01*
X159226137Y-64825757D02*
X159155491Y-64905426D01*
X159155491Y-64905426D02*
X159097169Y-64939097D01*
X159097169Y-64939097D02*
X158992852Y-64960444D01*
X158992852Y-64960444D02*
X158946855Y-64948120D01*
X158946855Y-64948120D02*
X158867187Y-64877474D01*
X158867187Y-64877474D02*
X158833515Y-64819153D01*
X158833515Y-64819153D02*
X158812168Y-64714835D01*
X158812168Y-64714835D02*
X158861467Y-64530849D01*
X158861467Y-64530849D02*
X158932113Y-64451181D01*
X158932113Y-64451181D02*
X158990434Y-64417509D01*
X158990434Y-64417509D02*
X159094752Y-64396162D01*
X159094752Y-64396162D02*
X159140748Y-64408487D01*
X159140748Y-64408487D02*
X159220417Y-64479133D01*
X159220417Y-64479133D02*
X159254088Y-64537454D01*
X159254088Y-64537454D02*
X159275435Y-64641771D01*
X159275435Y-64641771D02*
X159226137Y-64825757D01*
X159226137Y-64825757D02*
X159247484Y-64930075D01*
X159247484Y-64930075D02*
X159281155Y-64988396D01*
X159281155Y-64988396D02*
X159360824Y-65059042D01*
X159360824Y-65059042D02*
X159544809Y-65108341D01*
X159544809Y-65108341D02*
X159649127Y-65086994D01*
X159649127Y-65086994D02*
X159707448Y-65053322D01*
X159707448Y-65053322D02*
X159778094Y-64973654D01*
X159778094Y-64973654D02*
X159827393Y-64789668D01*
X159827393Y-64789668D02*
X159806046Y-64685350D01*
X159806046Y-64685350D02*
X159772374Y-64627029D01*
X159772374Y-64627029D02*
X159692706Y-64556383D01*
X159692706Y-64556383D02*
X159508720Y-64507084D01*
X159508720Y-64507084D02*
X159404403Y-64528431D01*
X159404403Y-64528431D02*
X159346081Y-64562103D01*
X159346081Y-64562103D02*
X159275435Y-64641771D01*
X177077107Y-84954141D02*
X176550337Y-84708415D01*
X176582236Y-85239855D02*
X176082236Y-84373830D01*
X176082236Y-84373830D02*
X176412150Y-84183354D01*
X176412150Y-84183354D02*
X176518438Y-84176974D01*
X176518438Y-84176974D02*
X176583487Y-84194404D01*
X176583487Y-84194404D02*
X176672345Y-84253073D01*
X176672345Y-84253073D02*
X176743774Y-84376791D01*
X176743774Y-84376791D02*
X176750154Y-84483079D01*
X176750154Y-84483079D02*
X176732724Y-84548128D01*
X176732724Y-84548128D02*
X176674055Y-84636986D01*
X176674055Y-84636986D02*
X176344140Y-84827462D01*
X177901893Y-84477950D02*
X177407022Y-84763665D01*
X177654458Y-84620808D02*
X177154458Y-83754782D01*
X177154458Y-83754782D02*
X177143407Y-83926119D01*
X177143407Y-83926119D02*
X177108548Y-84056217D01*
X177108548Y-84056217D02*
X177049879Y-84145075D01*
X178114470Y-84465191D02*
X178774299Y-84084239D01*
X178350398Y-83064306D02*
X178886509Y-82754782D01*
X178886509Y-82754782D02*
X178788310Y-83251363D01*
X178788310Y-83251363D02*
X178912028Y-83179935D01*
X178912028Y-83179935D02*
X179018316Y-83173555D01*
X179018316Y-83173555D02*
X179083365Y-83190985D01*
X179083365Y-83190985D02*
X179172223Y-83249654D01*
X179172223Y-83249654D02*
X179291270Y-83455850D01*
X179291270Y-83455850D02*
X179297650Y-83562138D01*
X179297650Y-83562138D02*
X179280220Y-83627187D01*
X179280220Y-83627187D02*
X179221551Y-83716046D01*
X179221551Y-83716046D02*
X178974116Y-83858903D01*
X178974116Y-83858903D02*
X178867827Y-83865282D01*
X178867827Y-83865282D02*
X178802779Y-83847853D01*
X153338562Y-67005672D02*
X152835132Y-67296234D01*
X153288759Y-67574926D02*
X152292564Y-67487770D01*
X152292564Y-67487770D02*
X152325766Y-67108267D01*
X152325766Y-67108267D02*
X152381505Y-67017542D01*
X152381505Y-67017542D02*
X152433093Y-66974254D01*
X152433093Y-66974254D02*
X152532119Y-66935117D01*
X152532119Y-66935117D02*
X152674432Y-66947568D01*
X152674432Y-66947568D02*
X152765158Y-67003306D01*
X152765158Y-67003306D02*
X152808445Y-67054894D01*
X152808445Y-67054894D02*
X152847582Y-67153920D01*
X152847582Y-67153920D02*
X152814380Y-67533423D01*
X152421222Y-66017197D02*
X152379720Y-66491575D01*
X152379720Y-66491575D02*
X152849948Y-66580516D01*
X152849948Y-66580516D02*
X152806660Y-66528928D01*
X152806660Y-66528928D02*
X152767523Y-66429902D01*
X152767523Y-66429902D02*
X152788274Y-66192713D01*
X152788274Y-66192713D02*
X152844013Y-66101987D01*
X152844013Y-66101987D02*
X152895601Y-66058700D01*
X152895601Y-66058700D02*
X152994627Y-66019562D01*
X152994627Y-66019562D02*
X153231816Y-66040314D01*
X153231816Y-66040314D02*
X153322541Y-66096052D01*
X153322541Y-66096052D02*
X153365829Y-66147640D01*
X153365829Y-66147640D02*
X153404966Y-66246666D01*
X153404966Y-66246666D02*
X153384215Y-66483855D01*
X153384215Y-66483855D02*
X153328477Y-66574581D01*
X153328477Y-66574581D02*
X153276888Y-66617868D01*
X181400914Y-85796327D02*
X181377881Y-85859609D01*
X181377881Y-85859609D02*
X181268533Y-85963140D01*
X181268533Y-85963140D02*
X181182218Y-86003390D01*
X181182218Y-86003390D02*
X181032621Y-86020606D01*
X181032621Y-86020606D02*
X180906057Y-85974541D01*
X180906057Y-85974541D02*
X180822650Y-85908350D01*
X180822650Y-85908350D02*
X180698994Y-85755845D01*
X180698994Y-85755845D02*
X180638620Y-85626372D01*
X180638620Y-85626372D02*
X180601278Y-85433618D01*
X180601278Y-85433618D02*
X180604187Y-85327178D01*
X180604187Y-85327178D02*
X180650252Y-85200614D01*
X180650252Y-85200614D02*
X180759600Y-85097082D01*
X180759600Y-85097082D02*
X180845915Y-85056833D01*
X180845915Y-85056833D02*
X180995512Y-85039616D01*
X180995512Y-85039616D02*
X181058795Y-85062649D01*
X182304314Y-85480148D02*
X181786424Y-85721644D01*
X182045369Y-85600896D02*
X181622750Y-84694588D01*
X181622750Y-84694588D02*
X181596809Y-84864310D01*
X181596809Y-84864310D02*
X181550744Y-84990875D01*
X181550744Y-84990875D02*
X181484553Y-85074282D01*
D10*
X138838095Y-115257419D02*
X138838095Y-116066942D01*
X138838095Y-116066942D02*
X138885714Y-116162180D01*
X138885714Y-116162180D02*
X138933333Y-116209800D01*
X138933333Y-116209800D02*
X139028571Y-116257419D01*
X139028571Y-116257419D02*
X139219047Y-116257419D01*
X139219047Y-116257419D02*
X139314285Y-116209800D01*
X139314285Y-116209800D02*
X139361904Y-116162180D01*
X139361904Y-116162180D02*
X139409523Y-116066942D01*
X139409523Y-116066942D02*
X139409523Y-115257419D01*
X140409523Y-116257419D02*
X139838095Y-116257419D01*
X140123809Y-116257419D02*
X140123809Y-115257419D01*
X140123809Y-115257419D02*
X140028571Y-115400276D01*
X140028571Y-115400276D02*
X139933333Y-115495514D01*
X139933333Y-115495514D02*
X139838095Y-115543133D01*
D11*
X130540201Y-73072218D02*
X130739081Y-72526035D01*
X130212443Y-72604131D02*
X131031595Y-72030554D01*
X131031595Y-72030554D02*
X131250100Y-72342612D01*
X131250100Y-72342612D02*
X131265719Y-72447940D01*
X131265719Y-72447940D02*
X131254025Y-72514260D01*
X131254025Y-72514260D02*
X131203324Y-72607894D01*
X131203324Y-72607894D02*
X131086302Y-72689833D01*
X131086302Y-72689833D02*
X130980974Y-72705452D01*
X130980974Y-72705452D02*
X130914654Y-72693758D01*
X130914654Y-72693758D02*
X130821020Y-72643057D01*
X130821020Y-72643057D02*
X130602515Y-72330999D01*
X131086464Y-73852362D02*
X130758706Y-73384276D01*
X130922585Y-73618319D02*
X131741737Y-73044743D01*
X131741737Y-73044743D02*
X131570089Y-73048668D01*
X131570089Y-73048668D02*
X131437448Y-73025279D01*
X131437448Y-73025279D02*
X131343815Y-72974578D01*
X131117702Y-74063018D02*
X131554713Y-74687134D01*
X131796606Y-74866551D02*
X131905859Y-75022580D01*
X131905859Y-75022580D02*
X131999493Y-75073281D01*
X131999493Y-75073281D02*
X132065813Y-75084975D01*
X132065813Y-75084975D02*
X132237461Y-75081050D01*
X132237461Y-75081050D02*
X132420803Y-75010805D01*
X132420803Y-75010805D02*
X132732861Y-74792300D01*
X132732861Y-74792300D02*
X132783562Y-74698666D01*
X132783562Y-74698666D02*
X132795257Y-74632346D01*
X132795257Y-74632346D02*
X132779637Y-74527018D01*
X132779637Y-74527018D02*
X132670385Y-74370989D01*
X132670385Y-74370989D02*
X132576751Y-74320288D01*
X132576751Y-74320288D02*
X132510431Y-74308594D01*
X132510431Y-74308594D02*
X132405103Y-74324213D01*
X132405103Y-74324213D02*
X132210067Y-74460778D01*
X132210067Y-74460778D02*
X132159366Y-74554412D01*
X132159366Y-74554412D02*
X132147672Y-74620732D01*
X132147672Y-74620732D02*
X132163291Y-74726060D01*
X132163291Y-74726060D02*
X132272543Y-74882089D01*
X132272543Y-74882089D02*
X132366177Y-74932790D01*
X132366177Y-74932790D02*
X132432497Y-74944484D01*
X132432497Y-74944484D02*
X132537825Y-74928865D01*
X165390979Y-67695728D02*
X165414012Y-67759010D01*
X165414012Y-67759010D02*
X165396796Y-67908607D01*
X165396796Y-67908607D02*
X165356546Y-67994922D01*
X165356546Y-67994922D02*
X165253015Y-68104270D01*
X165253015Y-68104270D02*
X165126450Y-68150336D01*
X165126450Y-68150336D02*
X165020011Y-68153244D01*
X165020011Y-68153244D02*
X164827256Y-68115903D01*
X164827256Y-68115903D02*
X164697783Y-68055529D01*
X164697783Y-68055529D02*
X164545278Y-67931872D01*
X164545278Y-67931872D02*
X164479088Y-67848466D01*
X164479088Y-67848466D02*
X164433022Y-67721901D01*
X164433022Y-67721901D02*
X164450239Y-67572304D01*
X164450239Y-67572304D02*
X164490488Y-67485989D01*
X164490488Y-67485989D02*
X164594019Y-67376641D01*
X164594019Y-67376641D02*
X164657302Y-67353608D01*
X164953355Y-66493366D02*
X164752109Y-66924941D01*
X164752109Y-66924941D02*
X165163559Y-67169346D01*
X165163559Y-67169346D02*
X165140526Y-67106063D01*
X165140526Y-67106063D02*
X165137618Y-66999624D01*
X165137618Y-66999624D02*
X165238242Y-66783836D01*
X165238242Y-66783836D02*
X165321648Y-66717646D01*
X165321648Y-66717646D02*
X165384931Y-66694613D01*
X165384931Y-66694613D02*
X165491370Y-66691705D01*
X165491370Y-66691705D02*
X165707158Y-66792328D01*
X165707158Y-66792328D02*
X165773348Y-66875735D01*
X165773348Y-66875735D02*
X165796381Y-66939017D01*
X165796381Y-66939017D02*
X165799289Y-67045457D01*
X165799289Y-67045457D02*
X165698666Y-67261245D01*
X165698666Y-67261245D02*
X165615259Y-67327435D01*
X165615259Y-67327435D02*
X165551977Y-67350468D01*
D10*
X181368094Y-62875080D02*
X181368094Y-62065557D01*
X181368094Y-62065557D02*
X181320475Y-61970319D01*
X181320475Y-61970319D02*
X181272856Y-61922700D01*
X181272856Y-61922700D02*
X181177618Y-61875080D01*
X181177618Y-61875080D02*
X180987142Y-61875080D01*
X180987142Y-61875080D02*
X180891904Y-61922700D01*
X180891904Y-61922700D02*
X180844285Y-61970319D01*
X180844285Y-61970319D02*
X180796666Y-62065557D01*
X180796666Y-62065557D02*
X180796666Y-62875080D01*
X180368094Y-61922700D02*
X180225237Y-61875080D01*
X180225237Y-61875080D02*
X179987142Y-61875080D01*
X179987142Y-61875080D02*
X179891904Y-61922700D01*
X179891904Y-61922700D02*
X179844285Y-61970319D01*
X179844285Y-61970319D02*
X179796666Y-62065557D01*
X179796666Y-62065557D02*
X179796666Y-62160795D01*
X179796666Y-62160795D02*
X179844285Y-62256033D01*
X179844285Y-62256033D02*
X179891904Y-62303652D01*
X179891904Y-62303652D02*
X179987142Y-62351271D01*
X179987142Y-62351271D02*
X180177618Y-62398890D01*
X180177618Y-62398890D02*
X180272856Y-62446509D01*
X180272856Y-62446509D02*
X180320475Y-62494128D01*
X180320475Y-62494128D02*
X180368094Y-62589366D01*
X180368094Y-62589366D02*
X180368094Y-62684604D01*
X180368094Y-62684604D02*
X180320475Y-62779842D01*
X180320475Y-62779842D02*
X180272856Y-62827461D01*
X180272856Y-62827461D02*
X180177618Y-62875080D01*
X180177618Y-62875080D02*
X179939523Y-62875080D01*
X179939523Y-62875080D02*
X179796666Y-62827461D01*
X179034761Y-62398890D02*
X178891904Y-62351271D01*
X178891904Y-62351271D02*
X178844285Y-62303652D01*
X178844285Y-62303652D02*
X178796666Y-62208414D01*
X178796666Y-62208414D02*
X178796666Y-62065557D01*
X178796666Y-62065557D02*
X178844285Y-61970319D01*
X178844285Y-61970319D02*
X178891904Y-61922700D01*
X178891904Y-61922700D02*
X178987142Y-61875080D01*
X178987142Y-61875080D02*
X179368094Y-61875080D01*
X179368094Y-61875080D02*
X179368094Y-62875080D01*
X179368094Y-62875080D02*
X179034761Y-62875080D01*
X179034761Y-62875080D02*
X178939523Y-62827461D01*
X178939523Y-62827461D02*
X178891904Y-62779842D01*
X178891904Y-62779842D02*
X178844285Y-62684604D01*
X178844285Y-62684604D02*
X178844285Y-62589366D01*
X178844285Y-62589366D02*
X178891904Y-62494128D01*
X178891904Y-62494128D02*
X178939523Y-62446509D01*
X178939523Y-62446509D02*
X179034761Y-62398890D01*
X179034761Y-62398890D02*
X179368094Y-62398890D01*
X177844285Y-61875080D02*
X178415713Y-61875080D01*
X178129999Y-61875080D02*
X178129999Y-62875080D01*
X178129999Y-62875080D02*
X178225237Y-62732223D01*
X178225237Y-62732223D02*
X178320475Y-62636985D01*
X178320475Y-62636985D02*
X178415713Y-62589366D01*
D11*
X167572438Y-70181946D02*
X167589868Y-70246994D01*
X167589868Y-70246994D02*
X167559679Y-70394522D01*
X167559679Y-70394522D02*
X167512060Y-70477001D01*
X167512060Y-70477001D02*
X167399392Y-70576909D01*
X167399392Y-70576909D02*
X167269294Y-70611768D01*
X167269294Y-70611768D02*
X167163006Y-70605389D01*
X167163006Y-70605389D02*
X166974239Y-70551390D01*
X166974239Y-70551390D02*
X166850521Y-70479961D01*
X166850521Y-70479961D02*
X166709374Y-70343484D01*
X166709374Y-70343484D02*
X166650705Y-70254626D01*
X166650705Y-70254626D02*
X166615845Y-70124528D01*
X166615845Y-70124528D02*
X166646034Y-69977001D01*
X166646034Y-69977001D02*
X166693653Y-69894522D01*
X166693653Y-69894522D02*
X166806321Y-69794614D01*
X166806321Y-69794614D02*
X166871370Y-69777184D01*
X168131107Y-69404779D02*
X167845393Y-69899650D01*
X167988250Y-69652214D02*
X167122225Y-69152214D01*
X167122225Y-69152214D02*
X167198324Y-69306122D01*
X167198324Y-69306122D02*
X167233183Y-69436219D01*
X167233183Y-69436219D02*
X167226803Y-69542507D01*
X167574606Y-68368668D02*
X167622225Y-68286189D01*
X167622225Y-68286189D02*
X167711083Y-68227520D01*
X167711083Y-68227520D02*
X167776132Y-68210090D01*
X167776132Y-68210090D02*
X167882420Y-68216470D01*
X167882420Y-68216470D02*
X168071187Y-68270469D01*
X168071187Y-68270469D02*
X168277383Y-68389516D01*
X168277383Y-68389516D02*
X168418531Y-68525994D01*
X168418531Y-68525994D02*
X168477200Y-68614852D01*
X168477200Y-68614852D02*
X168494630Y-68679901D01*
X168494630Y-68679901D02*
X168488250Y-68786189D01*
X168488250Y-68786189D02*
X168440631Y-68868668D01*
X168440631Y-68868668D02*
X168351773Y-68927337D01*
X168351773Y-68927337D02*
X168286724Y-68944766D01*
X168286724Y-68944766D02*
X168180436Y-68938387D01*
X168180436Y-68938387D02*
X167991669Y-68884388D01*
X167991669Y-68884388D02*
X167785472Y-68765340D01*
X167785472Y-68765340D02*
X167644325Y-68628863D01*
X167644325Y-68628863D02*
X167585656Y-68540005D01*
X167585656Y-68540005D02*
X167568226Y-68474956D01*
X167568226Y-68474956D02*
X167574606Y-68368668D01*
X117154819Y-112085713D02*
X116154819Y-112085713D01*
X117154819Y-111514285D02*
X116583390Y-111942856D01*
X116154819Y-111514285D02*
X116726247Y-112085713D01*
X117154819Y-111085713D02*
X116154819Y-111085713D01*
X116154819Y-111085713D02*
X117154819Y-110514285D01*
X117154819Y-110514285D02*
X116154819Y-110514285D01*
X116154819Y-109847618D02*
X116154819Y-109657142D01*
X116154819Y-109657142D02*
X116202438Y-109561904D01*
X116202438Y-109561904D02*
X116297676Y-109466666D01*
X116297676Y-109466666D02*
X116488152Y-109419047D01*
X116488152Y-109419047D02*
X116821485Y-109419047D01*
X116821485Y-109419047D02*
X117011961Y-109466666D01*
X117011961Y-109466666D02*
X117107200Y-109561904D01*
X117107200Y-109561904D02*
X117154819Y-109657142D01*
X117154819Y-109657142D02*
X117154819Y-109847618D01*
X117154819Y-109847618D02*
X117107200Y-109942856D01*
X117107200Y-109942856D02*
X117011961Y-110038094D01*
X117011961Y-110038094D02*
X116821485Y-110085713D01*
X116821485Y-110085713D02*
X116488152Y-110085713D01*
X116488152Y-110085713D02*
X116297676Y-110038094D01*
X116297676Y-110038094D02*
X116202438Y-109942856D01*
X116202438Y-109942856D02*
X116154819Y-109847618D01*
X116631009Y-108657142D02*
X116678628Y-108514285D01*
X116678628Y-108514285D02*
X116726247Y-108466666D01*
X116726247Y-108466666D02*
X116821485Y-108419047D01*
X116821485Y-108419047D02*
X116964342Y-108419047D01*
X116964342Y-108419047D02*
X117059580Y-108466666D01*
X117059580Y-108466666D02*
X117107200Y-108514285D01*
X117107200Y-108514285D02*
X117154819Y-108609523D01*
X117154819Y-108609523D02*
X117154819Y-108990475D01*
X117154819Y-108990475D02*
X116154819Y-108990475D01*
X116154819Y-108990475D02*
X116154819Y-108657142D01*
X116154819Y-108657142D02*
X116202438Y-108561904D01*
X116202438Y-108561904D02*
X116250057Y-108514285D01*
X116250057Y-108514285D02*
X116345295Y-108466666D01*
X116345295Y-108466666D02*
X116440533Y-108466666D01*
X116440533Y-108466666D02*
X116535771Y-108514285D01*
X116535771Y-108514285D02*
X116583390Y-108561904D01*
X116583390Y-108561904D02*
X116631009Y-108657142D01*
X116631009Y-108657142D02*
X116631009Y-108990475D01*
X117154819Y-107466666D02*
X117154819Y-108038094D01*
X117154819Y-107752380D02*
X116154819Y-107752380D01*
X116154819Y-107752380D02*
X116297676Y-107847618D01*
X116297676Y-107847618D02*
X116392914Y-107942856D01*
X116392914Y-107942856D02*
X116440533Y-108038094D01*
X183892909Y-77012328D02*
X183346726Y-76813448D01*
X183424822Y-77340086D02*
X182851245Y-76520934D01*
X182851245Y-76520934D02*
X183163303Y-76302429D01*
X183163303Y-76302429D02*
X183268631Y-76286810D01*
X183268631Y-76286810D02*
X183334951Y-76298504D01*
X183334951Y-76298504D02*
X183428585Y-76349205D01*
X183428585Y-76349205D02*
X183510524Y-76466227D01*
X183510524Y-76466227D02*
X183526144Y-76571554D01*
X183526144Y-76571554D02*
X183514449Y-76637875D01*
X183514449Y-76637875D02*
X183463748Y-76731508D01*
X183463748Y-76731508D02*
X183151690Y-76950014D01*
X184673054Y-76466065D02*
X184204967Y-76793823D01*
X184439010Y-76629944D02*
X183865434Y-75810792D01*
X183865434Y-75810792D02*
X183869359Y-75982440D01*
X183869359Y-75982440D02*
X183845971Y-76115081D01*
X183845971Y-76115081D02*
X183795269Y-76208714D01*
X184883709Y-76434827D02*
X185507825Y-75997816D01*
X186077314Y-75482791D02*
X185609228Y-75810549D01*
X185843271Y-75646670D02*
X185269695Y-74827518D01*
X185269695Y-74827518D02*
X185273620Y-74999166D01*
X185273620Y-74999166D02*
X185250231Y-75131807D01*
X185250231Y-75131807D02*
X185199530Y-75225440D01*
X185870422Y-74523148D02*
X185882116Y-74456828D01*
X185882116Y-74456828D02*
X185932818Y-74363194D01*
X185932818Y-74363194D02*
X186127854Y-74226628D01*
X186127854Y-74226628D02*
X186233182Y-74211009D01*
X186233182Y-74211009D02*
X186299502Y-74222703D01*
X186299502Y-74222703D02*
X186393136Y-74273405D01*
X186393136Y-74273405D02*
X186447762Y-74351419D01*
X186447762Y-74351419D02*
X186490694Y-74495754D01*
X186490694Y-74495754D02*
X186350365Y-75291599D01*
X186350365Y-75291599D02*
X186857459Y-74936528D01*
X153961905Y-130457200D02*
X154104762Y-130504819D01*
X154104762Y-130504819D02*
X154342857Y-130504819D01*
X154342857Y-130504819D02*
X154438095Y-130457200D01*
X154438095Y-130457200D02*
X154485714Y-130409580D01*
X154485714Y-130409580D02*
X154533333Y-130314342D01*
X154533333Y-130314342D02*
X154533333Y-130219104D01*
X154533333Y-130219104D02*
X154485714Y-130123866D01*
X154485714Y-130123866D02*
X154438095Y-130076247D01*
X154438095Y-130076247D02*
X154342857Y-130028628D01*
X154342857Y-130028628D02*
X154152381Y-129981009D01*
X154152381Y-129981009D02*
X154057143Y-129933390D01*
X154057143Y-129933390D02*
X154009524Y-129885771D01*
X154009524Y-129885771D02*
X153961905Y-129790533D01*
X153961905Y-129790533D02*
X153961905Y-129695295D01*
X153961905Y-129695295D02*
X154009524Y-129600057D01*
X154009524Y-129600057D02*
X154057143Y-129552438D01*
X154057143Y-129552438D02*
X154152381Y-129504819D01*
X154152381Y-129504819D02*
X154390476Y-129504819D01*
X154390476Y-129504819D02*
X154533333Y-129552438D01*
X155533333Y-130409580D02*
X155485714Y-130457200D01*
X155485714Y-130457200D02*
X155342857Y-130504819D01*
X155342857Y-130504819D02*
X155247619Y-130504819D01*
X155247619Y-130504819D02*
X155104762Y-130457200D01*
X155104762Y-130457200D02*
X155009524Y-130361961D01*
X155009524Y-130361961D02*
X154961905Y-130266723D01*
X154961905Y-130266723D02*
X154914286Y-130076247D01*
X154914286Y-130076247D02*
X154914286Y-129933390D01*
X154914286Y-129933390D02*
X154961905Y-129742914D01*
X154961905Y-129742914D02*
X155009524Y-129647676D01*
X155009524Y-129647676D02*
X155104762Y-129552438D01*
X155104762Y-129552438D02*
X155247619Y-129504819D01*
X155247619Y-129504819D02*
X155342857Y-129504819D01*
X155342857Y-129504819D02*
X155485714Y-129552438D01*
X155485714Y-129552438D02*
X155533333Y-129600057D01*
X156533333Y-130504819D02*
X156200000Y-130028628D01*
X155961905Y-130504819D02*
X155961905Y-129504819D01*
X155961905Y-129504819D02*
X156342857Y-129504819D01*
X156342857Y-129504819D02*
X156438095Y-129552438D01*
X156438095Y-129552438D02*
X156485714Y-129600057D01*
X156485714Y-129600057D02*
X156533333Y-129695295D01*
X156533333Y-129695295D02*
X156533333Y-129838152D01*
X156533333Y-129838152D02*
X156485714Y-129933390D01*
X156485714Y-129933390D02*
X156438095Y-129981009D01*
X156438095Y-129981009D02*
X156342857Y-130028628D01*
X156342857Y-130028628D02*
X155961905Y-130028628D01*
X157152381Y-129504819D02*
X157342857Y-129504819D01*
X157342857Y-129504819D02*
X157438095Y-129552438D01*
X157438095Y-129552438D02*
X157533333Y-129647676D01*
X157533333Y-129647676D02*
X157580952Y-129838152D01*
X157580952Y-129838152D02*
X157580952Y-130171485D01*
X157580952Y-130171485D02*
X157533333Y-130361961D01*
X157533333Y-130361961D02*
X157438095Y-130457200D01*
X157438095Y-130457200D02*
X157342857Y-130504819D01*
X157342857Y-130504819D02*
X157152381Y-130504819D01*
X157152381Y-130504819D02*
X157057143Y-130457200D01*
X157057143Y-130457200D02*
X156961905Y-130361961D01*
X156961905Y-130361961D02*
X156914286Y-130171485D01*
X156914286Y-130171485D02*
X156914286Y-129838152D01*
X156914286Y-129838152D02*
X156961905Y-129647676D01*
X156961905Y-129647676D02*
X157057143Y-129552438D01*
X157057143Y-129552438D02*
X157152381Y-129504819D01*
X158485714Y-130504819D02*
X158009524Y-130504819D01*
X158009524Y-130504819D02*
X158009524Y-129504819D01*
X159295238Y-130504819D02*
X158819048Y-130504819D01*
X158819048Y-130504819D02*
X158819048Y-129504819D01*
X159390477Y-130600057D02*
X160152381Y-130600057D01*
X160961905Y-130504819D02*
X160628572Y-130028628D01*
X160390477Y-130504819D02*
X160390477Y-129504819D01*
X160390477Y-129504819D02*
X160771429Y-129504819D01*
X160771429Y-129504819D02*
X160866667Y-129552438D01*
X160866667Y-129552438D02*
X160914286Y-129600057D01*
X160914286Y-129600057D02*
X160961905Y-129695295D01*
X160961905Y-129695295D02*
X160961905Y-129838152D01*
X160961905Y-129838152D02*
X160914286Y-129933390D01*
X160914286Y-129933390D02*
X160866667Y-129981009D01*
X160866667Y-129981009D02*
X160771429Y-130028628D01*
X160771429Y-130028628D02*
X160390477Y-130028628D01*
X161390477Y-130504819D02*
X161390477Y-129504819D01*
X161866667Y-130504819D02*
X161866667Y-129504819D01*
X161866667Y-129504819D02*
X162438095Y-130504819D01*
X162438095Y-130504819D02*
X162438095Y-129504819D01*
X163438095Y-129552438D02*
X163342857Y-129504819D01*
X163342857Y-129504819D02*
X163200000Y-129504819D01*
X163200000Y-129504819D02*
X163057143Y-129552438D01*
X163057143Y-129552438D02*
X162961905Y-129647676D01*
X162961905Y-129647676D02*
X162914286Y-129742914D01*
X162914286Y-129742914D02*
X162866667Y-129933390D01*
X162866667Y-129933390D02*
X162866667Y-130076247D01*
X162866667Y-130076247D02*
X162914286Y-130266723D01*
X162914286Y-130266723D02*
X162961905Y-130361961D01*
X162961905Y-130361961D02*
X163057143Y-130457200D01*
X163057143Y-130457200D02*
X163200000Y-130504819D01*
X163200000Y-130504819D02*
X163295238Y-130504819D01*
X163295238Y-130504819D02*
X163438095Y-130457200D01*
X163438095Y-130457200D02*
X163485714Y-130409580D01*
X163485714Y-130409580D02*
X163485714Y-130076247D01*
X163485714Y-130076247D02*
X163295238Y-130076247D01*
X164438095Y-130504819D02*
X163866667Y-130504819D01*
X164152381Y-130504819D02*
X164152381Y-129504819D01*
X164152381Y-129504819D02*
X164057143Y-129647676D01*
X164057143Y-129647676D02*
X163961905Y-129742914D01*
X163961905Y-129742914D02*
X163866667Y-129790533D01*
D10*
X158638095Y-115257419D02*
X158638095Y-116066942D01*
X158638095Y-116066942D02*
X158685714Y-116162180D01*
X158685714Y-116162180D02*
X158733333Y-116209800D01*
X158733333Y-116209800D02*
X158828571Y-116257419D01*
X158828571Y-116257419D02*
X159019047Y-116257419D01*
X159019047Y-116257419D02*
X159114285Y-116209800D01*
X159114285Y-116209800D02*
X159161904Y-116162180D01*
X159161904Y-116162180D02*
X159209523Y-116066942D01*
X159209523Y-116066942D02*
X159209523Y-115257419D01*
X159638095Y-115352657D02*
X159685714Y-115305038D01*
X159685714Y-115305038D02*
X159780952Y-115257419D01*
X159780952Y-115257419D02*
X160019047Y-115257419D01*
X160019047Y-115257419D02*
X160114285Y-115305038D01*
X160114285Y-115305038D02*
X160161904Y-115352657D01*
X160161904Y-115352657D02*
X160209523Y-115447895D01*
X160209523Y-115447895D02*
X160209523Y-115543133D01*
X160209523Y-115543133D02*
X160161904Y-115685990D01*
X160161904Y-115685990D02*
X159590476Y-116257419D01*
X159590476Y-116257419D02*
X160209523Y-116257419D01*
D11*
X154086440Y-59328332D02*
X153583010Y-59618894D01*
X154036637Y-59897586D02*
X153040442Y-59810430D01*
X153040442Y-59810430D02*
X153073644Y-59430927D01*
X153073644Y-59430927D02*
X153129383Y-59340202D01*
X153129383Y-59340202D02*
X153180971Y-59296914D01*
X153180971Y-59296914D02*
X153279997Y-59257777D01*
X153279997Y-59257777D02*
X153422310Y-59270228D01*
X153422310Y-59270228D02*
X153513036Y-59325966D01*
X153513036Y-59325966D02*
X153556323Y-59377554D01*
X153556323Y-59377554D02*
X153595460Y-59476580D01*
X153595460Y-59476580D02*
X153562258Y-59856083D01*
X153497015Y-58416347D02*
X154161145Y-58474450D01*
X153096761Y-58620334D02*
X153787577Y-58919777D01*
X153787577Y-58919777D02*
X153841531Y-58303085D01*
X175640750Y-82566107D02*
X175094567Y-82367227D01*
X175172663Y-82893865D02*
X174599086Y-82074713D01*
X174599086Y-82074713D02*
X174911144Y-81856208D01*
X174911144Y-81856208D02*
X175016472Y-81840589D01*
X175016472Y-81840589D02*
X175082792Y-81852283D01*
X175082792Y-81852283D02*
X175176426Y-81902984D01*
X175176426Y-81902984D02*
X175258365Y-82020006D01*
X175258365Y-82020006D02*
X175273984Y-82125334D01*
X175273984Y-82125334D02*
X175262290Y-82191654D01*
X175262290Y-82191654D02*
X175211589Y-82285288D01*
X175211589Y-82285288D02*
X174899531Y-82503793D01*
X176420894Y-82019844D02*
X175952808Y-82347602D01*
X176186851Y-82183723D02*
X175613275Y-81364571D01*
X175613275Y-81364571D02*
X175617200Y-81536219D01*
X175617200Y-81536219D02*
X175593811Y-81668860D01*
X175593811Y-81668860D02*
X175543110Y-81762493D01*
X176631550Y-81988606D02*
X177255666Y-81551595D01*
X177364757Y-80545095D02*
X177747141Y-81091196D01*
X176951215Y-80369603D02*
X177165876Y-81091277D01*
X177165876Y-81091277D02*
X177672970Y-80736206D01*
X195119315Y-128488653D02*
X195186658Y-128623340D01*
X195186658Y-128623340D02*
X195355017Y-128791698D01*
X195355017Y-128791698D02*
X195456032Y-128825370D01*
X195456032Y-128825370D02*
X195523376Y-128825370D01*
X195523376Y-128825370D02*
X195624391Y-128791698D01*
X195624391Y-128791698D02*
X195691735Y-128724355D01*
X195691735Y-128724355D02*
X195725406Y-128623340D01*
X195725406Y-128623340D02*
X195725406Y-128555996D01*
X195725406Y-128555996D02*
X195691735Y-128454981D01*
X195691735Y-128454981D02*
X195590719Y-128286622D01*
X195590719Y-128286622D02*
X195557048Y-128185607D01*
X195557048Y-128185607D02*
X195557048Y-128118263D01*
X195557048Y-128118263D02*
X195590719Y-128017248D01*
X195590719Y-128017248D02*
X195658063Y-127949905D01*
X195658063Y-127949905D02*
X195759078Y-127916233D01*
X195759078Y-127916233D02*
X195826422Y-127916233D01*
X195826422Y-127916233D02*
X195927437Y-127949905D01*
X195927437Y-127949905D02*
X196095796Y-128118263D01*
X196095796Y-128118263D02*
X196163139Y-128252950D01*
X196432513Y-128454981D02*
X195893765Y-129330446D01*
X195893765Y-129330446D02*
X196533528Y-128960057D01*
X196533528Y-128960057D02*
X196163139Y-129599820D01*
X196163139Y-129599820D02*
X197038605Y-129061072D01*
X196365170Y-129936538D02*
X196903918Y-130475286D01*
X197139620Y-130576301D02*
X197846727Y-129869194D01*
X197846727Y-129869194D02*
X197577353Y-130609973D01*
X197577353Y-130609973D02*
X198318131Y-130340599D01*
X198318131Y-130340599D02*
X197611025Y-131047706D01*
X197712040Y-131283408D02*
X198250788Y-131822156D01*
X199092582Y-131249736D02*
X199159925Y-131249736D01*
X199159925Y-131249736D02*
X199260940Y-131283408D01*
X199260940Y-131283408D02*
X199429299Y-131451767D01*
X199429299Y-131451767D02*
X199462971Y-131552782D01*
X199462971Y-131552782D02*
X199462971Y-131620126D01*
X199462971Y-131620126D02*
X199429299Y-131721141D01*
X199429299Y-131721141D02*
X199361956Y-131788484D01*
X199361956Y-131788484D02*
X199227269Y-131855828D01*
X199227269Y-131855828D02*
X198419147Y-131855828D01*
X198419147Y-131855828D02*
X198856879Y-132293561D01*
X198924223Y-132495591D02*
X199462971Y-133034339D01*
X200304765Y-132461920D02*
X200372108Y-132461920D01*
X200372108Y-132461920D02*
X200473124Y-132495591D01*
X200473124Y-132495591D02*
X200641482Y-132663950D01*
X200641482Y-132663950D02*
X200675154Y-132764965D01*
X200675154Y-132764965D02*
X200675154Y-132832309D01*
X200675154Y-132832309D02*
X200641482Y-132933324D01*
X200641482Y-132933324D02*
X200574139Y-133000668D01*
X200574139Y-133000668D02*
X200439452Y-133068011D01*
X200439452Y-133068011D02*
X199631330Y-133068011D01*
X199631330Y-133068011D02*
X200069063Y-133505744D01*
X132906115Y-71478371D02*
X133151841Y-70951600D01*
X132620400Y-70983499D02*
X133486426Y-70483499D01*
X133486426Y-70483499D02*
X133676902Y-70813414D01*
X133676902Y-70813414D02*
X133683282Y-70919702D01*
X133683282Y-70919702D02*
X133665852Y-70984750D01*
X133665852Y-70984750D02*
X133607183Y-71073609D01*
X133607183Y-71073609D02*
X133483465Y-71145037D01*
X133483465Y-71145037D02*
X133377177Y-71151417D01*
X133377177Y-71151417D02*
X133312128Y-71133987D01*
X133312128Y-71133987D02*
X133223270Y-71075318D01*
X133223270Y-71075318D02*
X133032793Y-70745404D01*
X133382305Y-72303157D02*
X133096591Y-71808285D01*
X133239448Y-72055721D02*
X134105473Y-71555721D01*
X134105473Y-71555721D02*
X133934136Y-71544671D01*
X133934136Y-71544671D02*
X133804039Y-71509811D01*
X133804039Y-71509811D02*
X133715180Y-71451142D01*
X133395065Y-72515733D02*
X133776017Y-73175562D01*
X134239448Y-73787772D02*
X133953734Y-73292900D01*
X134096591Y-73540336D02*
X134962616Y-73040336D01*
X134962616Y-73040336D02*
X134791279Y-73029286D01*
X134791279Y-73029286D02*
X134661182Y-72994427D01*
X134661182Y-72994427D02*
X134572323Y-72935758D01*
X134715639Y-74612558D02*
X134429924Y-74117687D01*
X134572781Y-74365122D02*
X135438807Y-73865122D01*
X135438807Y-73865122D02*
X135267470Y-73854072D01*
X135267470Y-73854072D02*
X135137372Y-73819213D01*
X135137372Y-73819213D02*
X135048514Y-73760544D01*
X125554451Y-73897663D02*
X125655467Y-73325243D01*
X125150390Y-73493602D02*
X125857497Y-72786495D01*
X125857497Y-72786495D02*
X126126871Y-73055869D01*
X126126871Y-73055869D02*
X126160543Y-73156884D01*
X126160543Y-73156884D02*
X126160543Y-73224228D01*
X126160543Y-73224228D02*
X126126871Y-73325243D01*
X126126871Y-73325243D02*
X126025856Y-73426258D01*
X126025856Y-73426258D02*
X125924841Y-73459930D01*
X125924841Y-73459930D02*
X125857497Y-73459930D01*
X125857497Y-73459930D02*
X125756482Y-73426258D01*
X125756482Y-73426258D02*
X125487108Y-73156884D01*
X126227886Y-74571098D02*
X125823825Y-74167037D01*
X126025856Y-74369067D02*
X126732963Y-73661960D01*
X126732963Y-73661960D02*
X126564604Y-73695632D01*
X126564604Y-73695632D02*
X126429917Y-73695632D01*
X126429917Y-73695632D02*
X126328902Y-73661960D01*
X126295230Y-74773128D02*
X126833978Y-75311876D01*
X128079833Y-75008831D02*
X127945146Y-74874144D01*
X127945146Y-74874144D02*
X127844131Y-74840472D01*
X127844131Y-74840472D02*
X127776787Y-74840472D01*
X127776787Y-74840472D02*
X127608428Y-74874144D01*
X127608428Y-74874144D02*
X127440070Y-74975159D01*
X127440070Y-74975159D02*
X127170696Y-75244533D01*
X127170696Y-75244533D02*
X127137024Y-75345548D01*
X127137024Y-75345548D02*
X127137024Y-75412892D01*
X127137024Y-75412892D02*
X127170696Y-75513907D01*
X127170696Y-75513907D02*
X127305383Y-75648594D01*
X127305383Y-75648594D02*
X127406398Y-75682266D01*
X127406398Y-75682266D02*
X127473741Y-75682266D01*
X127473741Y-75682266D02*
X127574757Y-75648594D01*
X127574757Y-75648594D02*
X127743115Y-75480235D01*
X127743115Y-75480235D02*
X127776787Y-75379220D01*
X127776787Y-75379220D02*
X127776787Y-75311876D01*
X127776787Y-75311876D02*
X127743115Y-75210861D01*
X127743115Y-75210861D02*
X127608428Y-75076174D01*
X127608428Y-75076174D02*
X127507413Y-75042502D01*
X127507413Y-75042502D02*
X127440070Y-75042502D01*
X127440070Y-75042502D02*
X127339054Y-75076174D01*
X149355203Y-65976666D02*
X150355203Y-65643333D01*
X150355203Y-65643333D02*
X149355203Y-65310000D01*
X150355203Y-64405238D02*
X149879012Y-64738571D01*
X150355203Y-64976666D02*
X149355203Y-64976666D01*
X149355203Y-64976666D02*
X149355203Y-64595714D01*
X149355203Y-64595714D02*
X149402822Y-64500476D01*
X149402822Y-64500476D02*
X149450441Y-64452857D01*
X149450441Y-64452857D02*
X149545679Y-64405238D01*
X149545679Y-64405238D02*
X149688536Y-64405238D01*
X149688536Y-64405238D02*
X149783774Y-64452857D01*
X149783774Y-64452857D02*
X149831393Y-64500476D01*
X149831393Y-64500476D02*
X149879012Y-64595714D01*
X149879012Y-64595714D02*
X149879012Y-64976666D01*
X150355203Y-63452857D02*
X150355203Y-64024285D01*
X150355203Y-63738571D02*
X149355203Y-63738571D01*
X149355203Y-63738571D02*
X149498060Y-63833809D01*
X149498060Y-63833809D02*
X149593298Y-63929047D01*
X149593298Y-63929047D02*
X149640917Y-64024285D01*
X122930409Y-78010642D02*
X123573196Y-77244598D01*
X123573196Y-77244598D02*
X123755588Y-77397643D01*
X123755588Y-77397643D02*
X123834414Y-77525948D01*
X123834414Y-77525948D02*
X123846152Y-77660122D01*
X123846152Y-77660122D02*
X123821413Y-77763688D01*
X123821413Y-77763688D02*
X123735456Y-77940210D01*
X123735456Y-77940210D02*
X123643629Y-78049645D01*
X123643629Y-78049645D02*
X123484715Y-78164949D01*
X123484715Y-78164949D02*
X123387018Y-78207297D01*
X123387018Y-78207297D02*
X123252844Y-78219035D01*
X123252844Y-78219035D02*
X123112800Y-78163687D01*
X123112800Y-78163687D02*
X122930409Y-78010642D01*
X123452844Y-78573342D02*
X124036497Y-79063085D01*
X124280106Y-79143173D02*
X124922894Y-78377129D01*
X124401279Y-79369174D02*
X124984932Y-79858917D01*
X125629803Y-80275703D02*
X125192064Y-79908396D01*
X125410933Y-80092050D02*
X126053721Y-79326005D01*
X126053721Y-79326005D02*
X125888938Y-79374222D01*
X125888938Y-79374222D02*
X125754763Y-79385961D01*
X125754763Y-79385961D02*
X125651198Y-79361222D01*
X157531739Y-59919866D02*
X157004900Y-60165446D01*
X157432511Y-60482613D02*
X156447703Y-60308965D01*
X156447703Y-60308965D02*
X156513855Y-59933800D01*
X156513855Y-59933800D02*
X156577288Y-59848278D01*
X156577288Y-59848278D02*
X156632453Y-59809652D01*
X156632453Y-59809652D02*
X156734513Y-59779294D01*
X156734513Y-59779294D02*
X156875200Y-59804101D01*
X156875200Y-59804101D02*
X156960722Y-59867534D01*
X156960722Y-59867534D02*
X156999349Y-59922699D01*
X156999349Y-59922699D02*
X157029707Y-60024759D01*
X157029707Y-60024759D02*
X156963555Y-60399924D01*
X156604814Y-59417949D02*
X156712310Y-58808306D01*
X156712310Y-58808306D02*
X157029592Y-59202727D01*
X157029592Y-59202727D02*
X157054399Y-59062040D01*
X157054399Y-59062040D02*
X157117833Y-58976518D01*
X157117833Y-58976518D02*
X157172997Y-58937891D01*
X157172997Y-58937891D02*
X157275057Y-58907533D01*
X157275057Y-58907533D02*
X157509535Y-58948878D01*
X157509535Y-58948878D02*
X157595058Y-59012312D01*
X157595058Y-59012312D02*
X157633684Y-59067476D01*
X157633684Y-59067476D02*
X157664042Y-59169536D01*
X157664042Y-59169536D02*
X157614428Y-59450910D01*
X157614428Y-59450910D02*
X157550995Y-59536432D01*
X157550995Y-59536432D02*
X157495830Y-59575059D01*
X110593276Y-89835902D02*
X110394548Y-89289664D01*
X110041319Y-89688005D02*
X110300138Y-88722079D01*
X110300138Y-88722079D02*
X110668110Y-88820677D01*
X110668110Y-88820677D02*
X110747778Y-88891323D01*
X110747778Y-88891323D02*
X110781450Y-88949644D01*
X110781450Y-88949644D02*
X110802797Y-89053962D01*
X110802797Y-89053962D02*
X110765823Y-89191951D01*
X110765823Y-89191951D02*
X110695177Y-89271619D01*
X110695177Y-89271619D02*
X110636855Y-89305291D01*
X110636855Y-89305291D02*
X110532538Y-89326638D01*
X110532538Y-89326638D02*
X110164566Y-89228040D01*
X111513206Y-90082396D02*
X110961248Y-89934499D01*
X111237227Y-90008448D02*
X111496046Y-89042522D01*
X111496046Y-89042522D02*
X111367079Y-89155862D01*
X111367079Y-89155862D02*
X111250437Y-89223205D01*
X111250437Y-89223205D02*
X111146119Y-89244552D01*
X145896457Y-58994899D02*
X145844869Y-58951612D01*
X145844869Y-58951612D02*
X145784980Y-58813448D01*
X145784980Y-58813448D02*
X145776680Y-58718573D01*
X145776680Y-58718573D02*
X145811667Y-58572109D01*
X145811667Y-58572109D02*
X145898242Y-58468933D01*
X145898242Y-58468933D02*
X145988967Y-58413194D01*
X145988967Y-58413194D02*
X146174568Y-58349155D01*
X146174568Y-58349155D02*
X146316882Y-58336704D01*
X146316882Y-58336704D02*
X146510783Y-58367541D01*
X146510783Y-58367541D02*
X146609809Y-58406678D01*
X146609809Y-58406678D02*
X146712986Y-58493254D01*
X146712986Y-58493254D02*
X146772874Y-58631417D01*
X146772874Y-58631417D02*
X146781175Y-58726293D01*
X146781175Y-58726293D02*
X146746188Y-58872756D01*
X146746188Y-58872756D02*
X146702900Y-58924344D01*
X146872481Y-59769925D02*
X146855880Y-59580174D01*
X146855880Y-59580174D02*
X146800141Y-59489448D01*
X146800141Y-59489448D02*
X146748553Y-59446161D01*
X146748553Y-59446161D02*
X146597939Y-59363736D01*
X146597939Y-59363736D02*
X146404038Y-59332899D01*
X146404038Y-59332899D02*
X146024535Y-59366101D01*
X146024535Y-59366101D02*
X145933809Y-59421840D01*
X145933809Y-59421840D02*
X145890522Y-59473428D01*
X145890522Y-59473428D02*
X145851385Y-59572454D01*
X145851385Y-59572454D02*
X145867986Y-59762205D01*
X145867986Y-59762205D02*
X145923724Y-59852931D01*
X145923724Y-59852931D02*
X145975312Y-59896218D01*
X145975312Y-59896218D02*
X146074338Y-59935355D01*
X146074338Y-59935355D02*
X146311527Y-59914604D01*
X146311527Y-59914604D02*
X146402253Y-59858866D01*
X146402253Y-59858866D02*
X146445540Y-59807278D01*
X146445540Y-59807278D02*
X146484678Y-59708252D01*
X146484678Y-59708252D02*
X146468076Y-59518500D01*
X146468076Y-59518500D02*
X146412338Y-59427775D01*
X146412338Y-59427775D02*
X146360750Y-59384487D01*
X146360750Y-59384487D02*
X146261724Y-59345350D01*
X118252503Y-85613647D02*
X118675121Y-84707339D01*
X118675121Y-84707339D02*
X118890909Y-84807963D01*
X118890909Y-84807963D02*
X119000257Y-84911494D01*
X119000257Y-84911494D02*
X119046322Y-85038059D01*
X119046322Y-85038059D02*
X119049230Y-85144498D01*
X119049230Y-85144498D02*
X119011889Y-85337253D01*
X119011889Y-85337253D02*
X118951515Y-85466725D01*
X118951515Y-85466725D02*
X118827859Y-85619231D01*
X118827859Y-85619231D02*
X118744452Y-85685421D01*
X118744452Y-85685421D02*
X118617888Y-85731487D01*
X118617888Y-85731487D02*
X118468290Y-85714270D01*
X118468290Y-85714270D02*
X118252503Y-85613647D01*
X118902774Y-86021957D02*
X119593294Y-86343952D01*
X119849331Y-86358260D02*
X120271949Y-85451952D01*
X120024869Y-86545198D02*
X120715389Y-86867193D01*
X121641589Y-86458419D02*
X121359844Y-87062624D01*
X121586799Y-86012535D02*
X121069141Y-86559274D01*
X121069141Y-86559274D02*
X121630189Y-86820895D01*
X181545217Y-88542784D02*
X181708084Y-88990256D01*
X181052833Y-88164570D02*
X181545217Y-88542784D01*
X181545217Y-88542784D02*
X181679295Y-87936557D01*
X181980352Y-87928331D02*
X182008812Y-87867298D01*
X182008812Y-87867298D02*
X182082020Y-87789977D01*
X182082020Y-87789977D02*
X182305757Y-87708544D01*
X182305757Y-87708544D02*
X182411538Y-87720717D01*
X182411538Y-87720717D02*
X182472572Y-87749178D01*
X182472572Y-87749178D02*
X182549892Y-87822386D01*
X182549892Y-87822386D02*
X182582466Y-87911880D01*
X182582466Y-87911880D02*
X182586578Y-88062409D01*
X182586578Y-88062409D02*
X182245051Y-88794816D01*
X182245051Y-88794816D02*
X182826766Y-88583089D01*
X176153245Y-69429660D02*
X175387200Y-68786872D01*
X175387200Y-68786872D02*
X175540245Y-68604481D01*
X175540245Y-68604481D02*
X175668550Y-68525655D01*
X175668550Y-68525655D02*
X175802725Y-68513916D01*
X175802725Y-68513916D02*
X175906290Y-68538656D01*
X175906290Y-68538656D02*
X176082812Y-68624613D01*
X176082812Y-68624613D02*
X176192247Y-68716440D01*
X176192247Y-68716440D02*
X176307552Y-68875354D01*
X176307552Y-68875354D02*
X176349899Y-68973050D01*
X176349899Y-68973050D02*
X176361638Y-69107225D01*
X176361638Y-69107225D02*
X176306290Y-69247268D01*
X176306290Y-69247268D02*
X176153245Y-69429660D01*
X176072336Y-68118524D02*
X176066466Y-68051437D01*
X176066466Y-68051437D02*
X176091206Y-67947871D01*
X176091206Y-67947871D02*
X176244251Y-67765480D01*
X176244251Y-67765480D02*
X176341947Y-67723132D01*
X176341947Y-67723132D02*
X176409034Y-67717263D01*
X176409034Y-67717263D02*
X176512600Y-67742002D01*
X176512600Y-67742002D02*
X176585556Y-67803220D01*
X176585556Y-67803220D02*
X176664382Y-67931525D01*
X176664382Y-67931525D02*
X176734815Y-68736572D01*
X176734815Y-68736572D02*
X177132731Y-68262354D01*
X180919726Y-96292319D02*
X180546159Y-95846992D01*
X180350472Y-96342122D02*
X180263316Y-95345927D01*
X180263316Y-95345927D02*
X180642819Y-95312725D01*
X180642819Y-95312725D02*
X180741845Y-95351862D01*
X180741845Y-95351862D02*
X180793433Y-95395150D01*
X180793433Y-95395150D02*
X180849172Y-95485875D01*
X180849172Y-95485875D02*
X180861622Y-95628189D01*
X180861622Y-95628189D02*
X180822485Y-95727215D01*
X180822485Y-95727215D02*
X180779198Y-95778803D01*
X180779198Y-95778803D02*
X180688472Y-95834541D01*
X180688472Y-95834541D02*
X180308969Y-95867744D01*
X181868483Y-96209313D02*
X181299229Y-96259116D01*
X181583856Y-96234215D02*
X181496700Y-95238020D01*
X181496700Y-95238020D02*
X181414275Y-95388634D01*
X181414275Y-95388634D02*
X181327700Y-95491810D01*
X181327700Y-95491810D02*
X181236975Y-95547549D01*
X182066535Y-96287588D02*
X182825541Y-96221183D01*
X182928136Y-95208388D02*
X182971424Y-95156799D01*
X182971424Y-95156799D02*
X183062149Y-95101061D01*
X183062149Y-95101061D02*
X183299339Y-95080310D01*
X183299339Y-95080310D02*
X183398365Y-95119447D01*
X183398365Y-95119447D02*
X183449953Y-95162735D01*
X183449953Y-95162735D02*
X183505691Y-95253460D01*
X183505691Y-95253460D02*
X183513992Y-95348336D01*
X183513992Y-95348336D02*
X183479005Y-95494799D01*
X183479005Y-95494799D02*
X182959554Y-96113857D01*
X182959554Y-96113857D02*
X183576246Y-96059903D01*
X130711324Y-77538677D02*
X130644237Y-77532807D01*
X130644237Y-77532807D02*
X130515932Y-77453981D01*
X130515932Y-77453981D02*
X130454714Y-77381025D01*
X130454714Y-77381025D02*
X130399365Y-77240981D01*
X130399365Y-77240981D02*
X130411104Y-77106806D01*
X130411104Y-77106806D02*
X130453452Y-77009110D01*
X130453452Y-77009110D02*
X130568756Y-76850196D01*
X130568756Y-76850196D02*
X130678191Y-76758369D01*
X130678191Y-76758369D02*
X130854713Y-76672412D01*
X130854713Y-76672412D02*
X130958279Y-76647672D01*
X130958279Y-76647672D02*
X131092453Y-76659411D01*
X131092453Y-76659411D02*
X131220758Y-76738237D01*
X131220758Y-76738237D02*
X131281976Y-76811194D01*
X131281976Y-76811194D02*
X131337324Y-76951237D01*
X131337324Y-76951237D02*
X131331455Y-77018325D01*
X131250546Y-78329461D02*
X130883239Y-77891721D01*
X131066892Y-78110591D02*
X131832937Y-77467803D01*
X131832937Y-77467803D02*
X131662284Y-77486673D01*
X131662284Y-77486673D02*
X131528110Y-77474934D01*
X131528110Y-77474934D02*
X131430413Y-77432587D01*
X131862725Y-79059027D02*
X131495417Y-78621287D01*
X131679071Y-78840157D02*
X132445115Y-78197369D01*
X132445115Y-78197369D02*
X132274463Y-78216239D01*
X132274463Y-78216239D02*
X132140288Y-78204501D01*
X132140288Y-78204501D02*
X132042592Y-78162153D01*
X181458490Y-74116094D02*
X180897053Y-73965573D01*
X181020751Y-74483401D02*
X180377963Y-73717357D01*
X180377963Y-73717357D02*
X180669789Y-73472485D01*
X180669789Y-73472485D02*
X180773355Y-73447746D01*
X180773355Y-73447746D02*
X180840442Y-73453615D01*
X180840442Y-73453615D02*
X180938138Y-73495963D01*
X180938138Y-73495963D02*
X181029965Y-73605398D01*
X181029965Y-73605398D02*
X181054705Y-73708963D01*
X181054705Y-73708963D02*
X181048835Y-73776050D01*
X181048835Y-73776050D02*
X181006488Y-73873747D01*
X181006488Y-73873747D02*
X180714661Y-74118618D01*
X182188056Y-73503915D02*
X181750317Y-73871222D01*
X181969187Y-73687569D02*
X181326399Y-72921524D01*
X181326399Y-72921524D02*
X181345269Y-73092177D01*
X181345269Y-73092177D02*
X181333530Y-73226352D01*
X181333530Y-73226352D02*
X181291183Y-73324048D01*
X182395187Y-73454436D02*
X182978840Y-72964693D01*
X182822010Y-71666558D02*
X182457227Y-71972647D01*
X182457227Y-71972647D02*
X182726838Y-72368039D01*
X182726838Y-72368039D02*
X182732707Y-72300952D01*
X182732707Y-72300952D02*
X182775055Y-72203256D01*
X182775055Y-72203256D02*
X182957446Y-72050211D01*
X182957446Y-72050211D02*
X183061012Y-72025472D01*
X183061012Y-72025472D02*
X183128099Y-72031341D01*
X183128099Y-72031341D02*
X183225795Y-72073689D01*
X183225795Y-72073689D02*
X183378840Y-72256080D01*
X183378840Y-72256080D02*
X183403579Y-72359646D01*
X183403579Y-72359646D02*
X183397710Y-72426733D01*
X183397710Y-72426733D02*
X183355362Y-72524429D01*
X183355362Y-72524429D02*
X183172971Y-72677474D01*
X183172971Y-72677474D02*
X183069405Y-72702213D01*
X183069405Y-72702213D02*
X183002318Y-72696344D01*
X188826065Y-134781903D02*
X188893408Y-134916590D01*
X188893408Y-134916590D02*
X189061767Y-135084948D01*
X189061767Y-135084948D02*
X189162782Y-135118620D01*
X189162782Y-135118620D02*
X189230126Y-135118620D01*
X189230126Y-135118620D02*
X189331141Y-135084948D01*
X189331141Y-135084948D02*
X189398485Y-135017605D01*
X189398485Y-135017605D02*
X189432156Y-134916590D01*
X189432156Y-134916590D02*
X189432156Y-134849246D01*
X189432156Y-134849246D02*
X189398485Y-134748231D01*
X189398485Y-134748231D02*
X189297469Y-134579872D01*
X189297469Y-134579872D02*
X189263798Y-134478857D01*
X189263798Y-134478857D02*
X189263798Y-134411513D01*
X189263798Y-134411513D02*
X189297469Y-134310498D01*
X189297469Y-134310498D02*
X189364813Y-134243155D01*
X189364813Y-134243155D02*
X189465828Y-134209483D01*
X189465828Y-134209483D02*
X189533172Y-134209483D01*
X189533172Y-134209483D02*
X189634187Y-134243155D01*
X189634187Y-134243155D02*
X189802546Y-134411513D01*
X189802546Y-134411513D02*
X189869889Y-134546200D01*
X190139263Y-134748231D02*
X189600515Y-135623696D01*
X189600515Y-135623696D02*
X190240278Y-135253307D01*
X190240278Y-135253307D02*
X189869889Y-135893070D01*
X189869889Y-135893070D02*
X190745355Y-135354322D01*
X190071920Y-136229788D02*
X190610668Y-136768536D01*
X190846370Y-136869551D02*
X191553477Y-136162444D01*
X191553477Y-136162444D02*
X191284103Y-136903223D01*
X191284103Y-136903223D02*
X192024881Y-136633849D01*
X192024881Y-136633849D02*
X191317775Y-137340956D01*
X191418790Y-137576658D02*
X191957538Y-138115406D01*
X192799332Y-137542986D02*
X192866675Y-137542986D01*
X192866675Y-137542986D02*
X192967690Y-137576658D01*
X192967690Y-137576658D02*
X193136049Y-137745017D01*
X193136049Y-137745017D02*
X193169721Y-137846032D01*
X193169721Y-137846032D02*
X193169721Y-137913376D01*
X193169721Y-137913376D02*
X193136049Y-138014391D01*
X193136049Y-138014391D02*
X193068706Y-138081734D01*
X193068706Y-138081734D02*
X192934019Y-138149078D01*
X192934019Y-138149078D02*
X192125897Y-138149078D01*
X192125897Y-138149078D02*
X192563629Y-138586811D01*
X192630973Y-138788841D02*
X193169721Y-139327589D01*
X193775813Y-139798994D02*
X193371752Y-139394933D01*
X193573782Y-139596963D02*
X194280889Y-138889857D01*
X194280889Y-138889857D02*
X194112530Y-138923528D01*
X194112530Y-138923528D02*
X193977843Y-138923528D01*
X193977843Y-138923528D02*
X193876828Y-138889857D01*
X102633769Y-136562129D02*
X102768456Y-136494786D01*
X102768456Y-136494786D02*
X102936814Y-136326427D01*
X102936814Y-136326427D02*
X102970486Y-136225412D01*
X102970486Y-136225412D02*
X102970486Y-136158068D01*
X102970486Y-136158068D02*
X102936814Y-136057053D01*
X102936814Y-136057053D02*
X102869471Y-135989709D01*
X102869471Y-135989709D02*
X102768456Y-135956038D01*
X102768456Y-135956038D02*
X102701112Y-135956038D01*
X102701112Y-135956038D02*
X102600097Y-135989709D01*
X102600097Y-135989709D02*
X102431738Y-136090725D01*
X102431738Y-136090725D02*
X102330723Y-136124396D01*
X102330723Y-136124396D02*
X102263379Y-136124396D01*
X102263379Y-136124396D02*
X102162364Y-136090725D01*
X102162364Y-136090725D02*
X102095021Y-136023381D01*
X102095021Y-136023381D02*
X102061349Y-135922366D01*
X102061349Y-135922366D02*
X102061349Y-135855022D01*
X102061349Y-135855022D02*
X102095021Y-135754007D01*
X102095021Y-135754007D02*
X102263379Y-135585648D01*
X102263379Y-135585648D02*
X102398066Y-135518305D01*
X102600097Y-135248931D02*
X103475562Y-135787679D01*
X103475562Y-135787679D02*
X103105173Y-135147916D01*
X103105173Y-135147916D02*
X103744936Y-135518305D01*
X103744936Y-135518305D02*
X103206188Y-134642839D01*
X104081654Y-135316274D02*
X104620402Y-134777526D01*
X104721417Y-134541824D02*
X104014310Y-133834717D01*
X104014310Y-133834717D02*
X104755089Y-134104091D01*
X104755089Y-134104091D02*
X104485715Y-133363313D01*
X104485715Y-133363313D02*
X105192822Y-134070419D01*
X105428524Y-133969404D02*
X105967272Y-133430656D01*
X106438677Y-132824565D02*
X106034616Y-133228626D01*
X106236646Y-133026595D02*
X105529539Y-132319488D01*
X105529539Y-132319488D02*
X105563211Y-132487847D01*
X105563211Y-132487847D02*
X105563211Y-132622534D01*
X105563211Y-132622534D02*
X105529539Y-132723549D01*
X106640707Y-132757221D02*
X107179455Y-132218473D01*
X106607036Y-131376679D02*
X106607036Y-131309336D01*
X106607036Y-131309336D02*
X106640707Y-131208320D01*
X106640707Y-131208320D02*
X106809066Y-131039962D01*
X106809066Y-131039962D02*
X106910081Y-131006290D01*
X106910081Y-131006290D02*
X106977425Y-131006290D01*
X106977425Y-131006290D02*
X107078440Y-131039962D01*
X107078440Y-131039962D02*
X107145784Y-131107305D01*
X107145784Y-131107305D02*
X107213127Y-131241992D01*
X107213127Y-131241992D02*
X107213127Y-132050114D01*
X107213127Y-132050114D02*
X107650860Y-131612381D01*
X162542099Y-66494026D02*
X162570559Y-66555060D01*
X162570559Y-66555060D02*
X162566447Y-66705589D01*
X162566447Y-66705589D02*
X162533873Y-66795083D01*
X162533873Y-66795083D02*
X162440266Y-66913039D01*
X162440266Y-66913039D02*
X162318198Y-66969960D01*
X162318198Y-66969960D02*
X162212417Y-66982134D01*
X162212417Y-66982134D02*
X162017141Y-66961734D01*
X162017141Y-66961734D02*
X161882899Y-66912874D01*
X161882899Y-66912874D02*
X161720197Y-66802980D01*
X161720197Y-66802980D02*
X161646989Y-66725660D01*
X161646989Y-66725660D02*
X161590068Y-66603592D01*
X161590068Y-66603592D02*
X161594181Y-66453063D01*
X161594181Y-66453063D02*
X161626754Y-66363569D01*
X161626754Y-66363569D02*
X161720361Y-66245614D01*
X161720361Y-66245614D02*
X161781395Y-66217153D01*
X162794460Y-66079127D02*
X162859607Y-65900138D01*
X162859607Y-65900138D02*
X162847433Y-65794357D01*
X162847433Y-65794357D02*
X162818972Y-65733323D01*
X162818972Y-65733323D02*
X162717304Y-65594968D01*
X162717304Y-65594968D02*
X162554601Y-65485074D01*
X162554601Y-65485074D02*
X162196623Y-65354781D01*
X162196623Y-65354781D02*
X162090842Y-65366955D01*
X162090842Y-65366955D02*
X162029808Y-65395415D01*
X162029808Y-65395415D02*
X161952488Y-65468623D01*
X161952488Y-65468623D02*
X161887341Y-65647612D01*
X161887341Y-65647612D02*
X161899515Y-65753394D01*
X161899515Y-65753394D02*
X161927975Y-65814428D01*
X161927975Y-65814428D02*
X162001183Y-65891748D01*
X162001183Y-65891748D02*
X162224920Y-65973182D01*
X162224920Y-65973182D02*
X162330701Y-65961008D01*
X162330701Y-65961008D02*
X162391735Y-65932547D01*
X162391735Y-65932547D02*
X162469055Y-65859339D01*
X162469055Y-65859339D02*
X162534202Y-65680350D01*
X162534202Y-65680350D02*
X162522028Y-65574569D01*
X162522028Y-65574569D02*
X162493568Y-65513535D01*
X162493568Y-65513535D02*
X162420360Y-65436214D01*
X122591708Y-67990599D02*
X122524621Y-67984729D01*
X122524621Y-67984729D02*
X122396316Y-67905903D01*
X122396316Y-67905903D02*
X122335098Y-67832947D01*
X122335098Y-67832947D02*
X122279749Y-67692903D01*
X122279749Y-67692903D02*
X122291488Y-67558728D01*
X122291488Y-67558728D02*
X122333836Y-67461032D01*
X122333836Y-67461032D02*
X122449140Y-67302118D01*
X122449140Y-67302118D02*
X122558575Y-67210291D01*
X122558575Y-67210291D02*
X122735097Y-67124334D01*
X122735097Y-67124334D02*
X122838663Y-67099594D01*
X122838663Y-67099594D02*
X122972837Y-67111333D01*
X122972837Y-67111333D02*
X123101142Y-67190159D01*
X123101142Y-67190159D02*
X123162360Y-67263116D01*
X123162360Y-67263116D02*
X123217708Y-67403159D01*
X123217708Y-67403159D02*
X123211839Y-67470247D01*
X123130930Y-68781383D02*
X122763623Y-68343643D01*
X122947276Y-68562513D02*
X123713321Y-67919725D01*
X123713321Y-67919725D02*
X123542668Y-67938595D01*
X123542668Y-67938595D02*
X123408494Y-67926856D01*
X123408494Y-67926856D02*
X123310797Y-67884509D01*
X124068889Y-68491639D02*
X124135977Y-68497509D01*
X124135977Y-68497509D02*
X124233673Y-68539856D01*
X124233673Y-68539856D02*
X124386717Y-68722248D01*
X124386717Y-68722248D02*
X124411457Y-68825813D01*
X124411457Y-68825813D02*
X124405588Y-68892901D01*
X124405588Y-68892901D02*
X124363240Y-68990597D01*
X124363240Y-68990597D02*
X124290283Y-69051815D01*
X124290283Y-69051815D02*
X124150239Y-69107163D01*
X124150239Y-69107163D02*
X123345193Y-69036731D01*
X123345193Y-69036731D02*
X123743109Y-69510949D01*
X127656115Y-62578371D02*
X127901841Y-62051600D01*
X127370400Y-62083499D02*
X128236426Y-61583499D01*
X128236426Y-61583499D02*
X128426902Y-61913414D01*
X128426902Y-61913414D02*
X128433282Y-62019702D01*
X128433282Y-62019702D02*
X128415852Y-62084750D01*
X128415852Y-62084750D02*
X128357183Y-62173609D01*
X128357183Y-62173609D02*
X128233465Y-62245037D01*
X128233465Y-62245037D02*
X128127177Y-62251417D01*
X128127177Y-62251417D02*
X128062128Y-62233987D01*
X128062128Y-62233987D02*
X127973270Y-62175318D01*
X127973270Y-62175318D02*
X127782793Y-61845404D01*
X128132305Y-63403157D02*
X127846591Y-62908285D01*
X127989448Y-63155721D02*
X128855473Y-62655721D01*
X128855473Y-62655721D02*
X128684136Y-62644671D01*
X128684136Y-62644671D02*
X128554039Y-62609811D01*
X128554039Y-62609811D02*
X128465180Y-62551142D01*
X128145065Y-63615733D02*
X128526017Y-64275562D01*
X128989448Y-64887772D02*
X128703734Y-64392900D01*
X128846591Y-64640336D02*
X129712616Y-64140336D01*
X129712616Y-64140336D02*
X129541279Y-64129286D01*
X129541279Y-64129286D02*
X129411182Y-64094427D01*
X129411182Y-64094427D02*
X129322323Y-64035758D01*
X130164997Y-64923883D02*
X130212616Y-65006362D01*
X130212616Y-65006362D02*
X130218996Y-65112650D01*
X130218996Y-65112650D02*
X130201566Y-65177699D01*
X130201566Y-65177699D02*
X130142897Y-65266557D01*
X130142897Y-65266557D02*
X130001749Y-65403034D01*
X130001749Y-65403034D02*
X129795553Y-65522082D01*
X129795553Y-65522082D02*
X129606786Y-65576081D01*
X129606786Y-65576081D02*
X129500498Y-65582461D01*
X129500498Y-65582461D02*
X129435449Y-65565031D01*
X129435449Y-65565031D02*
X129346591Y-65506362D01*
X129346591Y-65506362D02*
X129298972Y-65423883D01*
X129298972Y-65423883D02*
X129292592Y-65317595D01*
X129292592Y-65317595D02*
X129310022Y-65252546D01*
X129310022Y-65252546D02*
X129368691Y-65163688D01*
X129368691Y-65163688D02*
X129509839Y-65027210D01*
X129509839Y-65027210D02*
X129716035Y-64908163D01*
X129716035Y-64908163D02*
X129904802Y-64854164D01*
X129904802Y-64854164D02*
X130011090Y-64847784D01*
X130011090Y-64847784D02*
X130076139Y-64865214D01*
X130076139Y-64865214D02*
X130164997Y-64923883D01*
X170896031Y-70746989D02*
X170907725Y-70813309D01*
X170907725Y-70813309D02*
X170864793Y-70957644D01*
X170864793Y-70957644D02*
X170810167Y-71035658D01*
X170810167Y-71035658D02*
X170689220Y-71125367D01*
X170689220Y-71125367D02*
X170556579Y-71148755D01*
X170556579Y-71148755D02*
X170451251Y-71133136D01*
X170451251Y-71133136D02*
X170267909Y-71062891D01*
X170267909Y-71062891D02*
X170150888Y-70980951D01*
X170150888Y-70980951D02*
X170022172Y-70832691D01*
X170022172Y-70832691D02*
X169971471Y-70739058D01*
X169971471Y-70739058D02*
X169948082Y-70606417D01*
X169948082Y-70606417D02*
X169991015Y-70462082D01*
X169991015Y-70462082D02*
X170045641Y-70384067D01*
X170045641Y-70384067D02*
X170166588Y-70294359D01*
X170166588Y-70294359D02*
X170232908Y-70282665D01*
X170919581Y-69717100D02*
X171465683Y-70099485D01*
X170470957Y-69693631D02*
X170919500Y-70298365D01*
X170919500Y-70298365D02*
X171274571Y-69791271D01*
X156218968Y-67393112D02*
X155692129Y-67638692D01*
X156119740Y-67955859D02*
X155134932Y-67782211D01*
X155134932Y-67782211D02*
X155201084Y-67407046D01*
X155201084Y-67407046D02*
X155264517Y-67321524D01*
X155264517Y-67321524D02*
X155319682Y-67282898D01*
X155319682Y-67282898D02*
X155421742Y-67252540D01*
X155421742Y-67252540D02*
X155562429Y-67277347D01*
X155562429Y-67277347D02*
X155647951Y-67340780D01*
X155647951Y-67340780D02*
X155686578Y-67395945D01*
X155686578Y-67395945D02*
X155716936Y-67498005D01*
X155716936Y-67498005D02*
X155650784Y-67873170D01*
X155394103Y-66860837D02*
X155355476Y-66805672D01*
X155355476Y-66805672D02*
X155325118Y-66703612D01*
X155325118Y-66703612D02*
X155366463Y-66469134D01*
X155366463Y-66469134D02*
X155429897Y-66383612D01*
X155429897Y-66383612D02*
X155485061Y-66344985D01*
X155485061Y-66344985D02*
X155587121Y-66314628D01*
X155587121Y-66314628D02*
X155680913Y-66331166D01*
X155680913Y-66331166D02*
X155813331Y-66402868D01*
X155813331Y-66402868D02*
X156276850Y-67064843D01*
X156276850Y-67064843D02*
X156384347Y-66455200D01*
X108036418Y-92985753D02*
X107790838Y-92458914D01*
X107473670Y-92886526D02*
X107647319Y-91901718D01*
X107647319Y-91901718D02*
X108022484Y-91967870D01*
X108022484Y-91967870D02*
X108108006Y-92031303D01*
X108108006Y-92031303D02*
X108146632Y-92086468D01*
X108146632Y-92086468D02*
X108176990Y-92188528D01*
X108176990Y-92188528D02*
X108152183Y-92329215D01*
X108152183Y-92329215D02*
X108088750Y-92414737D01*
X108088750Y-92414737D02*
X108033585Y-92453364D01*
X108033585Y-92453364D02*
X107931525Y-92483721D01*
X107931525Y-92483721D02*
X107556360Y-92417570D01*
X108568693Y-92160888D02*
X108623857Y-92122262D01*
X108623857Y-92122262D02*
X108725918Y-92091904D01*
X108725918Y-92091904D02*
X108960396Y-92133249D01*
X108960396Y-92133249D02*
X109045918Y-92196682D01*
X109045918Y-92196682D02*
X109084545Y-92251847D01*
X109084545Y-92251847D02*
X109114902Y-92353907D01*
X109114902Y-92353907D02*
X109098364Y-92447698D01*
X109098364Y-92447698D02*
X109026662Y-92580116D01*
X109026662Y-92580116D02*
X108364687Y-93043636D01*
X108364687Y-93043636D02*
X108974330Y-93151132D01*
X109145374Y-93278000D02*
X109895704Y-93410303D01*
X110662572Y-93448815D02*
X110099825Y-93349588D01*
X110381198Y-93399201D02*
X110554847Y-92414394D01*
X110554847Y-92414394D02*
X110436248Y-92538542D01*
X110436248Y-92538542D02*
X110325919Y-92615796D01*
X110325919Y-92615796D02*
X110223859Y-92646153D01*
X103171428Y-100454819D02*
X103361904Y-100454819D01*
X103361904Y-100454819D02*
X103457142Y-100502438D01*
X103457142Y-100502438D02*
X103552380Y-100597676D01*
X103552380Y-100597676D02*
X103599999Y-100788152D01*
X103599999Y-100788152D02*
X103599999Y-101121485D01*
X103599999Y-101121485D02*
X103552380Y-101311961D01*
X103552380Y-101311961D02*
X103457142Y-101407200D01*
X103457142Y-101407200D02*
X103361904Y-101454819D01*
X103361904Y-101454819D02*
X103171428Y-101454819D01*
X103171428Y-101454819D02*
X103076190Y-101407200D01*
X103076190Y-101407200D02*
X102980952Y-101311961D01*
X102980952Y-101311961D02*
X102933333Y-101121485D01*
X102933333Y-101121485D02*
X102933333Y-100788152D01*
X102933333Y-100788152D02*
X102980952Y-100597676D01*
X102980952Y-100597676D02*
X103076190Y-100502438D01*
X103076190Y-100502438D02*
X103171428Y-100454819D01*
X104504761Y-101454819D02*
X104028571Y-101454819D01*
X104028571Y-101454819D02*
X104028571Y-100454819D01*
X104838095Y-100931009D02*
X105171428Y-100931009D01*
X105314285Y-101454819D02*
X104838095Y-101454819D01*
X104838095Y-101454819D02*
X104838095Y-100454819D01*
X104838095Y-100454819D02*
X105314285Y-100454819D01*
X105742857Y-101454819D02*
X105742857Y-100454819D01*
X105742857Y-100454819D02*
X105980952Y-100454819D01*
X105980952Y-100454819D02*
X106123809Y-100502438D01*
X106123809Y-100502438D02*
X106219047Y-100597676D01*
X106219047Y-100597676D02*
X106266666Y-100692914D01*
X106266666Y-100692914D02*
X106314285Y-100883390D01*
X106314285Y-100883390D02*
X106314285Y-101026247D01*
X106314285Y-101026247D02*
X106266666Y-101216723D01*
X106266666Y-101216723D02*
X106219047Y-101311961D01*
X106219047Y-101311961D02*
X106123809Y-101407200D01*
X106123809Y-101407200D02*
X105980952Y-101454819D01*
X105980952Y-101454819D02*
X105742857Y-101454819D01*
X107266666Y-101454819D02*
X106695238Y-101454819D01*
X106980952Y-101454819D02*
X106980952Y-100454819D01*
X106980952Y-100454819D02*
X106885714Y-100597676D01*
X106885714Y-100597676D02*
X106790476Y-100692914D01*
X106790476Y-100692914D02*
X106695238Y-100740533D01*
X125040201Y-65172218D02*
X125239081Y-64626035D01*
X124712443Y-64704131D02*
X125531595Y-64130554D01*
X125531595Y-64130554D02*
X125750100Y-64442612D01*
X125750100Y-64442612D02*
X125765719Y-64547940D01*
X125765719Y-64547940D02*
X125754025Y-64614260D01*
X125754025Y-64614260D02*
X125703324Y-64707894D01*
X125703324Y-64707894D02*
X125586302Y-64789833D01*
X125586302Y-64789833D02*
X125480974Y-64805452D01*
X125480974Y-64805452D02*
X125414654Y-64793758D01*
X125414654Y-64793758D02*
X125321020Y-64743057D01*
X125321020Y-64743057D02*
X125102515Y-64430999D01*
X125586464Y-65952362D02*
X125258706Y-65484276D01*
X125422585Y-65718319D02*
X126241737Y-65144743D01*
X126241737Y-65144743D02*
X126070089Y-65148668D01*
X126070089Y-65148668D02*
X125937448Y-65125279D01*
X125937448Y-65125279D02*
X125843815Y-65074578D01*
X125617702Y-66163018D02*
X126054713Y-66787134D01*
X127033819Y-66275953D02*
X127416203Y-66822054D01*
X127416203Y-66822054D02*
X126351233Y-67044565D01*
X122782246Y-71203140D02*
X122883262Y-70630720D01*
X122378185Y-70799079D02*
X123085292Y-70091972D01*
X123085292Y-70091972D02*
X123354666Y-70361346D01*
X123354666Y-70361346D02*
X123388338Y-70462361D01*
X123388338Y-70462361D02*
X123388338Y-70529705D01*
X123388338Y-70529705D02*
X123354666Y-70630720D01*
X123354666Y-70630720D02*
X123253651Y-70731735D01*
X123253651Y-70731735D02*
X123152636Y-70765407D01*
X123152636Y-70765407D02*
X123085292Y-70765407D01*
X123085292Y-70765407D02*
X122984277Y-70731735D01*
X122984277Y-70731735D02*
X122714903Y-70462361D01*
X123455681Y-71876575D02*
X123051620Y-71472514D01*
X123253651Y-71674544D02*
X123960758Y-70967437D01*
X123960758Y-70967437D02*
X123792399Y-71001109D01*
X123792399Y-71001109D02*
X123657712Y-71001109D01*
X123657712Y-71001109D02*
X123556697Y-70967437D01*
X123523025Y-72078605D02*
X124061773Y-72617353D01*
X124802552Y-72415323D02*
X124768880Y-72314308D01*
X124768880Y-72314308D02*
X124768880Y-72246964D01*
X124768880Y-72246964D02*
X124802552Y-72145949D01*
X124802552Y-72145949D02*
X124836223Y-72112277D01*
X124836223Y-72112277D02*
X124937239Y-72078605D01*
X124937239Y-72078605D02*
X125004582Y-72078605D01*
X125004582Y-72078605D02*
X125105598Y-72112277D01*
X125105598Y-72112277D02*
X125240285Y-72246964D01*
X125240285Y-72246964D02*
X125273956Y-72347979D01*
X125273956Y-72347979D02*
X125273956Y-72415323D01*
X125273956Y-72415323D02*
X125240285Y-72516338D01*
X125240285Y-72516338D02*
X125206613Y-72550010D01*
X125206613Y-72550010D02*
X125105598Y-72583682D01*
X125105598Y-72583682D02*
X125038254Y-72583682D01*
X125038254Y-72583682D02*
X124937239Y-72550010D01*
X124937239Y-72550010D02*
X124802552Y-72415323D01*
X124802552Y-72415323D02*
X124701536Y-72381651D01*
X124701536Y-72381651D02*
X124634193Y-72381651D01*
X124634193Y-72381651D02*
X124533178Y-72415323D01*
X124533178Y-72415323D02*
X124398491Y-72550010D01*
X124398491Y-72550010D02*
X124364819Y-72651025D01*
X124364819Y-72651025D02*
X124364819Y-72718369D01*
X124364819Y-72718369D02*
X124398491Y-72819384D01*
X124398491Y-72819384D02*
X124533178Y-72954071D01*
X124533178Y-72954071D02*
X124634193Y-72987743D01*
X124634193Y-72987743D02*
X124701536Y-72987743D01*
X124701536Y-72987743D02*
X124802552Y-72954071D01*
X124802552Y-72954071D02*
X124937239Y-72819384D01*
X124937239Y-72819384D02*
X124970910Y-72718369D01*
X124970910Y-72718369D02*
X124970910Y-72651025D01*
X124970910Y-72651025D02*
X124937239Y-72550010D01*
X117162766Y-94670126D02*
X116917186Y-94143287D01*
X116600018Y-94570899D02*
X116773667Y-93586091D01*
X116773667Y-93586091D02*
X117148832Y-93652243D01*
X117148832Y-93652243D02*
X117234354Y-93715676D01*
X117234354Y-93715676D02*
X117272980Y-93770841D01*
X117272980Y-93770841D02*
X117303338Y-93872901D01*
X117303338Y-93872901D02*
X117278531Y-94013588D01*
X117278531Y-94013588D02*
X117215098Y-94099110D01*
X117215098Y-94099110D02*
X117159933Y-94137737D01*
X117159933Y-94137737D02*
X117057873Y-94168094D01*
X117057873Y-94168094D02*
X116682708Y-94101943D01*
X117695041Y-93845261D02*
X117750205Y-93806635D01*
X117750205Y-93806635D02*
X117852266Y-93776277D01*
X117852266Y-93776277D02*
X118086744Y-93817622D01*
X118086744Y-93817622D02*
X118172266Y-93881055D01*
X118172266Y-93881055D02*
X118210893Y-93936220D01*
X118210893Y-93936220D02*
X118241250Y-94038280D01*
X118241250Y-94038280D02*
X118224712Y-94132071D01*
X118224712Y-94132071D02*
X118153010Y-94264489D01*
X118153010Y-94264489D02*
X117491035Y-94728009D01*
X117491035Y-94728009D02*
X118100678Y-94835505D01*
X118271722Y-94962373D02*
X119022052Y-95094676D01*
X119383283Y-94142944D02*
X119438448Y-94104317D01*
X119438448Y-94104317D02*
X119540508Y-94073960D01*
X119540508Y-94073960D02*
X119774986Y-94115304D01*
X119774986Y-94115304D02*
X119860508Y-94178738D01*
X119860508Y-94178738D02*
X119899135Y-94233903D01*
X119899135Y-94233903D02*
X119929492Y-94335963D01*
X119929492Y-94335963D02*
X119912954Y-94429754D01*
X119912954Y-94429754D02*
X119841252Y-94562172D01*
X119841252Y-94562172D02*
X119179277Y-95025692D01*
X119179277Y-95025692D02*
X119788920Y-95133188D01*
X183932079Y-91290464D02*
X183898407Y-91348786D01*
X183898407Y-91348786D02*
X183772742Y-91431756D01*
X183772742Y-91431756D02*
X183680749Y-91456406D01*
X183680749Y-91456406D02*
X183530435Y-91447383D01*
X183530435Y-91447383D02*
X183413793Y-91380040D01*
X183413793Y-91380040D02*
X183343147Y-91300372D01*
X183343147Y-91300372D02*
X183247852Y-91128710D01*
X183247852Y-91128710D02*
X183210877Y-90990721D01*
X183210877Y-90990721D02*
X183207575Y-90794410D01*
X183207575Y-90794410D02*
X183228922Y-90690093D01*
X183228922Y-90690093D02*
X183296266Y-90573450D01*
X183296266Y-90573450D02*
X183421930Y-90490480D01*
X183421930Y-90490480D02*
X183513923Y-90465830D01*
X183513923Y-90465830D02*
X183664237Y-90474853D01*
X183664237Y-90474853D02*
X183722559Y-90508524D01*
X184090530Y-90409927D02*
X184124202Y-90351606D01*
X184124202Y-90351606D02*
X184203870Y-90280960D01*
X184203870Y-90280960D02*
X184433853Y-90219336D01*
X184433853Y-90219336D02*
X184538170Y-90240683D01*
X184538170Y-90240683D02*
X184596491Y-90274355D01*
X184596491Y-90274355D02*
X184667137Y-90354023D01*
X184667137Y-90354023D02*
X184691787Y-90446016D01*
X184691787Y-90446016D02*
X184682764Y-90596330D01*
X184682764Y-90596330D02*
X184278703Y-91296184D01*
X184278703Y-91296184D02*
X184876658Y-91135963D01*
X181566666Y-66031009D02*
X181233333Y-66031009D01*
X181233333Y-66554819D02*
X181233333Y-65554819D01*
X181233333Y-65554819D02*
X181709523Y-65554819D01*
X182614285Y-66554819D02*
X182042857Y-66554819D01*
X182328571Y-66554819D02*
X182328571Y-65554819D01*
X182328571Y-65554819D02*
X182233333Y-65697676D01*
X182233333Y-65697676D02*
X182138095Y-65792914D01*
X182138095Y-65792914D02*
X182042857Y-65840533D01*
D12*
X118993818Y-83246022D02*
X115521057Y-81241026D01*
X118993818Y-83246022D02*
X119993822Y-81513976D01*
X119993822Y-81513976D02*
X116521058Y-79508976D01*
X142445348Y-61251564D02*
X143833928Y-61006720D01*
X142858058Y-63534582D02*
X144236790Y-63291474D01*
X142089651Y-61365054D02*
X141795993Y-61081743D01*
X142268701Y-60998393D01*
X142089651Y-61365054D01*
G36*
X142089651Y-61365054D02*
G01*
X141795993Y-61081743D01*
X142268701Y-60998393D01*
X142089651Y-61365054D01*
G37*
X174174122Y-74361665D02*
X175588335Y-75775879D01*
X174174122Y-74361665D02*
X177009619Y-71526165D01*
X175588335Y-75775879D02*
X178423833Y-72940382D01*
X115385593Y-91243289D02*
X115843940Y-91366103D01*
X115656060Y-90233897D02*
X116114407Y-90356711D01*
X187625614Y-92826638D02*
X188092922Y-92744239D01*
X187807078Y-93855761D02*
X188274386Y-93773362D01*
X132666284Y-64498741D02*
X133944179Y-63902850D01*
X133655821Y-66597150D02*
X134924653Y-66005484D01*
X132352082Y-64700425D02*
X131995104Y-64502772D01*
X132430131Y-64299917D01*
X132352082Y-64700425D01*
G36*
X132352082Y-64700425D02*
G01*
X131995104Y-64502772D01*
X132430131Y-64299917D01*
X132352082Y-64700425D01*
G37*
X183244216Y-80228876D02*
X182833273Y-80466129D01*
X183766727Y-81133871D02*
X183355784Y-81371124D01*
X146454192Y-64834494D02*
X146429688Y-64554404D01*
X147470312Y-64745596D02*
X147445808Y-64465506D01*
D10*
X102737437Y-141383884D02*
X106909367Y-145555814D01*
X106909367Y-145555814D02*
X115960333Y-136504848D01*
X111788403Y-132332918D02*
X102737437Y-141383884D01*
X115960333Y-136504848D02*
X111788403Y-132332918D01*
D12*
X139070015Y-62049925D02*
X140431968Y-61684990D01*
X139680132Y-64288286D02*
X141032428Y-63925938D01*
X138725561Y-62193984D02*
X138408329Y-61937345D01*
X138871973Y-61813113D01*
X138725561Y-62193984D01*
G36*
X138725561Y-62193984D02*
G01*
X138408329Y-61937345D01*
X138871973Y-61813113D01*
X138725561Y-62193984D01*
G37*
X190550000Y-62270000D02*
X190550000Y-98070000D01*
X190550000Y-98070000D02*
X200830000Y-98070000D01*
X193040000Y-62330000D02*
X193040000Y-98010000D01*
X193040000Y-98010000D02*
X198340000Y-98010000D01*
X194690000Y-62330000D02*
X193040000Y-62330000D01*
X198340000Y-62330000D02*
X196690000Y-62330000D01*
X198340000Y-98010000D02*
X198340000Y-62330000D01*
X200830000Y-62270000D02*
X190550000Y-62270000D01*
X200830000Y-98070000D02*
X200830000Y-62270000D01*
X196690000Y-62330000D02*
G75*
G02*
X194690000Y-62330000I-1000000J0D01*
G01*
X135809941Y-63115798D02*
X137134907Y-62633550D01*
X136612825Y-65292466D02*
X137928394Y-64813637D01*
X135479356Y-63289330D02*
X135140963Y-63061316D01*
X135592015Y-62897149D01*
X135479356Y-63289330D01*
G36*
X135479356Y-63289330D02*
G01*
X135140963Y-63061316D01*
X135592015Y-62897149D01*
X135479356Y-63289330D01*
G37*
X116525653Y-88896858D02*
X112757486Y-87525360D01*
X116525653Y-88896858D02*
X117209696Y-87017475D01*
X117209696Y-87017475D02*
X113441528Y-85645975D01*
X120559622Y-80622790D02*
X117274822Y-78322750D01*
X120559622Y-80622790D02*
X121706777Y-78984489D01*
X121706777Y-78984489D02*
X118421976Y-76684448D01*
X159493761Y-62532213D02*
X159420992Y-62803792D01*
X160479008Y-62796208D02*
X160406239Y-63067787D01*
X180644216Y-81728876D02*
X180233273Y-81966129D01*
X181166727Y-82633871D02*
X180755784Y-82871124D01*
X152600167Y-64368113D02*
X152558805Y-64840820D01*
X153641195Y-64459180D02*
X153599833Y-64931887D01*
X178754667Y-85984695D02*
X179009485Y-85865871D01*
X179185737Y-86909129D02*
X179440555Y-86790305D01*
X129358075Y-71444039D02*
X129085900Y-71055342D01*
X130214100Y-70844658D02*
X129941925Y-70455961D01*
X165728370Y-65011874D02*
X165847194Y-64757055D01*
X166652806Y-65442945D02*
X166771630Y-65188126D01*
X168382845Y-66708752D02*
X168644096Y-66256251D01*
X169655904Y-67443749D02*
X169917155Y-66991248D01*
X103600000Y-112500000D02*
X103600000Y-108400000D01*
X103600000Y-120600000D02*
X103600000Y-116500000D01*
X106000000Y-120600000D02*
X103600000Y-120600000D01*
X109500000Y-114000000D02*
X109500000Y-115000000D01*
X110000000Y-114500000D02*
X109000000Y-114500000D01*
X110800000Y-120600000D02*
X108200000Y-120600000D01*
X113300000Y-107000000D02*
X113600000Y-106700000D01*
X113600000Y-106700000D02*
X113600000Y-107300000D01*
X113600000Y-107300000D02*
X113300000Y-107000000D01*
X115400000Y-108400000D02*
X103600000Y-108400000D01*
X115400000Y-112500000D02*
X115400000Y-108400000D01*
X115400000Y-116500000D02*
X115400000Y-120600000D01*
X115400000Y-120600000D02*
X113000000Y-120600000D01*
X112500000Y-114500000D02*
G75*
G02*
X106500000Y-114500000I-3000000J0D01*
G01*
X106500000Y-114500000D02*
G75*
G02*
X112500000Y-114500000I3000000J0D01*
G01*
X181069341Y-77608161D02*
X181458043Y-77335990D01*
X181668731Y-78464174D02*
X182057433Y-78192003D01*
X152875987Y-61376712D02*
X152834626Y-61849419D01*
X153917016Y-61467779D02*
X153875655Y-61940486D01*
X178605954Y-79358079D02*
X178994656Y-79085908D01*
X179205344Y-80214092D02*
X179594046Y-79941921D01*
D10*
X190156140Y-130034820D02*
X199207106Y-139085786D01*
X194328070Y-125862890D02*
X190156140Y-130034820D01*
X199207106Y-139085786D02*
X203379036Y-134913856D01*
X203379036Y-134913856D02*
X194328070Y-125862890D01*
D12*
X131728870Y-69305778D02*
X131966130Y-69716720D01*
X132633870Y-68783280D02*
X132871130Y-69194222D01*
X124412768Y-75101696D02*
X124748303Y-75437229D01*
X125151697Y-74362771D02*
X125487232Y-74698304D01*
X149106780Y-60055676D02*
X150926780Y-60055676D01*
X149106780Y-60105676D02*
X149106780Y-60055676D01*
X149106780Y-63175676D02*
X149106780Y-63125676D01*
X150926780Y-60055676D02*
X150926780Y-60105676D01*
X150926780Y-61225676D02*
X150926780Y-62005676D01*
X150926780Y-63125676D02*
X150926780Y-63175676D01*
X150926780Y-63175676D02*
X149106780Y-63175676D01*
X148566781Y-60105676D02*
X148326780Y-59775676D01*
X148806780Y-59775676D01*
X148566781Y-60105676D01*
G36*
X148566781Y-60105676D02*
G01*
X148326780Y-59775676D01*
X148806780Y-59775676D01*
X148566781Y-60105676D01*
G37*
X122365077Y-78133020D02*
X119293237Y-75555444D01*
X122365077Y-78133020D02*
X123650654Y-76600936D01*
X123650654Y-76600936D02*
X120578815Y-74023357D01*
X156226638Y-61775625D02*
X156144232Y-62242925D01*
X157255768Y-61957075D02*
X157173362Y-62424375D01*
X112485592Y-90493288D02*
X112943940Y-90616103D01*
X112756060Y-89483897D02*
X113214408Y-89606712D01*
X146128710Y-61576777D02*
X146153216Y-61856866D01*
X147144830Y-61487878D02*
X147169336Y-61767967D01*
X117616267Y-86003685D02*
X113981973Y-84308988D01*
X117616267Y-86003685D02*
X118461506Y-84191072D01*
X118461506Y-84191072D02*
X114827211Y-82496373D01*
X182279378Y-86497687D02*
X183449087Y-89711437D01*
X183449087Y-89711437D02*
X187320622Y-88302313D01*
X171916980Y-72315077D02*
X173449065Y-73600653D01*
X171916980Y-72315077D02*
X174494555Y-69243236D01*
X173449065Y-73600653D02*
X176026644Y-70528816D01*
X181879080Y-93926706D02*
X181411774Y-94009100D01*
X182060552Y-94955834D02*
X181593246Y-95038228D01*
X129118953Y-75920132D02*
X129299680Y-76135513D01*
X129900320Y-75264487D02*
X130081047Y-75479868D01*
X178932391Y-75052249D02*
X179295893Y-74747236D01*
X179604107Y-75852764D02*
X179967609Y-75547751D01*
D10*
X183862890Y-136328070D02*
X192913856Y-145379036D01*
X188034820Y-132156140D02*
X183862890Y-136328070D01*
X192913856Y-145379036D02*
X197085786Y-141207106D01*
X197085786Y-141207106D02*
X188034820Y-132156140D01*
X96444188Y-135090633D02*
X100616118Y-139262563D01*
X100616118Y-139262563D02*
X109667084Y-130211597D01*
X105495154Y-126039667D02*
X96444188Y-135090633D01*
X109667084Y-130211597D02*
X105495154Y-126039667D01*
D12*
X162741034Y-63526825D02*
X162644873Y-63791028D01*
X163699523Y-63875686D02*
X163603362Y-64139889D01*
X124904889Y-71222579D02*
X124569027Y-70822317D01*
X126030973Y-70277683D02*
X125695111Y-69877421D01*
X130128870Y-66705778D02*
X130366130Y-67116720D01*
X131033870Y-66183280D02*
X131271130Y-66594222D01*
X171727189Y-68001254D02*
X171565922Y-68231568D01*
X172562726Y-68586304D02*
X172401459Y-68816618D01*
X155676638Y-64725625D02*
X155594232Y-65192925D01*
X156705768Y-64907075D02*
X156623362Y-65374375D01*
X111725615Y-93773362D02*
X112192922Y-93855762D01*
X111907078Y-92744238D02*
X112374385Y-92826638D01*
X99850000Y-96770001D02*
X99850000Y-99430001D01*
X107530000Y-96770001D02*
X99850000Y-96770001D01*
X107530000Y-96770001D02*
X107530000Y-99430001D01*
X107530000Y-99430001D02*
X99850000Y-99430001D01*
X108800000Y-96770001D02*
X110130000Y-96770001D01*
X110130000Y-96770001D02*
X110130000Y-98100001D01*
X127658078Y-68994049D02*
X127385911Y-68605346D01*
X128514089Y-68394654D02*
X128241922Y-68005951D01*
X122279401Y-72818336D02*
X122614936Y-73153869D01*
X123018330Y-72079411D02*
X123353865Y-72414944D01*
X114725615Y-94323362D02*
X115192922Y-94405761D01*
X114907078Y-93294239D02*
X115374385Y-93376638D01*
X180983620Y-91144348D02*
X181255199Y-91071577D01*
X181247615Y-92129591D02*
X181519194Y-92056820D01*
X181090000Y-63241421D02*
X181089998Y-63758578D01*
X182510002Y-63241422D02*
X182510000Y-63758579D01*
%LPC*%
D13*
X118878943Y-82024998D03*
X116021057Y-80375002D03*
D14*
X142297554Y-61795491D03*
X142410426Y-62435617D03*
X142523297Y-63075742D03*
X144394432Y-62745811D03*
X144281560Y-62105685D03*
X144168689Y-61465560D03*
D15*
X99000000Y-104000000D03*
D16*
X175383273Y-74566725D03*
X177716727Y-72233275D03*
D17*
X115380001Y-55954999D03*
D18*
X124190002Y-58495000D03*
D19*
X116610001Y-58495000D03*
X117880002Y-55954997D03*
X119150004Y-58494998D03*
X120420003Y-55955000D03*
X121690000Y-58494999D03*
X122960002Y-55955005D03*
D20*
X114953111Y-90586475D03*
X116546889Y-91013525D03*
D21*
X187137533Y-93443259D03*
X188762467Y-93156741D03*
D15*
X177500000Y-119500000D03*
D22*
X132664306Y-65062387D03*
X132939009Y-65651488D03*
X133213709Y-66240587D03*
X134935694Y-65437613D03*
X134660991Y-64848512D03*
X134386291Y-64259413D03*
D23*
X184014470Y-80387502D03*
X182585530Y-81212498D03*
D24*
X147017548Y-65422051D03*
X146882452Y-63877949D03*
D25*
X105763854Y-142543540D03*
X112933916Y-135345192D03*
X109348885Y-138944366D03*
D15*
X138000000Y-100000000D03*
X162000000Y-100000000D03*
D26*
X138970188Y-62604664D03*
X139138422Y-63232516D03*
X139306653Y-63860368D03*
X141141912Y-63368612D03*
X140973678Y-62740760D03*
X140805447Y-62112908D03*
D15*
X192000000Y-57000000D03*
D27*
X191880000Y-63660000D03*
D28*
X191880000Y-66200000D03*
X191880000Y-68740000D03*
X191880000Y-71280000D03*
X191880000Y-73820000D03*
X191880000Y-76360000D03*
X191880000Y-78900000D03*
X191880000Y-81440000D03*
X191880000Y-83980000D03*
X191880000Y-86520000D03*
X191880000Y-89060000D03*
X191880000Y-91600000D03*
X191880000Y-94140000D03*
X191880000Y-96680000D03*
X199500000Y-96680000D03*
X199500000Y-94140000D03*
X199500000Y-91600000D03*
X199500000Y-89060000D03*
X199500000Y-86520000D03*
X199500000Y-83980000D03*
X199500000Y-81440000D03*
X199500000Y-78900000D03*
X199500000Y-76360000D03*
X199500000Y-73820000D03*
X199500000Y-71280000D03*
X199500000Y-68740000D03*
X199500000Y-66200000D03*
X199500000Y-63660000D03*
D29*
X135758845Y-63677127D03*
X135981159Y-64287927D03*
X136203471Y-64898727D03*
X137988887Y-64248889D03*
X137766573Y-63638089D03*
X137544261Y-63027289D03*
D30*
X116200492Y-87714334D03*
X113099508Y-86585666D03*
D15*
X122500000Y-119500000D03*
D31*
X120551600Y-79396401D03*
X117848400Y-77503599D03*
D32*
X160150587Y-62051408D03*
X159749413Y-63548592D03*
D23*
X181414470Y-81887502D03*
X179985530Y-82712498D03*
D15*
X150000000Y-133500000D03*
D33*
X153171905Y-63828137D03*
X153028095Y-65471863D03*
D34*
X178395222Y-86715029D03*
X179800000Y-86059971D03*
D35*
X142600000Y-113925000D03*
X148600000Y-113925000D03*
X142600000Y-117675000D03*
X148600000Y-117675000D03*
D36*
X130123201Y-71625799D03*
X129176799Y-70274201D03*
D37*
X165922472Y-65802389D03*
X166577528Y-64397611D03*
D38*
X182520000Y-57907500D03*
X176740000Y-57907500D03*
D39*
X182980000Y-58982500D03*
X182180000Y-58982500D03*
X180880000Y-58982500D03*
X179880000Y-58982500D03*
X179380000Y-58982500D03*
X178380000Y-58982500D03*
X177080000Y-58982500D03*
X176280000Y-58982500D03*
X176580000Y-58982500D03*
X177380000Y-58982500D03*
X177880000Y-58982500D03*
X178880000Y-58982500D03*
X180380000Y-58982500D03*
X181380000Y-58982500D03*
X181880000Y-58982500D03*
X182680000Y-58982500D03*
D40*
X183950000Y-58407500D03*
D41*
X183950000Y-54227500D03*
D40*
X175310000Y-58407500D03*
D41*
X175310000Y-54227500D03*
D42*
X168675002Y-67672724D03*
X169624998Y-66027276D03*
D15*
X201000000Y-104000000D03*
D43*
X112000000Y-107000000D03*
D25*
X107000000Y-107000000D03*
X109500000Y-107000000D03*
D44*
X115100000Y-114500000D03*
X103900000Y-114500000D03*
D25*
X107000000Y-121500000D03*
X112000000Y-121500000D03*
D45*
X180887586Y-78373283D03*
X182239188Y-77426881D03*
D46*
X121160000Y-103050000D03*
D47*
X126700000Y-94180000D03*
D48*
X129900000Y-112075000D03*
D47*
X139750000Y-71800000D03*
D48*
X149575000Y-76550000D03*
D47*
X160270000Y-71830000D03*
D48*
X170500000Y-111400000D03*
D47*
X173560000Y-95410000D03*
D46*
X178840000Y-103025000D03*
D17*
X147500000Y-130000000D03*
X152500000Y-130000000D03*
X150000000Y-130000000D03*
D35*
X151400000Y-113925000D03*
X157400000Y-113925000D03*
X151400000Y-117675000D03*
X157400000Y-117675000D03*
D33*
X153447726Y-60836736D03*
X153303916Y-62480462D03*
D45*
X178424199Y-80123201D03*
X179775801Y-79176799D03*
D25*
X200366762Y-136059369D03*
X193168414Y-128889307D03*
X196767588Y-132474338D03*
D49*
X131887500Y-68535528D03*
X132712500Y-69964472D03*
D50*
X124366637Y-74316637D03*
X125533363Y-75483363D03*
D51*
X148879280Y-60665676D03*
X148879280Y-61615676D03*
X148879278Y-62565676D03*
X151154280Y-62565676D03*
X151154282Y-60665676D03*
D52*
X122463973Y-76910598D03*
X119936027Y-74789402D03*
D53*
X156843260Y-61287530D03*
X156556740Y-62912470D03*
D20*
X112053113Y-89836474D03*
X113646887Y-90263526D03*
D54*
X146581479Y-60900321D03*
X146716567Y-62444423D03*
D55*
X117395407Y-84797319D03*
X114404593Y-83402681D03*
D56*
X184057054Y-88574960D03*
X186124379Y-87822516D03*
X185542946Y-86225040D03*
X183475621Y-86977484D03*
D57*
X173139401Y-72413971D03*
X175260599Y-69886029D03*
D58*
X182548627Y-94339209D03*
X180923699Y-94625725D03*
D59*
X129101840Y-75106315D03*
X130098160Y-76293685D03*
D60*
X178818017Y-75830302D03*
X180081983Y-74769698D03*
D25*
X194073512Y-142352619D03*
X186875164Y-135182557D03*
X190474338Y-138767588D03*
X99470605Y-136250289D03*
X106640667Y-129051941D03*
X103055636Y-132651115D03*
D61*
X163437266Y-63105096D03*
X162907130Y-64561618D03*
D62*
X125910648Y-71277739D03*
X124689352Y-69822261D03*
D49*
X130287500Y-65935528D03*
X131112500Y-67364472D03*
D63*
X172508848Y-67774093D03*
X171619800Y-69043779D03*
D53*
X156293260Y-64237534D03*
X156006740Y-65862466D03*
D64*
X111237533Y-93156741D03*
X112862467Y-93443259D03*
D65*
X108800000Y-98100001D03*
D66*
X106260000Y-98100001D03*
X103720000Y-98100001D03*
X101180000Y-98100001D03*
D36*
X128423201Y-69175800D03*
X127476799Y-67824200D03*
D50*
X122233266Y-72033280D03*
X123400000Y-73200000D03*
D64*
X114237533Y-93706741D03*
X115862467Y-93993259D03*
D15*
X108000000Y-57000000D03*
D67*
X180502814Y-91801168D03*
X182000000Y-91400000D03*
D68*
X181799995Y-62562501D03*
X181800005Y-64437499D03*
D69*
X155350000Y-94340000D03*
D70*
X155350000Y-96120000D03*
X155350000Y-97900000D03*
X155350000Y-99680000D03*
X155350000Y-101460000D03*
X155350000Y-103240000D03*
X155350000Y-105020000D03*
X155350000Y-106800000D03*
X144650000Y-107690000D03*
X144650000Y-105910000D03*
X144650000Y-104130000D03*
X144650000Y-102350000D03*
X144650000Y-100570000D03*
X144650000Y-98790000D03*
X144650000Y-97010000D03*
X144650000Y-95230000D03*
%LPD*%
M02*
