G04 #@! TF.GenerationSoftware,KiCad,Pcbnew,8.0.8*
G04 #@! TF.CreationDate,2025-04-27T17:47:22+09:00*
G04 #@! TF.ProjectId,Akira_board,416b6972-615f-4626-9f61-72642e6b6963,rev?*
G04 #@! TF.SameCoordinates,Original*
G04 #@! TF.FileFunction,Legend,Top*
G04 #@! TF.FilePolarity,Positive*
%FSLAX46Y46*%
G04 Gerber Fmt 4.6, Leading zero omitted, Abs format (unit mm)*
G04 Created by KiCad (PCBNEW 8.0.8) date 2025-04-27 17:47:22*
%MOMM*%
%LPD*%
G01*
G04 APERTURE LIST*
%ADD10C,0.100000*%
%ADD11C,0.150000*%
%ADD12C,0.120000*%
G04 APERTURE END LIST*
D10*
X100256872Y-90143734D02*
X100256872Y-89667544D01*
X100542587Y-90238972D02*
X99542587Y-89905639D01*
X99542587Y-89905639D02*
X100542587Y-89572306D01*
X100542587Y-89238972D02*
X99542587Y-89238972D01*
X100161634Y-89143734D02*
X100542587Y-88858020D01*
X99875920Y-88858020D02*
X100256872Y-89238972D01*
X100542587Y-88429448D02*
X99875920Y-88429448D01*
X99542587Y-88429448D02*
X99590206Y-88477067D01*
X99590206Y-88477067D02*
X99637825Y-88429448D01*
X99637825Y-88429448D02*
X99590206Y-88381829D01*
X99590206Y-88381829D02*
X99542587Y-88429448D01*
X99542587Y-88429448D02*
X99637825Y-88429448D01*
X100542587Y-87953258D02*
X99875920Y-87953258D01*
X100066396Y-87953258D02*
X99971158Y-87905639D01*
X99971158Y-87905639D02*
X99923539Y-87858020D01*
X99923539Y-87858020D02*
X99875920Y-87762782D01*
X99875920Y-87762782D02*
X99875920Y-87667544D01*
X100542587Y-86905639D02*
X100018777Y-86905639D01*
X100018777Y-86905639D02*
X99923539Y-86953258D01*
X99923539Y-86953258D02*
X99875920Y-87048496D01*
X99875920Y-87048496D02*
X99875920Y-87238972D01*
X99875920Y-87238972D02*
X99923539Y-87334210D01*
X100494968Y-86905639D02*
X100542587Y-87000877D01*
X100542587Y-87000877D02*
X100542587Y-87238972D01*
X100542587Y-87238972D02*
X100494968Y-87334210D01*
X100494968Y-87334210D02*
X100399729Y-87381829D01*
X100399729Y-87381829D02*
X100304491Y-87381829D01*
X100304491Y-87381829D02*
X100209253Y-87334210D01*
X100209253Y-87334210D02*
X100161634Y-87238972D01*
X100161634Y-87238972D02*
X100161634Y-87000877D01*
X100161634Y-87000877D02*
X100114015Y-86905639D01*
X100018777Y-85334210D02*
X100066396Y-85191353D01*
X100066396Y-85191353D02*
X100114015Y-85143734D01*
X100114015Y-85143734D02*
X100209253Y-85096115D01*
X100209253Y-85096115D02*
X100352110Y-85096115D01*
X100352110Y-85096115D02*
X100447348Y-85143734D01*
X100447348Y-85143734D02*
X100494968Y-85191353D01*
X100494968Y-85191353D02*
X100542587Y-85286591D01*
X100542587Y-85286591D02*
X100542587Y-85667543D01*
X100542587Y-85667543D02*
X99542587Y-85667543D01*
X99542587Y-85667543D02*
X99542587Y-85334210D01*
X99542587Y-85334210D02*
X99590206Y-85238972D01*
X99590206Y-85238972D02*
X99637825Y-85191353D01*
X99637825Y-85191353D02*
X99733063Y-85143734D01*
X99733063Y-85143734D02*
X99828301Y-85143734D01*
X99828301Y-85143734D02*
X99923539Y-85191353D01*
X99923539Y-85191353D02*
X99971158Y-85238972D01*
X99971158Y-85238972D02*
X100018777Y-85334210D01*
X100018777Y-85334210D02*
X100018777Y-85667543D01*
X100542587Y-84238972D02*
X100018777Y-84238972D01*
X100018777Y-84238972D02*
X99923539Y-84286591D01*
X99923539Y-84286591D02*
X99875920Y-84381829D01*
X99875920Y-84381829D02*
X99875920Y-84572305D01*
X99875920Y-84572305D02*
X99923539Y-84667543D01*
X100494968Y-84238972D02*
X100542587Y-84334210D01*
X100542587Y-84334210D02*
X100542587Y-84572305D01*
X100542587Y-84572305D02*
X100494968Y-84667543D01*
X100494968Y-84667543D02*
X100399729Y-84715162D01*
X100399729Y-84715162D02*
X100304491Y-84715162D01*
X100304491Y-84715162D02*
X100209253Y-84667543D01*
X100209253Y-84667543D02*
X100161634Y-84572305D01*
X100161634Y-84572305D02*
X100161634Y-84334210D01*
X100161634Y-84334210D02*
X100114015Y-84238972D01*
X100542587Y-83619924D02*
X100494968Y-83715162D01*
X100494968Y-83715162D02*
X100399729Y-83762781D01*
X100399729Y-83762781D02*
X99542587Y-83762781D01*
X100542587Y-83096114D02*
X100494968Y-83191352D01*
X100494968Y-83191352D02*
X100399729Y-83238971D01*
X100399729Y-83238971D02*
X99542587Y-83238971D01*
X100447348Y-81953256D02*
X100494968Y-81905637D01*
X100494968Y-81905637D02*
X100542587Y-81953256D01*
X100542587Y-81953256D02*
X100494968Y-82000875D01*
X100494968Y-82000875D02*
X100447348Y-81953256D01*
X100447348Y-81953256D02*
X100542587Y-81953256D01*
X99923539Y-81953256D02*
X99971158Y-81905637D01*
X99971158Y-81905637D02*
X100018777Y-81953256D01*
X100018777Y-81953256D02*
X99971158Y-82000875D01*
X99971158Y-82000875D02*
X99923539Y-81953256D01*
X99923539Y-81953256D02*
X100018777Y-81953256D01*
X100542587Y-80143733D02*
X100066396Y-80477066D01*
X100542587Y-80715161D02*
X99542587Y-80715161D01*
X99542587Y-80715161D02*
X99542587Y-80334209D01*
X99542587Y-80334209D02*
X99590206Y-80238971D01*
X99590206Y-80238971D02*
X99637825Y-80191352D01*
X99637825Y-80191352D02*
X99733063Y-80143733D01*
X99733063Y-80143733D02*
X99875920Y-80143733D01*
X99875920Y-80143733D02*
X99971158Y-80191352D01*
X99971158Y-80191352D02*
X100018777Y-80238971D01*
X100018777Y-80238971D02*
X100066396Y-80334209D01*
X100066396Y-80334209D02*
X100066396Y-80715161D01*
X100494968Y-79334209D02*
X100542587Y-79429447D01*
X100542587Y-79429447D02*
X100542587Y-79619923D01*
X100542587Y-79619923D02*
X100494968Y-79715161D01*
X100494968Y-79715161D02*
X100399729Y-79762780D01*
X100399729Y-79762780D02*
X100018777Y-79762780D01*
X100018777Y-79762780D02*
X99923539Y-79715161D01*
X99923539Y-79715161D02*
X99875920Y-79619923D01*
X99875920Y-79619923D02*
X99875920Y-79429447D01*
X99875920Y-79429447D02*
X99923539Y-79334209D01*
X99923539Y-79334209D02*
X100018777Y-79286590D01*
X100018777Y-79286590D02*
X100114015Y-79286590D01*
X100114015Y-79286590D02*
X100209253Y-79762780D01*
X99875920Y-78953256D02*
X100542587Y-78715161D01*
X100542587Y-78715161D02*
X99875920Y-78477066D01*
X99637825Y-77381827D02*
X99590206Y-77334208D01*
X99590206Y-77334208D02*
X99542587Y-77238970D01*
X99542587Y-77238970D02*
X99542587Y-77000875D01*
X99542587Y-77000875D02*
X99590206Y-76905637D01*
X99590206Y-76905637D02*
X99637825Y-76858018D01*
X99637825Y-76858018D02*
X99733063Y-76810399D01*
X99733063Y-76810399D02*
X99828301Y-76810399D01*
X99828301Y-76810399D02*
X99971158Y-76858018D01*
X99971158Y-76858018D02*
X100542587Y-77429446D01*
X100542587Y-77429446D02*
X100542587Y-76810399D01*
X101628721Y-86000878D02*
X101676340Y-85858021D01*
X101676340Y-85858021D02*
X101723959Y-85810402D01*
X101723959Y-85810402D02*
X101819197Y-85762783D01*
X101819197Y-85762783D02*
X101962054Y-85762783D01*
X101962054Y-85762783D02*
X102057292Y-85810402D01*
X102057292Y-85810402D02*
X102104912Y-85858021D01*
X102104912Y-85858021D02*
X102152531Y-85953259D01*
X102152531Y-85953259D02*
X102152531Y-86334211D01*
X102152531Y-86334211D02*
X101152531Y-86334211D01*
X101152531Y-86334211D02*
X101152531Y-86000878D01*
X101152531Y-86000878D02*
X101200150Y-85905640D01*
X101200150Y-85905640D02*
X101247769Y-85858021D01*
X101247769Y-85858021D02*
X101343007Y-85810402D01*
X101343007Y-85810402D02*
X101438245Y-85810402D01*
X101438245Y-85810402D02*
X101533483Y-85858021D01*
X101533483Y-85858021D02*
X101581102Y-85905640D01*
X101581102Y-85905640D02*
X101628721Y-86000878D01*
X101628721Y-86000878D02*
X101628721Y-86334211D01*
X101485864Y-85429449D02*
X102152531Y-85191354D01*
X101485864Y-84953259D02*
X102152531Y-85191354D01*
X102152531Y-85191354D02*
X102390626Y-85286592D01*
X102390626Y-85286592D02*
X102438245Y-85334211D01*
X102438245Y-85334211D02*
X102485864Y-85429449D01*
X102057292Y-83810401D02*
X102104912Y-83762782D01*
X102104912Y-83762782D02*
X102152531Y-83810401D01*
X102152531Y-83810401D02*
X102104912Y-83858020D01*
X102104912Y-83858020D02*
X102057292Y-83810401D01*
X102057292Y-83810401D02*
X102152531Y-83810401D01*
X101533483Y-83810401D02*
X101581102Y-83762782D01*
X101581102Y-83762782D02*
X101628721Y-83810401D01*
X101628721Y-83810401D02*
X101581102Y-83858020D01*
X101581102Y-83858020D02*
X101533483Y-83810401D01*
X101533483Y-83810401D02*
X101628721Y-83810401D01*
X102152531Y-82572306D02*
X101152531Y-82572306D01*
X102152531Y-82000878D02*
X101581102Y-82429449D01*
X101152531Y-82000878D02*
X101723959Y-82572306D01*
X101485864Y-81667544D02*
X102152531Y-81429449D01*
X101485864Y-81191354D02*
X102152531Y-81429449D01*
X102152531Y-81429449D02*
X102390626Y-81524687D01*
X102390626Y-81524687D02*
X102438245Y-81572306D01*
X102438245Y-81572306D02*
X102485864Y-81667544D01*
X102104912Y-80429449D02*
X102152531Y-80524687D01*
X102152531Y-80524687D02*
X102152531Y-80715163D01*
X102152531Y-80715163D02*
X102104912Y-80810401D01*
X102104912Y-80810401D02*
X102009673Y-80858020D01*
X102009673Y-80858020D02*
X101628721Y-80858020D01*
X101628721Y-80858020D02*
X101533483Y-80810401D01*
X101533483Y-80810401D02*
X101485864Y-80715163D01*
X101485864Y-80715163D02*
X101485864Y-80524687D01*
X101485864Y-80524687D02*
X101533483Y-80429449D01*
X101533483Y-80429449D02*
X101628721Y-80381830D01*
X101628721Y-80381830D02*
X101723959Y-80381830D01*
X101723959Y-80381830D02*
X101819197Y-80858020D01*
X102152531Y-79191353D02*
X101152531Y-79191353D01*
X101152531Y-79191353D02*
X101866816Y-78858020D01*
X101866816Y-78858020D02*
X101152531Y-78524687D01*
X101152531Y-78524687D02*
X102152531Y-78524687D01*
X102152531Y-77905639D02*
X102104912Y-78000877D01*
X102104912Y-78000877D02*
X102057292Y-78048496D01*
X102057292Y-78048496D02*
X101962054Y-78096115D01*
X101962054Y-78096115D02*
X101676340Y-78096115D01*
X101676340Y-78096115D02*
X101581102Y-78048496D01*
X101581102Y-78048496D02*
X101533483Y-78000877D01*
X101533483Y-78000877D02*
X101485864Y-77905639D01*
X101485864Y-77905639D02*
X101485864Y-77762782D01*
X101485864Y-77762782D02*
X101533483Y-77667544D01*
X101533483Y-77667544D02*
X101581102Y-77619925D01*
X101581102Y-77619925D02*
X101676340Y-77572306D01*
X101676340Y-77572306D02*
X101962054Y-77572306D01*
X101962054Y-77572306D02*
X102057292Y-77619925D01*
X102057292Y-77619925D02*
X102104912Y-77667544D01*
X102104912Y-77667544D02*
X102152531Y-77762782D01*
X102152531Y-77762782D02*
X102152531Y-77905639D01*
X102152531Y-77143734D02*
X101485864Y-77143734D01*
X101676340Y-77143734D02*
X101581102Y-77096115D01*
X101581102Y-77096115D02*
X101533483Y-77048496D01*
X101533483Y-77048496D02*
X101485864Y-76953258D01*
X101485864Y-76953258D02*
X101485864Y-76858020D01*
X102152531Y-76524686D02*
X101485864Y-76524686D01*
X101676340Y-76524686D02*
X101581102Y-76477067D01*
X101581102Y-76477067D02*
X101533483Y-76429448D01*
X101533483Y-76429448D02*
X101485864Y-76334210D01*
X101485864Y-76334210D02*
X101485864Y-76238972D01*
X102152531Y-75905638D02*
X101485864Y-75905638D01*
X101152531Y-75905638D02*
X101200150Y-75953257D01*
X101200150Y-75953257D02*
X101247769Y-75905638D01*
X101247769Y-75905638D02*
X101200150Y-75858019D01*
X101200150Y-75858019D02*
X101152531Y-75905638D01*
X101152531Y-75905638D02*
X101247769Y-75905638D01*
X102104912Y-75477067D02*
X102152531Y-75381829D01*
X102152531Y-75381829D02*
X102152531Y-75191353D01*
X102152531Y-75191353D02*
X102104912Y-75096115D01*
X102104912Y-75096115D02*
X102009673Y-75048496D01*
X102009673Y-75048496D02*
X101962054Y-75048496D01*
X101962054Y-75048496D02*
X101866816Y-75096115D01*
X101866816Y-75096115D02*
X101819197Y-75191353D01*
X101819197Y-75191353D02*
X101819197Y-75334210D01*
X101819197Y-75334210D02*
X101771578Y-75429448D01*
X101771578Y-75429448D02*
X101676340Y-75477067D01*
X101676340Y-75477067D02*
X101628721Y-75477067D01*
X101628721Y-75477067D02*
X101533483Y-75429448D01*
X101533483Y-75429448D02*
X101485864Y-75334210D01*
X101485864Y-75334210D02*
X101485864Y-75191353D01*
X101485864Y-75191353D02*
X101533483Y-75096115D01*
X101771578Y-74619924D02*
X101771578Y-73858020D01*
X101152531Y-73524686D02*
X101152531Y-72953258D01*
X102152531Y-73238972D02*
X101152531Y-73238972D01*
X102152531Y-72191353D02*
X101628721Y-72191353D01*
X101628721Y-72191353D02*
X101533483Y-72238972D01*
X101533483Y-72238972D02*
X101485864Y-72334210D01*
X101485864Y-72334210D02*
X101485864Y-72524686D01*
X101485864Y-72524686D02*
X101533483Y-72619924D01*
X102104912Y-72191353D02*
X102152531Y-72286591D01*
X102152531Y-72286591D02*
X102152531Y-72524686D01*
X102152531Y-72524686D02*
X102104912Y-72619924D01*
X102104912Y-72619924D02*
X102009673Y-72667543D01*
X102009673Y-72667543D02*
X101914435Y-72667543D01*
X101914435Y-72667543D02*
X101819197Y-72619924D01*
X101819197Y-72619924D02*
X101771578Y-72524686D01*
X101771578Y-72524686D02*
X101771578Y-72286591D01*
X101771578Y-72286591D02*
X101723959Y-72191353D01*
X102152531Y-71715162D02*
X101152531Y-71715162D01*
X101771578Y-71619924D02*
X102152531Y-71334210D01*
X101485864Y-71334210D02*
X101866816Y-71715162D01*
X102152531Y-70477067D02*
X101628721Y-70477067D01*
X101628721Y-70477067D02*
X101533483Y-70524686D01*
X101533483Y-70524686D02*
X101485864Y-70619924D01*
X101485864Y-70619924D02*
X101485864Y-70810400D01*
X101485864Y-70810400D02*
X101533483Y-70905638D01*
X102104912Y-70477067D02*
X102152531Y-70572305D01*
X102152531Y-70572305D02*
X102152531Y-70810400D01*
X102152531Y-70810400D02*
X102104912Y-70905638D01*
X102104912Y-70905638D02*
X102009673Y-70953257D01*
X102009673Y-70953257D02*
X101914435Y-70953257D01*
X101914435Y-70953257D02*
X101819197Y-70905638D01*
X101819197Y-70905638D02*
X101771578Y-70810400D01*
X101771578Y-70810400D02*
X101771578Y-70572305D01*
X101771578Y-70572305D02*
X101723959Y-70477067D01*
X102152531Y-70000876D02*
X101485864Y-70000876D01*
X101581102Y-70000876D02*
X101533483Y-69953257D01*
X101533483Y-69953257D02*
X101485864Y-69858019D01*
X101485864Y-69858019D02*
X101485864Y-69715162D01*
X101485864Y-69715162D02*
X101533483Y-69619924D01*
X101533483Y-69619924D02*
X101628721Y-69572305D01*
X101628721Y-69572305D02*
X102152531Y-69572305D01*
X101628721Y-69572305D02*
X101533483Y-69524686D01*
X101533483Y-69524686D02*
X101485864Y-69429448D01*
X101485864Y-69429448D02*
X101485864Y-69286591D01*
X101485864Y-69286591D02*
X101533483Y-69191352D01*
X101533483Y-69191352D02*
X101628721Y-69143733D01*
X101628721Y-69143733D02*
X102152531Y-69143733D01*
X102152531Y-68524686D02*
X102104912Y-68619924D01*
X102104912Y-68619924D02*
X102057292Y-68667543D01*
X102057292Y-68667543D02*
X101962054Y-68715162D01*
X101962054Y-68715162D02*
X101676340Y-68715162D01*
X101676340Y-68715162D02*
X101581102Y-68667543D01*
X101581102Y-68667543D02*
X101533483Y-68619924D01*
X101533483Y-68619924D02*
X101485864Y-68524686D01*
X101485864Y-68524686D02*
X101485864Y-68381829D01*
X101485864Y-68381829D02*
X101533483Y-68286591D01*
X101533483Y-68286591D02*
X101581102Y-68238972D01*
X101581102Y-68238972D02*
X101676340Y-68191353D01*
X101676340Y-68191353D02*
X101962054Y-68191353D01*
X101962054Y-68191353D02*
X102057292Y-68238972D01*
X102057292Y-68238972D02*
X102104912Y-68286591D01*
X102104912Y-68286591D02*
X102152531Y-68381829D01*
X102152531Y-68381829D02*
X102152531Y-68524686D01*
X101485864Y-67905638D02*
X101485864Y-67524686D01*
X101152531Y-67762781D02*
X102009673Y-67762781D01*
X102009673Y-67762781D02*
X102104912Y-67715162D01*
X102104912Y-67715162D02*
X102152531Y-67619924D01*
X102152531Y-67619924D02*
X102152531Y-67524686D01*
X102152531Y-67048495D02*
X102104912Y-67143733D01*
X102104912Y-67143733D02*
X102057292Y-67191352D01*
X102057292Y-67191352D02*
X101962054Y-67238971D01*
X101962054Y-67238971D02*
X101676340Y-67238971D01*
X101676340Y-67238971D02*
X101581102Y-67191352D01*
X101581102Y-67191352D02*
X101533483Y-67143733D01*
X101533483Y-67143733D02*
X101485864Y-67048495D01*
X101485864Y-67048495D02*
X101485864Y-66905638D01*
X101485864Y-66905638D02*
X101533483Y-66810400D01*
X101533483Y-66810400D02*
X101581102Y-66762781D01*
X101581102Y-66762781D02*
X101676340Y-66715162D01*
X101676340Y-66715162D02*
X101962054Y-66715162D01*
X101962054Y-66715162D02*
X102057292Y-66762781D01*
X102057292Y-66762781D02*
X102104912Y-66810400D01*
X102104912Y-66810400D02*
X102152531Y-66905638D01*
X102152531Y-66905638D02*
X102152531Y-67048495D01*
X103762475Y-90096115D02*
X102762475Y-90096115D01*
X102762475Y-90096115D02*
X103476760Y-89762782D01*
X103476760Y-89762782D02*
X102762475Y-89429449D01*
X102762475Y-89429449D02*
X103762475Y-89429449D01*
X103762475Y-88810401D02*
X103714856Y-88905639D01*
X103714856Y-88905639D02*
X103667236Y-88953258D01*
X103667236Y-88953258D02*
X103571998Y-89000877D01*
X103571998Y-89000877D02*
X103286284Y-89000877D01*
X103286284Y-89000877D02*
X103191046Y-88953258D01*
X103191046Y-88953258D02*
X103143427Y-88905639D01*
X103143427Y-88905639D02*
X103095808Y-88810401D01*
X103095808Y-88810401D02*
X103095808Y-88667544D01*
X103095808Y-88667544D02*
X103143427Y-88572306D01*
X103143427Y-88572306D02*
X103191046Y-88524687D01*
X103191046Y-88524687D02*
X103286284Y-88477068D01*
X103286284Y-88477068D02*
X103571998Y-88477068D01*
X103571998Y-88477068D02*
X103667236Y-88524687D01*
X103667236Y-88524687D02*
X103714856Y-88572306D01*
X103714856Y-88572306D02*
X103762475Y-88667544D01*
X103762475Y-88667544D02*
X103762475Y-88810401D01*
X103762475Y-87905639D02*
X103714856Y-88000877D01*
X103714856Y-88000877D02*
X103667236Y-88048496D01*
X103667236Y-88048496D02*
X103571998Y-88096115D01*
X103571998Y-88096115D02*
X103286284Y-88096115D01*
X103286284Y-88096115D02*
X103191046Y-88048496D01*
X103191046Y-88048496D02*
X103143427Y-88000877D01*
X103143427Y-88000877D02*
X103095808Y-87905639D01*
X103095808Y-87905639D02*
X103095808Y-87762782D01*
X103095808Y-87762782D02*
X103143427Y-87667544D01*
X103143427Y-87667544D02*
X103191046Y-87619925D01*
X103191046Y-87619925D02*
X103286284Y-87572306D01*
X103286284Y-87572306D02*
X103571998Y-87572306D01*
X103571998Y-87572306D02*
X103667236Y-87619925D01*
X103667236Y-87619925D02*
X103714856Y-87667544D01*
X103714856Y-87667544D02*
X103762475Y-87762782D01*
X103762475Y-87762782D02*
X103762475Y-87905639D01*
X103095808Y-87143734D02*
X103762475Y-87143734D01*
X103191046Y-87143734D02*
X103143427Y-87096115D01*
X103143427Y-87096115D02*
X103095808Y-87000877D01*
X103095808Y-87000877D02*
X103095808Y-86858020D01*
X103095808Y-86858020D02*
X103143427Y-86762782D01*
X103143427Y-86762782D02*
X103238665Y-86715163D01*
X103238665Y-86715163D02*
X103762475Y-86715163D01*
X103714856Y-86286591D02*
X103762475Y-86143734D01*
X103762475Y-86143734D02*
X103762475Y-85905639D01*
X103762475Y-85905639D02*
X103714856Y-85810401D01*
X103714856Y-85810401D02*
X103667236Y-85762782D01*
X103667236Y-85762782D02*
X103571998Y-85715163D01*
X103571998Y-85715163D02*
X103476760Y-85715163D01*
X103476760Y-85715163D02*
X103381522Y-85762782D01*
X103381522Y-85762782D02*
X103333903Y-85810401D01*
X103333903Y-85810401D02*
X103286284Y-85905639D01*
X103286284Y-85905639D02*
X103238665Y-86096115D01*
X103238665Y-86096115D02*
X103191046Y-86191353D01*
X103191046Y-86191353D02*
X103143427Y-86238972D01*
X103143427Y-86238972D02*
X103048189Y-86286591D01*
X103048189Y-86286591D02*
X102952951Y-86286591D01*
X102952951Y-86286591D02*
X102857713Y-86238972D01*
X102857713Y-86238972D02*
X102810094Y-86191353D01*
X102810094Y-86191353D02*
X102762475Y-86096115D01*
X102762475Y-86096115D02*
X102762475Y-85858020D01*
X102762475Y-85858020D02*
X102810094Y-85715163D01*
X103762475Y-85286591D02*
X102762475Y-85286591D01*
X103762475Y-84858020D02*
X103238665Y-84858020D01*
X103238665Y-84858020D02*
X103143427Y-84905639D01*
X103143427Y-84905639D02*
X103095808Y-85000877D01*
X103095808Y-85000877D02*
X103095808Y-85143734D01*
X103095808Y-85143734D02*
X103143427Y-85238972D01*
X103143427Y-85238972D02*
X103191046Y-85286591D01*
X103762475Y-84381829D02*
X103095808Y-84381829D01*
X102762475Y-84381829D02*
X102810094Y-84429448D01*
X102810094Y-84429448D02*
X102857713Y-84381829D01*
X102857713Y-84381829D02*
X102810094Y-84334210D01*
X102810094Y-84334210D02*
X102762475Y-84381829D01*
X102762475Y-84381829D02*
X102857713Y-84381829D01*
X103095808Y-83905639D02*
X103762475Y-83905639D01*
X103191046Y-83905639D02*
X103143427Y-83858020D01*
X103143427Y-83858020D02*
X103095808Y-83762782D01*
X103095808Y-83762782D02*
X103095808Y-83619925D01*
X103095808Y-83619925D02*
X103143427Y-83524687D01*
X103143427Y-83524687D02*
X103238665Y-83477068D01*
X103238665Y-83477068D02*
X103762475Y-83477068D01*
X103714856Y-82619925D02*
X103762475Y-82715163D01*
X103762475Y-82715163D02*
X103762475Y-82905639D01*
X103762475Y-82905639D02*
X103714856Y-83000877D01*
X103714856Y-83000877D02*
X103619617Y-83048496D01*
X103619617Y-83048496D02*
X103238665Y-83048496D01*
X103238665Y-83048496D02*
X103143427Y-83000877D01*
X103143427Y-83000877D02*
X103095808Y-82905639D01*
X103095808Y-82905639D02*
X103095808Y-82715163D01*
X103095808Y-82715163D02*
X103143427Y-82619925D01*
X103143427Y-82619925D02*
X103238665Y-82572306D01*
X103238665Y-82572306D02*
X103333903Y-82572306D01*
X103333903Y-82572306D02*
X103429141Y-83048496D01*
X103714856Y-81429448D02*
X103762475Y-81286591D01*
X103762475Y-81286591D02*
X103762475Y-81048496D01*
X103762475Y-81048496D02*
X103714856Y-80953258D01*
X103714856Y-80953258D02*
X103667236Y-80905639D01*
X103667236Y-80905639D02*
X103571998Y-80858020D01*
X103571998Y-80858020D02*
X103476760Y-80858020D01*
X103476760Y-80858020D02*
X103381522Y-80905639D01*
X103381522Y-80905639D02*
X103333903Y-80953258D01*
X103333903Y-80953258D02*
X103286284Y-81048496D01*
X103286284Y-81048496D02*
X103238665Y-81238972D01*
X103238665Y-81238972D02*
X103191046Y-81334210D01*
X103191046Y-81334210D02*
X103143427Y-81381829D01*
X103143427Y-81381829D02*
X103048189Y-81429448D01*
X103048189Y-81429448D02*
X102952951Y-81429448D01*
X102952951Y-81429448D02*
X102857713Y-81381829D01*
X102857713Y-81381829D02*
X102810094Y-81334210D01*
X102810094Y-81334210D02*
X102762475Y-81238972D01*
X102762475Y-81238972D02*
X102762475Y-81000877D01*
X102762475Y-81000877D02*
X102810094Y-80858020D01*
X103095808Y-80572305D02*
X103095808Y-80191353D01*
X102762475Y-80429448D02*
X103619617Y-80429448D01*
X103619617Y-80429448D02*
X103714856Y-80381829D01*
X103714856Y-80381829D02*
X103762475Y-80286591D01*
X103762475Y-80286591D02*
X103762475Y-80191353D01*
X103095808Y-79429448D02*
X103762475Y-79429448D01*
X103095808Y-79858019D02*
X103619617Y-79858019D01*
X103619617Y-79858019D02*
X103714856Y-79810400D01*
X103714856Y-79810400D02*
X103762475Y-79715162D01*
X103762475Y-79715162D02*
X103762475Y-79572305D01*
X103762475Y-79572305D02*
X103714856Y-79477067D01*
X103714856Y-79477067D02*
X103667236Y-79429448D01*
X103762475Y-78524686D02*
X102762475Y-78524686D01*
X103714856Y-78524686D02*
X103762475Y-78619924D01*
X103762475Y-78619924D02*
X103762475Y-78810400D01*
X103762475Y-78810400D02*
X103714856Y-78905638D01*
X103714856Y-78905638D02*
X103667236Y-78953257D01*
X103667236Y-78953257D02*
X103571998Y-79000876D01*
X103571998Y-79000876D02*
X103286284Y-79000876D01*
X103286284Y-79000876D02*
X103191046Y-78953257D01*
X103191046Y-78953257D02*
X103143427Y-78905638D01*
X103143427Y-78905638D02*
X103095808Y-78810400D01*
X103095808Y-78810400D02*
X103095808Y-78619924D01*
X103095808Y-78619924D02*
X103143427Y-78524686D01*
X103762475Y-78048495D02*
X103095808Y-78048495D01*
X102762475Y-78048495D02*
X102810094Y-78096114D01*
X102810094Y-78096114D02*
X102857713Y-78048495D01*
X102857713Y-78048495D02*
X102810094Y-78000876D01*
X102810094Y-78000876D02*
X102762475Y-78048495D01*
X102762475Y-78048495D02*
X102857713Y-78048495D01*
X103762475Y-77429448D02*
X103714856Y-77524686D01*
X103714856Y-77524686D02*
X103667236Y-77572305D01*
X103667236Y-77572305D02*
X103571998Y-77619924D01*
X103571998Y-77619924D02*
X103286284Y-77619924D01*
X103286284Y-77619924D02*
X103191046Y-77572305D01*
X103191046Y-77572305D02*
X103143427Y-77524686D01*
X103143427Y-77524686D02*
X103095808Y-77429448D01*
X103095808Y-77429448D02*
X103095808Y-77286591D01*
X103095808Y-77286591D02*
X103143427Y-77191353D01*
X103143427Y-77191353D02*
X103191046Y-77143734D01*
X103191046Y-77143734D02*
X103286284Y-77096115D01*
X103286284Y-77096115D02*
X103571998Y-77096115D01*
X103571998Y-77096115D02*
X103667236Y-77143734D01*
X103667236Y-77143734D02*
X103714856Y-77191353D01*
X103714856Y-77191353D02*
X103762475Y-77286591D01*
X103762475Y-77286591D02*
X103762475Y-77429448D01*
X104372419Y-89810401D02*
X105086704Y-89810401D01*
X105086704Y-89810401D02*
X105229561Y-89858020D01*
X105229561Y-89858020D02*
X105324800Y-89953258D01*
X105324800Y-89953258D02*
X105372419Y-90096115D01*
X105372419Y-90096115D02*
X105372419Y-90191353D01*
X105372419Y-88858020D02*
X105372419Y-89334210D01*
X105372419Y-89334210D02*
X104372419Y-89334210D01*
X105277180Y-87953258D02*
X105324800Y-88000877D01*
X105324800Y-88000877D02*
X105372419Y-88143734D01*
X105372419Y-88143734D02*
X105372419Y-88238972D01*
X105372419Y-88238972D02*
X105324800Y-88381829D01*
X105324800Y-88381829D02*
X105229561Y-88477067D01*
X105229561Y-88477067D02*
X105134323Y-88524686D01*
X105134323Y-88524686D02*
X104943847Y-88572305D01*
X104943847Y-88572305D02*
X104800990Y-88572305D01*
X104800990Y-88572305D02*
X104610514Y-88524686D01*
X104610514Y-88524686D02*
X104515276Y-88477067D01*
X104515276Y-88477067D02*
X104420038Y-88381829D01*
X104420038Y-88381829D02*
X104372419Y-88238972D01*
X104372419Y-88238972D02*
X104372419Y-88143734D01*
X104372419Y-88143734D02*
X104420038Y-88000877D01*
X104420038Y-88000877D02*
X104467657Y-87953258D01*
X104372419Y-87238972D02*
X105086704Y-87238972D01*
X105086704Y-87238972D02*
X105229561Y-87286591D01*
X105229561Y-87286591D02*
X105324800Y-87381829D01*
X105324800Y-87381829D02*
X105372419Y-87524686D01*
X105372419Y-87524686D02*
X105372419Y-87619924D01*
X105372419Y-86286591D02*
X105372419Y-86762781D01*
X105372419Y-86762781D02*
X104372419Y-86762781D01*
X105277180Y-85381829D02*
X105324800Y-85429448D01*
X105324800Y-85429448D02*
X105372419Y-85572305D01*
X105372419Y-85572305D02*
X105372419Y-85667543D01*
X105372419Y-85667543D02*
X105324800Y-85810400D01*
X105324800Y-85810400D02*
X105229561Y-85905638D01*
X105229561Y-85905638D02*
X105134323Y-85953257D01*
X105134323Y-85953257D02*
X104943847Y-86000876D01*
X104943847Y-86000876D02*
X104800990Y-86000876D01*
X104800990Y-86000876D02*
X104610514Y-85953257D01*
X104610514Y-85953257D02*
X104515276Y-85905638D01*
X104515276Y-85905638D02*
X104420038Y-85810400D01*
X104420038Y-85810400D02*
X104372419Y-85667543D01*
X104372419Y-85667543D02*
X104372419Y-85572305D01*
X104372419Y-85572305D02*
X104420038Y-85429448D01*
X104420038Y-85429448D02*
X104467657Y-85381829D01*
X104372419Y-84667543D02*
X105086704Y-84667543D01*
X105086704Y-84667543D02*
X105229561Y-84715162D01*
X105229561Y-84715162D02*
X105324800Y-84810400D01*
X105324800Y-84810400D02*
X105372419Y-84953257D01*
X105372419Y-84953257D02*
X105372419Y-85048495D01*
X105372419Y-83715162D02*
X105372419Y-84191352D01*
X105372419Y-84191352D02*
X104372419Y-84191352D01*
X105277180Y-82810400D02*
X105324800Y-82858019D01*
X105324800Y-82858019D02*
X105372419Y-83000876D01*
X105372419Y-83000876D02*
X105372419Y-83096114D01*
X105372419Y-83096114D02*
X105324800Y-83238971D01*
X105324800Y-83238971D02*
X105229561Y-83334209D01*
X105229561Y-83334209D02*
X105134323Y-83381828D01*
X105134323Y-83381828D02*
X104943847Y-83429447D01*
X104943847Y-83429447D02*
X104800990Y-83429447D01*
X104800990Y-83429447D02*
X104610514Y-83381828D01*
X104610514Y-83381828D02*
X104515276Y-83334209D01*
X104515276Y-83334209D02*
X104420038Y-83238971D01*
X104420038Y-83238971D02*
X104372419Y-83096114D01*
X104372419Y-83096114D02*
X104372419Y-83000876D01*
X104372419Y-83000876D02*
X104420038Y-82858019D01*
X104420038Y-82858019D02*
X104467657Y-82810400D01*
X104372419Y-82096114D02*
X105086704Y-82096114D01*
X105086704Y-82096114D02*
X105229561Y-82143733D01*
X105229561Y-82143733D02*
X105324800Y-82238971D01*
X105324800Y-82238971D02*
X105372419Y-82381828D01*
X105372419Y-82381828D02*
X105372419Y-82477066D01*
X105372419Y-81143733D02*
X105372419Y-81619923D01*
X105372419Y-81619923D02*
X104372419Y-81619923D01*
X105277180Y-80238971D02*
X105324800Y-80286590D01*
X105324800Y-80286590D02*
X105372419Y-80429447D01*
X105372419Y-80429447D02*
X105372419Y-80524685D01*
X105372419Y-80524685D02*
X105324800Y-80667542D01*
X105324800Y-80667542D02*
X105229561Y-80762780D01*
X105229561Y-80762780D02*
X105134323Y-80810399D01*
X105134323Y-80810399D02*
X104943847Y-80858018D01*
X104943847Y-80858018D02*
X104800990Y-80858018D01*
X104800990Y-80858018D02*
X104610514Y-80810399D01*
X104610514Y-80810399D02*
X104515276Y-80762780D01*
X104515276Y-80762780D02*
X104420038Y-80667542D01*
X104420038Y-80667542D02*
X104372419Y-80524685D01*
X104372419Y-80524685D02*
X104372419Y-80429447D01*
X104372419Y-80429447D02*
X104420038Y-80286590D01*
X104420038Y-80286590D02*
X104467657Y-80238971D01*
X98456265Y-94214856D02*
X98599122Y-94262475D01*
X98599122Y-94262475D02*
X98837217Y-94262475D01*
X98837217Y-94262475D02*
X98932455Y-94214856D01*
X98932455Y-94214856D02*
X98980074Y-94167236D01*
X98980074Y-94167236D02*
X99027693Y-94071998D01*
X99027693Y-94071998D02*
X99027693Y-93976760D01*
X99027693Y-93976760D02*
X98980074Y-93881522D01*
X98980074Y-93881522D02*
X98932455Y-93833903D01*
X98932455Y-93833903D02*
X98837217Y-93786284D01*
X98837217Y-93786284D02*
X98646741Y-93738665D01*
X98646741Y-93738665D02*
X98551503Y-93691046D01*
X98551503Y-93691046D02*
X98503884Y-93643427D01*
X98503884Y-93643427D02*
X98456265Y-93548189D01*
X98456265Y-93548189D02*
X98456265Y-93452951D01*
X98456265Y-93452951D02*
X98503884Y-93357713D01*
X98503884Y-93357713D02*
X98551503Y-93310094D01*
X98551503Y-93310094D02*
X98646741Y-93262475D01*
X98646741Y-93262475D02*
X98884836Y-93262475D01*
X98884836Y-93262475D02*
X99027693Y-93310094D01*
X99456265Y-94262475D02*
X99456265Y-93262475D01*
X99456265Y-93262475D02*
X99694360Y-93262475D01*
X99694360Y-93262475D02*
X99837217Y-93310094D01*
X99837217Y-93310094D02*
X99932455Y-93405332D01*
X99932455Y-93405332D02*
X99980074Y-93500570D01*
X99980074Y-93500570D02*
X100027693Y-93691046D01*
X100027693Y-93691046D02*
X100027693Y-93833903D01*
X100027693Y-93833903D02*
X99980074Y-94024379D01*
X99980074Y-94024379D02*
X99932455Y-94119617D01*
X99932455Y-94119617D02*
X99837217Y-94214856D01*
X99837217Y-94214856D02*
X99694360Y-94262475D01*
X99694360Y-94262475D02*
X99456265Y-94262475D01*
X100408646Y-93976760D02*
X100884836Y-93976760D01*
X100313408Y-94262475D02*
X100646741Y-93262475D01*
X100646741Y-93262475D02*
X100980074Y-94262475D01*
X101551503Y-94595808D02*
X101551503Y-93167236D01*
X102218170Y-94214856D02*
X102361027Y-94262475D01*
X102361027Y-94262475D02*
X102599122Y-94262475D01*
X102599122Y-94262475D02*
X102694360Y-94214856D01*
X102694360Y-94214856D02*
X102741979Y-94167236D01*
X102741979Y-94167236D02*
X102789598Y-94071998D01*
X102789598Y-94071998D02*
X102789598Y-93976760D01*
X102789598Y-93976760D02*
X102741979Y-93881522D01*
X102741979Y-93881522D02*
X102694360Y-93833903D01*
X102694360Y-93833903D02*
X102599122Y-93786284D01*
X102599122Y-93786284D02*
X102408646Y-93738665D01*
X102408646Y-93738665D02*
X102313408Y-93691046D01*
X102313408Y-93691046D02*
X102265789Y-93643427D01*
X102265789Y-93643427D02*
X102218170Y-93548189D01*
X102218170Y-93548189D02*
X102218170Y-93452951D01*
X102218170Y-93452951D02*
X102265789Y-93357713D01*
X102265789Y-93357713D02*
X102313408Y-93310094D01*
X102313408Y-93310094D02*
X102408646Y-93262475D01*
X102408646Y-93262475D02*
X102646741Y-93262475D01*
X102646741Y-93262475D02*
X102789598Y-93310094D01*
X103789598Y-94167236D02*
X103741979Y-94214856D01*
X103741979Y-94214856D02*
X103599122Y-94262475D01*
X103599122Y-94262475D02*
X103503884Y-94262475D01*
X103503884Y-94262475D02*
X103361027Y-94214856D01*
X103361027Y-94214856D02*
X103265789Y-94119617D01*
X103265789Y-94119617D02*
X103218170Y-94024379D01*
X103218170Y-94024379D02*
X103170551Y-93833903D01*
X103170551Y-93833903D02*
X103170551Y-93691046D01*
X103170551Y-93691046D02*
X103218170Y-93500570D01*
X103218170Y-93500570D02*
X103265789Y-93405332D01*
X103265789Y-93405332D02*
X103361027Y-93310094D01*
X103361027Y-93310094D02*
X103503884Y-93262475D01*
X103503884Y-93262475D02*
X103599122Y-93262475D01*
X103599122Y-93262475D02*
X103741979Y-93310094D01*
X103741979Y-93310094D02*
X103789598Y-93357713D01*
X104694360Y-94262475D02*
X104218170Y-94262475D01*
X104218170Y-94262475D02*
X104218170Y-93262475D01*
X106741978Y-94872419D02*
X106265788Y-94872419D01*
X106265788Y-94872419D02*
X106218169Y-95348609D01*
X106218169Y-95348609D02*
X106265788Y-95300990D01*
X106265788Y-95300990D02*
X106361026Y-95253371D01*
X106361026Y-95253371D02*
X106599121Y-95253371D01*
X106599121Y-95253371D02*
X106694359Y-95300990D01*
X106694359Y-95300990D02*
X106741978Y-95348609D01*
X106741978Y-95348609D02*
X106789597Y-95443847D01*
X106789597Y-95443847D02*
X106789597Y-95681942D01*
X106789597Y-95681942D02*
X106741978Y-95777180D01*
X106741978Y-95777180D02*
X106694359Y-95824800D01*
X106694359Y-95824800D02*
X106599121Y-95872419D01*
X106599121Y-95872419D02*
X106361026Y-95872419D01*
X106361026Y-95872419D02*
X106265788Y-95824800D01*
X106265788Y-95824800D02*
X106218169Y-95777180D01*
X107075312Y-94872419D02*
X107408645Y-95872419D01*
X107408645Y-95872419D02*
X107741978Y-94872419D01*
X108313407Y-96205752D02*
X108313407Y-94777180D01*
X109551502Y-94920038D02*
X109456264Y-94872419D01*
X109456264Y-94872419D02*
X109313407Y-94872419D01*
X109313407Y-94872419D02*
X109170550Y-94920038D01*
X109170550Y-94920038D02*
X109075312Y-95015276D01*
X109075312Y-95015276D02*
X109027693Y-95110514D01*
X109027693Y-95110514D02*
X108980074Y-95300990D01*
X108980074Y-95300990D02*
X108980074Y-95443847D01*
X108980074Y-95443847D02*
X109027693Y-95634323D01*
X109027693Y-95634323D02*
X109075312Y-95729561D01*
X109075312Y-95729561D02*
X109170550Y-95824800D01*
X109170550Y-95824800D02*
X109313407Y-95872419D01*
X109313407Y-95872419D02*
X109408645Y-95872419D01*
X109408645Y-95872419D02*
X109551502Y-95824800D01*
X109551502Y-95824800D02*
X109599121Y-95777180D01*
X109599121Y-95777180D02*
X109599121Y-95443847D01*
X109599121Y-95443847D02*
X109408645Y-95443847D01*
X110027693Y-95872419D02*
X110027693Y-94872419D01*
X110027693Y-94872419D02*
X110599121Y-95872419D01*
X110599121Y-95872419D02*
X110599121Y-94872419D01*
X111075312Y-95872419D02*
X111075312Y-94872419D01*
X111075312Y-94872419D02*
X111313407Y-94872419D01*
X111313407Y-94872419D02*
X111456264Y-94920038D01*
X111456264Y-94920038D02*
X111551502Y-95015276D01*
X111551502Y-95015276D02*
X111599121Y-95110514D01*
X111599121Y-95110514D02*
X111646740Y-95300990D01*
X111646740Y-95300990D02*
X111646740Y-95443847D01*
X111646740Y-95443847D02*
X111599121Y-95634323D01*
X111599121Y-95634323D02*
X111551502Y-95729561D01*
X111551502Y-95729561D02*
X111456264Y-95824800D01*
X111456264Y-95824800D02*
X111313407Y-95872419D01*
X111313407Y-95872419D02*
X111075312Y-95872419D01*
X130691978Y-53962475D02*
X130215788Y-53962475D01*
X130215788Y-53962475D02*
X130168169Y-54438665D01*
X130168169Y-54438665D02*
X130215788Y-54391046D01*
X130215788Y-54391046D02*
X130311026Y-54343427D01*
X130311026Y-54343427D02*
X130549121Y-54343427D01*
X130549121Y-54343427D02*
X130644359Y-54391046D01*
X130644359Y-54391046D02*
X130691978Y-54438665D01*
X130691978Y-54438665D02*
X130739597Y-54533903D01*
X130739597Y-54533903D02*
X130739597Y-54771998D01*
X130739597Y-54771998D02*
X130691978Y-54867236D01*
X130691978Y-54867236D02*
X130644359Y-54914856D01*
X130644359Y-54914856D02*
X130549121Y-54962475D01*
X130549121Y-54962475D02*
X130311026Y-54962475D01*
X130311026Y-54962475D02*
X130215788Y-54914856D01*
X130215788Y-54914856D02*
X130168169Y-54867236D01*
X131025312Y-53962475D02*
X131358645Y-54962475D01*
X131358645Y-54962475D02*
X131691978Y-53962475D01*
X132263407Y-55295808D02*
X132263407Y-53867236D01*
X132977693Y-54962475D02*
X132977693Y-53962475D01*
X132977693Y-53962475D02*
X133311026Y-54676760D01*
X133311026Y-54676760D02*
X133644359Y-53962475D01*
X133644359Y-53962475D02*
X133644359Y-54962475D01*
X134311026Y-53962475D02*
X134501502Y-53962475D01*
X134501502Y-53962475D02*
X134596740Y-54010094D01*
X134596740Y-54010094D02*
X134691978Y-54105332D01*
X134691978Y-54105332D02*
X134739597Y-54295808D01*
X134739597Y-54295808D02*
X134739597Y-54629141D01*
X134739597Y-54629141D02*
X134691978Y-54819617D01*
X134691978Y-54819617D02*
X134596740Y-54914856D01*
X134596740Y-54914856D02*
X134501502Y-54962475D01*
X134501502Y-54962475D02*
X134311026Y-54962475D01*
X134311026Y-54962475D02*
X134215788Y-54914856D01*
X134215788Y-54914856D02*
X134120550Y-54819617D01*
X134120550Y-54819617D02*
X134072931Y-54629141D01*
X134072931Y-54629141D02*
X134072931Y-54295808D01*
X134072931Y-54295808D02*
X134120550Y-54105332D01*
X134120550Y-54105332D02*
X134215788Y-54010094D01*
X134215788Y-54010094D02*
X134311026Y-53962475D01*
X135120550Y-54914856D02*
X135263407Y-54962475D01*
X135263407Y-54962475D02*
X135501502Y-54962475D01*
X135501502Y-54962475D02*
X135596740Y-54914856D01*
X135596740Y-54914856D02*
X135644359Y-54867236D01*
X135644359Y-54867236D02*
X135691978Y-54771998D01*
X135691978Y-54771998D02*
X135691978Y-54676760D01*
X135691978Y-54676760D02*
X135644359Y-54581522D01*
X135644359Y-54581522D02*
X135596740Y-54533903D01*
X135596740Y-54533903D02*
X135501502Y-54486284D01*
X135501502Y-54486284D02*
X135311026Y-54438665D01*
X135311026Y-54438665D02*
X135215788Y-54391046D01*
X135215788Y-54391046D02*
X135168169Y-54343427D01*
X135168169Y-54343427D02*
X135120550Y-54248189D01*
X135120550Y-54248189D02*
X135120550Y-54152951D01*
X135120550Y-54152951D02*
X135168169Y-54057713D01*
X135168169Y-54057713D02*
X135215788Y-54010094D01*
X135215788Y-54010094D02*
X135311026Y-53962475D01*
X135311026Y-53962475D02*
X135549121Y-53962475D01*
X135549121Y-53962475D02*
X135691978Y-54010094D01*
X136120550Y-54962475D02*
X136120550Y-53962475D01*
X136834835Y-55295808D02*
X136834835Y-53867236D01*
X138072930Y-54010094D02*
X137977692Y-53962475D01*
X137977692Y-53962475D02*
X137834835Y-53962475D01*
X137834835Y-53962475D02*
X137691978Y-54010094D01*
X137691978Y-54010094D02*
X137596740Y-54105332D01*
X137596740Y-54105332D02*
X137549121Y-54200570D01*
X137549121Y-54200570D02*
X137501502Y-54391046D01*
X137501502Y-54391046D02*
X137501502Y-54533903D01*
X137501502Y-54533903D02*
X137549121Y-54724379D01*
X137549121Y-54724379D02*
X137596740Y-54819617D01*
X137596740Y-54819617D02*
X137691978Y-54914856D01*
X137691978Y-54914856D02*
X137834835Y-54962475D01*
X137834835Y-54962475D02*
X137930073Y-54962475D01*
X137930073Y-54962475D02*
X138072930Y-54914856D01*
X138072930Y-54914856D02*
X138120549Y-54867236D01*
X138120549Y-54867236D02*
X138120549Y-54533903D01*
X138120549Y-54533903D02*
X137930073Y-54533903D01*
X138549121Y-54962475D02*
X138549121Y-53962475D01*
X138549121Y-53962475D02*
X139120549Y-54962475D01*
X139120549Y-54962475D02*
X139120549Y-53962475D01*
X139596740Y-54962475D02*
X139596740Y-53962475D01*
X139596740Y-53962475D02*
X139834835Y-53962475D01*
X139834835Y-53962475D02*
X139977692Y-54010094D01*
X139977692Y-54010094D02*
X140072930Y-54105332D01*
X140072930Y-54105332D02*
X140120549Y-54200570D01*
X140120549Y-54200570D02*
X140168168Y-54391046D01*
X140168168Y-54391046D02*
X140168168Y-54533903D01*
X140168168Y-54533903D02*
X140120549Y-54724379D01*
X140120549Y-54724379D02*
X140072930Y-54819617D01*
X140072930Y-54819617D02*
X139977692Y-54914856D01*
X139977692Y-54914856D02*
X139834835Y-54962475D01*
X139834835Y-54962475D02*
X139596740Y-54962475D01*
X126453884Y-56572419D02*
X126453884Y-55572419D01*
X126453884Y-55572419D02*
X126787217Y-56286704D01*
X126787217Y-56286704D02*
X127120550Y-55572419D01*
X127120550Y-55572419D02*
X127120550Y-56572419D01*
X127596741Y-56572419D02*
X127596741Y-55572419D01*
X128025312Y-56524800D02*
X128168169Y-56572419D01*
X128168169Y-56572419D02*
X128406264Y-56572419D01*
X128406264Y-56572419D02*
X128501502Y-56524800D01*
X128501502Y-56524800D02*
X128549121Y-56477180D01*
X128549121Y-56477180D02*
X128596740Y-56381942D01*
X128596740Y-56381942D02*
X128596740Y-56286704D01*
X128596740Y-56286704D02*
X128549121Y-56191466D01*
X128549121Y-56191466D02*
X128501502Y-56143847D01*
X128501502Y-56143847D02*
X128406264Y-56096228D01*
X128406264Y-56096228D02*
X128215788Y-56048609D01*
X128215788Y-56048609D02*
X128120550Y-56000990D01*
X128120550Y-56000990D02*
X128072931Y-55953371D01*
X128072931Y-55953371D02*
X128025312Y-55858133D01*
X128025312Y-55858133D02*
X128025312Y-55762895D01*
X128025312Y-55762895D02*
X128072931Y-55667657D01*
X128072931Y-55667657D02*
X128120550Y-55620038D01*
X128120550Y-55620038D02*
X128215788Y-55572419D01*
X128215788Y-55572419D02*
X128453883Y-55572419D01*
X128453883Y-55572419D02*
X128596740Y-55620038D01*
X129215788Y-55572419D02*
X129406264Y-55572419D01*
X129406264Y-55572419D02*
X129501502Y-55620038D01*
X129501502Y-55620038D02*
X129596740Y-55715276D01*
X129596740Y-55715276D02*
X129644359Y-55905752D01*
X129644359Y-55905752D02*
X129644359Y-56239085D01*
X129644359Y-56239085D02*
X129596740Y-56429561D01*
X129596740Y-56429561D02*
X129501502Y-56524800D01*
X129501502Y-56524800D02*
X129406264Y-56572419D01*
X129406264Y-56572419D02*
X129215788Y-56572419D01*
X129215788Y-56572419D02*
X129120550Y-56524800D01*
X129120550Y-56524800D02*
X129025312Y-56429561D01*
X129025312Y-56429561D02*
X128977693Y-56239085D01*
X128977693Y-56239085D02*
X128977693Y-55905752D01*
X128977693Y-55905752D02*
X129025312Y-55715276D01*
X129025312Y-55715276D02*
X129120550Y-55620038D01*
X129120550Y-55620038D02*
X129215788Y-55572419D01*
X130311026Y-56905752D02*
X130311026Y-55477180D01*
X130977693Y-56524800D02*
X131120550Y-56572419D01*
X131120550Y-56572419D02*
X131358645Y-56572419D01*
X131358645Y-56572419D02*
X131453883Y-56524800D01*
X131453883Y-56524800D02*
X131501502Y-56477180D01*
X131501502Y-56477180D02*
X131549121Y-56381942D01*
X131549121Y-56381942D02*
X131549121Y-56286704D01*
X131549121Y-56286704D02*
X131501502Y-56191466D01*
X131501502Y-56191466D02*
X131453883Y-56143847D01*
X131453883Y-56143847D02*
X131358645Y-56096228D01*
X131358645Y-56096228D02*
X131168169Y-56048609D01*
X131168169Y-56048609D02*
X131072931Y-56000990D01*
X131072931Y-56000990D02*
X131025312Y-55953371D01*
X131025312Y-55953371D02*
X130977693Y-55858133D01*
X130977693Y-55858133D02*
X130977693Y-55762895D01*
X130977693Y-55762895D02*
X131025312Y-55667657D01*
X131025312Y-55667657D02*
X131072931Y-55620038D01*
X131072931Y-55620038D02*
X131168169Y-55572419D01*
X131168169Y-55572419D02*
X131406264Y-55572419D01*
X131406264Y-55572419D02*
X131549121Y-55620038D01*
X132549121Y-56477180D02*
X132501502Y-56524800D01*
X132501502Y-56524800D02*
X132358645Y-56572419D01*
X132358645Y-56572419D02*
X132263407Y-56572419D01*
X132263407Y-56572419D02*
X132120550Y-56524800D01*
X132120550Y-56524800D02*
X132025312Y-56429561D01*
X132025312Y-56429561D02*
X131977693Y-56334323D01*
X131977693Y-56334323D02*
X131930074Y-56143847D01*
X131930074Y-56143847D02*
X131930074Y-56000990D01*
X131930074Y-56000990D02*
X131977693Y-55810514D01*
X131977693Y-55810514D02*
X132025312Y-55715276D01*
X132025312Y-55715276D02*
X132120550Y-55620038D01*
X132120550Y-55620038D02*
X132263407Y-55572419D01*
X132263407Y-55572419D02*
X132358645Y-55572419D01*
X132358645Y-55572419D02*
X132501502Y-55620038D01*
X132501502Y-55620038D02*
X132549121Y-55667657D01*
X132977693Y-56572419D02*
X132977693Y-55572419D01*
X133549121Y-56572419D02*
X133120550Y-56000990D01*
X133549121Y-55572419D02*
X132977693Y-56143847D01*
X134215788Y-56905752D02*
X134215788Y-55477180D01*
X135501502Y-56572419D02*
X135168169Y-56096228D01*
X134930074Y-56572419D02*
X134930074Y-55572419D01*
X134930074Y-55572419D02*
X135311026Y-55572419D01*
X135311026Y-55572419D02*
X135406264Y-55620038D01*
X135406264Y-55620038D02*
X135453883Y-55667657D01*
X135453883Y-55667657D02*
X135501502Y-55762895D01*
X135501502Y-55762895D02*
X135501502Y-55905752D01*
X135501502Y-55905752D02*
X135453883Y-56000990D01*
X135453883Y-56000990D02*
X135406264Y-56048609D01*
X135406264Y-56048609D02*
X135311026Y-56096228D01*
X135311026Y-56096228D02*
X134930074Y-56096228D01*
X136311026Y-56524800D02*
X136215788Y-56572419D01*
X136215788Y-56572419D02*
X136025312Y-56572419D01*
X136025312Y-56572419D02*
X135930074Y-56524800D01*
X135930074Y-56524800D02*
X135882455Y-56429561D01*
X135882455Y-56429561D02*
X135882455Y-56048609D01*
X135882455Y-56048609D02*
X135930074Y-55953371D01*
X135930074Y-55953371D02*
X136025312Y-55905752D01*
X136025312Y-55905752D02*
X136215788Y-55905752D01*
X136215788Y-55905752D02*
X136311026Y-55953371D01*
X136311026Y-55953371D02*
X136358645Y-56048609D01*
X136358645Y-56048609D02*
X136358645Y-56143847D01*
X136358645Y-56143847D02*
X135882455Y-56239085D01*
X136739598Y-56524800D02*
X136834836Y-56572419D01*
X136834836Y-56572419D02*
X137025312Y-56572419D01*
X137025312Y-56572419D02*
X137120550Y-56524800D01*
X137120550Y-56524800D02*
X137168169Y-56429561D01*
X137168169Y-56429561D02*
X137168169Y-56381942D01*
X137168169Y-56381942D02*
X137120550Y-56286704D01*
X137120550Y-56286704D02*
X137025312Y-56239085D01*
X137025312Y-56239085D02*
X136882455Y-56239085D01*
X136882455Y-56239085D02*
X136787217Y-56191466D01*
X136787217Y-56191466D02*
X136739598Y-56096228D01*
X136739598Y-56096228D02*
X136739598Y-56048609D01*
X136739598Y-56048609D02*
X136787217Y-55953371D01*
X136787217Y-55953371D02*
X136882455Y-55905752D01*
X136882455Y-55905752D02*
X137025312Y-55905752D01*
X137025312Y-55905752D02*
X137120550Y-55953371D01*
X137977693Y-56524800D02*
X137882455Y-56572419D01*
X137882455Y-56572419D02*
X137691979Y-56572419D01*
X137691979Y-56572419D02*
X137596741Y-56524800D01*
X137596741Y-56524800D02*
X137549122Y-56429561D01*
X137549122Y-56429561D02*
X137549122Y-56048609D01*
X137549122Y-56048609D02*
X137596741Y-55953371D01*
X137596741Y-55953371D02*
X137691979Y-55905752D01*
X137691979Y-55905752D02*
X137882455Y-55905752D01*
X137882455Y-55905752D02*
X137977693Y-55953371D01*
X137977693Y-55953371D02*
X138025312Y-56048609D01*
X138025312Y-56048609D02*
X138025312Y-56143847D01*
X138025312Y-56143847D02*
X137549122Y-56239085D01*
X138311027Y-55905752D02*
X138691979Y-55905752D01*
X138453884Y-55572419D02*
X138453884Y-56429561D01*
X138453884Y-56429561D02*
X138501503Y-56524800D01*
X138501503Y-56524800D02*
X138596741Y-56572419D01*
X138596741Y-56572419D02*
X138691979Y-56572419D01*
D11*
X130434362Y-77410893D02*
X131200407Y-76768105D01*
X131200407Y-76768105D02*
X131353451Y-76950497D01*
X131353451Y-76950497D02*
X131408800Y-77090540D01*
X131408800Y-77090540D02*
X131397061Y-77224715D01*
X131397061Y-77224715D02*
X131354713Y-77322411D01*
X131354713Y-77322411D02*
X131239409Y-77481325D01*
X131239409Y-77481325D02*
X131129974Y-77573152D01*
X131129974Y-77573152D02*
X130953452Y-77659109D01*
X130953452Y-77659109D02*
X130849886Y-77683849D01*
X130849886Y-77683849D02*
X130715712Y-77672110D01*
X130715712Y-77672110D02*
X130587407Y-77593284D01*
X130587407Y-77593284D02*
X130434362Y-77410893D01*
X130851148Y-78055763D02*
X131340891Y-78639416D01*
X131566893Y-78760590D02*
X132332937Y-78117803D01*
X131646981Y-79004199D02*
X132136724Y-79587852D01*
X133025204Y-79090978D02*
X133092291Y-79096847D01*
X133092291Y-79096847D02*
X133189987Y-79139195D01*
X133189987Y-79139195D02*
X133343032Y-79321587D01*
X133343032Y-79321587D02*
X133367771Y-79425152D01*
X133367771Y-79425152D02*
X133361902Y-79492239D01*
X133361902Y-79492239D02*
X133319554Y-79589936D01*
X133319554Y-79589936D02*
X133246598Y-79651153D01*
X133246598Y-79651153D02*
X133106554Y-79706502D01*
X133106554Y-79706502D02*
X132301507Y-79636069D01*
X132301507Y-79636069D02*
X132699423Y-80110287D01*
X115098870Y-71584091D02*
X114792781Y-71948874D01*
X114792781Y-71948874D02*
X114026737Y-71306086D01*
X115246046Y-71334612D02*
X115374351Y-71255786D01*
X115374351Y-71255786D02*
X115527396Y-71073394D01*
X115527396Y-71073394D02*
X115552135Y-70969829D01*
X115552135Y-70969829D02*
X115546266Y-70902742D01*
X115546266Y-70902742D02*
X115503918Y-70805045D01*
X115503918Y-70805045D02*
X115430961Y-70743828D01*
X115430961Y-70743828D02*
X115327396Y-70719088D01*
X115327396Y-70719088D02*
X115260309Y-70724957D01*
X115260309Y-70724957D02*
X115162613Y-70767305D01*
X115162613Y-70767305D02*
X115003698Y-70882609D01*
X115003698Y-70882609D02*
X114906002Y-70924957D01*
X114906002Y-70924957D02*
X114838915Y-70930826D01*
X114838915Y-70930826D02*
X114735350Y-70906087D01*
X114735350Y-70906087D02*
X114662393Y-70844869D01*
X114662393Y-70844869D02*
X114620045Y-70747173D01*
X114620045Y-70747173D02*
X114614176Y-70680086D01*
X114614176Y-70680086D02*
X114638915Y-70576520D01*
X114638915Y-70576520D02*
X114791960Y-70394128D01*
X114791960Y-70394128D02*
X114920265Y-70315302D01*
X115690096Y-69842346D02*
X116200792Y-70270872D01*
X115245225Y-69779867D02*
X115639355Y-70421392D01*
X115639355Y-70421392D02*
X116037271Y-69947174D01*
X167692234Y-77073973D02*
X168335022Y-76307928D01*
X168335022Y-76307928D02*
X168517413Y-76460973D01*
X168517413Y-76460973D02*
X168596239Y-76589278D01*
X168596239Y-76589278D02*
X168607978Y-76723453D01*
X168607978Y-76723453D02*
X168583238Y-76827018D01*
X168583238Y-76827018D02*
X168497281Y-77003540D01*
X168497281Y-77003540D02*
X168405454Y-77112975D01*
X168405454Y-77112975D02*
X168246540Y-77228280D01*
X168246540Y-77228280D02*
X168148844Y-77270627D01*
X168148844Y-77270627D02*
X168014669Y-77282366D01*
X168014669Y-77282366D02*
X167874626Y-77227018D01*
X167874626Y-77227018D02*
X167692234Y-77073973D01*
X168859540Y-78053459D02*
X168421800Y-77686152D01*
X168640670Y-77869805D02*
X169283458Y-77103761D01*
X169283458Y-77103761D02*
X169118674Y-77151978D01*
X169118674Y-77151978D02*
X168984500Y-77163717D01*
X168984500Y-77163717D02*
X168880934Y-77138977D01*
X175680061Y-69442982D02*
X174914017Y-68800195D01*
X176047368Y-69005243D02*
X175334148Y-68966240D01*
X175281324Y-68362455D02*
X175351756Y-69167502D01*
X186563478Y-121589977D02*
X186498430Y-121607407D01*
X186498430Y-121607407D02*
X186350902Y-121577218D01*
X186350902Y-121577218D02*
X186268423Y-121529599D01*
X186268423Y-121529599D02*
X186168515Y-121416931D01*
X186168515Y-121416931D02*
X186133656Y-121286833D01*
X186133656Y-121286833D02*
X186140035Y-121180545D01*
X186140035Y-121180545D02*
X186194034Y-120991778D01*
X186194034Y-120991778D02*
X186265463Y-120868060D01*
X186265463Y-120868060D02*
X186401940Y-120726913D01*
X186401940Y-120726913D02*
X186490798Y-120668244D01*
X186490798Y-120668244D02*
X186620896Y-120633384D01*
X186620896Y-120633384D02*
X186768423Y-120663573D01*
X186768423Y-120663573D02*
X186850902Y-120711192D01*
X186850902Y-120711192D02*
X186950810Y-120823860D01*
X186950810Y-120823860D02*
X186968240Y-120888909D01*
X187340645Y-122148646D02*
X186845774Y-121862932D01*
X187093210Y-122005789D02*
X187593210Y-121139764D01*
X187593210Y-121139764D02*
X187439302Y-121215863D01*
X187439302Y-121215863D02*
X187309205Y-121250722D01*
X187309205Y-121250722D02*
X187202917Y-121244342D01*
X188376756Y-121592145D02*
X188459235Y-121639764D01*
X188459235Y-121639764D02*
X188517904Y-121728622D01*
X188517904Y-121728622D02*
X188535334Y-121793671D01*
X188535334Y-121793671D02*
X188528954Y-121899959D01*
X188528954Y-121899959D02*
X188474955Y-122088726D01*
X188474955Y-122088726D02*
X188355908Y-122294922D01*
X188355908Y-122294922D02*
X188219430Y-122436070D01*
X188219430Y-122436070D02*
X188130572Y-122494739D01*
X188130572Y-122494739D02*
X188065523Y-122512169D01*
X188065523Y-122512169D02*
X187959235Y-122505789D01*
X187959235Y-122505789D02*
X187876756Y-122458170D01*
X187876756Y-122458170D02*
X187818087Y-122369312D01*
X187818087Y-122369312D02*
X187800658Y-122304263D01*
X187800658Y-122304263D02*
X187807037Y-122197975D01*
X187807037Y-122197975D02*
X187861036Y-122009208D01*
X187861036Y-122009208D02*
X187980084Y-121803011D01*
X187980084Y-121803011D02*
X188116561Y-121661864D01*
X188116561Y-121661864D02*
X188205419Y-121603195D01*
X188205419Y-121603195D02*
X188270468Y-121585765D01*
X188270468Y-121585765D02*
X188376756Y-121592145D01*
D10*
X111197619Y-57907419D02*
X111197619Y-56907419D01*
X111626190Y-57859800D02*
X111769047Y-57907419D01*
X111769047Y-57907419D02*
X112007142Y-57907419D01*
X112007142Y-57907419D02*
X112102380Y-57859800D01*
X112102380Y-57859800D02*
X112149999Y-57812180D01*
X112149999Y-57812180D02*
X112197618Y-57716942D01*
X112197618Y-57716942D02*
X112197618Y-57621704D01*
X112197618Y-57621704D02*
X112149999Y-57526466D01*
X112149999Y-57526466D02*
X112102380Y-57478847D01*
X112102380Y-57478847D02*
X112007142Y-57431228D01*
X112007142Y-57431228D02*
X111816666Y-57383609D01*
X111816666Y-57383609D02*
X111721428Y-57335990D01*
X111721428Y-57335990D02*
X111673809Y-57288371D01*
X111673809Y-57288371D02*
X111626190Y-57193133D01*
X111626190Y-57193133D02*
X111626190Y-57097895D01*
X111626190Y-57097895D02*
X111673809Y-57002657D01*
X111673809Y-57002657D02*
X111721428Y-56955038D01*
X111721428Y-56955038D02*
X111816666Y-56907419D01*
X111816666Y-56907419D02*
X112054761Y-56907419D01*
X112054761Y-56907419D02*
X112197618Y-56955038D01*
X112626190Y-57907419D02*
X112626190Y-56907419D01*
X112626190Y-56907419D02*
X113007142Y-56907419D01*
X113007142Y-56907419D02*
X113102380Y-56955038D01*
X113102380Y-56955038D02*
X113149999Y-57002657D01*
X113149999Y-57002657D02*
X113197618Y-57097895D01*
X113197618Y-57097895D02*
X113197618Y-57240752D01*
X113197618Y-57240752D02*
X113149999Y-57335990D01*
X113149999Y-57335990D02*
X113102380Y-57383609D01*
X113102380Y-57383609D02*
X113007142Y-57431228D01*
X113007142Y-57431228D02*
X112626190Y-57431228D01*
X114149999Y-57907419D02*
X113578571Y-57907419D01*
X113864285Y-57907419D02*
X113864285Y-56907419D01*
X113864285Y-56907419D02*
X113769047Y-57050276D01*
X113769047Y-57050276D02*
X113673809Y-57145514D01*
X113673809Y-57145514D02*
X113578571Y-57193133D01*
D11*
X167579898Y-59779525D02*
X167479043Y-59207077D01*
X167062008Y-59538029D02*
X167484627Y-58631721D01*
X167484627Y-58631721D02*
X167829887Y-58792719D01*
X167829887Y-58792719D02*
X167896077Y-58876125D01*
X167896077Y-58876125D02*
X167919110Y-58939408D01*
X167919110Y-58939408D02*
X167922018Y-59045847D01*
X167922018Y-59045847D02*
X167861644Y-59175320D01*
X167861644Y-59175320D02*
X167778237Y-59241510D01*
X167778237Y-59241510D02*
X167714955Y-59264543D01*
X167714955Y-59264543D02*
X167608515Y-59267451D01*
X167608515Y-59267451D02*
X167263255Y-59106454D01*
X168443049Y-60182019D02*
X167925159Y-59940523D01*
X168184104Y-60061271D02*
X168606722Y-59154963D01*
X168606722Y-59154963D02*
X168460033Y-59244186D01*
X168460033Y-59244186D02*
X168333468Y-59290252D01*
X168333468Y-59290252D02*
X168227029Y-59293160D01*
X168575429Y-60348832D02*
X169265950Y-60670827D01*
X169996719Y-60906507D02*
X169478829Y-60665011D01*
X169737774Y-60785759D02*
X170160393Y-59879451D01*
X170160393Y-59879451D02*
X170013704Y-59968675D01*
X170013704Y-59968675D02*
X169887139Y-60014740D01*
X169887139Y-60014740D02*
X169780699Y-60017648D01*
X123794748Y-63385754D02*
X123404676Y-63658886D01*
X123404676Y-63658886D02*
X122831099Y-62839734D01*
X124001479Y-63182868D02*
X124145813Y-63139936D01*
X124145813Y-63139936D02*
X124340850Y-63003370D01*
X124340850Y-63003370D02*
X124391551Y-62909736D01*
X124391551Y-62909736D02*
X124403245Y-62843416D01*
X124403245Y-62843416D02*
X124387626Y-62738088D01*
X124387626Y-62738088D02*
X124333000Y-62660074D01*
X124333000Y-62660074D02*
X124239366Y-62609372D01*
X124239366Y-62609372D02*
X124173046Y-62597678D01*
X124173046Y-62597678D02*
X124067718Y-62613297D01*
X124067718Y-62613297D02*
X123884376Y-62683543D01*
X123884376Y-62683543D02*
X123779048Y-62699162D01*
X123779048Y-62699162D02*
X123712728Y-62687468D01*
X123712728Y-62687468D02*
X123619094Y-62636767D01*
X123619094Y-62636767D02*
X123564468Y-62558752D01*
X123564468Y-62558752D02*
X123548849Y-62453424D01*
X123548849Y-62453424D02*
X123560543Y-62387104D01*
X123560543Y-62387104D02*
X123611244Y-62293470D01*
X123611244Y-62293470D02*
X123806280Y-62156905D01*
X123806280Y-62156905D02*
X123950615Y-62113972D01*
X125277023Y-62347854D02*
X124808937Y-62675612D01*
X125042980Y-62511733D02*
X124469404Y-61692581D01*
X124469404Y-61692581D02*
X124473329Y-61864229D01*
X124473329Y-61864229D02*
X124449940Y-61996870D01*
X124449940Y-61996870D02*
X124399239Y-62090503D01*
X148425557Y-67017026D02*
X148380060Y-67066677D01*
X148380060Y-67066677D02*
X148239416Y-67120482D01*
X148239416Y-67120482D02*
X148144269Y-67124636D01*
X148144269Y-67124636D02*
X147999470Y-67083294D01*
X147999470Y-67083294D02*
X147900169Y-66992301D01*
X147900169Y-66992301D02*
X147848441Y-66899230D01*
X147848441Y-66899230D02*
X147792558Y-66711012D01*
X147792558Y-66711012D02*
X147786327Y-66568291D01*
X147786327Y-66568291D02*
X147825592Y-66375919D01*
X147825592Y-66375919D02*
X147869012Y-66278695D01*
X147869012Y-66278695D02*
X147960005Y-66179393D01*
X147960005Y-66179393D02*
X148100649Y-66125588D01*
X148100649Y-66125588D02*
X148195797Y-66121434D01*
X148195797Y-66121434D02*
X148340595Y-66162776D01*
X148340595Y-66162776D02*
X148390246Y-66208273D01*
X148719108Y-66098586D02*
X149385140Y-66069506D01*
X149385140Y-66069506D02*
X149000596Y-67087248D01*
X187470540Y-84573772D02*
X186994350Y-84574603D01*
X187993767Y-84239525D02*
X187470540Y-84573772D01*
X187470540Y-84573772D02*
X187994930Y-84906191D01*
X186996428Y-85765078D02*
X186995430Y-85193650D01*
X186995929Y-85479364D02*
X187995928Y-85477619D01*
X187995928Y-85477619D02*
X187852904Y-85382630D01*
X187852904Y-85382630D02*
X187757500Y-85287558D01*
X187757500Y-85287558D02*
X187709715Y-85192404D01*
X117688180Y-68553813D02*
X117351463Y-68890530D01*
X117351463Y-68890530D02*
X116644356Y-68183424D01*
X117856539Y-68318110D02*
X117991226Y-68250767D01*
X117991226Y-68250767D02*
X118159585Y-68082408D01*
X118159585Y-68082408D02*
X118193257Y-67981393D01*
X118193257Y-67981393D02*
X118193257Y-67914049D01*
X118193257Y-67914049D02*
X118159585Y-67813034D01*
X118159585Y-67813034D02*
X118092242Y-67745691D01*
X118092242Y-67745691D02*
X117991226Y-67712019D01*
X117991226Y-67712019D02*
X117923883Y-67712019D01*
X117923883Y-67712019D02*
X117822868Y-67745691D01*
X117822868Y-67745691D02*
X117654509Y-67846706D01*
X117654509Y-67846706D02*
X117553494Y-67880378D01*
X117553494Y-67880378D02*
X117486150Y-67880378D01*
X117486150Y-67880378D02*
X117385135Y-67846706D01*
X117385135Y-67846706D02*
X117317791Y-67779362D01*
X117317791Y-67779362D02*
X117284120Y-67678347D01*
X117284120Y-67678347D02*
X117284120Y-67611004D01*
X117284120Y-67611004D02*
X117317791Y-67509988D01*
X117317791Y-67509988D02*
X117486150Y-67341630D01*
X117486150Y-67341630D02*
X117620837Y-67274286D01*
X117822868Y-67004912D02*
X118260600Y-66567179D01*
X118260600Y-66567179D02*
X118294272Y-67072256D01*
X118294272Y-67072256D02*
X118395287Y-66971240D01*
X118395287Y-66971240D02*
X118496303Y-66937569D01*
X118496303Y-66937569D02*
X118563646Y-66937569D01*
X118563646Y-66937569D02*
X118664661Y-66971240D01*
X118664661Y-66971240D02*
X118833020Y-67139599D01*
X118833020Y-67139599D02*
X118866692Y-67240614D01*
X118866692Y-67240614D02*
X118866692Y-67307958D01*
X118866692Y-67307958D02*
X118833020Y-67408973D01*
X118833020Y-67408973D02*
X118630990Y-67611004D01*
X118630990Y-67611004D02*
X118529974Y-67644675D01*
X118529974Y-67644675D02*
X118462631Y-67644675D01*
X190823809Y-100319104D02*
X191299999Y-100319104D01*
X190728571Y-100604819D02*
X191061904Y-99604819D01*
X191061904Y-99604819D02*
X191395237Y-100604819D01*
X191585714Y-99604819D02*
X192157142Y-99604819D01*
X191871428Y-100604819D02*
X191871428Y-99604819D01*
X192490476Y-100604819D02*
X192490476Y-99604819D01*
X192490476Y-99604819D02*
X192823809Y-100319104D01*
X192823809Y-100319104D02*
X193157142Y-99604819D01*
X193157142Y-99604819D02*
X193157142Y-100604819D01*
X193633333Y-100081009D02*
X193966666Y-100081009D01*
X194109523Y-100604819D02*
X193633333Y-100604819D01*
X193633333Y-100604819D02*
X193633333Y-99604819D01*
X193633333Y-99604819D02*
X194109523Y-99604819D01*
X195061904Y-99652438D02*
X194966666Y-99604819D01*
X194966666Y-99604819D02*
X194823809Y-99604819D01*
X194823809Y-99604819D02*
X194680952Y-99652438D01*
X194680952Y-99652438D02*
X194585714Y-99747676D01*
X194585714Y-99747676D02*
X194538095Y-99842914D01*
X194538095Y-99842914D02*
X194490476Y-100033390D01*
X194490476Y-100033390D02*
X194490476Y-100176247D01*
X194490476Y-100176247D02*
X194538095Y-100366723D01*
X194538095Y-100366723D02*
X194585714Y-100461961D01*
X194585714Y-100461961D02*
X194680952Y-100557200D01*
X194680952Y-100557200D02*
X194823809Y-100604819D01*
X194823809Y-100604819D02*
X194919047Y-100604819D01*
X194919047Y-100604819D02*
X195061904Y-100557200D01*
X195061904Y-100557200D02*
X195109523Y-100509580D01*
X195109523Y-100509580D02*
X195109523Y-100176247D01*
X195109523Y-100176247D02*
X194919047Y-100176247D01*
X195490476Y-100319104D02*
X195966666Y-100319104D01*
X195395238Y-100604819D02*
X195728571Y-99604819D01*
X195728571Y-99604819D02*
X196061904Y-100604819D01*
X196300000Y-99604819D02*
X196919047Y-99604819D01*
X196919047Y-99604819D02*
X196585714Y-99985771D01*
X196585714Y-99985771D02*
X196728571Y-99985771D01*
X196728571Y-99985771D02*
X196823809Y-100033390D01*
X196823809Y-100033390D02*
X196871428Y-100081009D01*
X196871428Y-100081009D02*
X196919047Y-100176247D01*
X196919047Y-100176247D02*
X196919047Y-100414342D01*
X196919047Y-100414342D02*
X196871428Y-100509580D01*
X196871428Y-100509580D02*
X196823809Y-100557200D01*
X196823809Y-100557200D02*
X196728571Y-100604819D01*
X196728571Y-100604819D02*
X196442857Y-100604819D01*
X196442857Y-100604819D02*
X196347619Y-100557200D01*
X196347619Y-100557200D02*
X196300000Y-100509580D01*
X197300000Y-99700057D02*
X197347619Y-99652438D01*
X197347619Y-99652438D02*
X197442857Y-99604819D01*
X197442857Y-99604819D02*
X197680952Y-99604819D01*
X197680952Y-99604819D02*
X197776190Y-99652438D01*
X197776190Y-99652438D02*
X197823809Y-99700057D01*
X197823809Y-99700057D02*
X197871428Y-99795295D01*
X197871428Y-99795295D02*
X197871428Y-99890533D01*
X197871428Y-99890533D02*
X197823809Y-100033390D01*
X197823809Y-100033390D02*
X197252381Y-100604819D01*
X197252381Y-100604819D02*
X197871428Y-100604819D01*
X198442857Y-100033390D02*
X198347619Y-99985771D01*
X198347619Y-99985771D02*
X198300000Y-99938152D01*
X198300000Y-99938152D02*
X198252381Y-99842914D01*
X198252381Y-99842914D02*
X198252381Y-99795295D01*
X198252381Y-99795295D02*
X198300000Y-99700057D01*
X198300000Y-99700057D02*
X198347619Y-99652438D01*
X198347619Y-99652438D02*
X198442857Y-99604819D01*
X198442857Y-99604819D02*
X198633333Y-99604819D01*
X198633333Y-99604819D02*
X198728571Y-99652438D01*
X198728571Y-99652438D02*
X198776190Y-99700057D01*
X198776190Y-99700057D02*
X198823809Y-99795295D01*
X198823809Y-99795295D02*
X198823809Y-99842914D01*
X198823809Y-99842914D02*
X198776190Y-99938152D01*
X198776190Y-99938152D02*
X198728571Y-99985771D01*
X198728571Y-99985771D02*
X198633333Y-100033390D01*
X198633333Y-100033390D02*
X198442857Y-100033390D01*
X198442857Y-100033390D02*
X198347619Y-100081009D01*
X198347619Y-100081009D02*
X198300000Y-100128628D01*
X198300000Y-100128628D02*
X198252381Y-100223866D01*
X198252381Y-100223866D02*
X198252381Y-100414342D01*
X198252381Y-100414342D02*
X198300000Y-100509580D01*
X198300000Y-100509580D02*
X198347619Y-100557200D01*
X198347619Y-100557200D02*
X198442857Y-100604819D01*
X198442857Y-100604819D02*
X198633333Y-100604819D01*
X198633333Y-100604819D02*
X198728571Y-100557200D01*
X198728571Y-100557200D02*
X198776190Y-100509580D01*
X198776190Y-100509580D02*
X198823809Y-100414342D01*
X198823809Y-100414342D02*
X198823809Y-100223866D01*
X198823809Y-100223866D02*
X198776190Y-100128628D01*
X198776190Y-100128628D02*
X198728571Y-100081009D01*
X198728571Y-100081009D02*
X198633333Y-100033390D01*
X199252381Y-100604819D02*
X199252381Y-99604819D01*
X199252381Y-99604819D02*
X199633333Y-99604819D01*
X199633333Y-99604819D02*
X199728571Y-99652438D01*
X199728571Y-99652438D02*
X199776190Y-99700057D01*
X199776190Y-99700057D02*
X199823809Y-99795295D01*
X199823809Y-99795295D02*
X199823809Y-99938152D01*
X199823809Y-99938152D02*
X199776190Y-100033390D01*
X199776190Y-100033390D02*
X199728571Y-100081009D01*
X199728571Y-100081009D02*
X199633333Y-100128628D01*
X199633333Y-100128628D02*
X199252381Y-100128628D01*
X200776190Y-100604819D02*
X200204762Y-100604819D01*
X200490476Y-100604819D02*
X200490476Y-99604819D01*
X200490476Y-99604819D02*
X200395238Y-99747676D01*
X200395238Y-99747676D02*
X200300000Y-99842914D01*
X200300000Y-99842914D02*
X200204762Y-99890533D01*
X120643691Y-65846609D02*
X120278908Y-66152698D01*
X120278908Y-66152698D02*
X119636121Y-65386654D01*
X120831952Y-65626477D02*
X120971996Y-65571128D01*
X120971996Y-65571128D02*
X121154388Y-65418084D01*
X121154388Y-65418084D02*
X121196735Y-65320387D01*
X121196735Y-65320387D02*
X121202605Y-65253300D01*
X121202605Y-65253300D02*
X121177865Y-65149735D01*
X121177865Y-65149735D02*
X121116647Y-65076778D01*
X121116647Y-65076778D02*
X121018951Y-65034430D01*
X121018951Y-65034430D02*
X120951864Y-65028561D01*
X120951864Y-65028561D02*
X120848298Y-65053301D01*
X120848298Y-65053301D02*
X120671776Y-65139258D01*
X120671776Y-65139258D02*
X120568211Y-65163998D01*
X120568211Y-65163998D02*
X120501123Y-65158128D01*
X120501123Y-65158128D02*
X120403427Y-65115780D01*
X120403427Y-65115780D02*
X120342209Y-65042824D01*
X120342209Y-65042824D02*
X120317470Y-64939258D01*
X120317470Y-64939258D02*
X120323339Y-64872171D01*
X120323339Y-64872171D02*
X120365687Y-64774475D01*
X120365687Y-64774475D02*
X120548078Y-64621430D01*
X120548078Y-64621430D02*
X120688122Y-64566082D01*
X121010558Y-64357689D02*
X121016427Y-64290601D01*
X121016427Y-64290601D02*
X121058775Y-64192905D01*
X121058775Y-64192905D02*
X121241166Y-64039860D01*
X121241166Y-64039860D02*
X121344732Y-64015121D01*
X121344732Y-64015121D02*
X121411819Y-64020990D01*
X121411819Y-64020990D02*
X121509515Y-64063338D01*
X121509515Y-64063338D02*
X121570733Y-64136295D01*
X121570733Y-64136295D02*
X121626082Y-64276338D01*
X121626082Y-64276338D02*
X121555649Y-65081385D01*
X121555649Y-65081385D02*
X122029867Y-64683469D01*
X126876190Y-81181185D02*
X127518977Y-80415141D01*
X127518977Y-80415141D02*
X127701369Y-80568186D01*
X127701369Y-80568186D02*
X127780195Y-80696491D01*
X127780195Y-80696491D02*
X127791933Y-80830665D01*
X127791933Y-80830665D02*
X127767194Y-80934231D01*
X127767194Y-80934231D02*
X127681237Y-81110753D01*
X127681237Y-81110753D02*
X127589410Y-81220188D01*
X127589410Y-81220188D02*
X127430496Y-81335492D01*
X127430496Y-81335492D02*
X127332799Y-81377840D01*
X127332799Y-81377840D02*
X127198625Y-81389578D01*
X127198625Y-81389578D02*
X127058581Y-81334230D01*
X127058581Y-81334230D02*
X126876190Y-81181185D01*
X127398625Y-81743885D02*
X127982278Y-82233628D01*
X128225887Y-82313716D02*
X128868675Y-81547672D01*
X128347060Y-82539717D02*
X128930713Y-83029460D01*
X130181894Y-82649593D02*
X129817111Y-82343504D01*
X129817111Y-82343504D02*
X129474543Y-82677678D01*
X129474543Y-82677678D02*
X129541630Y-82671808D01*
X129541630Y-82671808D02*
X129645196Y-82696548D01*
X129645196Y-82696548D02*
X129827587Y-82849593D01*
X129827587Y-82849593D02*
X129869935Y-82947289D01*
X129869935Y-82947289D02*
X129875804Y-83014376D01*
X129875804Y-83014376D02*
X129851065Y-83117942D01*
X129851065Y-83117942D02*
X129698020Y-83300333D01*
X129698020Y-83300333D02*
X129600324Y-83342681D01*
X129600324Y-83342681D02*
X129533237Y-83348550D01*
X129533237Y-83348550D02*
X129429671Y-83323811D01*
X129429671Y-83323811D02*
X129247280Y-83170766D01*
X129247280Y-83170766D02*
X129204932Y-83073070D01*
X129204932Y-83073070D02*
X129199063Y-83005983D01*
X153516667Y-118507200D02*
X153659524Y-118554819D01*
X153659524Y-118554819D02*
X153897619Y-118554819D01*
X153897619Y-118554819D02*
X153992857Y-118507200D01*
X153992857Y-118507200D02*
X154040476Y-118459580D01*
X154040476Y-118459580D02*
X154088095Y-118364342D01*
X154088095Y-118364342D02*
X154088095Y-118269104D01*
X154088095Y-118269104D02*
X154040476Y-118173866D01*
X154040476Y-118173866D02*
X153992857Y-118126247D01*
X153992857Y-118126247D02*
X153897619Y-118078628D01*
X153897619Y-118078628D02*
X153707143Y-118031009D01*
X153707143Y-118031009D02*
X153611905Y-117983390D01*
X153611905Y-117983390D02*
X153564286Y-117935771D01*
X153564286Y-117935771D02*
X153516667Y-117840533D01*
X153516667Y-117840533D02*
X153516667Y-117745295D01*
X153516667Y-117745295D02*
X153564286Y-117650057D01*
X153564286Y-117650057D02*
X153611905Y-117602438D01*
X153611905Y-117602438D02*
X153707143Y-117554819D01*
X153707143Y-117554819D02*
X153945238Y-117554819D01*
X153945238Y-117554819D02*
X154088095Y-117602438D01*
X154421429Y-117554819D02*
X154659524Y-118554819D01*
X154659524Y-118554819D02*
X154850000Y-117840533D01*
X154850000Y-117840533D02*
X155040476Y-118554819D01*
X155040476Y-118554819D02*
X155278572Y-117554819D01*
X156183333Y-118554819D02*
X155611905Y-118554819D01*
X155897619Y-118554819D02*
X155897619Y-117554819D01*
X155897619Y-117554819D02*
X155802381Y-117697676D01*
X155802381Y-117697676D02*
X155707143Y-117792914D01*
X155707143Y-117792914D02*
X155611905Y-117840533D01*
X128549375Y-79192587D02*
X129256482Y-78485480D01*
X129256482Y-78485480D02*
X129424841Y-78653839D01*
X129424841Y-78653839D02*
X129492184Y-78788526D01*
X129492184Y-78788526D02*
X129492184Y-78923213D01*
X129492184Y-78923213D02*
X129458513Y-79024228D01*
X129458513Y-79024228D02*
X129357497Y-79192587D01*
X129357497Y-79192587D02*
X129256482Y-79293602D01*
X129256482Y-79293602D02*
X129088123Y-79394617D01*
X129088123Y-79394617D02*
X128987108Y-79428289D01*
X128987108Y-79428289D02*
X128852421Y-79428289D01*
X128852421Y-79428289D02*
X128717734Y-79360945D01*
X128717734Y-79360945D02*
X128549375Y-79192587D01*
X129020780Y-79798678D02*
X129559528Y-80337426D01*
X129795230Y-80438442D02*
X130502337Y-79731335D01*
X129896245Y-80674143D02*
X130434993Y-81212891D01*
X131310459Y-80539457D02*
X131748192Y-80977189D01*
X131748192Y-80977189D02*
X131243115Y-81010861D01*
X131243115Y-81010861D02*
X131344131Y-81111876D01*
X131344131Y-81111876D02*
X131377802Y-81212892D01*
X131377802Y-81212892D02*
X131377802Y-81280235D01*
X131377802Y-81280235D02*
X131344131Y-81381250D01*
X131344131Y-81381250D02*
X131175772Y-81549609D01*
X131175772Y-81549609D02*
X131074757Y-81583281D01*
X131074757Y-81583281D02*
X131007413Y-81583281D01*
X131007413Y-81583281D02*
X130906398Y-81549609D01*
X130906398Y-81549609D02*
X130704367Y-81347579D01*
X130704367Y-81347579D02*
X130670696Y-81246563D01*
X130670696Y-81246563D02*
X130670696Y-81179220D01*
X144091359Y-67540043D02*
X144052732Y-67595207D01*
X144052732Y-67595207D02*
X143920314Y-67666910D01*
X143920314Y-67666910D02*
X143826523Y-67683448D01*
X143826523Y-67683448D02*
X143677567Y-67661359D01*
X143677567Y-67661359D02*
X143567238Y-67584106D01*
X143567238Y-67584106D02*
X143503805Y-67498584D01*
X143503805Y-67498584D02*
X143423833Y-67319270D01*
X143423833Y-67319270D02*
X143399026Y-67178583D01*
X143399026Y-67178583D02*
X143412846Y-66982732D01*
X143412846Y-66982732D02*
X143443204Y-66880672D01*
X143443204Y-66880672D02*
X143520457Y-66770343D01*
X143520457Y-66770343D02*
X143652875Y-66698640D01*
X143652875Y-66698640D02*
X143746666Y-66682102D01*
X143746666Y-66682102D02*
X143895622Y-66704191D01*
X143895622Y-66704191D02*
X143950787Y-66742818D01*
X144571417Y-66971859D02*
X144469356Y-66941502D01*
X144469356Y-66941502D02*
X144414192Y-66902875D01*
X144414192Y-66902875D02*
X144350758Y-66817353D01*
X144350758Y-66817353D02*
X144342489Y-66770457D01*
X144342489Y-66770457D02*
X144372847Y-66668397D01*
X144372847Y-66668397D02*
X144411474Y-66613232D01*
X144411474Y-66613232D02*
X144496996Y-66549799D01*
X144496996Y-66549799D02*
X144684578Y-66516723D01*
X144684578Y-66516723D02*
X144786639Y-66547081D01*
X144786639Y-66547081D02*
X144841803Y-66585707D01*
X144841803Y-66585707D02*
X144905237Y-66671230D01*
X144905237Y-66671230D02*
X144913506Y-66718125D01*
X144913506Y-66718125D02*
X144883148Y-66820185D01*
X144883148Y-66820185D02*
X144844521Y-66875350D01*
X144844521Y-66875350D02*
X144758999Y-66938783D01*
X144758999Y-66938783D02*
X144571417Y-66971859D01*
X144571417Y-66971859D02*
X144485894Y-67035293D01*
X144485894Y-67035293D02*
X144447268Y-67090457D01*
X144447268Y-67090457D02*
X144416910Y-67192518D01*
X144416910Y-67192518D02*
X144449986Y-67380100D01*
X144449986Y-67380100D02*
X144513419Y-67465622D01*
X144513419Y-67465622D02*
X144568584Y-67504249D01*
X144568584Y-67504249D02*
X144670644Y-67534607D01*
X144670644Y-67534607D02*
X144858227Y-67501531D01*
X144858227Y-67501531D02*
X144943749Y-67438097D01*
X144943749Y-67438097D02*
X144982375Y-67382933D01*
X144982375Y-67382933D02*
X145012733Y-67280872D01*
X145012733Y-67280872D02*
X144979657Y-67093290D01*
X144979657Y-67093290D02*
X144916224Y-67007768D01*
X144916224Y-67007768D02*
X144861059Y-66969141D01*
X144861059Y-66969141D02*
X144758999Y-66938783D01*
X160493360Y-57424340D02*
X160294632Y-56878102D01*
X159941402Y-57276443D02*
X160200221Y-56310517D01*
X160200221Y-56310517D02*
X160568193Y-56409115D01*
X160568193Y-56409115D02*
X160647861Y-56479761D01*
X160647861Y-56479761D02*
X160681533Y-56538082D01*
X160681533Y-56538082D02*
X160702880Y-56642400D01*
X160702880Y-56642400D02*
X160665906Y-56780389D01*
X160665906Y-56780389D02*
X160595260Y-56860057D01*
X160595260Y-56860057D02*
X160536939Y-56893729D01*
X160536939Y-56893729D02*
X160432621Y-56915076D01*
X160432621Y-56915076D02*
X160064649Y-56816478D01*
X161413289Y-57670834D02*
X160861332Y-57522937D01*
X161137310Y-57596886D02*
X161396130Y-56630960D01*
X161396130Y-56630960D02*
X161267162Y-56744300D01*
X161267162Y-56744300D02*
X161150520Y-56811643D01*
X161150520Y-56811643D02*
X161046202Y-56832990D01*
X161572626Y-57812126D02*
X162308569Y-58009321D01*
X162730027Y-56988377D02*
X163327981Y-57148598D01*
X163327981Y-57148598D02*
X162907408Y-57430297D01*
X162907408Y-57430297D02*
X163045398Y-57467271D01*
X163045398Y-57467271D02*
X163125066Y-57537917D01*
X163125066Y-57537917D02*
X163158738Y-57596238D01*
X163158738Y-57596238D02*
X163180085Y-57700556D01*
X163180085Y-57700556D02*
X163118461Y-57930538D01*
X163118461Y-57930538D02*
X163047815Y-58010206D01*
X163047815Y-58010206D02*
X162989494Y-58043878D01*
X162989494Y-58043878D02*
X162885177Y-58065225D01*
X162885177Y-58065225D02*
X162609198Y-57991277D01*
X162609198Y-57991277D02*
X162529530Y-57920631D01*
X162529530Y-57920631D02*
X162495858Y-57862310D01*
X143866667Y-118407200D02*
X144009524Y-118454819D01*
X144009524Y-118454819D02*
X144247619Y-118454819D01*
X144247619Y-118454819D02*
X144342857Y-118407200D01*
X144342857Y-118407200D02*
X144390476Y-118359580D01*
X144390476Y-118359580D02*
X144438095Y-118264342D01*
X144438095Y-118264342D02*
X144438095Y-118169104D01*
X144438095Y-118169104D02*
X144390476Y-118073866D01*
X144390476Y-118073866D02*
X144342857Y-118026247D01*
X144342857Y-118026247D02*
X144247619Y-117978628D01*
X144247619Y-117978628D02*
X144057143Y-117931009D01*
X144057143Y-117931009D02*
X143961905Y-117883390D01*
X143961905Y-117883390D02*
X143914286Y-117835771D01*
X143914286Y-117835771D02*
X143866667Y-117740533D01*
X143866667Y-117740533D02*
X143866667Y-117645295D01*
X143866667Y-117645295D02*
X143914286Y-117550057D01*
X143914286Y-117550057D02*
X143961905Y-117502438D01*
X143961905Y-117502438D02*
X144057143Y-117454819D01*
X144057143Y-117454819D02*
X144295238Y-117454819D01*
X144295238Y-117454819D02*
X144438095Y-117502438D01*
X144771429Y-117454819D02*
X145009524Y-118454819D01*
X145009524Y-118454819D02*
X145200000Y-117740533D01*
X145200000Y-117740533D02*
X145390476Y-118454819D01*
X145390476Y-118454819D02*
X145628572Y-117454819D01*
X145961905Y-117550057D02*
X146009524Y-117502438D01*
X146009524Y-117502438D02*
X146104762Y-117454819D01*
X146104762Y-117454819D02*
X146342857Y-117454819D01*
X146342857Y-117454819D02*
X146438095Y-117502438D01*
X146438095Y-117502438D02*
X146485714Y-117550057D01*
X146485714Y-117550057D02*
X146533333Y-117645295D01*
X146533333Y-117645295D02*
X146533333Y-117740533D01*
X146533333Y-117740533D02*
X146485714Y-117883390D01*
X146485714Y-117883390D02*
X145914286Y-118454819D01*
X145914286Y-118454819D02*
X146533333Y-118454819D01*
X187033333Y-77609580D02*
X186985714Y-77657200D01*
X186985714Y-77657200D02*
X186842857Y-77704819D01*
X186842857Y-77704819D02*
X186747619Y-77704819D01*
X186747619Y-77704819D02*
X186604762Y-77657200D01*
X186604762Y-77657200D02*
X186509524Y-77561961D01*
X186509524Y-77561961D02*
X186461905Y-77466723D01*
X186461905Y-77466723D02*
X186414286Y-77276247D01*
X186414286Y-77276247D02*
X186414286Y-77133390D01*
X186414286Y-77133390D02*
X186461905Y-76942914D01*
X186461905Y-76942914D02*
X186509524Y-76847676D01*
X186509524Y-76847676D02*
X186604762Y-76752438D01*
X186604762Y-76752438D02*
X186747619Y-76704819D01*
X186747619Y-76704819D02*
X186842857Y-76704819D01*
X186842857Y-76704819D02*
X186985714Y-76752438D01*
X186985714Y-76752438D02*
X187033333Y-76800057D01*
X187985714Y-77704819D02*
X187414286Y-77704819D01*
X187700000Y-77704819D02*
X187700000Y-76704819D01*
X187700000Y-76704819D02*
X187604762Y-76847676D01*
X187604762Y-76847676D02*
X187509524Y-76942914D01*
X187509524Y-76942914D02*
X187414286Y-76990533D01*
X170327887Y-79386411D02*
X170260543Y-79386411D01*
X170260543Y-79386411D02*
X170125856Y-79319067D01*
X170125856Y-79319067D02*
X170058513Y-79251724D01*
X170058513Y-79251724D02*
X169991169Y-79117037D01*
X169991169Y-79117037D02*
X169991169Y-78982350D01*
X169991169Y-78982350D02*
X170024841Y-78881335D01*
X170024841Y-78881335D02*
X170125856Y-78712976D01*
X170125856Y-78712976D02*
X170226871Y-78611961D01*
X170226871Y-78611961D02*
X170395230Y-78510945D01*
X170395230Y-78510945D02*
X170496245Y-78477274D01*
X170496245Y-78477274D02*
X170630932Y-78477274D01*
X170630932Y-78477274D02*
X170765619Y-78544617D01*
X170765619Y-78544617D02*
X170832963Y-78611961D01*
X170832963Y-78611961D02*
X170900306Y-78746648D01*
X170900306Y-78746648D02*
X170900306Y-78813991D01*
X171607413Y-79386411D02*
X171270696Y-79049693D01*
X171270696Y-79049693D02*
X170900306Y-79352739D01*
X170900306Y-79352739D02*
X170967650Y-79352739D01*
X170967650Y-79352739D02*
X171068665Y-79386411D01*
X171068665Y-79386411D02*
X171237024Y-79554770D01*
X171237024Y-79554770D02*
X171270696Y-79655785D01*
X171270696Y-79655785D02*
X171270696Y-79723128D01*
X171270696Y-79723128D02*
X171237024Y-79824144D01*
X171237024Y-79824144D02*
X171068665Y-79992502D01*
X171068665Y-79992502D02*
X170967650Y-80026174D01*
X170967650Y-80026174D02*
X170900306Y-80026174D01*
X170900306Y-80026174D02*
X170799291Y-79992502D01*
X170799291Y-79992502D02*
X170630932Y-79824144D01*
X170630932Y-79824144D02*
X170597261Y-79723128D01*
X170597261Y-79723128D02*
X170597261Y-79655785D01*
X107364286Y-124604819D02*
X107364286Y-123604819D01*
X107935714Y-124604819D02*
X107507143Y-124033390D01*
X107935714Y-123604819D02*
X107364286Y-124176247D01*
X108364286Y-124604819D02*
X108364286Y-123604819D01*
X108364286Y-123604819D02*
X108935714Y-124604819D01*
X108935714Y-124604819D02*
X108935714Y-123604819D01*
X109602381Y-123604819D02*
X109792857Y-123604819D01*
X109792857Y-123604819D02*
X109888095Y-123652438D01*
X109888095Y-123652438D02*
X109983333Y-123747676D01*
X109983333Y-123747676D02*
X110030952Y-123938152D01*
X110030952Y-123938152D02*
X110030952Y-124271485D01*
X110030952Y-124271485D02*
X109983333Y-124461961D01*
X109983333Y-124461961D02*
X109888095Y-124557200D01*
X109888095Y-124557200D02*
X109792857Y-124604819D01*
X109792857Y-124604819D02*
X109602381Y-124604819D01*
X109602381Y-124604819D02*
X109507143Y-124557200D01*
X109507143Y-124557200D02*
X109411905Y-124461961D01*
X109411905Y-124461961D02*
X109364286Y-124271485D01*
X109364286Y-124271485D02*
X109364286Y-123938152D01*
X109364286Y-123938152D02*
X109411905Y-123747676D01*
X109411905Y-123747676D02*
X109507143Y-123652438D01*
X109507143Y-123652438D02*
X109602381Y-123604819D01*
X110792857Y-124081009D02*
X110935714Y-124128628D01*
X110935714Y-124128628D02*
X110983333Y-124176247D01*
X110983333Y-124176247D02*
X111030952Y-124271485D01*
X111030952Y-124271485D02*
X111030952Y-124414342D01*
X111030952Y-124414342D02*
X110983333Y-124509580D01*
X110983333Y-124509580D02*
X110935714Y-124557200D01*
X110935714Y-124557200D02*
X110840476Y-124604819D01*
X110840476Y-124604819D02*
X110459524Y-124604819D01*
X110459524Y-124604819D02*
X110459524Y-123604819D01*
X110459524Y-123604819D02*
X110792857Y-123604819D01*
X110792857Y-123604819D02*
X110888095Y-123652438D01*
X110888095Y-123652438D02*
X110935714Y-123700057D01*
X110935714Y-123700057D02*
X110983333Y-123795295D01*
X110983333Y-123795295D02*
X110983333Y-123890533D01*
X110983333Y-123890533D02*
X110935714Y-123985771D01*
X110935714Y-123985771D02*
X110888095Y-124033390D01*
X110888095Y-124033390D02*
X110792857Y-124081009D01*
X110792857Y-124081009D02*
X110459524Y-124081009D01*
X111983333Y-124604819D02*
X111411905Y-124604819D01*
X111697619Y-124604819D02*
X111697619Y-123604819D01*
X111697619Y-123604819D02*
X111602381Y-123747676D01*
X111602381Y-123747676D02*
X111507143Y-123842914D01*
X111507143Y-123842914D02*
X111411905Y-123890533D01*
X190870356Y-133846225D02*
X190937699Y-133980912D01*
X190937699Y-133980912D02*
X191106058Y-134149270D01*
X191106058Y-134149270D02*
X191207073Y-134182942D01*
X191207073Y-134182942D02*
X191274417Y-134182942D01*
X191274417Y-134182942D02*
X191375432Y-134149270D01*
X191375432Y-134149270D02*
X191442776Y-134081927D01*
X191442776Y-134081927D02*
X191476447Y-133980912D01*
X191476447Y-133980912D02*
X191476447Y-133913568D01*
X191476447Y-133913568D02*
X191442776Y-133812553D01*
X191442776Y-133812553D02*
X191341760Y-133644194D01*
X191341760Y-133644194D02*
X191308089Y-133543179D01*
X191308089Y-133543179D02*
X191308089Y-133475835D01*
X191308089Y-133475835D02*
X191341760Y-133374820D01*
X191341760Y-133374820D02*
X191409104Y-133307477D01*
X191409104Y-133307477D02*
X191510119Y-133273805D01*
X191510119Y-133273805D02*
X191577463Y-133273805D01*
X191577463Y-133273805D02*
X191678478Y-133307477D01*
X191678478Y-133307477D02*
X191846837Y-133475835D01*
X191846837Y-133475835D02*
X191914180Y-133610522D01*
X192183554Y-133812553D02*
X191644806Y-134688018D01*
X191644806Y-134688018D02*
X192284569Y-134317629D01*
X192284569Y-134317629D02*
X191914180Y-134957392D01*
X191914180Y-134957392D02*
X192789646Y-134418644D01*
X192116211Y-135294110D02*
X192654959Y-135832858D01*
X192890661Y-135933873D02*
X193597768Y-135226766D01*
X193597768Y-135226766D02*
X193328394Y-135967545D01*
X193328394Y-135967545D02*
X194069172Y-135698171D01*
X194069172Y-135698171D02*
X193362066Y-136405278D01*
X193463081Y-136640980D02*
X194001829Y-137179728D01*
X194843623Y-136607308D02*
X194910966Y-136607308D01*
X194910966Y-136607308D02*
X195011981Y-136640980D01*
X195011981Y-136640980D02*
X195180340Y-136809339D01*
X195180340Y-136809339D02*
X195214012Y-136910354D01*
X195214012Y-136910354D02*
X195214012Y-136977698D01*
X195214012Y-136977698D02*
X195180340Y-137078713D01*
X195180340Y-137078713D02*
X195112997Y-137146056D01*
X195112997Y-137146056D02*
X194978310Y-137213400D01*
X194978310Y-137213400D02*
X194170188Y-137213400D01*
X194170188Y-137213400D02*
X194607920Y-137651133D01*
X194675264Y-137853163D02*
X195214012Y-138391911D01*
X196055806Y-137819492D02*
X196123149Y-137819492D01*
X196123149Y-137819492D02*
X196224165Y-137853163D01*
X196224165Y-137853163D02*
X196392523Y-138021522D01*
X196392523Y-138021522D02*
X196426195Y-138122537D01*
X196426195Y-138122537D02*
X196426195Y-138189881D01*
X196426195Y-138189881D02*
X196392523Y-138290896D01*
X196392523Y-138290896D02*
X196325180Y-138358240D01*
X196325180Y-138358240D02*
X196190493Y-138425583D01*
X196190493Y-138425583D02*
X195382371Y-138425583D01*
X195382371Y-138425583D02*
X195820104Y-138863316D01*
X153961905Y-130457200D02*
X154104762Y-130504819D01*
X154104762Y-130504819D02*
X154342857Y-130504819D01*
X154342857Y-130504819D02*
X154438095Y-130457200D01*
X154438095Y-130457200D02*
X154485714Y-130409580D01*
X154485714Y-130409580D02*
X154533333Y-130314342D01*
X154533333Y-130314342D02*
X154533333Y-130219104D01*
X154533333Y-130219104D02*
X154485714Y-130123866D01*
X154485714Y-130123866D02*
X154438095Y-130076247D01*
X154438095Y-130076247D02*
X154342857Y-130028628D01*
X154342857Y-130028628D02*
X154152381Y-129981009D01*
X154152381Y-129981009D02*
X154057143Y-129933390D01*
X154057143Y-129933390D02*
X154009524Y-129885771D01*
X154009524Y-129885771D02*
X153961905Y-129790533D01*
X153961905Y-129790533D02*
X153961905Y-129695295D01*
X153961905Y-129695295D02*
X154009524Y-129600057D01*
X154009524Y-129600057D02*
X154057143Y-129552438D01*
X154057143Y-129552438D02*
X154152381Y-129504819D01*
X154152381Y-129504819D02*
X154390476Y-129504819D01*
X154390476Y-129504819D02*
X154533333Y-129552438D01*
X155533333Y-130409580D02*
X155485714Y-130457200D01*
X155485714Y-130457200D02*
X155342857Y-130504819D01*
X155342857Y-130504819D02*
X155247619Y-130504819D01*
X155247619Y-130504819D02*
X155104762Y-130457200D01*
X155104762Y-130457200D02*
X155009524Y-130361961D01*
X155009524Y-130361961D02*
X154961905Y-130266723D01*
X154961905Y-130266723D02*
X154914286Y-130076247D01*
X154914286Y-130076247D02*
X154914286Y-129933390D01*
X154914286Y-129933390D02*
X154961905Y-129742914D01*
X154961905Y-129742914D02*
X155009524Y-129647676D01*
X155009524Y-129647676D02*
X155104762Y-129552438D01*
X155104762Y-129552438D02*
X155247619Y-129504819D01*
X155247619Y-129504819D02*
X155342857Y-129504819D01*
X155342857Y-129504819D02*
X155485714Y-129552438D01*
X155485714Y-129552438D02*
X155533333Y-129600057D01*
X156533333Y-130504819D02*
X156200000Y-130028628D01*
X155961905Y-130504819D02*
X155961905Y-129504819D01*
X155961905Y-129504819D02*
X156342857Y-129504819D01*
X156342857Y-129504819D02*
X156438095Y-129552438D01*
X156438095Y-129552438D02*
X156485714Y-129600057D01*
X156485714Y-129600057D02*
X156533333Y-129695295D01*
X156533333Y-129695295D02*
X156533333Y-129838152D01*
X156533333Y-129838152D02*
X156485714Y-129933390D01*
X156485714Y-129933390D02*
X156438095Y-129981009D01*
X156438095Y-129981009D02*
X156342857Y-130028628D01*
X156342857Y-130028628D02*
X155961905Y-130028628D01*
X157152381Y-129504819D02*
X157342857Y-129504819D01*
X157342857Y-129504819D02*
X157438095Y-129552438D01*
X157438095Y-129552438D02*
X157533333Y-129647676D01*
X157533333Y-129647676D02*
X157580952Y-129838152D01*
X157580952Y-129838152D02*
X157580952Y-130171485D01*
X157580952Y-130171485D02*
X157533333Y-130361961D01*
X157533333Y-130361961D02*
X157438095Y-130457200D01*
X157438095Y-130457200D02*
X157342857Y-130504819D01*
X157342857Y-130504819D02*
X157152381Y-130504819D01*
X157152381Y-130504819D02*
X157057143Y-130457200D01*
X157057143Y-130457200D02*
X156961905Y-130361961D01*
X156961905Y-130361961D02*
X156914286Y-130171485D01*
X156914286Y-130171485D02*
X156914286Y-129838152D01*
X156914286Y-129838152D02*
X156961905Y-129647676D01*
X156961905Y-129647676D02*
X157057143Y-129552438D01*
X157057143Y-129552438D02*
X157152381Y-129504819D01*
X158485714Y-130504819D02*
X158009524Y-130504819D01*
X158009524Y-130504819D02*
X158009524Y-129504819D01*
X159295238Y-130504819D02*
X158819048Y-130504819D01*
X158819048Y-130504819D02*
X158819048Y-129504819D01*
X159390477Y-130600057D02*
X160152381Y-130600057D01*
X160961905Y-130504819D02*
X160628572Y-130028628D01*
X160390477Y-130504819D02*
X160390477Y-129504819D01*
X160390477Y-129504819D02*
X160771429Y-129504819D01*
X160771429Y-129504819D02*
X160866667Y-129552438D01*
X160866667Y-129552438D02*
X160914286Y-129600057D01*
X160914286Y-129600057D02*
X160961905Y-129695295D01*
X160961905Y-129695295D02*
X160961905Y-129838152D01*
X160961905Y-129838152D02*
X160914286Y-129933390D01*
X160914286Y-129933390D02*
X160866667Y-129981009D01*
X160866667Y-129981009D02*
X160771429Y-130028628D01*
X160771429Y-130028628D02*
X160390477Y-130028628D01*
X161390477Y-130504819D02*
X161390477Y-129504819D01*
X161866667Y-130504819D02*
X161866667Y-129504819D01*
X161866667Y-129504819D02*
X162438095Y-130504819D01*
X162438095Y-130504819D02*
X162438095Y-129504819D01*
X163438095Y-129552438D02*
X163342857Y-129504819D01*
X163342857Y-129504819D02*
X163200000Y-129504819D01*
X163200000Y-129504819D02*
X163057143Y-129552438D01*
X163057143Y-129552438D02*
X162961905Y-129647676D01*
X162961905Y-129647676D02*
X162914286Y-129742914D01*
X162914286Y-129742914D02*
X162866667Y-129933390D01*
X162866667Y-129933390D02*
X162866667Y-130076247D01*
X162866667Y-130076247D02*
X162914286Y-130266723D01*
X162914286Y-130266723D02*
X162961905Y-130361961D01*
X162961905Y-130361961D02*
X163057143Y-130457200D01*
X163057143Y-130457200D02*
X163200000Y-130504819D01*
X163200000Y-130504819D02*
X163295238Y-130504819D01*
X163295238Y-130504819D02*
X163438095Y-130457200D01*
X163438095Y-130457200D02*
X163485714Y-130409580D01*
X163485714Y-130409580D02*
X163485714Y-130076247D01*
X163485714Y-130076247D02*
X163295238Y-130076247D01*
X164438095Y-130504819D02*
X163866667Y-130504819D01*
X164152381Y-130504819D02*
X164152381Y-129504819D01*
X164152381Y-129504819D02*
X164057143Y-129647676D01*
X164057143Y-129647676D02*
X163961905Y-129742914D01*
X163961905Y-129742914D02*
X163866667Y-129790533D01*
X133120072Y-59533978D02*
X132629882Y-59221596D01*
X132592141Y-59752654D02*
X132209457Y-58828775D01*
X132209457Y-58828775D02*
X132561411Y-58682990D01*
X132561411Y-58682990D02*
X132667623Y-58690539D01*
X132667623Y-58690539D02*
X132729840Y-58716310D01*
X132729840Y-58716310D02*
X132810280Y-58786075D01*
X132810280Y-58786075D02*
X132864949Y-58918058D01*
X132864949Y-58918058D02*
X132857401Y-59024270D01*
X132857401Y-59024270D02*
X132831630Y-59086487D01*
X132831630Y-59086487D02*
X132761864Y-59166927D01*
X132761864Y-59166927D02*
X132409910Y-59312712D01*
X133656846Y-58590044D02*
X133911968Y-59205964D01*
X133291091Y-58329205D02*
X133344465Y-59080234D01*
X133344465Y-59080234D02*
X133916390Y-58843335D01*
X156762766Y-56670126D02*
X156517186Y-56143287D01*
X156200018Y-56570899D02*
X156373667Y-55586091D01*
X156373667Y-55586091D02*
X156748832Y-55652243D01*
X156748832Y-55652243D02*
X156834354Y-55715676D01*
X156834354Y-55715676D02*
X156872980Y-55770841D01*
X156872980Y-55770841D02*
X156903338Y-55872901D01*
X156903338Y-55872901D02*
X156878531Y-56013588D01*
X156878531Y-56013588D02*
X156815098Y-56099110D01*
X156815098Y-56099110D02*
X156759933Y-56137737D01*
X156759933Y-56137737D02*
X156657873Y-56168094D01*
X156657873Y-56168094D02*
X156282708Y-56101943D01*
X157700678Y-56835505D02*
X157137931Y-56736278D01*
X157419304Y-56785892D02*
X157592952Y-55801084D01*
X157592952Y-55801084D02*
X157474354Y-55925233D01*
X157474354Y-55925233D02*
X157364025Y-56002486D01*
X157364025Y-56002486D02*
X157261965Y-56032844D01*
X157871722Y-56962373D02*
X158622052Y-57094676D01*
X159410894Y-56460112D02*
X159295129Y-57116650D01*
X159242568Y-56043602D02*
X158884056Y-56705691D01*
X158884056Y-56705691D02*
X159493698Y-56813188D01*
X185120356Y-139346224D02*
X185187699Y-139480911D01*
X185187699Y-139480911D02*
X185356058Y-139649269D01*
X185356058Y-139649269D02*
X185457073Y-139682941D01*
X185457073Y-139682941D02*
X185524417Y-139682941D01*
X185524417Y-139682941D02*
X185625432Y-139649269D01*
X185625432Y-139649269D02*
X185692776Y-139581926D01*
X185692776Y-139581926D02*
X185726447Y-139480911D01*
X185726447Y-139480911D02*
X185726447Y-139413567D01*
X185726447Y-139413567D02*
X185692776Y-139312552D01*
X185692776Y-139312552D02*
X185591760Y-139144193D01*
X185591760Y-139144193D02*
X185558089Y-139043178D01*
X185558089Y-139043178D02*
X185558089Y-138975834D01*
X185558089Y-138975834D02*
X185591760Y-138874819D01*
X185591760Y-138874819D02*
X185659104Y-138807476D01*
X185659104Y-138807476D02*
X185760119Y-138773804D01*
X185760119Y-138773804D02*
X185827463Y-138773804D01*
X185827463Y-138773804D02*
X185928478Y-138807476D01*
X185928478Y-138807476D02*
X186096837Y-138975834D01*
X186096837Y-138975834D02*
X186164180Y-139110521D01*
X186433554Y-139312552D02*
X185894806Y-140188017D01*
X185894806Y-140188017D02*
X186534569Y-139817628D01*
X186534569Y-139817628D02*
X186164180Y-140457391D01*
X186164180Y-140457391D02*
X187039646Y-139918643D01*
X186366211Y-140794109D02*
X186904959Y-141332857D01*
X187140661Y-141433872D02*
X187847768Y-140726765D01*
X187847768Y-140726765D02*
X187578394Y-141467544D01*
X187578394Y-141467544D02*
X188319172Y-141198170D01*
X188319172Y-141198170D02*
X187612066Y-141905277D01*
X187713081Y-142140979D02*
X188251829Y-142679727D01*
X189093623Y-142107307D02*
X189160966Y-142107307D01*
X189160966Y-142107307D02*
X189261981Y-142140979D01*
X189261981Y-142140979D02*
X189430340Y-142309338D01*
X189430340Y-142309338D02*
X189464012Y-142410353D01*
X189464012Y-142410353D02*
X189464012Y-142477697D01*
X189464012Y-142477697D02*
X189430340Y-142578712D01*
X189430340Y-142578712D02*
X189362997Y-142646055D01*
X189362997Y-142646055D02*
X189228310Y-142713399D01*
X189228310Y-142713399D02*
X188420188Y-142713399D01*
X188420188Y-142713399D02*
X188857920Y-143151132D01*
X188925264Y-143353162D02*
X189464012Y-143891910D01*
X190070104Y-144363315D02*
X189666043Y-143959254D01*
X189868073Y-144161284D02*
X190575180Y-143454178D01*
X190575180Y-143454178D02*
X190406821Y-143487849D01*
X190406821Y-143487849D02*
X190272134Y-143487849D01*
X190272134Y-143487849D02*
X190171119Y-143454178D01*
X192793360Y-112124340D02*
X192594632Y-111578102D01*
X192241402Y-111976443D02*
X192500221Y-111010517D01*
X192500221Y-111010517D02*
X192868193Y-111109115D01*
X192868193Y-111109115D02*
X192947861Y-111179761D01*
X192947861Y-111179761D02*
X192981533Y-111238082D01*
X192981533Y-111238082D02*
X193002880Y-111342400D01*
X193002880Y-111342400D02*
X192965906Y-111480389D01*
X192965906Y-111480389D02*
X192895260Y-111560057D01*
X192895260Y-111560057D02*
X192836939Y-111593729D01*
X192836939Y-111593729D02*
X192732621Y-111615076D01*
X192732621Y-111615076D02*
X192364649Y-111516478D01*
X193713289Y-112370834D02*
X193161332Y-112222937D01*
X193437310Y-112296886D02*
X193696130Y-111330960D01*
X193696130Y-111330960D02*
X193567162Y-111444300D01*
X193567162Y-111444300D02*
X193450520Y-111511643D01*
X193450520Y-111511643D02*
X193346202Y-111532990D01*
X193872626Y-112512126D02*
X194608569Y-112709321D01*
X195535989Y-111823949D02*
X195352003Y-111774650D01*
X195352003Y-111774650D02*
X195247685Y-111795997D01*
X195247685Y-111795997D02*
X195189364Y-111829669D01*
X195189364Y-111829669D02*
X195060397Y-111943008D01*
X195060397Y-111943008D02*
X194965101Y-112114670D01*
X194965101Y-112114670D02*
X194866504Y-112482641D01*
X194866504Y-112482641D02*
X194887851Y-112586959D01*
X194887851Y-112586959D02*
X194921522Y-112645280D01*
X194921522Y-112645280D02*
X195001191Y-112715926D01*
X195001191Y-112715926D02*
X195185177Y-112765225D01*
X195185177Y-112765225D02*
X195289494Y-112743878D01*
X195289494Y-112743878D02*
X195347815Y-112710206D01*
X195347815Y-112710206D02*
X195418461Y-112630538D01*
X195418461Y-112630538D02*
X195480085Y-112400556D01*
X195480085Y-112400556D02*
X195458738Y-112296238D01*
X195458738Y-112296238D02*
X195425066Y-112237917D01*
X195425066Y-112237917D02*
X195345398Y-112167271D01*
X195345398Y-112167271D02*
X195161412Y-112117972D01*
X195161412Y-112117972D02*
X195057094Y-112139319D01*
X195057094Y-112139319D02*
X194998773Y-112172991D01*
X194998773Y-112172991D02*
X194928127Y-112252659D01*
X126503432Y-60312687D02*
X127292107Y-61012046D01*
X127292107Y-61012046D02*
X127080782Y-59979354D01*
X128364329Y-60392998D02*
X127837559Y-60147272D01*
X127869458Y-60678712D02*
X127369458Y-59812687D01*
X127369458Y-59812687D02*
X127699372Y-59622211D01*
X127699372Y-59622211D02*
X127805660Y-59615831D01*
X127805660Y-59615831D02*
X127870709Y-59633261D01*
X127870709Y-59633261D02*
X127959567Y-59691930D01*
X127959567Y-59691930D02*
X128030996Y-59815648D01*
X128030996Y-59815648D02*
X128037376Y-59921936D01*
X128037376Y-59921936D02*
X128019946Y-59986985D01*
X128019946Y-59986985D02*
X127961277Y-60075843D01*
X127961277Y-60075843D02*
X127631362Y-60266319D01*
X129189115Y-59916807D02*
X128694244Y-60202522D01*
X128941680Y-60059665D02*
X128441680Y-59193639D01*
X128441680Y-59193639D02*
X128430629Y-59364976D01*
X128430629Y-59364976D02*
X128395770Y-59495074D01*
X128395770Y-59495074D02*
X128337101Y-59583932D01*
X134787067Y-74522175D02*
X135653093Y-74022175D01*
X135653093Y-74022175D02*
X135772140Y-74228371D01*
X135772140Y-74228371D02*
X135802330Y-74375899D01*
X135802330Y-74375899D02*
X135767470Y-74505996D01*
X135767470Y-74505996D02*
X135708801Y-74594855D01*
X135708801Y-74594855D02*
X135567653Y-74731332D01*
X135567653Y-74731332D02*
X135443935Y-74802761D01*
X135443935Y-74802761D02*
X135255169Y-74856760D01*
X135255169Y-74856760D02*
X135148880Y-74863139D01*
X135148880Y-74863139D02*
X135018783Y-74828280D01*
X135018783Y-74828280D02*
X134906115Y-74728371D01*
X134906115Y-74728371D02*
X134787067Y-74522175D01*
X135085541Y-75229623D02*
X135466493Y-75889452D01*
X135668020Y-76048029D02*
X136534045Y-75548029D01*
X135704589Y-76301844D02*
X136085541Y-76961673D01*
X136548972Y-77573883D02*
X136263258Y-77079012D01*
X136406115Y-77326448D02*
X137272140Y-76826448D01*
X137272140Y-76826448D02*
X137100803Y-76815398D01*
X137100803Y-76815398D02*
X136970706Y-76780538D01*
X136970706Y-76780538D02*
X136881847Y-76721869D01*
X136698942Y-58184393D02*
X136222844Y-57850927D01*
X136161975Y-58379833D02*
X135819954Y-57440140D01*
X135819954Y-57440140D02*
X136177933Y-57309847D01*
X136177933Y-57309847D02*
X136283714Y-57322021D01*
X136283714Y-57322021D02*
X136344748Y-57350481D01*
X136344748Y-57350481D02*
X136422068Y-57423689D01*
X136422068Y-57423689D02*
X136470928Y-57557931D01*
X136470928Y-57557931D02*
X136458754Y-57663712D01*
X136458754Y-57663712D02*
X136430294Y-57724746D01*
X136430294Y-57724746D02*
X136357086Y-57802067D01*
X136357086Y-57802067D02*
X135999108Y-57932360D01*
X136670153Y-57130693D02*
X137251867Y-56918967D01*
X137251867Y-56918967D02*
X137068930Y-57390952D01*
X137068930Y-57390952D02*
X137203171Y-57342092D01*
X137203171Y-57342092D02*
X137308953Y-57354265D01*
X137308953Y-57354265D02*
X137369986Y-57382726D01*
X137369986Y-57382726D02*
X137447307Y-57455934D01*
X137447307Y-57455934D02*
X137528740Y-57679670D01*
X137528740Y-57679670D02*
X137516567Y-57785451D01*
X137516567Y-57785451D02*
X137488106Y-57846485D01*
X137488106Y-57846485D02*
X137414898Y-57923806D01*
X137414898Y-57923806D02*
X137146414Y-58021526D01*
X137146414Y-58021526D02*
X137040633Y-58009352D01*
X137040633Y-58009352D02*
X136979599Y-57980892D01*
X125115061Y-84794040D02*
X125089787Y-84213325D01*
X124633123Y-84487012D02*
X125170422Y-83643621D01*
X125170422Y-83643621D02*
X125491714Y-83848306D01*
X125491714Y-83848306D02*
X125546451Y-83939639D01*
X125546451Y-83939639D02*
X125561027Y-84005386D01*
X125561027Y-84005386D02*
X125550017Y-84111295D01*
X125550017Y-84111295D02*
X125473260Y-84231779D01*
X125473260Y-84231779D02*
X125381927Y-84286517D01*
X125381927Y-84286517D02*
X125316180Y-84301092D01*
X125316180Y-84301092D02*
X125210272Y-84290083D01*
X125210272Y-84290083D02*
X124888980Y-84085397D01*
X125918291Y-85305754D02*
X125436353Y-84998726D01*
X125677322Y-85152240D02*
X126214621Y-84308849D01*
X126214621Y-84308849D02*
X126057541Y-84378162D01*
X126057541Y-84378162D02*
X125926047Y-84407313D01*
X125926047Y-84407313D02*
X125820138Y-84396303D01*
X147918207Y-56422642D02*
X147872710Y-56472293D01*
X147872710Y-56472293D02*
X147732066Y-56526098D01*
X147732066Y-56526098D02*
X147636919Y-56530252D01*
X147636919Y-56530252D02*
X147492120Y-56488910D01*
X147492120Y-56488910D02*
X147392819Y-56397917D01*
X147392819Y-56397917D02*
X147341091Y-56304846D01*
X147341091Y-56304846D02*
X147285208Y-56116628D01*
X147285208Y-56116628D02*
X147278977Y-55973907D01*
X147278977Y-55973907D02*
X147318242Y-55781535D01*
X147318242Y-55781535D02*
X147361662Y-55684311D01*
X147361662Y-55684311D02*
X147452655Y-55585009D01*
X147452655Y-55585009D02*
X147593299Y-55531204D01*
X147593299Y-55531204D02*
X147688447Y-55527050D01*
X147688447Y-55527050D02*
X147833245Y-55568392D01*
X147833245Y-55568392D02*
X147882896Y-55613889D01*
X148735069Y-55481353D02*
X148544774Y-55489662D01*
X148544774Y-55489662D02*
X148451703Y-55541390D01*
X148451703Y-55541390D02*
X148406207Y-55591041D01*
X148406207Y-55591041D02*
X148317291Y-55737916D01*
X148317291Y-55737916D02*
X148278025Y-55930288D01*
X148278025Y-55930288D02*
X148294642Y-56310878D01*
X148294642Y-56310878D02*
X148346370Y-56403948D01*
X148346370Y-56403948D02*
X148396021Y-56449445D01*
X148396021Y-56449445D02*
X148493246Y-56492864D01*
X148493246Y-56492864D02*
X148683540Y-56484556D01*
X148683540Y-56484556D02*
X148776611Y-56432828D01*
X148776611Y-56432828D02*
X148822107Y-56383177D01*
X148822107Y-56383177D02*
X148865527Y-56285952D01*
X148865527Y-56285952D02*
X148855141Y-56048084D01*
X148855141Y-56048084D02*
X148803413Y-55955013D01*
X148803413Y-55955013D02*
X148753763Y-55909517D01*
X148753763Y-55909517D02*
X148656538Y-55866097D01*
X148656538Y-55866097D02*
X148466243Y-55874406D01*
X148466243Y-55874406D02*
X148373173Y-55926134D01*
X148373173Y-55926134D02*
X148327676Y-55975785D01*
X148327676Y-55975785D02*
X148284257Y-56073009D01*
X132630503Y-75937109D02*
X133449655Y-75363533D01*
X133449655Y-75363533D02*
X133586221Y-75558569D01*
X133586221Y-75558569D02*
X133629153Y-75702904D01*
X133629153Y-75702904D02*
X133605765Y-75835545D01*
X133605765Y-75835545D02*
X133555064Y-75929178D01*
X133555064Y-75929178D02*
X133426348Y-76077438D01*
X133426348Y-76077438D02*
X133309326Y-76159378D01*
X133309326Y-76159378D02*
X133125984Y-76229623D01*
X133125984Y-76229623D02*
X133020657Y-76245242D01*
X133020657Y-76245242D02*
X132888016Y-76221854D01*
X132888016Y-76221854D02*
X132767069Y-76132145D01*
X132767069Y-76132145D02*
X132630503Y-75937109D01*
X132989499Y-76615851D02*
X133426510Y-77239967D01*
X133641091Y-77380377D02*
X134460243Y-76806801D01*
X133699642Y-77630039D02*
X134136652Y-78254155D01*
X135143152Y-78363246D02*
X134597051Y-78745630D01*
X135318645Y-77949705D02*
X134596970Y-78164366D01*
X134596970Y-78164366D02*
X134952041Y-78671460D01*
X165584514Y-75449212D02*
X166158091Y-74630060D01*
X166158091Y-74630060D02*
X166353127Y-74766625D01*
X166353127Y-74766625D02*
X166442835Y-74887572D01*
X166442835Y-74887572D02*
X166466224Y-75020213D01*
X166466224Y-75020213D02*
X166450604Y-75125541D01*
X166450604Y-75125541D02*
X166380359Y-75308883D01*
X166380359Y-75308883D02*
X166298420Y-75425904D01*
X166298420Y-75425904D02*
X166150160Y-75554620D01*
X166150160Y-75554620D02*
X166056526Y-75605322D01*
X166056526Y-75605322D02*
X165923885Y-75628710D01*
X165923885Y-75628710D02*
X165779550Y-75585778D01*
X165779550Y-75585778D02*
X165584514Y-75449212D01*
X166883609Y-75254337D02*
X166949929Y-75242643D01*
X166949929Y-75242643D02*
X167055257Y-75258262D01*
X167055257Y-75258262D02*
X167250293Y-75394828D01*
X167250293Y-75394828D02*
X167300995Y-75488462D01*
X167300995Y-75488462D02*
X167312689Y-75554782D01*
X167312689Y-75554782D02*
X167297070Y-75660110D01*
X167297070Y-75660110D02*
X167242443Y-75738124D01*
X167242443Y-75738124D02*
X167121497Y-75827833D01*
X167121497Y-75827833D02*
X166325652Y-75968162D01*
X166325652Y-75968162D02*
X166832746Y-76323233D01*
X173022343Y-67275413D02*
X172203191Y-66701836D01*
X173350101Y-66807326D02*
X172636196Y-66830633D01*
X172530949Y-66233749D02*
X172671278Y-67029594D01*
X111146224Y-144079643D02*
X111280911Y-144012300D01*
X111280911Y-144012300D02*
X111449269Y-143843941D01*
X111449269Y-143843941D02*
X111482941Y-143742926D01*
X111482941Y-143742926D02*
X111482941Y-143675582D01*
X111482941Y-143675582D02*
X111449269Y-143574567D01*
X111449269Y-143574567D02*
X111381926Y-143507223D01*
X111381926Y-143507223D02*
X111280911Y-143473552D01*
X111280911Y-143473552D02*
X111213567Y-143473552D01*
X111213567Y-143473552D02*
X111112552Y-143507223D01*
X111112552Y-143507223D02*
X110944193Y-143608239D01*
X110944193Y-143608239D02*
X110843178Y-143641910D01*
X110843178Y-143641910D02*
X110775834Y-143641910D01*
X110775834Y-143641910D02*
X110674819Y-143608239D01*
X110674819Y-143608239D02*
X110607476Y-143540895D01*
X110607476Y-143540895D02*
X110573804Y-143439880D01*
X110573804Y-143439880D02*
X110573804Y-143372536D01*
X110573804Y-143372536D02*
X110607476Y-143271521D01*
X110607476Y-143271521D02*
X110775834Y-143103162D01*
X110775834Y-143103162D02*
X110910521Y-143035819D01*
X111112552Y-142766445D02*
X111988017Y-143305193D01*
X111988017Y-143305193D02*
X111617628Y-142665430D01*
X111617628Y-142665430D02*
X112257391Y-143035819D01*
X112257391Y-143035819D02*
X111718643Y-142160353D01*
X112594109Y-142833788D02*
X113132857Y-142295040D01*
X113233872Y-142059338D02*
X112526765Y-141352231D01*
X112526765Y-141352231D02*
X113267544Y-141621605D01*
X113267544Y-141621605D02*
X112998170Y-140880827D01*
X112998170Y-140880827D02*
X113705277Y-141587933D01*
X113940979Y-141486918D02*
X114479727Y-140948170D01*
X114951132Y-140342079D02*
X114547071Y-140746140D01*
X114749101Y-140544109D02*
X114041994Y-139837002D01*
X114041994Y-139837002D02*
X114075666Y-140005361D01*
X114075666Y-140005361D02*
X114075666Y-140140048D01*
X114075666Y-140140048D02*
X114041994Y-140241063D01*
X115153162Y-140274735D02*
X115691910Y-139735987D01*
X115119491Y-138894193D02*
X115119491Y-138826850D01*
X115119491Y-138826850D02*
X115153162Y-138725834D01*
X115153162Y-138725834D02*
X115321521Y-138557476D01*
X115321521Y-138557476D02*
X115422536Y-138523804D01*
X115422536Y-138523804D02*
X115489880Y-138523804D01*
X115489880Y-138523804D02*
X115590895Y-138557476D01*
X115590895Y-138557476D02*
X115658239Y-138624819D01*
X115658239Y-138624819D02*
X115725582Y-138759506D01*
X115725582Y-138759506D02*
X115725582Y-139567628D01*
X115725582Y-139567628D02*
X116163315Y-139129895D01*
X178991915Y-79541234D02*
X178925595Y-79529540D01*
X178925595Y-79529540D02*
X178804648Y-79439831D01*
X178804648Y-79439831D02*
X178750022Y-79361817D01*
X178750022Y-79361817D02*
X178707090Y-79217482D01*
X178707090Y-79217482D02*
X178730478Y-79084841D01*
X178730478Y-79084841D02*
X178781179Y-78991207D01*
X178781179Y-78991207D02*
X178909895Y-78842947D01*
X178909895Y-78842947D02*
X179026917Y-78761008D01*
X179026917Y-78761008D02*
X179210259Y-78690763D01*
X179210259Y-78690763D02*
X179315586Y-78675143D01*
X179315586Y-78675143D02*
X179448227Y-78698532D01*
X179448227Y-78698532D02*
X179569174Y-78788240D01*
X179569174Y-78788240D02*
X179623800Y-78866255D01*
X179623800Y-78866255D02*
X179666732Y-79010590D01*
X179666732Y-79010590D02*
X179655038Y-79076910D01*
X179924245Y-79295334D02*
X180279316Y-79802428D01*
X180279316Y-79802428D02*
X179776066Y-79747883D01*
X179776066Y-79747883D02*
X179858005Y-79864905D01*
X179858005Y-79864905D02*
X179873625Y-79970232D01*
X179873625Y-79970232D02*
X179861930Y-80036553D01*
X179861930Y-80036553D02*
X179811229Y-80130186D01*
X179811229Y-80130186D02*
X179616193Y-80266752D01*
X179616193Y-80266752D02*
X179510865Y-80282371D01*
X179510865Y-80282371D02*
X179444545Y-80270677D01*
X179444545Y-80270677D02*
X179350911Y-80219976D01*
X179350911Y-80219976D02*
X179187032Y-79985932D01*
X179187032Y-79985932D02*
X179171413Y-79880605D01*
X179171413Y-79880605D02*
X179183107Y-79814284D01*
X164182376Y-58477226D02*
X164032012Y-57915747D01*
X163645409Y-58281786D02*
X163987429Y-57342094D01*
X163987429Y-57342094D02*
X164345407Y-57472387D01*
X164345407Y-57472387D02*
X164418615Y-57549708D01*
X164418615Y-57549708D02*
X164447076Y-57610741D01*
X164447076Y-57610741D02*
X164459250Y-57716523D01*
X164459250Y-57716523D02*
X164410390Y-57850764D01*
X164410390Y-57850764D02*
X164333069Y-57923972D01*
X164333069Y-57923972D02*
X164272035Y-57952433D01*
X164272035Y-57952433D02*
X164166254Y-57964607D01*
X164166254Y-57964607D02*
X163808276Y-57834313D01*
X165077322Y-58802960D02*
X164540354Y-58607520D01*
X164808838Y-58705240D02*
X165150858Y-57765547D01*
X165150858Y-57765547D02*
X165012504Y-57867216D01*
X165012504Y-57867216D02*
X164890436Y-57924137D01*
X164890436Y-57924137D02*
X164784655Y-57936311D01*
X165223737Y-58957601D02*
X165939694Y-59218188D01*
X166460703Y-58343642D02*
X166521737Y-58315181D01*
X166521737Y-58315181D02*
X166627518Y-58303007D01*
X166627518Y-58303007D02*
X166851255Y-58384441D01*
X166851255Y-58384441D02*
X166924462Y-58461761D01*
X166924462Y-58461761D02*
X166952923Y-58522795D01*
X166952923Y-58522795D02*
X166965097Y-58628576D01*
X166965097Y-58628576D02*
X166932524Y-58718071D01*
X166932524Y-58718071D02*
X166838916Y-58836026D01*
X166838916Y-58836026D02*
X166106509Y-59177553D01*
X166106509Y-59177553D02*
X166688224Y-59389280D01*
X188918471Y-116586198D02*
X188856254Y-116611969D01*
X188856254Y-116611969D02*
X188706048Y-116601295D01*
X188706048Y-116601295D02*
X188618060Y-116564849D01*
X188618060Y-116564849D02*
X188504300Y-116466185D01*
X188504300Y-116466185D02*
X188452757Y-116341751D01*
X188452757Y-116341751D02*
X188445209Y-116235539D01*
X188445209Y-116235539D02*
X188474107Y-116041339D01*
X188474107Y-116041339D02*
X188528776Y-115909356D01*
X188528776Y-115909356D02*
X188645662Y-115751602D01*
X188645662Y-115751602D02*
X188726103Y-115681837D01*
X188726103Y-115681837D02*
X188850537Y-115630294D01*
X188850537Y-115630294D02*
X189000743Y-115640969D01*
X189000743Y-115640969D02*
X189088732Y-115677415D01*
X189088732Y-115677415D02*
X189202491Y-115776078D01*
X189202491Y-115776078D02*
X189228263Y-115838296D01*
X189761910Y-117038647D02*
X189233979Y-116819971D01*
X189497945Y-116929309D02*
X189880628Y-116005429D01*
X189880628Y-116005429D02*
X189737971Y-116100966D01*
X189737971Y-116100966D02*
X189613536Y-116152509D01*
X189613536Y-116152509D02*
X189507325Y-116160057D01*
X190641796Y-117403108D02*
X190113865Y-117184431D01*
X190377830Y-117293769D02*
X190760514Y-116369890D01*
X190760514Y-116369890D02*
X190617856Y-116465427D01*
X190617856Y-116465427D02*
X190493421Y-116516969D01*
X190493421Y-116516969D02*
X190387210Y-116524517D01*
X152940446Y-56263857D02*
X152649884Y-55760427D01*
X152371192Y-56214054D02*
X152458348Y-55217859D01*
X152458348Y-55217859D02*
X152837850Y-55251061D01*
X152837850Y-55251061D02*
X152928576Y-55306800D01*
X152928576Y-55306800D02*
X152971863Y-55358388D01*
X152971863Y-55358388D02*
X153011001Y-55457414D01*
X153011001Y-55457414D02*
X152998550Y-55599727D01*
X152998550Y-55599727D02*
X152942812Y-55690453D01*
X152942812Y-55690453D02*
X152891223Y-55733740D01*
X152891223Y-55733740D02*
X152792197Y-55772877D01*
X152792197Y-55772877D02*
X152412695Y-55739675D01*
X153889203Y-56346862D02*
X153319949Y-56297059D01*
X153604576Y-56321961D02*
X153691732Y-55325766D01*
X153691732Y-55325766D02*
X153584405Y-55459779D01*
X153584405Y-55459779D02*
X153481229Y-55546354D01*
X153481229Y-55546354D02*
X153382203Y-55585492D01*
X154070654Y-56458339D02*
X154829659Y-56524744D01*
X155636684Y-55495927D02*
X155162305Y-55454425D01*
X155162305Y-55454425D02*
X155073364Y-55924653D01*
X155073364Y-55924653D02*
X155124953Y-55881365D01*
X155124953Y-55881365D02*
X155223979Y-55842228D01*
X155223979Y-55842228D02*
X155461168Y-55862979D01*
X155461168Y-55862979D02*
X155551893Y-55918718D01*
X155551893Y-55918718D02*
X155595181Y-55970306D01*
X155595181Y-55970306D02*
X155634318Y-56069332D01*
X155634318Y-56069332D02*
X155613567Y-56306521D01*
X155613567Y-56306521D02*
X155557828Y-56397246D01*
X155557828Y-56397246D02*
X155506240Y-56440534D01*
X155506240Y-56440534D02*
X155407214Y-56479671D01*
X155407214Y-56479671D02*
X155170025Y-56458920D01*
X155170025Y-56458920D02*
X155079300Y-56403181D01*
X155079300Y-56403181D02*
X155036012Y-56351593D01*
X142298306Y-57133059D02*
X142259679Y-57188223D01*
X142259679Y-57188223D02*
X142127261Y-57259926D01*
X142127261Y-57259926D02*
X142033470Y-57276464D01*
X142033470Y-57276464D02*
X141884514Y-57254375D01*
X141884514Y-57254375D02*
X141774185Y-57177122D01*
X141774185Y-57177122D02*
X141710752Y-57091600D01*
X141710752Y-57091600D02*
X141630780Y-56912286D01*
X141630780Y-56912286D02*
X141605973Y-56771599D01*
X141605973Y-56771599D02*
X141619793Y-56575748D01*
X141619793Y-56575748D02*
X141650151Y-56473688D01*
X141650151Y-56473688D02*
X141727404Y-56363359D01*
X141727404Y-56363359D02*
X141859822Y-56291656D01*
X141859822Y-56291656D02*
X141953613Y-56275118D01*
X141953613Y-56275118D02*
X142102569Y-56297207D01*
X142102569Y-56297207D02*
X142157734Y-56335834D01*
X142783800Y-57144160D02*
X142971382Y-57111085D01*
X142971382Y-57111085D02*
X143056905Y-57047651D01*
X143056905Y-57047651D02*
X143095531Y-56992487D01*
X143095531Y-56992487D02*
X143164516Y-56835262D01*
X143164516Y-56835262D02*
X143178335Y-56639410D01*
X143178335Y-56639410D02*
X143112184Y-56264246D01*
X143112184Y-56264246D02*
X143048750Y-56178723D01*
X143048750Y-56178723D02*
X142993586Y-56140097D01*
X142993586Y-56140097D02*
X142891525Y-56109739D01*
X142891525Y-56109739D02*
X142703943Y-56142815D01*
X142703943Y-56142815D02*
X142618421Y-56206248D01*
X142618421Y-56206248D02*
X142579794Y-56261413D01*
X142579794Y-56261413D02*
X142549436Y-56363473D01*
X142549436Y-56363473D02*
X142590781Y-56597951D01*
X142590781Y-56597951D02*
X142654215Y-56683473D01*
X142654215Y-56683473D02*
X142709379Y-56722100D01*
X142709379Y-56722100D02*
X142811439Y-56752458D01*
X142811439Y-56752458D02*
X142999022Y-56719382D01*
X142999022Y-56719382D02*
X143084544Y-56655948D01*
X143084544Y-56655948D02*
X143123171Y-56600784D01*
X143123171Y-56600784D02*
X143153528Y-56498724D01*
X177361905Y-63504819D02*
X177361905Y-64314342D01*
X177361905Y-64314342D02*
X177409524Y-64409580D01*
X177409524Y-64409580D02*
X177457143Y-64457200D01*
X177457143Y-64457200D02*
X177552381Y-64504819D01*
X177552381Y-64504819D02*
X177742857Y-64504819D01*
X177742857Y-64504819D02*
X177838095Y-64457200D01*
X177838095Y-64457200D02*
X177885714Y-64409580D01*
X177885714Y-64409580D02*
X177933333Y-64314342D01*
X177933333Y-64314342D02*
X177933333Y-63504819D01*
X178361905Y-64457200D02*
X178504762Y-64504819D01*
X178504762Y-64504819D02*
X178742857Y-64504819D01*
X178742857Y-64504819D02*
X178838095Y-64457200D01*
X178838095Y-64457200D02*
X178885714Y-64409580D01*
X178885714Y-64409580D02*
X178933333Y-64314342D01*
X178933333Y-64314342D02*
X178933333Y-64219104D01*
X178933333Y-64219104D02*
X178885714Y-64123866D01*
X178885714Y-64123866D02*
X178838095Y-64076247D01*
X178838095Y-64076247D02*
X178742857Y-64028628D01*
X178742857Y-64028628D02*
X178552381Y-63981009D01*
X178552381Y-63981009D02*
X178457143Y-63933390D01*
X178457143Y-63933390D02*
X178409524Y-63885771D01*
X178409524Y-63885771D02*
X178361905Y-63790533D01*
X178361905Y-63790533D02*
X178361905Y-63695295D01*
X178361905Y-63695295D02*
X178409524Y-63600057D01*
X178409524Y-63600057D02*
X178457143Y-63552438D01*
X178457143Y-63552438D02*
X178552381Y-63504819D01*
X178552381Y-63504819D02*
X178790476Y-63504819D01*
X178790476Y-63504819D02*
X178933333Y-63552438D01*
X179695238Y-63981009D02*
X179838095Y-64028628D01*
X179838095Y-64028628D02*
X179885714Y-64076247D01*
X179885714Y-64076247D02*
X179933333Y-64171485D01*
X179933333Y-64171485D02*
X179933333Y-64314342D01*
X179933333Y-64314342D02*
X179885714Y-64409580D01*
X179885714Y-64409580D02*
X179838095Y-64457200D01*
X179838095Y-64457200D02*
X179742857Y-64504819D01*
X179742857Y-64504819D02*
X179361905Y-64504819D01*
X179361905Y-64504819D02*
X179361905Y-63504819D01*
X179361905Y-63504819D02*
X179695238Y-63504819D01*
X179695238Y-63504819D02*
X179790476Y-63552438D01*
X179790476Y-63552438D02*
X179838095Y-63600057D01*
X179838095Y-63600057D02*
X179885714Y-63695295D01*
X179885714Y-63695295D02*
X179885714Y-63790533D01*
X179885714Y-63790533D02*
X179838095Y-63885771D01*
X179838095Y-63885771D02*
X179790476Y-63933390D01*
X179790476Y-63933390D02*
X179695238Y-63981009D01*
X179695238Y-63981009D02*
X179361905Y-63981009D01*
X180885714Y-64504819D02*
X180314286Y-64504819D01*
X180600000Y-64504819D02*
X180600000Y-63504819D01*
X180600000Y-63504819D02*
X180504762Y-63647676D01*
X180504762Y-63647676D02*
X180409524Y-63742914D01*
X180409524Y-63742914D02*
X180314286Y-63790533D01*
X178072291Y-71720050D02*
X178005011Y-71717112D01*
X178005011Y-71717112D02*
X177873390Y-71643958D01*
X177873390Y-71643958D02*
X177809048Y-71573741D01*
X177809048Y-71573741D02*
X177747643Y-71436245D01*
X177747643Y-71436245D02*
X177753518Y-71301686D01*
X177753518Y-71301686D02*
X177791564Y-71202235D01*
X177791564Y-71202235D02*
X177899827Y-71038443D01*
X177899827Y-71038443D02*
X178005153Y-70941930D01*
X178005153Y-70941930D02*
X178177757Y-70848355D01*
X178177757Y-70848355D02*
X178280145Y-70819121D01*
X178280145Y-70819121D02*
X178414704Y-70824996D01*
X178414704Y-70824996D02*
X178546325Y-70898151D01*
X178546325Y-70898151D02*
X178610667Y-70968368D01*
X178610667Y-70968368D02*
X178672072Y-71105864D01*
X178672072Y-71105864D02*
X178669134Y-71173143D01*
X179072669Y-71965950D02*
X178581151Y-72416344D01*
X179192682Y-71533040D02*
X178505200Y-71840062D01*
X178505200Y-71840062D02*
X178923423Y-72296472D01*
X123630612Y-87505095D02*
X123542268Y-86930583D01*
X123118113Y-87252359D02*
X123560402Y-86355486D01*
X123560402Y-86355486D02*
X123902067Y-86523977D01*
X123902067Y-86523977D02*
X123966422Y-86608808D01*
X123966422Y-86608808D02*
X123988069Y-86672577D01*
X123988069Y-86672577D02*
X123988655Y-86779055D01*
X123988655Y-86779055D02*
X123925471Y-86907180D01*
X123925471Y-86907180D02*
X123840640Y-86971535D01*
X123840640Y-86971535D02*
X123776870Y-86993182D01*
X123776870Y-86993182D02*
X123670392Y-86993767D01*
X123670392Y-86993767D02*
X123328727Y-86825276D01*
X124372443Y-86862130D02*
X124436213Y-86840483D01*
X124436213Y-86840483D02*
X124542691Y-86839897D01*
X124542691Y-86839897D02*
X124756232Y-86945204D01*
X124756232Y-86945204D02*
X124820587Y-87030035D01*
X124820587Y-87030035D02*
X124842234Y-87093805D01*
X124842234Y-87093805D02*
X124842819Y-87200283D01*
X124842819Y-87200283D02*
X124800697Y-87285699D01*
X124800697Y-87285699D02*
X124694804Y-87392762D01*
X124694804Y-87392762D02*
X123929569Y-87652525D01*
X123929569Y-87652525D02*
X124484776Y-87926322D01*
X124613486Y-88095984D02*
X125296818Y-88432966D01*
X126022273Y-88684532D02*
X125509774Y-88431795D01*
X125766023Y-88558164D02*
X126208312Y-87661291D01*
X126208312Y-87661291D02*
X126059711Y-87747293D01*
X126059711Y-87747293D02*
X125932172Y-87790586D01*
X125932172Y-87790586D02*
X125825694Y-87791172D01*
X103171428Y-100454819D02*
X103361904Y-100454819D01*
X103361904Y-100454819D02*
X103457142Y-100502438D01*
X103457142Y-100502438D02*
X103552380Y-100597676D01*
X103552380Y-100597676D02*
X103599999Y-100788152D01*
X103599999Y-100788152D02*
X103599999Y-101121485D01*
X103599999Y-101121485D02*
X103552380Y-101311961D01*
X103552380Y-101311961D02*
X103457142Y-101407200D01*
X103457142Y-101407200D02*
X103361904Y-101454819D01*
X103361904Y-101454819D02*
X103171428Y-101454819D01*
X103171428Y-101454819D02*
X103076190Y-101407200D01*
X103076190Y-101407200D02*
X102980952Y-101311961D01*
X102980952Y-101311961D02*
X102933333Y-101121485D01*
X102933333Y-101121485D02*
X102933333Y-100788152D01*
X102933333Y-100788152D02*
X102980952Y-100597676D01*
X102980952Y-100597676D02*
X103076190Y-100502438D01*
X103076190Y-100502438D02*
X103171428Y-100454819D01*
X104504761Y-101454819D02*
X104028571Y-101454819D01*
X104028571Y-101454819D02*
X104028571Y-100454819D01*
X104838095Y-100931009D02*
X105171428Y-100931009D01*
X105314285Y-101454819D02*
X104838095Y-101454819D01*
X104838095Y-101454819D02*
X104838095Y-100454819D01*
X104838095Y-100454819D02*
X105314285Y-100454819D01*
X105742857Y-101454819D02*
X105742857Y-100454819D01*
X105742857Y-100454819D02*
X105980952Y-100454819D01*
X105980952Y-100454819D02*
X106123809Y-100502438D01*
X106123809Y-100502438D02*
X106219047Y-100597676D01*
X106219047Y-100597676D02*
X106266666Y-100692914D01*
X106266666Y-100692914D02*
X106314285Y-100883390D01*
X106314285Y-100883390D02*
X106314285Y-101026247D01*
X106314285Y-101026247D02*
X106266666Y-101216723D01*
X106266666Y-101216723D02*
X106219047Y-101311961D01*
X106219047Y-101311961D02*
X106123809Y-101407200D01*
X106123809Y-101407200D02*
X105980952Y-101454819D01*
X105980952Y-101454819D02*
X105742857Y-101454819D01*
X107266666Y-101454819D02*
X106695238Y-101454819D01*
X106980952Y-101454819D02*
X106980952Y-100454819D01*
X106980952Y-100454819D02*
X106885714Y-100597676D01*
X106885714Y-100597676D02*
X106790476Y-100692914D01*
X106790476Y-100692914D02*
X106695238Y-100740533D01*
X193762766Y-108320126D02*
X193517186Y-107793287D01*
X193200018Y-108220899D02*
X193373667Y-107236091D01*
X193373667Y-107236091D02*
X193748832Y-107302243D01*
X193748832Y-107302243D02*
X193834354Y-107365676D01*
X193834354Y-107365676D02*
X193872980Y-107420841D01*
X193872980Y-107420841D02*
X193903338Y-107522901D01*
X193903338Y-107522901D02*
X193878531Y-107663588D01*
X193878531Y-107663588D02*
X193815098Y-107749110D01*
X193815098Y-107749110D02*
X193759933Y-107787737D01*
X193759933Y-107787737D02*
X193657873Y-107818094D01*
X193657873Y-107818094D02*
X193282708Y-107751943D01*
X194700678Y-108485505D02*
X194137931Y-108386278D01*
X194419304Y-108435892D02*
X194592952Y-107451084D01*
X194592952Y-107451084D02*
X194474354Y-107575233D01*
X194474354Y-107575233D02*
X194364025Y-107652486D01*
X194364025Y-107652486D02*
X194261965Y-107682844D01*
X194871722Y-108612373D02*
X195622052Y-108744676D01*
X195952925Y-107690884D02*
X196609464Y-107806649D01*
X196609464Y-107806649D02*
X196013755Y-108717036D01*
X194240446Y-104413857D02*
X193949884Y-103910427D01*
X193671192Y-104364054D02*
X193758348Y-103367859D01*
X193758348Y-103367859D02*
X194137850Y-103401061D01*
X194137850Y-103401061D02*
X194228576Y-103456800D01*
X194228576Y-103456800D02*
X194271863Y-103508388D01*
X194271863Y-103508388D02*
X194311001Y-103607414D01*
X194311001Y-103607414D02*
X194298550Y-103749727D01*
X194298550Y-103749727D02*
X194242812Y-103840453D01*
X194242812Y-103840453D02*
X194191223Y-103883740D01*
X194191223Y-103883740D02*
X194092197Y-103922877D01*
X194092197Y-103922877D02*
X193712695Y-103889675D01*
X195189203Y-104496862D02*
X194619949Y-104447059D01*
X194904576Y-104471961D02*
X194991732Y-103475766D01*
X194991732Y-103475766D02*
X194884405Y-103609779D01*
X194884405Y-103609779D02*
X194781229Y-103696354D01*
X194781229Y-103696354D02*
X194682203Y-103735492D01*
X195370654Y-104608339D02*
X196129659Y-104674744D01*
X196567266Y-104043816D02*
X196476541Y-103988078D01*
X196476541Y-103988078D02*
X196433253Y-103936490D01*
X196433253Y-103936490D02*
X196394116Y-103837464D01*
X196394116Y-103837464D02*
X196398266Y-103790026D01*
X196398266Y-103790026D02*
X196454005Y-103699300D01*
X196454005Y-103699300D02*
X196505593Y-103656013D01*
X196505593Y-103656013D02*
X196604619Y-103616875D01*
X196604619Y-103616875D02*
X196794370Y-103633477D01*
X196794370Y-103633477D02*
X196885095Y-103689215D01*
X196885095Y-103689215D02*
X196928383Y-103740803D01*
X196928383Y-103740803D02*
X196967520Y-103839829D01*
X196967520Y-103839829D02*
X196963370Y-103887267D01*
X196963370Y-103887267D02*
X196907632Y-103977992D01*
X196907632Y-103977992D02*
X196856043Y-104021280D01*
X196856043Y-104021280D02*
X196757018Y-104060417D01*
X196757018Y-104060417D02*
X196567266Y-104043816D01*
X196567266Y-104043816D02*
X196468240Y-104082953D01*
X196468240Y-104082953D02*
X196416652Y-104126241D01*
X196416652Y-104126241D02*
X196360914Y-104216966D01*
X196360914Y-104216966D02*
X196344313Y-104406718D01*
X196344313Y-104406718D02*
X196383450Y-104505744D01*
X196383450Y-104505744D02*
X196426737Y-104557332D01*
X196426737Y-104557332D02*
X196517463Y-104613070D01*
X196517463Y-104613070D02*
X196707214Y-104629671D01*
X196707214Y-104629671D02*
X196806240Y-104590534D01*
X196806240Y-104590534D02*
X196857828Y-104547246D01*
X196857828Y-104547246D02*
X196913567Y-104456521D01*
X196913567Y-104456521D02*
X196930168Y-104266770D01*
X196930168Y-104266770D02*
X196891030Y-104167744D01*
X196891030Y-104167744D02*
X196847743Y-104116155D01*
X196847743Y-104116155D02*
X196757018Y-104060417D01*
X122382376Y-90477226D02*
X122232012Y-89915747D01*
X121845409Y-90281786D02*
X122187429Y-89342094D01*
X122187429Y-89342094D02*
X122545407Y-89472387D01*
X122545407Y-89472387D02*
X122618615Y-89549708D01*
X122618615Y-89549708D02*
X122647076Y-89610741D01*
X122647076Y-89610741D02*
X122659250Y-89716523D01*
X122659250Y-89716523D02*
X122610390Y-89850764D01*
X122610390Y-89850764D02*
X122533069Y-89923972D01*
X122533069Y-89923972D02*
X122472035Y-89952433D01*
X122472035Y-89952433D02*
X122366254Y-89964607D01*
X122366254Y-89964607D02*
X122008276Y-89834313D01*
X123049801Y-89757322D02*
X123110835Y-89728861D01*
X123110835Y-89728861D02*
X123216616Y-89716687D01*
X123216616Y-89716687D02*
X123440353Y-89798120D01*
X123440353Y-89798120D02*
X123513561Y-89875441D01*
X123513561Y-89875441D02*
X123542021Y-89936475D01*
X123542021Y-89936475D02*
X123554195Y-90042256D01*
X123554195Y-90042256D02*
X123521622Y-90131751D01*
X123521622Y-90131751D02*
X123428014Y-90249706D01*
X123428014Y-90249706D02*
X122695607Y-90591233D01*
X122695607Y-90591233D02*
X123277322Y-90802960D01*
X123423737Y-90957601D02*
X124139694Y-91218188D01*
X124660703Y-90343642D02*
X124721737Y-90315181D01*
X124721737Y-90315181D02*
X124827518Y-90303007D01*
X124827518Y-90303007D02*
X125051255Y-90384441D01*
X125051255Y-90384441D02*
X125124462Y-90461761D01*
X125124462Y-90461761D02*
X125152923Y-90522795D01*
X125152923Y-90522795D02*
X125165097Y-90628576D01*
X125165097Y-90628576D02*
X125132524Y-90718071D01*
X125132524Y-90718071D02*
X125038916Y-90836026D01*
X125038916Y-90836026D02*
X124306509Y-91177553D01*
X124306509Y-91177553D02*
X124888224Y-91389280D01*
X186540128Y-92633961D02*
X186492426Y-92586425D01*
X186492426Y-92586425D02*
X186444558Y-92443651D01*
X186444558Y-92443651D02*
X186444392Y-92348414D01*
X186444392Y-92348414D02*
X186491761Y-92205473D01*
X186491761Y-92205473D02*
X186586833Y-92110069D01*
X186586833Y-92110069D02*
X186681988Y-92062284D01*
X186681988Y-92062284D02*
X186872381Y-92014333D01*
X186872381Y-92014333D02*
X187015238Y-92014083D01*
X187015238Y-92014083D02*
X187205797Y-92061370D01*
X187205797Y-92061370D02*
X187301118Y-92108823D01*
X187301118Y-92108823D02*
X187396522Y-92203894D01*
X187396522Y-92203894D02*
X187444390Y-92346668D01*
X187444390Y-92346668D02*
X187444556Y-92441906D01*
X187444556Y-92441906D02*
X187397187Y-92584846D01*
X187397187Y-92584846D02*
X187349651Y-92632548D01*
X187350316Y-93013500D02*
X187398018Y-93061036D01*
X187398018Y-93061036D02*
X187445803Y-93156191D01*
X187445803Y-93156191D02*
X187446219Y-93394286D01*
X187446219Y-93394286D02*
X187398766Y-93489607D01*
X187398766Y-93489607D02*
X187351230Y-93537309D01*
X187351230Y-93537309D02*
X187256075Y-93585094D01*
X187256075Y-93585094D02*
X187160837Y-93585260D01*
X187160837Y-93585260D02*
X187017897Y-93537891D01*
X187017897Y-93537891D02*
X186445472Y-92967460D01*
X186445472Y-92967460D02*
X186446552Y-93586507D01*
X169016670Y-58031010D02*
X168683337Y-58031010D01*
X168683337Y-58554820D02*
X168683337Y-57554820D01*
X168683337Y-57554820D02*
X169159527Y-57554820D01*
X170064289Y-58554820D02*
X169492861Y-58554820D01*
X169778575Y-58554820D02*
X169778575Y-57554820D01*
X169778575Y-57554820D02*
X169683337Y-57697677D01*
X169683337Y-57697677D02*
X169588099Y-57792915D01*
X169588099Y-57792915D02*
X169492861Y-57840534D01*
X103896224Y-137379643D02*
X104030911Y-137312300D01*
X104030911Y-137312300D02*
X104199269Y-137143941D01*
X104199269Y-137143941D02*
X104232941Y-137042926D01*
X104232941Y-137042926D02*
X104232941Y-136975582D01*
X104232941Y-136975582D02*
X104199269Y-136874567D01*
X104199269Y-136874567D02*
X104131926Y-136807223D01*
X104131926Y-136807223D02*
X104030911Y-136773552D01*
X104030911Y-136773552D02*
X103963567Y-136773552D01*
X103963567Y-136773552D02*
X103862552Y-136807223D01*
X103862552Y-136807223D02*
X103694193Y-136908239D01*
X103694193Y-136908239D02*
X103593178Y-136941910D01*
X103593178Y-136941910D02*
X103525834Y-136941910D01*
X103525834Y-136941910D02*
X103424819Y-136908239D01*
X103424819Y-136908239D02*
X103357476Y-136840895D01*
X103357476Y-136840895D02*
X103323804Y-136739880D01*
X103323804Y-136739880D02*
X103323804Y-136672536D01*
X103323804Y-136672536D02*
X103357476Y-136571521D01*
X103357476Y-136571521D02*
X103525834Y-136403162D01*
X103525834Y-136403162D02*
X103660521Y-136335819D01*
X103862552Y-136066445D02*
X104738017Y-136605193D01*
X104738017Y-136605193D02*
X104367628Y-135965430D01*
X104367628Y-135965430D02*
X105007391Y-136335819D01*
X105007391Y-136335819D02*
X104468643Y-135460353D01*
X105344109Y-136133788D02*
X105882857Y-135595040D01*
X105983872Y-135359338D02*
X105276765Y-134652231D01*
X105276765Y-134652231D02*
X106017544Y-134921605D01*
X106017544Y-134921605D02*
X105748170Y-134180827D01*
X105748170Y-134180827D02*
X106455277Y-134887933D01*
X106690979Y-134786918D02*
X107229727Y-134248170D01*
X107701132Y-133642079D02*
X107297071Y-134046140D01*
X107499101Y-133844109D02*
X106791994Y-133137002D01*
X106791994Y-133137002D02*
X106825666Y-133305361D01*
X106825666Y-133305361D02*
X106825666Y-133440048D01*
X106825666Y-133440048D02*
X106791994Y-133541063D01*
X107903162Y-133574735D02*
X108441910Y-133035987D01*
X108913315Y-132429895D02*
X108509254Y-132833956D01*
X108711284Y-132631926D02*
X108004178Y-131924819D01*
X108004178Y-131924819D02*
X108037849Y-132093178D01*
X108037849Y-132093178D02*
X108037849Y-132227865D01*
X108037849Y-132227865D02*
X108004178Y-132328880D01*
D12*
X125430300Y-72377279D02*
X128155718Y-75625307D01*
X125870456Y-71159428D02*
X126288271Y-71657357D01*
X127146239Y-70937435D02*
X125430300Y-72377279D01*
X127531911Y-71397062D02*
X125815971Y-72836907D01*
X127609046Y-71488986D02*
X125893108Y-72928830D01*
X127686180Y-71580913D02*
X125970240Y-73020759D01*
X128155718Y-75625307D02*
X129871658Y-74185465D01*
X129431499Y-75403314D02*
X129013688Y-74905385D01*
X129871658Y-74185465D02*
X127146239Y-70937435D01*
X115542287Y-72043811D02*
X116448619Y-70963689D01*
X117325939Y-73527419D02*
X118225841Y-72454954D01*
X115342759Y-72359386D02*
X114935696Y-72331116D01*
X115244234Y-71963416D01*
X115342759Y-72359386D01*
G36*
X115342759Y-72359386D02*
G01*
X114935696Y-72331116D01*
X115244234Y-71963416D01*
X115342759Y-72359386D01*
G37*
X169862358Y-73820823D02*
X171578293Y-75260667D01*
X170302514Y-75038675D02*
X170720327Y-74540745D01*
X171578293Y-75260667D02*
X174303719Y-72012639D01*
X172587776Y-70572797D02*
X169862358Y-73820823D01*
X173763773Y-72656115D02*
X172047833Y-71216272D01*
X173840914Y-72564190D02*
X172124971Y-71124349D01*
X173863558Y-70794788D02*
X173445747Y-71292718D01*
X173918042Y-72472264D02*
X172202103Y-71032421D01*
X174303719Y-72012639D02*
X172587776Y-70572797D01*
X181561558Y-119751455D02*
X185233506Y-121871455D01*
X181914058Y-119140907D02*
X181561558Y-119751455D01*
X182931558Y-117378545D02*
X182579058Y-117989093D01*
X182931558Y-117378545D02*
X186603506Y-119498545D01*
X185586006Y-121260907D02*
X185233506Y-121871455D01*
X186603506Y-119498545D02*
X186251006Y-120109093D01*
X163786571Y-67181606D02*
X166550496Y-61254354D01*
X164085655Y-67321071D02*
X163786571Y-67181606D01*
X165970777Y-68200116D02*
X166269857Y-68339579D01*
X166269857Y-68339579D02*
X169033778Y-62412328D01*
X166550496Y-61254354D02*
X166849578Y-61393819D01*
X169033778Y-62412328D02*
X168734698Y-62272865D01*
X124104072Y-63944575D02*
X125259077Y-63135833D01*
X125442961Y-65839273D02*
X126589774Y-65036265D01*
X123829664Y-64197756D02*
X123443789Y-64065093D01*
X123836982Y-63789779D01*
X123829664Y-64197756D01*
G36*
X123829664Y-64197756D02*
G01*
X123443789Y-64065093D01*
X123836982Y-63789779D01*
X123829664Y-64197756D01*
G37*
X147034305Y-61592967D02*
X147219251Y-65828931D01*
X147738634Y-61562215D02*
X147034305Y-61592967D01*
X147923580Y-65798179D02*
X147219251Y-65828931D01*
X149771697Y-61473449D02*
X149067368Y-61504201D01*
X149771697Y-61473449D02*
X149956643Y-65709414D01*
X149956643Y-65709414D02*
X149252314Y-65740166D01*
X181474994Y-81790000D02*
X181474993Y-88189996D01*
X186524993Y-81789995D02*
X186524994Y-88189999D01*
X181474994Y-81790000D02*
G75*
G02*
X186524994Y-81789995I2525000J0D01*
G01*
X186524994Y-88189999D02*
G75*
G02*
X181474994Y-88189996I-2525000J24D01*
G01*
X118089842Y-69050430D02*
X119086864Y-68053410D01*
X119737402Y-70683848D02*
X120727351Y-69693897D01*
X117863568Y-69347415D02*
X117460519Y-69283774D01*
X117799930Y-68944365D01*
X117863568Y-69347415D01*
G36*
X117863568Y-69347415D02*
G01*
X117460519Y-69283774D01*
X117799930Y-68944365D01*
X117863568Y-69347415D01*
G37*
X190550000Y-62270000D02*
X190550000Y-98070000D01*
X190550000Y-98070000D02*
X200830000Y-98070000D01*
X193040000Y-62330000D02*
X193040000Y-98010000D01*
X193040000Y-98010000D02*
X198340000Y-98010000D01*
X194690000Y-62330000D02*
X193040000Y-62330000D01*
X198340000Y-62330000D02*
X196690000Y-62330000D01*
X198340000Y-98010000D02*
X198340000Y-62330000D01*
X200830000Y-62270000D02*
X190550000Y-62270000D01*
X200830000Y-98070000D02*
X200830000Y-62270000D01*
X196690000Y-62330000D02*
G75*
G02*
X194690000Y-62330000I-1000000J0D01*
G01*
X121000542Y-66376344D02*
X122080665Y-65470014D01*
X122499471Y-68147140D02*
X123571932Y-67247236D01*
X120749246Y-66652478D02*
X120353276Y-66553951D01*
X120720977Y-66245415D01*
X120749246Y-66652478D01*
G36*
X120749246Y-66652478D02*
G01*
X120353276Y-66553951D01*
X120720977Y-66245415D01*
X120749246Y-66652478D01*
G37*
X121003781Y-77059294D02*
X124251808Y-79784713D01*
X121225773Y-75783512D02*
X121723704Y-76201324D01*
X122443624Y-75343354D02*
X121003781Y-77059294D01*
X122903251Y-75729027D02*
X121463406Y-77444966D01*
X122995176Y-75806160D02*
X121555333Y-77522100D01*
X123087102Y-75883296D02*
X121647257Y-77599236D01*
X124251808Y-79784713D02*
X125691653Y-78068774D01*
X125469660Y-79344556D02*
X124971730Y-78926743D01*
X125691653Y-78068774D02*
X122443624Y-75343354D01*
X151249998Y-112750000D02*
X151250005Y-114250008D01*
X152500002Y-116750000D02*
X157000004Y-116750005D01*
X157000004Y-110250000D02*
X152500005Y-110250001D01*
X158250003Y-114250007D02*
X158250004Y-112750002D01*
X123114898Y-74598816D02*
X126113029Y-77596949D01*
X123447237Y-73347238D02*
X123906857Y-73806858D01*
X124698816Y-73014898D02*
X123114898Y-74598816D01*
X125123080Y-73439162D02*
X123539160Y-75023082D01*
X125207933Y-73524013D02*
X123624015Y-75107933D01*
X125292785Y-73608868D02*
X123708866Y-75192787D01*
X126113029Y-77596949D02*
X127696949Y-76013031D01*
X127364609Y-77264610D02*
X126904988Y-76804990D01*
X127696949Y-76013031D02*
X124698816Y-73014898D01*
X142021391Y-62442464D02*
X142722930Y-66421088D01*
X142636896Y-62333934D02*
X142021391Y-62442464D01*
X143338434Y-66312558D02*
X142722930Y-66421088D01*
X144818245Y-61949304D02*
X144202740Y-62057834D01*
X144818245Y-61949304D02*
X145519784Y-65927927D01*
X145519784Y-65927927D02*
X144904279Y-66036457D01*
X157816444Y-65323815D02*
X159509121Y-59006663D01*
X158135201Y-65409228D02*
X157816444Y-65323815D01*
X159509121Y-59006663D02*
X159827875Y-59092073D01*
X160144325Y-65947571D02*
X160463081Y-66032983D01*
X160463081Y-66032983D02*
X162155757Y-59715827D01*
X162155757Y-59715827D02*
X161837001Y-59630417D01*
X141749999Y-112750003D02*
X141750006Y-114250011D01*
X143000003Y-116750003D02*
X147500005Y-116750008D01*
X147500005Y-110250003D02*
X143000006Y-110250004D01*
X148750004Y-114250010D02*
X148750005Y-112750005D01*
X181880000Y-76585000D02*
X181880000Y-75880000D01*
X181880000Y-78620000D02*
X181880000Y-77915000D01*
X186120000Y-75880000D02*
X181880000Y-75880000D01*
X186120000Y-76585000D02*
X186120000Y-75880000D01*
X186120000Y-78620000D02*
X181880000Y-78620000D01*
X186120000Y-78620000D02*
X186120000Y-77915000D01*
X170893376Y-78032322D02*
X170451434Y-77590381D01*
X172459617Y-79598564D02*
X172017676Y-79156622D01*
X173308146Y-74733669D02*
X170451434Y-77590381D01*
X173750087Y-75175611D02*
X173308146Y-74733669D01*
X175316329Y-76741852D02*
X172459617Y-79598564D01*
X175316329Y-76741852D02*
X174874387Y-76299911D01*
X103600000Y-112500000D02*
X103600000Y-108400000D01*
X103600000Y-120600000D02*
X103600000Y-116500000D01*
X106000000Y-120600000D02*
X103600000Y-120600000D01*
X109500000Y-114000000D02*
X109500000Y-115000000D01*
X110000000Y-114500000D02*
X109000000Y-114500000D01*
X110800000Y-120600000D02*
X108200000Y-120600000D01*
X113300000Y-107000000D02*
X113600000Y-106700000D01*
X113600000Y-106700000D02*
X113600000Y-107300000D01*
X113600000Y-107300000D02*
X113300000Y-107000000D01*
X115400000Y-108400000D02*
X103600000Y-108400000D01*
X115400000Y-112500000D02*
X115400000Y-108400000D01*
X115400000Y-116500000D02*
X115400000Y-120600000D01*
X115400000Y-120600000D02*
X113000000Y-120600000D01*
X112500000Y-114500000D02*
G75*
G02*
X106500000Y-114500000I-3000000J0D01*
G01*
X106500000Y-114500000D02*
G75*
G02*
X112500000Y-114500000I3000000J0D01*
G01*
X189987726Y-131145513D02*
X199038693Y-140196481D01*
X194159655Y-126973583D02*
X189987726Y-131145513D01*
X199038693Y-140196481D02*
X203210622Y-136024551D01*
X203210622Y-136024551D02*
X194159655Y-126973583D01*
X132567879Y-61634036D02*
X135070629Y-67676207D01*
X132872759Y-61507749D02*
X132567879Y-61634036D01*
X134794430Y-60711769D02*
X135099311Y-60585484D01*
X135070629Y-67676207D02*
X135375510Y-67549921D01*
X135099311Y-60585484D02*
X137602057Y-66627656D01*
X137602057Y-66627656D02*
X137297179Y-66753939D01*
X154802952Y-64707871D02*
X155127939Y-64765175D01*
X155938610Y-58267227D02*
X154802952Y-64707871D01*
X156263597Y-58324533D02*
X155938610Y-58267227D01*
X157501325Y-65183667D02*
X157176339Y-65126363D01*
X158311996Y-58685721D02*
X158636984Y-58743027D01*
X158636984Y-58743027D02*
X157501325Y-65183667D01*
X184374118Y-136560481D02*
X193425085Y-145611449D01*
X188546047Y-132388551D02*
X184374118Y-136560481D01*
X193425085Y-145611449D02*
X197597014Y-141439519D01*
X197597014Y-141439519D02*
X188546047Y-132388551D01*
X184017018Y-110563080D02*
X184102428Y-110244325D01*
X184726182Y-107916444D02*
X184640773Y-108235200D01*
X190334172Y-112255757D02*
X184017018Y-110563080D01*
X190419584Y-111937002D02*
X190334172Y-112255757D01*
X190957927Y-109927876D02*
X191043337Y-109609120D01*
X191043337Y-109609120D02*
X184726182Y-107916444D01*
X128330105Y-60857526D02*
X127637284Y-61257528D01*
X128330105Y-60857526D02*
X129022925Y-60457526D01*
X129890103Y-63559524D02*
X129197283Y-63959524D01*
X129890103Y-63559524D02*
X130582924Y-63159522D01*
X127229270Y-61550827D02*
X126856425Y-61385038D01*
X127272116Y-61145038D01*
X127229270Y-61550827D01*
G36*
X127229270Y-61550827D02*
G01*
X126856425Y-61385038D01*
X127272116Y-61145038D01*
X127229270Y-61550827D01*
G37*
X130515052Y-68524469D02*
X132635050Y-72196416D01*
X131159999Y-67401553D02*
X131485000Y-67964470D01*
X132454947Y-67404470D02*
X130515052Y-68524469D01*
X132635050Y-72196416D02*
X134574947Y-71076419D01*
X132754947Y-67924086D02*
X130815051Y-69044085D01*
X132814948Y-68028005D02*
X130875053Y-69148007D01*
X132874947Y-68131932D02*
X130935049Y-69251932D01*
X133930000Y-72199335D02*
X133604999Y-71636417D01*
X134574947Y-71076419D02*
X132454947Y-67404470D01*
X136014411Y-60209652D02*
X137981027Y-66446960D01*
X136329138Y-60110419D02*
X136014411Y-60209652D01*
X137981027Y-66446960D02*
X138295755Y-66347725D01*
X138312870Y-59484951D02*
X138627596Y-59385719D01*
X138627596Y-59385719D02*
X140594211Y-65623026D01*
X140594211Y-65623026D02*
X140279484Y-65722258D01*
X117042687Y-80601365D02*
X122558468Y-84115305D01*
X117219997Y-80323045D02*
X117042687Y-80601365D01*
X118337579Y-78568791D02*
X118514892Y-78290472D01*
X118514892Y-78290472D02*
X124030669Y-81804413D01*
X122558468Y-84115305D02*
X122735775Y-83836984D01*
X124030669Y-81804413D02*
X123853359Y-82082731D01*
X146738716Y-56995052D02*
X147363121Y-56967790D01*
X146914938Y-61031207D02*
X146738716Y-56995052D01*
X146914938Y-61031207D02*
X147539344Y-61003945D01*
X148951608Y-56898435D02*
X149576013Y-56871173D01*
X149127830Y-60934590D02*
X149752235Y-60907328D01*
X149752235Y-60907328D02*
X149576013Y-56871173D01*
X127851895Y-70326774D02*
X130283857Y-73799976D01*
X128396519Y-69151918D02*
X128769345Y-69684366D01*
X129686795Y-69041961D02*
X127851895Y-70326774D01*
X130030940Y-69533453D02*
X128196039Y-70818264D01*
X130099770Y-69631750D02*
X128264871Y-70916563D01*
X130168598Y-69730050D02*
X128333697Y-71014860D01*
X130283857Y-73799976D02*
X132118761Y-72515167D01*
X131574134Y-73690022D02*
X131201309Y-73157571D01*
X132118761Y-72515167D02*
X129686795Y-69041961D01*
X167525396Y-72113837D02*
X169360291Y-73398649D01*
X168070020Y-73288692D02*
X168442845Y-72756243D01*
X169360291Y-73398649D02*
X171792261Y-69925443D01*
X169957359Y-68640635D02*
X167525396Y-72113837D01*
X171247634Y-68750590D02*
X170874810Y-69283040D01*
X171310455Y-70613531D02*
X169475553Y-69328721D01*
X171379288Y-70515232D02*
X169544386Y-69230425D01*
X171448112Y-70416934D02*
X169613212Y-69132124D01*
X171792261Y-69925443D02*
X169957359Y-68640635D01*
X103803521Y-141038693D02*
X107975450Y-145210623D01*
X107975450Y-145210623D02*
X117026417Y-136159655D01*
X112854488Y-131987725D02*
X103803521Y-141038693D01*
X117026417Y-136159655D02*
X112854488Y-131987725D01*
X176031732Y-81817438D02*
X175015983Y-82528674D01*
X176054676Y-81850207D02*
X175038925Y-82561441D01*
X176077616Y-81882972D02*
X175062689Y-82593633D01*
X176100562Y-81915737D02*
X175087269Y-82625253D01*
X176123503Y-81948503D02*
X175112672Y-82656297D01*
X176146446Y-81981272D02*
X175138071Y-82687342D01*
X176169389Y-82014035D02*
X175164290Y-82717815D01*
X176192334Y-82046802D02*
X175191329Y-82747711D01*
X176215278Y-82079568D02*
X175219187Y-82777038D01*
X176238217Y-82112335D02*
X175247046Y-82806363D01*
X176261162Y-82145099D02*
X175276541Y-82834539D01*
X176284106Y-82177867D02*
X175306036Y-82862714D01*
X176307049Y-82210630D02*
X175336353Y-82890320D01*
X176329992Y-82243397D02*
X175366670Y-82917924D01*
X176352934Y-82276164D02*
X175398624Y-82944382D01*
X176375876Y-82308932D02*
X175430577Y-82970838D01*
X176396802Y-78790899D02*
X176626232Y-79118559D01*
X176398822Y-82341697D02*
X175463348Y-82996721D01*
X176421764Y-82374465D02*
X175497760Y-83021458D01*
X176445280Y-82408048D02*
X175532745Y-83047012D01*
X176468223Y-82440815D02*
X175567157Y-83071747D01*
X176491166Y-82473578D02*
X175603205Y-83095336D01*
X176514110Y-82506345D02*
X175640073Y-83118353D01*
X176537053Y-82539112D02*
X175677763Y-83140794D01*
X176559995Y-82571879D02*
X175716269Y-83162662D01*
X176582939Y-82604644D02*
X175754776Y-83184529D01*
X176605883Y-82637409D02*
X175794921Y-83205251D01*
X176628826Y-82670175D02*
X175835885Y-83225399D01*
X176651769Y-82702944D02*
X175877668Y-83244973D01*
X176674712Y-82735708D02*
X175921091Y-83263399D01*
X176675348Y-78840013D02*
X176347687Y-79069444D01*
X176697653Y-82768474D02*
X175964512Y-83281825D01*
X176720597Y-82801242D02*
X176009573Y-83299105D01*
X176743540Y-82834008D02*
X176055452Y-83315811D01*
X176766483Y-82866772D02*
X176102968Y-83331371D01*
X176789426Y-82899538D02*
X176151305Y-83346355D01*
X176812371Y-82932304D02*
X176200463Y-83360767D01*
X176835311Y-82965072D02*
X176252076Y-83373458D01*
X176858255Y-82997837D02*
X176304508Y-83385575D01*
X176881197Y-83030604D02*
X176358579Y-83396545D01*
X176904142Y-83063369D02*
X176414289Y-83406368D01*
X176927084Y-83096135D02*
X176471634Y-83415045D01*
X178216518Y-82828069D02*
X177610343Y-83252513D01*
X178330374Y-82699512D02*
X177450606Y-83315536D01*
X178411461Y-82593904D02*
X177323629Y-83355614D01*
X178423654Y-80142597D02*
X177407906Y-80853830D01*
X178446599Y-80175363D02*
X177430850Y-80886597D01*
X178468723Y-80208701D02*
X177453791Y-80919363D01*
X178473710Y-82501484D02*
X177215494Y-83382500D01*
X178490028Y-80242614D02*
X177476736Y-80952128D01*
X178510513Y-80277102D02*
X177499679Y-80984895D01*
X178525311Y-82416524D02*
X177118007Y-83401928D01*
X178530998Y-80311588D02*
X177522622Y-81017661D01*
X178550664Y-80346649D02*
X177545566Y-81050427D01*
X178568720Y-82337299D02*
X177028712Y-83415622D01*
X178569512Y-80382283D02*
X177568509Y-81083192D01*
X178587541Y-80418490D02*
X177591453Y-81115958D01*
X178605566Y-80454698D02*
X177614394Y-81148725D01*
X178605575Y-82262661D02*
X176945973Y-83424727D01*
X178621959Y-80492054D02*
X177637339Y-81181492D01*
X178637515Y-82191466D02*
X176868147Y-83430389D01*
X178638348Y-80529407D02*
X177660280Y-81214257D01*
X178653918Y-80567336D02*
X177683224Y-81247024D01*
X178665360Y-82123136D02*
X176794417Y-83433186D01*
X178669489Y-80605262D02*
X177706167Y-81279790D01*
X178683421Y-80644338D02*
X177729110Y-81312555D01*
X178689927Y-82057104D02*
X176723962Y-83433686D01*
X178697355Y-80683414D02*
X177752052Y-81345322D01*
X178710468Y-80723063D02*
X177774997Y-81378088D01*
X178711219Y-81993364D02*
X176656785Y-83431893D01*
X178721941Y-80763862D02*
X177797938Y-81410853D01*
X178729233Y-81931920D02*
X176592885Y-83427808D01*
X178733991Y-80805477D02*
X177821454Y-81444439D01*
X178744789Y-81872195D02*
X176531439Y-83421999D01*
X178745467Y-80846271D02*
X177844398Y-81477207D01*
X178755302Y-80888213D02*
X177867342Y-81509972D01*
X178758709Y-81813618D02*
X178303259Y-82132526D01*
X178764320Y-80930733D02*
X177890285Y-81542739D01*
X178770170Y-81756762D02*
X178280317Y-82099762D01*
X178772519Y-80973822D02*
X177913229Y-81575505D01*
X178779898Y-81017486D02*
X177936170Y-81608270D01*
X178779993Y-81701054D02*
X178257373Y-82066996D01*
X178787275Y-81061151D02*
X177959114Y-81641036D01*
X178788177Y-81646492D02*
X178234431Y-82034230D01*
X178793018Y-81105962D02*
X177982058Y-81673803D01*
X178794723Y-81593076D02*
X178211488Y-82001463D01*
X178797938Y-81151344D02*
X178005001Y-81706569D01*
X178800451Y-81540237D02*
X178188546Y-81968699D01*
X178802041Y-81197303D02*
X178027943Y-81739334D01*
X178803721Y-81489116D02*
X178165601Y-81935931D01*
X178804506Y-81244411D02*
X178050886Y-81772099D01*
X178806171Y-81438567D02*
X178142659Y-81903163D01*
X178806970Y-81291516D02*
X178073829Y-81804866D01*
X178807797Y-81339769D02*
X178096774Y-81837631D01*
X178807803Y-81388593D02*
X178119714Y-81870397D01*
X178839821Y-81335634D02*
G75*
G02*
X174599819Y-81335634I-2120001J0D01*
G01*
X174599819Y-81335634D02*
G75*
G02*
X178839821Y-81335634I2120001J0D01*
G01*
X160841335Y-66070502D02*
X161151435Y-66183369D01*
X163078147Y-59924912D02*
X160841335Y-66070502D01*
X163388246Y-60037780D02*
X163078147Y-59924912D01*
X163416093Y-67007637D02*
X163105996Y-66894771D01*
X165342804Y-60749181D02*
X165652905Y-60862051D01*
X165652905Y-60862051D02*
X163416093Y-67007637D01*
X183945202Y-115517243D02*
X187677676Y-117063284D01*
X184184379Y-114939818D02*
X183945202Y-115517243D01*
X185032023Y-112893425D02*
X184792846Y-113470850D01*
X185032023Y-112893425D02*
X188764497Y-114439466D01*
X187916853Y-116485859D02*
X187677676Y-117063284D01*
X188764497Y-114439466D02*
X188525319Y-115016892D01*
X151710967Y-64454773D02*
X152039712Y-64483535D01*
X152280965Y-57939659D02*
X151710967Y-64454773D01*
X152609710Y-57968422D02*
X152280965Y-57939659D01*
X154440540Y-64693580D02*
X154111797Y-64664818D01*
X154681793Y-58149706D02*
X155010539Y-58178469D01*
X155010539Y-58178469D02*
X154440540Y-64693580D01*
X141233743Y-57826259D02*
X141849248Y-57717729D01*
X141935282Y-61804882D02*
X141233743Y-57826259D01*
X141935282Y-61804882D02*
X142550787Y-61696352D01*
X143415093Y-57441628D02*
X144030597Y-57333098D01*
X144116631Y-61420252D02*
X144732136Y-61311722D01*
X144732136Y-61311722D02*
X144030597Y-57333098D01*
X174705000Y-56475000D02*
X174705000Y-57375000D01*
X174705000Y-60075000D02*
X174705000Y-62805000D01*
X174705000Y-62805000D02*
X183895000Y-62805000D01*
X174825000Y-53395000D02*
X183775000Y-53395000D01*
X183895000Y-56475000D02*
X183895000Y-57375000D01*
X183895000Y-60075000D02*
X183895000Y-62805000D01*
X173951436Y-74040381D02*
X174393378Y-74482322D01*
X173951436Y-74040381D02*
X176808148Y-71183669D01*
X175517678Y-75606622D02*
X175959619Y-76048564D01*
X175959619Y-76048564D02*
X178816331Y-73191852D01*
X176808148Y-71183669D02*
X177250089Y-71625611D01*
X178374389Y-72749911D02*
X178816331Y-73191852D01*
X115144206Y-84397311D02*
X115290162Y-84101344D01*
X116356077Y-81939881D02*
X116210122Y-82235850D01*
X121009751Y-87289880D02*
X115144206Y-84397311D01*
X121155710Y-86993913D02*
X121009751Y-87289880D01*
X122075669Y-85128416D02*
X122221623Y-84832448D01*
X122221623Y-84832448D02*
X116356077Y-81939881D01*
X99850000Y-96770001D02*
X99850000Y-99430001D01*
X107530000Y-96770001D02*
X99850000Y-96770001D01*
X107530000Y-96770001D02*
X107530000Y-99430001D01*
X107530000Y-99430001D02*
X99850000Y-99430001D01*
X108800000Y-96770001D02*
X110130000Y-96770001D01*
X110130000Y-96770001D02*
X110130000Y-98100001D01*
X184843898Y-107542957D02*
X184901202Y-107217970D01*
X185319694Y-104844584D02*
X185262391Y-105169570D01*
X191284540Y-108678616D02*
X184843898Y-107542957D01*
X191341845Y-108353629D02*
X191284540Y-108678616D01*
X191703033Y-106305229D02*
X191760338Y-105980242D01*
X191760338Y-105980242D02*
X185319694Y-104844584D01*
X185368542Y-104411851D02*
X185397305Y-104083107D01*
X185607349Y-101682278D02*
X185578589Y-102011022D01*
X191883655Y-104981850D02*
X185368542Y-104411851D01*
X191912417Y-104653105D02*
X191883655Y-104981850D01*
X192093701Y-102581020D02*
X192122464Y-102252276D01*
X192122464Y-102252276D02*
X185607349Y-101682278D01*
X113678409Y-88265877D02*
X119823998Y-90502689D01*
X113791275Y-87955778D02*
X113678409Y-88265877D01*
X114502676Y-86001217D02*
X114615545Y-85691119D01*
X114615545Y-85691119D02*
X120761133Y-87927931D01*
X119823998Y-90502689D02*
X119936863Y-90192589D01*
X120761133Y-87927931D02*
X120648267Y-88238029D01*
X181830000Y-92135000D02*
X181830000Y-91430000D01*
X181830000Y-94170000D02*
X181830000Y-93465000D01*
X186070000Y-91430000D02*
X181830000Y-91430000D01*
X186070000Y-92135000D02*
X186070000Y-91430000D01*
X186070000Y-94170000D02*
X181830000Y-94170000D01*
X186070000Y-94170000D02*
X186070000Y-93465000D01*
X165699999Y-57200001D02*
X165700001Y-55749001D01*
X165700006Y-54249996D02*
X165700003Y-53999996D01*
X165920999Y-54000001D02*
X165700003Y-53999996D01*
X171021000Y-57199999D02*
X165699999Y-57200001D01*
X172999994Y-57199997D02*
X172778997Y-57199999D01*
X172999994Y-57199997D02*
X173000001Y-56950001D01*
X173000000Y-53999995D02*
X167678000Y-53999996D01*
X173000002Y-55450003D02*
X173000000Y-53999995D01*
X96803521Y-134439519D02*
X100975450Y-138611449D01*
X100975450Y-138611449D02*
X110026417Y-129560481D01*
X105854488Y-125388551D02*
X96803521Y-134439519D01*
X110026417Y-129560481D02*
X105854488Y-125388551D01*
M02*
