G04 #@! TF.GenerationSoftware,KiCad,Pcbnew,9.0.6*
G04 #@! TF.CreationDate,2026-06-09T01:32:53+09:00*
G04 #@! TF.ProjectId,Akira_board,416b6972-615f-4626-9f61-72642e6b6963,rev?*
G04 #@! TF.SameCoordinates,Original*
G04 #@! TF.FileFunction,Soldermask,Bot*
G04 #@! TF.FilePolarity,Negative*
%FSLAX46Y46*%
G04 Gerber Fmt 4.6, Leading zero omitted, Abs format (unit mm)*
G04 Created by KiCad (PCBNEW 9.0.6) date 2026-06-09 01:32:53*
%MOMM*%
%LPD*%
G01*
G04 APERTURE LIST*
%ADD10C,2.700000*%
%ADD11C,2.200000*%
%ADD12C,2.600000*%
%ADD13C,1.850000*%
%ADD14C,2.000000*%
%ADD15R,1.600000X1.600000*%
%ADD16O,1.600000X1.600000*%
%ADD17C,0.650000*%
%ADD18O,1.000000X2.100000*%
%ADD19O,1.000000X1.800000*%
%ADD20R,2.000000X2.000000*%
%ADD21R,2.000000X3.200000*%
%ADD22C,5.400000*%
%ADD23C,4.400000*%
%ADD24C,6.400000*%
%ADD25R,1.700000X1.700000*%
%ADD26O,1.700000X1.700000*%
%ADD27R,1.200000X1.200000*%
%ADD28C,1.200000*%
G04 APERTURE END LIST*
D10*
X99000000Y-104000000D03*
D11*
X115380001Y-55954999D03*
D12*
X124190002Y-58495000D03*
D13*
X116610001Y-58495000D03*
X117880002Y-55954997D03*
X119150004Y-58494998D03*
X120420003Y-55955000D03*
X121690000Y-58494999D03*
X122960002Y-55955005D03*
D10*
X177500000Y-119500000D03*
D14*
X105763854Y-142543540D03*
X112933916Y-135345192D03*
X109348885Y-138944366D03*
D10*
X138000000Y-100000000D03*
X162000000Y-100000000D03*
X192000000Y-57000000D03*
D15*
X191880000Y-63660000D03*
D16*
X191880000Y-66200000D03*
X191880000Y-68740000D03*
X191880000Y-71280000D03*
X191880000Y-73820000D03*
X191880000Y-76360000D03*
X191880000Y-78900000D03*
X191880000Y-81440000D03*
X191880000Y-83980000D03*
X191880000Y-86520000D03*
X191880000Y-89060000D03*
X191880000Y-91600000D03*
X191880000Y-94140000D03*
X191880000Y-96680000D03*
X199500000Y-96680000D03*
X199500000Y-94140000D03*
X199500000Y-91600000D03*
X199500000Y-89060000D03*
X199500000Y-86520000D03*
X199500000Y-83980000D03*
X199500000Y-81440000D03*
X199500000Y-78900000D03*
X199500000Y-76360000D03*
X199500000Y-73820000D03*
X199500000Y-71280000D03*
X199500000Y-68740000D03*
X199500000Y-66200000D03*
X199500000Y-63660000D03*
D10*
X122500000Y-119500000D03*
X150000000Y-133500000D03*
D17*
X182520000Y-57907500D03*
X176740000Y-57907500D03*
D18*
X183950000Y-58407500D03*
D19*
X183950000Y-54227500D03*
D18*
X175310000Y-58407500D03*
D19*
X175310000Y-54227500D03*
D10*
X201000000Y-104000000D03*
D20*
X112000000Y-107000000D03*
D14*
X107000000Y-107000000D03*
X109500000Y-107000000D03*
D21*
X115100000Y-114500000D03*
X103900000Y-114500000D03*
D14*
X107000000Y-121500000D03*
X112000000Y-121500000D03*
D22*
X121160000Y-103050000D03*
D23*
X126700000Y-94180000D03*
D24*
X129900000Y-112075000D03*
D23*
X139750000Y-71800000D03*
D24*
X149575000Y-76550000D03*
D23*
X160270000Y-71830000D03*
D24*
X170500000Y-111400000D03*
D23*
X173560000Y-95410000D03*
D22*
X178840000Y-103025000D03*
D11*
X147500000Y-130000000D03*
X152500000Y-130000000D03*
X150000000Y-130000000D03*
D14*
X200366762Y-136059369D03*
X193168414Y-128889307D03*
X196767588Y-132474338D03*
X194073512Y-142352619D03*
X186875164Y-135182557D03*
X190474338Y-138767588D03*
X99470605Y-136250289D03*
X106640667Y-129051941D03*
X103055636Y-132651115D03*
D25*
X108800000Y-98100001D03*
D26*
X106260000Y-98100001D03*
X103720000Y-98100001D03*
X101180000Y-98100001D03*
D10*
X108000000Y-57000000D03*
D27*
X155350000Y-94340000D03*
D28*
X155350000Y-96120000D03*
X155350000Y-97900000D03*
X155350000Y-99680000D03*
X155350000Y-101460000D03*
X155350000Y-103240000D03*
X155350000Y-105020000D03*
X155350000Y-106800000D03*
X144650000Y-107690000D03*
X144650000Y-105910000D03*
X144650000Y-104130000D03*
X144650000Y-102350000D03*
X144650000Y-100570000D03*
X144650000Y-98790000D03*
X144650000Y-97010000D03*
X144650000Y-95230000D03*
M02*
