M48
; DRILL file {KiCad 9.0.6} date 2026-06-09T01:32:55+0900
; FORMAT={-:-/ absolute / metric / decimal}
; #@! TF.CreationDate,2026-06-09T01:32:55+09:00
; #@! TF.GenerationSoftware,Kicad,Pcbnew,9.0.6
; #@! TF.FileFunction,Plated,1,2,PTH
FMAT,2
METRIC
; #@! TA.AperFunction,Plated,PTH,ViaDrill
T1C0.400
; #@! TA.AperFunction,Plated,PTH,ComponentDrill
T2C0.600
; #@! TA.AperFunction,Plated,PTH,ComponentDrill
T3C0.700
; #@! TA.AperFunction,Plated,PTH,ComponentDrill
T4C0.800
; #@! TA.AperFunction,Plated,PTH,ComponentDrill
T5C1.000
; #@! TA.AperFunction,Plated,PTH,ComponentDrill
T6C1.200
; #@! TA.AperFunction,Plated,PTH,ComponentDrill
T7C1.400
; #@! TA.AperFunction,Plated,PTH,ComponentDrill
T8C1.500
; #@! TA.AperFunction,Plated,PTH,ComponentDrill
T9C2.200
; #@! TA.AperFunction,Plated,PTH,ComponentDrill
T10C2.600
; #@! TA.AperFunction,Plated,PTH,ComponentDrill
T11C3.600
; #@! TA.AperFunction,Plated,PTH,ComponentDrill
T12C4.400
%
G90
G05
T1
X98.137Y-85.488
X98.4Y-82.2
X103.7Y-101.8
X104.6Y-104.2
X109.4Y-91.4
X109.7Y-76.779
X109.7Y-88.8
X109.8Y-100.8
X110.2Y-92.4
X111.2Y-87.8
X111.8Y-76.0
X112.345Y-117.555
X112.4Y-116.2
X112.7Y-118.9
X113.1Y-98.0
X113.4Y-92.2
X113.601Y-75.401
X115.275Y-92.2
X116.855Y-110.245
X117.2Y-88.0
X117.9Y-112.896
X118.3Y-125.4
X119.0Y-126.3
X119.3Y-109.0
X119.9Y-114.4
X120.4Y-116.1
X120.6Y-80.6
X122.5Y-78.9
X123.4Y-75.0
X123.499Y-78.8
X124.5Y-76.8
X127.1Y-80.1
X127.8Y-71.0
X128.5Y-77.6
X129.2Y-96.8
X129.9Y-59.7
X130.026Y-108.277
X130.069Y-56.529
X130.2Y-60.9
X130.75Y-69.5
X131.4Y-54.5
X131.75Y-72.25
X131.9Y-66.2
X133.2Y-100.2
X133.3Y-66.6
X133.6Y-75.5
X134.011Y-65.762
X134.7Y-112.5
X135.1Y-66.2
X135.5Y-70.1
X135.5Y-105.0
X135.5Y-111.7
X135.555Y-78.545
X135.8Y-80.3
X136.2Y-104.17
X136.625Y-59.538
X136.9Y-60.5
X137.123Y-64.574
X137.5Y-65.8
X138.3Y-105.0
X139.307Y-66.781
X140.222Y-63.508
X141.04Y-67.481
X141.6Y-68.4
X142.1Y-64.0
X142.8Y-66.7
X143.394Y-62.722
X144.8Y-82.8
X145.5Y-83.6
X145.5Y-88.2
X146.5Y-88.4
X148.4Y-57.45
X149.5Y-114.4
X150.2Y-57.45
X151.4Y-115.4
X154.2Y-140.9
X173.4Y-77.2
X177.0Y-75.6
X178.5Y-60.5
X178.5Y-67.6
X178.989Y-74.446
X179.43Y-61.23
X179.917Y-143.599
X180.0Y-64.437
X180.0Y-73.6
X180.4Y-144.475
X187.2Y-144.0
X187.6Y-57.3
X187.713Y-91.936
X188.4Y-58.6
X188.6Y-143.275
X188.8Y-92.2
X195.121Y-114.801
X195.6Y-117.8
X196.096Y-118.897
X196.154Y-120.554
X196.497Y-115.5
X196.507Y-96.3
X197.188Y-120.088
X198.3Y-120.2
X198.5Y-101.4
X199.1Y-102.2
X199.101Y-100.537
X199.159Y-127.681
X199.186Y-120.8
X199.826Y-128.426
X200.0Y-121.5
X200.1Y-100.5
X202.147Y-98.675
X203.249Y-76.4
X203.65Y-74.0
X204.35Y-72.15
X204.35Y-96.8
X204.35Y-99.4
T3
X144.65Y-95.23
X144.65Y-97.01
X144.65Y-98.79
X144.65Y-100.57
X144.65Y-102.35
X144.65Y-104.13
X144.65Y-105.91
X144.65Y-107.69
X155.35Y-94.34
X155.35Y-96.12
X155.35Y-97.9
X155.35Y-99.68
X155.35Y-101.46
X155.35Y-103.24
X155.35Y-105.02
X155.35Y-106.8
T4
X191.88Y-63.66
X191.88Y-66.2
X191.88Y-68.74
X191.88Y-71.28
X191.88Y-73.82
X191.88Y-76.36
X191.88Y-78.9
X191.88Y-81.44
X191.88Y-83.98
X191.88Y-86.52
X191.88Y-89.06
X191.88Y-91.6
X191.88Y-94.14
X191.88Y-96.68
X199.5Y-63.66
X199.5Y-66.2
X199.5Y-68.74
X199.5Y-71.28
X199.5Y-73.82
X199.5Y-76.36
X199.5Y-78.9
X199.5Y-81.44
X199.5Y-83.98
X199.5Y-86.52
X199.5Y-89.06
X199.5Y-91.6
X199.5Y-94.14
X199.5Y-96.68
T5
X101.18Y-98.1
X103.72Y-98.1
X106.26Y-98.1
X107.0Y-107.0
X107.0Y-121.5
X108.8Y-98.1
X109.5Y-107.0
X112.0Y-107.0
X112.0Y-121.5
T6
X99.471Y-136.25
X103.056Y-132.651
X105.764Y-142.544
X106.641Y-129.052
X109.349Y-138.944
X112.934Y-135.345
X186.875Y-135.183
X190.474Y-138.768
X193.168Y-128.889
X194.074Y-142.353
X196.768Y-132.474
X200.367Y-136.059
T7
X147.5Y-130.0
X150.0Y-130.0
X152.5Y-130.0
T8
X116.61Y-58.495
X117.88Y-55.955
X119.15Y-58.495
X120.42Y-55.955
X121.69Y-58.495
X122.96Y-55.955
T9
X99.0Y-104.0
X108.0Y-57.0
X115.38Y-55.955
X122.5Y-119.5
X138.0Y-100.0
X150.0Y-133.5
X162.0Y-100.0
X177.5Y-119.5
X192.0Y-57.0
X201.0Y-104.0
T10
X124.19Y-58.495
X126.7Y-94.18
X139.75Y-71.8
X160.27Y-71.83
X173.56Y-95.41
T11
X121.16Y-103.05
X178.84Y-103.025
T12
X129.9Y-112.075
X149.575Y-76.55
X170.5Y-111.4
T2
G00X175.31Y-54.627
M15
G01X175.31Y-53.828
M16
G05
G00X175.31Y-58.957
M15
G01X175.31Y-57.857
M16
G05
G00X183.95Y-54.627
M15
G01X183.95Y-53.828
M16
G05
G00X183.95Y-58.957
M15
G01X183.95Y-57.857
M16
G05
T8
G00X103.9Y-113.85
M15
G01X103.9Y-115.15
M16
G05
G00X115.1Y-113.85
M15
G01X115.1Y-115.15
M16
G05
M30
