G04 #@! TF.GenerationSoftware,KiCad,Pcbnew,(5.1.4)-1*
G04 #@! TF.CreationDate,2023-04-06T01:09:12+09:00*
G04 #@! TF.ProjectId,Akira_board,416b6972-615f-4626-9f61-72642e6b6963,rev?*
G04 #@! TF.SameCoordinates,Original*
G04 #@! TF.FileFunction,Copper,L2,Bot*
G04 #@! TF.FilePolarity,Positive*
%FSLAX46Y46*%
G04 Gerber Fmt 4.6, Leading zero omitted, Abs format (unit mm)*
G04 Created by KiCad (PCBNEW (5.1.4)-1) date 2023-04-06 01:09:12*
%MOMM*%
%LPD*%
G04 APERTURE LIST*
%ADD10C,3.000000*%
%ADD11C,1.600000*%
%ADD12C,1.600000*%
%ADD13O,1.700000X1.700000*%
%ADD14R,1.700000X1.700000*%
%ADD15C,2.010000*%
%ADD16C,2.000000*%
%ADD17O,0.900000X1.700000*%
%ADD18O,0.900000X2.400000*%
%ADD19C,0.700000*%
%ADD20C,1.800000*%
%ADD21R,1.800000X1.800000*%
%ADD22C,1.651000*%
%ADD23C,0.100000*%
%ADD24C,1.500000*%
%ADD25C,1.200000*%
%ADD26O,1.600000X1.600000*%
%ADD27R,1.600000X1.600000*%
%ADD28R,2.000000X2.000000*%
%ADD29R,2.000000X3.200000*%
%ADD30C,2.200000*%
%ADD31C,4.400000*%
%ADD32C,5.400000*%
%ADD33C,6.400000*%
%ADD34C,0.800000*%
%ADD35C,0.250000*%
G04 APERTURE END LIST*
D10*
X147100000Y-136200000D03*
X147100000Y-129200000D03*
X116950000Y-107620000D03*
X114830000Y-101060000D03*
X147100000Y-63100000D03*
X179380000Y-101060000D03*
X177250000Y-107620000D03*
D11*
X176200000Y-73875000D03*
X180295760Y-71007118D03*
X164840000Y-63324114D03*
D12*
X164840000Y-63324114D02*
X164840000Y-63324114D01*
D11*
X168650000Y-56725000D03*
X121086062Y-63169778D03*
X124300000Y-67000000D03*
X131900000Y-61999999D03*
X129591257Y-57564945D03*
X174300000Y-71400000D03*
X178130222Y-68186062D03*
D10*
X187100000Y-48700000D03*
X107100000Y-48700000D03*
X94600000Y-92700000D03*
X199600000Y-92700000D03*
X147100000Y-107740000D03*
X147100000Y-80660000D03*
D13*
X137440000Y-90400000D03*
X137440000Y-92940000D03*
X137440000Y-95480000D03*
D14*
X134900000Y-90400000D03*
D13*
X134900000Y-95480000D03*
X134900000Y-98020000D03*
X137440000Y-98020000D03*
X134900000Y-92940000D03*
X100860483Y-90911488D03*
X103400483Y-90911488D03*
X105940483Y-90911488D03*
D14*
X108480483Y-90911488D03*
D15*
X140574803Y-58810861D03*
X135350000Y-59200000D03*
D16*
X183576978Y-127814922D03*
X186850000Y-131700000D03*
X190123022Y-135585078D03*
X103365402Y-121654132D03*
X100107701Y-125552066D03*
X96850000Y-129450000D03*
X191076978Y-121564922D03*
X194350000Y-125450000D03*
X197623022Y-129335078D03*
D17*
X116000000Y-49440000D03*
X124650000Y-49440000D03*
D18*
X116000000Y-52820000D03*
X124650000Y-52820000D03*
D19*
X119900000Y-52450000D03*
X117350000Y-52450000D03*
X118200000Y-52450000D03*
X119050000Y-52450000D03*
X123300000Y-52450000D03*
X121600000Y-52450000D03*
X120750000Y-52450000D03*
X122450000Y-52450000D03*
X117350000Y-53800000D03*
X118200000Y-53800000D03*
X119050000Y-53800000D03*
X119900000Y-53800000D03*
X120750000Y-53800000D03*
X121600000Y-53800000D03*
X122450000Y-53800000D03*
X123300000Y-53800000D03*
D13*
X141165000Y-47535000D03*
X141165000Y-50075000D03*
X138625000Y-47535000D03*
X138625000Y-50075000D03*
X136085000Y-47535000D03*
D14*
X136085000Y-50075000D03*
D20*
X130840000Y-50200000D03*
D21*
X128300000Y-50200000D03*
D22*
X120100000Y-71400000D03*
D23*
G36*
X118937009Y-71501749D02*
G01*
X119998251Y-70237009D01*
X121262991Y-71298251D01*
X120201749Y-72562991D01*
X118937009Y-71501749D01*
X118937009Y-71501749D01*
G37*
D22*
X114262742Y-66501958D03*
X114700000Y-71400000D03*
D23*
G36*
X113550303Y-71602723D02*
G01*
X114497277Y-70250303D01*
X115849697Y-71197277D01*
X114902723Y-72549697D01*
X113550303Y-71602723D01*
X113550303Y-71602723D01*
G37*
D22*
X108458062Y-67029348D03*
X162099999Y-62000001D03*
D23*
G36*
X161700713Y-60902973D02*
G01*
X163197027Y-61600715D01*
X162499285Y-63097029D01*
X161002971Y-62399287D01*
X161700713Y-60902973D01*
X161700713Y-60902973D01*
G37*
D22*
X165320351Y-55093935D03*
X153299999Y-59200000D03*
D23*
G36*
X152630387Y-58243695D02*
G01*
X154256304Y-58530388D01*
X153969611Y-60156305D01*
X152343694Y-59869612D01*
X152630387Y-58243695D01*
X152630387Y-58243695D01*
G37*
D22*
X154623199Y-51695764D03*
X159300000Y-60800000D03*
D23*
G36*
X158806621Y-59741946D02*
G01*
X160358054Y-60306621D01*
X159793379Y-61858054D01*
X158241946Y-61293379D01*
X158806621Y-59741946D01*
X158806621Y-59741946D01*
G37*
D22*
X161906194Y-53639542D03*
X156300000Y-59800000D03*
D23*
G36*
X155716283Y-58788973D02*
G01*
X157311027Y-59216283D01*
X156883717Y-60811027D01*
X155288973Y-60383717D01*
X155716283Y-58788973D01*
X155716283Y-58788973D01*
G37*
D22*
X158272202Y-52439646D03*
X150300000Y-58800000D03*
D23*
G36*
X149549588Y-57905694D02*
G01*
X151194306Y-58049588D01*
X151050412Y-59694306D01*
X149405694Y-59550412D01*
X149549588Y-57905694D01*
X149549588Y-57905694D01*
G37*
D22*
X150964126Y-51208996D03*
D24*
X182300000Y-82600000D03*
X180432505Y-78091468D03*
D25*
X127774599Y-64086783D03*
X126700000Y-62400000D03*
D23*
G36*
X125871585Y-62216345D02*
G01*
X126883655Y-61571585D01*
X127528415Y-62583655D01*
X126516345Y-63228415D01*
X125871585Y-62216345D01*
X125871585Y-62216345D01*
G37*
D16*
X173700000Y-46700000D03*
X173700000Y-51200000D03*
X167200000Y-46700000D03*
X167200000Y-51200000D03*
X182900000Y-46700000D03*
X182900000Y-51200000D03*
X176400000Y-46700000D03*
X176400000Y-51200000D03*
D11*
X171900000Y-58800000D03*
D12*
X171900000Y-58800000D02*
X171900000Y-58800000D01*
D11*
X167529348Y-65041939D03*
X170100000Y-67000000D03*
D12*
X170100000Y-67000000D02*
X170100000Y-67000000D01*
D11*
X174998042Y-61162741D03*
X116299114Y-76410000D03*
D12*
X116299114Y-76410000D02*
X116299114Y-76410000D01*
D11*
X109700000Y-72600000D03*
X104193935Y-73979649D03*
D12*
X104193935Y-73979649D02*
X104193935Y-73979649D01*
D11*
X111100000Y-77200000D03*
X108700001Y-83799999D03*
D12*
X108700001Y-83799999D02*
X108700001Y-83799999D01*
D11*
X101339646Y-81827798D03*
X106539542Y-79393807D03*
D12*
X106539542Y-79393807D02*
X106539542Y-79393807D01*
D11*
X113700000Y-82000000D03*
X113511846Y-60611846D03*
D12*
X113511846Y-60611846D02*
X113511846Y-60611846D01*
D11*
X118900000Y-66000000D03*
X172275000Y-69025000D03*
D12*
X172275000Y-69025000D02*
X172275000Y-69025000D01*
D11*
X177663154Y-63636846D03*
D26*
X195220000Y-55700000D03*
X187600000Y-88720000D03*
X195220000Y-58240000D03*
X187600000Y-86180000D03*
X195220000Y-60780000D03*
X187600000Y-83640000D03*
X195220000Y-63320000D03*
X187600000Y-81100000D03*
X195220000Y-65860000D03*
X187600000Y-78560000D03*
X195220000Y-68400000D03*
X187600000Y-76020000D03*
X195220000Y-70940000D03*
X187600000Y-73480000D03*
X195220000Y-73480000D03*
X187600000Y-70940000D03*
X195220000Y-76020000D03*
X187600000Y-68400000D03*
X195220000Y-78560000D03*
X187600000Y-65860000D03*
X195220000Y-81100000D03*
X187600000Y-63320000D03*
X195220000Y-83640000D03*
X187600000Y-60780000D03*
X195220000Y-86180000D03*
X187600000Y-58240000D03*
X195220000Y-88720000D03*
D27*
X187600000Y-55700000D03*
D28*
X104600000Y-97700000D03*
D16*
X102100000Y-97700000D03*
X99600000Y-97700000D03*
D29*
X107700000Y-105200000D03*
X96500000Y-105200000D03*
D16*
X104600000Y-112200000D03*
X99600000Y-112200000D03*
D30*
X144600000Y-124200000D03*
X147100000Y-124200000D03*
X149600000Y-124200000D03*
D31*
X123800000Y-88380000D03*
X136850000Y-66000000D03*
X157370000Y-66030000D03*
X170660000Y-89610000D03*
D32*
X118260000Y-97250000D03*
X175940000Y-97225000D03*
D33*
X167600000Y-105600000D03*
X127000000Y-106275000D03*
X146675000Y-70750000D03*
D16*
X110607701Y-127802066D03*
X107350000Y-131700000D03*
X104092299Y-135597934D03*
D34*
X175575000Y-134100000D03*
X112950000Y-132850000D03*
X160924989Y-132414998D03*
X189337863Y-115463705D03*
X187145079Y-117020079D03*
X188308806Y-116492762D03*
X132740265Y-124953414D03*
X132700030Y-102425000D03*
X110550000Y-103050000D03*
X159474988Y-132549980D03*
X192400000Y-55750000D03*
X192260209Y-53775000D03*
X162824999Y-76550000D03*
X119375000Y-78425000D03*
X118375000Y-91950000D03*
X193125000Y-58150000D03*
X193125000Y-54475000D03*
X119147728Y-91315259D03*
X120477551Y-78347754D03*
X163822631Y-76481198D03*
X175150000Y-81700000D03*
X191024999Y-53324990D03*
X191216757Y-68099999D03*
X134050000Y-82800000D03*
X161600000Y-51200000D03*
X189512653Y-69287347D03*
X105800000Y-94000000D03*
X132225000Y-57650000D03*
X183725000Y-69900000D03*
X128150000Y-92050000D03*
X185075000Y-93150000D03*
X183875000Y-114738705D03*
X121437653Y-114762347D03*
X122250000Y-114013705D03*
X183996245Y-113592154D03*
X184350000Y-92317948D03*
X190575000Y-52250000D03*
X191216757Y-72875000D03*
X173337260Y-60037740D03*
X187250000Y-51000000D03*
X130800000Y-67900000D03*
X114725000Y-50975000D03*
X125700000Y-51000000D03*
X161325000Y-133375000D03*
X110575000Y-133450000D03*
X164354701Y-136310078D03*
X184825000Y-136725000D03*
X185925000Y-134025000D03*
X163800000Y-135400000D03*
X192436950Y-114662745D03*
X131369053Y-131397253D03*
X196200000Y-53000000D03*
X164900000Y-52424972D03*
X190347437Y-115479437D03*
X132250020Y-99800000D03*
X132250020Y-125825000D03*
X131750000Y-90300000D03*
X134900000Y-56925000D03*
X131800010Y-130211146D03*
X191372749Y-115090535D03*
X131800010Y-94350000D03*
X123750000Y-83400000D03*
X123200000Y-70200000D03*
X136900000Y-78675010D03*
X163025000Y-78475000D03*
X162824999Y-94400000D03*
X190474930Y-93875000D03*
X190863437Y-81838437D03*
X190567347Y-74932653D03*
X189682018Y-71690668D03*
X130625000Y-132099970D03*
X193525000Y-114600000D03*
D35*
X187600000Y-100875000D02*
X187600000Y-88720000D01*
X175575000Y-134100000D02*
X177650000Y-134100000D01*
X177650000Y-134100000D02*
X181475000Y-130275000D01*
X181475000Y-130275000D02*
X181475000Y-118500000D01*
X187600000Y-112375000D02*
X187600000Y-100875000D01*
X181475000Y-118500000D02*
X187600000Y-112375000D01*
X104092299Y-135597934D02*
X110202066Y-135597934D01*
X110202066Y-135597934D02*
X112950000Y-132850000D01*
X160924989Y-131849313D02*
X161199979Y-131574323D01*
X160924989Y-132414998D02*
X160924989Y-131849313D01*
X156300000Y-60754620D02*
X161199979Y-65654599D01*
X156300000Y-59800000D02*
X156300000Y-60754620D01*
X161199979Y-65654599D02*
X161199979Y-131574323D01*
X194088630Y-65860000D02*
X195220000Y-65860000D01*
X189337863Y-114964287D02*
X192099950Y-112202200D01*
X192099950Y-112202200D02*
X192099950Y-82900050D01*
X189337863Y-115463705D02*
X189337863Y-114964287D01*
X192099950Y-82900050D02*
X193291785Y-81708215D01*
X193291785Y-81708215D02*
X193291786Y-66656844D01*
X193291786Y-66656844D02*
X194088630Y-65860000D01*
X192391767Y-63608233D02*
X192391767Y-66284045D01*
X195220000Y-60780000D02*
X192391767Y-63608233D01*
X192391767Y-66284045D02*
X192391767Y-73250000D01*
X192391767Y-73250000D02*
X192391767Y-81335413D01*
X192391767Y-81335413D02*
X191199930Y-82527250D01*
X191199930Y-82527250D02*
X191199930Y-111829400D01*
X191199930Y-111829400D02*
X187145079Y-115884251D01*
X187145079Y-115884251D02*
X187145079Y-117020079D01*
X192841777Y-65698223D02*
X192841777Y-66470445D01*
X195220000Y-63320000D02*
X192841777Y-65698223D01*
X192841777Y-66470445D02*
X192841777Y-81521813D01*
X191649940Y-82713650D02*
X191649940Y-82760830D01*
X192841777Y-81521813D02*
X191649940Y-82713650D01*
X191649940Y-82713650D02*
X191649940Y-112015800D01*
X188612862Y-116188706D02*
X188308806Y-116492762D01*
X191649940Y-112015800D02*
X188612862Y-115052878D01*
X188612862Y-115052878D02*
X188612862Y-116188706D01*
X132740265Y-124953414D02*
X132740265Y-102465235D01*
X132740265Y-102465235D02*
X132700030Y-102425000D01*
X110550000Y-103050000D02*
X109850000Y-102350000D01*
X104250000Y-102350000D02*
X99600000Y-97700000D01*
X109850000Y-102350000D02*
X104250000Y-102350000D01*
X150300000Y-67911410D02*
X160299959Y-77911369D01*
X150300000Y-58800000D02*
X150300000Y-67911410D01*
X160299959Y-120338631D02*
X159749978Y-120888612D01*
X160299959Y-77911369D02*
X160299959Y-120338631D01*
X159749978Y-120888612D02*
X159749978Y-132274990D01*
X159749978Y-132274990D02*
X159474988Y-132549980D01*
X192400000Y-55750000D02*
X192400000Y-53914791D01*
X192400000Y-53914791D02*
X192260209Y-53775000D01*
X163714999Y-65035001D02*
X162550009Y-66199991D01*
X168650000Y-56725000D02*
X163714999Y-61660001D01*
X163714999Y-61660001D02*
X163714999Y-65035001D01*
X162550009Y-66199991D02*
X162550009Y-76275010D01*
X162550009Y-76275010D02*
X162824999Y-76550000D01*
X119375000Y-78425000D02*
X118375000Y-79425000D01*
X118375000Y-79425000D02*
X118375000Y-91950000D01*
X194350000Y-89590000D02*
X195220000Y-88720000D01*
X194350000Y-125450000D02*
X194350000Y-89590000D01*
X193125000Y-55040685D02*
X193125000Y-58150000D01*
X193125000Y-54475000D02*
X193125000Y-55040685D01*
X119147728Y-90749574D02*
X118825010Y-90426856D01*
X119147728Y-91315259D02*
X119147728Y-90749574D01*
X118825010Y-90426856D02*
X118825010Y-80000295D01*
X118825010Y-80000295D02*
X120477551Y-78347754D01*
X163822631Y-66877369D02*
X171900000Y-58800000D01*
X163822631Y-76481198D02*
X163822631Y-66877369D01*
X175675000Y-48675000D02*
X173700000Y-46700000D01*
X185925000Y-46575000D02*
X183825000Y-48675000D01*
X188750000Y-46575000D02*
X185925000Y-46575000D01*
X190741757Y-81100000D02*
X191941757Y-79900000D01*
X187600000Y-81100000D02*
X190741757Y-81100000D01*
X183825000Y-48675000D02*
X175675000Y-48675000D01*
X191941758Y-63421832D02*
X193850000Y-61513590D01*
X193850000Y-61513590D02*
X193850000Y-51675000D01*
X191941757Y-79900000D02*
X191941758Y-63421832D01*
X193850000Y-51675000D02*
X188750000Y-46575000D01*
X176050000Y-82600000D02*
X182300000Y-82600000D01*
X175150000Y-81700000D02*
X176050000Y-82600000D01*
X186340000Y-78560000D02*
X182300000Y-82600000D01*
X187600000Y-78560000D02*
X186340000Y-78560000D01*
X163360587Y-55093935D02*
X165320351Y-55093935D01*
X161906194Y-53639542D02*
X163360587Y-55093935D01*
X191024999Y-53324990D02*
X191024999Y-67908241D01*
X191024999Y-67908241D02*
X191216757Y-68099999D01*
X182503973Y-76020000D02*
X180432505Y-78091468D01*
X187600000Y-76020000D02*
X182503973Y-76020000D01*
X137440000Y-94142081D02*
X137440000Y-95480000D01*
X137440000Y-92940000D02*
X137440000Y-94142081D01*
X102100000Y-96285787D02*
X102835787Y-95550000D01*
X102100000Y-97700000D02*
X102100000Y-96285787D01*
X108480483Y-92011488D02*
X108480483Y-90911488D01*
X108480483Y-92392519D02*
X108480483Y-92011488D01*
X105323002Y-95550000D02*
X108480483Y-92392519D01*
X102835787Y-95550000D02*
X105323002Y-95550000D01*
X146000001Y-123100001D02*
X147100000Y-124200000D01*
X136264999Y-113364999D02*
X146000001Y-123100001D01*
X136264999Y-96655001D02*
X136264999Y-113364999D01*
X137440000Y-95480000D02*
X136264999Y-96655001D01*
X136264999Y-85014999D02*
X134050000Y-82800000D01*
X137440000Y-92940000D02*
X136264999Y-91764999D01*
X136264999Y-91764999D02*
X136264999Y-85014999D01*
X121086062Y-70413938D02*
X121086062Y-63169778D01*
X120100000Y-71400000D02*
X121086062Y-70413938D01*
X141165000Y-47535000D02*
X157935000Y-47535000D01*
X157935000Y-47535000D02*
X161600000Y-51200000D01*
X182900000Y-63416284D02*
X178130222Y-68186062D01*
X182900000Y-51200000D02*
X182900000Y-63416284D01*
X178130222Y-68841580D02*
X178130222Y-68186062D01*
X180295760Y-71007118D02*
X178130222Y-68841580D01*
X182768642Y-73480000D02*
X187600000Y-73480000D01*
X180295760Y-71007118D02*
X182768642Y-73480000D01*
X188399999Y-72680001D02*
X187600000Y-73480000D01*
X188725001Y-72354999D02*
X188399999Y-72680001D01*
X189512653Y-69287347D02*
X188725001Y-70074999D01*
X188725001Y-70074999D02*
X188725001Y-72354999D01*
X123300000Y-60955840D02*
X121086062Y-63169778D01*
X123300000Y-53800000D02*
X123300000Y-60955840D01*
X105800000Y-91051971D02*
X105940483Y-90911488D01*
X105800000Y-94000000D02*
X105800000Y-91051971D01*
X124300000Y-64800000D02*
X124300000Y-67000000D01*
X126700000Y-62400000D02*
X124300000Y-64800000D01*
X126700000Y-60456202D02*
X129591257Y-57564945D01*
X126700000Y-62400000D02*
X126700000Y-60456202D01*
X132350000Y-57775000D02*
X132225000Y-57650000D01*
X140574803Y-58810861D02*
X139538942Y-57775000D01*
X139538942Y-57775000D02*
X132350000Y-57775000D01*
X184765000Y-70940000D02*
X187600000Y-70940000D01*
X183725000Y-69900000D02*
X184765000Y-70940000D01*
X132225000Y-51395000D02*
X132225000Y-57650000D01*
X136085000Y-47535000D02*
X132225000Y-51395000D01*
X124300000Y-67000000D02*
X128150000Y-70850000D01*
X128150000Y-70850000D02*
X128150000Y-92050000D01*
X185075000Y-93150000D02*
X185075000Y-113538705D01*
X185075000Y-113538705D02*
X183875000Y-114738705D01*
X112125000Y-78225000D02*
X112125000Y-111425000D01*
X111100000Y-77200000D02*
X112125000Y-78225000D01*
X115462347Y-114762347D02*
X121437653Y-114762347D01*
X112125000Y-111425000D02*
X115462347Y-114762347D01*
X116299114Y-76410000D02*
X115300000Y-77409114D01*
X115300000Y-89275000D02*
X112575010Y-91999990D01*
X115300000Y-77409114D02*
X115300000Y-89275000D01*
X112575010Y-91999990D02*
X112575010Y-97075000D01*
X112575010Y-97075000D02*
X112575010Y-111238600D01*
X112575010Y-111238600D02*
X115350115Y-114013705D01*
X115350115Y-114013705D02*
X122250000Y-114013705D01*
X183996245Y-113592154D02*
X184624990Y-112963409D01*
X184624990Y-112963409D02*
X184624990Y-101500000D01*
X184242948Y-92425000D02*
X184350000Y-92317948D01*
X184624990Y-101500000D02*
X184242948Y-101117958D01*
X184242948Y-101117958D02*
X184242948Y-92425000D01*
X157528320Y-51695764D02*
X158272202Y-52439646D01*
X154623199Y-51695764D02*
X157528320Y-51695764D01*
X190575000Y-52250000D02*
X190575000Y-52701987D01*
X190299998Y-52976989D02*
X190299998Y-53672991D01*
X190575000Y-52701987D02*
X190299998Y-52976989D01*
X190299998Y-53672991D02*
X190574989Y-53947982D01*
X190491756Y-72149999D02*
X191216757Y-72875000D01*
X190574989Y-53947982D02*
X190491756Y-54031215D01*
X190491756Y-54031215D02*
X190491756Y-72149999D01*
X186468630Y-83640000D02*
X182883630Y-87225000D01*
X187600000Y-83640000D02*
X186468630Y-83640000D01*
X182883630Y-87225000D02*
X174000000Y-87225000D01*
X174000000Y-87225000D02*
X171149999Y-84374999D01*
X171149999Y-84374999D02*
X171149999Y-68484999D01*
X171149999Y-68484999D02*
X173337260Y-66297738D01*
X173337260Y-66297738D02*
X173337260Y-60037740D01*
X187600000Y-55700000D02*
X187600000Y-51350000D01*
X187600000Y-51350000D02*
X187250000Y-51000000D01*
X130774999Y-67874999D02*
X130800000Y-67900000D01*
X130774999Y-61459998D02*
X130774999Y-67874999D01*
X130840000Y-50200000D02*
X130840000Y-61394997D01*
X130840000Y-61394997D02*
X130774999Y-61459998D01*
X119050000Y-51955026D02*
X118069974Y-50975000D01*
X119050000Y-52450000D02*
X119050000Y-51955026D01*
X118069974Y-50975000D02*
X114725000Y-50975000D01*
X119900000Y-53449002D02*
X119900000Y-53800000D01*
X120750000Y-52599002D02*
X119900000Y-53449002D01*
X120750000Y-52450000D02*
X120750000Y-52599002D01*
X121705026Y-51000000D02*
X125700000Y-51000000D01*
X120750000Y-52450000D02*
X120750000Y-51955026D01*
X120750000Y-51955026D02*
X121705026Y-51000000D01*
X109700000Y-71064700D02*
X114262742Y-66501958D01*
X109700000Y-72600000D02*
X109700000Y-71064700D01*
X159300000Y-61778478D02*
X161649989Y-64128467D01*
X159300000Y-60800000D02*
X159300000Y-61778478D01*
X161649989Y-64128467D02*
X161649989Y-133050011D01*
X161649989Y-133050011D02*
X161325000Y-133375000D01*
X100850000Y-133450000D02*
X96850000Y-129450000D01*
X110575000Y-133450000D02*
X100850000Y-133450000D01*
X184825000Y-136725000D02*
X184825000Y-134700000D01*
X184825000Y-134700000D02*
X185500000Y-134025000D01*
X185500000Y-134025000D02*
X185925000Y-134025000D01*
X153299999Y-70274999D02*
X153299999Y-59200000D01*
X163187076Y-136310078D02*
X160199988Y-133322990D01*
X164354701Y-136310078D02*
X163187076Y-136310078D01*
X160199988Y-133322990D02*
X160199988Y-121075012D01*
X160199988Y-121075012D02*
X160749969Y-120525031D01*
X160749969Y-120525031D02*
X160749969Y-77724969D01*
X160749969Y-77724969D02*
X153299999Y-70274999D01*
X162099999Y-133699999D02*
X162099999Y-62000001D01*
X163800000Y-135400000D02*
X162099999Y-133699999D01*
X193449980Y-84278650D02*
X193449980Y-87313610D01*
X195220000Y-83640000D02*
X194088630Y-83640000D01*
X194088630Y-83640000D02*
X193449980Y-84278650D01*
X193449980Y-87313610D02*
X193449980Y-113472925D01*
X193074991Y-114024704D02*
X192436950Y-114662745D01*
X193449980Y-113472925D02*
X193074991Y-113847914D01*
X193074991Y-113847914D02*
X193074991Y-114024704D01*
X131369053Y-130831568D02*
X131075010Y-130537525D01*
X131369053Y-131397253D02*
X131369053Y-130831568D01*
X131075010Y-130537525D02*
X131075010Y-93761400D01*
X131896410Y-92940000D02*
X134900000Y-92940000D01*
X131075010Y-93761400D02*
X131896410Y-92940000D01*
X195220000Y-83640000D02*
X197700000Y-81160000D01*
X197700000Y-81160000D02*
X197700000Y-54500000D01*
X197700000Y-54500000D02*
X196200000Y-53000000D01*
X139474999Y-46685001D02*
X138625000Y-47535000D01*
X139800001Y-46359999D02*
X139474999Y-46685001D01*
X158659999Y-46359999D02*
X139800001Y-46359999D01*
X158659999Y-46359999D02*
X158835027Y-46359999D01*
X158835027Y-46359999D02*
X164900000Y-52424972D01*
X195220000Y-78560000D02*
X193741795Y-80038205D01*
X193741795Y-81941795D02*
X192549960Y-83133630D01*
X193741795Y-80038205D02*
X193741795Y-81941795D01*
X192549960Y-83133630D02*
X192549960Y-94025000D01*
X192549960Y-94025000D02*
X192549960Y-112388600D01*
X192549960Y-112388600D02*
X190347437Y-114591123D01*
X190347437Y-114591123D02*
X190347437Y-115479437D01*
X132250020Y-99824980D02*
X131975030Y-100099970D01*
X132250020Y-99800000D02*
X132250020Y-99824980D01*
X131975030Y-100099970D02*
X131975030Y-125550010D01*
X131975030Y-125550010D02*
X132250020Y-125825000D01*
X138625000Y-50075000D02*
X143225000Y-54675000D01*
X131750000Y-80457998D02*
X131750000Y-90300000D01*
X143225000Y-54675000D02*
X143225000Y-68982998D01*
X143225000Y-68982998D02*
X131750000Y-80457998D01*
X136085000Y-50075000D02*
X136085000Y-55740000D01*
X136085000Y-55740000D02*
X134900000Y-56925000D01*
X134900000Y-98020000D02*
X132755020Y-98020000D01*
X132355000Y-98020000D02*
X131525020Y-98849980D01*
X132755020Y-98020000D02*
X132355000Y-98020000D01*
X131525020Y-98849980D02*
X131525020Y-129936156D01*
X131525020Y-129936156D02*
X131800010Y-130211146D01*
X191372749Y-115090535D02*
X191372749Y-114202221D01*
X191372749Y-114202221D02*
X192999970Y-112575000D01*
X192999970Y-83320030D02*
X195220000Y-81100000D01*
X192999970Y-112575000D02*
X192999970Y-83320030D01*
X131525020Y-98849980D02*
X131525020Y-94624990D01*
X131525020Y-94624990D02*
X131800010Y-94350000D01*
X123750000Y-83400000D02*
X123200000Y-82850000D01*
X123200000Y-82850000D02*
X123200000Y-70200000D01*
X136900000Y-88247818D02*
X136900000Y-78675010D01*
X137440000Y-90400000D02*
X137440000Y-88787818D01*
X137440000Y-88787818D02*
X136900000Y-88247818D01*
X163025000Y-79040685D02*
X162550009Y-79515676D01*
X163025000Y-78475000D02*
X163025000Y-79040685D01*
X162550009Y-79515676D02*
X162550009Y-94125010D01*
X162550009Y-94125010D02*
X162824999Y-94400000D01*
X190500000Y-93875000D02*
X190749920Y-93625080D01*
X190474930Y-93875000D02*
X190500000Y-93875000D01*
X190749920Y-93625080D02*
X190749920Y-81951954D01*
X190749920Y-81951954D02*
X190863437Y-81838437D01*
X190567347Y-74932653D02*
X189682018Y-74047324D01*
X189682018Y-74047324D02*
X189682018Y-71690668D01*
X130625000Y-93575000D02*
X130625000Y-132099970D01*
X134900000Y-90400000D02*
X133800000Y-90400000D01*
X133800000Y-90400000D02*
X130625000Y-93575000D01*
X193899990Y-87500010D02*
X195220000Y-86180000D01*
X193899990Y-113659325D02*
X193899990Y-87500010D01*
X193525000Y-114600000D02*
X193525000Y-114034315D01*
X193525000Y-114034315D02*
X193899990Y-113659325D01*
M02*
