  0
SECTION
  2
HEADER
  9
$ANGBASE
  50
0.0
  9
$ANGDIR
  70
1
  9
$MEASUREMENT
  70
0
  0
ENDSEC
  0
SECTION
  2
TABLES
  0
TABLE
  2
LTYPE
  70
4
  0
LTYPE
  5
40F
  2
CONTINUOUS
  70
0
  3
Solid line
  72
65
  73
0
  40
0.0
  0
LTYPE
  5
410
  2
DASHDOT
 70
0
  3
Dash Dot ____ _ ____ _
 72
65
 73
4
 40
2.0
 49
1.25
 49
-0.25
 49
0.25
 49
-0.25
  0
LTYPE
  5
411
  2
DASHED
 70
0
  3
Dashed __ __ __ __ __
 72
65
 73
2
 40
0.75
 49
0.5
 49
-0.25
  0
LTYPE
  5
43B
  2
DOTTED
 70
0
  3
Dotted .  .  .  .
 72
65
 73
2
 40
0.2
 49
0.0
 49
-0.2
  0
ENDTAB
  0
TABLE
  2
STYLE
  70
4
  0
STYLE
  2
KICAD
  70
0
  40
0
  41
1
  42
1
  50
0
  71
0
  3
isocp.shx
  0
STYLE
  2
KICADB
  70
0
  40
0
  41
1
  42
1
  50
0
  71
0
  3
isocp.shx
  0
STYLE
  2
KICADI
  70
0
  40
0
  41
1
  42
1
  50
15
  71
0
  3
isocp.shx
  0
STYLE
  2
KICADBI
  70
0
  40
0
  41
1
  42
1
  50
15
  71
0
  3
isocp.shx
  0
ENDTAB
  0
TABLE
  2
LAYER
  70
1
  0
LAYER
  2
BLACK
  70
0
  62
7
  6
CONTINUOUS
  0
ENDTAB
  0
ENDSEC
  0
SECTION
  2
ENTITIES
0
LINE
8
BLACK
6
CONTINUOUS
10
4.93406
20
-1.77958
11
4.93405
21
-1.77953
0
LINE
8
BLACK
6
CONTINUOUS
10
4.93405
20
-1.77953
11
4.93407
21
-1.77933
0
LINE
8
BLACK
6
CONTINUOUS
10
4.93407
20
-1.77933
11
4.93413
21
-1.77915
0
LINE
8
BLACK
6
CONTINUOUS
10
4.93413
20
-1.77915
11
4.93422
21
-1.77898
0
LINE
8
BLACK
6
CONTINUOUS
10
4.93422
20
-1.77898
11
4.93434
21
-1.77883
0
LINE
8
BLACK
6
CONTINUOUS
10
4.93434
20
-1.77883
11
4.93449
21
-1.77871
0
LINE
8
BLACK
6
CONTINUOUS
10
4.93449
20
-1.77871
11
4.93466
21
-1.77861
0
LINE
8
BLACK
6
CONTINUOUS
10
4.93466
20
-1.77861
11
4.93485
21
-1.77856
0
LINE
8
BLACK
6
CONTINUOUS
10
4.93485
20
-1.77856
11
4.93499
21
-1.77854
0
LINE
8
BLACK
6
CONTINUOUS
10
4.93499
20
-1.77854
11
4.93499
21
-1.77854
0
LINE
8
BLACK
6
CONTINUOUS
10
4.93499
20
-1.77854
11
4.93504
21
-1.77854
0
LINE
8
BLACK
6
CONTINUOUS
10
4.93504
20
-1.77854
11
4.93509
21
-1.77854
0
LINE
8
BLACK
6
CONTINUOUS
10
4.93509
20
-1.77854
11
7.44479
21
-1.77854
0
LINE
8
BLACK
6
CONTINUOUS
10
7.44479
20
-1.77854
11
7.4448
21
-1.77854
0
LINE
8
BLACK
6
CONTINUOUS
10
7.4448
20
-1.77854
11
7.44489
21
-1.77854
0
LINE
8
BLACK
6
CONTINUOUS
10
7.44489
20
-1.77854
11
7.44493
21
-1.77854
0
LINE
8
BLACK
6
CONTINUOUS
10
7.44493
20
-1.77854
11
7.44494
21
-1.77854
0
LINE
8
BLACK
6
CONTINUOUS
10
7.44494
20
-1.77854
11
7.44499
21
-1.77854
0
LINE
8
BLACK
6
CONTINUOUS
10
7.44499
20
-1.77854
11
7.44503
21
-1.77855
0
LINE
8
BLACK
6
CONTINUOUS
10
7.44503
20
-1.77855
11
7.44507
21
-1.77856
0
LINE
8
BLACK
6
CONTINUOUS
10
7.44507
20
-1.77856
11
7.44513
21
-1.77857
0
LINE
8
BLACK
6
CONTINUOUS
10
7.44513
20
-1.77857
11
7.44518
21
-1.77858
0
LINE
8
BLACK
6
CONTINUOUS
10
7.44518
20
-1.77858
11
7.44522
21
-1.7786
0
LINE
8
BLACK
6
CONTINUOUS
10
7.44522
20
-1.7786
11
7.44526
21
-1.77861
0
LINE
8
BLACK
6
CONTINUOUS
10
7.44526
20
-1.77861
11
7.44531
21
-1.77864
0
LINE
8
BLACK
6
CONTINUOUS
10
7.44531
20
-1.77864
11
7.44536
21
-1.77866
0
LINE
8
BLACK
6
CONTINUOUS
10
7.44536
20
-1.77866
11
7.44539
21
-1.77869
0
LINE
8
BLACK
6
CONTINUOUS
10
7.44539
20
-1.77869
11
7.44543
21
-1.77871
0
LINE
8
BLACK
6
CONTINUOUS
10
7.44543
20
-1.77871
11
7.44547
21
-1.77874
0
LINE
8
BLACK
6
CONTINUOUS
10
7.44547
20
-1.77874
11
7.44548
21
-1.77874
0
LINE
8
BLACK
6
CONTINUOUS
10
7.44548
20
-1.77874
11
7.44551
21
-1.77877
0
LINE
8
BLACK
6
CONTINUOUS
10
7.44551
20
-1.77877
11
7.44558
21
-1.77883
0
LINE
8
BLACK
6
CONTINUOUS
10
7.44558
20
-1.77883
11
7.44559
21
-1.77883
0
LINE
8
BLACK
6
CONTINUOUS
10
7.44559
20
-1.77883
11
7.95732
21
-2.20987
0
LINE
8
BLACK
6
CONTINUOUS
10
7.95732
20
-2.20987
11
7.95739
21
-2.20993
0
LINE
8
BLACK
6
CONTINUOUS
10
7.95739
20
-2.20993
11
7.95743
21
-2.20997
0
LINE
8
BLACK
6
CONTINUOUS
10
7.95743
20
-2.20997
11
7.95747
21
-2.21001
0
LINE
8
BLACK
6
CONTINUOUS
10
7.95747
20
-2.21001
11
7.95749
21
-2.21005
0
LINE
8
BLACK
6
CONTINUOUS
10
7.95749
20
-2.21005
11
7.95752
21
-2.21008
0
LINE
8
BLACK
6
CONTINUOUS
10
7.95752
20
-2.21008
11
7.95754
21
-2.21013
0
LINE
8
BLACK
6
CONTINUOUS
10
7.95754
20
-2.21013
11
7.95757
21
-2.21017
0
LINE
8
BLACK
6
CONTINUOUS
10
7.95757
20
-2.21017
11
7.95759
21
-2.21021
0
LINE
8
BLACK
6
CONTINUOUS
10
7.95759
20
-2.21021
11
7.95761
21
-2.21025
0
LINE
8
BLACK
6
CONTINUOUS
10
7.95761
20
-2.21025
11
7.95762
21
-2.2103
0
LINE
8
BLACK
6
CONTINUOUS
10
7.95762
20
-2.2103
11
7.95764
21
-2.21035
0
LINE
8
BLACK
6
CONTINUOUS
10
7.95764
20
-2.21035
11
7.95765
21
-2.2104
0
LINE
8
BLACK
6
CONTINUOUS
10
7.95765
20
-2.2104
11
7.95766
21
-2.21044
0
LINE
8
BLACK
6
CONTINUOUS
10
7.95766
20
-2.21044
11
7.95767
21
-2.21049
0
LINE
8
BLACK
6
CONTINUOUS
10
7.95767
20
-2.21049
11
7.95768
21
-2.21055
0
LINE
8
BLACK
6
CONTINUOUS
10
7.95768
20
-2.21055
11
7.95768
21
-2.21063
0
LINE
8
BLACK
6
CONTINUOUS
10
7.95768
20
-2.21063
11
7.95768
21
-5.05118
0
LINE
8
BLACK
6
CONTINUOUS
10
7.95768
20
-5.05118
11
7.95768
21
-5.05127
0
LINE
8
BLACK
6
CONTINUOUS
10
7.95768
20
-5.05127
11
7.95767
21
-5.05132
0
LINE
8
BLACK
6
CONTINUOUS
10
7.95767
20
-5.05132
11
7.95766
21
-5.05137
0
LINE
8
BLACK
6
CONTINUOUS
10
7.95766
20
-5.05137
11
7.95765
21
-5.05142
0
LINE
8
BLACK
6
CONTINUOUS
10
7.95765
20
-5.05142
11
7.95764
21
-5.05146
0
LINE
8
BLACK
6
CONTINUOUS
10
7.95764
20
-5.05146
11
7.95762
21
-5.05151
0
LINE
8
BLACK
6
CONTINUOUS
10
7.95762
20
-5.05151
11
7.95761
21
-5.05156
0
LINE
8
BLACK
6
CONTINUOUS
10
7.95761
20
-5.05156
11
7.95759
21
-5.0516
0
LINE
8
BLACK
6
CONTINUOUS
10
7.95759
20
-5.0516
11
7.95757
21
-5.05164
0
LINE
8
BLACK
6
CONTINUOUS
10
7.95757
20
-5.05164
11
7.95754
21
-5.05168
0
LINE
8
BLACK
6
CONTINUOUS
10
7.95754
20
-5.05168
11
7.95752
21
-5.05173
0
LINE
8
BLACK
6
CONTINUOUS
10
7.95752
20
-5.05173
11
7.95749
21
-5.05176
0
LINE
8
BLACK
6
CONTINUOUS
10
7.95749
20
-5.05176
11
7.95746
21
-5.0518
0
LINE
8
BLACK
6
CONTINUOUS
10
7.95746
20
-5.0518
11
7.95743
21
-5.05184
0
LINE
8
BLACK
6
CONTINUOUS
10
7.95743
20
-5.05184
11
7.95739
21
-5.05188
0
LINE
8
BLACK
6
CONTINUOUS
10
7.95739
20
-5.05188
11
7.95732
21
-5.05194
0
LINE
8
BLACK
6
CONTINUOUS
10
7.95732
20
-5.05194
11
7.44558
21
-5.48101
0
LINE
8
BLACK
6
CONTINUOUS
10
7.44558
20
-5.48101
11
7.44558
21
-5.48101
0
LINE
8
BLACK
6
CONTINUOUS
10
7.44558
20
-5.48101
11
7.44551
21
-5.48107
0
LINE
8
BLACK
6
CONTINUOUS
10
7.44551
20
-5.48107
11
7.44548
21
-5.4811
0
LINE
8
BLACK
6
CONTINUOUS
10
7.44548
20
-5.4811
11
7.44547
21
-5.4811
0
LINE
8
BLACK
6
CONTINUOUS
10
7.44547
20
-5.4811
11
7.44543
21
-5.48114
0
LINE
8
BLACK
6
CONTINUOUS
10
7.44543
20
-5.48114
11
7.44539
21
-5.48116
0
LINE
8
BLACK
6
CONTINUOUS
10
7.44539
20
-5.48116
11
7.44536
21
-5.48118
0
LINE
8
BLACK
6
CONTINUOUS
10
7.44536
20
-5.48118
11
7.44531
21
-5.4812
0
LINE
8
BLACK
6
CONTINUOUS
10
7.44531
20
-5.4812
11
7.44526
21
-5.48123
0
LINE
8
BLACK
6
CONTINUOUS
10
7.44526
20
-5.48123
11
7.44522
21
-5.48124
0
LINE
8
BLACK
6
CONTINUOUS
10
7.44522
20
-5.48124
11
7.44518
21
-5.48126
0
LINE
8
BLACK
6
CONTINUOUS
10
7.44518
20
-5.48126
11
7.44513
21
-5.48127
0
LINE
8
BLACK
6
CONTINUOUS
10
7.44513
20
-5.48127
11
7.44507
21
-5.48128
0
LINE
8
BLACK
6
CONTINUOUS
10
7.44507
20
-5.48128
11
7.44503
21
-5.48129
0
LINE
8
BLACK
6
CONTINUOUS
10
7.44503
20
-5.48129
11
7.44499
21
-5.4813
0
LINE
8
BLACK
6
CONTINUOUS
10
7.44499
20
-5.4813
11
7.44494
21
-5.4813
0
LINE
8
BLACK
6
CONTINUOUS
10
7.44494
20
-5.4813
11
7.44493
21
-5.4813
0
LINE
8
BLACK
6
CONTINUOUS
10
7.44493
20
-5.4813
11
7.44488
21
-5.4813
0
LINE
8
BLACK
6
CONTINUOUS
10
7.44488
20
-5.4813
11
7.4448
21
-5.4813
0
LINE
8
BLACK
6
CONTINUOUS
10
7.4448
20
-5.4813
11
7.44479
21
-5.4813
0
LINE
8
BLACK
6
CONTINUOUS
10
7.44479
20
-5.4813
11
4.13789
21
-5.4813
0
LINE
8
BLACK
6
CONTINUOUS
10
4.13789
20
-5.4813
11
4.13788
21
-5.4813
0
LINE
8
BLACK
6
CONTINUOUS
10
4.13788
20
-5.4813
11
4.13779
21
-5.4813
0
LINE
8
BLACK
6
CONTINUOUS
10
4.13779
20
-5.4813
11
4.13775
21
-5.4813
0
LINE
8
BLACK
6
CONTINUOUS
10
4.13775
20
-5.4813
11
4.13774
21
-5.4813
0
LINE
8
BLACK
6
CONTINUOUS
10
4.13774
20
-5.4813
11
4.13769
21
-5.4813
0
LINE
8
BLACK
6
CONTINUOUS
10
4.13769
20
-5.4813
11
4.13764
21
-5.48129
0
LINE
8
BLACK
6
CONTINUOUS
10
4.13764
20
-5.48129
11
4.1376
21
-5.48128
0
LINE
8
BLACK
6
CONTINUOUS
10
4.1376
20
-5.48128
11
4.13755
21
-5.48127
0
LINE
8
BLACK
6
CONTINUOUS
10
4.13755
20
-5.48127
11
4.1375
21
-5.48126
0
LINE
8
BLACK
6
CONTINUOUS
10
4.1375
20
-5.48126
11
4.13746
21
-5.48124
0
LINE
8
BLACK
6
CONTINUOUS
10
4.13746
20
-5.48124
11
4.13742
21
-5.48123
0
LINE
8
BLACK
6
CONTINUOUS
10
4.13742
20
-5.48123
11
4.13737
21
-5.4812
0
LINE
8
BLACK
6
CONTINUOUS
10
4.13737
20
-5.4812
11
4.13732
21
-5.48118
0
LINE
8
BLACK
6
CONTINUOUS
10
4.13732
20
-5.48118
11
4.13728
21
-5.48116
0
LINE
8
BLACK
6
CONTINUOUS
10
4.13728
20
-5.48116
11
4.13725
21
-5.48114
0
LINE
8
BLACK
6
CONTINUOUS
10
4.13725
20
-5.48114
11
4.1372
21
-5.4811
0
LINE
8
BLACK
6
CONTINUOUS
10
4.1372
20
-5.4811
11
4.1372
21
-5.4811
0
LINE
8
BLACK
6
CONTINUOUS
10
4.1372
20
-5.4811
11
4.13716
21
-5.48107
0
LINE
8
BLACK
6
CONTINUOUS
10
4.13716
20
-5.48107
11
4.1371
21
-5.48101
0
LINE
8
BLACK
6
CONTINUOUS
10
4.1371
20
-5.48101
11
4.13709
21
-5.48101
0
LINE
8
BLACK
6
CONTINUOUS
10
4.13709
20
-5.48101
11
3.62535
21
-5.04997
0
LINE
8
BLACK
6
CONTINUOUS
10
3.62535
20
-5.04997
11
3.62528
21
-5.04991
0
LINE
8
BLACK
6
CONTINUOUS
10
3.62528
20
-5.04991
11
3.62525
21
-5.04987
0
LINE
8
BLACK
6
CONTINUOUS
10
3.62525
20
-5.04987
11
3.62521
21
-5.04983
0
LINE
8
BLACK
6
CONTINUOUS
10
3.62521
20
-5.04983
11
3.62519
21
-5.04979
0
LINE
8
BLACK
6
CONTINUOUS
10
3.62519
20
-5.04979
11
3.62516
21
-5.04976
0
LINE
8
BLACK
6
CONTINUOUS
10
3.62516
20
-5.04976
11
3.62514
21
-5.04971
0
LINE
8
BLACK
6
CONTINUOUS
10
3.62514
20
-5.04971
11
3.62511
21
-5.04967
0
LINE
8
BLACK
6
CONTINUOUS
10
3.62511
20
-5.04967
11
3.62509
21
-5.04963
0
LINE
8
BLACK
6
CONTINUOUS
10
3.62509
20
-5.04963
11
3.62507
21
-5.04959
0
LINE
8
BLACK
6
CONTINUOUS
10
3.62507
20
-5.04959
11
3.62505
21
-5.04954
0
LINE
8
BLACK
6
CONTINUOUS
10
3.62505
20
-5.04954
11
3.62503
21
-5.04949
0
LINE
8
BLACK
6
CONTINUOUS
10
3.62503
20
-5.04949
11
3.62503
21
-5.04945
0
LINE
8
BLACK
6
CONTINUOUS
10
3.62503
20
-5.04945
11
3.62501
21
-5.04941
0
LINE
8
BLACK
6
CONTINUOUS
10
3.62501
20
-5.04941
11
3.62501
21
-5.04935
0
LINE
8
BLACK
6
CONTINUOUS
10
3.62501
20
-5.04935
11
3.625
21
-5.0493
0
LINE
8
BLACK
6
CONTINUOUS
10
3.625
20
-5.0493
11
3.625
21
-5.04921
0
LINE
8
BLACK
6
CONTINUOUS
10
3.625
20
-5.04921
11
3.625
21
-2.21063
0
LINE
8
BLACK
6
CONTINUOUS
10
3.625
20
-2.21063
11
3.625
21
-2.21054
0
LINE
8
BLACK
6
CONTINUOUS
10
3.625
20
-2.21054
11
3.62501
21
-2.21049
0
LINE
8
BLACK
6
CONTINUOUS
10
3.62501
20
-2.21049
11
3.62501
21
-2.21044
0
LINE
8
BLACK
6
CONTINUOUS
10
3.62501
20
-2.21044
11
3.62503
21
-2.2104
0
LINE
8
BLACK
6
CONTINUOUS
10
3.62503
20
-2.2104
11
3.62503
21
-2.21035
0
LINE
8
BLACK
6
CONTINUOUS
10
3.62503
20
-2.21035
11
3.62505
21
-2.2103
0
LINE
8
BLACK
6
CONTINUOUS
10
3.62505
20
-2.2103
11
3.62507
21
-2.21025
0
LINE
8
BLACK
6
CONTINUOUS
10
3.62507
20
-2.21025
11
3.62509
21
-2.21021
0
LINE
8
BLACK
6
CONTINUOUS
10
3.62509
20
-2.21021
11
3.62511
21
-2.21017
0
LINE
8
BLACK
6
CONTINUOUS
10
3.62511
20
-2.21017
11
3.62514
21
-2.21013
0
LINE
8
BLACK
6
CONTINUOUS
10
3.62514
20
-2.21013
11
3.62516
21
-2.21008
0
LINE
8
BLACK
6
CONTINUOUS
10
3.62516
20
-2.21008
11
3.62519
21
-2.21005
0
LINE
8
BLACK
6
CONTINUOUS
10
3.62519
20
-2.21005
11
3.62521
21
-2.21001
0
LINE
8
BLACK
6
CONTINUOUS
10
3.62521
20
-2.21001
11
3.62525
21
-2.20997
0
LINE
8
BLACK
6
CONTINUOUS
10
3.62525
20
-2.20997
11
3.62528
21
-2.20993
0
LINE
8
BLACK
6
CONTINUOUS
10
3.62528
20
-2.20993
11
3.62536
21
-2.20987
0
LINE
8
BLACK
6
CONTINUOUS
10
3.62536
20
-2.20987
11
4.13906
21
-1.77883
0
LINE
8
BLACK
6
CONTINUOUS
10
4.13906
20
-1.77883
11
4.13906
21
-1.77883
0
LINE
8
BLACK
6
CONTINUOUS
10
4.13906
20
-1.77883
11
4.13914
21
-1.77877
0
LINE
8
BLACK
6
CONTINUOUS
10
4.13914
20
-1.77877
11
4.13917
21
-1.77874
0
LINE
8
BLACK
6
CONTINUOUS
10
4.13917
20
-1.77874
11
4.13917
21
-1.77874
0
LINE
8
BLACK
6
CONTINUOUS
10
4.13917
20
-1.77874
11
4.13921
21
-1.77871
0
LINE
8
BLACK
6
CONTINUOUS
10
4.13921
20
-1.77871
11
4.13925
21
-1.77868
0
LINE
8
BLACK
6
CONTINUOUS
10
4.13925
20
-1.77868
11
4.13929
21
-1.77866
0
LINE
8
BLACK
6
CONTINUOUS
10
4.13929
20
-1.77866
11
4.13934
21
-1.77864
0
LINE
8
BLACK
6
CONTINUOUS
10
4.13934
20
-1.77864
11
4.13939
21
-1.77861
0
LINE
8
BLACK
6
CONTINUOUS
10
4.13939
20
-1.77861
11
4.13943
21
-1.7786
0
LINE
8
BLACK
6
CONTINUOUS
10
4.13943
20
-1.7786
11
4.13947
21
-1.77858
0
LINE
8
BLACK
6
CONTINUOUS
10
4.13947
20
-1.77858
11
4.13952
21
-1.77857
0
LINE
8
BLACK
6
CONTINUOUS
10
4.13952
20
-1.77857
11
4.13957
21
-1.77856
0
LINE
8
BLACK
6
CONTINUOUS
10
4.13957
20
-1.77856
11
4.13961
21
-1.77855
0
LINE
8
BLACK
6
CONTINUOUS
10
4.13961
20
-1.77855
11
4.13966
21
-1.77854
0
LINE
8
BLACK
6
CONTINUOUS
10
4.13966
20
-1.77854
11
4.13971
21
-1.77854
0
LINE
8
BLACK
6
CONTINUOUS
10
4.13971
20
-1.77854
11
4.13972
21
-1.77854
0
LINE
8
BLACK
6
CONTINUOUS
10
4.13972
20
-1.77854
11
4.13976
21
-1.77854
0
LINE
8
BLACK
6
CONTINUOUS
10
4.13976
20
-1.77854
11
4.13985
21
-1.77854
0
LINE
8
BLACK
6
CONTINUOUS
10
4.13985
20
-1.77854
11
4.13985
21
-1.77854
0
LINE
8
BLACK
6
CONTINUOUS
10
4.13985
20
-1.77854
11
4.54129
21
-1.77854
0
LINE
8
BLACK
6
CONTINUOUS
10
4.54129
20
-1.77854
11
4.54134
21
-1.77854
0
LINE
8
BLACK
6
CONTINUOUS
10
4.54134
20
-1.77854
11
4.54139
21
-1.77854
0
LINE
8
BLACK
6
CONTINUOUS
10
4.54139
20
-1.77854
11
4.54153
21
-1.77856
0
LINE
8
BLACK
6
CONTINUOUS
10
4.54153
20
-1.77856
11
4.54172
21
-1.77861
0
LINE
8
BLACK
6
CONTINUOUS
10
4.54172
20
-1.77861
11
4.54189
21
-1.77871
0
LINE
8
BLACK
6
CONTINUOUS
10
4.54189
20
-1.77871
11
4.54204
21
-1.77883
0
LINE
8
BLACK
6
CONTINUOUS
10
4.54204
20
-1.77883
11
4.54216
21
-1.77898
0
LINE
8
BLACK
6
CONTINUOUS
10
4.54216
20
-1.77898
11
4.54225
21
-1.77915
0
LINE
8
BLACK
6
CONTINUOUS
10
4.54225
20
-1.77915
11
4.54231
21
-1.77933
0
LINE
8
BLACK
6
CONTINUOUS
10
4.54231
20
-1.77933
11
4.54233
21
-1.77953
0
LINE
8
BLACK
6
CONTINUOUS
10
4.54233
20
-1.77953
11
4.54232
21
-1.77958
0
LINE
8
BLACK
6
CONTINUOUS
10
4.54232
20
-1.77958
11
4.54232
21
-1.87697
0
LINE
8
BLACK
6
CONTINUOUS
10
4.54232
20
-1.87697
11
4.93406
21
-1.87697
0
LINE
8
BLACK
6
CONTINUOUS
10
4.93406
20
-1.87697
11
4.93406
21
-1.77958
0
LINE
8
BLACK
6
CONTINUOUS
10
4.54134
20
-1.87894
11
4.54115
21
-1.87892
0
LINE
8
BLACK
6
CONTINUOUS
10
4.54115
20
-1.87892
11
4.54096
21
-1.87887
0
LINE
8
BLACK
6
CONTINUOUS
10
4.54096
20
-1.87887
11
4.54079
21
-1.87878
0
LINE
8
BLACK
6
CONTINUOUS
10
4.54079
20
-1.87878
11
4.54064
21
-1.87865
0
LINE
8
BLACK
6
CONTINUOUS
10
4.54064
20
-1.87865
11
4.54052
21
-1.8785
0
LINE
8
BLACK
6
CONTINUOUS
10
4.54052
20
-1.8785
11
4.54042
21
-1.87833
0
LINE
8
BLACK
6
CONTINUOUS
10
4.54042
20
-1.87833
11
4.54037
21
-1.87815
0
LINE
8
BLACK
6
CONTINUOUS
10
4.54037
20
-1.87815
11
4.54035
21
-1.87795
0
LINE
8
BLACK
6
CONTINUOUS
10
4.54035
20
-1.87795
11
4.54035
21
-1.8779
0
LINE
8
BLACK
6
CONTINUOUS
10
4.54035
20
-1.8779
11
4.54035
21
-1.78051
0
LINE
8
BLACK
6
CONTINUOUS
10
4.54035
20
-1.78051
11
4.14012
21
-1.78051
0
LINE
8
BLACK
6
CONTINUOUS
10
4.14012
20
-1.78051
11
3.62697
21
-2.21109
0
LINE
8
BLACK
6
CONTINUOUS
10
3.62697
20
-2.21109
11
3.62697
21
-5.04875
0
LINE
8
BLACK
6
CONTINUOUS
10
3.62697
20
-5.04875
11
4.13815
21
-5.47933
0
LINE
8
BLACK
6
CONTINUOUS
10
4.13815
20
-5.47933
11
7.44452
21
-5.47933
0
LINE
8
BLACK
6
CONTINUOUS
10
7.44452
20
-5.47933
11
7.95571
21
-5.05072
0
LINE
8
BLACK
6
CONTINUOUS
10
7.95571
20
-5.05072
11
7.95571
21
-2.21109
0
LINE
8
BLACK
6
CONTINUOUS
10
7.95571
20
-2.21109
11
7.44452
21
-1.78051
0
LINE
8
BLACK
6
CONTINUOUS
10
7.44452
20
-1.78051
11
4.93602
21
-1.78051
0
LINE
8
BLACK
6
CONTINUOUS
10
4.93602
20
-1.78051
11
4.93602
21
-1.8779
0
LINE
8
BLACK
6
CONTINUOUS
10
4.93602
20
-1.8779
11
4.93603
21
-1.87795
0
LINE
8
BLACK
6
CONTINUOUS
10
4.93603
20
-1.87795
11
4.93601
21
-1.87815
0
LINE
8
BLACK
6
CONTINUOUS
10
4.93601
20
-1.87815
11
4.93595
21
-1.87833
0
LINE
8
BLACK
6
CONTINUOUS
10
4.93595
20
-1.87833
11
4.93586
21
-1.8785
0
LINE
8
BLACK
6
CONTINUOUS
10
4.93586
20
-1.8785
11
4.93574
21
-1.87865
0
LINE
8
BLACK
6
CONTINUOUS
10
4.93574
20
-1.87865
11
4.93559
21
-1.87878
0
LINE
8
BLACK
6
CONTINUOUS
10
4.93559
20
-1.87878
11
4.93542
21
-1.87887
0
LINE
8
BLACK
6
CONTINUOUS
10
4.93542
20
-1.87887
11
4.93523
21
-1.87892
0
LINE
8
BLACK
6
CONTINUOUS
10
4.93523
20
-1.87892
11
4.93509
21
-1.87894
0
LINE
8
BLACK
6
CONTINUOUS
10
4.93509
20
-1.87894
11
4.93509
21
-1.87894
0
LINE
8
BLACK
6
CONTINUOUS
10
4.93509
20
-1.87894
11
4.93504
21
-1.87894
0
LINE
8
BLACK
6
CONTINUOUS
10
4.93504
20
-1.87894
11
4.93499
21
-1.87894
0
LINE
8
BLACK
6
CONTINUOUS
10
4.93499
20
-1.87894
11
4.54139
21
-1.87894
0
LINE
8
BLACK
6
CONTINUOUS
10
4.54139
20
-1.87894
11
4.54134
21
-1.87894
0
LINE
8
BLACK
6
CONTINUOUS
10
5.57916
20
-4.13054
11
5.57904
21
-4.13052
0
LINE
8
BLACK
6
CONTINUOUS
10
5.57904
20
-4.13052
11
5.57902
21
-4.13051
0
LINE
8
BLACK
6
CONTINUOUS
10
5.57902
20
-4.13051
11
5.57898
21
-4.13051
0
LINE
8
BLACK
6
CONTINUOUS
10
5.57898
20
-4.13051
11
5.54516
21
-4.12126
0
LINE
8
BLACK
6
CONTINUOUS
10
5.54516
20
-4.12126
11
5.54505
21
-4.12122
0
LINE
8
BLACK
6
CONTINUOUS
10
5.54505
20
-4.12122
11
5.54502
21
-4.12121
0
LINE
8
BLACK
6
CONTINUOUS
10
5.54502
20
-4.12121
11
5.545
21
-4.12119
0
LINE
8
BLACK
6
CONTINUOUS
10
5.545
20
-4.12119
11
5.51334
21
-4.1061
0
LINE
8
BLACK
6
CONTINUOUS
10
5.51334
20
-4.1061
11
5.51324
21
-4.10604
0
LINE
8
BLACK
6
CONTINUOUS
10
5.51324
20
-4.10604
11
5.51322
21
-4.10602
0
LINE
8
BLACK
6
CONTINUOUS
10
5.51322
20
-4.10602
11
5.51319
21
-4.10601
0
LINE
8
BLACK
6
CONTINUOUS
10
5.51319
20
-4.10601
11
5.48472
21
-4.08555
0
LINE
8
BLACK
6
CONTINUOUS
10
5.48472
20
-4.08555
11
5.48463
21
-4.08547
0
LINE
8
BLACK
6
CONTINUOUS
10
5.48463
20
-4.08547
11
5.48461
21
-4.08545
0
LINE
8
BLACK
6
CONTINUOUS
10
5.48461
20
-4.08545
11
5.48458
21
-4.08543
0
LINE
8
BLACK
6
CONTINUOUS
10
5.48458
20
-4.08543
11
5.46018
21
-4.06025
0
LINE
8
BLACK
6
CONTINUOUS
10
5.46018
20
-4.06025
11
5.4601
21
-4.06016
0
LINE
8
BLACK
6
CONTINUOUS
10
5.4601
20
-4.06016
11
5.46009
21
-4.06014
0
LINE
8
BLACK
6
CONTINUOUS
10
5.46009
20
-4.06014
11
5.46007
21
-4.06011
0
LINE
8
BLACK
6
CONTINUOUS
10
5.46007
20
-4.06011
11
5.44051
21
-4.03101
0
LINE
8
BLACK
6
CONTINUOUS
10
5.44051
20
-4.03101
11
5.44045
21
-4.03091
0
LINE
8
BLACK
6
CONTINUOUS
10
5.44045
20
-4.03091
11
5.44044
21
-4.03088
0
LINE
8
BLACK
6
CONTINUOUS
10
5.44044
20
-4.03088
11
5.44043
21
-4.03085
0
LINE
8
BLACK
6
CONTINUOUS
10
5.44043
20
-4.03085
11
5.42633
21
-3.99874
0
LINE
8
BLACK
6
CONTINUOUS
10
5.42633
20
-3.99874
11
5.42629
21
-3.99864
0
LINE
8
BLACK
6
CONTINUOUS
10
5.42629
20
-3.99864
11
5.42628
21
-3.99861
0
LINE
8
BLACK
6
CONTINUOUS
10
5.42628
20
-3.99861
11
5.42627
21
-3.99858
0
LINE
8
BLACK
6
CONTINUOUS
10
5.42627
20
-3.99858
11
5.41809
21
-3.96448
0
LINE
8
BLACK
6
CONTINUOUS
10
5.41809
20
-3.96448
11
5.41807
21
-3.96437
0
LINE
8
BLACK
6
CONTINUOUS
10
5.41807
20
-3.96437
11
5.41807
21
-3.96434
0
LINE
8
BLACK
6
CONTINUOUS
10
5.41807
20
-3.96434
11
5.41806
21
-3.96432
0
LINE
8
BLACK
6
CONTINUOUS
10
5.41806
20
-3.96432
11
5.41595
21
-3.93552
0
LINE
8
BLACK
6
CONTINUOUS
10
5.41595
20
-3.93552
11
5.41594
21
-3.93544
0
LINE
8
BLACK
6
CONTINUOUS
10
5.41594
20
-3.93544
11
5.41596
21
-3.93525
0
LINE
8
BLACK
6
CONTINUOUS
10
5.41596
20
-3.93525
11
5.41601
21
-3.93506
0
LINE
8
BLACK
6
CONTINUOUS
10
5.41601
20
-3.93506
11
5.4161
21
-3.93489
0
LINE
8
BLACK
6
CONTINUOUS
10
5.4161
20
-3.93489
11
5.41622
21
-3.93474
0
LINE
8
BLACK
6
CONTINUOUS
10
5.41622
20
-3.93474
11
5.41637
21
-3.93462
0
LINE
8
BLACK
6
CONTINUOUS
10
5.41637
20
-3.93462
11
5.41654
21
-3.93452
0
LINE
8
BLACK
6
CONTINUOUS
10
5.41654
20
-3.93452
11
5.41673
21
-3.93446
0
LINE
8
BLACK
6
CONTINUOUS
10
5.41673
20
-3.93446
11
5.41683
21
-3.93445
0
LINE
8
BLACK
6
CONTINUOUS
10
5.41683
20
-3.93445
11
5.41683
21
-3.93445
0
LINE
8
BLACK
6
CONTINUOUS
10
5.41683
20
-3.93445
11
5.41683
21
-3.93445
0
LINE
8
BLACK
6
CONTINUOUS
10
5.41683
20
-3.93445
11
5.41687
21
-3.93445
0
LINE
8
BLACK
6
CONTINUOUS
10
5.41687
20
-3.93445
11
5.46555
21
-3.93406
0
LINE
8
BLACK
6
CONTINUOUS
10
5.46555
20
-3.93406
11
5.46555
21
-3.48326
0
LINE
8
BLACK
6
CONTINUOUS
10
5.46555
20
-3.48326
11
5.41687
21
-3.48287
0
LINE
8
BLACK
6
CONTINUOUS
10
5.41687
20
-3.48287
11
5.41673
21
-3.48286
0
LINE
8
BLACK
6
CONTINUOUS
10
5.41673
20
-3.48286
11
5.41654
21
-3.4828
0
LINE
8
BLACK
6
CONTINUOUS
10
5.41654
20
-3.4828
11
5.41637
21
-3.48271
0
LINE
8
BLACK
6
CONTINUOUS
10
5.41637
20
-3.48271
11
5.41622
21
-3.48258
0
LINE
8
BLACK
6
CONTINUOUS
10
5.41622
20
-3.48258
11
5.4161
21
-3.48243
0
LINE
8
BLACK
6
CONTINUOUS
10
5.4161
20
-3.48243
11
5.41601
21
-3.48226
0
LINE
8
BLACK
6
CONTINUOUS
10
5.41601
20
-3.48226
11
5.41596
21
-3.48208
0
LINE
8
BLACK
6
CONTINUOUS
10
5.41596
20
-3.48208
11
5.41595
21
-3.48198
0
LINE
8
BLACK
6
CONTINUOUS
10
5.41595
20
-3.48198
11
5.41595
21
-3.48198
0
LINE
8
BLACK
6
CONTINUOUS
10
5.41595
20
-3.48198
11
5.41595
21
-3.48198
0
LINE
8
BLACK
6
CONTINUOUS
10
5.41595
20
-3.48198
11
5.41594
21
-3.48188
0
LINE
8
BLACK
6
CONTINUOUS
10
5.41594
20
-3.48188
11
5.41595
21
-3.4818
0
LINE
8
BLACK
6
CONTINUOUS
10
5.41595
20
-3.4818
11
5.41906
21
-3.44694
0
LINE
8
BLACK
6
CONTINUOUS
10
5.41906
20
-3.44694
11
5.41908
21
-3.44683
0
LINE
8
BLACK
6
CONTINUOUS
10
5.41908
20
-3.44683
11
5.41908
21
-3.4468
0
LINE
8
BLACK
6
CONTINUOUS
10
5.41908
20
-3.4468
11
5.41909
21
-3.44677
0
LINE
8
BLACK
6
CONTINUOUS
10
5.41909
20
-3.44677
11
5.42833
21
-3.41301
0
LINE
8
BLACK
6
CONTINUOUS
10
5.42833
20
-3.41301
11
5.42836
21
-3.41291
0
LINE
8
BLACK
6
CONTINUOUS
10
5.42836
20
-3.41291
11
5.42838
21
-3.41288
0
LINE
8
BLACK
6
CONTINUOUS
10
5.42838
20
-3.41288
11
5.42839
21
-3.41285
0
LINE
8
BLACK
6
CONTINUOUS
10
5.42839
20
-3.41285
11
5.44345
21
-3.38126
0
LINE
8
BLACK
6
CONTINUOUS
10
5.44345
20
-3.38126
11
5.44351
21
-3.38116
0
LINE
8
BLACK
6
CONTINUOUS
10
5.44351
20
-3.38116
11
5.44353
21
-3.38114
0
LINE
8
BLACK
6
CONTINUOUS
10
5.44353
20
-3.38114
11
5.44354
21
-3.38111
0
LINE
8
BLACK
6
CONTINUOUS
10
5.44354
20
-3.38111
11
5.46397
21
-3.35269
0
LINE
8
BLACK
6
CONTINUOUS
10
5.46397
20
-3.35269
11
5.46397
21
-3.35269
0
LINE
8
BLACK
6
CONTINUOUS
10
5.46397
20
-3.35269
11
5.46397
21
-3.35269
0
LINE
8
BLACK
6
CONTINUOUS
10
5.46397
20
-3.35269
11
5.46404
21
-3.3526
0
LINE
8
BLACK
6
CONTINUOUS
10
5.46404
20
-3.3526
11
5.46406
21
-3.35258
0
LINE
8
BLACK
6
CONTINUOUS
10
5.46406
20
-3.35258
11
5.46408
21
-3.35256
0
LINE
8
BLACK
6
CONTINUOUS
10
5.46408
20
-3.35256
11
5.48921
21
-3.3282
0
LINE
8
BLACK
6
CONTINUOUS
10
5.48921
20
-3.3282
11
5.4893
21
-3.32813
0
LINE
8
BLACK
6
CONTINUOUS
10
5.4893
20
-3.32813
11
5.48932
21
-3.32811
0
LINE
8
BLACK
6
CONTINUOUS
10
5.48932
20
-3.32811
11
5.48935
21
-3.32809
0
LINE
8
BLACK
6
CONTINUOUS
10
5.48935
20
-3.32809
11
5.5184
21
-3.30857
0
LINE
8
BLACK
6
CONTINUOUS
10
5.5184
20
-3.30857
11
5.51849
21
-3.30851
0
LINE
8
BLACK
6
CONTINUOUS
10
5.51849
20
-3.30851
11
5.51852
21
-3.3085
0
LINE
8
BLACK
6
CONTINUOUS
10
5.51852
20
-3.3085
11
5.51855
21
-3.30849
0
LINE
8
BLACK
6
CONTINUOUS
10
5.51855
20
-3.30849
11
5.5506
21
-3.29442
0
LINE
8
BLACK
6
CONTINUOUS
10
5.5506
20
-3.29442
11
5.5506
21
-3.29442
0
LINE
8
BLACK
6
CONTINUOUS
10
5.5506
20
-3.29442
11
5.5506
21
-3.29442
0
LINE
8
BLACK
6
CONTINUOUS
10
5.5506
20
-3.29442
11
5.5507
21
-3.29438
0
LINE
8
BLACK
6
CONTINUOUS
10
5.5507
20
-3.29438
11
5.55073
21
-3.29437
0
LINE
8
BLACK
6
CONTINUOUS
10
5.55073
20
-3.29437
11
5.55076
21
-3.29436
0
LINE
8
BLACK
6
CONTINUOUS
10
5.55076
20
-3.29436
11
5.58479
21
-3.28619
0
LINE
8
BLACK
6
CONTINUOUS
10
5.58479
20
-3.28619
11
5.5849
21
-3.28617
0
LINE
8
BLACK
6
CONTINUOUS
10
5.5849
20
-3.28617
11
5.58493
21
-3.28617
0
LINE
8
BLACK
6
CONTINUOUS
10
5.58493
20
-3.28617
11
5.58495
21
-3.28617
0
LINE
8
BLACK
6
CONTINUOUS
10
5.58495
20
-3.28617
11
5.6137
21
-3.28406
0
LINE
8
BLACK
6
CONTINUOUS
10
5.6137
20
-3.28406
11
5.61373
21
-3.28405
0
LINE
8
BLACK
6
CONTINUOUS
10
5.61373
20
-3.28405
11
5.96895
21
-3.28445
0
LINE
8
BLACK
6
CONTINUOUS
10
5.96895
20
-3.28445
11
5.96898
21
-3.28445
0
LINE
8
BLACK
6
CONTINUOUS
10
5.96898
20
-3.28445
11
5.96899
21
-3.28445
0
LINE
8
BLACK
6
CONTINUOUS
10
5.96899
20
-3.28445
11
6.00384
21
-3.28756
0
LINE
8
BLACK
6
CONTINUOUS
10
6.00384
20
-3.28756
11
6.00384
21
-3.28756
0
LINE
8
BLACK
6
CONTINUOUS
10
6.00384
20
-3.28756
11
6.00384
21
-3.28756
0
LINE
8
BLACK
6
CONTINUOUS
10
6.00384
20
-3.28756
11
6.00396
21
-3.28758
0
LINE
8
BLACK
6
CONTINUOUS
10
6.00396
20
-3.28758
11
6.00399
21
-3.28759
0
LINE
8
BLACK
6
CONTINUOUS
10
6.00399
20
-3.28759
11
6.00402
21
-3.28759
0
LINE
8
BLACK
6
CONTINUOUS
10
6.00402
20
-3.28759
11
6.03777
21
-3.29683
0
LINE
8
BLACK
6
CONTINUOUS
10
6.03777
20
-3.29683
11
6.03788
21
-3.29687
0
LINE
8
BLACK
6
CONTINUOUS
10
6.03788
20
-3.29687
11
6.03791
21
-3.29688
0
LINE
8
BLACK
6
CONTINUOUS
10
6.03791
20
-3.29688
11
6.03794
21
-3.29689
0
LINE
8
BLACK
6
CONTINUOUS
10
6.03794
20
-3.29689
11
6.06953
21
-3.31196
0
LINE
8
BLACK
6
CONTINUOUS
10
6.06953
20
-3.31196
11
6.06963
21
-3.31201
0
LINE
8
BLACK
6
CONTINUOUS
10
6.06963
20
-3.31201
11
6.06965
21
-3.31203
0
LINE
8
BLACK
6
CONTINUOUS
10
6.06965
20
-3.31203
11
6.06968
21
-3.31205
0
LINE
8
BLACK
6
CONTINUOUS
10
6.06968
20
-3.31205
11
6.0981
21
-3.33247
0
LINE
8
BLACK
6
CONTINUOUS
10
6.0981
20
-3.33247
11
6.0981
21
-3.33247
0
LINE
8
BLACK
6
CONTINUOUS
10
6.0981
20
-3.33247
11
6.0981
21
-3.33247
0
LINE
8
BLACK
6
CONTINUOUS
10
6.0981
20
-3.33247
11
6.09819
21
-3.33254
0
LINE
8
BLACK
6
CONTINUOUS
10
6.09819
20
-3.33254
11
6.09821
21
-3.33256
0
LINE
8
BLACK
6
CONTINUOUS
10
6.09821
20
-3.33256
11
6.09823
21
-3.33258
0
LINE
8
BLACK
6
CONTINUOUS
10
6.09823
20
-3.33258
11
6.12259
21
-3.35772
0
LINE
8
BLACK
6
CONTINUOUS
10
6.12259
20
-3.35772
11
6.12266
21
-3.3578
0
LINE
8
BLACK
6
CONTINUOUS
10
6.12266
20
-3.3578
11
6.12268
21
-3.35783
0
LINE
8
BLACK
6
CONTINUOUS
10
6.12268
20
-3.35783
11
6.1227
21
-3.35785
0
LINE
8
BLACK
6
CONTINUOUS
10
6.1227
20
-3.35785
11
6.14222
21
-3.3869
0
LINE
8
BLACK
6
CONTINUOUS
10
6.14222
20
-3.3869
11
6.14227
21
-3.387
0
LINE
8
BLACK
6
CONTINUOUS
10
6.14227
20
-3.387
11
6.14229
21
-3.38703
0
LINE
8
BLACK
6
CONTINUOUS
10
6.14229
20
-3.38703
11
6.1423
21
-3.38705
0
LINE
8
BLACK
6
CONTINUOUS
10
6.1423
20
-3.38705
11
6.15637
21
-3.4191
0
LINE
8
BLACK
6
CONTINUOUS
10
6.15637
20
-3.4191
11
6.15641
21
-3.41921
0
LINE
8
BLACK
6
CONTINUOUS
10
6.15641
20
-3.41921
11
6.15641
21
-3.41924
0
LINE
8
BLACK
6
CONTINUOUS
10
6.15641
20
-3.41924
11
6.15642
21
-3.41927
0
LINE
8
BLACK
6
CONTINUOUS
10
6.15642
20
-3.41927
11
6.16459
21
-3.4533
0
LINE
8
BLACK
6
CONTINUOUS
10
6.16459
20
-3.4533
11
6.16461
21
-3.45341
0
LINE
8
BLACK
6
CONTINUOUS
10
6.16461
20
-3.45341
11
6.16461
21
-3.45343
0
LINE
8
BLACK
6
CONTINUOUS
10
6.16461
20
-3.45343
11
6.16462
21
-3.45345
0
LINE
8
BLACK
6
CONTINUOUS
10
6.16462
20
-3.45345
11
6.16673
21
-3.4822
0
LINE
8
BLACK
6
CONTINUOUS
10
6.16673
20
-3.4822
11
6.16673
21
-3.48223
0
LINE
8
BLACK
6
CONTINUOUS
10
6.16673
20
-3.48223
11
6.16752
21
-3.93548
0
LINE
8
BLACK
6
CONTINUOUS
10
6.16752
20
-3.93548
11
6.16752
21
-3.93552
0
LINE
8
BLACK
6
CONTINUOUS
10
6.16752
20
-3.93552
11
6.16752
21
-3.93552
0
LINE
8
BLACK
6
CONTINUOUS
10
6.16752
20
-3.93552
11
6.16439
21
-3.97052
0
LINE
8
BLACK
6
CONTINUOUS
10
6.16439
20
-3.97052
11
6.16438
21
-3.97063
0
LINE
8
BLACK
6
CONTINUOUS
10
6.16438
20
-3.97063
11
6.16437
21
-3.97066
0
LINE
8
BLACK
6
CONTINUOUS
10
6.16437
20
-3.97066
11
6.16436
21
-3.97069
0
LINE
8
BLACK
6
CONTINUOUS
10
6.16436
20
-3.97069
11
6.15509
21
-4.00458
0
LINE
8
BLACK
6
CONTINUOUS
10
6.15509
20
-4.00458
11
6.15505
21
-4.00469
0
LINE
8
BLACK
6
CONTINUOUS
10
6.15505
20
-4.00469
11
6.15504
21
-4.00472
0
LINE
8
BLACK
6
CONTINUOUS
10
6.15504
20
-4.00472
11
6.15503
21
-4.00475
0
LINE
8
BLACK
6
CONTINUOUS
10
6.15503
20
-4.00475
11
6.1399
21
-4.03646
0
LINE
8
BLACK
6
CONTINUOUS
10
6.1399
20
-4.03646
11
6.13985
21
-4.03656
0
LINE
8
BLACK
6
CONTINUOUS
10
6.13985
20
-4.03656
11
6.13983
21
-4.03659
0
LINE
8
BLACK
6
CONTINUOUS
10
6.13983
20
-4.03659
11
6.13981
21
-4.03661
0
LINE
8
BLACK
6
CONTINUOUS
10
6.13981
20
-4.03661
11
6.11931
21
-4.06515
0
LINE
8
BLACK
6
CONTINUOUS
10
6.11931
20
-4.06515
11
6.11924
21
-4.06524
0
LINE
8
BLACK
6
CONTINUOUS
10
6.11924
20
-4.06524
11
6.11921
21
-4.06526
0
LINE
8
BLACK
6
CONTINUOUS
10
6.11921
20
-4.06526
11
6.11919
21
-4.06528
0
LINE
8
BLACK
6
CONTINUOUS
10
6.11919
20
-4.06528
11
6.09396
21
-4.08973
0
LINE
8
BLACK
6
CONTINUOUS
10
6.09396
20
-4.08973
11
6.09387
21
-4.08981
0
LINE
8
BLACK
6
CONTINUOUS
10
6.09387
20
-4.08981
11
6.09385
21
-4.08982
0
LINE
8
BLACK
6
CONTINUOUS
10
6.09385
20
-4.08982
11
6.09382
21
-4.08984
0
LINE
8
BLACK
6
CONTINUOUS
10
6.09382
20
-4.08984
11
6.06466
21
-4.10944
0
LINE
8
BLACK
6
CONTINUOUS
10
6.06466
20
-4.10944
11
6.06456
21
-4.1095
0
LINE
8
BLACK
6
CONTINUOUS
10
6.06456
20
-4.1095
11
6.06453
21
-4.10951
0
LINE
8
BLACK
6
CONTINUOUS
10
6.06453
20
-4.10951
11
6.06451
21
-4.10953
0
LINE
8
BLACK
6
CONTINUOUS
10
6.06451
20
-4.10953
11
6.03233
21
-4.12365
0
LINE
8
BLACK
6
CONTINUOUS
10
6.03233
20
-4.12365
11
6.03223
21
-4.12369
0
LINE
8
BLACK
6
CONTINUOUS
10
6.03223
20
-4.12369
11
6.0322
21
-4.1237
0
LINE
8
BLACK
6
CONTINUOUS
10
6.0322
20
-4.1237
11
6.03217
21
-4.1237
0
LINE
8
BLACK
6
CONTINUOUS
10
6.03217
20
-4.1237
11
5.998
21
-4.13191
0
LINE
8
BLACK
6
CONTINUOUS
10
5.998
20
-4.13191
11
5.99789
21
-4.13193
0
LINE
8
BLACK
6
CONTINUOUS
10
5.99789
20
-4.13193
11
5.99786
21
-4.13193
0
LINE
8
BLACK
6
CONTINUOUS
10
5.99786
20
-4.13193
11
5.99784
21
-4.13193
0
LINE
8
BLACK
6
CONTINUOUS
10
5.99784
20
-4.13193
11
5.96898
21
-4.13405
0
LINE
8
BLACK
6
CONTINUOUS
10
5.96898
20
-4.13405
11
5.96894
21
-4.13406
0
LINE
8
BLACK
6
CONTINUOUS
10
5.96894
20
-4.13406
11
5.61412
21
-4.13366
0
LINE
8
BLACK
6
CONTINUOUS
10
5.61412
20
-4.13366
11
5.61409
21
-4.13366
0
LINE
8
BLACK
6
CONTINUOUS
10
5.61409
20
-4.13366
11
5.61409
21
-4.13366
0
LINE
8
BLACK
6
CONTINUOUS
10
5.61409
20
-4.13366
11
5.57916
21
-4.13054
0
LINE
8
BLACK
6
CONTINUOUS
10
5.57916
20
-4.13054
11
5.57916
21
-4.13054
0
LINE
8
BLACK
6
CONTINUOUS
10
5.57916
20
-4.13054
11
5.57916
21
-4.13054
0
LINE
8
BLACK
6
CONTINUOUS
10
5.58517
20
-3.28813
11
5.55131
21
-3.29626
0
LINE
8
BLACK
6
CONTINUOUS
10
5.55131
20
-3.29626
11
5.51942
21
-3.31025
0
LINE
8
BLACK
6
CONTINUOUS
10
5.51942
20
-3.31025
11
5.49052
21
-3.32968
0
LINE
8
BLACK
6
CONTINUOUS
10
5.49052
20
-3.32968
11
5.46551
21
-3.35391
0
LINE
8
BLACK
6
CONTINUOUS
10
5.46551
20
-3.35391
11
5.44519
21
-3.38219
0
LINE
8
BLACK
6
CONTINUOUS
10
5.44519
20
-3.38219
11
5.4302
21
-3.41362
0
LINE
8
BLACK
6
CONTINUOUS
10
5.4302
20
-3.41362
11
5.42101
21
-3.44721
0
LINE
8
BLACK
6
CONTINUOUS
10
5.42101
20
-3.44721
11
5.418
21
-3.48091
0
LINE
8
BLACK
6
CONTINUOUS
10
5.418
20
-3.48091
11
5.46649
21
-3.4813
0
LINE
8
BLACK
6
CONTINUOUS
10
5.46649
20
-3.4813
11
5.46654
21
-3.48129
0
LINE
8
BLACK
6
CONTINUOUS
10
5.46654
20
-3.48129
11
5.46659
21
-3.4813
0
LINE
8
BLACK
6
CONTINUOUS
10
5.46659
20
-3.4813
11
5.46659
21
-3.4813
0
LINE
8
BLACK
6
CONTINUOUS
10
5.46659
20
-3.4813
11
5.46663
21
-3.4813
0
LINE
8
BLACK
6
CONTINUOUS
10
5.46663
20
-3.4813
11
5.46673
21
-3.48131
0
LINE
8
BLACK
6
CONTINUOUS
10
5.46673
20
-3.48131
11
5.46673
21
-3.48131
0
LINE
8
BLACK
6
CONTINUOUS
10
5.46673
20
-3.48131
11
5.46674
21
-3.48132
0
LINE
8
BLACK
6
CONTINUOUS
10
5.46674
20
-3.48132
11
5.46682
21
-3.48134
0
LINE
8
BLACK
6
CONTINUOUS
10
5.46682
20
-3.48134
11
5.46691
21
-3.48137
0
LINE
8
BLACK
6
CONTINUOUS
10
5.46691
20
-3.48137
11
5.46692
21
-3.48137
0
LINE
8
BLACK
6
CONTINUOUS
10
5.46692
20
-3.48137
11
5.46692
21
-3.48137
0
LINE
8
BLACK
6
CONTINUOUS
10
5.46692
20
-3.48137
11
5.467
21
-3.48142
0
LINE
8
BLACK
6
CONTINUOUS
10
5.467
20
-3.48142
11
5.46708
21
-3.48146
0
LINE
8
BLACK
6
CONTINUOUS
10
5.46708
20
-3.48146
11
5.46709
21
-3.48146
0
LINE
8
BLACK
6
CONTINUOUS
10
5.46709
20
-3.48146
11
5.46709
21
-3.48147
0
LINE
8
BLACK
6
CONTINUOUS
10
5.46709
20
-3.48147
11
5.46716
21
-3.48152
0
LINE
8
BLACK
6
CONTINUOUS
10
5.46716
20
-3.48152
11
5.46723
21
-3.48158
0
LINE
8
BLACK
6
CONTINUOUS
10
5.46723
20
-3.48158
11
5.46724
21
-3.48159
0
LINE
8
BLACK
6
CONTINUOUS
10
5.46724
20
-3.48159
11
5.46724
21
-3.48159
0
LINE
8
BLACK
6
CONTINUOUS
10
5.46724
20
-3.48159
11
5.4673
21
-3.48166
0
LINE
8
BLACK
6
CONTINUOUS
10
5.4673
20
-3.48166
11
5.46736
21
-3.48173
0
LINE
8
BLACK
6
CONTINUOUS
10
5.46736
20
-3.48173
11
5.46736
21
-3.48174
0
LINE
8
BLACK
6
CONTINUOUS
10
5.46736
20
-3.48174
11
5.46736
21
-3.48174
0
LINE
8
BLACK
6
CONTINUOUS
10
5.46736
20
-3.48174
11
5.4674
21
-3.48182
0
LINE
8
BLACK
6
CONTINUOUS
10
5.4674
20
-3.48182
11
5.46745
21
-3.4819
0
LINE
8
BLACK
6
CONTINUOUS
10
5.46745
20
-3.4819
11
5.46745
21
-3.48191
0
LINE
8
BLACK
6
CONTINUOUS
10
5.46745
20
-3.48191
11
5.46745
21
-3.48191
0
LINE
8
BLACK
6
CONTINUOUS
10
5.46745
20
-3.48191
11
5.46748
21
-3.482
0
LINE
8
BLACK
6
CONTINUOUS
10
5.46748
20
-3.482
11
5.46751
21
-3.48209
0
LINE
8
BLACK
6
CONTINUOUS
10
5.46751
20
-3.48209
11
5.46751
21
-3.48209
0
LINE
8
BLACK
6
CONTINUOUS
10
5.46751
20
-3.48209
11
5.46751
21
-3.4821
0
LINE
8
BLACK
6
CONTINUOUS
10
5.46751
20
-3.4821
11
5.46752
21
-3.48219
0
LINE
8
BLACK
6
CONTINUOUS
10
5.46752
20
-3.48219
11
5.46752
21
-3.48224
0
LINE
8
BLACK
6
CONTINUOUS
10
5.46752
20
-3.48224
11
5.46752
21
-3.48224
0
LINE
8
BLACK
6
CONTINUOUS
10
5.46752
20
-3.48224
11
5.46752
21
-3.48229
0
LINE
8
BLACK
6
CONTINUOUS
10
5.46752
20
-3.48229
11
5.46752
21
-3.48234
0
LINE
8
BLACK
6
CONTINUOUS
10
5.46752
20
-3.48234
11
5.46752
21
-3.93499
0
LINE
8
BLACK
6
CONTINUOUS
10
5.46752
20
-3.93499
11
5.46752
21
-3.93503
0
LINE
8
BLACK
6
CONTINUOUS
10
5.46752
20
-3.93503
11
5.46752
21
-3.93508
0
LINE
8
BLACK
6
CONTINUOUS
10
5.46752
20
-3.93508
11
5.46752
21
-3.93509
0
LINE
8
BLACK
6
CONTINUOUS
10
5.46752
20
-3.93509
11
5.46752
21
-3.93513
0
LINE
8
BLACK
6
CONTINUOUS
10
5.46752
20
-3.93513
11
5.46751
21
-3.93522
0
LINE
8
BLACK
6
CONTINUOUS
10
5.46751
20
-3.93522
11
5.46751
21
-3.93523
0
LINE
8
BLACK
6
CONTINUOUS
10
5.46751
20
-3.93523
11
5.46751
21
-3.93523
0
LINE
8
BLACK
6
CONTINUOUS
10
5.46751
20
-3.93523
11
5.46748
21
-3.93532
0
LINE
8
BLACK
6
CONTINUOUS
10
5.46748
20
-3.93532
11
5.46745
21
-3.93541
0
LINE
8
BLACK
6
CONTINUOUS
10
5.46745
20
-3.93541
11
5.46745
21
-3.93541
0
LINE
8
BLACK
6
CONTINUOUS
10
5.46745
20
-3.93541
11
5.46745
21
-3.93542
0
LINE
8
BLACK
6
CONTINUOUS
10
5.46745
20
-3.93542
11
5.4674
21
-3.9355
0
LINE
8
BLACK
6
CONTINUOUS
10
5.4674
20
-3.9355
11
5.46736
21
-3.93558
0
LINE
8
BLACK
6
CONTINUOUS
10
5.46736
20
-3.93558
11
5.46736
21
-3.93559
0
LINE
8
BLACK
6
CONTINUOUS
10
5.46736
20
-3.93559
11
5.46736
21
-3.93559
0
LINE
8
BLACK
6
CONTINUOUS
10
5.46736
20
-3.93559
11
5.4673
21
-3.93566
0
LINE
8
BLACK
6
CONTINUOUS
10
5.4673
20
-3.93566
11
5.46724
21
-3.93573
0
LINE
8
BLACK
6
CONTINUOUS
10
5.46724
20
-3.93573
11
5.46724
21
-3.93574
0
LINE
8
BLACK
6
CONTINUOUS
10
5.46724
20
-3.93574
11
5.46723
21
-3.93574
0
LINE
8
BLACK
6
CONTINUOUS
10
5.46723
20
-3.93574
11
5.46716
21
-3.9358
0
LINE
8
BLACK
6
CONTINUOUS
10
5.46716
20
-3.9358
11
5.46709
21
-3.93586
0
LINE
8
BLACK
6
CONTINUOUS
10
5.46709
20
-3.93586
11
5.46709
21
-3.93586
0
LINE
8
BLACK
6
CONTINUOUS
10
5.46709
20
-3.93586
11
5.46708
21
-3.93586
0
LINE
8
BLACK
6
CONTINUOUS
10
5.46708
20
-3.93586
11
5.467
21
-3.93591
0
LINE
8
BLACK
6
CONTINUOUS
10
5.467
20
-3.93591
11
5.46692
21
-3.93595
0
LINE
8
BLACK
6
CONTINUOUS
10
5.46692
20
-3.93595
11
5.46692
21
-3.93595
0
LINE
8
BLACK
6
CONTINUOUS
10
5.46692
20
-3.93595
11
5.46691
21
-3.93595
0
LINE
8
BLACK
6
CONTINUOUS
10
5.46691
20
-3.93595
11
5.46682
21
-3.93598
0
LINE
8
BLACK
6
CONTINUOUS
10
5.46682
20
-3.93598
11
5.46674
21
-3.93601
0
LINE
8
BLACK
6
CONTINUOUS
10
5.46674
20
-3.93601
11
5.46673
21
-3.93601
0
LINE
8
BLACK
6
CONTINUOUS
10
5.46673
20
-3.93601
11
5.46673
21
-3.93601
0
LINE
8
BLACK
6
CONTINUOUS
10
5.46673
20
-3.93601
11
5.46663
21
-3.93602
0
LINE
8
BLACK
6
CONTINUOUS
10
5.46663
20
-3.93602
11
5.46659
21
-3.93602
0
LINE
8
BLACK
6
CONTINUOUS
10
5.46659
20
-3.93602
11
5.46659
21
-3.93602
0
LINE
8
BLACK
6
CONTINUOUS
10
5.46659
20
-3.93602
11
5.46654
21
-3.93603
0
LINE
8
BLACK
6
CONTINUOUS
10
5.46654
20
-3.93603
11
5.46649
21
-3.93602
0
LINE
8
BLACK
6
CONTINUOUS
10
5.46649
20
-3.93602
11
5.41799
21
-3.93641
0
LINE
8
BLACK
6
CONTINUOUS
10
5.41799
20
-3.93641
11
5.42002
21
-3.9641
0
LINE
8
BLACK
6
CONTINUOUS
10
5.42002
20
-3.9641
11
5.42817
21
-3.99803
0
LINE
8
BLACK
6
CONTINUOUS
10
5.42817
20
-3.99803
11
5.44219
21
-4.02998
0
LINE
8
BLACK
6
CONTINUOUS
10
5.44219
20
-4.02998
11
5.46165
21
-4.05894
0
LINE
8
BLACK
6
CONTINUOUS
10
5.46165
20
-4.05894
11
5.48594
21
-4.084
0
LINE
8
BLACK
6
CONTINUOUS
10
5.48594
20
-4.084
11
5.51427
21
-4.10436
0
LINE
8
BLACK
6
CONTINUOUS
10
5.51427
20
-4.10436
11
5.54576
21
-4.11938
0
LINE
8
BLACK
6
CONTINUOUS
10
5.54576
20
-4.11938
11
5.57942
21
-4.12859
0
LINE
8
BLACK
6
CONTINUOUS
10
5.57942
20
-4.12859
11
5.61422
21
-4.13169
0
LINE
8
BLACK
6
CONTINUOUS
10
5.61422
20
-4.13169
11
5.96886
21
-4.13209
0
LINE
8
BLACK
6
CONTINUOUS
10
5.96886
20
-4.13209
11
5.99762
21
-4.12997
0
LINE
8
BLACK
6
CONTINUOUS
10
5.99762
20
-4.12997
11
6.03162
21
-4.12181
0
LINE
8
BLACK
6
CONTINUOUS
10
6.03162
20
-4.12181
11
6.06363
21
-4.10776
0
LINE
8
BLACK
6
CONTINUOUS
10
6.06363
20
-4.10776
11
6.09265
21
-4.08826
0
LINE
8
BLACK
6
CONTINUOUS
10
6.09265
20
-4.08826
11
6.11776
21
-4.06393
0
LINE
8
BLACK
6
CONTINUOUS
10
6.11776
20
-4.06393
11
6.13816
21
-4.03554
0
LINE
8
BLACK
6
CONTINUOUS
10
6.13816
20
-4.03554
11
6.15321
21
-4.00398
0
LINE
8
BLACK
6
CONTINUOUS
10
6.15321
20
-4.00398
11
6.16244
21
-3.97026
0
LINE
8
BLACK
6
CONTINUOUS
10
6.16244
20
-3.97026
11
6.16555
21
-3.93539
0
LINE
8
BLACK
6
CONTINUOUS
10
6.16555
20
-3.93539
11
6.16476
21
-3.48232
0
LINE
8
BLACK
6
CONTINUOUS
10
6.16476
20
-3.48232
11
6.16266
21
-3.45368
0
LINE
8
BLACK
6
CONTINUOUS
10
6.16266
20
-3.45368
11
6.15453
21
-3.41981
0
LINE
8
BLACK
6
CONTINUOUS
10
6.15453
20
-3.41981
11
6.14053
21
-3.38793
0
LINE
8
BLACK
6
CONTINUOUS
10
6.14053
20
-3.38793
11
6.12111
21
-3.35902
0
LINE
8
BLACK
6
CONTINUOUS
10
6.12111
20
-3.35902
11
6.09688
21
-3.33402
0
LINE
8
BLACK
6
CONTINUOUS
10
6.09688
20
-3.33402
11
6.0686
21
-3.3137
0
LINE
8
BLACK
6
CONTINUOUS
10
6.0686
20
-3.3137
11
6.03717
21
-3.2987
0
LINE
8
BLACK
6
CONTINUOUS
10
6.03717
20
-3.2987
11
6.00358
21
-3.28952
0
LINE
8
BLACK
6
CONTINUOUS
10
6.00358
20
-3.28952
11
5.96885
21
-3.28642
0
LINE
8
BLACK
6
CONTINUOUS
10
5.96885
20
-3.28642
11
5.61382
21
-3.28602
0
LINE
8
BLACK
6
CONTINUOUS
10
5.61382
20
-3.28602
11
5.58517
21
-3.28813
  0
ENDSEC
  0
EOF
