G04 #@! TF.GenerationSoftware,KiCad,Pcbnew,(5.1.4)-1*
G04 #@! TF.CreationDate,2023-04-06T01:09:12+09:00*
G04 #@! TF.ProjectId,Akira_board,416b6972-615f-4626-9f61-72642e6b6963,rev?*
G04 #@! TF.SameCoordinates,Original*
G04 #@! TF.FileFunction,Profile,NP*
%FSLAX46Y46*%
G04 Gerber Fmt 4.6, Leading zero omitted, Abs format (unit mm)*
G04 Created by KiCad (PCBNEW (5.1.4)-1) date 2023-04-06 01:09:12*
%MOMM*%
%LPD*%
G04 APERTURE LIST*
%ADD10C,0.050000*%
G04 APERTURE END LIST*
D10*
X138850000Y-99950000D02*
X137590000Y-99960000D01*
X138850000Y-88450000D02*
X138850000Y-99950000D01*
X137589991Y-88440000D02*
X138850000Y-88450000D01*
X125350000Y-45200000D02*
X189100000Y-45200000D01*
X125350000Y-47700000D02*
X125350000Y-45200000D01*
X124850000Y-47700000D02*
X125350000Y-47700000D01*
X115350000Y-45200000D02*
X105150000Y-45200000D01*
X115350000Y-47700000D02*
X115350000Y-45200000D01*
X115850000Y-47700000D02*
X115350000Y-47700000D01*
X124850000Y-47700000D02*
X115850000Y-47700000D01*
X156630000Y-99960000D02*
X156610009Y-88450000D01*
X142600000Y-104970000D02*
X151610000Y-104980000D01*
X151610000Y-83449991D02*
X142590000Y-83439991D01*
X151610000Y-83449991D02*
G75*
G02X156610009Y-88450000I0J-5000009D01*
G01*
X137589991Y-88440000D02*
G75*
G02X142590000Y-83439991I5000009J0D01*
G01*
X142600000Y-104970000D02*
G75*
G02X137590000Y-99960000I0J5010000D01*
G01*
X156630000Y-99960000D02*
G75*
G02X151610000Y-104980000I-5020000J0D01*
G01*
X105100000Y-139200000D02*
X189100000Y-139200000D01*
X92100000Y-128250000D02*
X105100000Y-139200000D01*
X92100000Y-56150000D02*
X92100000Y-128250000D01*
X105150000Y-45200000D02*
X92100000Y-56150000D01*
X202100000Y-56150000D02*
X189100000Y-45200000D01*
X202100000Y-128300000D02*
X202100000Y-56150000D01*
X189100000Y-139200000D02*
X202100000Y-128300000D01*
M02*
