M48
; DRILL file {KiCad (5.1.4)-1} date 03/05/23 21:22:39
; FORMAT={-:-/ absolute / inch / decimal}
; #@! TF.CreationDate,2023-03-05T21:22:39+09:00
; #@! TF.GenerationSoftware,Kicad,Pcbnew,(5.1.4)-1
FMAT,2
INCH
T1C0.0157
T2C0.0236
T3C0.0315
T4C0.0354
T5C0.0390
T6C0.0394
T7C0.0398
T8C0.0433
T9C0.0472
T10C0.0551
T11C0.0827
T12C0.0846
T13C0.1024
T14C0.1417
T15C0.1732
T16C0.0591
%
G90
G05
T1
X4.1654Y-3.7008
X4.3524Y-4.0571
X4.3533Y-5.2539
X4.4469Y-5.2303
X4.5167Y-2.0069
X4.6604Y-3.6201
X4.6909Y-3.5951
X4.6998Y-3.0876
X4.7432Y-3.0846
X4.781Y-4.5182
X4.813Y-4.4887
X4.8504Y-2.7638
X4.872Y-3.2835
X4.9488Y-2.0079
X5.0453Y-3.624
X5.1427Y-5.2008
X5.1496Y-2.6732
X5.172Y-5.1731
X5.187Y-3.5551
X5.189Y-3.7146
X5.189Y-5.1264
X5.2057Y-2.2697
X5.2067Y-3.9291
X5.2067Y-4.9537
X5.2244Y-4.0325
X5.226Y-4.9194
X5.2776Y-3.2598
X5.311Y-2.2411
X5.3898Y-3.0974
X6.2785Y-5.2185
X6.3356Y-5.2132
X6.3514Y-5.251
X6.3622Y-2.0157
X6.4104Y-3.0138
X6.4104Y-3.7165
X6.4183Y-3.0896
X6.4488Y-5.3307
X6.4497Y-3.0111
X6.4707Y-5.3665
X6.4921Y-2.064
X6.8243Y-2.3637
X6.8957Y-3.2165
X6.9124Y-5.2795
X7.2333Y-2.752
X7.2392Y-4.5173
X7.2439Y-4.4721
X7.2579Y-3.6346
X7.2766Y-5.3829
X7.2864Y-3.6673
X7.3199Y-5.2766
X7.3679Y-4.6071
X7.372Y-2.0079
X7.4137Y-4.5863
X7.4542Y-4.5458
X7.4611Y-2.7278
X7.4678Y-2.8225
X7.494Y-4.5464
X7.499Y-3.6959
X7.5027Y-2.9501
X7.503Y-2.0571
X7.5143Y-3.222
X7.5207Y-2.0994
X7.5282Y-2.6811
X7.5282Y-2.8691
X7.5344Y-4.5311
X7.5693Y-2.1171
X7.5748Y-2.1949
X7.5763Y-4.5143
X7.6033Y-2.1447
X7.6033Y-2.2894
X7.6191Y-4.5118
X7.7244Y-2.0866
X4.6201Y-2.065
X4.6201Y-2.1181
X4.6535Y-2.065
X4.6535Y-2.1181
X4.687Y-2.065
X4.687Y-2.1181
X4.7205Y-2.065
X4.7205Y-2.1181
X4.7539Y-2.065
X4.7539Y-2.1181
X4.7874Y-2.065
X4.7874Y-2.1181
X4.8209Y-2.065
X4.8209Y-2.1181
X4.8543Y-2.065
X4.8543Y-2.1181
T2
X4.9882Y-2.4567
X5.0305Y-2.5231
T3
X4.469Y-2.3863
X4.6811Y-2.5984
X4.1021Y-2.9126
X4.374Y-3.0394
X6.7825Y-2.7175
X6.9946Y-2.5054
X6.6969Y-2.6378
X6.8897Y-2.408
X7.1036Y-3.0745
X7.1772Y-3.252
X6.5956Y-2.5607
X6.7677Y-2.315
X5.102Y-2.2663
X5.1929Y-2.4409
X3.9897Y-3.2216
X4.2795Y-3.2992
X7.3858Y-2.1929
X7.3858Y-2.2929
X7.3858Y-2.3929
X7.3858Y-2.4929
X7.3858Y-2.5929
X7.3858Y-2.6929
X7.3858Y-2.7929
X7.3858Y-2.8929
X7.3858Y-2.9929
X7.3858Y-3.0929
X7.3858Y-3.1929
X7.3858Y-3.2929
X7.3858Y-3.3929
X7.3858Y-3.4929
X7.6858Y-2.1929
X7.6858Y-2.2929
X7.6858Y-2.3929
X7.6858Y-2.4929
X7.6858Y-2.5929
X7.6858Y-2.6929
X7.6858Y-2.7929
X7.6858Y-2.8929
X7.6858Y-2.9929
X7.6858Y-3.0929
X7.6858Y-3.1929
X7.6858Y-3.2929
X7.6858Y-3.3929
X7.6858Y-3.4929
X6.937Y-2.9085
X7.0983Y-2.7956
X6.4898Y-2.4931
X6.6398Y-2.2333
X6.8622Y-2.811
X7.013Y-2.6845
X4.3189Y-2.8583
X4.5787Y-3.0083
X4.1945Y-3.1257
X4.4764Y-3.2283
X4.7672Y-2.487
X4.8937Y-2.6378
T4
X5.0512Y-1.9764
X5.1512Y-1.9764
T5
X6.2717Y-2.3937
X6.3743Y-2.1118
X6.0354Y-2.3307
X6.0875Y-2.0353
X4.4985Y-2.6182
X4.7283Y-2.811
X6.1535Y-2.3543
X6.2312Y-2.0646
X5.9173Y-2.315
X5.9435Y-2.0161
X4.27Y-2.639
X4.5157Y-2.811
X6.3819Y-2.4409
X6.5087Y-2.1691
T6
X3.9709Y-3.5792
X4.0709Y-3.5792
X4.1709Y-3.5792
X4.2709Y-3.5792
X5.3577Y-1.8715
X5.3577Y-1.9715
X5.4577Y-1.8715
X5.4577Y-1.9715
X5.5577Y-1.8715
X5.5577Y-1.9715
X3.9213Y-3.8465
X3.9213Y-4.4173
X4.0197Y-3.8465
X4.1181Y-3.8465
X4.1181Y-4.4173
X5.311Y-3.5591
X5.311Y-3.6591
X5.311Y-3.7591
X5.311Y-3.8591
X5.411Y-3.5591
X5.411Y-3.6591
X5.411Y-3.7591
X5.411Y-3.8591
T7
X5.3287Y-2.3307
X5.5344Y-2.3154
T8
X6.9449Y-1.8386
X6.9449Y-2.0157
X7.2008Y-1.8386
X7.2008Y-2.0157
X6.5827Y-1.8386
X6.5827Y-2.0157
X6.8386Y-1.8386
X6.8386Y-2.0157
T9
X4.0981Y-5.3385
X4.2264Y-5.185
X4.3546Y-5.0316
X7.2274Y-5.0321
X7.3563Y-5.185
X7.4852Y-5.338
X3.813Y-5.0965
X3.9412Y-4.943
X4.0695Y-4.7895
X7.5227Y-4.786
X7.6516Y-4.939
X7.7804Y-5.0919
T10
X5.6929Y-4.8898
X5.7913Y-4.8898
X5.8898Y-4.8898
T11
X4.2165Y-1.9173
X7.3661Y-1.9173
X4.5209Y-3.9787
X4.6043Y-4.237
X5.7913Y-2.4843
X5.7913Y-5.0866
X5.7913Y-5.3622
X6.9783Y-4.237
X7.0622Y-3.9787
X3.7244Y-3.6496
X7.8583Y-3.6496
T12
X5.7913Y-3.1756
X5.7913Y-4.2417
T13
X4.874Y-3.4795
X5.3878Y-2.5984
X6.1957Y-2.5996
X6.7189Y-3.528
T14
X4.6559Y-3.8287
X6.9268Y-3.8278
T15
X5.0Y-4.1841
X5.7746Y-2.7854
X6.5984Y-4.1575
T2
G00X4.5669Y-1.9622
M15
G01X4.5669Y-1.9307
M16
G05
G00X4.5669Y-2.1091
M15
G01X4.5669Y-2.05
M16
G05
G00X4.9075Y-1.9622
M15
G01X4.9075Y-1.9307
M16
G05
G00X4.9075Y-2.1091
M15
G01X4.9075Y-2.05
M16
G05
T16
G00X3.7992Y-4.1161
M15
G01X3.7992Y-4.1673
M16
G05
G00X4.2402Y-4.1161
M15
G01X4.2402Y-4.1673
M16
G05
T0
M30
