  0
SECTION
  2
HEADER
  9
$ANGBASE
  50
0.0
  9
$ANGDIR
  70
1
  9
$MEASUREMENT
  70
1
  0
ENDSEC
  0
SECTION
  2
TABLES
  0
TABLE
  2
LTYPE
  70
4
  0
LTYPE
  5
40F
  2
CONTINUOUS
  70
0
  3
Solid line
  72
65
  73
0
  40
0.0
  0
LTYPE
  5
410
  2
DASHDOT
 70
0
  3
Dash Dot ____ _ ____ _
 72
65
 73
4
 40
2.0
 49
1.25
 49
-0.25
 49
0.25
 49
-0.25
  0
LTYPE
  5
411
  2
DASHED
 70
0
  3
Dashed __ __ __ __ __
 72
65
 73
2
 40
0.75
 49
0.5
 49
-0.25
  0
LTYPE
  5
43B
  2
DOTTED
 70
0
  3
Dotted .  .  .  .
 72
65
 73
2
 40
0.2
 49
0.0
 49
-0.2
  0
ENDTAB
  0
TABLE
  2
STYLE
  70
4
  0
STYLE
  2
KICAD
  70
0
  40
0
  41
1
  42
1
  50
0
  71
0
  3
isocp.shx
  0
STYLE
  2
KICADB
  70
0
  40
0
  41
1
  42
1
  50
0
  71
0
  3
isocp.shx
  0
STYLE
  2
KICADI
  70
0
  40
0
  41
1
  42
1
  50
15
  71
0
  3
isocp.shx
  0
STYLE
  2
KICADBI
  70
0
  40
0
  41
1
  42
1
  50
15
  71
0
  3
isocp.shx
  0
ENDTAB
  0
TABLE
  2
LAYER
  70
1
  0
LAYER
  2
BLACK
  70
0
  62
7
  6
CONTINUOUS
  0
ENDTAB
  0
ENDSEC
  0
SECTION
  2
ENTITIES
0
LINE
8
BLACK
6
CONTINUOUS
10
125.325
20
-45.2012
11
125.325
21
-45.2
0
LINE
8
BLACK
6
CONTINUOUS
10
125.325
20
-45.2
11
125.325
21
-45.1951
0
LINE
8
BLACK
6
CONTINUOUS
10
125.325
20
-45.1951
11
125.327
21
-45.1904
0
LINE
8
BLACK
6
CONTINUOUS
10
125.327
20
-45.1904
11
125.329
21
-45.186
0
LINE
8
BLACK
6
CONTINUOUS
10
125.329
20
-45.186
11
125.332
21
-45.1822
0
LINE
8
BLACK
6
CONTINUOUS
10
125.332
20
-45.1822
11
125.336
21
-45.1791
0
LINE
8
BLACK
6
CONTINUOUS
10
125.336
20
-45.1791
11
125.34
21
-45.1768
0
LINE
8
BLACK
6
CONTINUOUS
10
125.34
20
-45.1768
11
125.345
21
-45.1754
0
LINE
8
BLACK
6
CONTINUOUS
10
125.345
20
-45.1754
11
125.349
21
-45.175
0
LINE
8
BLACK
6
CONTINUOUS
10
125.349
20
-45.175
11
125.349
21
-45.175
0
LINE
8
BLACK
6
CONTINUOUS
10
125.349
20
-45.175
11
125.35
21
-45.1749
0
LINE
8
BLACK
6
CONTINUOUS
10
125.35
20
-45.1749
11
125.351
21
-45.175
0
LINE
8
BLACK
6
CONTINUOUS
10
125.351
20
-45.175
11
189.098
21
-45.175
0
LINE
8
BLACK
6
CONTINUOUS
10
189.098
20
-45.175
11
189.098
21
-45.175
0
LINE
8
BLACK
6
CONTINUOUS
10
189.098
20
-45.175
11
189.1
21
-45.175
0
LINE
8
BLACK
6
CONTINUOUS
10
189.1
20
-45.175
11
189.101
21
-45.175
0
LINE
8
BLACK
6
CONTINUOUS
10
189.101
20
-45.175
11
189.101
21
-45.175
0
LINE
8
BLACK
6
CONTINUOUS
10
189.101
20
-45.175
11
189.103
21
-45.175
0
LINE
8
BLACK
6
CONTINUOUS
10
189.103
20
-45.175
11
189.104
21
-45.1753
0
LINE
8
BLACK
6
CONTINUOUS
10
189.104
20
-45.1753
11
189.105
21
-45.1754
0
LINE
8
BLACK
6
CONTINUOUS
10
189.105
20
-45.1754
11
189.106
21
-45.1758
0
LINE
8
BLACK
6
CONTINUOUS
10
189.106
20
-45.1758
11
189.108
21
-45.1761
0
LINE
8
BLACK
6
CONTINUOUS
10
189.108
20
-45.1761
11
189.109
21
-45.1765
0
LINE
8
BLACK
6
CONTINUOUS
10
189.109
20
-45.1765
11
189.11
21
-45.1768
0
LINE
8
BLACK
6
CONTINUOUS
10
189.11
20
-45.1768
11
189.111
21
-45.1775
0
LINE
8
BLACK
6
CONTINUOUS
10
189.111
20
-45.1775
11
189.112
21
-45.178
0
LINE
8
BLACK
6
CONTINUOUS
10
189.112
20
-45.178
11
189.113
21
-45.1786
0
LINE
8
BLACK
6
CONTINUOUS
10
189.113
20
-45.1786
11
189.114
21
-45.1791
0
LINE
8
BLACK
6
CONTINUOUS
10
189.114
20
-45.1791
11
189.115
21
-45.18
0
LINE
8
BLACK
6
CONTINUOUS
10
189.115
20
-45.18
11
189.115
21
-45.1801
0
LINE
8
BLACK
6
CONTINUOUS
10
189.115
20
-45.1801
11
189.116
21
-45.1808
0
LINE
8
BLACK
6
CONTINUOUS
10
189.116
20
-45.1808
11
189.118
21
-45.1822
0
LINE
8
BLACK
6
CONTINUOUS
10
189.118
20
-45.1822
11
189.118
21
-45.1824
0
LINE
8
BLACK
6
CONTINUOUS
10
189.118
20
-45.1824
11
202.116
21
-56.1308
0
LINE
8
BLACK
6
CONTINUOUS
10
202.116
20
-56.1308
11
202.118
21
-56.1322
0
LINE
8
BLACK
6
CONTINUOUS
10
202.118
20
-56.1322
11
202.119
21
-56.1333
0
LINE
8
BLACK
6
CONTINUOUS
10
202.119
20
-56.1333
11
202.12
21
-56.1343
0
LINE
8
BLACK
6
CONTINUOUS
10
202.12
20
-56.1343
11
202.12
21
-56.1352
0
LINE
8
BLACK
6
CONTINUOUS
10
202.12
20
-56.1352
11
202.121
21
-56.136
0
LINE
8
BLACK
6
CONTINUOUS
10
202.121
20
-56.136
11
202.122
21
-56.1373
0
LINE
8
BLACK
6
CONTINUOUS
10
202.122
20
-56.1373
11
202.122
21
-56.1384
0
LINE
8
BLACK
6
CONTINUOUS
10
202.122
20
-56.1384
11
202.123
21
-56.1394
0
LINE
8
BLACK
6
CONTINUOUS
10
202.123
20
-56.1394
11
202.123
21
-56.1404
0
LINE
8
BLACK
6
CONTINUOUS
10
202.123
20
-56.1404
11
202.124
21
-56.1417
0
LINE
8
BLACK
6
CONTINUOUS
10
202.124
20
-56.1417
11
202.124
21
-56.143
0
LINE
8
BLACK
6
CONTINUOUS
10
202.124
20
-56.143
11
202.124
21
-56.1441
0
LINE
8
BLACK
6
CONTINUOUS
10
202.124
20
-56.1441
11
202.125
21
-56.1451
0
LINE
8
BLACK
6
CONTINUOUS
10
202.125
20
-56.1451
11
202.125
21
-56.1465
0
LINE
8
BLACK
6
CONTINUOUS
10
202.125
20
-56.1465
11
202.125
21
-56.1479
0
LINE
8
BLACK
6
CONTINUOUS
10
202.125
20
-56.1479
11
202.125
21
-56.1501
0
LINE
8
BLACK
6
CONTINUOUS
10
202.125
20
-56.1501
11
202.125
21
-128.3
0
LINE
8
BLACK
6
CONTINUOUS
10
202.125
20
-128.3
11
202.125
21
-128.302
0
LINE
8
BLACK
6
CONTINUOUS
10
202.125
20
-128.302
11
202.125
21
-128.304
0
LINE
8
BLACK
6
CONTINUOUS
10
202.125
20
-128.304
11
202.125
21
-128.305
0
LINE
8
BLACK
6
CONTINUOUS
10
202.125
20
-128.305
11
202.124
21
-128.306
0
LINE
8
BLACK
6
CONTINUOUS
10
202.124
20
-128.306
11
202.124
21
-128.307
0
LINE
8
BLACK
6
CONTINUOUS
10
202.124
20
-128.307
11
202.124
21
-128.308
0
LINE
8
BLACK
6
CONTINUOUS
10
202.124
20
-128.308
11
202.123
21
-128.31
0
LINE
8
BLACK
6
CONTINUOUS
10
202.123
20
-128.31
11
202.123
21
-128.311
0
LINE
8
BLACK
6
CONTINUOUS
10
202.123
20
-128.311
11
202.122
21
-128.312
0
LINE
8
BLACK
6
CONTINUOUS
10
202.122
20
-128.312
11
202.122
21
-128.313
0
LINE
8
BLACK
6
CONTINUOUS
10
202.122
20
-128.313
11
202.121
21
-128.314
0
LINE
8
BLACK
6
CONTINUOUS
10
202.121
20
-128.314
11
202.12
21
-128.315
0
LINE
8
BLACK
6
CONTINUOUS
10
202.12
20
-128.315
11
202.12
21
-128.316
0
LINE
8
BLACK
6
CONTINUOUS
10
202.12
20
-128.316
11
202.119
21
-128.317
0
LINE
8
BLACK
6
CONTINUOUS
10
202.119
20
-128.317
11
202.118
21
-128.318
0
LINE
8
BLACK
6
CONTINUOUS
10
202.118
20
-128.318
11
202.116
21
-128.319
0
LINE
8
BLACK
6
CONTINUOUS
10
202.116
20
-128.319
11
189.118
21
-139.218
0
LINE
8
BLACK
6
CONTINUOUS
10
189.118
20
-139.218
11
189.118
21
-139.218
0
LINE
8
BLACK
6
CONTINUOUS
10
189.118
20
-139.218
11
189.116
21
-139.219
0
LINE
8
BLACK
6
CONTINUOUS
10
189.116
20
-139.219
11
189.115
21
-139.22
0
LINE
8
BLACK
6
CONTINUOUS
10
189.115
20
-139.22
11
189.115
21
-139.22
0
LINE
8
BLACK
6
CONTINUOUS
10
189.115
20
-139.22
11
189.114
21
-139.221
0
LINE
8
BLACK
6
CONTINUOUS
10
189.114
20
-139.221
11
189.113
21
-139.221
0
LINE
8
BLACK
6
CONTINUOUS
10
189.113
20
-139.221
11
189.112
21
-139.222
0
LINE
8
BLACK
6
CONTINUOUS
10
189.112
20
-139.222
11
189.111
21
-139.223
0
LINE
8
BLACK
6
CONTINUOUS
10
189.111
20
-139.223
11
189.11
21
-139.223
0
LINE
8
BLACK
6
CONTINUOUS
10
189.11
20
-139.223
11
189.109
21
-139.224
0
LINE
8
BLACK
6
CONTINUOUS
10
189.109
20
-139.224
11
189.108
21
-139.224
0
LINE
8
BLACK
6
CONTINUOUS
10
189.108
20
-139.224
11
189.106
21
-139.224
0
LINE
8
BLACK
6
CONTINUOUS
10
189.106
20
-139.224
11
189.105
21
-139.225
0
LINE
8
BLACK
6
CONTINUOUS
10
189.105
20
-139.225
11
189.104
21
-139.225
0
LINE
8
BLACK
6
CONTINUOUS
10
189.104
20
-139.225
11
189.103
21
-139.225
0
LINE
8
BLACK
6
CONTINUOUS
10
189.103
20
-139.225
11
189.101
21
-139.225
0
LINE
8
BLACK
6
CONTINUOUS
10
189.101
20
-139.225
11
189.101
21
-139.225
0
LINE
8
BLACK
6
CONTINUOUS
10
189.101
20
-139.225
11
189.1
21
-139.225
0
LINE
8
BLACK
6
CONTINUOUS
10
189.1
20
-139.225
11
189.098
21
-139.225
0
LINE
8
BLACK
6
CONTINUOUS
10
189.098
20
-139.225
11
189.098
21
-139.225
0
LINE
8
BLACK
6
CONTINUOUS
10
189.098
20
-139.225
11
105.102
21
-139.225
0
LINE
8
BLACK
6
CONTINUOUS
10
105.102
20
-139.225
11
105.102
21
-139.225
0
LINE
8
BLACK
6
CONTINUOUS
10
105.102
20
-139.225
11
105.1
21
-139.225
0
LINE
8
BLACK
6
CONTINUOUS
10
105.1
20
-139.225
11
105.099
21
-139.225
0
LINE
8
BLACK
6
CONTINUOUS
10
105.099
20
-139.225
11
105.099
21
-139.225
0
LINE
8
BLACK
6
CONTINUOUS
10
105.099
20
-139.225
11
105.097
21
-139.225
0
LINE
8
BLACK
6
CONTINUOUS
10
105.097
20
-139.225
11
105.096
21
-139.225
0
LINE
8
BLACK
6
CONTINUOUS
10
105.096
20
-139.225
11
105.095
21
-139.225
0
LINE
8
BLACK
6
CONTINUOUS
10
105.095
20
-139.225
11
105.094
21
-139.224
0
LINE
8
BLACK
6
CONTINUOUS
10
105.094
20
-139.224
11
105.092
21
-139.224
0
LINE
8
BLACK
6
CONTINUOUS
10
105.092
20
-139.224
11
105.091
21
-139.224
0
LINE
8
BLACK
6
CONTINUOUS
10
105.091
20
-139.224
11
105.09
21
-139.223
0
LINE
8
BLACK
6
CONTINUOUS
10
105.09
20
-139.223
11
105.089
21
-139.223
0
LINE
8
BLACK
6
CONTINUOUS
10
105.089
20
-139.223
11
105.088
21
-139.222
0
LINE
8
BLACK
6
CONTINUOUS
10
105.088
20
-139.222
11
105.087
21
-139.221
0
LINE
8
BLACK
6
CONTINUOUS
10
105.087
20
-139.221
11
105.086
21
-139.221
0
LINE
8
BLACK
6
CONTINUOUS
10
105.086
20
-139.221
11
105.085
21
-139.22
0
LINE
8
BLACK
6
CONTINUOUS
10
105.085
20
-139.22
11
105.085
21
-139.22
0
LINE
8
BLACK
6
CONTINUOUS
10
105.085
20
-139.22
11
105.084
21
-139.219
0
LINE
8
BLACK
6
CONTINUOUS
10
105.084
20
-139.219
11
105.082
21
-139.218
0
LINE
8
BLACK
6
CONTINUOUS
10
105.082
20
-139.218
11
105.082
21
-139.218
0
LINE
8
BLACK
6
CONTINUOUS
10
105.082
20
-139.218
11
92.084
21
-128.269
0
LINE
8
BLACK
6
CONTINUOUS
10
92.084
20
-128.269
11
92.0822
21
-128.268
0
LINE
8
BLACK
6
CONTINUOUS
10
92.0822
20
-128.268
11
92.0813
21
-128.267
0
LINE
8
BLACK
6
CONTINUOUS
10
92.0813
20
-128.267
11
92.0804
21
-128.266
0
LINE
8
BLACK
6
CONTINUOUS
10
92.0804
20
-128.266
11
92.0798
21
-128.265
0
LINE
8
BLACK
6
CONTINUOUS
10
92.0798
20
-128.265
11
92.0791
21
-128.264
0
LINE
8
BLACK
6
CONTINUOUS
10
92.0791
20
-128.264
11
92.0785
21
-128.263
0
LINE
8
BLACK
6
CONTINUOUS
10
92.0785
20
-128.263
11
92.0777
21
-128.262
0
LINE
8
BLACK
6
CONTINUOUS
10
92.0777
20
-128.262
11
92.0773
21
-128.261
0
LINE
8
BLACK
6
CONTINUOUS
10
92.0773
20
-128.261
11
92.0768
21
-128.26
0
LINE
8
BLACK
6
CONTINUOUS
10
92.0768
20
-128.26
11
92.0764
21
-128.258
0
LINE
8
BLACK
6
CONTINUOUS
10
92.0764
20
-128.258
11
92.0759
21
-128.257
0
LINE
8
BLACK
6
CONTINUOUS
10
92.0759
20
-128.257
11
92.0757
21
-128.256
0
LINE
8
BLACK
6
CONTINUOUS
10
92.0757
20
-128.256
11
92.0754
21
-128.255
0
LINE
8
BLACK
6
CONTINUOUS
10
92.0754
20
-128.255
11
92.0752
21
-128.254
0
LINE
8
BLACK
6
CONTINUOUS
10
92.0752
20
-128.254
11
92.075
21
-128.252
0
LINE
8
BLACK
6
CONTINUOUS
10
92.075
20
-128.252
11
92.075
21
-128.25
0
LINE
8
BLACK
6
CONTINUOUS
10
92.075
20
-128.25
11
92.075
21
-56.1501
0
LINE
8
BLACK
6
CONTINUOUS
10
92.075
20
-56.1501
11
92.075
21
-56.1478
0
LINE
8
BLACK
6
CONTINUOUS
10
92.075
20
-56.1478
11
92.0752
21
-56.1465
0
LINE
8
BLACK
6
CONTINUOUS
10
92.0752
20
-56.1465
11
92.0754
21
-56.1451
0
LINE
8
BLACK
6
CONTINUOUS
10
92.0754
20
-56.1451
11
92.0757
21
-56.1441
0
LINE
8
BLACK
6
CONTINUOUS
10
92.0757
20
-56.1441
11
92.0759
21
-56.143
0
LINE
8
BLACK
6
CONTINUOUS
10
92.0759
20
-56.143
11
92.0764
21
-56.1417
0
LINE
8
BLACK
6
CONTINUOUS
10
92.0764
20
-56.1417
11
92.0768
21
-56.1404
0
LINE
8
BLACK
6
CONTINUOUS
10
92.0768
20
-56.1404
11
92.0773
21
-56.1394
0
LINE
8
BLACK
6
CONTINUOUS
10
92.0773
20
-56.1394
11
92.0777
21
-56.1384
0
LINE
8
BLACK
6
CONTINUOUS
10
92.0777
20
-56.1384
11
92.0785
21
-56.1373
0
LINE
8
BLACK
6
CONTINUOUS
10
92.0785
20
-56.1373
11
92.0791
21
-56.136
0
LINE
8
BLACK
6
CONTINUOUS
10
92.0791
20
-56.136
11
92.0798
21
-56.1352
0
LINE
8
BLACK
6
CONTINUOUS
10
92.0798
20
-56.1352
11
92.0804
21
-56.1343
0
LINE
8
BLACK
6
CONTINUOUS
10
92.0804
20
-56.1343
11
92.0814
21
-56.1333
0
LINE
8
BLACK
6
CONTINUOUS
10
92.0814
20
-56.1333
11
92.0822
21
-56.1322
0
LINE
8
BLACK
6
CONTINUOUS
10
92.0822
20
-56.1322
11
92.0841
21
-56.1307
0
LINE
8
BLACK
6
CONTINUOUS
10
92.0841
20
-56.1307
11
105.132
21
-45.1823
0
LINE
8
BLACK
6
CONTINUOUS
10
105.132
20
-45.1823
11
105.132
21
-45.1822
0
LINE
8
BLACK
6
CONTINUOUS
10
105.132
20
-45.1822
11
105.134
21
-45.1808
0
LINE
8
BLACK
6
CONTINUOUS
10
105.134
20
-45.1808
11
105.135
21
-45.1801
0
LINE
8
BLACK
6
CONTINUOUS
10
105.135
20
-45.1801
11
105.135
21
-45.18
0
LINE
8
BLACK
6
CONTINUOUS
10
105.135
20
-45.18
11
105.136
21
-45.1791
0
LINE
8
BLACK
6
CONTINUOUS
10
105.136
20
-45.1791
11
105.137
21
-45.1786
0
LINE
8
BLACK
6
CONTINUOUS
10
105.137
20
-45.1786
11
105.138
21
-45.178
0
LINE
8
BLACK
6
CONTINUOUS
10
105.138
20
-45.178
11
105.139
21
-45.1774
0
LINE
8
BLACK
6
CONTINUOUS
10
105.139
20
-45.1774
11
105.14
21
-45.1768
0
LINE
8
BLACK
6
CONTINUOUS
10
105.14
20
-45.1768
11
105.141
21
-45.1765
0
LINE
8
BLACK
6
CONTINUOUS
10
105.141
20
-45.1765
11
105.142
21
-45.176
0
LINE
8
BLACK
6
CONTINUOUS
10
105.142
20
-45.176
11
105.144
21
-45.1758
0
LINE
8
BLACK
6
CONTINUOUS
10
105.144
20
-45.1758
11
105.145
21
-45.1754
0
LINE
8
BLACK
6
CONTINUOUS
10
105.145
20
-45.1754
11
105.146
21
-45.1753
0
LINE
8
BLACK
6
CONTINUOUS
10
105.146
20
-45.1753
11
105.147
21
-45.175
0
LINE
8
BLACK
6
CONTINUOUS
10
105.147
20
-45.175
11
105.149
21
-45.175
0
LINE
8
BLACK
6
CONTINUOUS
10
105.149
20
-45.175
11
105.149
21
-45.175
0
LINE
8
BLACK
6
CONTINUOUS
10
105.149
20
-45.175
11
105.15
21
-45.175
0
LINE
8
BLACK
6
CONTINUOUS
10
105.15
20
-45.175
11
105.152
21
-45.175
0
LINE
8
BLACK
6
CONTINUOUS
10
105.152
20
-45.175
11
105.152
21
-45.175
0
LINE
8
BLACK
6
CONTINUOUS
10
105.152
20
-45.175
11
115.349
21
-45.175
0
LINE
8
BLACK
6
CONTINUOUS
10
115.349
20
-45.175
11
115.35
21
-45.1749
0
LINE
8
BLACK
6
CONTINUOUS
10
115.35
20
-45.1749
11
115.351
21
-45.175
0
LINE
8
BLACK
6
CONTINUOUS
10
115.351
20
-45.175
11
115.355
21
-45.1754
0
LINE
8
BLACK
6
CONTINUOUS
10
115.355
20
-45.1754
11
115.36
21
-45.1768
0
LINE
8
BLACK
6
CONTINUOUS
10
115.36
20
-45.1768
11
115.364
21
-45.1791
0
LINE
8
BLACK
6
CONTINUOUS
10
115.364
20
-45.1791
11
115.368
21
-45.1822
0
LINE
8
BLACK
6
CONTINUOUS
10
115.368
20
-45.1822
11
115.371
21
-45.186
0
LINE
8
BLACK
6
CONTINUOUS
10
115.371
20
-45.186
11
115.373
21
-45.1904
0
LINE
8
BLACK
6
CONTINUOUS
10
115.373
20
-45.1904
11
115.375
21
-45.1951
0
LINE
8
BLACK
6
CONTINUOUS
10
115.375
20
-45.1951
11
115.375
21
-45.2
0
LINE
8
BLACK
6
CONTINUOUS
10
115.375
20
-45.2
11
115.375
21
-45.2012
0
LINE
8
BLACK
6
CONTINUOUS
10
115.375
20
-45.2012
11
115.375
21
-47.675
0
LINE
8
BLACK
6
CONTINUOUS
10
115.375
20
-47.675
11
125.325
21
-47.675
0
LINE
8
BLACK
6
CONTINUOUS
10
125.325
20
-47.675
11
125.325
21
-45.2012
0
LINE
8
BLACK
6
CONTINUOUS
10
115.35
20
-47.7251
11
115.345
21
-47.7246
0
LINE
8
BLACK
6
CONTINUOUS
10
115.345
20
-47.7246
11
115.34
21
-47.7232
0
LINE
8
BLACK
6
CONTINUOUS
10
115.34
20
-47.7232
11
115.336
21
-47.7209
0
LINE
8
BLACK
6
CONTINUOUS
10
115.336
20
-47.7209
11
115.332
21
-47.7178
0
LINE
8
BLACK
6
CONTINUOUS
10
115.332
20
-47.7178
11
115.329
21
-47.714
0
LINE
8
BLACK
6
CONTINUOUS
10
115.329
20
-47.714
11
115.327
21
-47.7096
0
LINE
8
BLACK
6
CONTINUOUS
10
115.327
20
-47.7096
11
115.325
21
-47.7049
0
LINE
8
BLACK
6
CONTINUOUS
10
115.325
20
-47.7049
11
115.325
21
-47.7
0
LINE
8
BLACK
6
CONTINUOUS
10
115.325
20
-47.7
11
115.325
21
-47.6988
0
LINE
8
BLACK
6
CONTINUOUS
10
115.325
20
-47.6988
11
115.325
21
-45.225
0
LINE
8
BLACK
6
CONTINUOUS
10
115.325
20
-45.225
11
105.159
21
-45.225
0
LINE
8
BLACK
6
CONTINUOUS
10
105.159
20
-45.225
11
92.125
21
-56.1617
0
LINE
8
BLACK
6
CONTINUOUS
10
92.125
20
-56.1617
11
92.125
21
-128.238
0
LINE
8
BLACK
6
CONTINUOUS
10
92.125
20
-128.238
11
105.109
21
-139.175
0
LINE
8
BLACK
6
CONTINUOUS
10
105.109
20
-139.175
11
189.091
21
-139.175
0
LINE
8
BLACK
6
CONTINUOUS
10
189.091
20
-139.175
11
202.075
21
-128.288
0
LINE
8
BLACK
6
CONTINUOUS
10
202.075
20
-128.288
11
202.075
21
-56.1616
0
LINE
8
BLACK
6
CONTINUOUS
10
202.075
20
-56.1616
11
189.091
21
-45.225
0
LINE
8
BLACK
6
CONTINUOUS
10
189.091
20
-45.225
11
125.375
21
-45.225
0
LINE
8
BLACK
6
CONTINUOUS
10
125.375
20
-45.225
11
125.375
21
-47.6988
0
LINE
8
BLACK
6
CONTINUOUS
10
125.375
20
-47.6988
11
125.375
21
-47.7
0
LINE
8
BLACK
6
CONTINUOUS
10
125.375
20
-47.7
11
125.375
21
-47.7049
0
LINE
8
BLACK
6
CONTINUOUS
10
125.375
20
-47.7049
11
125.373
21
-47.7096
0
LINE
8
BLACK
6
CONTINUOUS
10
125.373
20
-47.7096
11
125.371
21
-47.714
0
LINE
8
BLACK
6
CONTINUOUS
10
125.371
20
-47.714
11
125.368
21
-47.7178
0
LINE
8
BLACK
6
CONTINUOUS
10
125.368
20
-47.7178
11
125.364
21
-47.7209
0
LINE
8
BLACK
6
CONTINUOUS
10
125.364
20
-47.7209
11
125.36
21
-47.7232
0
LINE
8
BLACK
6
CONTINUOUS
10
125.36
20
-47.7232
11
125.355
21
-47.7246
0
LINE
8
BLACK
6
CONTINUOUS
10
125.355
20
-47.7246
11
125.351
21
-47.725
0
LINE
8
BLACK
6
CONTINUOUS
10
125.351
20
-47.725
11
125.351
21
-47.725
0
LINE
8
BLACK
6
CONTINUOUS
10
125.351
20
-47.725
11
125.35
21
-47.7251
0
LINE
8
BLACK
6
CONTINUOUS
10
125.35
20
-47.7251
11
125.349
21
-47.725
0
LINE
8
BLACK
6
CONTINUOUS
10
125.349
20
-47.725
11
115.351
21
-47.725
0
LINE
8
BLACK
6
CONTINUOUS
10
115.351
20
-47.725
11
115.35
21
-47.7251
0
LINE
8
BLACK
6
CONTINUOUS
10
141.711
20
-104.916
11
141.708
21
-104.915
0
LINE
8
BLACK
6
CONTINUOUS
10
141.708
20
-104.915
11
141.707
21
-104.915
0
LINE
8
BLACK
6
CONTINUOUS
10
141.707
20
-104.915
11
141.706
21
-104.915
0
LINE
8
BLACK
6
CONTINUOUS
10
141.706
20
-104.915
11
140.847
21
-104.68
0
LINE
8
BLACK
6
CONTINUOUS
10
140.847
20
-104.68
11
140.844
21
-104.679
0
LINE
8
BLACK
6
CONTINUOUS
10
140.844
20
-104.679
11
140.844
21
-104.679
0
LINE
8
BLACK
6
CONTINUOUS
10
140.844
20
-104.679
11
140.843
21
-104.678
0
LINE
8
BLACK
6
CONTINUOUS
10
140.843
20
-104.678
11
140.039
21
-104.295
0
LINE
8
BLACK
6
CONTINUOUS
10
140.039
20
-104.295
11
140.036
21
-104.293
0
LINE
8
BLACK
6
CONTINUOUS
10
140.036
20
-104.293
11
140.036
21
-104.293
0
LINE
8
BLACK
6
CONTINUOUS
10
140.036
20
-104.293
11
140.035
21
-104.293
0
LINE
8
BLACK
6
CONTINUOUS
10
140.035
20
-104.293
11
139.312
21
-103.773
0
LINE
8
BLACK
6
CONTINUOUS
10
139.312
20
-103.773
11
139.31
21
-103.771
0
LINE
8
BLACK
6
CONTINUOUS
10
139.31
20
-103.771
11
139.309
21
-103.77
0
LINE
8
BLACK
6
CONTINUOUS
10
139.309
20
-103.77
11
139.308
21
-103.77
0
LINE
8
BLACK
6
CONTINUOUS
10
139.308
20
-103.77
11
138.689
21
-103.13
0
LINE
8
BLACK
6
CONTINUOUS
10
138.689
20
-103.13
11
138.687
21
-103.128
0
LINE
8
BLACK
6
CONTINUOUS
10
138.687
20
-103.128
11
138.686
21
-103.127
0
LINE
8
BLACK
6
CONTINUOUS
10
138.686
20
-103.127
11
138.686
21
-103.127
0
LINE
8
BLACK
6
CONTINUOUS
10
138.686
20
-103.127
11
138.189
21
-102.388
0
LINE
8
BLACK
6
CONTINUOUS
10
138.189
20
-102.388
11
138.187
21
-102.385
0
LINE
8
BLACK
6
CONTINUOUS
10
138.187
20
-102.385
11
138.187
21
-102.384
0
LINE
8
BLACK
6
CONTINUOUS
10
138.187
20
-102.384
11
138.187
21
-102.384
0
LINE
8
BLACK
6
CONTINUOUS
10
138.187
20
-102.384
11
137.829
21
-101.568
0
LINE
8
BLACK
6
CONTINUOUS
10
137.829
20
-101.568
11
137.828
21
-101.565
0
LINE
8
BLACK
6
CONTINUOUS
10
137.828
20
-101.565
11
137.828
21
-101.565
0
LINE
8
BLACK
6
CONTINUOUS
10
137.828
20
-101.565
11
137.827
21
-101.564
0
LINE
8
BLACK
6
CONTINUOUS
10
137.827
20
-101.564
11
137.619
21
-100.698
0
LINE
8
BLACK
6
CONTINUOUS
10
137.619
20
-100.698
11
137.619
21
-100.695
0
LINE
8
BLACK
6
CONTINUOUS
10
137.619
20
-100.695
11
137.619
21
-100.694
0
LINE
8
BLACK
6
CONTINUOUS
10
137.619
20
-100.694
11
137.619
21
-100.694
0
LINE
8
BLACK
6
CONTINUOUS
10
137.619
20
-100.694
11
137.565
21
-99.9622
0
LINE
8
BLACK
6
CONTINUOUS
10
137.565
20
-99.9622
11
137.565
21
-99.9602
0
LINE
8
BLACK
6
CONTINUOUS
10
137.565
20
-99.9602
11
137.565
21
-99.9553
0
LINE
8
BLACK
6
CONTINUOUS
10
137.565
20
-99.9553
11
137.567
21
-99.9506
0
LINE
8
BLACK
6
CONTINUOUS
10
137.567
20
-99.9506
11
137.569
21
-99.9462
0
LINE
8
BLACK
6
CONTINUOUS
10
137.569
20
-99.9462
11
137.572
21
-99.9424
0
LINE
8
BLACK
6
CONTINUOUS
10
137.572
20
-99.9424
11
137.576
21
-99.9392
0
LINE
8
BLACK
6
CONTINUOUS
10
137.576
20
-99.9392
11
137.58
21
-99.9369
0
LINE
8
BLACK
6
CONTINUOUS
10
137.58
20
-99.9369
11
137.585
21
-99.9354
0
LINE
8
BLACK
6
CONTINUOUS
10
137.585
20
-99.9354
11
137.587
21
-99.9351
0
LINE
8
BLACK
6
CONTINUOUS
10
137.587
20
-99.9351
11
137.587
21
-99.9351
0
LINE
8
BLACK
6
CONTINUOUS
10
137.587
20
-99.9351
11
137.587
21
-99.9351
0
LINE
8
BLACK
6
CONTINUOUS
10
137.587
20
-99.9351
11
137.589
21
-99.935
0
LINE
8
BLACK
6
CONTINUOUS
10
137.589
20
-99.935
11
138.825
21
-99.9252
0
LINE
8
BLACK
6
CONTINUOUS
10
138.825
20
-99.9252
11
138.825
21
-88.4748
0
LINE
8
BLACK
6
CONTINUOUS
10
138.825
20
-88.4748
11
137.589
21
-88.465
0
LINE
8
BLACK
6
CONTINUOUS
10
137.589
20
-88.465
11
137.585
21
-88.4646
0
LINE
8
BLACK
6
CONTINUOUS
10
137.585
20
-88.4646
11
137.58
21
-88.4631
0
LINE
8
BLACK
6
CONTINUOUS
10
137.58
20
-88.4631
11
137.576
21
-88.4608
0
LINE
8
BLACK
6
CONTINUOUS
10
137.576
20
-88.4608
11
137.572
21
-88.4576
0
LINE
8
BLACK
6
CONTINUOUS
10
137.572
20
-88.4576
11
137.569
21
-88.4538
0
LINE
8
BLACK
6
CONTINUOUS
10
137.569
20
-88.4538
11
137.567
21
-88.4494
0
LINE
8
BLACK
6
CONTINUOUS
10
137.567
20
-88.4494
11
137.565
21
-88.4447
0
LINE
8
BLACK
6
CONTINUOUS
10
137.565
20
-88.4447
11
137.565
21
-88.4422
0
LINE
8
BLACK
6
CONTINUOUS
10
137.565
20
-88.4422
11
137.565
21
-88.4422
0
LINE
8
BLACK
6
CONTINUOUS
10
137.565
20
-88.4422
11
137.565
21
-88.4422
0
LINE
8
BLACK
6
CONTINUOUS
10
137.565
20
-88.4422
11
137.565
21
-88.4398
0
LINE
8
BLACK
6
CONTINUOUS
10
137.565
20
-88.4398
11
137.565
21
-88.4376
0
LINE
8
BLACK
6
CONTINUOUS
10
137.565
20
-88.4376
11
137.644
21
-87.5524
0
LINE
8
BLACK
6
CONTINUOUS
10
137.644
20
-87.5524
11
137.645
21
-87.5495
0
LINE
8
BLACK
6
CONTINUOUS
10
137.645
20
-87.5495
11
137.645
21
-87.5488
0
LINE
8
BLACK
6
CONTINUOUS
10
137.645
20
-87.5488
11
137.645
21
-87.548
0
LINE
8
BLACK
6
CONTINUOUS
10
137.645
20
-87.548
11
137.879
21
-86.6905
0
LINE
8
BLACK
6
CONTINUOUS
10
137.879
20
-86.6905
11
137.88
21
-86.6878
0
LINE
8
BLACK
6
CONTINUOUS
10
137.88
20
-86.6878
11
137.881
21
-86.6871
0
LINE
8
BLACK
6
CONTINUOUS
10
137.881
20
-86.6871
11
137.881
21
-86.6864
0
LINE
8
BLACK
6
CONTINUOUS
10
137.881
20
-86.6864
11
138.264
21
-85.884
0
LINE
8
BLACK
6
CONTINUOUS
10
138.264
20
-85.884
11
138.265
21
-85.8815
0
LINE
8
BLACK
6
CONTINUOUS
10
138.265
20
-85.8815
11
138.266
21
-85.8809
0
LINE
8
BLACK
6
CONTINUOUS
10
138.266
20
-85.8809
11
138.266
21
-85.8802
0
LINE
8
BLACK
6
CONTINUOUS
10
138.266
20
-85.8802
11
138.785
21
-85.1583
0
LINE
8
BLACK
6
CONTINUOUS
10
138.785
20
-85.1583
11
138.785
21
-85.1583
0
LINE
8
BLACK
6
CONTINUOUS
10
138.785
20
-85.1583
11
138.785
21
-85.1583
0
LINE
8
BLACK
6
CONTINUOUS
10
138.785
20
-85.1583
11
138.787
21
-85.1561
0
LINE
8
BLACK
6
CONTINUOUS
10
138.787
20
-85.1561
11
138.787
21
-85.1555
0
LINE
8
BLACK
6
CONTINUOUS
10
138.787
20
-85.1555
11
138.788
21
-85.1549
0
LINE
8
BLACK
6
CONTINUOUS
10
138.788
20
-85.1549
11
139.426
21
-84.5363
0
LINE
8
BLACK
6
CONTINUOUS
10
139.426
20
-84.5363
11
139.428
21
-84.5344
0
LINE
8
BLACK
6
CONTINUOUS
10
139.428
20
-84.5344
11
139.429
21
-84.534
0
LINE
8
BLACK
6
CONTINUOUS
10
139.429
20
-84.534
11
139.429
21
-84.5335
0
LINE
8
BLACK
6
CONTINUOUS
10
139.429
20
-84.5335
11
140.167
21
-84.0377
0
LINE
8
BLACK
6
CONTINUOUS
10
140.167
20
-84.0377
11
140.17
21
-84.0362
0
LINE
8
BLACK
6
CONTINUOUS
10
140.17
20
-84.0362
11
140.17
21
-84.0359
0
LINE
8
BLACK
6
CONTINUOUS
10
140.17
20
-84.0359
11
140.171
21
-84.0356
0
LINE
8
BLACK
6
CONTINUOUS
10
140.171
20
-84.0356
11
140.985
21
-83.6783
0
LINE
8
BLACK
6
CONTINUOUS
10
140.985
20
-83.6783
11
140.985
21
-83.6783
0
LINE
8
BLACK
6
CONTINUOUS
10
140.985
20
-83.6783
11
140.985
21
-83.6783
0
LINE
8
BLACK
6
CONTINUOUS
10
140.985
20
-83.6783
11
140.988
21
-83.6773
0
LINE
8
BLACK
6
CONTINUOUS
10
140.988
20
-83.6773
11
140.989
21
-83.6771
0
LINE
8
BLACK
6
CONTINUOUS
10
140.989
20
-83.6771
11
140.989
21
-83.6768
0
LINE
8
BLACK
6
CONTINUOUS
10
140.989
20
-83.6768
11
141.854
21
-83.4693
0
LINE
8
BLACK
6
CONTINUOUS
10
141.854
20
-83.4693
11
141.857
21
-83.4688
0
LINE
8
BLACK
6
CONTINUOUS
10
141.857
20
-83.4688
11
141.857
21
-83.4688
0
LINE
8
BLACK
6
CONTINUOUS
10
141.857
20
-83.4688
11
141.858
21
-83.4687
0
LINE
8
BLACK
6
CONTINUOUS
10
141.858
20
-83.4687
11
142.588
21
-83.4151
0
LINE
8
BLACK
6
CONTINUOUS
10
142.588
20
-83.4151
11
142.589
21
-83.415
0
LINE
8
BLACK
6
CONTINUOUS
10
142.589
20
-83.415
11
151.611
21
-83.425
0
LINE
8
BLACK
6
CONTINUOUS
10
151.611
20
-83.425
11
151.612
21
-83.4251
0
LINE
8
BLACK
6
CONTINUOUS
10
151.612
20
-83.4251
11
151.612
21
-83.4251
0
LINE
8
BLACK
6
CONTINUOUS
10
151.612
20
-83.4251
11
152.498
21
-83.5041
0
LINE
8
BLACK
6
CONTINUOUS
10
152.498
20
-83.5041
11
152.498
21
-83.5041
0
LINE
8
BLACK
6
CONTINUOUS
10
152.498
20
-83.5041
11
152.498
21
-83.5041
0
LINE
8
BLACK
6
CONTINUOUS
10
152.498
20
-83.5041
11
152.5
21
-83.5045
0
LINE
8
BLACK
6
CONTINUOUS
10
152.5
20
-83.5045
11
152.501
21
-83.5048
0
LINE
8
BLACK
6
CONTINUOUS
10
152.501
20
-83.5048
11
152.502
21
-83.5049
0
LINE
8
BLACK
6
CONTINUOUS
10
152.502
20
-83.5049
11
153.359
21
-83.7395
0
LINE
8
BLACK
6
CONTINUOUS
10
153.359
20
-83.7395
11
153.362
21
-83.7404
0
LINE
8
BLACK
6
CONTINUOUS
10
153.362
20
-83.7404
11
153.363
21
-83.7407
0
LINE
8
BLACK
6
CONTINUOUS
10
153.363
20
-83.7407
11
153.364
21
-83.741
0
LINE
8
BLACK
6
CONTINUOUS
10
153.364
20
-83.741
11
154.166
21
-84.1237
0
LINE
8
BLACK
6
CONTINUOUS
10
154.166
20
-84.1237
11
154.168
21
-84.1251
0
LINE
8
BLACK
6
CONTINUOUS
10
154.168
20
-84.1251
11
154.169
21
-84.1256
0
LINE
8
BLACK
6
CONTINUOUS
10
154.169
20
-84.1256
11
154.17
21
-84.126
0
LINE
8
BLACK
6
CONTINUOUS
10
154.17
20
-84.126
11
154.892
21
-84.6447
0
LINE
8
BLACK
6
CONTINUOUS
10
154.892
20
-84.6447
11
154.892
21
-84.6447
0
LINE
8
BLACK
6
CONTINUOUS
10
154.892
20
-84.6447
11
154.892
21
-84.6447
0
LINE
8
BLACK
6
CONTINUOUS
10
154.892
20
-84.6447
11
154.894
21
-84.6465
0
LINE
8
BLACK
6
CONTINUOUS
10
154.894
20
-84.6465
11
154.894
21
-84.6471
0
LINE
8
BLACK
6
CONTINUOUS
10
154.894
20
-84.6471
11
154.895
21
-84.6476
0
LINE
8
BLACK
6
CONTINUOUS
10
154.895
20
-84.6476
11
155.514
21
-85.286
0
LINE
8
BLACK
6
CONTINUOUS
10
155.514
20
-85.286
11
155.516
21
-85.2882
0
LINE
8
BLACK
6
CONTINUOUS
10
155.516
20
-85.2882
11
155.516
21
-85.2888
0
LINE
8
BLACK
6
CONTINUOUS
10
155.516
20
-85.2888
11
155.516
21
-85.2894
0
LINE
8
BLACK
6
CONTINUOUS
10
155.516
20
-85.2894
11
156.012
21
-86.0273
0
LINE
8
BLACK
6
CONTINUOUS
10
156.012
20
-86.0273
11
156.014
21
-86.0298
0
LINE
8
BLACK
6
CONTINUOUS
10
156.014
20
-86.0298
11
156.014
21
-86.0305
0
LINE
8
BLACK
6
CONTINUOUS
10
156.014
20
-86.0305
11
156.014
21
-86.0312
0
LINE
8
BLACK
6
CONTINUOUS
10
156.014
20
-86.0312
11
156.372
21
-86.8452
0
LINE
8
BLACK
6
CONTINUOUS
10
156.372
20
-86.8452
11
156.373
21
-86.8478
0
LINE
8
BLACK
6
CONTINUOUS
10
156.373
20
-86.8478
11
156.373
21
-86.8486
0
LINE
8
BLACK
6
CONTINUOUS
10
156.373
20
-86.8486
11
156.373
21
-86.8494
0
LINE
8
BLACK
6
CONTINUOUS
10
156.373
20
-86.8494
11
156.581
21
-87.7137
0
LINE
8
BLACK
6
CONTINUOUS
10
156.581
20
-87.7137
11
156.581
21
-87.7166
0
LINE
8
BLACK
6
CONTINUOUS
10
156.581
20
-87.7166
11
156.581
21
-87.7172
0
LINE
8
BLACK
6
CONTINUOUS
10
156.581
20
-87.7172
11
156.581
21
-87.7178
0
LINE
8
BLACK
6
CONTINUOUS
10
156.581
20
-87.7178
11
156.635
21
-88.4479
0
LINE
8
BLACK
6
CONTINUOUS
10
156.635
20
-88.4479
11
156.635
21
-88.4487
0
LINE
8
BLACK
6
CONTINUOUS
10
156.635
20
-88.4487
11
156.655
21
-99.9612
0
LINE
8
BLACK
6
CONTINUOUS
10
156.655
20
-99.9612
11
156.655
21
-99.9622
0
LINE
8
BLACK
6
CONTINUOUS
10
156.655
20
-99.9622
11
156.655
21
-99.9622
0
LINE
8
BLACK
6
CONTINUOUS
10
156.655
20
-99.9622
11
156.576
21
-100.851
0
LINE
8
BLACK
6
CONTINUOUS
10
156.576
20
-100.851
11
156.575
21
-100.854
0
LINE
8
BLACK
6
CONTINUOUS
10
156.575
20
-100.854
11
156.575
21
-100.855
0
LINE
8
BLACK
6
CONTINUOUS
10
156.575
20
-100.855
11
156.575
21
-100.856
0
LINE
8
BLACK
6
CONTINUOUS
10
156.575
20
-100.856
11
156.339
21
-101.716
0
LINE
8
BLACK
6
CONTINUOUS
10
156.339
20
-101.716
11
156.338
21
-101.719
0
LINE
8
BLACK
6
CONTINUOUS
10
156.338
20
-101.719
11
156.338
21
-101.72
0
LINE
8
BLACK
6
CONTINUOUS
10
156.338
20
-101.72
11
156.338
21
-101.721
0
LINE
8
BLACK
6
CONTINUOUS
10
156.338
20
-101.721
11
155.953
21
-102.526
0
LINE
8
BLACK
6
CONTINUOUS
10
155.953
20
-102.526
11
155.952
21
-102.529
0
LINE
8
BLACK
6
CONTINUOUS
10
155.952
20
-102.529
11
155.952
21
-102.529
0
LINE
8
BLACK
6
CONTINUOUS
10
155.952
20
-102.529
11
155.951
21
-102.53
0
LINE
8
BLACK
6
CONTINUOUS
10
155.951
20
-102.53
11
155.43
21
-103.255
0
LINE
8
BLACK
6
CONTINUOUS
10
155.43
20
-103.255
11
155.429
21
-103.257
0
LINE
8
BLACK
6
CONTINUOUS
10
155.429
20
-103.257
11
155.428
21
-103.258
0
LINE
8
BLACK
6
CONTINUOUS
10
155.428
20
-103.258
11
155.428
21
-103.258
0
LINE
8
BLACK
6
CONTINUOUS
10
155.428
20
-103.258
11
154.787
21
-103.879
0
LINE
8
BLACK
6
CONTINUOUS
10
154.787
20
-103.879
11
154.784
21
-103.881
0
LINE
8
BLACK
6
CONTINUOUS
10
154.784
20
-103.881
11
154.784
21
-103.882
0
LINE
8
BLACK
6
CONTINUOUS
10
154.784
20
-103.882
11
154.783
21
-103.882
0
LINE
8
BLACK
6
CONTINUOUS
10
154.783
20
-103.882
11
154.042
21
-104.38
0
LINE
8
BLACK
6
CONTINUOUS
10
154.042
20
-104.38
11
154.04
21
-104.381
0
LINE
8
BLACK
6
CONTINUOUS
10
154.04
20
-104.381
11
154.039
21
-104.382
0
LINE
8
BLACK
6
CONTINUOUS
10
154.039
20
-104.382
11
154.038
21
-104.382
0
LINE
8
BLACK
6
CONTINUOUS
10
154.038
20
-104.382
11
153.221
21
-104.741
0
LINE
8
BLACK
6
CONTINUOUS
10
153.221
20
-104.741
11
153.219
21
-104.742
0
LINE
8
BLACK
6
CONTINUOUS
10
153.219
20
-104.742
11
153.218
21
-104.742
0
LINE
8
BLACK
6
CONTINUOUS
10
153.218
20
-104.742
11
153.217
21
-104.742
0
LINE
8
BLACK
6
CONTINUOUS
10
153.217
20
-104.742
11
152.349
21
-104.95
0
LINE
8
BLACK
6
CONTINUOUS
10
152.349
20
-104.95
11
152.346
21
-104.951
0
LINE
8
BLACK
6
CONTINUOUS
10
152.346
20
-104.951
11
152.346
21
-104.951
0
LINE
8
BLACK
6
CONTINUOUS
10
152.346
20
-104.951
11
152.345
21
-104.951
0
LINE
8
BLACK
6
CONTINUOUS
10
152.345
20
-104.951
11
151.612
21
-105.005
0
LINE
8
BLACK
6
CONTINUOUS
10
151.612
20
-105.005
11
151.611
21
-105.005
0
LINE
8
BLACK
6
CONTINUOUS
10
151.611
20
-105.005
11
142.599
21
-104.995
0
LINE
8
BLACK
6
CONTINUOUS
10
142.599
20
-104.995
11
142.598
21
-104.995
0
LINE
8
BLACK
6
CONTINUOUS
10
142.598
20
-104.995
11
142.598
21
-104.995
0
LINE
8
BLACK
6
CONTINUOUS
10
142.598
20
-104.995
11
141.711
21
-104.916
0
LINE
8
BLACK
6
CONTINUOUS
10
141.711
20
-104.916
11
141.711
21
-104.916
0
LINE
8
BLACK
6
CONTINUOUS
10
141.711
20
-104.916
11
141.711
21
-104.916
0
LINE
8
BLACK
6
CONTINUOUS
10
141.863
20
-83.5184
11
141.003
21
-83.7249
0
LINE
8
BLACK
6
CONTINUOUS
10
141.003
20
-83.7249
11
140.193
21
-84.0805
0
LINE
8
BLACK
6
CONTINUOUS
10
140.193
20
-84.0805
11
139.459
21
-84.5738
0
LINE
8
BLACK
6
CONTINUOUS
10
139.459
20
-84.5738
11
138.824
21
-85.1893
0
LINE
8
BLACK
6
CONTINUOUS
10
138.824
20
-85.1893
11
138.308
21
-85.9076
0
LINE
8
BLACK
6
CONTINUOUS
10
138.308
20
-85.9076
11
137.927
21
-86.7059
0
LINE
8
BLACK
6
CONTINUOUS
10
137.927
20
-86.7059
11
137.694
21
-87.559
0
LINE
8
BLACK
6
CONTINUOUS
10
137.694
20
-87.559
11
137.617
21
-88.4152
0
LINE
8
BLACK
6
CONTINUOUS
10
137.617
20
-88.4152
11
138.849
21
-88.425
0
LINE
8
BLACK
6
CONTINUOUS
10
138.849
20
-88.425
11
138.85
21
-88.4249
0
LINE
8
BLACK
6
CONTINUOUS
10
138.85
20
-88.4249
11
138.851
21
-88.425
0
LINE
8
BLACK
6
CONTINUOUS
10
138.851
20
-88.425
11
138.851
21
-88.425
0
LINE
8
BLACK
6
CONTINUOUS
10
138.851
20
-88.425
11
138.852
21
-88.4251
0
LINE
8
BLACK
6
CONTINUOUS
10
138.852
20
-88.4251
11
138.855
21
-88.4254
0
LINE
8
BLACK
6
CONTINUOUS
10
138.855
20
-88.4254
11
138.855
21
-88.4254
0
LINE
8
BLACK
6
CONTINUOUS
10
138.855
20
-88.4254
11
138.855
21
-88.4254
0
LINE
8
BLACK
6
CONTINUOUS
10
138.855
20
-88.4254
11
138.857
21
-88.4261
0
LINE
8
BLACK
6
CONTINUOUS
10
138.857
20
-88.4261
11
138.86
21
-88.4268
0
LINE
8
BLACK
6
CONTINUOUS
10
138.86
20
-88.4268
11
138.86
21
-88.4268
0
LINE
8
BLACK
6
CONTINUOUS
10
138.86
20
-88.4268
11
138.86
21
-88.4269
0
LINE
8
BLACK
6
CONTINUOUS
10
138.86
20
-88.4269
11
138.862
21
-88.428
0
LINE
8
BLACK
6
CONTINUOUS
10
138.862
20
-88.428
11
138.864
21
-88.4291
0
LINE
8
BLACK
6
CONTINUOUS
10
138.864
20
-88.4291
11
138.864
21
-88.4292
0
LINE
8
BLACK
6
CONTINUOUS
10
138.864
20
-88.4292
11
138.864
21
-88.4292
0
LINE
8
BLACK
6
CONTINUOUS
10
138.864
20
-88.4292
11
138.866
21
-88.4307
0
LINE
8
BLACK
6
CONTINUOUS
10
138.866
20
-88.4307
11
138.868
21
-88.4322
0
LINE
8
BLACK
6
CONTINUOUS
10
138.868
20
-88.4322
11
138.868
21
-88.4323
0
LINE
8
BLACK
6
CONTINUOUS
10
138.868
20
-88.4323
11
138.868
21
-88.4324
0
LINE
8
BLACK
6
CONTINUOUS
10
138.868
20
-88.4324
11
138.869
21
-88.4342
0
LINE
8
BLACK
6
CONTINUOUS
10
138.869
20
-88.4342
11
138.871
21
-88.436
0
LINE
8
BLACK
6
CONTINUOUS
10
138.871
20
-88.436
11
138.871
21
-88.4361
0
LINE
8
BLACK
6
CONTINUOUS
10
138.871
20
-88.4361
11
138.871
21
-88.4362
0
LINE
8
BLACK
6
CONTINUOUS
10
138.871
20
-88.4362
11
138.872
21
-88.4383
0
LINE
8
BLACK
6
CONTINUOUS
10
138.872
20
-88.4383
11
138.873
21
-88.4404
0
LINE
8
BLACK
6
CONTINUOUS
10
138.873
20
-88.4404
11
138.873
21
-88.4405
0
LINE
8
BLACK
6
CONTINUOUS
10
138.873
20
-88.4405
11
138.873
21
-88.4406
0
LINE
8
BLACK
6
CONTINUOUS
10
138.873
20
-88.4406
11
138.874
21
-88.4428
0
LINE
8
BLACK
6
CONTINUOUS
10
138.874
20
-88.4428
11
138.875
21
-88.4451
0
LINE
8
BLACK
6
CONTINUOUS
10
138.875
20
-88.4451
11
138.875
21
-88.4452
0
LINE
8
BLACK
6
CONTINUOUS
10
138.875
20
-88.4452
11
138.875
21
-88.4453
0
LINE
8
BLACK
6
CONTINUOUS
10
138.875
20
-88.4453
11
138.875
21
-88.4476
0
LINE
8
BLACK
6
CONTINUOUS
10
138.875
20
-88.4476
11
138.875
21
-88.4488
0
LINE
8
BLACK
6
CONTINUOUS
10
138.875
20
-88.4488
11
138.875
21
-88.4489
0
LINE
8
BLACK
6
CONTINUOUS
10
138.875
20
-88.4489
11
138.875
21
-88.4502
0
LINE
8
BLACK
6
CONTINUOUS
10
138.875
20
-88.4502
11
138.875
21
-88.4513
0
LINE
8
BLACK
6
CONTINUOUS
10
138.875
20
-88.4513
11
138.875
21
-99.9487
0
LINE
8
BLACK
6
CONTINUOUS
10
138.875
20
-99.9487
11
138.875
21
-99.9498
0
LINE
8
BLACK
6
CONTINUOUS
10
138.875
20
-99.9498
11
138.875
21
-99.9511
0
LINE
8
BLACK
6
CONTINUOUS
10
138.875
20
-99.9511
11
138.875
21
-99.9512
0
LINE
8
BLACK
6
CONTINUOUS
10
138.875
20
-99.9512
11
138.875
21
-99.9524
0
LINE
8
BLACK
6
CONTINUOUS
10
138.875
20
-99.9524
11
138.875
21
-99.9547
0
LINE
8
BLACK
6
CONTINUOUS
10
138.875
20
-99.9547
11
138.875
21
-99.9548
0
LINE
8
BLACK
6
CONTINUOUS
10
138.875
20
-99.9548
11
138.875
21
-99.9549
0
LINE
8
BLACK
6
CONTINUOUS
10
138.875
20
-99.9549
11
138.874
21
-99.9572
0
LINE
8
BLACK
6
CONTINUOUS
10
138.874
20
-99.9572
11
138.873
21
-99.9594
0
LINE
8
BLACK
6
CONTINUOUS
10
138.873
20
-99.9594
11
138.873
21
-99.9595
0
LINE
8
BLACK
6
CONTINUOUS
10
138.873
20
-99.9595
11
138.873
21
-99.9596
0
LINE
8
BLACK
6
CONTINUOUS
10
138.873
20
-99.9596
11
138.872
21
-99.9617
0
LINE
8
BLACK
6
CONTINUOUS
10
138.872
20
-99.9617
11
138.871
21
-99.9638
0
LINE
8
BLACK
6
CONTINUOUS
10
138.871
20
-99.9638
11
138.871
21
-99.9639
0
LINE
8
BLACK
6
CONTINUOUS
10
138.871
20
-99.9639
11
138.871
21
-99.964
0
LINE
8
BLACK
6
CONTINUOUS
10
138.871
20
-99.964
11
138.869
21
-99.9658
0
LINE
8
BLACK
6
CONTINUOUS
10
138.869
20
-99.9658
11
138.868
21
-99.9676
0
LINE
8
BLACK
6
CONTINUOUS
10
138.868
20
-99.9676
11
138.868
21
-99.9677
0
LINE
8
BLACK
6
CONTINUOUS
10
138.868
20
-99.9677
11
138.868
21
-99.9678
0
LINE
8
BLACK
6
CONTINUOUS
10
138.868
20
-99.9678
11
138.866
21
-99.9693
0
LINE
8
BLACK
6
CONTINUOUS
10
138.866
20
-99.9693
11
138.864
21
-99.9708
0
LINE
8
BLACK
6
CONTINUOUS
10
138.864
20
-99.9708
11
138.864
21
-99.9708
0
LINE
8
BLACK
6
CONTINUOUS
10
138.864
20
-99.9708
11
138.864
21
-99.9709
0
LINE
8
BLACK
6
CONTINUOUS
10
138.864
20
-99.9709
11
138.862
21
-99.972
0
LINE
8
BLACK
6
CONTINUOUS
10
138.862
20
-99.972
11
138.86
21
-99.9731
0
LINE
8
BLACK
6
CONTINUOUS
10
138.86
20
-99.9731
11
138.86
21
-99.9732
0
LINE
8
BLACK
6
CONTINUOUS
10
138.86
20
-99.9732
11
138.86
21
-99.9732
0
LINE
8
BLACK
6
CONTINUOUS
10
138.86
20
-99.9732
11
138.857
21
-99.9739
0
LINE
8
BLACK
6
CONTINUOUS
10
138.857
20
-99.9739
11
138.855
21
-99.9746
0
LINE
8
BLACK
6
CONTINUOUS
10
138.855
20
-99.9746
11
138.855
21
-99.9746
0
LINE
8
BLACK
6
CONTINUOUS
10
138.855
20
-99.9746
11
138.855
21
-99.9746
0
LINE
8
BLACK
6
CONTINUOUS
10
138.855
20
-99.9746
11
138.852
21
-99.9749
0
LINE
8
BLACK
6
CONTINUOUS
10
138.852
20
-99.9749
11
138.851
21
-99.975
0
LINE
8
BLACK
6
CONTINUOUS
10
138.851
20
-99.975
11
138.851
21
-99.975
0
LINE
8
BLACK
6
CONTINUOUS
10
138.851
20
-99.975
11
138.85
21
-99.9751
0
LINE
8
BLACK
6
CONTINUOUS
10
138.85
20
-99.9751
11
138.849
21
-99.975
0
LINE
8
BLACK
6
CONTINUOUS
10
138.849
20
-99.975
11
137.617
21
-99.9848
0
LINE
8
BLACK
6
CONTINUOUS
10
137.617
20
-99.9848
11
137.669
21
-100.688
0
LINE
8
BLACK
6
CONTINUOUS
10
137.669
20
-100.688
11
137.875
21
-101.55
0
LINE
8
BLACK
6
CONTINUOUS
10
137.875
20
-101.55
11
138.232
21
-102.361
0
LINE
8
BLACK
6
CONTINUOUS
10
138.232
20
-102.361
11
138.726
21
-103.097
0
LINE
8
BLACK
6
CONTINUOUS
10
138.726
20
-103.097
11
139.343
21
-103.734
0
LINE
8
BLACK
6
CONTINUOUS
10
139.343
20
-103.734
11
140.062
21
-104.251
0
LINE
8
BLACK
6
CONTINUOUS
10
140.062
20
-104.251
11
140.862
21
-104.632
0
LINE
8
BLACK
6
CONTINUOUS
10
140.862
20
-104.632
11
141.717
21
-104.866
0
LINE
8
BLACK
6
CONTINUOUS
10
141.717
20
-104.866
11
142.601
21
-104.945
0
LINE
8
BLACK
6
CONTINUOUS
10
142.601
20
-104.945
11
151.609
21
-104.955
0
LINE
8
BLACK
6
CONTINUOUS
10
151.609
20
-104.955
11
152.339
21
-104.901
0
LINE
8
BLACK
6
CONTINUOUS
10
152.339
20
-104.901
11
153.203
21
-104.694
0
LINE
8
BLACK
6
CONTINUOUS
10
153.203
20
-104.694
11
154.016
21
-104.337
0
LINE
8
BLACK
6
CONTINUOUS
10
154.016
20
-104.337
11
154.753
21
-103.842
0
LINE
8
BLACK
6
CONTINUOUS
10
154.753
20
-103.842
11
155.391
21
-103.224
0
LINE
8
BLACK
6
CONTINUOUS
10
155.391
20
-103.224
11
155.909
21
-102.503
0
LINE
8
BLACK
6
CONTINUOUS
10
155.909
20
-102.503
11
156.292
21
-101.701
0
LINE
8
BLACK
6
CONTINUOUS
10
156.292
20
-101.701
11
156.526
21
-100.845
0
LINE
8
BLACK
6
CONTINUOUS
10
156.526
20
-100.845
11
156.605
21
-99.9589
0
LINE
8
BLACK
6
CONTINUOUS
10
156.605
20
-99.9589
11
156.585
21
-88.4509
0
LINE
8
BLACK
6
CONTINUOUS
10
156.585
20
-88.4509
11
156.532
21
-87.7234
0
LINE
8
BLACK
6
CONTINUOUS
10
156.532
20
-87.7234
11
156.325
21
-86.8632
0
LINE
8
BLACK
6
CONTINUOUS
10
156.325
20
-86.8632
11
155.97
21
-86.0533
0
LINE
8
BLACK
6
CONTINUOUS
10
155.97
20
-86.0533
11
155.476
21
-85.3192
0
LINE
8
BLACK
6
CONTINUOUS
10
155.476
20
-85.3192
11
154.861
21
-84.684
0
LINE
8
BLACK
6
CONTINUOUS
10
154.861
20
-84.684
11
154.142
21
-84.1679
0
LINE
8
BLACK
6
CONTINUOUS
10
154.142
20
-84.1679
11
153.344
21
-83.7871
0
LINE
8
BLACK
6
CONTINUOUS
10
153.344
20
-83.7871
11
152.491
21
-83.5537
0
LINE
8
BLACK
6
CONTINUOUS
10
152.491
20
-83.5537
11
151.609
21
-83.475
0
LINE
8
BLACK
6
CONTINUOUS
10
151.609
20
-83.475
11
142.591
21
-83.465
0
LINE
8
BLACK
6
CONTINUOUS
10
142.591
20
-83.465
11
141.863
21
-83.5184
  0
ENDSEC
  0
EOF
