  0
SECTION
  2
HEADER
  9
$ANGBASE
  50
0.0
  9
$ANGDIR
  70
1
  9
$MEASUREMENT
  70
1
  0
ENDSEC
  0
SECTION
  2
TABLES
  0
TABLE
  2
LTYPE
  70
4
  0
LTYPE
  5
40F
  2
CONTINUOUS
  70
0
  3
Solid line
  72
65
  73
0
  40
0.0
  0
LTYPE
  5
410
  2
DASHDOT
 70
0
  3
Dash Dot ____ _ ____ _
 72
65
 73
4
 40
2.0
 49
1.25
 49
-0.25
 49
0.25
 49
-0.25
  0
LTYPE
  5
411
  2
DASHED
 70
0
  3
Dashed __ __ __ __ __
 72
65
 73
2
 40
0.75
 49
0.5
 49
-0.25
  0
LTYPE
  5
43B
  2
DOTTED
 70
0
  3
Dotted .  .  .  .
 72
65
 73
2
 40
0.2
 49
0.0
 49
-0.2
  0
ENDTAB
  0
TABLE
  2
STYLE
  70
4
  0
STYLE
  2
KICAD
  70
0
  40
0
  41
1
  42
1
  50
0
  71
0
  3
isocp.shx
  0
STYLE
  2
KICADB
  70
0
  40
0
  41
1
  42
1
  50
0
  71
0
  3
isocp.shx
  0
STYLE
  2
KICADI
  70
0
  40
0
  41
1
  42
1
  50
15
  71
0
  3
isocp.shx
  0
STYLE
  2
KICADBI
  70
0
  40
0
  41
1
  42
1
  50
15
  71
0
  3
isocp.shx
  0
ENDTAB
  0
TABLE
  2
LAYER
  70
1
  0
LAYER
  2
BLACK
  70
0
  62
7
  6
CONTINUOUS
  0
ENDTAB
  0
ENDSEC
  0
SECTION
  2
ENTITIES
0
LINE
8
BLACK
6
CONTINUOUS
10
147.538
20
-134.758
11
147.811
21
-134.871
0
LINE
8
BLACK
6
CONTINUOUS
10
147.811
20
-134.871
11
148.056
21
-135.035
0
LINE
8
BLACK
6
CONTINUOUS
10
148.056
20
-135.035
11
148.265
21
-135.244
0
LINE
8
BLACK
6
CONTINUOUS
10
148.265
20
-135.244
11
148.429
21
-135.489
0
LINE
8
BLACK
6
CONTINUOUS
10
148.429
20
-135.489
11
148.542
21
-135.762
0
LINE
8
BLACK
6
CONTINUOUS
10
148.542
20
-135.762
11
148.6
21
-136.052
0
LINE
8
BLACK
6
CONTINUOUS
10
148.6
20
-136.052
11
148.6
21
-136.348
0
LINE
8
BLACK
6
CONTINUOUS
10
148.6
20
-136.348
11
148.542
21
-136.638
0
LINE
8
BLACK
6
CONTINUOUS
10
148.542
20
-136.638
11
148.429
21
-136.911
0
LINE
8
BLACK
6
CONTINUOUS
10
148.429
20
-136.911
11
148.265
21
-137.156
0
LINE
8
BLACK
6
CONTINUOUS
10
148.265
20
-137.156
11
148.056
21
-137.365
0
LINE
8
BLACK
6
CONTINUOUS
10
148.056
20
-137.365
11
147.811
21
-137.529
0
LINE
8
BLACK
6
CONTINUOUS
10
147.811
20
-137.529
11
147.538
21
-137.642
0
LINE
8
BLACK
6
CONTINUOUS
10
147.538
20
-137.642
11
147.248
21
-137.7
0
LINE
8
BLACK
6
CONTINUOUS
10
147.248
20
-137.7
11
146.952
21
-137.7
0
LINE
8
BLACK
6
CONTINUOUS
10
146.952
20
-137.7
11
146.662
21
-137.642
0
LINE
8
BLACK
6
CONTINUOUS
10
146.662
20
-137.642
11
146.389
21
-137.529
0
LINE
8
BLACK
6
CONTINUOUS
10
146.389
20
-137.529
11
146.144
21
-137.365
0
LINE
8
BLACK
6
CONTINUOUS
10
146.144
20
-137.365
11
145.935
21
-137.156
0
LINE
8
BLACK
6
CONTINUOUS
10
145.935
20
-137.156
11
145.771
21
-136.911
0
LINE
8
BLACK
6
CONTINUOUS
10
145.771
20
-136.911
11
145.658
21
-136.638
0
LINE
8
BLACK
6
CONTINUOUS
10
145.658
20
-136.638
11
145.6
21
-136.348
0
LINE
8
BLACK
6
CONTINUOUS
10
145.6
20
-136.348
11
145.6
21
-136.052
0
LINE
8
BLACK
6
CONTINUOUS
10
145.6
20
-136.052
11
145.658
21
-135.762
0
LINE
8
BLACK
6
CONTINUOUS
10
145.658
20
-135.762
11
145.771
21
-135.489
0
LINE
8
BLACK
6
CONTINUOUS
10
145.771
20
-135.489
11
145.935
21
-135.244
0
LINE
8
BLACK
6
CONTINUOUS
10
145.935
20
-135.244
11
146.144
21
-135.035
0
LINE
8
BLACK
6
CONTINUOUS
10
146.144
20
-135.035
11
146.389
21
-134.871
0
LINE
8
BLACK
6
CONTINUOUS
10
146.389
20
-134.871
11
146.662
21
-134.758
0
LINE
8
BLACK
6
CONTINUOUS
10
146.662
20
-134.758
11
146.952
21
-134.7
0
LINE
8
BLACK
6
CONTINUOUS
10
146.952
20
-134.7
11
147.248
21
-134.7
0
LINE
8
BLACK
6
CONTINUOUS
10
147.248
20
-134.7
11
147.538
21
-134.758
0
LINE
8
BLACK
6
CONTINUOUS
10
147.538
20
-127.758
11
147.811
21
-127.871
0
LINE
8
BLACK
6
CONTINUOUS
10
147.811
20
-127.871
11
148.056
21
-128.035
0
LINE
8
BLACK
6
CONTINUOUS
10
148.056
20
-128.035
11
148.265
21
-128.244
0
LINE
8
BLACK
6
CONTINUOUS
10
148.265
20
-128.244
11
148.429
21
-128.489
0
LINE
8
BLACK
6
CONTINUOUS
10
148.429
20
-128.489
11
148.542
21
-128.762
0
LINE
8
BLACK
6
CONTINUOUS
10
148.542
20
-128.762
11
148.6
21
-129.052
0
LINE
8
BLACK
6
CONTINUOUS
10
148.6
20
-129.052
11
148.6
21
-129.348
0
LINE
8
BLACK
6
CONTINUOUS
10
148.6
20
-129.348
11
148.542
21
-129.638
0
LINE
8
BLACK
6
CONTINUOUS
10
148.542
20
-129.638
11
148.429
21
-129.911
0
LINE
8
BLACK
6
CONTINUOUS
10
148.429
20
-129.911
11
148.265
21
-130.156
0
LINE
8
BLACK
6
CONTINUOUS
10
148.265
20
-130.156
11
148.056
21
-130.365
0
LINE
8
BLACK
6
CONTINUOUS
10
148.056
20
-130.365
11
147.811
21
-130.529
0
LINE
8
BLACK
6
CONTINUOUS
10
147.811
20
-130.529
11
147.538
21
-130.642
0
LINE
8
BLACK
6
CONTINUOUS
10
147.538
20
-130.642
11
147.248
21
-130.7
0
LINE
8
BLACK
6
CONTINUOUS
10
147.248
20
-130.7
11
146.952
21
-130.7
0
LINE
8
BLACK
6
CONTINUOUS
10
146.952
20
-130.7
11
146.662
21
-130.642
0
LINE
8
BLACK
6
CONTINUOUS
10
146.662
20
-130.642
11
146.389
21
-130.529
0
LINE
8
BLACK
6
CONTINUOUS
10
146.389
20
-130.529
11
146.144
21
-130.365
0
LINE
8
BLACK
6
CONTINUOUS
10
146.144
20
-130.365
11
145.935
21
-130.156
0
LINE
8
BLACK
6
CONTINUOUS
10
145.935
20
-130.156
11
145.771
21
-129.911
0
LINE
8
BLACK
6
CONTINUOUS
10
145.771
20
-129.911
11
145.658
21
-129.638
0
LINE
8
BLACK
6
CONTINUOUS
10
145.658
20
-129.638
11
145.6
21
-129.348
0
LINE
8
BLACK
6
CONTINUOUS
10
145.6
20
-129.348
11
145.6
21
-129.052
0
LINE
8
BLACK
6
CONTINUOUS
10
145.6
20
-129.052
11
145.658
21
-128.762
0
LINE
8
BLACK
6
CONTINUOUS
10
145.658
20
-128.762
11
145.771
21
-128.489
0
LINE
8
BLACK
6
CONTINUOUS
10
145.771
20
-128.489
11
145.935
21
-128.244
0
LINE
8
BLACK
6
CONTINUOUS
10
145.935
20
-128.244
11
146.144
21
-128.035
0
LINE
8
BLACK
6
CONTINUOUS
10
146.144
20
-128.035
11
146.389
21
-127.871
0
LINE
8
BLACK
6
CONTINUOUS
10
146.389
20
-127.871
11
146.662
21
-127.758
0
LINE
8
BLACK
6
CONTINUOUS
10
146.662
20
-127.758
11
146.952
21
-127.7
0
LINE
8
BLACK
6
CONTINUOUS
10
146.952
20
-127.7
11
147.248
21
-127.7
0
LINE
8
BLACK
6
CONTINUOUS
10
147.248
20
-127.7
11
147.538
21
-127.758
0
LINE
8
BLACK
6
CONTINUOUS
10
144.921
20
-123.142
11
145.121
21
-123.225
0
LINE
8
BLACK
6
CONTINUOUS
10
145.121
20
-123.225
11
145.301
21
-123.346
0
LINE
8
BLACK
6
CONTINUOUS
10
145.301
20
-123.346
11
145.454
21
-123.499
0
LINE
8
BLACK
6
CONTINUOUS
10
145.454
20
-123.499
11
145.575
21
-123.679
0
LINE
8
BLACK
6
CONTINUOUS
10
145.575
20
-123.679
11
145.658
21
-123.879
0
LINE
8
BLACK
6
CONTINUOUS
10
145.658
20
-123.879
11
145.7
21
-124.092
0
LINE
8
BLACK
6
CONTINUOUS
10
145.7
20
-124.092
11
145.7
21
-124.308
0
LINE
8
BLACK
6
CONTINUOUS
10
145.7
20
-124.308
11
145.658
21
-124.521
0
LINE
8
BLACK
6
CONTINUOUS
10
145.658
20
-124.521
11
145.575
21
-124.721
0
LINE
8
BLACK
6
CONTINUOUS
10
145.575
20
-124.721
11
145.454
21
-124.901
0
LINE
8
BLACK
6
CONTINUOUS
10
145.454
20
-124.901
11
145.301
21
-125.054
0
LINE
8
BLACK
6
CONTINUOUS
10
145.301
20
-125.054
11
145.121
21
-125.175
0
LINE
8
BLACK
6
CONTINUOUS
10
145.121
20
-125.175
11
144.921
21
-125.258
0
LINE
8
BLACK
6
CONTINUOUS
10
144.921
20
-125.258
11
144.708
21
-125.3
0
LINE
8
BLACK
6
CONTINUOUS
10
144.708
20
-125.3
11
144.492
21
-125.3
0
LINE
8
BLACK
6
CONTINUOUS
10
144.492
20
-125.3
11
144.279
21
-125.258
0
LINE
8
BLACK
6
CONTINUOUS
10
144.279
20
-125.258
11
144.079
21
-125.175
0
LINE
8
BLACK
6
CONTINUOUS
10
144.079
20
-125.175
11
143.899
21
-125.054
0
LINE
8
BLACK
6
CONTINUOUS
10
143.899
20
-125.054
11
143.746
21
-124.901
0
LINE
8
BLACK
6
CONTINUOUS
10
143.746
20
-124.901
11
143.625
21
-124.721
0
LINE
8
BLACK
6
CONTINUOUS
10
143.625
20
-124.721
11
143.542
21
-124.521
0
LINE
8
BLACK
6
CONTINUOUS
10
143.542
20
-124.521
11
143.5
21
-124.308
0
LINE
8
BLACK
6
CONTINUOUS
10
143.5
20
-124.308
11
143.5
21
-124.092
0
LINE
8
BLACK
6
CONTINUOUS
10
143.5
20
-124.092
11
143.542
21
-123.879
0
LINE
8
BLACK
6
CONTINUOUS
10
143.542
20
-123.879
11
143.625
21
-123.679
0
LINE
8
BLACK
6
CONTINUOUS
10
143.625
20
-123.679
11
143.746
21
-123.499
0
LINE
8
BLACK
6
CONTINUOUS
10
143.746
20
-123.499
11
143.899
21
-123.346
0
LINE
8
BLACK
6
CONTINUOUS
10
143.899
20
-123.346
11
144.079
21
-123.225
0
LINE
8
BLACK
6
CONTINUOUS
10
144.079
20
-123.225
11
144.279
21
-123.142
0
LINE
8
BLACK
6
CONTINUOUS
10
144.279
20
-123.142
11
144.492
21
-123.1
0
LINE
8
BLACK
6
CONTINUOUS
10
144.492
20
-123.1
11
144.708
21
-123.1
0
LINE
8
BLACK
6
CONTINUOUS
10
144.708
20
-123.1
11
144.921
21
-123.142
0
LINE
8
BLACK
6
CONTINUOUS
10
147.421
20
-123.142
11
147.621
21
-123.225
0
LINE
8
BLACK
6
CONTINUOUS
10
147.621
20
-123.225
11
147.801
21
-123.346
0
LINE
8
BLACK
6
CONTINUOUS
10
147.801
20
-123.346
11
147.954
21
-123.499
0
LINE
8
BLACK
6
CONTINUOUS
10
147.954
20
-123.499
11
148.075
21
-123.679
0
LINE
8
BLACK
6
CONTINUOUS
10
148.075
20
-123.679
11
148.158
21
-123.879
0
LINE
8
BLACK
6
CONTINUOUS
10
148.158
20
-123.879
11
148.2
21
-124.092
0
LINE
8
BLACK
6
CONTINUOUS
10
148.2
20
-124.092
11
148.2
21
-124.308
0
LINE
8
BLACK
6
CONTINUOUS
10
148.2
20
-124.308
11
148.158
21
-124.521
0
LINE
8
BLACK
6
CONTINUOUS
10
148.158
20
-124.521
11
148.075
21
-124.721
0
LINE
8
BLACK
6
CONTINUOUS
10
148.075
20
-124.721
11
147.954
21
-124.901
0
LINE
8
BLACK
6
CONTINUOUS
10
147.954
20
-124.901
11
147.801
21
-125.054
0
LINE
8
BLACK
6
CONTINUOUS
10
147.801
20
-125.054
11
147.621
21
-125.175
0
LINE
8
BLACK
6
CONTINUOUS
10
147.621
20
-125.175
11
147.421
21
-125.258
0
LINE
8
BLACK
6
CONTINUOUS
10
147.421
20
-125.258
11
147.208
21
-125.3
0
LINE
8
BLACK
6
CONTINUOUS
10
147.208
20
-125.3
11
146.992
21
-125.3
0
LINE
8
BLACK
6
CONTINUOUS
10
146.992
20
-125.3
11
146.779
21
-125.258
0
LINE
8
BLACK
6
CONTINUOUS
10
146.779
20
-125.258
11
146.579
21
-125.175
0
LINE
8
BLACK
6
CONTINUOUS
10
146.579
20
-125.175
11
146.399
21
-125.054
0
LINE
8
BLACK
6
CONTINUOUS
10
146.399
20
-125.054
11
146.246
21
-124.901
0
LINE
8
BLACK
6
CONTINUOUS
10
146.246
20
-124.901
11
146.125
21
-124.721
0
LINE
8
BLACK
6
CONTINUOUS
10
146.125
20
-124.721
11
146.042
21
-124.521
0
LINE
8
BLACK
6
CONTINUOUS
10
146.042
20
-124.521
11
146
21
-124.308
0
LINE
8
BLACK
6
CONTINUOUS
10
146
20
-124.308
11
146
21
-124.092
0
LINE
8
BLACK
6
CONTINUOUS
10
146
20
-124.092
11
146.042
21
-123.879
0
LINE
8
BLACK
6
CONTINUOUS
10
146.042
20
-123.879
11
146.125
21
-123.679
0
LINE
8
BLACK
6
CONTINUOUS
10
146.125
20
-123.679
11
146.246
21
-123.499
0
LINE
8
BLACK
6
CONTINUOUS
10
146.246
20
-123.499
11
146.399
21
-123.346
0
LINE
8
BLACK
6
CONTINUOUS
10
146.399
20
-123.346
11
146.579
21
-123.225
0
LINE
8
BLACK
6
CONTINUOUS
10
146.579
20
-123.225
11
146.779
21
-123.142
0
LINE
8
BLACK
6
CONTINUOUS
10
146.779
20
-123.142
11
146.992
21
-123.1
0
LINE
8
BLACK
6
CONTINUOUS
10
146.992
20
-123.1
11
147.208
21
-123.1
0
LINE
8
BLACK
6
CONTINUOUS
10
147.208
20
-123.1
11
147.421
21
-123.142
0
LINE
8
BLACK
6
CONTINUOUS
10
149.921
20
-123.142
11
150.121
21
-123.225
0
LINE
8
BLACK
6
CONTINUOUS
10
150.121
20
-123.225
11
150.301
21
-123.346
0
LINE
8
BLACK
6
CONTINUOUS
10
150.301
20
-123.346
11
150.454
21
-123.499
0
LINE
8
BLACK
6
CONTINUOUS
10
150.454
20
-123.499
11
150.575
21
-123.679
0
LINE
8
BLACK
6
CONTINUOUS
10
150.575
20
-123.679
11
150.658
21
-123.879
0
LINE
8
BLACK
6
CONTINUOUS
10
150.658
20
-123.879
11
150.7
21
-124.092
0
LINE
8
BLACK
6
CONTINUOUS
10
150.7
20
-124.092
11
150.7
21
-124.308
0
LINE
8
BLACK
6
CONTINUOUS
10
150.7
20
-124.308
11
150.658
21
-124.521
0
LINE
8
BLACK
6
CONTINUOUS
10
150.658
20
-124.521
11
150.575
21
-124.721
0
LINE
8
BLACK
6
CONTINUOUS
10
150.575
20
-124.721
11
150.454
21
-124.901
0
LINE
8
BLACK
6
CONTINUOUS
10
150.454
20
-124.901
11
150.301
21
-125.054
0
LINE
8
BLACK
6
CONTINUOUS
10
150.301
20
-125.054
11
150.121
21
-125.175
0
LINE
8
BLACK
6
CONTINUOUS
10
150.121
20
-125.175
11
149.921
21
-125.258
0
LINE
8
BLACK
6
CONTINUOUS
10
149.921
20
-125.258
11
149.708
21
-125.3
0
LINE
8
BLACK
6
CONTINUOUS
10
149.708
20
-125.3
11
149.492
21
-125.3
0
LINE
8
BLACK
6
CONTINUOUS
10
149.492
20
-125.3
11
149.279
21
-125.258
0
LINE
8
BLACK
6
CONTINUOUS
10
149.279
20
-125.258
11
149.079
21
-125.175
0
LINE
8
BLACK
6
CONTINUOUS
10
149.079
20
-125.175
11
148.899
21
-125.054
0
LINE
8
BLACK
6
CONTINUOUS
10
148.899
20
-125.054
11
148.746
21
-124.901
0
LINE
8
BLACK
6
CONTINUOUS
10
148.746
20
-124.901
11
148.625
21
-124.721
0
LINE
8
BLACK
6
CONTINUOUS
10
148.625
20
-124.721
11
148.542
21
-124.521
0
LINE
8
BLACK
6
CONTINUOUS
10
148.542
20
-124.521
11
148.5
21
-124.308
0
LINE
8
BLACK
6
CONTINUOUS
10
148.5
20
-124.308
11
148.5
21
-124.092
0
LINE
8
BLACK
6
CONTINUOUS
10
148.5
20
-124.092
11
148.542
21
-123.879
0
LINE
8
BLACK
6
CONTINUOUS
10
148.542
20
-123.879
11
148.625
21
-123.679
0
LINE
8
BLACK
6
CONTINUOUS
10
148.625
20
-123.679
11
148.746
21
-123.499
0
LINE
8
BLACK
6
CONTINUOUS
10
148.746
20
-123.499
11
148.899
21
-123.346
0
LINE
8
BLACK
6
CONTINUOUS
10
148.899
20
-123.346
11
149.079
21
-123.225
0
LINE
8
BLACK
6
CONTINUOUS
10
149.079
20
-123.225
11
149.279
21
-123.142
0
LINE
8
BLACK
6
CONTINUOUS
10
149.279
20
-123.142
11
149.492
21
-123.1
0
LINE
8
BLACK
6
CONTINUOUS
10
149.492
20
-123.1
11
149.708
21
-123.1
0
LINE
8
BLACK
6
CONTINUOUS
10
149.708
20
-123.1
11
149.921
21
-123.142
0
LINE
8
BLACK
6
CONTINUOUS
10
127.933
20
-103.198
11
128.516
21
-103.439
0
LINE
8
BLACK
6
CONTINUOUS
10
128.516
20
-103.439
11
129.04
21
-103.789
0
LINE
8
BLACK
6
CONTINUOUS
10
129.04
20
-103.789
11
129.486
21
-104.235
0
LINE
8
BLACK
6
CONTINUOUS
10
129.486
20
-104.235
11
129.836
21
-104.759
0
LINE
8
BLACK
6
CONTINUOUS
10
129.836
20
-104.759
11
130.077
21
-105.342
0
LINE
8
BLACK
6
CONTINUOUS
10
130.077
20
-105.342
11
130.2
21
-105.96
0
LINE
8
BLACK
6
CONTINUOUS
10
130.2
20
-105.96
11
130.2
21
-106.59
0
LINE
8
BLACK
6
CONTINUOUS
10
130.2
20
-106.59
11
130.077
21
-107.208
0
LINE
8
BLACK
6
CONTINUOUS
10
130.077
20
-107.208
11
129.836
21
-107.791
0
LINE
8
BLACK
6
CONTINUOUS
10
129.836
20
-107.791
11
129.486
21
-108.315
0
LINE
8
BLACK
6
CONTINUOUS
10
129.486
20
-108.315
11
129.04
21
-108.761
0
LINE
8
BLACK
6
CONTINUOUS
10
129.04
20
-108.761
11
128.516
21
-109.111
0
LINE
8
BLACK
6
CONTINUOUS
10
128.516
20
-109.111
11
127.933
21
-109.352
0
LINE
8
BLACK
6
CONTINUOUS
10
127.933
20
-109.352
11
127.315
21
-109.475
0
LINE
8
BLACK
6
CONTINUOUS
10
127.315
20
-109.475
11
126.685
21
-109.475
0
LINE
8
BLACK
6
CONTINUOUS
10
126.685
20
-109.475
11
126.067
21
-109.352
0
LINE
8
BLACK
6
CONTINUOUS
10
126.067
20
-109.352
11
125.484
21
-109.111
0
LINE
8
BLACK
6
CONTINUOUS
10
125.484
20
-109.111
11
124.96
21
-108.761
0
LINE
8
BLACK
6
CONTINUOUS
10
124.96
20
-108.761
11
124.514
21
-108.315
0
LINE
8
BLACK
6
CONTINUOUS
10
124.514
20
-108.315
11
124.164
21
-107.791
0
LINE
8
BLACK
6
CONTINUOUS
10
124.164
20
-107.791
11
123.923
21
-107.208
0
LINE
8
BLACK
6
CONTINUOUS
10
123.923
20
-107.208
11
123.8
21
-106.59
0
LINE
8
BLACK
6
CONTINUOUS
10
123.8
20
-106.59
11
123.8
21
-105.96
0
LINE
8
BLACK
6
CONTINUOUS
10
123.8
20
-105.96
11
123.923
21
-105.342
0
LINE
8
BLACK
6
CONTINUOUS
10
123.923
20
-105.342
11
124.164
21
-104.759
0
LINE
8
BLACK
6
CONTINUOUS
10
124.164
20
-104.759
11
124.514
21
-104.235
0
LINE
8
BLACK
6
CONTINUOUS
10
124.514
20
-104.235
11
124.96
21
-103.789
0
LINE
8
BLACK
6
CONTINUOUS
10
124.96
20
-103.789
11
125.484
21
-103.439
0
LINE
8
BLACK
6
CONTINUOUS
10
125.484
20
-103.439
11
126.067
21
-103.198
0
LINE
8
BLACK
6
CONTINUOUS
10
126.067
20
-103.198
11
126.685
21
-103.075
0
LINE
8
BLACK
6
CONTINUOUS
10
126.685
20
-103.075
11
127.315
21
-103.075
0
LINE
8
BLACK
6
CONTINUOUS
10
127.315
20
-103.075
11
127.933
21
-103.198
0
LINE
8
BLACK
6
CONTINUOUS
10
117.388
20
-106.178
11
117.661
21
-106.291
0
LINE
8
BLACK
6
CONTINUOUS
10
117.661
20
-106.291
11
117.906
21
-106.455
0
LINE
8
BLACK
6
CONTINUOUS
10
117.906
20
-106.455
11
118.115
21
-106.664
0
LINE
8
BLACK
6
CONTINUOUS
10
118.115
20
-106.664
11
118.279
21
-106.909
0
LINE
8
BLACK
6
CONTINUOUS
10
118.279
20
-106.909
11
118.392
21
-107.182
0
LINE
8
BLACK
6
CONTINUOUS
10
118.392
20
-107.182
11
118.45
21
-107.472
0
LINE
8
BLACK
6
CONTINUOUS
10
118.45
20
-107.472
11
118.45
21
-107.768
0
LINE
8
BLACK
6
CONTINUOUS
10
118.45
20
-107.768
11
118.392
21
-108.058
0
LINE
8
BLACK
6
CONTINUOUS
10
118.392
20
-108.058
11
118.279
21
-108.331
0
LINE
8
BLACK
6
CONTINUOUS
10
118.279
20
-108.331
11
118.115
21
-108.576
0
LINE
8
BLACK
6
CONTINUOUS
10
118.115
20
-108.576
11
117.906
21
-108.785
0
LINE
8
BLACK
6
CONTINUOUS
10
117.906
20
-108.785
11
117.661
21
-108.949
0
LINE
8
BLACK
6
CONTINUOUS
10
117.661
20
-108.949
11
117.388
21
-109.062
0
LINE
8
BLACK
6
CONTINUOUS
10
117.388
20
-109.062
11
117.098
21
-109.12
0
LINE
8
BLACK
6
CONTINUOUS
10
117.098
20
-109.12
11
116.802
21
-109.12
0
LINE
8
BLACK
6
CONTINUOUS
10
116.802
20
-109.12
11
116.512
21
-109.062
0
LINE
8
BLACK
6
CONTINUOUS
10
116.512
20
-109.062
11
116.239
21
-108.949
0
LINE
8
BLACK
6
CONTINUOUS
10
116.239
20
-108.949
11
115.994
21
-108.785
0
LINE
8
BLACK
6
CONTINUOUS
10
115.994
20
-108.785
11
115.785
21
-108.576
0
LINE
8
BLACK
6
CONTINUOUS
10
115.785
20
-108.576
11
115.621
21
-108.331
0
LINE
8
BLACK
6
CONTINUOUS
10
115.621
20
-108.331
11
115.508
21
-108.058
0
LINE
8
BLACK
6
CONTINUOUS
10
115.508
20
-108.058
11
115.45
21
-107.768
0
LINE
8
BLACK
6
CONTINUOUS
10
115.45
20
-107.768
11
115.45
21
-107.472
0
LINE
8
BLACK
6
CONTINUOUS
10
115.45
20
-107.472
11
115.508
21
-107.182
0
LINE
8
BLACK
6
CONTINUOUS
10
115.508
20
-107.182
11
115.621
21
-106.909
0
LINE
8
BLACK
6
CONTINUOUS
10
115.621
20
-106.909
11
115.785
21
-106.664
0
LINE
8
BLACK
6
CONTINUOUS
10
115.785
20
-106.664
11
115.994
21
-106.455
0
LINE
8
BLACK
6
CONTINUOUS
10
115.994
20
-106.455
11
116.239
21
-106.291
0
LINE
8
BLACK
6
CONTINUOUS
10
116.239
20
-106.291
11
116.512
21
-106.178
0
LINE
8
BLACK
6
CONTINUOUS
10
116.512
20
-106.178
11
116.802
21
-106.12
0
LINE
8
BLACK
6
CONTINUOUS
10
116.802
20
-106.12
11
117.098
21
-106.12
0
LINE
8
BLACK
6
CONTINUOUS
10
117.098
20
-106.12
11
117.388
21
-106.178
0
LINE
8
BLACK
6
CONTINUOUS
10
177.688
20
-106.178
11
177.961
21
-106.291
0
LINE
8
BLACK
6
CONTINUOUS
10
177.961
20
-106.291
11
178.206
21
-106.455
0
LINE
8
BLACK
6
CONTINUOUS
10
178.206
20
-106.455
11
178.415
21
-106.664
0
LINE
8
BLACK
6
CONTINUOUS
10
178.415
20
-106.664
11
178.579
21
-106.909
0
LINE
8
BLACK
6
CONTINUOUS
10
178.579
20
-106.909
11
178.692
21
-107.182
0
LINE
8
BLACK
6
CONTINUOUS
10
178.692
20
-107.182
11
178.75
21
-107.472
0
LINE
8
BLACK
6
CONTINUOUS
10
178.75
20
-107.472
11
178.75
21
-107.768
0
LINE
8
BLACK
6
CONTINUOUS
10
178.75
20
-107.768
11
178.692
21
-108.058
0
LINE
8
BLACK
6
CONTINUOUS
10
178.692
20
-108.058
11
178.579
21
-108.331
0
LINE
8
BLACK
6
CONTINUOUS
10
178.579
20
-108.331
11
178.415
21
-108.576
0
LINE
8
BLACK
6
CONTINUOUS
10
178.415
20
-108.576
11
178.206
21
-108.785
0
LINE
8
BLACK
6
CONTINUOUS
10
178.206
20
-108.785
11
177.961
21
-108.949
0
LINE
8
BLACK
6
CONTINUOUS
10
177.961
20
-108.949
11
177.688
21
-109.062
0
LINE
8
BLACK
6
CONTINUOUS
10
177.688
20
-109.062
11
177.398
21
-109.12
0
LINE
8
BLACK
6
CONTINUOUS
10
177.398
20
-109.12
11
177.102
21
-109.12
0
LINE
8
BLACK
6
CONTINUOUS
10
177.102
20
-109.12
11
176.812
21
-109.062
0
LINE
8
BLACK
6
CONTINUOUS
10
176.812
20
-109.062
11
176.539
21
-108.949
0
LINE
8
BLACK
6
CONTINUOUS
10
176.539
20
-108.949
11
176.294
21
-108.785
0
LINE
8
BLACK
6
CONTINUOUS
10
176.294
20
-108.785
11
176.085
21
-108.576
0
LINE
8
BLACK
6
CONTINUOUS
10
176.085
20
-108.576
11
175.921
21
-108.331
0
LINE
8
BLACK
6
CONTINUOUS
10
175.921
20
-108.331
11
175.808
21
-108.058
0
LINE
8
BLACK
6
CONTINUOUS
10
175.808
20
-108.058
11
175.75
21
-107.768
0
LINE
8
BLACK
6
CONTINUOUS
10
175.75
20
-107.768
11
175.75
21
-107.472
0
LINE
8
BLACK
6
CONTINUOUS
10
175.75
20
-107.472
11
175.808
21
-107.182
0
LINE
8
BLACK
6
CONTINUOUS
10
175.808
20
-107.182
11
175.921
21
-106.909
0
LINE
8
BLACK
6
CONTINUOUS
10
175.921
20
-106.909
11
176.085
21
-106.664
0
LINE
8
BLACK
6
CONTINUOUS
10
176.085
20
-106.664
11
176.294
21
-106.455
0
LINE
8
BLACK
6
CONTINUOUS
10
176.294
20
-106.455
11
176.539
21
-106.291
0
LINE
8
BLACK
6
CONTINUOUS
10
176.539
20
-106.291
11
176.812
21
-106.178
0
LINE
8
BLACK
6
CONTINUOUS
10
176.812
20
-106.178
11
177.102
21
-106.12
0
LINE
8
BLACK
6
CONTINUOUS
10
177.102
20
-106.12
11
177.398
21
-106.12
0
LINE
8
BLACK
6
CONTINUOUS
10
177.398
20
-106.12
11
177.688
21
-106.178
0
LINE
8
BLACK
6
CONTINUOUS
10
168.533
20
-102.523
11
169.116
21
-102.764
0
LINE
8
BLACK
6
CONTINUOUS
10
169.116
20
-102.764
11
169.64
21
-103.114
0
LINE
8
BLACK
6
CONTINUOUS
10
169.64
20
-103.114
11
170.086
21
-103.56
0
LINE
8
BLACK
6
CONTINUOUS
10
170.086
20
-103.56
11
170.436
21
-104.084
0
LINE
8
BLACK
6
CONTINUOUS
10
170.436
20
-104.084
11
170.677
21
-104.667
0
LINE
8
BLACK
6
CONTINUOUS
10
170.677
20
-104.667
11
170.8
21
-105.285
0
LINE
8
BLACK
6
CONTINUOUS
10
170.8
20
-105.285
11
170.8
21
-105.915
0
LINE
8
BLACK
6
CONTINUOUS
10
170.8
20
-105.915
11
170.677
21
-106.533
0
LINE
8
BLACK
6
CONTINUOUS
10
170.677
20
-106.533
11
170.436
21
-107.116
0
LINE
8
BLACK
6
CONTINUOUS
10
170.436
20
-107.116
11
170.086
21
-107.64
0
LINE
8
BLACK
6
CONTINUOUS
10
170.086
20
-107.64
11
169.64
21
-108.086
0
LINE
8
BLACK
6
CONTINUOUS
10
169.64
20
-108.086
11
169.116
21
-108.436
0
LINE
8
BLACK
6
CONTINUOUS
10
169.116
20
-108.436
11
168.533
21
-108.677
0
LINE
8
BLACK
6
CONTINUOUS
10
168.533
20
-108.677
11
167.915
21
-108.8
0
LINE
8
BLACK
6
CONTINUOUS
10
167.915
20
-108.8
11
167.285
21
-108.8
0
LINE
8
BLACK
6
CONTINUOUS
10
167.285
20
-108.8
11
166.667
21
-108.677
0
LINE
8
BLACK
6
CONTINUOUS
10
166.667
20
-108.677
11
166.084
21
-108.436
0
LINE
8
BLACK
6
CONTINUOUS
10
166.084
20
-108.436
11
165.56
21
-108.086
0
LINE
8
BLACK
6
CONTINUOUS
10
165.56
20
-108.086
11
165.114
21
-107.64
0
LINE
8
BLACK
6
CONTINUOUS
10
165.114
20
-107.64
11
164.764
21
-107.116
0
LINE
8
BLACK
6
CONTINUOUS
10
164.764
20
-107.116
11
164.523
21
-106.533
0
LINE
8
BLACK
6
CONTINUOUS
10
164.523
20
-106.533
11
164.4
21
-105.915
0
LINE
8
BLACK
6
CONTINUOUS
10
164.4
20
-105.915
11
164.4
21
-105.285
0
LINE
8
BLACK
6
CONTINUOUS
10
164.4
20
-105.285
11
164.523
21
-104.667
0
LINE
8
BLACK
6
CONTINUOUS
10
164.523
20
-104.667
11
164.764
21
-104.084
0
LINE
8
BLACK
6
CONTINUOUS
10
164.764
20
-104.084
11
165.114
21
-103.56
0
LINE
8
BLACK
6
CONTINUOUS
10
165.114
20
-103.56
11
165.56
21
-103.114
0
LINE
8
BLACK
6
CONTINUOUS
10
165.56
20
-103.114
11
166.084
21
-102.764
0
LINE
8
BLACK
6
CONTINUOUS
10
166.084
20
-102.764
11
166.667
21
-102.523
0
LINE
8
BLACK
6
CONTINUOUS
10
166.667
20
-102.523
11
167.285
21
-102.4
0
LINE
8
BLACK
6
CONTINUOUS
10
167.285
20
-102.4
11
167.915
21
-102.4
0
LINE
8
BLACK
6
CONTINUOUS
10
167.915
20
-102.4
11
168.533
21
-102.523
0
LINE
8
BLACK
6
CONTINUOUS
10
115.268
20
-99.6176
11
115.541
21
-99.7307
0
LINE
8
BLACK
6
CONTINUOUS
10
115.541
20
-99.7307
11
115.786
21
-99.8949
0
LINE
8
BLACK
6
CONTINUOUS
10
115.786
20
-99.8949
11
115.995
21
-100.104
0
LINE
8
BLACK
6
CONTINUOUS
10
115.995
20
-100.104
11
116.159
21
-100.349
0
LINE
8
BLACK
6
CONTINUOUS
10
116.159
20
-100.349
11
116.272
21
-100.622
0
LINE
8
BLACK
6
CONTINUOUS
10
116.272
20
-100.622
11
116.33
21
-100.912
0
LINE
8
BLACK
6
CONTINUOUS
10
116.33
20
-100.912
11
116.33
21
-101.208
0
LINE
8
BLACK
6
CONTINUOUS
10
116.33
20
-101.208
11
116.272
21
-101.498
0
LINE
8
BLACK
6
CONTINUOUS
10
116.272
20
-101.498
11
116.159
21
-101.771
0
LINE
8
BLACK
6
CONTINUOUS
10
116.159
20
-101.771
11
115.995
21
-102.016
0
LINE
8
BLACK
6
CONTINUOUS
10
115.995
20
-102.016
11
115.786
21
-102.225
0
LINE
8
BLACK
6
CONTINUOUS
10
115.786
20
-102.225
11
115.541
21
-102.389
0
LINE
8
BLACK
6
CONTINUOUS
10
115.541
20
-102.389
11
115.268
21
-102.502
0
LINE
8
BLACK
6
CONTINUOUS
10
115.268
20
-102.502
11
114.978
21
-102.56
0
LINE
8
BLACK
6
CONTINUOUS
10
114.978
20
-102.56
11
114.682
21
-102.56
0
LINE
8
BLACK
6
CONTINUOUS
10
114.682
20
-102.56
11
114.392
21
-102.502
0
LINE
8
BLACK
6
CONTINUOUS
10
114.392
20
-102.502
11
114.119
21
-102.389
0
LINE
8
BLACK
6
CONTINUOUS
10
114.119
20
-102.389
11
113.874
21
-102.225
0
LINE
8
BLACK
6
CONTINUOUS
10
113.874
20
-102.225
11
113.665
21
-102.016
0
LINE
8
BLACK
6
CONTINUOUS
10
113.665
20
-102.016
11
113.501
21
-101.771
0
LINE
8
BLACK
6
CONTINUOUS
10
113.501
20
-101.771
11
113.388
21
-101.498
0
LINE
8
BLACK
6
CONTINUOUS
10
113.388
20
-101.498
11
113.33
21
-101.208
0
LINE
8
BLACK
6
CONTINUOUS
10
113.33
20
-101.208
11
113.33
21
-100.912
0
LINE
8
BLACK
6
CONTINUOUS
10
113.33
20
-100.912
11
113.388
21
-100.622
0
LINE
8
BLACK
6
CONTINUOUS
10
113.388
20
-100.622
11
113.501
21
-100.349
0
LINE
8
BLACK
6
CONTINUOUS
10
113.501
20
-100.349
11
113.665
21
-100.104
0
LINE
8
BLACK
6
CONTINUOUS
10
113.665
20
-100.104
11
113.874
21
-99.8949
0
LINE
8
BLACK
6
CONTINUOUS
10
113.874
20
-99.8949
11
114.119
21
-99.7307
0
LINE
8
BLACK
6
CONTINUOUS
10
114.119
20
-99.7307
11
114.392
21
-99.6176
0
LINE
8
BLACK
6
CONTINUOUS
10
114.392
20
-99.6176
11
114.682
21
-99.56
0
LINE
8
BLACK
6
CONTINUOUS
10
114.682
20
-99.56
11
114.978
21
-99.56
0
LINE
8
BLACK
6
CONTINUOUS
10
114.978
20
-99.56
11
115.268
21
-99.6176
0
LINE
8
BLACK
6
CONTINUOUS
10
179.818
20
-99.6176
11
180.091
21
-99.7307
0
LINE
8
BLACK
6
CONTINUOUS
10
180.091
20
-99.7307
11
180.336
21
-99.8949
0
LINE
8
BLACK
6
CONTINUOUS
10
180.336
20
-99.8949
11
180.545
21
-100.104
0
LINE
8
BLACK
6
CONTINUOUS
10
180.545
20
-100.104
11
180.709
21
-100.349
0
LINE
8
BLACK
6
CONTINUOUS
10
180.709
20
-100.349
11
180.822
21
-100.622
0
LINE
8
BLACK
6
CONTINUOUS
10
180.822
20
-100.622
11
180.88
21
-100.912
0
LINE
8
BLACK
6
CONTINUOUS
10
180.88
20
-100.912
11
180.88
21
-101.208
0
LINE
8
BLACK
6
CONTINUOUS
10
180.88
20
-101.208
11
180.822
21
-101.498
0
LINE
8
BLACK
6
CONTINUOUS
10
180.822
20
-101.498
11
180.709
21
-101.771
0
LINE
8
BLACK
6
CONTINUOUS
10
180.709
20
-101.771
11
180.545
21
-102.016
0
LINE
8
BLACK
6
CONTINUOUS
10
180.545
20
-102.016
11
180.336
21
-102.225
0
LINE
8
BLACK
6
CONTINUOUS
10
180.336
20
-102.225
11
180.091
21
-102.389
0
LINE
8
BLACK
6
CONTINUOUS
10
180.091
20
-102.389
11
179.818
21
-102.502
0
LINE
8
BLACK
6
CONTINUOUS
10
179.818
20
-102.502
11
179.528
21
-102.56
0
LINE
8
BLACK
6
CONTINUOUS
10
179.528
20
-102.56
11
179.232
21
-102.56
0
LINE
8
BLACK
6
CONTINUOUS
10
179.232
20
-102.56
11
178.942
21
-102.502
0
LINE
8
BLACK
6
CONTINUOUS
10
178.942
20
-102.502
11
178.669
21
-102.389
0
LINE
8
BLACK
6
CONTINUOUS
10
178.669
20
-102.389
11
178.424
21
-102.225
0
LINE
8
BLACK
6
CONTINUOUS
10
178.424
20
-102.225
11
178.215
21
-102.016
0
LINE
8
BLACK
6
CONTINUOUS
10
178.215
20
-102.016
11
178.051
21
-101.771
0
LINE
8
BLACK
6
CONTINUOUS
10
178.051
20
-101.771
11
177.938
21
-101.498
0
LINE
8
BLACK
6
CONTINUOUS
10
177.938
20
-101.498
11
177.88
21
-101.208
0
LINE
8
BLACK
6
CONTINUOUS
10
177.88
20
-101.208
11
177.88
21
-100.912
0
LINE
8
BLACK
6
CONTINUOUS
10
177.88
20
-100.912
11
177.938
21
-100.622
0
LINE
8
BLACK
6
CONTINUOUS
10
177.938
20
-100.622
11
178.051
21
-100.349
0
LINE
8
BLACK
6
CONTINUOUS
10
178.051
20
-100.349
11
178.215
21
-100.104
0
LINE
8
BLACK
6
CONTINUOUS
10
178.215
20
-100.104
11
178.424
21
-99.8949
0
LINE
8
BLACK
6
CONTINUOUS
10
178.424
20
-99.8949
11
178.669
21
-99.7307
0
LINE
8
BLACK
6
CONTINUOUS
10
178.669
20
-99.7307
11
178.942
21
-99.6176
0
LINE
8
BLACK
6
CONTINUOUS
10
178.942
20
-99.6176
11
179.232
21
-99.56
0
LINE
8
BLACK
6
CONTINUOUS
10
179.232
20
-99.56
11
179.528
21
-99.56
0
LINE
8
BLACK
6
CONTINUOUS
10
179.528
20
-99.56
11
179.818
21
-99.6176
0
LINE
8
BLACK
6
CONTINUOUS
10
119.048
20
-94.6538
11
119.539
21
-94.8573
0
LINE
8
BLACK
6
CONTINUOUS
10
119.539
20
-94.8573
11
119.981
21
-95.1528
0
LINE
8
BLACK
6
CONTINUOUS
10
119.981
20
-95.1528
11
120.357
21
-95.5288
0
LINE
8
BLACK
6
CONTINUOUS
10
120.357
20
-95.5288
11
120.653
21
-95.9711
0
LINE
8
BLACK
6
CONTINUOUS
10
120.653
20
-95.9711
11
120.856
21
-96.4624
0
LINE
8
BLACK
6
CONTINUOUS
10
120.856
20
-96.4624
11
120.96
21
-96.9841
0
LINE
8
BLACK
6
CONTINUOUS
10
120.96
20
-96.9841
11
120.96
21
-97.5159
0
LINE
8
BLACK
6
CONTINUOUS
10
120.96
20
-97.5159
11
120.856
21
-98.0376
0
LINE
8
BLACK
6
CONTINUOUS
10
120.856
20
-98.0376
11
120.653
21
-98.5289
0
LINE
8
BLACK
6
CONTINUOUS
10
120.653
20
-98.5289
11
120.357
21
-98.9711
0
LINE
8
BLACK
6
CONTINUOUS
10
120.357
20
-98.9711
11
119.981
21
-99.3472
0
LINE
8
BLACK
6
CONTINUOUS
10
119.981
20
-99.3472
11
119.539
21
-99.6427
0
LINE
8
BLACK
6
CONTINUOUS
10
119.539
20
-99.6427
11
119.048
21
-99.8462
0
LINE
8
BLACK
6
CONTINUOUS
10
119.048
20
-99.8462
11
118.526
21
-99.95
0
LINE
8
BLACK
6
CONTINUOUS
10
118.526
20
-99.95
11
117.994
21
-99.95
0
LINE
8
BLACK
6
CONTINUOUS
10
117.994
20
-99.95
11
117.472
21
-99.8462
0
LINE
8
BLACK
6
CONTINUOUS
10
117.472
20
-99.8462
11
116.981
21
-99.6427
0
LINE
8
BLACK
6
CONTINUOUS
10
116.981
20
-99.6427
11
116.539
21
-99.3472
0
LINE
8
BLACK
6
CONTINUOUS
10
116.539
20
-99.3472
11
116.163
21
-98.9711
0
LINE
8
BLACK
6
CONTINUOUS
10
116.163
20
-98.9711
11
115.867
21
-98.5289
0
LINE
8
BLACK
6
CONTINUOUS
10
115.867
20
-98.5289
11
115.664
21
-98.0376
0
LINE
8
BLACK
6
CONTINUOUS
10
115.664
20
-98.0376
11
115.56
21
-97.5159
0
LINE
8
BLACK
6
CONTINUOUS
10
115.56
20
-97.5159
11
115.56
21
-96.9841
0
LINE
8
BLACK
6
CONTINUOUS
10
115.56
20
-96.9841
11
115.664
21
-96.4624
0
LINE
8
BLACK
6
CONTINUOUS
10
115.664
20
-96.4624
11
115.867
21
-95.9711
0
LINE
8
BLACK
6
CONTINUOUS
10
115.867
20
-95.9711
11
116.163
21
-95.5288
0
LINE
8
BLACK
6
CONTINUOUS
10
116.163
20
-95.5288
11
116.539
21
-95.1528
0
LINE
8
BLACK
6
CONTINUOUS
10
116.539
20
-95.1528
11
116.981
21
-94.8573
0
LINE
8
BLACK
6
CONTINUOUS
10
116.981
20
-94.8573
11
117.472
21
-94.6538
0
LINE
8
BLACK
6
CONTINUOUS
10
117.472
20
-94.6538
11
117.994
21
-94.55
0
LINE
8
BLACK
6
CONTINUOUS
10
117.994
20
-94.55
11
118.526
21
-94.55
0
LINE
8
BLACK
6
CONTINUOUS
10
118.526
20
-94.55
11
119.048
21
-94.6538
0
LINE
8
BLACK
6
CONTINUOUS
10
176.728
20
-94.6288
11
177.219
21
-94.8323
0
LINE
8
BLACK
6
CONTINUOUS
10
177.219
20
-94.8323
11
177.661
21
-95.1278
0
LINE
8
BLACK
6
CONTINUOUS
10
177.661
20
-95.1278
11
178.037
21
-95.5038
0
LINE
8
BLACK
6
CONTINUOUS
10
178.037
20
-95.5038
11
178.333
21
-95.9461
0
LINE
8
BLACK
6
CONTINUOUS
10
178.333
20
-95.9461
11
178.536
21
-96.4374
0
LINE
8
BLACK
6
CONTINUOUS
10
178.536
20
-96.4374
11
178.64
21
-96.9591
0
LINE
8
BLACK
6
CONTINUOUS
10
178.64
20
-96.9591
11
178.64
21
-97.4909
0
LINE
8
BLACK
6
CONTINUOUS
10
178.64
20
-97.4909
11
178.536
21
-98.0126
0
LINE
8
BLACK
6
CONTINUOUS
10
178.536
20
-98.0126
11
178.333
21
-98.5039
0
LINE
8
BLACK
6
CONTINUOUS
10
178.333
20
-98.5039
11
178.037
21
-98.9461
0
LINE
8
BLACK
6
CONTINUOUS
10
178.037
20
-98.9461
11
177.661
21
-99.3222
0
LINE
8
BLACK
6
CONTINUOUS
10
177.661
20
-99.3222
11
177.219
21
-99.6177
0
LINE
8
BLACK
6
CONTINUOUS
10
177.219
20
-99.6177
11
176.728
21
-99.8212
0
LINE
8
BLACK
6
CONTINUOUS
10
176.728
20
-99.8212
11
176.206
21
-99.925
0
LINE
8
BLACK
6
CONTINUOUS
10
176.206
20
-99.925
11
175.674
21
-99.925
0
LINE
8
BLACK
6
CONTINUOUS
10
175.674
20
-99.925
11
175.152
21
-99.8212
0
LINE
8
BLACK
6
CONTINUOUS
10
175.152
20
-99.8212
11
174.661
21
-99.6177
0
LINE
8
BLACK
6
CONTINUOUS
10
174.661
20
-99.6177
11
174.219
21
-99.3222
0
LINE
8
BLACK
6
CONTINUOUS
10
174.219
20
-99.3222
11
173.843
21
-98.9461
0
LINE
8
BLACK
6
CONTINUOUS
10
173.843
20
-98.9461
11
173.547
21
-98.5039
0
LINE
8
BLACK
6
CONTINUOUS
10
173.547
20
-98.5039
11
173.344
21
-98.0126
0
LINE
8
BLACK
6
CONTINUOUS
10
173.344
20
-98.0126
11
173.24
21
-97.4909
0
LINE
8
BLACK
6
CONTINUOUS
10
173.24
20
-97.4909
11
173.24
21
-96.9591
0
LINE
8
BLACK
6
CONTINUOUS
10
173.24
20
-96.9591
11
173.344
21
-96.4374
0
LINE
8
BLACK
6
CONTINUOUS
10
173.344
20
-96.4374
11
173.547
21
-95.9461
0
LINE
8
BLACK
6
CONTINUOUS
10
173.547
20
-95.9461
11
173.843
21
-95.5038
0
LINE
8
BLACK
6
CONTINUOUS
10
173.843
20
-95.5038
11
174.219
21
-95.1278
0
LINE
8
BLACK
6
CONTINUOUS
10
174.219
20
-95.1278
11
174.661
21
-94.8323
0
LINE
8
BLACK
6
CONTINUOUS
10
174.661
20
-94.8323
11
175.152
21
-94.6288
0
LINE
8
BLACK
6
CONTINUOUS
10
175.152
20
-94.6288
11
175.674
21
-94.525
0
LINE
8
BLACK
6
CONTINUOUS
10
175.674
20
-94.525
11
176.206
21
-94.525
0
LINE
8
BLACK
6
CONTINUOUS
10
176.206
20
-94.525
11
176.728
21
-94.6288
0
LINE
8
BLACK
6
CONTINUOUS
10
200.038
20
-91.2576
11
200.311
21
-91.3707
0
LINE
8
BLACK
6
CONTINUOUS
10
200.311
20
-91.3707
11
200.556
21
-91.5349
0
LINE
8
BLACK
6
CONTINUOUS
10
200.556
20
-91.5349
11
200.765
21
-91.7438
0
LINE
8
BLACK
6
CONTINUOUS
10
200.765
20
-91.7438
11
200.929
21
-91.9895
0
LINE
8
BLACK
6
CONTINUOUS
10
200.929
20
-91.9895
11
201.042
21
-92.2625
0
LINE
8
BLACK
6
CONTINUOUS
10
201.042
20
-92.2625
11
201.1
21
-92.5523
0
LINE
8
BLACK
6
CONTINUOUS
10
201.1
20
-92.5523
11
201.1
21
-92.8477
0
LINE
8
BLACK
6
CONTINUOUS
10
201.1
20
-92.8477
11
201.042
21
-93.1375
0
LINE
8
BLACK
6
CONTINUOUS
10
201.042
20
-93.1375
11
200.929
21
-93.4105
0
LINE
8
BLACK
6
CONTINUOUS
10
200.929
20
-93.4105
11
200.765
21
-93.6562
0
LINE
8
BLACK
6
CONTINUOUS
10
200.765
20
-93.6562
11
200.556
21
-93.8651
0
LINE
8
BLACK
6
CONTINUOUS
10
200.556
20
-93.8651
11
200.311
21
-94.0293
0
LINE
8
BLACK
6
CONTINUOUS
10
200.311
20
-94.0293
11
200.038
21
-94.1424
0
LINE
8
BLACK
6
CONTINUOUS
10
200.038
20
-94.1424
11
199.748
21
-94.2
0
LINE
8
BLACK
6
CONTINUOUS
10
199.748
20
-94.2
11
199.452
21
-94.2
0
LINE
8
BLACK
6
CONTINUOUS
10
199.452
20
-94.2
11
199.162
21
-94.1424
0
LINE
8
BLACK
6
CONTINUOUS
10
199.162
20
-94.1424
11
198.889
21
-94.0293
0
LINE
8
BLACK
6
CONTINUOUS
10
198.889
20
-94.0293
11
198.644
21
-93.8651
0
LINE
8
BLACK
6
CONTINUOUS
10
198.644
20
-93.8651
11
198.435
21
-93.6562
0
LINE
8
BLACK
6
CONTINUOUS
10
198.435
20
-93.6562
11
198.271
21
-93.4105
0
LINE
8
BLACK
6
CONTINUOUS
10
198.271
20
-93.4105
11
198.158
21
-93.1375
0
LINE
8
BLACK
6
CONTINUOUS
10
198.158
20
-93.1375
11
198.1
21
-92.8477
0
LINE
8
BLACK
6
CONTINUOUS
10
198.1
20
-92.8477
11
198.1
21
-92.5523
0
LINE
8
BLACK
6
CONTINUOUS
10
198.1
20
-92.5523
11
198.158
21
-92.2625
0
LINE
8
BLACK
6
CONTINUOUS
10
198.158
20
-92.2625
11
198.271
21
-91.9895
0
LINE
8
BLACK
6
CONTINUOUS
10
198.271
20
-91.9895
11
198.435
21
-91.7438
0
LINE
8
BLACK
6
CONTINUOUS
10
198.435
20
-91.7438
11
198.644
21
-91.5349
0
LINE
8
BLACK
6
CONTINUOUS
10
198.644
20
-91.5349
11
198.889
21
-91.3707
0
LINE
8
BLACK
6
CONTINUOUS
10
198.889
20
-91.3707
11
199.162
21
-91.2576
0
LINE
8
BLACK
6
CONTINUOUS
10
199.162
20
-91.2576
11
199.452
21
-91.2
0
LINE
8
BLACK
6
CONTINUOUS
10
199.452
20
-91.2
11
199.748
21
-91.2
0
LINE
8
BLACK
6
CONTINUOUS
10
199.748
20
-91.2
11
200.038
21
-91.2576
0
LINE
8
BLACK
6
CONTINUOUS
10
95.0375
20
-91.2576
11
95.3105
21
-91.3707
0
LINE
8
BLACK
6
CONTINUOUS
10
95.3105
20
-91.3707
11
95.5562
21
-91.5349
0
LINE
8
BLACK
6
CONTINUOUS
10
95.5562
20
-91.5349
11
95.7651
21
-91.7438
0
LINE
8
BLACK
6
CONTINUOUS
10
95.7651
20
-91.7438
11
95.9293
21
-91.9895
0
LINE
8
BLACK
6
CONTINUOUS
10
95.9293
20
-91.9895
11
96.0424
21
-92.2625
0
LINE
8
BLACK
6
CONTINUOUS
10
96.0424
20
-92.2625
11
96.1
21
-92.5523
0
LINE
8
BLACK
6
CONTINUOUS
10
96.1
20
-92.5523
11
96.1
21
-92.8477
0
LINE
8
BLACK
6
CONTINUOUS
10
96.1
20
-92.8477
11
96.0424
21
-93.1375
0
LINE
8
BLACK
6
CONTINUOUS
10
96.0424
20
-93.1375
11
95.9293
21
-93.4105
0
LINE
8
BLACK
6
CONTINUOUS
10
95.9293
20
-93.4105
11
95.7651
21
-93.6562
0
LINE
8
BLACK
6
CONTINUOUS
10
95.7651
20
-93.6562
11
95.5562
21
-93.8651
0
LINE
8
BLACK
6
CONTINUOUS
10
95.5562
20
-93.8651
11
95.3105
21
-94.0293
0
LINE
8
BLACK
6
CONTINUOUS
10
95.3105
20
-94.0293
11
95.0375
21
-94.1424
0
LINE
8
BLACK
6
CONTINUOUS
10
95.0375
20
-94.1424
11
94.7477
21
-94.2
0
LINE
8
BLACK
6
CONTINUOUS
10
94.7477
20
-94.2
11
94.4523
21
-94.2
0
LINE
8
BLACK
6
CONTINUOUS
10
94.4523
20
-94.2
11
94.1625
21
-94.1424
0
LINE
8
BLACK
6
CONTINUOUS
10
94.1625
20
-94.1424
11
93.8895
21
-94.0293
0
LINE
8
BLACK
6
CONTINUOUS
10
93.8895
20
-94.0293
11
93.6438
21
-93.8651
0
LINE
8
BLACK
6
CONTINUOUS
10
93.6438
20
-93.8651
11
93.4349
21
-93.6562
0
LINE
8
BLACK
6
CONTINUOUS
10
93.4349
20
-93.6562
11
93.2707
21
-93.4105
0
LINE
8
BLACK
6
CONTINUOUS
10
93.2707
20
-93.4105
11
93.1576
21
-93.1375
0
LINE
8
BLACK
6
CONTINUOUS
10
93.1576
20
-93.1375
11
93.1
21
-92.8477
0
LINE
8
BLACK
6
CONTINUOUS
10
93.1
20
-92.8477
11
93.1
21
-92.5523
0
LINE
8
BLACK
6
CONTINUOUS
10
93.1
20
-92.5523
11
93.1576
21
-92.2625
0
LINE
8
BLACK
6
CONTINUOUS
10
93.1576
20
-92.2625
11
93.2707
21
-91.9895
0
LINE
8
BLACK
6
CONTINUOUS
10
93.2707
20
-91.9895
11
93.4349
21
-91.7438
0
LINE
8
BLACK
6
CONTINUOUS
10
93.4349
20
-91.7438
11
93.6438
21
-91.5349
0
LINE
8
BLACK
6
CONTINUOUS
10
93.6438
20
-91.5349
11
93.8895
21
-91.3707
0
LINE
8
BLACK
6
CONTINUOUS
10
93.8895
20
-91.3707
11
94.1625
21
-91.2576
0
LINE
8
BLACK
6
CONTINUOUS
10
94.1625
20
-91.2576
11
94.4523
21
-91.2
0
LINE
8
BLACK
6
CONTINUOUS
10
94.4523
20
-91.2
11
94.7477
21
-91.2
0
LINE
8
BLACK
6
CONTINUOUS
10
94.7477
20
-91.2
11
95.0375
21
-91.2576
0
LINE
8
BLACK
6
CONTINUOUS
10
171.302
20
-87.4945
11
171.702
21
-87.6604
0
LINE
8
BLACK
6
CONTINUOUS
10
171.702
20
-87.6604
11
172.062
21
-87.9011
0
LINE
8
BLACK
6
CONTINUOUS
10
172.062
20
-87.9011
11
172.369
21
-88.2076
0
LINE
8
BLACK
6
CONTINUOUS
10
172.369
20
-88.2076
11
172.61
21
-88.5679
0
LINE
8
BLACK
6
CONTINUOUS
10
172.61
20
-88.5679
11
172.775
21
-88.9683
0
LINE
8
BLACK
6
CONTINUOUS
10
172.775
20
-88.9683
11
172.86
21
-89.3933
0
LINE
8
BLACK
6
CONTINUOUS
10
172.86
20
-89.3933
11
172.86
21
-89.8267
0
LINE
8
BLACK
6
CONTINUOUS
10
172.86
20
-89.8267
11
172.775
21
-90.2517
0
LINE
8
BLACK
6
CONTINUOUS
10
172.775
20
-90.2517
11
172.61
21
-90.6521
0
LINE
8
BLACK
6
CONTINUOUS
10
172.61
20
-90.6521
11
172.369
21
-91.0124
0
LINE
8
BLACK
6
CONTINUOUS
10
172.369
20
-91.0124
11
172.062
21
-91.3189
0
LINE
8
BLACK
6
CONTINUOUS
10
172.062
20
-91.3189
11
171.702
21
-91.5596
0
LINE
8
BLACK
6
CONTINUOUS
10
171.702
20
-91.5596
11
171.302
21
-91.7255
0
LINE
8
BLACK
6
CONTINUOUS
10
171.302
20
-91.7255
11
170.877
21
-91.81
0
LINE
8
BLACK
6
CONTINUOUS
10
170.877
20
-91.81
11
170.443
21
-91.81
0
LINE
8
BLACK
6
CONTINUOUS
10
170.443
20
-91.81
11
170.018
21
-91.7255
0
LINE
8
BLACK
6
CONTINUOUS
10
170.018
20
-91.7255
11
169.618
21
-91.5596
0
LINE
8
BLACK
6
CONTINUOUS
10
169.618
20
-91.5596
11
169.258
21
-91.3189
0
LINE
8
BLACK
6
CONTINUOUS
10
169.258
20
-91.3189
11
168.951
21
-91.0124
0
LINE
8
BLACK
6
CONTINUOUS
10
168.951
20
-91.0124
11
168.71
21
-90.6521
0
LINE
8
BLACK
6
CONTINUOUS
10
168.71
20
-90.6521
11
168.545
21
-90.2517
0
LINE
8
BLACK
6
CONTINUOUS
10
168.545
20
-90.2517
11
168.46
21
-89.8267
0
LINE
8
BLACK
6
CONTINUOUS
10
168.46
20
-89.8267
11
168.46
21
-89.3933
0
LINE
8
BLACK
6
CONTINUOUS
10
168.46
20
-89.3933
11
168.545
21
-88.9683
0
LINE
8
BLACK
6
CONTINUOUS
10
168.545
20
-88.9683
11
168.71
21
-88.5679
0
LINE
8
BLACK
6
CONTINUOUS
10
168.71
20
-88.5679
11
168.951
21
-88.2076
0
LINE
8
BLACK
6
CONTINUOUS
10
168.951
20
-88.2076
11
169.258
21
-87.9011
0
LINE
8
BLACK
6
CONTINUOUS
10
169.258
20
-87.9011
11
169.618
21
-87.6604
0
LINE
8
BLACK
6
CONTINUOUS
10
169.618
20
-87.6604
11
170.018
21
-87.4945
0
LINE
8
BLACK
6
CONTINUOUS
10
170.018
20
-87.4945
11
170.443
21
-87.41
0
LINE
8
BLACK
6
CONTINUOUS
10
170.443
20
-87.41
11
170.877
21
-87.41
0
LINE
8
BLACK
6
CONTINUOUS
10
170.877
20
-87.41
11
171.302
21
-87.4945
0
LINE
8
BLACK
6
CONTINUOUS
10
124.442
20
-86.2645
11
124.842
21
-86.4304
0
LINE
8
BLACK
6
CONTINUOUS
10
124.842
20
-86.4304
11
125.202
21
-86.6711
0
LINE
8
BLACK
6
CONTINUOUS
10
125.202
20
-86.6711
11
125.509
21
-86.9776
0
LINE
8
BLACK
6
CONTINUOUS
10
125.509
20
-86.9776
11
125.75
21
-87.3379
0
LINE
8
BLACK
6
CONTINUOUS
10
125.75
20
-87.3379
11
125.915
21
-87.7383
0
LINE
8
BLACK
6
CONTINUOUS
10
125.915
20
-87.7383
11
126
21
-88.1633
0
LINE
8
BLACK
6
CONTINUOUS
10
126
20
-88.1633
11
126
21
-88.5967
0
LINE
8
BLACK
6
CONTINUOUS
10
126
20
-88.5967
11
125.915
21
-89.0217
0
LINE
8
BLACK
6
CONTINUOUS
10
125.915
20
-89.0217
11
125.75
21
-89.4221
0
LINE
8
BLACK
6
CONTINUOUS
10
125.75
20
-89.4221
11
125.509
21
-89.7824
0
LINE
8
BLACK
6
CONTINUOUS
10
125.509
20
-89.7824
11
125.202
21
-90.0889
0
LINE
8
BLACK
6
CONTINUOUS
10
125.202
20
-90.0889
11
124.842
21
-90.3296
0
LINE
8
BLACK
6
CONTINUOUS
10
124.842
20
-90.3296
11
124.442
21
-90.4955
0
LINE
8
BLACK
6
CONTINUOUS
10
124.442
20
-90.4955
11
124.017
21
-90.58
0
LINE
8
BLACK
6
CONTINUOUS
10
124.017
20
-90.58
11
123.583
21
-90.58
0
LINE
8
BLACK
6
CONTINUOUS
10
123.583
20
-90.58
11
123.158
21
-90.4955
0
LINE
8
BLACK
6
CONTINUOUS
10
123.158
20
-90.4955
11
122.758
21
-90.3296
0
LINE
8
BLACK
6
CONTINUOUS
10
122.758
20
-90.3296
11
122.398
21
-90.0889
0
LINE
8
BLACK
6
CONTINUOUS
10
122.398
20
-90.0889
11
122.091
21
-89.7824
0
LINE
8
BLACK
6
CONTINUOUS
10
122.091
20
-89.7824
11
121.85
21
-89.4221
0
LINE
8
BLACK
6
CONTINUOUS
10
121.85
20
-89.4221
11
121.685
21
-89.0217
0
LINE
8
BLACK
6
CONTINUOUS
10
121.685
20
-89.0217
11
121.6
21
-88.5967
0
LINE
8
BLACK
6
CONTINUOUS
10
121.6
20
-88.5967
11
121.6
21
-88.1633
0
LINE
8
BLACK
6
CONTINUOUS
10
121.6
20
-88.1633
11
121.685
21
-87.7383
0
LINE
8
BLACK
6
CONTINUOUS
10
121.685
20
-87.7383
11
121.85
21
-87.3379
0
LINE
8
BLACK
6
CONTINUOUS
10
121.85
20
-87.3379
11
122.091
21
-86.9776
0
LINE
8
BLACK
6
CONTINUOUS
10
122.091
20
-86.9776
11
122.398
21
-86.6711
0
LINE
8
BLACK
6
CONTINUOUS
10
122.398
20
-86.6711
11
122.758
21
-86.4304
0
LINE
8
BLACK
6
CONTINUOUS
10
122.758
20
-86.4304
11
123.158
21
-86.2645
0
LINE
8
BLACK
6
CONTINUOUS
10
123.158
20
-86.2645
11
123.583
21
-86.18
0
LINE
8
BLACK
6
CONTINUOUS
10
123.583
20
-86.18
11
124.017
21
-86.18
0
LINE
8
BLACK
6
CONTINUOUS
10
124.017
20
-86.18
11
124.442
21
-86.2645
0
LINE
8
BLACK
6
CONTINUOUS
10
147.608
20
-67.673
11
148.191
21
-67.9142
0
LINE
8
BLACK
6
CONTINUOUS
10
148.191
20
-67.9142
11
148.715
21
-68.2644
0
LINE
8
BLACK
6
CONTINUOUS
10
148.715
20
-68.2644
11
149.161
21
-68.7101
0
LINE
8
BLACK
6
CONTINUOUS
10
149.161
20
-68.7101
11
149.511
21
-69.2342
0
LINE
8
BLACK
6
CONTINUOUS
10
149.511
20
-69.2342
11
149.752
21
-69.8166
0
LINE
8
BLACK
6
CONTINUOUS
10
149.752
20
-69.8166
11
149.875
21
-70.4348
0
LINE
8
BLACK
6
CONTINUOUS
10
149.875
20
-70.4348
11
149.875
21
-71.0652
0
LINE
8
BLACK
6
CONTINUOUS
10
149.875
20
-71.0652
11
149.752
21
-71.6834
0
LINE
8
BLACK
6
CONTINUOUS
10
149.752
20
-71.6834
11
149.511
21
-72.2658
0
LINE
8
BLACK
6
CONTINUOUS
10
149.511
20
-72.2658
11
149.161
21
-72.7899
0
LINE
8
BLACK
6
CONTINUOUS
10
149.161
20
-72.7899
11
148.715
21
-73.2356
0
LINE
8
BLACK
6
CONTINUOUS
10
148.715
20
-73.2356
11
148.191
21
-73.5858
0
LINE
8
BLACK
6
CONTINUOUS
10
148.191
20
-73.5858
11
147.608
21
-73.827
0
LINE
8
BLACK
6
CONTINUOUS
10
147.608
20
-73.827
11
146.99
21
-73.95
0
LINE
8
BLACK
6
CONTINUOUS
10
146.99
20
-73.95
11
146.36
21
-73.95
0
LINE
8
BLACK
6
CONTINUOUS
10
146.36
20
-73.95
11
145.742
21
-73.827
0
LINE
8
BLACK
6
CONTINUOUS
10
145.742
20
-73.827
11
145.159
21
-73.5858
0
LINE
8
BLACK
6
CONTINUOUS
10
145.159
20
-73.5858
11
144.635
21
-73.2356
0
LINE
8
BLACK
6
CONTINUOUS
10
144.635
20
-73.2356
11
144.189
21
-72.7899
0
LINE
8
BLACK
6
CONTINUOUS
10
144.189
20
-72.7899
11
143.839
21
-72.2658
0
LINE
8
BLACK
6
CONTINUOUS
10
143.839
20
-72.2658
11
143.598
21
-71.6834
0
LINE
8
BLACK
6
CONTINUOUS
10
143.598
20
-71.6834
11
143.475
21
-71.0652
0
LINE
8
BLACK
6
CONTINUOUS
10
143.475
20
-71.0652
11
143.475
21
-70.4348
0
LINE
8
BLACK
6
CONTINUOUS
10
143.475
20
-70.4348
11
143.598
21
-69.8166
0
LINE
8
BLACK
6
CONTINUOUS
10
143.598
20
-69.8166
11
143.839
21
-69.2342
0
LINE
8
BLACK
6
CONTINUOUS
10
143.839
20
-69.2342
11
144.189
21
-68.7101
0
LINE
8
BLACK
6
CONTINUOUS
10
144.189
20
-68.7101
11
144.635
21
-68.2644
0
LINE
8
BLACK
6
CONTINUOUS
10
144.635
20
-68.2644
11
145.159
21
-67.9142
0
LINE
8
BLACK
6
CONTINUOUS
10
145.159
20
-67.9142
11
145.742
21
-67.673
0
LINE
8
BLACK
6
CONTINUOUS
10
145.742
20
-67.673
11
146.36
21
-67.55
0
LINE
8
BLACK
6
CONTINUOUS
10
146.36
20
-67.55
11
146.99
21
-67.55
0
LINE
8
BLACK
6
CONTINUOUS
10
146.99
20
-67.55
11
147.608
21
-67.673
0
LINE
8
BLACK
6
CONTINUOUS
10
158.012
20
-63.9145
11
158.412
21
-64.0804
0
LINE
8
BLACK
6
CONTINUOUS
10
158.412
20
-64.0804
11
158.772
21
-64.3211
0
LINE
8
BLACK
6
CONTINUOUS
10
158.772
20
-64.3211
11
159.079
21
-64.6276
0
LINE
8
BLACK
6
CONTINUOUS
10
159.079
20
-64.6276
11
159.32
21
-64.9879
0
LINE
8
BLACK
6
CONTINUOUS
10
159.32
20
-64.9879
11
159.485
21
-65.3883
0
LINE
8
BLACK
6
CONTINUOUS
10
159.485
20
-65.3883
11
159.57
21
-65.8133
0
LINE
8
BLACK
6
CONTINUOUS
10
159.57
20
-65.8133
11
159.57
21
-66.2467
0
LINE
8
BLACK
6
CONTINUOUS
10
159.57
20
-66.2467
11
159.485
21
-66.6717
0
LINE
8
BLACK
6
CONTINUOUS
10
159.485
20
-66.6717
11
159.32
21
-67.0721
0
LINE
8
BLACK
6
CONTINUOUS
10
159.32
20
-67.0721
11
159.079
21
-67.4324
0
LINE
8
BLACK
6
CONTINUOUS
10
159.079
20
-67.4324
11
158.772
21
-67.7389
0
LINE
8
BLACK
6
CONTINUOUS
10
158.772
20
-67.7389
11
158.412
21
-67.9796
0
LINE
8
BLACK
6
CONTINUOUS
10
158.412
20
-67.9796
11
158.012
21
-68.1455
0
LINE
8
BLACK
6
CONTINUOUS
10
158.012
20
-68.1455
11
157.587
21
-68.23
0
LINE
8
BLACK
6
CONTINUOUS
10
157.587
20
-68.23
11
157.153
21
-68.23
0
LINE
8
BLACK
6
CONTINUOUS
10
157.153
20
-68.23
11
156.728
21
-68.1455
0
LINE
8
BLACK
6
CONTINUOUS
10
156.728
20
-68.1455
11
156.328
21
-67.9796
0
LINE
8
BLACK
6
CONTINUOUS
10
156.328
20
-67.9796
11
155.968
21
-67.7389
0
LINE
8
BLACK
6
CONTINUOUS
10
155.968
20
-67.7389
11
155.661
21
-67.4324
0
LINE
8
BLACK
6
CONTINUOUS
10
155.661
20
-67.4324
11
155.42
21
-67.0721
0
LINE
8
BLACK
6
CONTINUOUS
10
155.42
20
-67.0721
11
155.255
21
-66.6717
0
LINE
8
BLACK
6
CONTINUOUS
10
155.255
20
-66.6717
11
155.17
21
-66.2467
0
LINE
8
BLACK
6
CONTINUOUS
10
155.17
20
-66.2467
11
155.17
21
-65.8133
0
LINE
8
BLACK
6
CONTINUOUS
10
155.17
20
-65.8133
11
155.255
21
-65.3883
0
LINE
8
BLACK
6
CONTINUOUS
10
155.255
20
-65.3883
11
155.42
21
-64.9879
0
LINE
8
BLACK
6
CONTINUOUS
10
155.42
20
-64.9879
11
155.661
21
-64.6276
0
LINE
8
BLACK
6
CONTINUOUS
10
155.661
20
-64.6276
11
155.968
21
-64.3211
0
LINE
8
BLACK
6
CONTINUOUS
10
155.968
20
-64.3211
11
156.328
21
-64.0804
0
LINE
8
BLACK
6
CONTINUOUS
10
156.328
20
-64.0804
11
156.728
21
-63.9145
0
LINE
8
BLACK
6
CONTINUOUS
10
156.728
20
-63.9145
11
157.153
21
-63.83
0
LINE
8
BLACK
6
CONTINUOUS
10
157.153
20
-63.83
11
157.587
21
-63.83
0
LINE
8
BLACK
6
CONTINUOUS
10
157.587
20
-63.83
11
158.012
21
-63.9145
0
LINE
8
BLACK
6
CONTINUOUS
10
137.492
20
-63.8845
11
137.892
21
-64.0504
0
LINE
8
BLACK
6
CONTINUOUS
10
137.892
20
-64.0504
11
138.252
21
-64.2911
0
LINE
8
BLACK
6
CONTINUOUS
10
138.252
20
-64.2911
11
138.559
21
-64.5976
0
LINE
8
BLACK
6
CONTINUOUS
10
138.559
20
-64.5976
11
138.8
21
-64.9579
0
LINE
8
BLACK
6
CONTINUOUS
10
138.8
20
-64.9579
11
138.965
21
-65.3583
0
LINE
8
BLACK
6
CONTINUOUS
10
138.965
20
-65.3583
11
139.05
21
-65.7833
0
LINE
8
BLACK
6
CONTINUOUS
10
139.05
20
-65.7833
11
139.05
21
-66.2167
0
LINE
8
BLACK
6
CONTINUOUS
10
139.05
20
-66.2167
11
138.965
21
-66.6417
0
LINE
8
BLACK
6
CONTINUOUS
10
138.965
20
-66.6417
11
138.8
21
-67.0421
0
LINE
8
BLACK
6
CONTINUOUS
10
138.8
20
-67.0421
11
138.559
21
-67.4024
0
LINE
8
BLACK
6
CONTINUOUS
10
138.559
20
-67.4024
11
138.252
21
-67.7089
0
LINE
8
BLACK
6
CONTINUOUS
10
138.252
20
-67.7089
11
137.892
21
-67.9496
0
LINE
8
BLACK
6
CONTINUOUS
10
137.892
20
-67.9496
11
137.492
21
-68.1155
0
LINE
8
BLACK
6
CONTINUOUS
10
137.492
20
-68.1155
11
137.067
21
-68.2
0
LINE
8
BLACK
6
CONTINUOUS
10
137.067
20
-68.2
11
136.633
21
-68.2
0
LINE
8
BLACK
6
CONTINUOUS
10
136.633
20
-68.2
11
136.208
21
-68.1155
0
LINE
8
BLACK
6
CONTINUOUS
10
136.208
20
-68.1155
11
135.808
21
-67.9496
0
LINE
8
BLACK
6
CONTINUOUS
10
135.808
20
-67.9496
11
135.448
21
-67.7089
0
LINE
8
BLACK
6
CONTINUOUS
10
135.448
20
-67.7089
11
135.141
21
-67.4024
0
LINE
8
BLACK
6
CONTINUOUS
10
135.141
20
-67.4024
11
134.9
21
-67.0421
0
LINE
8
BLACK
6
CONTINUOUS
10
134.9
20
-67.0421
11
134.735
21
-66.6417
0
LINE
8
BLACK
6
CONTINUOUS
10
134.735
20
-66.6417
11
134.65
21
-66.2167
0
LINE
8
BLACK
6
CONTINUOUS
10
134.65
20
-66.2167
11
134.65
21
-65.7833
0
LINE
8
BLACK
6
CONTINUOUS
10
134.65
20
-65.7833
11
134.735
21
-65.3583
0
LINE
8
BLACK
6
CONTINUOUS
10
134.735
20
-65.3583
11
134.9
21
-64.9579
0
LINE
8
BLACK
6
CONTINUOUS
10
134.9
20
-64.9579
11
135.141
21
-64.5976
0
LINE
8
BLACK
6
CONTINUOUS
10
135.141
20
-64.5976
11
135.448
21
-64.2911
0
LINE
8
BLACK
6
CONTINUOUS
10
135.448
20
-64.2911
11
135.808
21
-64.0504
0
LINE
8
BLACK
6
CONTINUOUS
10
135.808
20
-64.0504
11
136.208
21
-63.8845
0
LINE
8
BLACK
6
CONTINUOUS
10
136.208
20
-63.8845
11
136.633
21
-63.8
0
LINE
8
BLACK
6
CONTINUOUS
10
136.633
20
-63.8
11
137.067
21
-63.8
0
LINE
8
BLACK
6
CONTINUOUS
10
137.067
20
-63.8
11
137.492
21
-63.8845
0
LINE
8
BLACK
6
CONTINUOUS
10
147.538
20
-61.6576
11
147.811
21
-61.7707
0
LINE
8
BLACK
6
CONTINUOUS
10
147.811
20
-61.7707
11
148.056
21
-61.9349
0
LINE
8
BLACK
6
CONTINUOUS
10
148.056
20
-61.9349
11
148.265
21
-62.1438
0
LINE
8
BLACK
6
CONTINUOUS
10
148.265
20
-62.1438
11
148.429
21
-62.3895
0
LINE
8
BLACK
6
CONTINUOUS
10
148.429
20
-62.3895
11
148.542
21
-62.6625
0
LINE
8
BLACK
6
CONTINUOUS
10
148.542
20
-62.6625
11
148.6
21
-62.9523
0
LINE
8
BLACK
6
CONTINUOUS
10
148.6
20
-62.9523
11
148.6
21
-63.2477
0
LINE
8
BLACK
6
CONTINUOUS
10
148.6
20
-63.2477
11
148.542
21
-63.5375
0
LINE
8
BLACK
6
CONTINUOUS
10
148.542
20
-63.5375
11
148.429
21
-63.8105
0
LINE
8
BLACK
6
CONTINUOUS
10
148.429
20
-63.8105
11
148.265
21
-64.0562
0
LINE
8
BLACK
6
CONTINUOUS
10
148.265
20
-64.0562
11
148.056
21
-64.2651
0
LINE
8
BLACK
6
CONTINUOUS
10
148.056
20
-64.2651
11
147.811
21
-64.4293
0
LINE
8
BLACK
6
CONTINUOUS
10
147.811
20
-64.4293
11
147.538
21
-64.5424
0
LINE
8
BLACK
6
CONTINUOUS
10
147.538
20
-64.5424
11
147.248
21
-64.6
0
LINE
8
BLACK
6
CONTINUOUS
10
147.248
20
-64.6
11
146.952
21
-64.6
0
LINE
8
BLACK
6
CONTINUOUS
10
146.952
20
-64.6
11
146.662
21
-64.5424
0
LINE
8
BLACK
6
CONTINUOUS
10
146.662
20
-64.5424
11
146.389
21
-64.4293
0
LINE
8
BLACK
6
CONTINUOUS
10
146.389
20
-64.4293
11
146.144
21
-64.2651
0
LINE
8
BLACK
6
CONTINUOUS
10
146.144
20
-64.2651
11
145.935
21
-64.0562
0
LINE
8
BLACK
6
CONTINUOUS
10
145.935
20
-64.0562
11
145.771
21
-63.8105
0
LINE
8
BLACK
6
CONTINUOUS
10
145.771
20
-63.8105
11
145.658
21
-63.5375
0
LINE
8
BLACK
6
CONTINUOUS
10
145.658
20
-63.5375
11
145.6
21
-63.2477
0
LINE
8
BLACK
6
CONTINUOUS
10
145.6
20
-63.2477
11
145.6
21
-62.9523
0
LINE
8
BLACK
6
CONTINUOUS
10
145.6
20
-62.9523
11
145.658
21
-62.6625
0
LINE
8
BLACK
6
CONTINUOUS
10
145.658
20
-62.6625
11
145.771
21
-62.3895
0
LINE
8
BLACK
6
CONTINUOUS
10
145.771
20
-62.3895
11
145.935
21
-62.1438
0
LINE
8
BLACK
6
CONTINUOUS
10
145.935
20
-62.1438
11
146.144
21
-61.9349
0
LINE
8
BLACK
6
CONTINUOUS
10
146.144
20
-61.9349
11
146.389
21
-61.7707
0
LINE
8
BLACK
6
CONTINUOUS
10
146.389
20
-61.7707
11
146.662
21
-61.6576
0
LINE
8
BLACK
6
CONTINUOUS
10
146.662
20
-61.6576
11
146.952
21
-61.6
0
LINE
8
BLACK
6
CONTINUOUS
10
146.952
20
-61.6
11
147.248
21
-61.6
0
LINE
8
BLACK
6
CONTINUOUS
10
147.248
20
-61.6
11
147.538
21
-61.6576
0
LINE
8
BLACK
6
CONTINUOUS
10
187.538
20
-47.2576
11
187.811
21
-47.3707
0
LINE
8
BLACK
6
CONTINUOUS
10
187.811
20
-47.3707
11
188.056
21
-47.5349
0
LINE
8
BLACK
6
CONTINUOUS
10
188.056
20
-47.5349
11
188.265
21
-47.7438
0
LINE
8
BLACK
6
CONTINUOUS
10
188.265
20
-47.7438
11
188.429
21
-47.9895
0
LINE
8
BLACK
6
CONTINUOUS
10
188.429
20
-47.9895
11
188.542
21
-48.2625
0
LINE
8
BLACK
6
CONTINUOUS
10
188.542
20
-48.2625
11
188.6
21
-48.5523
0
LINE
8
BLACK
6
CONTINUOUS
10
188.6
20
-48.5523
11
188.6
21
-48.8477
0
LINE
8
BLACK
6
CONTINUOUS
10
188.6
20
-48.8477
11
188.542
21
-49.1375
0
LINE
8
BLACK
6
CONTINUOUS
10
188.542
20
-49.1375
11
188.429
21
-49.4105
0
LINE
8
BLACK
6
CONTINUOUS
10
188.429
20
-49.4105
11
188.265
21
-49.6562
0
LINE
8
BLACK
6
CONTINUOUS
10
188.265
20
-49.6562
11
188.056
21
-49.8651
0
LINE
8
BLACK
6
CONTINUOUS
10
188.056
20
-49.8651
11
187.811
21
-50.0293
0
LINE
8
BLACK
6
CONTINUOUS
10
187.811
20
-50.0293
11
187.538
21
-50.1424
0
LINE
8
BLACK
6
CONTINUOUS
10
187.538
20
-50.1424
11
187.248
21
-50.2
0
LINE
8
BLACK
6
CONTINUOUS
10
187.248
20
-50.2
11
186.952
21
-50.2
0
LINE
8
BLACK
6
CONTINUOUS
10
186.952
20
-50.2
11
186.662
21
-50.1424
0
LINE
8
BLACK
6
CONTINUOUS
10
186.662
20
-50.1424
11
186.389
21
-50.0293
0
LINE
8
BLACK
6
CONTINUOUS
10
186.389
20
-50.0293
11
186.144
21
-49.8651
0
LINE
8
BLACK
6
CONTINUOUS
10
186.144
20
-49.8651
11
185.935
21
-49.6562
0
LINE
8
BLACK
6
CONTINUOUS
10
185.935
20
-49.6562
11
185.771
21
-49.4105
0
LINE
8
BLACK
6
CONTINUOUS
10
185.771
20
-49.4105
11
185.658
21
-49.1375
0
LINE
8
BLACK
6
CONTINUOUS
10
185.658
20
-49.1375
11
185.6
21
-48.8477
0
LINE
8
BLACK
6
CONTINUOUS
10
185.6
20
-48.8477
11
185.6
21
-48.5523
0
LINE
8
BLACK
6
CONTINUOUS
10
185.6
20
-48.5523
11
185.658
21
-48.2625
0
LINE
8
BLACK
6
CONTINUOUS
10
185.658
20
-48.2625
11
185.771
21
-47.9895
0
LINE
8
BLACK
6
CONTINUOUS
10
185.771
20
-47.9895
11
185.935
21
-47.7438
0
LINE
8
BLACK
6
CONTINUOUS
10
185.935
20
-47.7438
11
186.144
21
-47.5349
0
LINE
8
BLACK
6
CONTINUOUS
10
186.144
20
-47.5349
11
186.389
21
-47.3707
0
LINE
8
BLACK
6
CONTINUOUS
10
186.389
20
-47.3707
11
186.662
21
-47.2576
0
LINE
8
BLACK
6
CONTINUOUS
10
186.662
20
-47.2576
11
186.952
21
-47.2
0
LINE
8
BLACK
6
CONTINUOUS
10
186.952
20
-47.2
11
187.248
21
-47.2
0
LINE
8
BLACK
6
CONTINUOUS
10
187.248
20
-47.2
11
187.538
21
-47.2576
0
LINE
8
BLACK
6
CONTINUOUS
10
107.538
20
-47.2576
11
107.811
21
-47.3707
0
LINE
8
BLACK
6
CONTINUOUS
10
107.811
20
-47.3707
11
108.056
21
-47.5349
0
LINE
8
BLACK
6
CONTINUOUS
10
108.056
20
-47.5349
11
108.265
21
-47.7438
0
LINE
8
BLACK
6
CONTINUOUS
10
108.265
20
-47.7438
11
108.429
21
-47.9895
0
LINE
8
BLACK
6
CONTINUOUS
10
108.429
20
-47.9895
11
108.542
21
-48.2625
0
LINE
8
BLACK
6
CONTINUOUS
10
108.542
20
-48.2625
11
108.6
21
-48.5523
0
LINE
8
BLACK
6
CONTINUOUS
10
108.6
20
-48.5523
11
108.6
21
-48.8477
0
LINE
8
BLACK
6
CONTINUOUS
10
108.6
20
-48.8477
11
108.542
21
-49.1375
0
LINE
8
BLACK
6
CONTINUOUS
10
108.542
20
-49.1375
11
108.429
21
-49.4105
0
LINE
8
BLACK
6
CONTINUOUS
10
108.429
20
-49.4105
11
108.265
21
-49.6562
0
LINE
8
BLACK
6
CONTINUOUS
10
108.265
20
-49.6562
11
108.056
21
-49.8651
0
LINE
8
BLACK
6
CONTINUOUS
10
108.056
20
-49.8651
11
107.811
21
-50.0293
0
LINE
8
BLACK
6
CONTINUOUS
10
107.811
20
-50.0293
11
107.538
21
-50.1424
0
LINE
8
BLACK
6
CONTINUOUS
10
107.538
20
-50.1424
11
107.248
21
-50.2
0
LINE
8
BLACK
6
CONTINUOUS
10
107.248
20
-50.2
11
106.952
21
-50.2
0
LINE
8
BLACK
6
CONTINUOUS
10
106.952
20
-50.2
11
106.662
21
-50.1424
0
LINE
8
BLACK
6
CONTINUOUS
10
106.662
20
-50.1424
11
106.389
21
-50.0293
0
LINE
8
BLACK
6
CONTINUOUS
10
106.389
20
-50.0293
11
106.144
21
-49.8651
0
LINE
8
BLACK
6
CONTINUOUS
10
106.144
20
-49.8651
11
105.935
21
-49.6562
0
LINE
8
BLACK
6
CONTINUOUS
10
105.935
20
-49.6562
11
105.771
21
-49.4105
0
LINE
8
BLACK
6
CONTINUOUS
10
105.771
20
-49.4105
11
105.658
21
-49.1375
0
LINE
8
BLACK
6
CONTINUOUS
10
105.658
20
-49.1375
11
105.6
21
-48.8477
0
LINE
8
BLACK
6
CONTINUOUS
10
105.6
20
-48.8477
11
105.6
21
-48.5523
0
LINE
8
BLACK
6
CONTINUOUS
10
105.6
20
-48.5523
11
105.658
21
-48.2625
0
LINE
8
BLACK
6
CONTINUOUS
10
105.658
20
-48.2625
11
105.771
21
-47.9895
0
LINE
8
BLACK
6
CONTINUOUS
10
105.771
20
-47.9895
11
105.935
21
-47.7438
0
LINE
8
BLACK
6
CONTINUOUS
10
105.935
20
-47.7438
11
106.144
21
-47.5349
0
LINE
8
BLACK
6
CONTINUOUS
10
106.144
20
-47.5349
11
106.389
21
-47.3707
0
LINE
8
BLACK
6
CONTINUOUS
10
106.389
20
-47.3707
11
106.662
21
-47.2576
0
LINE
8
BLACK
6
CONTINUOUS
10
106.662
20
-47.2576
11
106.952
21
-47.2
0
LINE
8
BLACK
6
CONTINUOUS
10
106.952
20
-47.2
11
107.248
21
-47.2
0
LINE
8
BLACK
6
CONTINUOUS
10
107.248
20
-47.2
11
107.538
21
-47.2576
  0
ENDSEC
  0
EOF
