0
SECTION
2
HEADER
9
$INSUNITS
70
4
9
$ACADVER
1
AC1014
9
$HANDSEED
5
FFFF
0
ENDSEC
0
SECTION
2
TABLES
0
TABLE
2
VPORT
5
8
100
AcDbSymbolTable
0
ENDTAB
0
TABLE
2
LTYPE
5
5
100
AcDbSymbolTable
0
LTYPE
5
14
100
AcDbSymbolTableRecord
100
AcDbLinetypeTableRecord
2
BYBLOCK
70
0
0
LTYPE
5
15
100
AcDbSymbolTableRecord
100
AcDbLinetypeTableRecord
2
BYLAYER
70
0
0
LTYPE
5
16
100
AcDbSymbolTableRecord
100
AcDbLinetypeTableRecord
2
DASHED
70
0
3
Dashed __ __ __ __ __ __ __ __ __ __ __ __ __ _
72
65
73
2
40
0.75
49
0.5
74
0
49
-0.25
74
0
0
ENDTAB
0
TABLE
2
LAYER
5
2
100
AcDbSymbolTable
70
3
0
LAYER
5
50
100
AcDbSymbolTableRecord
100
AcDbLayerTableRecord
2
1
70
0
62
7
6
DASHED
0
LAYER
5
51
100
AcDbSymbolTableRecord
100
AcDbLayerTableRecord
2
0
70
0
62
7
6
CONTINUOUS
0
ENDTAB
0
TABLE
2
STYLE
5
3
100
AcDbSymbolTable
70
1
0
STYLE
5
11
100
AcDbSymbolTableRecord
100
AcDbTextStyleTableRecord
2
STANDARD
70
0
0
ENDTAB
0
TABLE
2
VIEW
5
6
100
AcDbSymbolTable
70
0
0
ENDTAB
0
TABLE
2
UCS
5
7
100
AcDbSymbolTable
70
0
0
ENDTAB
0
TABLE
2
APPID
5
9
100
AcDbSymbolTable
70
2
0
APPID
5
12
100
AcDbSymbolTableRecord
100
AcDbRegAppTableRecord
2
ACAD
70
0
0
ENDTAB
0
TABLE
2
DIMSTYLE
5
A
100
AcDbSymbolTable
70
1
0
ENDTAB
0
TABLE
2
BLOCK_RECORD
5
1
100
AcDbSymbolTable
70
1
0
BLOCK_RECORD
5
1F
100
AcDbSymbolTableRecord
100
AcDbBlockTableRecord
2
*MODEL_SPACE
0
BLOCK_RECORD
5
1B
100
AcDbSymbolTableRecord
100
AcDbBlockTableRecord
2
*PAPER_SPACE
0
ENDTAB
0
ENDSEC
0
SECTION
2
BLOCKS
0
BLOCK
5
20
100
AcDbEntity
100
AcDbBlockBegin
2
*MODEL_SPACE
0
ENDBLK
5
21
100
AcDbEntity
100
AcDbBlockEnd
0
BLOCK
5
1C
100
AcDbEntity
100
AcDbBlockBegin
2
*PAPER_SPACE
0
ENDBLK
5
1D
100
AcDbEntity
100
AcDbBlockEnd
0
ENDSEC
0
SECTION
2
ENTITIES
0
LWPOLYLINE
5
100
100
AcDbEntity
8
0
100
AcDbPolyline
90
16
70
1
43
0.0
10
-27.714581693582719
20
17.913736671887584
10
-48.95000462278874
20
39.14915952497104
10
-55
20
34.072610635328829
10
-55
20
1.0000000000000053
10
-32.984845004941299
20
0.99999999999998135
42
1.0307764064044158
10
32.984845004941299
20
0.9999999999999708
10
55
20
1.0000000000000049
10
55
20
34.072610635328829
10
48.95000462278874
20
39.14915952497104
10
27.714581693582726
20
17.913736671887584
42
0.0092637861663268858
10
27.031932506200075
20
18.928143727799739
10
48.027239868423088
20
39.92345109002266
10
41.977244466977375
20
45
10
-41.977244466977375
20
45
10
-48.027239868423088
20
39.92345109002266
10
-27.031932506200064
20
18.92814372779975
42
0.0092637861663261364
0
CIRCLE
5
101
100
AcDbEntity
8
0
100
AcDbCircle
10
0
20
42.000000521540642
30
0
40
1.05
210
0
220
0
230
1
0
CIRCLE
5
102
100
AcDbEntity
8
0
100
AcDbCircle
10
-32.278870824215595
20
6.861085796986063
30
0
40
1.0499999999999998
210
0
220
0
230
1
0
CIRCLE
5
103
100
AcDbEntity
8
0
100
AcDbCircle
10
32.278870824215588
20
6.8610857969860692
30
0
40
1.0499999999999998
210
0
220
0
230
1
0
CIRCLE
5
104
100
AcDbEntity
8
0
100
AcDbCircle
10
0
20
35.000000521540642
30
0
40
1.05
210
0
220
0
230
1
0
CIRCLE
5
105
100
AcDbEntity
8
0
100
AcDbCircle
10
45
20
10.999999999999998
30
0
40
7.9999999999999982
210
0
220
0
230
1
0
CIRCLE
5
106
100
AcDbEntity
8
0
100
AcDbCircle
10
30.14700010220583
20
13.422309221501422
30
0
40
1.0499999999999998
210
0
220
0
230
1
0
CIRCLE
5
107
100
AcDbEntity
8
0
100
AcDbCircle
10
-30.147000102205833
20
13.422309221501409
30
0
40
1.0499999999999998
210
0
220
0
230
1
0
CIRCLE
5
108
100
AcDbEntity
8
0
100
AcDbCircle
10
0
20
-31.100000000000001
30
0
40
1.05
210
0
220
0
230
1
0
CIRCLE
5
109
100
AcDbEntity
8
0
100
AcDbCircle
10
0
20
0
30
0
40
28.000000000000004
210
0
220
0
230
1
0
LWPOLYLINE
5
110
100
AcDbEntity
8
0
100
AcDbPolyline
90
16
70
1
43
0.0
10
-48.95000462278874
20
39.14915952497104
10
-27.714581693582765
20
17.913736671887513
42
-0.0092637861663224103
10
-27.031932506200068
20
18.928143727799743
10
-48.027239868423088
20
39.92345109002266
10
-41.977244466977375
20
45
10
41.977244466977375
20
45
10
48.027239868423088
20
39.92345109002266
10
27.031932506199645
20
18.928143727799277
42
-0.0092637861663276283
10
27.714581693582716
20
17.913736671887587
10
48.95000462278874
20
39.14915952497104
10
55
20
34.072610635328829
10
55
20
1.0000000000000053
10
32.984845004971092
20
1.000000000000967
42
-1.0307764064047285
10
-32.984845004941292
20
0.99999999999996858
10
-55
20
1.0000000000000049
10
-55
20
34.072610635328829
0
CIRCLE
5
111
100
AcDbEntity
8
0
100
AcDbCircle
10
1.4908074774666602e-11
20
-1.0018652574217413e-11
30
0
40
28.000000000000004
210
0
220
0
230
1
0
CIRCLE
5
112
100
AcDbEntity
8
0
100
AcDbCircle
10
0
20
-31.100000000000001
30
0
40
1.05
210
0
220
-0
230
1
0
CIRCLE
5
113
100
AcDbEntity
8
0
100
AcDbCircle
10
-30.147000102205833
20
13.422309221501409
30
0
40
1.0499999999999998
210
0
220
-0
230
1
0
CIRCLE
5
114
100
AcDbEntity
8
0
100
AcDbCircle
10
30.14700010220583
20
13.422309221501422
30
0
40
1.0499999999999998
210
0
220
-0
230
1
0
CIRCLE
5
115
100
AcDbEntity
8
0
100
AcDbCircle
10
45
20
10.999999999999998
30
0
40
7.9999999999999982
210
0
220
-0
230
1
0
CIRCLE
5
116
100
AcDbEntity
8
0
100
AcDbCircle
10
0
20
35.000000521540642
30
0
40
1.05
210
0
220
-0
230
1
0
CIRCLE
5
117
100
AcDbEntity
8
0
100
AcDbCircle
10
32.278870824215588
20
6.8610857969860692
30
0
40
1.0499999999999998
210
0
220
-0
230
1
0
CIRCLE
5
118
100
AcDbEntity
8
0
100
AcDbCircle
10
-32.278870824215595
20
6.861085796986063
30
0
40
1.0499999999999998
210
0
220
-0
230
1
0
CIRCLE
5
119
100
AcDbEntity
8
0
100
AcDbCircle
10
0
20
42.000000521540642
30
0
40
1.05
210
0
220
-0
230
1
0
ENDSEC
0
SECTION
2
OBJECTS
0
DICTIONARY
5
C
100
AcDbDictionary
3
ACAD_GROUP
350
D
3
ACAD_MLINESTYLE
350
17
0
DICTIONARY
5
D
100
AcDbDictionary
0
DICTIONARY
5
1A
330
C
100
AcDbDictionary
0
DICTIONARY
5
17
100
AcDbDictionary
0
ENDSEC
0
EOF
