G04 #@! TF.GenerationSoftware,KiCad,Pcbnew,8.0.8*
G04 #@! TF.CreationDate,2025-04-27T17:47:22+09:00*
G04 #@! TF.ProjectId,Akira_board,416b6972-615f-4626-9f61-72642e6b6963,rev?*
G04 #@! TF.SameCoordinates,Original*
G04 #@! TF.FileFunction,Soldermask,Bot*
G04 #@! TF.FilePolarity,Negative*
%FSLAX46Y46*%
G04 Gerber Fmt 4.6, Leading zero omitted, Abs format (unit mm)*
G04 Created by KiCad (PCBNEW 8.0.8) date 2025-04-27 17:47:22*
%MOMM*%
%LPD*%
G01*
G04 APERTURE LIST*
G04 Aperture macros list*
%AMHorizOval*
0 Thick line with rounded ends*
0 $1 width*
0 $2 $3 position (X,Y) of the first rounded end (center of the circle)*
0 $4 $5 position (X,Y) of the second rounded end (center of the circle)*
0 Add line between two ends*
20,1,$1,$2,$3,$4,$5,0*
0 Add two circle primitives to create the rounded ends*
1,1,$1,$2,$3*
1,1,$1,$4,$5*%
%AMRotRect*
0 Rectangle, with rotation*
0 The origin of the aperture is its center*
0 $1 length*
0 $2 width*
0 $3 Rotation angle, in degrees counterclockwise*
0 Add horizontal line*
21,1,$1,$2,0,0,$3*%
G04 Aperture macros list end*
%ADD10RotRect,1.600000X1.600000X310.000000*%
%ADD11HorizOval,1.600000X0.000000X0.000000X0.000000X0.000000X0*%
%ADD12C,2.700000*%
%ADD13RotRect,1.600000X1.600000X230.000000*%
%ADD14HorizOval,1.600000X0.000000X0.000000X0.000000X0.000000X0*%
%ADD15C,1.600000*%
%ADD16C,2.200000*%
%ADD17C,2.600000*%
%ADD18C,1.850000*%
%ADD19HorizOval,1.600000X0.000000X0.000000X0.000000X0.000000X0*%
%ADD20C,1.500000*%
%ADD21R,1.600000X1.600000*%
%ADD22O,1.600000X1.600000*%
%ADD23RotRect,1.600000X1.600000X320.000000*%
%ADD24HorizOval,1.600000X0.000000X0.000000X0.000000X0.000000X0*%
%ADD25C,2.000000*%
%ADD26RotRect,1.600000X1.600000X315.000000*%
%ADD27HorizOval,1.600000X0.000000X0.000000X0.000000X0.000000X0*%
%ADD28HorizOval,1.600000X0.000000X0.000000X0.000000X0.000000X0*%
%ADD29R,2.000000X2.000000*%
%ADD30R,2.000000X3.200000*%
%ADD31C,5.400000*%
%ADD32C,4.400000*%
%ADD33C,6.400000*%
%ADD34HorizOval,1.600000X0.000000X0.000000X0.000000X0.000000X0*%
%ADD35HorizOval,1.600000X0.000000X0.000000X0.000000X0.000000X0*%
%ADD36HorizOval,1.600000X0.000000X0.000000X0.000000X0.000000X0*%
%ADD37RotRect,1.600000X1.600000X300.000000*%
%ADD38HorizOval,1.600000X0.000000X0.000000X0.000000X0.000000X0*%
%ADD39HorizOval,1.600000X0.000000X0.000000X0.000000X0.000000X0*%
%ADD40HorizOval,1.600000X0.000000X0.000000X0.000000X0.000000X0*%
%ADD41RotRect,1.600000X1.600000X305.000000*%
%ADD42HorizOval,1.600000X0.000000X0.000000X0.000000X0.000000X0*%
%ADD43RotRect,1.600000X1.600000X235.000000*%
%ADD44HorizOval,1.600000X0.000000X0.000000X0.000000X0.000000X0*%
%ADD45RotRect,1.200000X1.200000X305.000000*%
%ADD46C,1.200000*%
%ADD47HorizOval,1.600000X0.000000X0.000000X0.000000X0.000000X0*%
%ADD48HorizOval,1.600000X0.000000X0.000000X0.000000X0.000000X0*%
%ADD49C,0.700000*%
%ADD50O,0.900000X2.400000*%
%ADD51O,0.900000X1.700000*%
%ADD52HorizOval,1.600000X0.000000X0.000000X0.000000X0.000000X0*%
%ADD53R,1.700000X1.700000*%
%ADD54O,1.700000X1.700000*%
%ADD55HorizOval,1.600000X0.000000X0.000000X0.000000X0.000000X0*%
%ADD56HorizOval,1.600000X0.000000X0.000000X0.000000X0.000000X0*%
%ADD57HorizOval,1.600000X0.000000X0.000000X0.000000X0.000000X0*%
%ADD58C,2.010000*%
%ADD59R,1.200000X1.200000*%
G04 APERTURE END LIST*
D10*
X125201958Y-70362742D03*
D11*
X130100000Y-76200000D03*
D12*
X99000000Y-104000000D03*
D13*
X174532057Y-69998102D03*
D14*
X169634015Y-75835363D03*
D15*
X183000000Y-119000000D03*
X185165064Y-120250000D03*
D16*
X115380001Y-55954999D03*
D17*
X124190002Y-58495000D03*
D18*
X116610001Y-58495000D03*
X117880002Y-55954997D03*
X119150004Y-58494998D03*
X120420003Y-55955000D03*
X121690000Y-58494999D03*
X122960002Y-55955005D03*
D15*
X164800000Y-68250000D03*
D19*
X168020352Y-61343933D03*
D12*
X177500000Y-119500000D03*
D15*
X148440950Y-62402380D03*
X148549998Y-64900001D03*
D20*
X183999998Y-82550000D03*
X183999993Y-87430003D03*
D12*
X192000000Y-57000000D03*
D21*
X191880000Y-63660000D03*
D22*
X191880000Y-66200000D03*
X191880000Y-68740000D03*
X191880000Y-71280000D03*
X191880000Y-73820000D03*
X191880000Y-76360000D03*
X191880000Y-78900000D03*
X191880000Y-81440000D03*
X191880000Y-83980000D03*
X191880000Y-86520000D03*
X191880000Y-89060000D03*
X191880000Y-91600000D03*
X191880000Y-94140000D03*
X191880000Y-96680000D03*
X199500000Y-96680000D03*
X199500000Y-94140000D03*
X199500000Y-91600000D03*
X199500000Y-89060000D03*
X199500000Y-86520000D03*
X199500000Y-83980000D03*
X199500000Y-81440000D03*
X199500000Y-78900000D03*
X199500000Y-76360000D03*
X199500000Y-73820000D03*
X199500000Y-71280000D03*
X199500000Y-68740000D03*
X199500000Y-66200000D03*
X199500000Y-63660000D03*
D23*
X120429087Y-75115013D03*
D24*
X126266346Y-80013054D03*
D12*
X122500000Y-119500000D03*
D25*
X158000003Y-115750001D03*
X151500006Y-115749994D03*
X157999999Y-111249999D03*
X151500000Y-111250004D03*
D26*
X122711846Y-72611847D03*
D27*
X128100000Y-78000000D03*
D15*
X143553527Y-62954186D03*
X143987647Y-65416205D03*
X159000000Y-66200000D03*
D28*
X160972198Y-58839643D03*
D12*
X150000000Y-133500000D03*
D25*
X148500004Y-115750004D03*
X142000007Y-115749997D03*
X148500000Y-111250002D03*
X142000001Y-111250007D03*
D15*
X185250000Y-77250000D03*
X182750000Y-77250000D03*
X173767765Y-76282233D03*
X171999998Y-78050000D03*
D12*
X201000000Y-104000000D03*
D29*
X112000000Y-107000000D03*
D25*
X107000000Y-107000000D03*
X109500000Y-107000000D03*
D30*
X115100000Y-114500000D03*
X103900000Y-114500000D03*
D25*
X107000000Y-121500000D03*
X112000000Y-121500000D03*
X200198348Y-137170064D03*
X193000000Y-130000000D03*
X196599174Y-133585032D03*
D31*
X121160000Y-103050000D03*
D32*
X126700000Y-94180000D03*
D33*
X129900000Y-112075000D03*
D32*
X139750000Y-71800000D03*
D33*
X149575000Y-76550000D03*
D32*
X160270000Y-71830000D03*
D33*
X170500000Y-111400000D03*
D32*
X173560000Y-95410000D03*
D31*
X178840000Y-103025000D03*
D16*
X147500000Y-130000000D03*
X152500000Y-130000000D03*
X150000000Y-130000000D03*
D15*
X133626945Y-60610864D03*
D34*
X136542993Y-67650827D03*
D15*
X157381567Y-57973330D03*
D35*
X156058370Y-65477567D03*
D25*
X194584740Y-142585032D03*
X187386392Y-135414968D03*
X190985566Y-139000000D03*
D15*
X191210355Y-111072201D03*
D36*
X183850000Y-109100000D03*
D37*
X130639999Y-66500887D03*
D38*
X134450000Y-73100000D03*
D15*
X137158622Y-59282677D03*
D39*
X139450000Y-66550000D03*
D15*
X117323357Y-79155777D03*
D40*
X123750000Y-83250000D03*
D15*
X148300000Y-60200000D03*
X148190952Y-57702379D03*
D41*
X127800000Y-68300000D03*
D42*
X132170653Y-74541938D03*
D43*
X171844153Y-67898672D03*
D44*
X167473500Y-74140613D03*
D25*
X106829938Y-142198348D03*
X114000000Y-135000000D03*
X110414969Y-138599174D03*
D45*
X176289637Y-80721271D03*
D46*
X177150000Y-81950000D03*
D15*
X164550217Y-59886046D03*
D47*
X161944024Y-67046506D03*
D15*
X185200000Y-114500000D03*
X187509699Y-115456709D03*
X153692816Y-57521118D03*
D48*
X153028691Y-65112123D03*
D15*
X143200000Y-60800000D03*
X142765880Y-58337981D03*
D49*
X176325000Y-54075000D03*
X177175000Y-54075000D03*
X178025000Y-54075000D03*
X178875000Y-54075000D03*
X179725000Y-54075000D03*
X180575000Y-54075000D03*
X181425000Y-54075000D03*
X182275000Y-54075000D03*
X182275000Y-55425000D03*
X181425000Y-55425000D03*
X180575000Y-55425000D03*
X179725000Y-55425000D03*
X178875000Y-55425000D03*
X178025000Y-55425000D03*
X177175000Y-55425000D03*
X176325000Y-55425000D03*
D50*
X174975000Y-55055000D03*
D51*
X174975000Y-58435000D03*
D50*
X183625000Y-55055000D03*
D51*
X183625000Y-58435000D03*
D15*
X175500000Y-74500000D03*
X177267767Y-72732233D03*
X122100000Y-86300000D03*
D52*
X115265829Y-82929760D03*
D53*
X108800000Y-98100001D03*
D54*
X106260000Y-98100001D03*
X103720000Y-98100001D03*
X101180000Y-98100001D03*
D15*
X192054235Y-107423199D03*
D55*
X184550000Y-106100000D03*
D15*
X192541004Y-103664127D03*
D56*
X184950000Y-103000000D03*
D15*
X113639542Y-86793807D03*
D57*
X120800000Y-89400000D03*
D12*
X108000000Y-57000000D03*
D15*
X185200000Y-92800000D03*
X182700000Y-92800000D03*
D58*
X171900000Y-56200000D03*
X166800002Y-54999998D03*
D25*
X99829938Y-135599174D03*
X107000000Y-128400826D03*
X103414969Y-132000000D03*
D59*
X155350000Y-92310000D03*
D46*
X155350000Y-94090000D03*
X155350000Y-95870000D03*
X155350000Y-97650000D03*
X155350000Y-99430000D03*
X155350000Y-101210000D03*
X155350000Y-102990000D03*
X155350000Y-104770000D03*
X144650000Y-105660000D03*
X144650000Y-103880000D03*
X144650000Y-102100000D03*
X144650000Y-100320000D03*
X144650000Y-98540000D03*
X144650000Y-96760000D03*
X144650000Y-94980000D03*
X144650000Y-93200000D03*
M02*
