G04 #@! TF.GenerationSoftware,KiCad,Pcbnew,8.0.8*
G04 #@! TF.CreationDate,2025-04-27T17:47:22+09:00*
G04 #@! TF.ProjectId,Akira_board,416b6972-615f-4626-9f61-72642e6b6963,rev?*
G04 #@! TF.SameCoordinates,Original*
G04 #@! TF.FileFunction,Copper,L2,Bot*
G04 #@! TF.FilePolarity,Positive*
%FSLAX46Y46*%
G04 Gerber Fmt 4.6, Leading zero omitted, Abs format (unit mm)*
G04 Created by KiCad (PCBNEW 8.0.8) date 2025-04-27 17:47:22*
%MOMM*%
%LPD*%
G01*
G04 APERTURE LIST*
G04 Aperture macros list*
%AMHorizOval*
0 Thick line with rounded ends*
0 $1 width*
0 $2 $3 position (X,Y) of the first rounded end (center of the circle)*
0 $4 $5 position (X,Y) of the second rounded end (center of the circle)*
0 Add line between two ends*
20,1,$1,$2,$3,$4,$5,0*
0 Add two circle primitives to create the rounded ends*
1,1,$1,$2,$3*
1,1,$1,$4,$5*%
%AMRotRect*
0 Rectangle, with rotation*
0 The origin of the aperture is its center*
0 $1 length*
0 $2 width*
0 $3 Rotation angle, in degrees counterclockwise*
0 Add horizontal line*
21,1,$1,$2,0,0,$3*%
G04 Aperture macros list end*
G04 #@! TA.AperFunction,ComponentPad*
%ADD10RotRect,1.600000X1.600000X310.000000*%
G04 #@! TD*
G04 #@! TA.AperFunction,ComponentPad*
%ADD11HorizOval,1.600000X0.000000X0.000000X0.000000X0.000000X0*%
G04 #@! TD*
G04 #@! TA.AperFunction,ComponentPad*
%ADD12C,2.700000*%
G04 #@! TD*
G04 #@! TA.AperFunction,ComponentPad*
%ADD13RotRect,1.600000X1.600000X230.000000*%
G04 #@! TD*
G04 #@! TA.AperFunction,ComponentPad*
%ADD14HorizOval,1.600000X0.000000X0.000000X0.000000X0.000000X0*%
G04 #@! TD*
G04 #@! TA.AperFunction,ComponentPad*
%ADD15C,1.600000*%
G04 #@! TD*
G04 #@! TA.AperFunction,ComponentPad*
%ADD16C,2.200000*%
G04 #@! TD*
G04 #@! TA.AperFunction,ComponentPad*
%ADD17C,2.600000*%
G04 #@! TD*
G04 #@! TA.AperFunction,ComponentPad*
%ADD18C,1.850000*%
G04 #@! TD*
G04 #@! TA.AperFunction,ComponentPad*
%ADD19HorizOval,1.600000X0.000000X0.000000X0.000000X0.000000X0*%
G04 #@! TD*
G04 #@! TA.AperFunction,ComponentPad*
%ADD20C,1.500000*%
G04 #@! TD*
G04 #@! TA.AperFunction,ComponentPad*
%ADD21R,1.600000X1.600000*%
G04 #@! TD*
G04 #@! TA.AperFunction,ComponentPad*
%ADD22O,1.600000X1.600000*%
G04 #@! TD*
G04 #@! TA.AperFunction,ComponentPad*
%ADD23RotRect,1.600000X1.600000X320.000000*%
G04 #@! TD*
G04 #@! TA.AperFunction,ComponentPad*
%ADD24HorizOval,1.600000X0.000000X0.000000X0.000000X0.000000X0*%
G04 #@! TD*
G04 #@! TA.AperFunction,ComponentPad*
%ADD25C,2.000000*%
G04 #@! TD*
G04 #@! TA.AperFunction,ComponentPad*
%ADD26RotRect,1.600000X1.600000X315.000000*%
G04 #@! TD*
G04 #@! TA.AperFunction,ComponentPad*
%ADD27HorizOval,1.600000X0.000000X0.000000X0.000000X0.000000X0*%
G04 #@! TD*
G04 #@! TA.AperFunction,ComponentPad*
%ADD28HorizOval,1.600000X0.000000X0.000000X0.000000X0.000000X0*%
G04 #@! TD*
G04 #@! TA.AperFunction,ComponentPad*
%ADD29R,2.000000X2.000000*%
G04 #@! TD*
G04 #@! TA.AperFunction,ComponentPad*
%ADD30R,2.000000X3.200000*%
G04 #@! TD*
G04 #@! TA.AperFunction,ComponentPad*
%ADD31C,5.400000*%
G04 #@! TD*
G04 #@! TA.AperFunction,ComponentPad*
%ADD32C,4.400000*%
G04 #@! TD*
G04 #@! TA.AperFunction,ComponentPad*
%ADD33C,6.400000*%
G04 #@! TD*
G04 #@! TA.AperFunction,ComponentPad*
%ADD34HorizOval,1.600000X0.000000X0.000000X0.000000X0.000000X0*%
G04 #@! TD*
G04 #@! TA.AperFunction,ComponentPad*
%ADD35HorizOval,1.600000X0.000000X0.000000X0.000000X0.000000X0*%
G04 #@! TD*
G04 #@! TA.AperFunction,ComponentPad*
%ADD36HorizOval,1.600000X0.000000X0.000000X0.000000X0.000000X0*%
G04 #@! TD*
G04 #@! TA.AperFunction,ComponentPad*
%ADD37RotRect,1.600000X1.600000X300.000000*%
G04 #@! TD*
G04 #@! TA.AperFunction,ComponentPad*
%ADD38HorizOval,1.600000X0.000000X0.000000X0.000000X0.000000X0*%
G04 #@! TD*
G04 #@! TA.AperFunction,ComponentPad*
%ADD39HorizOval,1.600000X0.000000X0.000000X0.000000X0.000000X0*%
G04 #@! TD*
G04 #@! TA.AperFunction,ComponentPad*
%ADD40HorizOval,1.600000X0.000000X0.000000X0.000000X0.000000X0*%
G04 #@! TD*
G04 #@! TA.AperFunction,ComponentPad*
%ADD41RotRect,1.600000X1.600000X305.000000*%
G04 #@! TD*
G04 #@! TA.AperFunction,ComponentPad*
%ADD42HorizOval,1.600000X0.000000X0.000000X0.000000X0.000000X0*%
G04 #@! TD*
G04 #@! TA.AperFunction,ComponentPad*
%ADD43RotRect,1.600000X1.600000X235.000000*%
G04 #@! TD*
G04 #@! TA.AperFunction,ComponentPad*
%ADD44HorizOval,1.600000X0.000000X0.000000X0.000000X0.000000X0*%
G04 #@! TD*
G04 #@! TA.AperFunction,ComponentPad*
%ADD45RotRect,1.200000X1.200000X305.000000*%
G04 #@! TD*
G04 #@! TA.AperFunction,ComponentPad*
%ADD46C,1.200000*%
G04 #@! TD*
G04 #@! TA.AperFunction,ComponentPad*
%ADD47HorizOval,1.600000X0.000000X0.000000X0.000000X0.000000X0*%
G04 #@! TD*
G04 #@! TA.AperFunction,ComponentPad*
%ADD48HorizOval,1.600000X0.000000X0.000000X0.000000X0.000000X0*%
G04 #@! TD*
G04 #@! TA.AperFunction,ComponentPad*
%ADD49C,0.700000*%
G04 #@! TD*
G04 #@! TA.AperFunction,ComponentPad*
%ADD50O,0.900000X2.400000*%
G04 #@! TD*
G04 #@! TA.AperFunction,ComponentPad*
%ADD51O,0.900000X1.700000*%
G04 #@! TD*
G04 #@! TA.AperFunction,ComponentPad*
%ADD52HorizOval,1.600000X0.000000X0.000000X0.000000X0.000000X0*%
G04 #@! TD*
G04 #@! TA.AperFunction,ComponentPad*
%ADD53R,1.700000X1.700000*%
G04 #@! TD*
G04 #@! TA.AperFunction,ComponentPad*
%ADD54O,1.700000X1.700000*%
G04 #@! TD*
G04 #@! TA.AperFunction,ComponentPad*
%ADD55HorizOval,1.600000X0.000000X0.000000X0.000000X0.000000X0*%
G04 #@! TD*
G04 #@! TA.AperFunction,ComponentPad*
%ADD56HorizOval,1.600000X0.000000X0.000000X0.000000X0.000000X0*%
G04 #@! TD*
G04 #@! TA.AperFunction,ComponentPad*
%ADD57HorizOval,1.600000X0.000000X0.000000X0.000000X0.000000X0*%
G04 #@! TD*
G04 #@! TA.AperFunction,ComponentPad*
%ADD58C,2.010000*%
G04 #@! TD*
G04 #@! TA.AperFunction,ComponentPad*
%ADD59R,1.200000X1.200000*%
G04 #@! TD*
G04 #@! TA.AperFunction,ViaPad*
%ADD60C,0.400000*%
G04 #@! TD*
G04 #@! TA.AperFunction,ViaPad*
%ADD61C,0.800000*%
G04 #@! TD*
G04 #@! TA.AperFunction,Conductor*
%ADD62C,0.200000*%
G04 #@! TD*
G04 #@! TA.AperFunction,Conductor*
%ADD63C,0.250000*%
G04 #@! TD*
G04 #@! TA.AperFunction,Conductor*
%ADD64C,0.300000*%
G04 #@! TD*
G04 APERTURE END LIST*
D10*
X125201958Y-70362742D03*
D11*
X130100000Y-76200000D03*
D12*
X99000000Y-104000000D03*
D13*
X174532057Y-69998102D03*
D14*
X169634015Y-75835363D03*
D15*
X183000000Y-119000000D03*
X185165064Y-120250000D03*
D16*
X115380001Y-55954999D03*
D17*
X124190002Y-58495000D03*
D18*
X116610001Y-58495000D03*
X117880002Y-55954997D03*
X119150004Y-58494998D03*
X120420003Y-55955000D03*
X121690000Y-58494999D03*
X122960002Y-55955005D03*
D15*
X164800000Y-68250000D03*
D19*
X168020352Y-61343933D03*
D12*
X177500000Y-119500000D03*
D15*
X148440950Y-62402380D03*
X148549998Y-64900001D03*
D20*
X183999998Y-82550000D03*
X183999993Y-87430003D03*
D12*
X192000000Y-57000000D03*
D21*
X191880000Y-63660000D03*
D22*
X191880000Y-66200000D03*
X191880000Y-68740000D03*
X191880000Y-71280000D03*
X191880000Y-73820000D03*
X191880000Y-76360000D03*
X191880000Y-78900000D03*
X191880000Y-81440000D03*
X191880000Y-83980000D03*
X191880000Y-86520000D03*
X191880000Y-89060000D03*
X191880000Y-91600000D03*
X191880000Y-94140000D03*
X191880000Y-96680000D03*
X199500000Y-96680000D03*
X199500000Y-94140000D03*
X199500000Y-91600000D03*
X199500000Y-89060000D03*
X199500000Y-86520000D03*
X199500000Y-83980000D03*
X199500000Y-81440000D03*
X199500000Y-78900000D03*
X199500000Y-76360000D03*
X199500000Y-73820000D03*
X199500000Y-71280000D03*
X199500000Y-68740000D03*
X199500000Y-66200000D03*
X199500000Y-63660000D03*
D23*
X120429087Y-75115013D03*
D24*
X126266346Y-80013054D03*
D12*
X122500000Y-119500000D03*
D25*
X158000003Y-115750001D03*
X151500006Y-115749994D03*
X157999999Y-111249999D03*
X151500000Y-111250004D03*
D26*
X122711846Y-72611847D03*
D27*
X128100000Y-78000000D03*
D15*
X143553527Y-62954186D03*
X143987647Y-65416205D03*
X159000000Y-66200000D03*
D28*
X160972198Y-58839643D03*
D12*
X150000000Y-133500000D03*
D25*
X148500004Y-115750004D03*
X142000007Y-115749997D03*
X148500000Y-111250002D03*
X142000001Y-111250007D03*
D15*
X185250000Y-77250000D03*
X182750000Y-77250000D03*
X173767765Y-76282233D03*
X171999998Y-78050000D03*
D12*
X201000000Y-104000000D03*
D29*
X112000000Y-107000000D03*
D25*
X107000000Y-107000000D03*
X109500000Y-107000000D03*
D30*
X115100000Y-114500000D03*
X103900000Y-114500000D03*
D25*
X107000000Y-121500000D03*
X112000000Y-121500000D03*
X200198348Y-137170064D03*
X193000000Y-130000000D03*
X196599174Y-133585032D03*
D31*
X121160000Y-103050000D03*
D32*
X126700000Y-94180000D03*
D33*
X129900000Y-112075000D03*
D32*
X139750000Y-71800000D03*
D33*
X149575000Y-76550000D03*
D32*
X160270000Y-71830000D03*
D33*
X170500000Y-111400000D03*
D32*
X173560000Y-95410000D03*
D31*
X178840000Y-103025000D03*
D16*
X147500000Y-130000000D03*
X152500000Y-130000000D03*
X150000000Y-130000000D03*
D15*
X133626945Y-60610864D03*
D34*
X136542993Y-67650827D03*
D15*
X157381567Y-57973330D03*
D35*
X156058370Y-65477567D03*
D25*
X194584740Y-142585032D03*
X187386392Y-135414968D03*
X190985566Y-139000000D03*
D15*
X191210355Y-111072201D03*
D36*
X183850000Y-109100000D03*
D37*
X130639999Y-66500887D03*
D38*
X134450000Y-73100000D03*
D15*
X137158622Y-59282677D03*
D39*
X139450000Y-66550000D03*
D15*
X117323357Y-79155777D03*
D40*
X123750000Y-83250000D03*
D15*
X148300000Y-60200000D03*
X148190952Y-57702379D03*
D41*
X127800000Y-68300000D03*
D42*
X132170653Y-74541938D03*
D43*
X171844153Y-67898672D03*
D44*
X167473500Y-74140613D03*
D25*
X106829938Y-142198348D03*
X114000000Y-135000000D03*
X110414969Y-138599174D03*
D45*
X176289637Y-80721271D03*
D46*
X177150000Y-81950000D03*
D15*
X164550217Y-59886046D03*
D47*
X161944024Y-67046506D03*
D15*
X185200000Y-114500000D03*
X187509699Y-115456709D03*
X153692816Y-57521118D03*
D48*
X153028691Y-65112123D03*
D15*
X143200000Y-60800000D03*
X142765880Y-58337981D03*
D49*
X176325000Y-54075000D03*
X177175000Y-54075000D03*
X178025000Y-54075000D03*
X178875000Y-54075000D03*
X179725000Y-54075000D03*
X180575000Y-54075000D03*
X181425000Y-54075000D03*
X182275000Y-54075000D03*
X182275000Y-55425000D03*
X181425000Y-55425000D03*
X180575000Y-55425000D03*
X179725000Y-55425000D03*
X178875000Y-55425000D03*
X178025000Y-55425000D03*
X177175000Y-55425000D03*
X176325000Y-55425000D03*
D50*
X174975000Y-55055000D03*
D51*
X174975000Y-58435000D03*
D50*
X183625000Y-55055000D03*
D51*
X183625000Y-58435000D03*
D15*
X175500000Y-74500000D03*
X177267767Y-72732233D03*
X122100000Y-86300000D03*
D52*
X115265829Y-82929760D03*
D53*
X108800000Y-98100001D03*
D54*
X106260000Y-98100001D03*
X103720000Y-98100001D03*
X101180000Y-98100001D03*
D15*
X192054235Y-107423199D03*
D55*
X184550000Y-106100000D03*
D15*
X192541004Y-103664127D03*
D56*
X184950000Y-103000000D03*
D15*
X113639542Y-86793807D03*
D57*
X120800000Y-89400000D03*
D12*
X108000000Y-57000000D03*
D15*
X185200000Y-92800000D03*
X182700000Y-92800000D03*
D58*
X171900000Y-56200000D03*
X166800002Y-54999998D03*
D25*
X99829938Y-135599174D03*
X107000000Y-128400826D03*
X103414969Y-132000000D03*
D59*
X155350000Y-92310000D03*
D46*
X155350000Y-94090000D03*
X155350000Y-95870000D03*
X155350000Y-97650000D03*
X155350000Y-99430000D03*
X155350000Y-101210000D03*
X155350000Y-102990000D03*
X155350000Y-104770000D03*
X144650000Y-105660000D03*
X144650000Y-103880000D03*
X144650000Y-102100000D03*
X144650000Y-100320000D03*
X144650000Y-98540000D03*
X144650000Y-96760000D03*
X144650000Y-94980000D03*
X144650000Y-93200000D03*
D60*
X127550000Y-118200000D03*
X116850000Y-127600000D03*
X114750000Y-124700000D03*
X178850000Y-131200000D03*
D61*
X147750000Y-126899999D03*
X159050000Y-141900000D03*
X194700000Y-69100000D03*
X194700000Y-71450000D03*
X156550000Y-143750000D03*
X153350000Y-140800000D03*
X157100000Y-99200000D03*
X174300000Y-98950000D03*
X173000000Y-108100000D03*
X183650000Y-137464968D03*
X193050000Y-134400000D03*
X150100000Y-135675000D03*
X174150000Y-135525000D03*
X164750000Y-136400000D03*
X192250000Y-133600000D03*
X146900000Y-136450000D03*
X180600000Y-136250000D03*
X171600000Y-119950000D03*
X148700000Y-119800000D03*
X163900000Y-119850000D03*
X118700000Y-71100000D03*
X113500000Y-64950000D03*
X127400000Y-86450000D03*
X179325000Y-85600000D03*
X170130025Y-89619975D03*
X196100000Y-87950000D03*
X132979977Y-67399922D03*
X142650000Y-86750000D03*
X123400000Y-68450000D03*
X127350000Y-89600000D03*
X120550000Y-70600000D03*
X115050000Y-79050000D03*
X117150000Y-76550000D03*
X119307329Y-60734199D03*
X173795279Y-90319974D03*
X113800000Y-81150000D03*
X117600000Y-73900000D03*
X120450000Y-114300000D03*
X196600000Y-115450000D03*
X173950000Y-60611046D03*
X119909943Y-69831084D03*
X131300000Y-61000000D03*
X126150000Y-65850000D03*
X111750000Y-73100000D03*
X132600000Y-62600000D03*
X189850000Y-115500000D03*
X177850000Y-61200000D03*
X108550000Y-71450000D03*
X120000000Y-67000000D03*
X150050000Y-125250000D03*
X115100000Y-61850000D03*
X113950000Y-71650000D03*
X128550000Y-58100000D03*
X96700000Y-98200000D03*
X136250000Y-111400000D03*
X185300000Y-73100000D03*
X122650000Y-114350000D03*
X117200000Y-68700000D03*
X120000000Y-65800000D03*
X168700000Y-66550000D03*
X157950000Y-68300000D03*
X167950000Y-65500000D03*
X180500000Y-67050000D03*
X180300000Y-88750000D03*
X169305025Y-88794975D03*
X180350000Y-74950000D03*
X143850000Y-87450000D03*
X133169975Y-66219975D03*
X144950000Y-88050000D03*
X133450000Y-64950000D03*
X191450000Y-129350000D03*
X175850000Y-126050000D03*
X162900000Y-138000000D03*
X182600000Y-126050000D03*
X106450000Y-123900000D03*
X102850000Y-123650000D03*
X110200000Y-69750000D03*
X115350000Y-74300000D03*
X177900000Y-85400000D03*
X129800000Y-84700000D03*
X178081824Y-59142870D03*
X172300000Y-62468933D03*
X173800000Y-65150000D03*
X176950000Y-59161046D03*
X172100000Y-59050000D03*
X129250000Y-60050000D03*
X179350000Y-98350000D03*
X124326445Y-61323555D03*
X138100000Y-92100000D03*
X162312719Y-106600000D03*
X140200000Y-93050000D03*
X161400000Y-105350000D03*
X122300000Y-69900000D03*
X139216667Y-87733333D03*
X116000000Y-65950000D03*
X179744975Y-94955025D03*
X109950000Y-73850000D03*
X108600000Y-75600000D03*
X117300000Y-67250000D03*
X107650000Y-77500000D03*
X133800000Y-88450000D03*
X127900000Y-65050000D03*
X124150000Y-66150000D03*
X141785562Y-91458555D03*
X142300000Y-89550000D03*
X119500000Y-72000000D03*
X123650000Y-116900000D03*
X119050000Y-122600000D03*
X164500000Y-121200000D03*
X185050000Y-135550000D03*
X167650000Y-123600000D03*
X137250000Y-86900000D03*
X181955025Y-135294975D03*
X187300000Y-138164968D03*
X177650000Y-132150000D03*
X120146608Y-122487287D03*
X167900000Y-115050000D03*
X137600000Y-89600000D03*
X197300000Y-139500000D03*
D62*
X190985566Y-139000000D02*
X186650000Y-139000000D01*
X118150000Y-127600000D02*
X127550000Y-118200000D01*
X110200000Y-124700000D02*
X114750000Y-124700000D01*
X107000000Y-121500000D02*
X110200000Y-124700000D01*
X116850000Y-127600000D02*
X118150000Y-127600000D01*
X186650000Y-139000000D02*
X178850000Y-131200000D01*
D63*
X147500000Y-130000000D02*
X147500000Y-127149999D01*
X147500000Y-127149999D02*
X147750000Y-126899999D01*
D62*
X154650000Y-138000000D02*
X154650000Y-132150000D01*
X158550000Y-141900000D02*
X154650000Y-138000000D01*
X159050000Y-141900000D02*
X158550000Y-141900000D01*
X154650000Y-132150000D02*
X152500000Y-130000000D01*
X195060000Y-68740000D02*
X199500000Y-68740000D01*
X194700000Y-69100000D02*
X195060000Y-68740000D01*
X156550000Y-143750000D02*
X153600000Y-140800000D01*
X194700000Y-71450000D02*
X195150000Y-71450000D01*
X195320000Y-71280000D02*
X199500000Y-71280000D01*
X195150000Y-71450000D02*
X195320000Y-71280000D01*
X153600000Y-140800000D02*
X153350000Y-140800000D01*
X174850000Y-110200000D02*
X173000000Y-108100000D01*
X174300000Y-98950000D02*
X157100000Y-99200000D01*
X185200000Y-114500000D02*
X174850000Y-110200000D01*
X146726040Y-135675000D02*
X150100000Y-135675000D01*
X182700000Y-137300000D02*
X182864968Y-137464968D01*
X182864968Y-137464968D02*
X183650000Y-137464968D01*
X116800520Y-105749480D02*
X146450520Y-135399480D01*
X146450520Y-135399480D02*
X146726040Y-135675000D01*
X203100000Y-67260000D02*
X199500000Y-63660000D01*
X103720000Y-98100001D02*
X103720000Y-102270000D01*
X103720000Y-102270000D02*
X104950000Y-103500000D01*
X174150000Y-135525000D02*
X180925000Y-135525000D01*
X104950000Y-103500000D02*
X114551040Y-103500000D01*
X114551040Y-103500000D02*
X116800520Y-105749480D01*
X203100000Y-124350000D02*
X203100000Y-67260000D01*
X193050000Y-134400000D02*
X203100000Y-124350000D01*
X180925000Y-135525000D02*
X182700000Y-137300000D01*
X101800000Y-104050000D02*
X101180000Y-103430000D01*
D63*
X164900000Y-136250000D02*
X164750000Y-136400000D01*
D62*
X180600000Y-136250000D02*
X164900000Y-136250000D01*
X202675000Y-123175000D02*
X192250000Y-133600000D01*
X146900000Y-136450000D02*
X114500000Y-104050000D01*
X199500000Y-66200000D02*
X202675000Y-69375000D01*
X101180000Y-103430000D02*
X101180000Y-98100001D01*
X114500000Y-104050000D02*
X101800000Y-104050000D01*
X202675000Y-69375000D02*
X202675000Y-123175000D01*
D63*
X148700000Y-119800000D02*
X148700000Y-119150000D01*
X171600000Y-119950000D02*
X164000000Y-119950000D01*
X164000000Y-119950000D02*
X163900000Y-119850000D01*
X148700000Y-119150000D02*
X148500004Y-118950004D01*
X148500004Y-118950004D02*
X148500004Y-115750004D01*
D62*
X179325000Y-85600000D02*
X191200000Y-85600000D01*
X126125000Y-85175000D02*
X123375000Y-85175000D01*
X113500000Y-64950000D02*
X113500000Y-65989950D01*
X191200000Y-85600000D02*
X191405000Y-85395000D01*
X191405000Y-85395000D02*
X195835000Y-85395000D01*
X113500000Y-65989950D02*
X118610050Y-71100000D01*
X118610050Y-71100000D02*
X118700000Y-71100000D01*
X104350000Y-74050000D02*
X113500000Y-64950000D01*
X123375000Y-85175000D02*
X122550000Y-84350000D01*
X199500000Y-89060000D02*
X195835000Y-85395000D01*
X127400000Y-86450000D02*
X126125000Y-85175000D01*
X122550000Y-84350000D02*
X104350000Y-74050000D01*
X191434365Y-87950000D02*
X196100000Y-87950000D01*
X132900000Y-67200000D02*
X142650000Y-86750000D01*
X170130025Y-89619975D02*
X189764390Y-89619975D01*
X189764390Y-89619975D02*
X191434365Y-87950000D01*
X119307329Y-63157329D02*
X123150000Y-67000000D01*
X119307329Y-60734199D02*
X119307329Y-63157329D01*
X127350000Y-89600000D02*
X112350000Y-84026434D01*
X198085000Y-90185000D02*
X190335000Y-90185000D01*
X123400000Y-67700000D02*
X123400000Y-68450000D01*
X123150000Y-67450000D02*
X123400000Y-67700000D01*
X123150000Y-67000000D02*
X123150000Y-67450000D01*
X199500000Y-91600000D02*
X198085000Y-90185000D01*
X190335000Y-90185000D02*
X190200026Y-90319974D01*
X190200026Y-90319974D02*
X173795279Y-90319974D01*
X117150000Y-76550000D02*
X115050000Y-79050000D01*
X113800000Y-81150000D02*
X112350000Y-84026434D01*
X123150000Y-67450000D02*
X120550000Y-70600000D01*
D63*
X174400000Y-81950000D02*
X177150000Y-81950000D01*
D62*
X173988954Y-60650000D02*
X177300000Y-60650000D01*
X183255000Y-55425000D02*
X183625000Y-55055000D01*
D63*
X131300000Y-61000000D02*
X132600000Y-62600000D01*
X120500000Y-114350000D02*
X120450000Y-114300000D01*
D62*
X174975000Y-55055000D02*
X174975000Y-58435000D01*
X120000000Y-67000000D02*
X120850000Y-66150000D01*
X111750000Y-73100000D02*
X111700000Y-73050000D01*
X120000000Y-67000000D02*
X120000000Y-69741027D01*
D63*
X136399993Y-111250007D02*
X136250000Y-111400000D01*
D62*
X182275000Y-54075000D02*
X182645000Y-54075000D01*
X175345000Y-55425000D02*
X174975000Y-55055000D01*
X175955000Y-54075000D02*
X174975000Y-55055000D01*
X182275000Y-55425000D02*
X182275000Y-54075000D01*
D63*
X131300000Y-61000000D02*
X128550000Y-58100000D01*
D62*
X99000000Y-104000000D02*
X99000000Y-100500000D01*
D63*
X131300000Y-61000000D02*
X130924695Y-61000000D01*
D62*
X120850000Y-66150000D02*
X120850000Y-66000000D01*
X173950000Y-60611046D02*
X173988954Y-60650000D01*
D63*
X150000000Y-130000000D02*
X150000000Y-125300000D01*
D62*
X176325000Y-54075000D02*
X175955000Y-54075000D01*
D63*
X130924695Y-61000000D02*
X126150000Y-65774695D01*
D62*
X110150000Y-73050000D02*
X108550000Y-71450000D01*
X177300000Y-60650000D02*
X177850000Y-61200000D01*
X99000000Y-100500000D02*
X96700000Y-98200000D01*
D63*
X171999998Y-78050000D02*
X171999998Y-79549998D01*
D62*
X120850000Y-65660050D02*
X117039950Y-61850000D01*
X117039950Y-61850000D02*
X115100000Y-61850000D01*
X116200000Y-73900000D02*
X113950000Y-71650000D01*
D63*
X150000000Y-125300000D02*
X150050000Y-125250000D01*
X126150000Y-65774695D02*
X126150000Y-65850000D01*
D62*
X176325000Y-55425000D02*
X176325000Y-54075000D01*
D63*
X196600000Y-115450000D02*
X189900000Y-115450000D01*
D62*
X120850000Y-66000000D02*
X120850000Y-65660050D01*
X176325000Y-55425000D02*
X175345000Y-55425000D01*
D63*
X142000001Y-111250007D02*
X136399993Y-111250007D01*
X189900000Y-115450000D02*
X189850000Y-115500000D01*
D62*
X182645000Y-54075000D02*
X183625000Y-55055000D01*
D63*
X171999998Y-79549998D02*
X174400000Y-81950000D01*
D62*
X183625000Y-55055000D02*
X183625000Y-58435000D01*
X111700000Y-73050000D02*
X110150000Y-73050000D01*
D63*
X185250000Y-77250000D02*
X185250000Y-73150000D01*
X185250000Y-73150000D02*
X185300000Y-73100000D01*
D62*
X117600000Y-73900000D02*
X116200000Y-73900000D01*
X120000000Y-69741027D02*
X119909943Y-69831084D01*
D63*
X122650000Y-114350000D02*
X120500000Y-114350000D01*
D62*
X182275000Y-55425000D02*
X183255000Y-55425000D01*
X119600000Y-66200000D02*
X120000000Y-65800000D01*
X199500000Y-83980000D02*
X196960000Y-83980000D01*
X117200000Y-68700000D02*
X119600000Y-66200000D01*
X196960000Y-83980000D02*
X191880000Y-78900000D01*
X190600000Y-70600000D02*
X190600000Y-72540000D01*
X190600000Y-72540000D02*
X191880000Y-73820000D01*
X159000000Y-66200000D02*
X157950000Y-68300000D01*
X168700000Y-66550000D02*
X169000000Y-66250000D01*
X188450000Y-68450000D02*
X190600000Y-70600000D01*
X188450000Y-66250000D02*
X188450000Y-68450000D01*
X169000000Y-66250000D02*
X188450000Y-66250000D01*
X168300000Y-65850000D02*
X188850000Y-65850000D01*
X188850000Y-65850000D02*
X188850000Y-68250000D01*
X167950000Y-65500000D02*
X168300000Y-65850000D01*
X188850000Y-68250000D02*
X191880000Y-71280000D01*
X180255025Y-88794975D02*
X180300000Y-88750000D01*
X133169975Y-66219975D02*
X143850000Y-87450000D01*
X180350000Y-74950000D02*
X180350000Y-67200000D01*
X180350000Y-67200000D02*
X180500000Y-67050000D01*
X169305025Y-88794975D02*
X180255025Y-88794975D01*
X133450000Y-64950000D02*
X144950000Y-88050000D01*
X191300000Y-129200000D02*
X185750000Y-129200000D01*
X106200000Y-123650000D02*
X106450000Y-123900000D01*
X175850000Y-126050000D02*
X164600000Y-126050000D01*
X162900000Y-120649998D02*
X158000003Y-115750001D01*
X162900000Y-138000000D02*
X162900000Y-127750000D01*
X162900000Y-127750000D02*
X162900000Y-120649998D01*
X164600000Y-126050000D02*
X162900000Y-127750000D01*
X185750000Y-129200000D02*
X182600000Y-126050000D01*
X191450000Y-129350000D02*
X191300000Y-129200000D01*
X102850000Y-123650000D02*
X106200000Y-123650000D01*
X191000000Y-82850000D02*
X188975000Y-84875000D01*
X188230000Y-84875000D02*
X178425000Y-84875000D01*
X178425000Y-84875000D02*
X177900000Y-85400000D01*
X110200000Y-69750000D02*
X114750000Y-74300000D01*
X199500000Y-86520000D02*
X198368630Y-86520000D01*
X198368630Y-86520000D02*
X194698630Y-82850000D01*
X129800000Y-84700000D02*
X115350000Y-74300000D01*
X194698630Y-82850000D02*
X191000000Y-82850000D01*
X114750000Y-74300000D02*
X115350000Y-74300000D01*
X188975000Y-84875000D02*
X188230000Y-84875000D01*
D63*
X179725000Y-55425000D02*
X179725000Y-57499694D01*
X179725000Y-57499694D02*
X178081824Y-59142870D01*
X178875000Y-54075000D02*
X179725000Y-55425000D01*
X178363954Y-59886046D02*
X180575000Y-57675000D01*
X180575000Y-57675000D02*
X180575000Y-55425000D01*
X164550217Y-59886046D02*
X178363954Y-59886046D01*
X178875000Y-57236046D02*
X176950000Y-59161046D01*
X178875000Y-55425000D02*
X178875000Y-57236046D01*
D62*
X173800000Y-65150000D02*
X172300000Y-63650000D01*
X172300000Y-63650000D02*
X172300000Y-62468933D01*
X178025000Y-53580026D02*
X177844974Y-53400000D01*
X177844974Y-53400000D02*
X174400000Y-53400000D01*
X174350000Y-53450000D02*
X173900000Y-53900000D01*
X173900000Y-58850000D02*
X173700000Y-59050000D01*
X173900000Y-53900000D02*
X173900000Y-58850000D01*
X174400000Y-53400000D02*
X174350000Y-53450000D01*
X178025000Y-54075000D02*
X178025000Y-53580026D01*
X173700000Y-59050000D02*
X172100000Y-59050000D01*
X159760000Y-107400000D02*
X155350000Y-102990000D01*
X183800000Y-109150000D02*
X175039950Y-109150000D01*
X173289950Y-107400000D02*
X159760000Y-107400000D01*
X183850000Y-109100000D02*
X183800000Y-109150000D01*
X175039950Y-109150000D02*
X173289950Y-107400000D01*
X143553527Y-62954186D02*
X141200000Y-63450000D01*
X141200000Y-63450000D02*
X149600000Y-89900000D01*
X157650000Y-98250000D02*
X157050000Y-97650000D01*
X149600000Y-89900000D02*
X157050000Y-89900000D01*
X157050000Y-89900000D02*
X157050000Y-97650000D01*
D64*
X129250000Y-60050000D02*
X125600000Y-60050000D01*
D62*
X155350000Y-97650000D02*
X155350000Y-99430000D01*
D64*
X125600000Y-60050000D02*
X124326445Y-61323555D01*
D62*
X179250000Y-98250000D02*
X157650000Y-98250000D01*
X179350000Y-98350000D02*
X179250000Y-98250000D01*
X157050000Y-97650000D02*
X155350000Y-97650000D01*
X166476312Y-106600000D02*
X166526312Y-106550000D01*
X175300000Y-108250000D02*
X182400000Y-108250000D01*
X173600000Y-106550000D02*
X175300000Y-108250000D01*
X166526312Y-106550000D02*
X173600000Y-106550000D01*
X162312719Y-106600000D02*
X166476312Y-106600000D01*
X138950000Y-92100000D02*
X138100000Y-92100000D01*
X182400000Y-108250000D02*
X184550000Y-106100000D01*
X139600000Y-92750000D02*
X138950000Y-92100000D01*
X140200000Y-93050000D02*
X139900000Y-92750000D01*
X139900000Y-92750000D02*
X139600000Y-92750000D01*
X139216667Y-87733333D02*
X142600000Y-91300000D01*
X173450000Y-105350000D02*
X175450000Y-107350000D01*
X122300000Y-69900000D02*
X139216667Y-87733333D01*
X180600000Y-107350000D02*
X175450000Y-107350000D01*
X161400000Y-105350000D02*
X173450000Y-105350000D01*
X184950000Y-103000000D02*
X180600000Y-107350000D01*
X142600000Y-91300000D02*
X142600000Y-98270000D01*
X142600000Y-98270000D02*
X144650000Y-100320000D01*
X198085000Y-95555000D02*
X180344950Y-95555000D01*
X104400000Y-86300000D02*
X121450000Y-92000000D01*
X180344950Y-95555000D02*
X179744975Y-94955025D01*
X122400000Y-91050000D02*
X125800000Y-91050000D01*
X107650000Y-77500000D02*
X104400000Y-86300000D01*
X117300000Y-67250000D02*
X116000000Y-65950000D01*
X125800000Y-91050000D02*
X131200000Y-91050000D01*
X121450000Y-92000000D02*
X122400000Y-91050000D01*
X109950000Y-73850000D02*
X108600000Y-75600000D01*
X199500000Y-94140000D02*
X198085000Y-95555000D01*
X131200000Y-91050000D02*
X133800000Y-88450000D01*
X143050000Y-88950000D02*
X143050000Y-96940000D01*
X127900000Y-65050000D02*
X143050000Y-88950000D01*
X143050000Y-96940000D02*
X144650000Y-98540000D01*
X141785562Y-91458555D02*
X141785562Y-99235562D01*
X141785562Y-99235562D02*
X144650000Y-102100000D01*
X124150000Y-66150000D02*
X142300000Y-89550000D01*
X119500000Y-72000000D02*
X140900000Y-91350000D01*
X140900000Y-91350000D02*
X140900000Y-100130000D01*
X140900000Y-100130000D02*
X144650000Y-103880000D01*
X116600000Y-116900000D02*
X123650000Y-116900000D01*
X112000000Y-121500000D02*
X116600000Y-116900000D01*
X106050826Y-135599174D02*
X99829938Y-135599174D01*
X119050000Y-122600000D02*
X106050826Y-135599174D01*
X164500000Y-121200000D02*
X165250000Y-121200000D01*
X128100000Y-78000000D02*
X137250000Y-86900000D01*
X185050000Y-135550000D02*
X185050000Y-135914968D01*
X177650000Y-132150000D02*
X178810050Y-132150000D01*
X178810050Y-132150000D02*
X181955025Y-135294975D01*
X185050000Y-135914968D02*
X187300000Y-138164968D01*
X165250000Y-121200000D02*
X167650000Y-123600000D01*
X106829938Y-142198348D02*
X106829938Y-136020062D01*
X119500000Y-123350000D02*
X120146608Y-122703392D01*
X106829938Y-136020062D02*
X119500000Y-123350000D01*
X120146608Y-122703392D02*
X120146608Y-122487287D01*
X197300000Y-139500000D02*
X167900000Y-115050000D01*
X126266346Y-80013054D02*
X137600000Y-89600000D01*
M02*
