G04 #@! TF.GenerationSoftware,KiCad,Pcbnew,(5.1.4)-1*
G04 #@! TF.CreationDate,2023-03-05T20:54:53+09:00*
G04 #@! TF.ProjectId,TopPlate,546f7050-6c61-4746-952e-6b696361645f,rev?*
G04 #@! TF.SameCoordinates,Original*
G04 #@! TF.FileFunction,Soldermask,Bot*
G04 #@! TF.FilePolarity,Negative*
%FSLAX46Y46*%
G04 Gerber Fmt 4.6, Leading zero omitted, Abs format (unit mm)*
G04 Created by KiCad (PCBNEW (5.1.4)-1) date 2023-03-05 20:54:53*
%MOMM*%
%LPD*%
G04 APERTURE LIST*
%ADD10C,0.100000*%
G04 APERTURE END LIST*
D10*
G36*
X147402585Y-134678802D02*
G01*
X147552410Y-134708604D01*
X147834674Y-134825521D01*
X148088705Y-134995259D01*
X148304741Y-135211295D01*
X148474479Y-135465326D01*
X148591396Y-135747590D01*
X148651000Y-136047240D01*
X148651000Y-136352760D01*
X148591396Y-136652410D01*
X148474479Y-136934674D01*
X148304741Y-137188705D01*
X148088705Y-137404741D01*
X147834674Y-137574479D01*
X147552410Y-137691396D01*
X147402585Y-137721198D01*
X147252761Y-137751000D01*
X146947239Y-137751000D01*
X146797415Y-137721198D01*
X146647590Y-137691396D01*
X146365326Y-137574479D01*
X146111295Y-137404741D01*
X145895259Y-137188705D01*
X145725521Y-136934674D01*
X145608604Y-136652410D01*
X145549000Y-136352760D01*
X145549000Y-136047240D01*
X145608604Y-135747590D01*
X145725521Y-135465326D01*
X145895259Y-135211295D01*
X146111295Y-134995259D01*
X146365326Y-134825521D01*
X146647590Y-134708604D01*
X146797415Y-134678802D01*
X146947239Y-134649000D01*
X147252761Y-134649000D01*
X147402585Y-134678802D01*
X147402585Y-134678802D01*
G37*
G36*
X147402585Y-127678802D02*
G01*
X147552410Y-127708604D01*
X147834674Y-127825521D01*
X148088705Y-127995259D01*
X148304741Y-128211295D01*
X148474479Y-128465326D01*
X148591396Y-128747590D01*
X148651000Y-129047240D01*
X148651000Y-129352760D01*
X148591396Y-129652410D01*
X148474479Y-129934674D01*
X148304741Y-130188705D01*
X148088705Y-130404741D01*
X147834674Y-130574479D01*
X147552410Y-130691396D01*
X147402585Y-130721198D01*
X147252761Y-130751000D01*
X146947239Y-130751000D01*
X146797415Y-130721198D01*
X146647590Y-130691396D01*
X146365326Y-130574479D01*
X146111295Y-130404741D01*
X145895259Y-130188705D01*
X145725521Y-129934674D01*
X145608604Y-129652410D01*
X145549000Y-129352760D01*
X145549000Y-129047240D01*
X145608604Y-128747590D01*
X145725521Y-128465326D01*
X145895259Y-128211295D01*
X146111295Y-127995259D01*
X146365326Y-127825521D01*
X146647590Y-127708604D01*
X146797415Y-127678802D01*
X146947239Y-127649000D01*
X147252761Y-127649000D01*
X147402585Y-127678802D01*
X147402585Y-127678802D01*
G37*
G36*
X177552585Y-106098802D02*
G01*
X177702410Y-106128604D01*
X177984674Y-106245521D01*
X178238705Y-106415259D01*
X178454741Y-106631295D01*
X178624479Y-106885326D01*
X178741396Y-107167590D01*
X178801000Y-107467240D01*
X178801000Y-107772760D01*
X178741396Y-108072410D01*
X178624479Y-108354674D01*
X178454741Y-108608705D01*
X178238705Y-108824741D01*
X177984674Y-108994479D01*
X177702410Y-109111396D01*
X177552585Y-109141198D01*
X177402761Y-109171000D01*
X177097239Y-109171000D01*
X176947415Y-109141198D01*
X176797590Y-109111396D01*
X176515326Y-108994479D01*
X176261295Y-108824741D01*
X176045259Y-108608705D01*
X175875521Y-108354674D01*
X175758604Y-108072410D01*
X175699000Y-107772760D01*
X175699000Y-107467240D01*
X175758604Y-107167590D01*
X175875521Y-106885326D01*
X176045259Y-106631295D01*
X176261295Y-106415259D01*
X176515326Y-106245521D01*
X176797590Y-106128604D01*
X176947415Y-106098802D01*
X177097239Y-106069000D01*
X177402761Y-106069000D01*
X177552585Y-106098802D01*
X177552585Y-106098802D01*
G37*
G36*
X117252585Y-106098802D02*
G01*
X117402410Y-106128604D01*
X117684674Y-106245521D01*
X117938705Y-106415259D01*
X118154741Y-106631295D01*
X118324479Y-106885326D01*
X118441396Y-107167590D01*
X118501000Y-107467240D01*
X118501000Y-107772760D01*
X118441396Y-108072410D01*
X118324479Y-108354674D01*
X118154741Y-108608705D01*
X117938705Y-108824741D01*
X117684674Y-108994479D01*
X117402410Y-109111396D01*
X117252585Y-109141198D01*
X117102761Y-109171000D01*
X116797239Y-109171000D01*
X116647415Y-109141198D01*
X116497590Y-109111396D01*
X116215326Y-108994479D01*
X115961295Y-108824741D01*
X115745259Y-108608705D01*
X115575521Y-108354674D01*
X115458604Y-108072410D01*
X115399000Y-107772760D01*
X115399000Y-107467240D01*
X115458604Y-107167590D01*
X115575521Y-106885326D01*
X115745259Y-106631295D01*
X115961295Y-106415259D01*
X116215326Y-106245521D01*
X116497590Y-106128604D01*
X116647415Y-106098802D01*
X116797239Y-106069000D01*
X117102761Y-106069000D01*
X117252585Y-106098802D01*
X117252585Y-106098802D01*
G37*
G36*
X179682585Y-99538802D02*
G01*
X179832410Y-99568604D01*
X180114674Y-99685521D01*
X180368705Y-99855259D01*
X180584741Y-100071295D01*
X180754479Y-100325326D01*
X180871396Y-100607590D01*
X180931000Y-100907240D01*
X180931000Y-101212760D01*
X180871396Y-101512410D01*
X180754479Y-101794674D01*
X180584741Y-102048705D01*
X180368705Y-102264741D01*
X180114674Y-102434479D01*
X179832410Y-102551396D01*
X179682585Y-102581198D01*
X179532761Y-102611000D01*
X179227239Y-102611000D01*
X179077415Y-102581198D01*
X178927590Y-102551396D01*
X178645326Y-102434479D01*
X178391295Y-102264741D01*
X178175259Y-102048705D01*
X178005521Y-101794674D01*
X177888604Y-101512410D01*
X177829000Y-101212760D01*
X177829000Y-100907240D01*
X177888604Y-100607590D01*
X178005521Y-100325326D01*
X178175259Y-100071295D01*
X178391295Y-99855259D01*
X178645326Y-99685521D01*
X178927590Y-99568604D01*
X179077415Y-99538802D01*
X179227239Y-99509000D01*
X179532761Y-99509000D01*
X179682585Y-99538802D01*
X179682585Y-99538802D01*
G37*
G36*
X115132585Y-99538802D02*
G01*
X115282410Y-99568604D01*
X115564674Y-99685521D01*
X115818705Y-99855259D01*
X116034741Y-100071295D01*
X116204479Y-100325326D01*
X116321396Y-100607590D01*
X116381000Y-100907240D01*
X116381000Y-101212760D01*
X116321396Y-101512410D01*
X116204479Y-101794674D01*
X116034741Y-102048705D01*
X115818705Y-102264741D01*
X115564674Y-102434479D01*
X115282410Y-102551396D01*
X115132585Y-102581198D01*
X114982761Y-102611000D01*
X114677239Y-102611000D01*
X114527415Y-102581198D01*
X114377590Y-102551396D01*
X114095326Y-102434479D01*
X113841295Y-102264741D01*
X113625259Y-102048705D01*
X113455521Y-101794674D01*
X113338604Y-101512410D01*
X113279000Y-101212760D01*
X113279000Y-100907240D01*
X113338604Y-100607590D01*
X113455521Y-100325326D01*
X113625259Y-100071295D01*
X113841295Y-99855259D01*
X114095326Y-99685521D01*
X114377590Y-99568604D01*
X114527415Y-99538802D01*
X114677239Y-99509000D01*
X114982761Y-99509000D01*
X115132585Y-99538802D01*
X115132585Y-99538802D01*
G37*
G36*
X147402585Y-61578802D02*
G01*
X147552410Y-61608604D01*
X147834674Y-61725521D01*
X148088705Y-61895259D01*
X148304741Y-62111295D01*
X148474479Y-62365326D01*
X148591396Y-62647590D01*
X148651000Y-62947240D01*
X148651000Y-63252760D01*
X148591396Y-63552410D01*
X148474479Y-63834674D01*
X148304741Y-64088705D01*
X148088705Y-64304741D01*
X147834674Y-64474479D01*
X147552410Y-64591396D01*
X147402585Y-64621198D01*
X147252761Y-64651000D01*
X146947239Y-64651000D01*
X146797415Y-64621198D01*
X146647590Y-64591396D01*
X146365326Y-64474479D01*
X146111295Y-64304741D01*
X145895259Y-64088705D01*
X145725521Y-63834674D01*
X145608604Y-63552410D01*
X145549000Y-63252760D01*
X145549000Y-62947240D01*
X145608604Y-62647590D01*
X145725521Y-62365326D01*
X145895259Y-62111295D01*
X146111295Y-61895259D01*
X146365326Y-61725521D01*
X146647590Y-61608604D01*
X146797415Y-61578802D01*
X146947239Y-61549000D01*
X147252761Y-61549000D01*
X147402585Y-61578802D01*
X147402585Y-61578802D01*
G37*
M02*
