G04 #@! TF.GenerationSoftware,KiCad,Pcbnew,(5.1.4)-1*
G04 #@! TF.CreationDate,2023-03-05T20:54:53+09:00*
G04 #@! TF.ProjectId,TopPlate,546f7050-6c61-4746-952e-6b696361645f,rev?*
G04 #@! TF.SameCoordinates,Original*
G04 #@! TF.FileFunction,Copper,L1,Top*
G04 #@! TF.FilePolarity,Positive*
%FSLAX46Y46*%
G04 Gerber Fmt 4.6, Leading zero omitted, Abs format (unit mm)*
G04 Created by KiCad (PCBNEW (5.1.4)-1) date 2023-03-05 20:54:53*
%MOMM*%
%LPD*%
G04 APERTURE LIST*
%ADD10C,3.000000*%
%ADD11C,0.254000*%
G04 APERTURE END LIST*
D10*
X147100000Y-136200000D03*
X147100000Y-129200000D03*
X116950000Y-107620000D03*
X114830000Y-101060000D03*
X147100000Y-63100000D03*
X179380000Y-101060000D03*
X177250000Y-107620000D03*
D11*
G36*
X145207988Y-62088698D02*
G01*
X145047047Y-62477244D01*
X144965000Y-62889721D01*
X144965000Y-63310279D01*
X145047047Y-63722756D01*
X145207988Y-64111302D01*
X145441637Y-64460983D01*
X145739017Y-64758363D01*
X146088698Y-64992012D01*
X146477244Y-65152953D01*
X146889721Y-65235000D01*
X147310279Y-65235000D01*
X147722756Y-65152953D01*
X148111302Y-64992012D01*
X148460983Y-64758363D01*
X148758363Y-64460983D01*
X148992012Y-64111302D01*
X149152953Y-63722756D01*
X149235000Y-63310279D01*
X149235000Y-62889721D01*
X149152953Y-62477244D01*
X148992012Y-62088698D01*
X148872464Y-61909782D01*
X149505818Y-61934825D01*
X151750645Y-62181240D01*
X153972833Y-62583648D01*
X156161548Y-63140093D01*
X158306108Y-63847856D01*
X160396059Y-64703486D01*
X162421238Y-65702822D01*
X164371790Y-66841001D01*
X166238188Y-68112469D01*
X168011343Y-69511029D01*
X169682610Y-71029863D01*
X171243872Y-72661593D01*
X172687501Y-74398249D01*
X174006472Y-76231380D01*
X175194351Y-78152041D01*
X176245367Y-80150905D01*
X177154385Y-82218205D01*
X177916984Y-84343886D01*
X178529440Y-86517566D01*
X178988781Y-88728697D01*
X179292760Y-90966470D01*
X179439999Y-93221528D01*
X179439999Y-95167591D01*
X179436807Y-95200000D01*
X179449550Y-95329383D01*
X179487290Y-95453793D01*
X179548575Y-95568450D01*
X179631052Y-95668948D01*
X179731550Y-95751425D01*
X179846207Y-95812710D01*
X179970617Y-95850450D01*
X180067581Y-95860000D01*
X201440001Y-95860000D01*
X201440000Y-127991199D01*
X196090194Y-132456740D01*
X175254071Y-111617056D01*
X175178760Y-111555239D01*
X175064108Y-111493944D01*
X174939701Y-111456194D01*
X174810319Y-111443440D01*
X174680936Y-111456172D01*
X174556523Y-111493901D01*
X174499794Y-111524217D01*
X174499769Y-111524229D01*
X174499743Y-111524244D01*
X174441861Y-111555176D01*
X174341355Y-111637644D01*
X174258870Y-111738135D01*
X174244012Y-111765927D01*
X173594919Y-112730540D01*
X173573574Y-112756549D01*
X173512289Y-112871207D01*
X173474550Y-112995617D01*
X173461807Y-113124999D01*
X173474550Y-113254381D01*
X173512289Y-113378791D01*
X173573574Y-113493449D01*
X173635385Y-113568765D01*
X194149971Y-134083352D01*
X188859074Y-138540000D01*
X105340927Y-138540000D01*
X102313256Y-135989721D01*
X144965000Y-135989721D01*
X144965000Y-136410279D01*
X145047047Y-136822756D01*
X145207988Y-137211302D01*
X145441637Y-137560983D01*
X145739017Y-137858363D01*
X146088698Y-138092012D01*
X146477244Y-138252953D01*
X146889721Y-138335000D01*
X147310279Y-138335000D01*
X147722756Y-138252953D01*
X148111302Y-138092012D01*
X148460983Y-137858363D01*
X148758363Y-137560983D01*
X148992012Y-137211302D01*
X149152953Y-136822756D01*
X149235000Y-136410279D01*
X149235000Y-135989721D01*
X149152953Y-135577244D01*
X148992012Y-135188698D01*
X148758363Y-134839017D01*
X148460983Y-134541637D01*
X148111302Y-134307988D01*
X147722756Y-134147047D01*
X147310279Y-134065000D01*
X146889721Y-134065000D01*
X146477244Y-134147047D01*
X146088698Y-134307988D01*
X145739017Y-134541637D01*
X145441637Y-134839017D01*
X145207988Y-135188698D01*
X145047047Y-135577244D01*
X144965000Y-135989721D01*
X102313256Y-135989721D01*
X100050069Y-134083386D01*
X105144476Y-128989721D01*
X144965000Y-128989721D01*
X144965000Y-129410279D01*
X145047047Y-129822756D01*
X145207988Y-130211302D01*
X145441637Y-130560983D01*
X145739017Y-130858363D01*
X146088698Y-131092012D01*
X146477244Y-131252953D01*
X146889721Y-131335000D01*
X147310279Y-131335000D01*
X147722756Y-131252953D01*
X148111302Y-131092012D01*
X148460983Y-130858363D01*
X148758363Y-130560983D01*
X148992012Y-130211302D01*
X149152953Y-129822756D01*
X149235000Y-129410279D01*
X149235000Y-128989721D01*
X149152953Y-128577244D01*
X148992012Y-128188698D01*
X148758363Y-127839017D01*
X148460983Y-127541637D01*
X148111302Y-127307988D01*
X147722756Y-127147047D01*
X147310279Y-127065000D01*
X146889721Y-127065000D01*
X146477244Y-127147047D01*
X146088698Y-127307988D01*
X145739017Y-127541637D01*
X145441637Y-127839017D01*
X145207988Y-128188698D01*
X145047047Y-128577244D01*
X144965000Y-128989721D01*
X105144476Y-128989721D01*
X120549799Y-113586645D01*
X120611615Y-113511332D01*
X120672908Y-113396679D01*
X120710657Y-113272272D01*
X120723409Y-113142891D01*
X120710676Y-113013507D01*
X120672945Y-112889094D01*
X120611669Y-112774432D01*
X120590263Y-112748345D01*
X119941237Y-111784260D01*
X119926426Y-111756550D01*
X119843949Y-111656051D01*
X119743450Y-111573574D01*
X119685398Y-111542545D01*
X119685375Y-111542532D01*
X119685353Y-111542521D01*
X119628793Y-111512290D01*
X119504383Y-111474550D01*
X119375000Y-111461807D01*
X119245617Y-111474550D01*
X119121208Y-111512290D01*
X119006550Y-111573574D01*
X118931234Y-111635386D01*
X98111929Y-132454691D01*
X92760000Y-127943150D01*
X92760000Y-104648370D01*
X95442816Y-104648370D01*
X95442816Y-105751630D01*
X95624406Y-106839843D01*
X95982634Y-107883325D01*
X96507728Y-108853614D01*
X97185364Y-109724241D01*
X97997059Y-110471459D01*
X98920671Y-111074885D01*
X99931008Y-111518059D01*
X101000508Y-111788894D01*
X102100000Y-111880000D01*
X103199492Y-111788894D01*
X104268992Y-111518059D01*
X105279329Y-111074885D01*
X106202941Y-110471459D01*
X107014636Y-109724241D01*
X107692272Y-108853614D01*
X108217366Y-107883325D01*
X108379954Y-107409721D01*
X114815000Y-107409721D01*
X114815000Y-107830279D01*
X114897047Y-108242756D01*
X115057988Y-108631302D01*
X115291637Y-108980983D01*
X115589017Y-109278363D01*
X115938698Y-109512012D01*
X116327244Y-109672953D01*
X116739721Y-109755000D01*
X117160279Y-109755000D01*
X117572756Y-109672953D01*
X117961302Y-109512012D01*
X118310983Y-109278363D01*
X118608363Y-108980983D01*
X118842012Y-108631302D01*
X119002953Y-108242756D01*
X119085000Y-107830279D01*
X119085000Y-107409721D01*
X119002953Y-106997244D01*
X118842012Y-106608698D01*
X118608363Y-106259017D01*
X118310983Y-105961637D01*
X117961302Y-105727988D01*
X117572756Y-105567047D01*
X117160279Y-105485000D01*
X116739721Y-105485000D01*
X116327244Y-105567047D01*
X115938698Y-105727988D01*
X115589017Y-105961637D01*
X115291637Y-106259017D01*
X115057988Y-106608698D01*
X114897047Y-106997244D01*
X114815000Y-107409721D01*
X108379954Y-107409721D01*
X108575594Y-106839843D01*
X108757184Y-105751630D01*
X108757184Y-104648370D01*
X108575594Y-103560157D01*
X108217366Y-102516675D01*
X107692272Y-101546386D01*
X107150037Y-100849721D01*
X112695000Y-100849721D01*
X112695000Y-101270279D01*
X112777047Y-101682756D01*
X112937988Y-102071302D01*
X113171637Y-102420983D01*
X113469017Y-102718363D01*
X113818698Y-102952012D01*
X114207244Y-103112953D01*
X114619721Y-103195000D01*
X115040279Y-103195000D01*
X115452756Y-103112953D01*
X115841302Y-102952012D01*
X116190983Y-102718363D01*
X116488363Y-102420983D01*
X116722012Y-102071302D01*
X116882953Y-101682756D01*
X116965000Y-101270279D01*
X116965000Y-100849721D01*
X116882953Y-100437244D01*
X116722012Y-100048698D01*
X116488363Y-99699017D01*
X116190983Y-99401637D01*
X115841302Y-99167988D01*
X115452756Y-99007047D01*
X115040279Y-98925000D01*
X114619721Y-98925000D01*
X114207244Y-99007047D01*
X113818698Y-99167988D01*
X113469017Y-99401637D01*
X113171637Y-99699017D01*
X112937988Y-100048698D01*
X112777047Y-100437244D01*
X112695000Y-100849721D01*
X107150037Y-100849721D01*
X107014636Y-100675759D01*
X106202941Y-99928541D01*
X105279329Y-99325115D01*
X104268992Y-98881941D01*
X103199492Y-98611106D01*
X102100000Y-98520000D01*
X101000508Y-98611106D01*
X99931008Y-98881941D01*
X98920671Y-99325115D01*
X97997059Y-99928541D01*
X97185364Y-100675759D01*
X96507728Y-101546386D01*
X95982634Y-102516675D01*
X95624406Y-103560157D01*
X95442816Y-104648370D01*
X92760000Y-104648370D01*
X92760000Y-95860000D01*
X114132419Y-95860000D01*
X114229383Y-95850450D01*
X114353793Y-95812710D01*
X114468450Y-95751425D01*
X114568948Y-95668948D01*
X114651425Y-95568450D01*
X114712710Y-95453793D01*
X114750450Y-95329383D01*
X114763193Y-95200000D01*
X114760151Y-95169109D01*
X114764621Y-94200000D01*
X118418292Y-94200000D01*
X118500435Y-96369162D01*
X118746394Y-98525898D01*
X119154760Y-100657857D01*
X119723193Y-102752825D01*
X120448439Y-104798804D01*
X121326342Y-106784074D01*
X122351874Y-108697263D01*
X123519161Y-110527413D01*
X124821518Y-112264041D01*
X126251483Y-113897201D01*
X127800867Y-115417536D01*
X129460794Y-116816339D01*
X131221757Y-118085598D01*
X133073670Y-119218042D01*
X135005924Y-120207185D01*
X137007451Y-121047362D01*
X139066788Y-121733759D01*
X141172139Y-122262445D01*
X143311443Y-122630392D01*
X145472449Y-122835493D01*
X147642776Y-122876572D01*
X149809995Y-122753394D01*
X151961691Y-122466665D01*
X154085540Y-122018027D01*
X156169376Y-121410049D01*
X158201264Y-120646216D01*
X160169564Y-119730900D01*
X162063004Y-118669346D01*
X163870736Y-117467634D01*
X165582407Y-116132647D01*
X167188213Y-114672031D01*
X168678956Y-113094154D01*
X170046096Y-111408053D01*
X171281802Y-109623385D01*
X172378998Y-107750374D01*
X172545322Y-107409721D01*
X175115000Y-107409721D01*
X175115000Y-107830279D01*
X175197047Y-108242756D01*
X175357988Y-108631302D01*
X175591637Y-108980983D01*
X175889017Y-109278363D01*
X176238698Y-109512012D01*
X176627244Y-109672953D01*
X177039721Y-109755000D01*
X177460279Y-109755000D01*
X177872756Y-109672953D01*
X178261302Y-109512012D01*
X178610983Y-109278363D01*
X178908363Y-108980983D01*
X179142012Y-108631302D01*
X179302953Y-108242756D01*
X179385000Y-107830279D01*
X179385000Y-107409721D01*
X179302953Y-106997244D01*
X179142012Y-106608698D01*
X178908363Y-106259017D01*
X178610983Y-105961637D01*
X178261302Y-105727988D01*
X177872756Y-105567047D01*
X177460279Y-105485000D01*
X177039721Y-105485000D01*
X176627244Y-105567047D01*
X176238698Y-105727988D01*
X175889017Y-105961637D01*
X175591637Y-106259017D01*
X175357988Y-106608698D01*
X175197047Y-106997244D01*
X175115000Y-107409721D01*
X172545322Y-107409721D01*
X173331398Y-105799747D01*
X174133547Y-103782678D01*
X174780850Y-101710721D01*
X174979818Y-100849721D01*
X177245000Y-100849721D01*
X177245000Y-101270279D01*
X177327047Y-101682756D01*
X177487988Y-102071302D01*
X177721637Y-102420983D01*
X178019017Y-102718363D01*
X178368698Y-102952012D01*
X178757244Y-103112953D01*
X179169721Y-103195000D01*
X179590279Y-103195000D01*
X180002756Y-103112953D01*
X180391302Y-102952012D01*
X180740983Y-102718363D01*
X181038363Y-102420983D01*
X181272012Y-102071302D01*
X181432953Y-101682756D01*
X181515000Y-101270279D01*
X181515000Y-100849721D01*
X181432953Y-100437244D01*
X181272012Y-100048698D01*
X181038363Y-99699017D01*
X180740983Y-99401637D01*
X180391302Y-99167988D01*
X180002756Y-99007047D01*
X179590279Y-98925000D01*
X179169721Y-98925000D01*
X178757244Y-99007047D01*
X178368698Y-99167988D01*
X178019017Y-99401637D01*
X177721637Y-99699017D01*
X177487988Y-100048698D01*
X177327047Y-100437244D01*
X177245000Y-100849721D01*
X174979818Y-100849721D01*
X175269600Y-99595742D01*
X175596996Y-97449858D01*
X175761165Y-95285358D01*
X175761165Y-93114642D01*
X175596996Y-90950142D01*
X175269600Y-88804258D01*
X174780850Y-86689279D01*
X174133547Y-84617322D01*
X173331398Y-82600253D01*
X172378998Y-80649626D01*
X171281802Y-78776615D01*
X170046096Y-76991947D01*
X168678956Y-75305846D01*
X167188213Y-73727969D01*
X165582407Y-72267353D01*
X163870736Y-70932366D01*
X162063004Y-69730654D01*
X160169564Y-68669100D01*
X158201264Y-67753784D01*
X156169376Y-66989951D01*
X154085540Y-66381973D01*
X151961691Y-65933335D01*
X149809995Y-65646606D01*
X147642776Y-65523428D01*
X145472449Y-65564507D01*
X143311443Y-65769608D01*
X141172139Y-66137555D01*
X139066788Y-66666241D01*
X137007451Y-67352638D01*
X135005924Y-68192815D01*
X133073670Y-69181958D01*
X131221757Y-70314402D01*
X129460794Y-71583661D01*
X127800867Y-72982464D01*
X126251483Y-74502799D01*
X124821518Y-76135959D01*
X123519161Y-77872587D01*
X122351874Y-79702737D01*
X121326342Y-81615926D01*
X120448439Y-83601196D01*
X119723193Y-85647175D01*
X119154760Y-87742143D01*
X118746394Y-89874102D01*
X118500435Y-92030838D01*
X118418292Y-94200000D01*
X114764621Y-94200000D01*
X114770518Y-92921694D01*
X114938441Y-90669611D01*
X115263050Y-88434749D01*
X115742770Y-86227946D01*
X116375257Y-84059996D01*
X117157430Y-81941451D01*
X118085484Y-79882619D01*
X119154887Y-77893556D01*
X120360441Y-75983921D01*
X121696271Y-74163033D01*
X123155856Y-72439773D01*
X124732107Y-70822514D01*
X126417316Y-69319161D01*
X128203308Y-67937011D01*
X130081338Y-66682829D01*
X132042302Y-65562695D01*
X134076624Y-64582080D01*
X136174388Y-63745763D01*
X138325376Y-63057818D01*
X140519128Y-62521590D01*
X142744930Y-62139700D01*
X144991959Y-61914002D01*
X145331593Y-61903710D01*
X145207988Y-62088698D01*
X145207988Y-62088698D01*
G37*
X145207988Y-62088698D02*
X145047047Y-62477244D01*
X144965000Y-62889721D01*
X144965000Y-63310279D01*
X145047047Y-63722756D01*
X145207988Y-64111302D01*
X145441637Y-64460983D01*
X145739017Y-64758363D01*
X146088698Y-64992012D01*
X146477244Y-65152953D01*
X146889721Y-65235000D01*
X147310279Y-65235000D01*
X147722756Y-65152953D01*
X148111302Y-64992012D01*
X148460983Y-64758363D01*
X148758363Y-64460983D01*
X148992012Y-64111302D01*
X149152953Y-63722756D01*
X149235000Y-63310279D01*
X149235000Y-62889721D01*
X149152953Y-62477244D01*
X148992012Y-62088698D01*
X148872464Y-61909782D01*
X149505818Y-61934825D01*
X151750645Y-62181240D01*
X153972833Y-62583648D01*
X156161548Y-63140093D01*
X158306108Y-63847856D01*
X160396059Y-64703486D01*
X162421238Y-65702822D01*
X164371790Y-66841001D01*
X166238188Y-68112469D01*
X168011343Y-69511029D01*
X169682610Y-71029863D01*
X171243872Y-72661593D01*
X172687501Y-74398249D01*
X174006472Y-76231380D01*
X175194351Y-78152041D01*
X176245367Y-80150905D01*
X177154385Y-82218205D01*
X177916984Y-84343886D01*
X178529440Y-86517566D01*
X178988781Y-88728697D01*
X179292760Y-90966470D01*
X179439999Y-93221528D01*
X179439999Y-95167591D01*
X179436807Y-95200000D01*
X179449550Y-95329383D01*
X179487290Y-95453793D01*
X179548575Y-95568450D01*
X179631052Y-95668948D01*
X179731550Y-95751425D01*
X179846207Y-95812710D01*
X179970617Y-95850450D01*
X180067581Y-95860000D01*
X201440001Y-95860000D01*
X201440000Y-127991199D01*
X196090194Y-132456740D01*
X175254071Y-111617056D01*
X175178760Y-111555239D01*
X175064108Y-111493944D01*
X174939701Y-111456194D01*
X174810319Y-111443440D01*
X174680936Y-111456172D01*
X174556523Y-111493901D01*
X174499794Y-111524217D01*
X174499769Y-111524229D01*
X174499743Y-111524244D01*
X174441861Y-111555176D01*
X174341355Y-111637644D01*
X174258870Y-111738135D01*
X174244012Y-111765927D01*
X173594919Y-112730540D01*
X173573574Y-112756549D01*
X173512289Y-112871207D01*
X173474550Y-112995617D01*
X173461807Y-113124999D01*
X173474550Y-113254381D01*
X173512289Y-113378791D01*
X173573574Y-113493449D01*
X173635385Y-113568765D01*
X194149971Y-134083352D01*
X188859074Y-138540000D01*
X105340927Y-138540000D01*
X102313256Y-135989721D01*
X144965000Y-135989721D01*
X144965000Y-136410279D01*
X145047047Y-136822756D01*
X145207988Y-137211302D01*
X145441637Y-137560983D01*
X145739017Y-137858363D01*
X146088698Y-138092012D01*
X146477244Y-138252953D01*
X146889721Y-138335000D01*
X147310279Y-138335000D01*
X147722756Y-138252953D01*
X148111302Y-138092012D01*
X148460983Y-137858363D01*
X148758363Y-137560983D01*
X148992012Y-137211302D01*
X149152953Y-136822756D01*
X149235000Y-136410279D01*
X149235000Y-135989721D01*
X149152953Y-135577244D01*
X148992012Y-135188698D01*
X148758363Y-134839017D01*
X148460983Y-134541637D01*
X148111302Y-134307988D01*
X147722756Y-134147047D01*
X147310279Y-134065000D01*
X146889721Y-134065000D01*
X146477244Y-134147047D01*
X146088698Y-134307988D01*
X145739017Y-134541637D01*
X145441637Y-134839017D01*
X145207988Y-135188698D01*
X145047047Y-135577244D01*
X144965000Y-135989721D01*
X102313256Y-135989721D01*
X100050069Y-134083386D01*
X105144476Y-128989721D01*
X144965000Y-128989721D01*
X144965000Y-129410279D01*
X145047047Y-129822756D01*
X145207988Y-130211302D01*
X145441637Y-130560983D01*
X145739017Y-130858363D01*
X146088698Y-131092012D01*
X146477244Y-131252953D01*
X146889721Y-131335000D01*
X147310279Y-131335000D01*
X147722756Y-131252953D01*
X148111302Y-131092012D01*
X148460983Y-130858363D01*
X148758363Y-130560983D01*
X148992012Y-130211302D01*
X149152953Y-129822756D01*
X149235000Y-129410279D01*
X149235000Y-128989721D01*
X149152953Y-128577244D01*
X148992012Y-128188698D01*
X148758363Y-127839017D01*
X148460983Y-127541637D01*
X148111302Y-127307988D01*
X147722756Y-127147047D01*
X147310279Y-127065000D01*
X146889721Y-127065000D01*
X146477244Y-127147047D01*
X146088698Y-127307988D01*
X145739017Y-127541637D01*
X145441637Y-127839017D01*
X145207988Y-128188698D01*
X145047047Y-128577244D01*
X144965000Y-128989721D01*
X105144476Y-128989721D01*
X120549799Y-113586645D01*
X120611615Y-113511332D01*
X120672908Y-113396679D01*
X120710657Y-113272272D01*
X120723409Y-113142891D01*
X120710676Y-113013507D01*
X120672945Y-112889094D01*
X120611669Y-112774432D01*
X120590263Y-112748345D01*
X119941237Y-111784260D01*
X119926426Y-111756550D01*
X119843949Y-111656051D01*
X119743450Y-111573574D01*
X119685398Y-111542545D01*
X119685375Y-111542532D01*
X119685353Y-111542521D01*
X119628793Y-111512290D01*
X119504383Y-111474550D01*
X119375000Y-111461807D01*
X119245617Y-111474550D01*
X119121208Y-111512290D01*
X119006550Y-111573574D01*
X118931234Y-111635386D01*
X98111929Y-132454691D01*
X92760000Y-127943150D01*
X92760000Y-104648370D01*
X95442816Y-104648370D01*
X95442816Y-105751630D01*
X95624406Y-106839843D01*
X95982634Y-107883325D01*
X96507728Y-108853614D01*
X97185364Y-109724241D01*
X97997059Y-110471459D01*
X98920671Y-111074885D01*
X99931008Y-111518059D01*
X101000508Y-111788894D01*
X102100000Y-111880000D01*
X103199492Y-111788894D01*
X104268992Y-111518059D01*
X105279329Y-111074885D01*
X106202941Y-110471459D01*
X107014636Y-109724241D01*
X107692272Y-108853614D01*
X108217366Y-107883325D01*
X108379954Y-107409721D01*
X114815000Y-107409721D01*
X114815000Y-107830279D01*
X114897047Y-108242756D01*
X115057988Y-108631302D01*
X115291637Y-108980983D01*
X115589017Y-109278363D01*
X115938698Y-109512012D01*
X116327244Y-109672953D01*
X116739721Y-109755000D01*
X117160279Y-109755000D01*
X117572756Y-109672953D01*
X117961302Y-109512012D01*
X118310983Y-109278363D01*
X118608363Y-108980983D01*
X118842012Y-108631302D01*
X119002953Y-108242756D01*
X119085000Y-107830279D01*
X119085000Y-107409721D01*
X119002953Y-106997244D01*
X118842012Y-106608698D01*
X118608363Y-106259017D01*
X118310983Y-105961637D01*
X117961302Y-105727988D01*
X117572756Y-105567047D01*
X117160279Y-105485000D01*
X116739721Y-105485000D01*
X116327244Y-105567047D01*
X115938698Y-105727988D01*
X115589017Y-105961637D01*
X115291637Y-106259017D01*
X115057988Y-106608698D01*
X114897047Y-106997244D01*
X114815000Y-107409721D01*
X108379954Y-107409721D01*
X108575594Y-106839843D01*
X108757184Y-105751630D01*
X108757184Y-104648370D01*
X108575594Y-103560157D01*
X108217366Y-102516675D01*
X107692272Y-101546386D01*
X107150037Y-100849721D01*
X112695000Y-100849721D01*
X112695000Y-101270279D01*
X112777047Y-101682756D01*
X112937988Y-102071302D01*
X113171637Y-102420983D01*
X113469017Y-102718363D01*
X113818698Y-102952012D01*
X114207244Y-103112953D01*
X114619721Y-103195000D01*
X115040279Y-103195000D01*
X115452756Y-103112953D01*
X115841302Y-102952012D01*
X116190983Y-102718363D01*
X116488363Y-102420983D01*
X116722012Y-102071302D01*
X116882953Y-101682756D01*
X116965000Y-101270279D01*
X116965000Y-100849721D01*
X116882953Y-100437244D01*
X116722012Y-100048698D01*
X116488363Y-99699017D01*
X116190983Y-99401637D01*
X115841302Y-99167988D01*
X115452756Y-99007047D01*
X115040279Y-98925000D01*
X114619721Y-98925000D01*
X114207244Y-99007047D01*
X113818698Y-99167988D01*
X113469017Y-99401637D01*
X113171637Y-99699017D01*
X112937988Y-100048698D01*
X112777047Y-100437244D01*
X112695000Y-100849721D01*
X107150037Y-100849721D01*
X107014636Y-100675759D01*
X106202941Y-99928541D01*
X105279329Y-99325115D01*
X104268992Y-98881941D01*
X103199492Y-98611106D01*
X102100000Y-98520000D01*
X101000508Y-98611106D01*
X99931008Y-98881941D01*
X98920671Y-99325115D01*
X97997059Y-99928541D01*
X97185364Y-100675759D01*
X96507728Y-101546386D01*
X95982634Y-102516675D01*
X95624406Y-103560157D01*
X95442816Y-104648370D01*
X92760000Y-104648370D01*
X92760000Y-95860000D01*
X114132419Y-95860000D01*
X114229383Y-95850450D01*
X114353793Y-95812710D01*
X114468450Y-95751425D01*
X114568948Y-95668948D01*
X114651425Y-95568450D01*
X114712710Y-95453793D01*
X114750450Y-95329383D01*
X114763193Y-95200000D01*
X114760151Y-95169109D01*
X114764621Y-94200000D01*
X118418292Y-94200000D01*
X118500435Y-96369162D01*
X118746394Y-98525898D01*
X119154760Y-100657857D01*
X119723193Y-102752825D01*
X120448439Y-104798804D01*
X121326342Y-106784074D01*
X122351874Y-108697263D01*
X123519161Y-110527413D01*
X124821518Y-112264041D01*
X126251483Y-113897201D01*
X127800867Y-115417536D01*
X129460794Y-116816339D01*
X131221757Y-118085598D01*
X133073670Y-119218042D01*
X135005924Y-120207185D01*
X137007451Y-121047362D01*
X139066788Y-121733759D01*
X141172139Y-122262445D01*
X143311443Y-122630392D01*
X145472449Y-122835493D01*
X147642776Y-122876572D01*
X149809995Y-122753394D01*
X151961691Y-122466665D01*
X154085540Y-122018027D01*
X156169376Y-121410049D01*
X158201264Y-120646216D01*
X160169564Y-119730900D01*
X162063004Y-118669346D01*
X163870736Y-117467634D01*
X165582407Y-116132647D01*
X167188213Y-114672031D01*
X168678956Y-113094154D01*
X170046096Y-111408053D01*
X171281802Y-109623385D01*
X172378998Y-107750374D01*
X172545322Y-107409721D01*
X175115000Y-107409721D01*
X175115000Y-107830279D01*
X175197047Y-108242756D01*
X175357988Y-108631302D01*
X175591637Y-108980983D01*
X175889017Y-109278363D01*
X176238698Y-109512012D01*
X176627244Y-109672953D01*
X177039721Y-109755000D01*
X177460279Y-109755000D01*
X177872756Y-109672953D01*
X178261302Y-109512012D01*
X178610983Y-109278363D01*
X178908363Y-108980983D01*
X179142012Y-108631302D01*
X179302953Y-108242756D01*
X179385000Y-107830279D01*
X179385000Y-107409721D01*
X179302953Y-106997244D01*
X179142012Y-106608698D01*
X178908363Y-106259017D01*
X178610983Y-105961637D01*
X178261302Y-105727988D01*
X177872756Y-105567047D01*
X177460279Y-105485000D01*
X177039721Y-105485000D01*
X176627244Y-105567047D01*
X176238698Y-105727988D01*
X175889017Y-105961637D01*
X175591637Y-106259017D01*
X175357988Y-106608698D01*
X175197047Y-106997244D01*
X175115000Y-107409721D01*
X172545322Y-107409721D01*
X173331398Y-105799747D01*
X174133547Y-103782678D01*
X174780850Y-101710721D01*
X174979818Y-100849721D01*
X177245000Y-100849721D01*
X177245000Y-101270279D01*
X177327047Y-101682756D01*
X177487988Y-102071302D01*
X177721637Y-102420983D01*
X178019017Y-102718363D01*
X178368698Y-102952012D01*
X178757244Y-103112953D01*
X179169721Y-103195000D01*
X179590279Y-103195000D01*
X180002756Y-103112953D01*
X180391302Y-102952012D01*
X180740983Y-102718363D01*
X181038363Y-102420983D01*
X181272012Y-102071302D01*
X181432953Y-101682756D01*
X181515000Y-101270279D01*
X181515000Y-100849721D01*
X181432953Y-100437244D01*
X181272012Y-100048698D01*
X181038363Y-99699017D01*
X180740983Y-99401637D01*
X180391302Y-99167988D01*
X180002756Y-99007047D01*
X179590279Y-98925000D01*
X179169721Y-98925000D01*
X178757244Y-99007047D01*
X178368698Y-99167988D01*
X178019017Y-99401637D01*
X177721637Y-99699017D01*
X177487988Y-100048698D01*
X177327047Y-100437244D01*
X177245000Y-100849721D01*
X174979818Y-100849721D01*
X175269600Y-99595742D01*
X175596996Y-97449858D01*
X175761165Y-95285358D01*
X175761165Y-93114642D01*
X175596996Y-90950142D01*
X175269600Y-88804258D01*
X174780850Y-86689279D01*
X174133547Y-84617322D01*
X173331398Y-82600253D01*
X172378998Y-80649626D01*
X171281802Y-78776615D01*
X170046096Y-76991947D01*
X168678956Y-75305846D01*
X167188213Y-73727969D01*
X165582407Y-72267353D01*
X163870736Y-70932366D01*
X162063004Y-69730654D01*
X160169564Y-68669100D01*
X158201264Y-67753784D01*
X156169376Y-66989951D01*
X154085540Y-66381973D01*
X151961691Y-65933335D01*
X149809995Y-65646606D01*
X147642776Y-65523428D01*
X145472449Y-65564507D01*
X143311443Y-65769608D01*
X141172139Y-66137555D01*
X139066788Y-66666241D01*
X137007451Y-67352638D01*
X135005924Y-68192815D01*
X133073670Y-69181958D01*
X131221757Y-70314402D01*
X129460794Y-71583661D01*
X127800867Y-72982464D01*
X126251483Y-74502799D01*
X124821518Y-76135959D01*
X123519161Y-77872587D01*
X122351874Y-79702737D01*
X121326342Y-81615926D01*
X120448439Y-83601196D01*
X119723193Y-85647175D01*
X119154760Y-87742143D01*
X118746394Y-89874102D01*
X118500435Y-92030838D01*
X118418292Y-94200000D01*
X114764621Y-94200000D01*
X114770518Y-92921694D01*
X114938441Y-90669611D01*
X115263050Y-88434749D01*
X115742770Y-86227946D01*
X116375257Y-84059996D01*
X117157430Y-81941451D01*
X118085484Y-79882619D01*
X119154887Y-77893556D01*
X120360441Y-75983921D01*
X121696271Y-74163033D01*
X123155856Y-72439773D01*
X124732107Y-70822514D01*
X126417316Y-69319161D01*
X128203308Y-67937011D01*
X130081338Y-66682829D01*
X132042302Y-65562695D01*
X134076624Y-64582080D01*
X136174388Y-63745763D01*
X138325376Y-63057818D01*
X140519128Y-62521590D01*
X142744930Y-62139700D01*
X144991959Y-61914002D01*
X145331593Y-61903710D01*
X145207988Y-62088698D01*
M02*
