M48
; DRILL file {KiCad 8.0.8} date 2025-04-27T17:47:24+0900
; FORMAT={-:-/ absolute / inch / decimal}
; #@! TF.CreationDate,2025-04-27T17:47:24+09:00
; #@! TF.GenerationSoftware,Kicad,Pcbnew,8.0.8
; #@! TF.FileFunction,Plated,1,2,PTH
FMAT,2
INCH
; #@! TA.AperFunction,Plated,PTH,ViaDrill
T1C0.0079
; #@! TA.AperFunction,Plated,PTH,ViaDrill
T2C0.0157
; #@! TA.AperFunction,Plated,PTH,ComponentDrill
T3C0.0157
; #@! TA.AperFunction,Plated,PTH,ComponentDrill
T4C0.0236
; #@! TA.AperFunction,Plated,PTH,ComponentDrill
T5C0.0276
; #@! TA.AperFunction,Plated,PTH,ComponentDrill
T6C0.0315
; #@! TA.AperFunction,Plated,PTH,ComponentDrill
T7C0.0394
; #@! TA.AperFunction,Plated,PTH,ComponentDrill
T8C0.0398
; #@! TA.AperFunction,Plated,PTH,ComponentDrill
T9C0.0433
; #@! TA.AperFunction,Plated,PTH,ComponentDrill
T10C0.0472
; #@! TA.AperFunction,Plated,PTH,ComponentDrill
T11C0.0551
; #@! TA.AperFunction,Plated,PTH,ComponentDrill
T12C0.0591
; #@! TA.AperFunction,Plated,PTH,ComponentDrill
T13C0.0866
; #@! TA.AperFunction,Plated,PTH,ComponentDrill
T14C0.1024
; #@! TA.AperFunction,Plated,PTH,ComponentDrill
T15C0.1417
; #@! TA.AperFunction,Plated,PTH,ComponentDrill
T16C0.1732
%
G90
G05
T1
X4.5177Y-4.9094
X4.6004Y-5.0236
X5.0217Y-4.6535
X7.0413Y-5.1654
T2
X3.8071Y-3.8661
X4.0492Y-4.8681
X4.1909Y-4.878
X4.2382Y-3.0512
X4.2736Y-2.813
X4.2756Y-2.9764
X4.3287Y-2.9075
X4.3386Y-2.7461
X4.3996Y-2.878
X4.4685Y-2.5571
X4.4803Y-3.1949
X4.4862Y-2.8209
X4.5295Y-3.1122
X4.5315Y-2.435
X4.5413Y-2.9252
X4.5669Y-2.5965
X4.6122Y-3.0138
X4.6142Y-2.7047
X4.6181Y-2.6476
X4.6299Y-2.9094
X4.6732Y-2.7992
X4.687Y-4.8268
X4.6971Y-2.3911
X4.7047Y-2.8346
X4.7209Y-2.7493
X4.7244Y-2.5906
X4.7244Y-2.6378
X4.7302Y-4.8223
X4.7421Y-4.5
X4.7461Y-2.7795
X4.815Y-2.752
X4.8287Y-4.502
X4.8583Y-2.6949
X4.8681Y-4.6024
X4.8878Y-2.6043
X4.8947Y-2.4143
X4.9665Y-2.5925
X5.0138Y-3.5276
X5.0157Y-3.4035
X5.0354Y-2.561
X5.061Y-2.2874
X5.0886Y-2.3642
X5.1102Y-3.3346
X5.1693Y-2.4016
X5.2205Y-2.4646
X5.2354Y-2.6535
X5.2429Y-2.6071
X5.2539Y-2.5571
X5.2677Y-3.4823
X5.3642Y-4.3858
X5.4035Y-3.4213
X5.4173Y-3.5276
X5.437Y-3.626
X5.481Y-3.4541
X5.5197Y-3.6634
X5.5821Y-3.6007
X5.6024Y-3.5256
X5.6161Y-3.4154
X5.6634Y-3.4429
X5.7067Y-3.4665
X5.7835Y-5.372
X5.8169Y-4.9961
X5.8543Y-4.7165
X5.9075Y-4.9311
X5.9094Y-5.3415
X6.0374Y-5.5433
X6.1634Y-5.6594
X6.185Y-3.9055
X6.2185Y-2.689
X6.2618Y-5.5866
X6.3543Y-4.1476
X6.3903Y-4.1969
X6.4134Y-5.4331
X6.4528Y-4.7185
X6.4764Y-4.7717
X6.4862Y-5.3701
X6.6004Y-4.8661
X6.6102Y-4.5295
X6.6122Y-2.5787
X6.6417Y-2.6201
X6.6656Y-3.4959
X6.698Y-3.5283
X6.7559Y-4.7224
X6.7756Y-2.3248
X6.7835Y-2.4594
X6.811Y-4.2559
X6.8423Y-3.5559
X6.8425Y-2.565
X6.8484Y-2.3863
X6.8563Y-5.3356
X6.8622Y-3.8957
X6.9232Y-4.9626
X6.9665Y-2.3292
X6.9941Y-5.2028
X7.002Y-2.4094
X7.0039Y-3.3622
X7.0111Y-2.3285
X7.06Y-3.3701
X7.061Y-3.872
X7.0766Y-3.7384
X7.0984Y-3.4941
X7.1004Y-2.9508
X7.1063Y-2.6398
X7.1102Y-5.3642
X7.1636Y-5.3266
X7.189Y-4.9626
X7.2303Y-5.412
X7.2854Y-5.3366
X7.2953Y-2.878
X7.374Y-5.4396
X7.4744Y-4.5472
X7.5374Y-5.0925
X7.5689Y-5.2598
X7.6004Y-5.2913
X7.6654Y-2.7205
X7.6654Y-2.813
X7.7205Y-3.4626
X7.7402Y-4.5453
X7.7677Y-5.4921
T3
X6.9419Y-2.1289
X6.9419Y-2.1821
X6.9754Y-2.1289
X6.9754Y-2.1821
X7.0089Y-2.1289
X7.0089Y-2.1821
X7.0423Y-2.1289
X7.0423Y-2.1821
X7.0758Y-2.1289
X7.0758Y-2.1821
X7.1093Y-2.1289
X7.1093Y-2.1821
X7.1427Y-2.1289
X7.1427Y-2.1821
X7.1762Y-2.1289
X7.1762Y-2.1821
T4
X6.9405Y-3.178
X6.9744Y-3.2264
T5
X5.6949Y-3.6693
X5.6949Y-3.7394
X5.6949Y-3.8094
X5.6949Y-3.8795
X5.6949Y-3.9496
X5.6949Y-4.0197
X5.6949Y-4.0898
X5.6949Y-4.1598
X6.1161Y-3.6343
X6.1161Y-3.7043
X6.1161Y-3.7744
X6.1161Y-3.8445
X6.1161Y-3.9146
X6.1161Y-3.9846
X6.1161Y-4.0547
X6.1161Y-4.1248
T6
X4.474Y-3.4171
X4.538Y-3.265
X4.619Y-3.1164
X4.7413Y-2.9573
X4.7559Y-3.5197
X4.8071Y-3.3976
X4.8312Y-2.8587
X4.872Y-3.2776
X4.9292Y-2.7702
X4.9711Y-3.1501
X5.0315Y-2.689
X5.0433Y-3.0709
X5.122Y-3.0
X5.1433Y-2.6181
X5.2036Y-2.9347
X5.2609Y-2.3863
X5.2933Y-2.878
X5.3757Y-2.6634
X5.3999Y-2.334
X5.4902Y-2.6201
X5.6207Y-2.2968
X5.6378Y-2.3937
X5.6517Y-2.4785
X5.6688Y-2.5754
X5.8343Y-2.2717
X5.8386Y-2.3701
X5.8441Y-2.4568
X5.8484Y-2.5551
X6.0248Y-2.5635
X6.0509Y-2.2646
X6.144Y-2.5779
X6.1961Y-2.2824
X6.2598Y-2.6063
X6.3375Y-2.3165
X6.3757Y-2.6396
X6.4784Y-2.3577
X6.4882Y-2.687
X6.5934Y-2.9189
X6.615Y-2.4151
X6.6785Y-2.9856
X6.7655Y-2.6732
X6.7717Y-3.0728
X6.8413Y-3.0032
X6.8713Y-2.7558
X6.9094Y-2.9331
X6.979Y-2.8635
X7.1929Y-3.6535
X7.1949Y-3.0413
X7.2047Y-4.685
X7.2382Y-4.2953
X7.2441Y-3.4421
X7.2441Y-3.25
X7.2657Y-4.1772
X7.2815Y-4.0551
X7.29Y-4.7343
X7.2913Y-3.6535
X7.2913Y-4.5079
X7.2933Y-3.0413
X7.3823Y-4.5455
X7.528Y-4.3729
X7.5543Y-2.5063
X7.5543Y-2.6063
X7.5543Y-2.7063
X7.5543Y-2.8063
X7.5543Y-2.9063
X7.5543Y-3.0063
X7.5543Y-3.1063
X7.5543Y-3.2063
X7.5543Y-3.3063
X7.5543Y-3.4063
X7.5543Y-3.5063
X7.5543Y-3.6063
X7.5543Y-3.7063
X7.5543Y-3.8063
X7.5612Y-4.2293
X7.5804Y-4.0813
X7.8543Y-2.5063
X7.8543Y-2.6063
X7.8543Y-2.7063
X7.8543Y-2.8063
X7.8543Y-2.9063
X7.8543Y-3.0063
X7.8543Y-3.1063
X7.8543Y-3.2063
X7.8543Y-3.3063
X7.8543Y-3.4063
X7.8543Y-3.5063
X7.8543Y-3.6063
X7.8543Y-3.7063
X7.8543Y-3.8063
T7
X3.9835Y-3.8622
X4.0835Y-3.8622
X4.1835Y-3.8622
X4.2126Y-4.2126
X4.2126Y-4.7835
X4.2835Y-3.8622
X4.311Y-4.2126
X4.4094Y-4.2126
X4.4094Y-4.7835
T8
X6.5669Y-2.1654
X6.7677Y-2.2126
T9
X5.5906Y-4.3799
X5.5906Y-4.5571
X5.8465Y-4.3799
X5.8465Y-4.5571
X5.9646Y-4.3799
X5.9646Y-4.5571
X6.2205Y-4.3799
X6.2205Y-4.5571
T10
X3.9303Y-5.3386
X4.0715Y-5.1969
X4.2059Y-5.5984
X4.2126Y-5.0552
X4.347Y-5.4567
X4.4882Y-5.315
X7.3774Y-5.3313
X7.5191Y-5.4724
X7.5984Y-5.1181
X7.6608Y-5.6136
X7.7401Y-5.2593
X7.8818Y-5.4004
T11
X5.8071Y-5.1181
X5.9055Y-5.1181
X6.0039Y-5.1181
T12
X4.5909Y-2.303
X4.6409Y-2.203
X4.6909Y-2.303
X4.7409Y-2.203
X4.7909Y-2.303
X4.8409Y-2.203
T13
X3.8976Y-4.0945
X4.252Y-2.2441
X4.5425Y-2.203
X4.8228Y-4.7047
X5.9055Y-5.2559
X6.9882Y-4.7047
X7.5591Y-2.2441
X7.9134Y-4.0945
T14
X4.8894Y-2.303
X4.9882Y-3.7079
X5.502Y-2.8268
X6.3098Y-2.828
X6.8331Y-3.7563
T15
X4.7701Y-4.0571
X7.0409Y-4.0561
T16
X5.1142Y-4.4124
X5.8888Y-3.0138
X6.7126Y-4.3858
T4
G00X6.8888Y-2.138
M15
G01X6.8888Y-2.197
M16
G05
G00X6.8888Y-2.2848
M15
G01X6.8888Y-2.3163
M16
G05
G00X7.2293Y-2.138
M15
G01X7.2293Y-2.197
M16
G05
G00X7.2293Y-2.2848
M15
G01X7.2293Y-2.3163
M16
G05
T12
G00X4.0906Y-4.4823
M15
G01X4.0906Y-4.5335
M16
G05
G00X4.5315Y-4.4823
M15
G01X4.5315Y-4.5335
M16
G05
M30
