0
SECTION
2
HEADER
9
$INSUNITS
70
4
9
$ACADVER
1
AC1014
9
$HANDSEED
5
FFFF
0
ENDSEC
0
SECTION
2
TABLES
0
TABLE
2
VPORT
5
8
100
AcDbSymbolTable
0
ENDTAB
0
TABLE
2
LTYPE
5
5
100
AcDbSymbolTable
0
LTYPE
5
14
100
AcDbSymbolTableRecord
100
AcDbLinetypeTableRecord
2
BYBLOCK
70
0
0
LTYPE
5
15
100
AcDbSymbolTableRecord
100
AcDbLinetypeTableRecord
2
BYLAYER
70
0
0
LTYPE
5
16
100
AcDbSymbolTableRecord
100
AcDbLinetypeTableRecord
2
DASHED
70
0
3
Dashed __ __ __ __ __ __ __ __ __ __ __ __ __ _
72
65
73
2
40
0.75
49
0.5
74
0
49
-0.25
74
0
0
ENDTAB
0
TABLE
2
LAYER
5
2
100
AcDbSymbolTable
70
2
0
LAYER
5
50
100
AcDbSymbolTableRecord
100
AcDbLayerTableRecord
2
0
70
0
62
7
6
CONTINUOUS
0
ENDTAB
0
TABLE
2
STYLE
5
3
100
AcDbSymbolTable
70
1
0
STYLE
5
11
100
AcDbSymbolTableRecord
100
AcDbTextStyleTableRecord
2
STANDARD
70
0
0
ENDTAB
0
TABLE
2
VIEW
5
6
100
AcDbSymbolTable
70
0
0
ENDTAB
0
TABLE
2
UCS
5
7
100
AcDbSymbolTable
70
0
0
ENDTAB
0
TABLE
2
APPID
5
9
100
AcDbSymbolTable
70
2
0
APPID
5
12
100
AcDbSymbolTableRecord
100
AcDbRegAppTableRecord
2
ACAD
70
0
0
ENDTAB
0
TABLE
2
DIMSTYLE
5
A
100
AcDbSymbolTable
70
1
0
ENDTAB
0
TABLE
2
BLOCK_RECORD
5
1
100
AcDbSymbolTable
70
1
0
BLOCK_RECORD
5
1F
100
AcDbSymbolTableRecord
100
AcDbBlockTableRecord
2
*MODEL_SPACE
0
BLOCK_RECORD
5
1B
100
AcDbSymbolTableRecord
100
AcDbBlockTableRecord
2
*PAPER_SPACE
0
ENDTAB
0
ENDSEC
0
SECTION
2
BLOCKS
0
BLOCK
5
20
100
AcDbEntity
100
AcDbBlockBegin
2
*MODEL_SPACE
0
ENDBLK
5
21
100
AcDbEntity
100
AcDbBlockEnd
0
BLOCK
5
1C
100
AcDbEntity
100
AcDbBlockBegin
2
*PAPER_SPACE
0
ENDBLK
5
1D
100
AcDbEntity
100
AcDbBlockEnd
0
ENDSEC
0
SECTION
2
ENTITIES
0
LWPOLYLINE
5
100
100
AcDbEntity
8
0
100
AcDbPolyline
90
4
70
1
43
0.0
10
1900
20
-800
10
0
20
-800
10
0
20
900
10
1900
20
900
0
SPLINE
5
101
100
AcDbEntity
8
0
100
AcDbSpline
70
2
71
3
72
68
73
64
74
0
42
0.000000001
43
0.0000000001
44
0.0000000001
40
0
40
0
40
0
40
0
40
1.0033435562127659
40
1.505015334319149
40
2.0066871124255319
40
2.5083588905319152
40
3.010030668638298
40
3.2608665576914895
40
3.5117024467446809
40
4.0133742248510638
40
5.0167177810638304
40
6.0200613372765961
40
7.0234048934893618
40
7.5250766715957447
40
8.0267484497021275
40
8.5284202278085104
40
9.030092005914895
40
9.5317637840212779
40
10.033435562127661
40
11.036779118340426
40
11.538450896446809
40
12.040122674553192
40
12.541794452659575
40
13.043466230765958
40
13.545138008872341
40
14.046809786978724
40
14.297645676031916
40
14.548481565085106
40
15.050153343191489
40
15.551825121297872
40
16.053496899404255
40
17.056840455617021
40
17.558512233723405
40
18.060184011829786
40
18.561855789936168
40
19.063527568042552
40
19.565199346148937
40
20.066871124255318
40
20.568542902361699
40
21.070214680468084
40
22.073558236680849
40
22.57523001478723
40
23.076901792893615
40
23.578573571
40
24.080245349106381
40
24.33108123815957
40
24.581917127212762
40
25.083588905319147
40
25.585260683425531
40
26.086932461531912
40
26.588604239638293
40
27.090276017744678
40
27.591947795851063
40
28.093619573957444
40
28.595291352063825
40
29.096963130170209
40
29.598634908276594
40
30.100306686382979
40
30.351142575436171
40
30.601978464489363
40
31.103650242595744
40
31.605322020702125
40
32.10699379880851
40
32.10699379880851
40
32.10699379880851
40
32.10699379880851
10
68.424391746520996
20
-1.1657287925481743
30
0
10
72.17530357298233
20
-2.343492160180336
30
0
10
76.665981076465911
20
1.3052297183969981
30
0
10
83.036124169388472
20
0.035862846156254791
30
0
10
87.496428157772428
20
2.5560456389108706
30
0
10
91.868163012107033
20
3.8035602463463074
30
0
10
97.702732038391218
20
2.5856245625782739
30
0
10
96.427036917033107
20
7.8342373719401772
30
0
10
100.92177558728079
20
5.0324487490664431
30
0
10
106.1734386050606
20
9.536903046819706
30
0
10
112.64508465736264
20
-1.7634223791338519
30
0
10
122.41338669076697
20
3.9219667757811463
30
0
10
133.04484852314854
20
-0.36118899972436314
30
0
10
134.32213874137562
20
8.783553072800002
30
0
10
140.49261357660947
20
7.2178210090542692
30
0
10
143.58749334136411
20
12.344534343985336
30
0
10
148.13448039314611
20
12.673501725650082
30
0
10
153.26751379935507
20
13.751092588841157
30
0
10
158.76513280262247
20
17.541020238330795
30
0
10
165.64170659493865
20
17.094120268042531
30
0
10
171.90912840716251
20
20.820714151888801
30
0
10
173.46673382748551
20
25.283272399064572
30
0
10
175.75167534803543
20
30.721395187880415
30
0
10
181.68951428576929
20
29.023693453129162
30
0
10
185.10769212358787
20
33.743174308551481
30
0
10
183.720320249959
20
39.412224513539101
30
0
10
188.3451906361023
20
39.498142701019596
30
0
10
187.01050291985888
20
43.909390854365064
30
0
10
185.09819933723318
20
46.485729859870474
30
0
10
183.43602899077808
20
52.545996572136538
30
0
10
176.26743408147252
20
52.708400285296946
30
0
10
169.42465377180901
20
53.757243815551675
30
0
10
163.89796480383396
20
51.010091029661723
30
0
10
161.41379366216896
20
46.59621703491834
30
0
10
155.34968430628717
20
50.26972046525465
30
0
10
154.64203504266123
20
56.333048159702926
30
0
10
149.01547704201735
20
53.552269335355405
30
0
10
144.15370549099396
20
55.934846373155622
30
0
10
140.96877766838986
20
60.026064924875655
30
0
10
133.00363881582615
20
59.743053006737021
30
0
10
131.02457790020816
20
52.713718934403701
30
0
10
128.48697714161787
20
46.282503582024141
30
0
10
123.67360755373412
20
44.322370536154281
30
0
10
119.58353768667226
20
41.700999525143068
30
0
10
118.74921157575535
20
36.234331982004832
30
0
10
114.67559252201002
20
38.746832192211194
30
0
10
114.75957833914002
20
33.234910880178674
30
0
10
109.04798593099258
20
35.177243046669176
30
0
10
107.02338886319309
20
30.2681521637912
30
0
10
102.8405260634333
20
28.590004489015492
30
0
10
98.651552813369591
20
25.643115747201946
30
0
10
93.135595620850381
20
27.113942343573562
30
0
10
88.61444248571857
20
24.606975315558806
30
0
10
88.775725146923776
20
18.491081294170321
30
0
10
82.322774128880781
20
18.491255396036575
30
0
10
78.135840902746992
20
17.843121189732503
30
0
10
71.487591812854888
20
19.184149201798974
30
0
10
72.65364196965281
20
13.309546147108605
30
0
10
68.619855991637223
20
12.221800323309166
30
0
10
69.530182032162202
20
8.3157198950391447
30
0
10
67.175818269632146
20
5.0847206846496444
30
0
10
62.419460594759514
20
2.4060385689085857
30
0
10
66.548935833290315
20
-0.57684710873209433
30
0
10
68.424391746520996
20
-1.1657287925481743
30
0
0
SPLINE
5
102
100
AcDbEntity
8
0
100
AcDbSpline
70
2
71
3
72
33
73
29
74
0
42
0.000000001
43
0.0000000001
44
0.0000000001
40
0
40
0
40
0
40
0
40
0.71869701024046018
40
1.4373940204809204
40
1.7967425256011504
40
2.1560910307213805
40
2.5154395358416108
40
2.8747880409618407
40
3.2341365460820706
40
3.5934850512023009
40
3.9528335563225312
40
4.3121820614427611
40
4.6715305665629909
40
5.0308790716832217
40
5.3902275768034515
40
5.7495760819236814
40
6.1089245870439113
40
6.4682730921641411
40
7.1869701024046018
40
7.9056671126450624
40
8.6243641228855221
40
8.9837126280057511
40
9.3430611331259819
40
10.061758143366443
40
10.421106648486674
40
10.780455153606903
40
11.139803658727132
40
11.499152163847363
40
11.499152163847363
40
11.499152163847363
40
11.499152163847363
10
248.42439651489258
20
34.076504707336419
30
0
10
251.4197345987202
20
32.756636170157968
30
0
10
253.44449791832568
20
29.520313937540781
30
0
10
260.28573154522752
20
32.373474386109891
30
0
10
265.61661586365676
20
30.483731980120186
30
0
10
267.49121225853378
20
34.775728194395136
30
0
10
271.52286016738884
20
33.693510431188827
30
0
10
274.90910453003329
20
34.777951584327703
30
0
10
278.65646052947847
20
33.391523167457265
30
0
10
281.16323289672528
20
35.11389689393247
30
0
10
282.85725076114272
20
39.127929213700448
30
0
10
285.48223009351648
20
40.192364327982801
30
0
10
290.55799787479697
20
37.357612130641641
30
0
10
289.65076019957098
20
42.261462630524669
30
0
10
291.88380765333204
20
45.578761221795851
30
0
10
287.0413560921225
20
47.017341268477082
30
0
10
283.54709763037926
20
46.359698308616856
30
0
10
281.75558742576015
20
52.652796085438382
30
0
10
274.92815997340921
20
52.546685885196844
30
0
10
268.51665043750393
20
50.958601380189485
30
0
10
261.24035888674189
20
52.147062431835408
30
0
10
259.76672342086829
20
46.853270353806536
30
0
10
254.91120423833596
20
45.752299712728984
30
0
10
252.5132906507846
20
42.197984038615942
30
0
10
247.11623568724724
20
40.351642464195656
30
0
10
250.43715735032714
20
34.598144534939308
30
0
10
242.93991117713873
20
35.907161223539028
30
0
10
246.92672747297877
20
34.736438975925651
30
0
10
248.42439651489258
20
34.076504707336419
30
0
0
SPLINE
5
103
100
AcDbEntity
8
0
100
AcDbSpline
70
2
71
3
72
354
73
350
74
0
42
0.000000001
43
0.0000000001
44
0.0000000001
40
0
40
0
40
0
40
0
40
1.0078463060555569
40
2.0156926121111138
40
2.5196157651388926
40
3.023538918166671
40
3.2755004946805601
40
3.5274620711944493
40
4.0313852242222277
40
5.0392315302777853
40
6.0470778363333419
40
6.5510009893611203
40
7.0549241423888986
40
8.0627704484444553
40
9.070616754500012
40
9.5745399075277913
40
10.078463060555571
40
10.582386213583348
40
11.086309366611127
40
12.094155672666684
40
13.102001978722241
40
13.60592513175002
40
14.109848284777797
40
15.117694590833354
40
16.125540896888911
40
17.133387202944469
40
18.141233509000024
40
19.149079815055583
40
20.156926121111141
40
21.164772427166696
40
21.668695580194473
40
22.172618733222254
40
22.676541886250035
40
23.180465039277813
40
23.68438819230559
40
24.188311345333368
40
25.196157651388923
40
26.204003957444481
40
28.219696569555595
40
30.235389181666708
40
32.251081793777821
40
36.282467018000048
40
37.290313324055603
40
38.298159630111165
40
38.802082783138943
40
39.306005936166727
40
39.809929089194505
40
40.313852242222282
40
41.321698548277837
40
42.329544854333392
40
42.833468007361169
40
43.337391160388947
40
44.345237466444509
40
46.360930078555626
40
47.368776384611181
40
47.872699537638958
40
48.376622690666736
40
48.880545843694513
40
49.384468996722291
40
50.392315302777845
40
50.896238455805623
40
51.148200032319508
40
51.4001616088334
40
52.408007914888962
40
52.91193106791674
40
53.415854220944524
40
53.919777373972302
40
54.423700527000079
40
54.927623680027857
40
55.431546833055634
40
56.439393139111189
40
56.943316292138967
40
57.447239445166744
40
57.951162598194522
40
58.455085751222299
40
58.959008904250076
40
59.462932057277854
40
59.966855210305638
40
60.470778363333416
40
60.974701516361193
40
61.478624669388978
40
61.982547822416755
40
62.486470975444533
40
62.99039412847231
40
63.494317281500088
40
63.998240434527865
40
64.502163587555643
40
65.006086740583413
40
65.510009893611198
40
66.517856199666767
40
67.525702505722322
40
68.533548811777877
40
69.037471964805661
40
69.541395117833432
40
70.045318270861202
40
70.549241423888986
40
71.557087729944541
40
72.564934036000096
40
73.068857189027881
40
73.572780342055651
40
74.580626648111206
40
75.588472954166775
40
76.09239610719456
40
76.59631926022233
40
77.604165566277885
40
78.612011872333454
40
79.619858178389009
40
80.123781331416779
40
80.627704484444564
40
81.131627637472349
40
81.635550790500119
40
82.139473943527889
40
82.643397096555674
40
83.147320249583458
40
83.651243402611229
40
84.155166555638999
40
84.659089708666784
40
85.163012861694568
40
85.666936014722339
40
86.674782320777894
40
87.682628626833463
40
88.690474932889018
40
89.698321238944573
40
90.202244391972357
40
90.706167545000142
40
91.714013851055697
40
92.217937004083467
40
92.721860157111252
40
93.729706463166806
40
94.737552769222361
40
96.753245381333471
40
97.761091687389026
40
98.768937993444581
40
99.776784299500136
40
100.78463060555569
40
101.28855375858348
40
101.79247691161125
40
102.29640006463902
40
102.8003232176668
40
103.80816952372237
40
104.81601582977792
40
106.83170844188905
40
108.84740105400016
40
109.85524736005571
40
110.86309366611127
40
111.36701681913905
40
111.87093997216682
40
112.37486312519459
40
112.87878627822238
40
113.88663258427793
40
114.89447889033349
40
115.90232519638904
40
116.9101715024446
40
117.91801780850015
40
118.92586411455571
40
119.93371042061128
40
120.94155672666683
40
122.95724933877796
40
124.97294195088907
40
125.98078825694462
40
126.48471140997239
40
126.73667298648628
40
126.98863456300018
40
127.49255771602796
40
127.99648086905573
40
129.00432717511129
40
130.01217348116683
40
131.0200197872224
40
133.03571239933353
40
134.0435587053891
40
135.05140501144464
40
136.05925131750018
40
136.56317447052797
40
137.06709762355575
40
137.57102077658354
40
137.82298235309742
40
138.07494392961132
40
138.57886708263908
40
139.08279023566686
40
139.58671338869465
40
140.0906365417224
40
140.59455969475019
40
141.09848284777797
40
142.10632915383354
40
142.6102523068613
40
143.11417545988908
40
144.12202176594462
40
144.62594491897241
40
145.12986807200019
40
146.13771437805576
40
147.1455606841113
40
148.15340699016684
40
149.16125329622241
40
150.16909960227798
40
150.67302275530574
40
151.17694590833352
40
151.68086906136131
40
152.18479221438906
40
153.19263852044463
40
153.69656167347242
40
154.2004848265002
40
154.70440797952796
40
155.20833113255574
40
156.21617743861128
40
156.72010059163907
40
157.22402374466685
40
157.72794689769464
40
158.23187005072242
40
159.23971635677799
40
160.24756266283356
40
161.2554089688891
40
161.75933212191688
40
162.26325527494464
40
162.76717842797242
40
163.27110158100021
40
163.52306315751412
40
163.77502473402799
40
164.27894788705578
40
164.78287104008356
40
165.28679419311135
40
166.29464049916692
40
167.30248680522246
40
167.80640995825024
40
168.310333111278
40
168.81425626430578
40
169.31817941733357
40
170.32602572338914
40
170.82994887641689
40
171.33387202944468
40
171.83779518247246
40
172.08975675898634
40
172.34171833550022
40
172.845641488528
40
173.34956464155579
40
173.85348779458357
40
174.35741094761136
40
174.86133410063911
40
175.3652572536669
40
175.86918040669468
40
176.37310355972244
40
176.87702671275022
40
177.38094986577801
40
177.88487301880579
40
178.38879617183358
40
178.89271932486133
40
179.39664247788912
40
180.40448878394466
40
181.41233509000023
40
182.4201813960558
40
183.42802770211134
40
184.43587400816688
40
185.44372031422245
40
186.45156662027802
40
187.45941292633356
40
188.4672592323891
40
188.97118238541688
40
189.47510553844467
40
190.48295184450023
40
191.4907981505558
40
192.49864445661137
40
193.50649076266691
40
194.51433706872245
40
195.01826022175024
40
195.27022179826412
40
195.52218337477802
40
196.02610652780581
40
196.53002968083359
40
197.53787598688916
40
199.55356859900027
40
200.05749175202806
40
200.56141490505581
40
201.56926121111138
40
202.57710751716695
40
203.58495382322249
40
204.59280012927803
40
205.6006464353336
40
206.10456958836139
40
206.60849274138917
40
207.61633904744471
40
208.62418535350025
40
209.12810850652804
40
209.63203165955582
40
210.13595481258361
40
210.63987796561139
40
211.14380111863915
40
211.64772427166693
40
212.15164742469472
40
212.65557057772247
40
213.66341688377804
40
214.67126318983361
40
215.67910949588915
40
216.68695580194469
40
217.69480210800026
40
218.70264841405583
40
219.20657156708359
40
219.71049472011137
40
220.21441787313915
40
220.71834102616691
40
221.2222641791947
40
221.72618733222248
40
222.23011048525026
40
222.73403363827805
40
223.23795679130583
40
223.48991836781971
40
223.74187994433362
40
224.2458030973614
40
224.74972625038919
40
225.25364940341694
40
225.75757255644473
40
227.77326516855584
40
228.78111147461141
40
229.78895778066698
40
231.80465039277809
40
233.8203430048892
40
234.82818931094477
40
235.83603561700031
40
236.84388192305585
40
237.85172822911142
40
238.3556513821392
40
238.85957453516698
40
239.36349768819474
40
239.86742084122253
40
240.37134399425031
40
240.87526714727807
40
241.88311345333364
40
242.38703660636142
40
242.8909597593892
40
243.39488291241696
40
243.89880606544475
40
244.90665237150029
40
245.41057552452807
40
245.91449867755586
40
246.92234498361142
40
247.93019128966699
40
248.93803759572256
40
249.9458839017781
40
250.44980705480589
40
250.95373020783364
40
251.45765336086143
40
251.96157651388921
40
252.465499666917
40
252.96942281994478
40
253.97726912600035
40
254.48119227902814
40
254.98511543205592
40
255.48903858508368
40
255.99296173811146
40
257.000808044167
40
258.00865435022257
40
258.00865435022257
40
258.00865435022257
40
258.00865435022257
10
387.92438507080067
20
-95.196828842163058
30
0
10
391.37669222375087
20
-95.753881956609789
30
0
10
398.76639027622969
20
-96.471276339896008
30
0
10
403.11340225102526
20
-87.513997528123824
30
0
10
409.22814377445781
20
-84.74472202749098
30
0
10
412.80357591340851
20
-82.762738049394628
30
0
10
414.47241027258224
20
-79.390292808992683
30
0
10
418.47610857652842
20
-80.92951526706463
30
0
10
418.7029815710502
20
-74.231860595141569
30
0
10
415.13667962006485
20
-66.750641942213889
30
0
10
412.5476212702705
20
-59.459768287180061
30
0
10
411.893611740148
20
-51.039968489000749
30
0
10
403.85793998108488
20
-51.854228906794773
30
0
10
401.00381826990207
20
-42.212341343395764
30
0
10
397.82017813034179
20
-35.318753791899923
30
0
10
397.80502152727814
20
-27.273516435579591
30
0
10
391.65437512751123
20
-27.231900387775418
30
0
10
386.58961377228957
20
-26.379167712759756
30
0
10
385.69133729302871
20
-18.620265890834531
30
0
10
386.05790843755494
20
-9.3255788283125831
30
0
10
376.34678674682277
20
-6.5912300580645162
30
0
10
374.31856678887192
20
0.2963934281236531
30
0
10
369.29814071236387
20
4.9283184805830933
30
0
10
367.30307769296843
20
13.791366989026345
30
0
10
371.03308132280301
20
23.377085397661979
30
0
10
367.01253645123666
20
33.895633647455817
30
0
10
372.80816484717025
20
42.227815725241193
30
0
10
379.52820831825539
20
49.782479957922128
30
0
10
388.80937293961119
20
53.589602452785371
30
0
10
396.59487738853147
20
56.608383412214742
30
0
10
402.44616890673115
20
59.645157926081573
30
0
10
407.52777693841915
20
59.987711583285105
30
0
10
410.29831415926878
20
64.969291073701271
30
0
10
417.08458151896116
20
63.533266434380344
30
0
10
416.86936777235371
20
70.472053982477291
30
0
10
425.84575474528202
20
69.92225155487624
30
0
10
426.09629113536857
20
79.949329003387817
30
0
10
432.15375050522925
20
91.9680353305138
30
0
10
425.96684059974416
20
108.82443858251909
30
0
10
425.61004579588723
20
128.78901261278432
30
0
10
427.57408093144903
20
155.53414177205994
30
0
10
425.95133234988782
20
179.29958151463347
30
0
10
427.9937284256381
20
198.94434948193648
30
0
10
425.53341123804967
20
207.95359496527374
30
0
10
429.881166351003
20
213.48357205994586
30
0
10
428.19323688743401
20
219.38926663610729
30
0
10
433.97495222401398
20
221.80113262097245
30
0
10
434.25195969497781
20
229.04720504150526
30
0
10
435.44431789379792
20
237.64056667232541
30
0
10
443.07558157588926
20
242.45184505790661
30
0
10
447.39510011016557
20
246.77857662286684
30
0
10
447.80658726542026
20
253.91790067278941
30
0
10
451.52746080562133
20
264.80068423545549
30
0
10
455.23714886924176
20
277.44103622462671
30
0
10
456.62939436980821
20
289.51775397034305
30
0
10
458.57700898712466
20
295.32391057377367
30
0
10
458.38169350071666
20
301.91684782917469
30
0
10
465.26672562518917
20
301.13014107025219
30
0
10
466.26032420088671
20
308.97294279799968
30
0
10
467.99555061929766
20
314.43945320682781
30
0
10
468.82271551590657
20
321.29103894969438
30
0
10
473.59593707267044
20
320.18925283039522
30
0
10
474.73073584822004
20
325.64251705239792
30
0
10
474.46213881589097
20
333.02428969905867
30
0
10
481.77403783935637
20
333.82985276169393
30
0
10
483.69102444889211
20
338.91914744310833
30
0
10
485.27691970033186
20
343.30092849211297
30
0
10
484.78266005866544
20
349.8275894259873
30
0
10
490.65297713709214
20
349.84829583682966
30
0
10
492.96281027515556
20
356.28452117636976
30
0
10
494.74891966374787
20
363.40182375266318
30
0
10
501.59289509263607
20
364.85103351448487
30
0
10
505.23084332517169
20
368.31442272869799
30
0
10
510.56111155815074
20
369.86663171695841
30
0
10
511.55968271830011
20
375.18967939870504
30
0
10
513.0682790312776
20
380.6929843238683
30
0
10
519.80284111474521
20
380.09076948021004
30
0
10
519.56352617489927
20
386.55294207874528
30
0
10
521.5383546433078
20
391.00452842520781
30
0
10
522.35379582933319
20
395.68134195308738
30
0
10
521.16533785067065
20
402.28952386134296
30
0
10
527.99594847257924
20
402.1664077454306
30
0
10
527.99160292551005
20
408.125228858426
30
0
10
530.91846843918563
20
412.08241170619215
30
0
10
530.35995335001292
20
417.54279459433059
30
0
10
523.46703263754887
20
417.24170644531051
30
0
10
520.8570736276879
20
420.77749626768821
30
0
10
518.3559480244212
20
425.96409395721241
30
0
10
510.5218755408041
20
425.18812647739998
30
0
10
510.57449305846308
20
438.93566692605503
30
0
10
520.84903038848302
20
439.17950756070093
30
0
10
528.87410430309569
20
437.19688843337428
30
0
10
533.76885779813347
20
432.78834086084493
30
0
10
538.16665757797125
20
431.00593415978693
30
0
10
539.07345950883962
20
424.76128136036886
30
0
10
543.5363876739691
20
421.49264730674821
30
0
10
552.25191635778901
20
425.4880360126038
30
0
10
562.30853373529544
20
425.5868903212388
30
0
10
561.95081688246955
20
434.6398295577369
30
0
10
570.89891842919553
20
433.62976040693661
30
0
10
570.93928395719206
20
444.83918838441366
30
0
10
568.75420899317612
20
452.62581715703232
30
0
10
570.4267455122698
20
458.33773334272496
30
0
10
579.47416532766374
20
457.04853014292928
30
0
10
581.81724835535692
20
447.5450782838567
30
0
10
592.09458807309989
20
446.03106634012244
30
0
10
600.66782081682891
20
445.95720218456478
30
0
10
605.54297535814601
20
451.05864770635128
30
0
10
610.1375772941019
20
452.62536368423383
30
0
10
615.09824956738066
20
453.92874820662325
30
0
10
615.13032755728648
20
459.67693564537461
30
0
10
618.66135330712666
20
463.71510923793642
30
0
10
624.43985487135478
20
464.30437300989593
30
0
10
624.91067725368009
20
470.95120833884448
30
0
10
631.78582842540231
20
469.04334511186289
30
0
10
633.54489424176177
20
474.04905290802833
30
0
10
637.63614347440478
20
477.36346958179439
30
0
10
638.10613902793887
20
482.84867500582351
30
0
10
643.88715417835465
20
486.39106632198707
30
0
10
651.85382760154516
20
489.09772806173305
30
0
10
658.04834402916299
20
496.46359212874955
30
0
10
661.78869605723276
20
506.60327567999207
30
0
10
672.88394703810832
20
505.34623024583601
30
0
10
674.33548886393919
20
513.2268181056254
30
0
10
681.90087634309612
20
515.03250207907331
30
0
10
681.64959862376213
20
524.03222547459461
30
0
10
690.04263550515179
20
523.6399968539705
30
0
10
694.38306293056121
20
517.57169646795501
30
0
10
703.72276849446519
20
521.96240990387582
30
0
10
716.56808796589735
20
518.05092326409874
30
0
10
729.13211680137124
20
524.58168089207027
30
0
10
743.06656589188935
20
523.68794883422356
30
0
10
751.61104605638593
20
528.97730160397271
30
0
10
760.09830697628104
20
534.2153609068838
30
0
10
769.13953933698758
20
531.11227352365506
30
0
10
774.75795247084511
20
535.64118623050217
30
0
10
780.09053630690823
20
535.25243489524064
30
0
10
784.77500234002275
20
532.32528664550227
30
0
10
791.12953853545366
20
535.68184677632996
30
0
10
799.65513902340922
20
533.46208823580866
30
0
10
811.91542170867865
20
528.46495372472179
30
0
10
828.9474478541249
20
530.36250754700723
30
0
10
845.7047950013125
20
533.9685008267154
30
0
10
858.24886718314758
20
528.08273713166932
30
0
10
865.76971430216986
20
532.62991594146229
30
0
10
874.3982202139116
20
529.40901022002413
30
0
10
874.01889993754662
20
536.37818624257034
30
0
10
871.69911251748476
20
539.8799560336704
30
0
10
870.40687630717923
20
546.22310449501083
30
0
10
869.64816919550822
20
555.27984096702289
30
0
10
858.47401733342679
20
559.61556758281063
30
0
10
858.75269233133736
20
570.96270799937724
30
0
10
857.247239363669
20
580.59838930580281
30
0
10
856.36627213804991
20
590.78568761466977
30
0
10
853.85667912494728
20
600.31590450204089
30
0
10
845.64837214083229
20
607.55584599762108
30
0
10
847.39762951186606
20
621.92312071390143
30
0
10
847.90680511315031
20
638.24151143967401
30
0
10
846.45470911805114
20
654.87727280988622
30
0
10
845.19455645688652
20
666.99678328928542
30
0
10
843.78169936921552
20
671.96660049429693
30
0
10
842.16684347253363
20
675.78169858429703
30
0
10
839.33741700394899
20
671.77628418969005
30
0
10
838.71925443542352
20
667.91742284239319
30
0
10
830.46588767158187
20
666.44261182237688
30
0
10
832.46838114998627
20
655.56650266339057
30
0
10
827.11119480190882
20
647.64891922985373
30
0
10
815.45964712408454
20
640.56793674880726
30
0
10
803.24523281584652
20
633.57625399183735
30
0
10
799.7369787361464
20
620.73448303275961
30
0
10
800.27640237630317
20
608.17583692664698
30
0
10
787.71838753453358
20
610.77192496042346
30
0
10
786.72630320360349
20
602.83702771796561
30
0
10
782.58102356298582
20
599.90810010167218
30
0
10
780.48196060193743
20
596.00173961603571
30
0
10
779.31516494205016
20
592.92952175436869
30
0
10
774.45497776311197
20
594.15564422165949
30
0
10
775.30010635757571
20
587.79056276352424
30
0
10
768.07652789843075
20
589.13359260190214
30
0
10
765.95687651388926
20
583.70247447229701
30
0
10
760.83200050979201
20
582.51765126422652
30
0
10
756.04480736548339
20
581.08921459942871
30
0
10
752.04747203972886
20
575.22103418013626
30
0
10
744.8312087003992
20
574.87576453862846
30
0
10
740.80881330921272
20
568.61598357861442
30
0
10
733.80235994137593
20
568.47251281462286
30
0
10
728.64233284352395
20
563.6341999530664
30
0
10
721.77304062697317
20
564.89443974797928
30
0
10
715.92427200421275
20
561.45704474685988
30
0
10
708.20518581510044
20
558.99358316869188
30
0
10
702.26131314367876
20
549.02722328132427
30
0
10
691.0583665074023
20
551.62592382416346
30
0
10
681.90581405783064
20
549.25213964255499
30
0
10
673.82686364474807
20
545.8466442987127
30
0
10
667.20192294720448
20
547.10830712138988
30
0
10
662.8030571041736
20
543.02637351350268
30
0
10
657.4382894724904
20
547.35996989769751
30
0
10
653.41632307257316
20
540.35958212114747
30
0
10
645.97237082345737
20
540.43646781167251
30
0
10
639.38533468327205
20
540.06650481238762
30
0
10
635.75554451121093
20
533.22962171431811
30
0
10
632.21685943494992
20
539.52519663079647
30
0
10
625.4755931394767
20
538.7455919030815
30
0
10
619.45587927432769
20
543.21915089212848
30
0
10
614.36823276546181
20
536.99199889682575
30
0
10
615.26097867474607
20
530.93948734769037
30
0
10
608.33834249967197
20
532.23328729891455
30
0
10
604.02626149507159
20
526.52219962516381
30
0
10
602.28886220713684
20
517.60768505836643
30
0
10
592.91116750198671
20
514.32456364242216
30
0
10
582.55689469311551
20
514.39034177731037
30
0
10
582.83003279562024
20
506.43072397405808
30
0
10
578.85269702609332
20
502.88838670688
30
0
10
575.51462108089208
20
501.00562534417918
30
0
10
570.23413252021123
20
502.99881838747018
30
0
10
567.61555811906658
20
503.60214213491423
30
0
10
568.18946915117033
20
498.20977868136504
30
0
10
562.09754160203352
20
500.46724845246968
30
0
10
559.87869551404526
20
494.73481893769298
30
0
10
552.04293695998592
20
495.52385397498284
30
0
10
550.44365731234177
20
484.3252635741494
30
0
10
539.53042957203888
20
488.47697766297898
30
0
10
534.69018458015455
20
483.78470907903204
30
0
10
528.92775602210008
20
484.57675839929954
30
0
10
525.37865088826038
20
480.96264235527991
30
0
10
517.63623329248298
20
482.444321508092
30
0
10
514.49082413254359
20
473.1656064796735
30
0
10
520.07984875266447
20
469.85786241747235
30
0
10
519.23421999159996
20
463.43707698990391
30
0
10
518.78151056249237
20
460.04528968031411
30
0
10
518.53791896244172
20
455.98854739931755
30
0
10
513.84558973568551
20
457.1123997514502
30
0
10
511.18782832819988
20
454.31787783328434
30
0
10
510.89451281544603
20
448.20913533385004
30
0
10
504.62644618011404
20
448.6306135873441
30
0
10
500.69272673543765
20
445.59803518993471
30
0
10
495.28403188778248
20
445.40909854584879
30
0
10
494.0759362683325
20
439.36878771065074
30
0
10
489.03179454516453
20
437.73876024805531
30
0
10
485.05979121188994
20
434.56185806464941
30
0
10
480.53953968027662
20
432.60214942855714
30
0
10
475.04023399836768
20
432.36025246298129
30
0
10
474.07758409314823
20
425.99752667332154
30
0
10
468.43244896375921
20
426.01989821667252
30
0
10
466.09434854363548
20
420.78491633013846
30
0
10
458.71157041510429
20
421.38189582000268
30
0
10
453.9168470994685
20
413.70959137662055
30
0
10
452.40414062630214
20
402.9802140357848
30
0
10
439.69783165222827
20
402.05265372634216
30
0
10
438.47519312658744
20
390.56185399232533
30
0
10
431.43658186649407
20
382.66181462968984
30
0
10
433.89952655806258
20
372.15094724117989
30
0
10
433.99495558501189
20
362.12220010281038
30
0
10
436.22670844948425
20
353.07807279254206
30
0
10
443.36555594633865
20
344.14820633656922
30
0
10
437.62121633432167
20
339.75209817543487
30
0
10
438.8555370064754
20
332.50699258638718
30
0
10
441.03064724334831
20
324.41173466367678
30
0
10
435.43540727469895
20
315.4518571797222
30
0
10
437.31009519937788
20
305.12865436102453
30
0
10
434.25165734863361
20
295.66727802280724
30
0
10
430.63035773084999
20
287.27134207204091
30
0
10
423.90891095246963
20
286.13965793976826
30
0
10
422.81894282557766
20
282.66925255663472
30
0
10
418.29118051419755
20
285.20535327006269
30
0
10
416.24803223723859
20
280.68655366388219
30
0
10
409.20011893615674
20
278.63239190027963
30
0
10
407.8993150699103
20
265.42295333636008
30
0
10
402.6592853792198
20
256.10245556098795
30
0
10
399.39715931775368
20
245.7598591397437
30
0
10
392.31230589731467
20
243.59868478894882
30
0
10
387.99319040895523
20
252.33645620333891
30
0
10
389.23940580912995
20
262.6179590891511
30
0
10
382.76161575516448
20
270.63012386112285
30
0
10
372.04508069113888
20
272.16942591079214
30
0
10
364.49233877184901
20
272.56052294547368
30
0
10
356.9136510081247
20
273.79762067383297
30
0
10
353.56175798795363
20
267.34658614703665
30
0
10
354.12929611470958
20
259.43149203592247
30
0
10
354.08840284991584
20
249.31593072682682
30
0
10
346.39379088939324
20
248.81524167720059
30
0
10
342.07983059647864
20
246.56665473136343
30
0
10
336.90886200718307
20
246.33640012657338
30
0
10
335.52971129928699
20
240.35359420578928
30
0
10
335.52509247348178
20
235.50010830637135
30
0
10
330.37616974755917
20
232.43981450563425
30
0
10
331.74537013178218
20
226.4641480799782
30
0
10
324.43363141823681
20
223.01133111399693
30
0
10
326.37504146820817
20
213.2418108728337
30
0
10
334.1798234774862
20
205.96182904259314
30
0
10
344.37474174821716
20
206.67644510617424
30
0
10
356.08064236656458
20
206.56489513852549
30
0
10
355.24387898710768
20
192.33520412009258
30
0
10
346.83246345296868
20
190.92793072681403
30
0
10
340.69624591450452
20
189.74162931781635
30
0
10
334.38048728776351
20
189.98915860077074
30
0
10
333.32666613017636
20
184.40089782218274
30
0
10
328.16588992933305
20
182.37923746960314
30
0
10
324.43142952058156
20
180.0750375515741
30
0
10
318.84676977748188
20
180.9498405114887
30
0
10
316.38253674021416
20
173.91628466780753
30
0
10
322.12021973381189
20
172.64679666038944
30
0
10
327.7720692271854
20
172.23417435845073
30
0
10
326.44329512274453
20
177.53439079290553
30
0
10
329.97173882935942
20
176.86859506466141
30
0
10
335.07118155343954
20
177.93581817252104
30
0
10
335.48640456536953
20
171.37153272474842
30
0
10
335.90366237982141
20
167.01130314053401
30
0
10
335.97534265698613
20
156.73928262253889
30
0
10
333.36622891718292
20
145.4039224745232
30
0
10
325.51410601644943
20
133.99917625933526
30
0
10
327.724659809169
20
120.28945181908568
30
0
10
337.4281043971535
20
105.66299705361575
30
0
10
331.25846237938856
20
88.712992134668838
30
0
10
333.11719319233282
20
74.805857930084215
30
0
10
325.59438004020569
20
66.954675224176242
30
0
10
326.92790494562161
20
55.94641929814982
30
0
10
319.97511155859564
20
50.340952908362269
30
0
10
316.48907137800518
20
44.726240323157604
30
0
10
316.53604161240526
20
38.432671583285725
30
0
10
309.95904231922049
20
38.501610143071552
30
0
10
309.8411102647886
20
32.863149991720647
30
0
10
305.75545926755512
20
29.529839032613179
30
0
10
311.07683776562067
20
22.489185409928623
30
0
10
308.84813261147156
20
15.904612387332905
30
0
10
311.9077517259837
20
9.5371860262415993
30
0
10
317.3129532994152
20
7.9808039647365838
30
0
10
314.80377770638245
20
1.5627658556149977
30
0
10
316.68940312444767
20
-4.8010635966954309
30
0
10
323.78119306276608
20
-8.3945888557460897
30
0
10
322.69648503410485
20
-15.691652750163511
30
0
10
322.68051031310443
20
-21.979726339851602
30
0
10
320.26937519410745
20
-29.783023032238127
30
0
10
315.87819797540317
20
-40.921066336366955
30
0
10
329.12523025780479
20
-43.003705048352714
30
0
10
332.83223942357154
20
-50.836272097567061
30
0
10
340.51808730132063
20
-50.654613770988234
30
0
10
340.95428495149736
20
-57.208615293685241
30
0
10
338.94832007913089
20
-61.661587618248873
30
0
10
340.93784555788591
20
-66.409925292531995
30
0
10
342.3655379538468
20
-72.547782056235093
30
0
10
350.5000857757687
20
-68.54271835425746
30
0
10
354.02019284898688
20
-76.446004863897343
30
0
10
355.24912519511275
20
-84.073634499911179
30
0
10
361.43878992423419
20
-83.520933320131377
30
0
10
363.20753840923555
20
-89.588545439843713
30
0
10
370.25268528098854
20
-90.530994217613113
30
0
10
378.05254735852878
20
-93.128957653215679
30
0
10
384.47207791785047
20
-94.639775727716327
30
0
10
387.92438507080067
20
-95.196828842163058
30
0
0
SPLINE
5
104
100
AcDbEntity
8
0
100
AcDbSpline
70
2
71
3
72
45
73
41
74
0
42
0.000000001
43
0.0000000001
44
0.0000000001
40
0
40
0
40
0
40
0
40
0.86799305033977137
40
1.7359861006795427
40
2.6039791510193142
40
3.4719722013590855
40
4.3399652516988567
40
5.2079583020386284
40
6.0759513523784001
40
6.9439444027181709
40
7.8119374530579417
40
8.6799305033977134
40
9.5479235537374851
40
10.415916604077257
40
10.849913129247142
40
11.283909654417029
40
12.1519027047568
40
12.585899229926685
40
13.01989575509657
40
13.887888805436342
40
14.321885330606229
40
14.755881855776114
40
15.623874906115883
40
16.491867956455657
40
16.925864481625542
40
17.359861006795427
40
18.227854057135197
40
19.09584710747497
40
19.529843632644855
40
19.963840157814744
40
20.831833208154514
40
21.699826258494284
40
22.567819308834057
40
23.435812359173831
40
24.3038054095136
40
24.737801934683485
40
25.17179845985337
40
26.03979151019314
40
26.90778456053291
40
27.775777610872684
40
27.775777610872684
40
27.775777610872684
40
27.775777610872684
10
162.92438507080075
20
615.30979156494141
30
0
10
165.82873915738594
20
614.9722378565657
30
0
10
171.53615084976758
20
616.57941039159869
30
0
10
180.1779432702688
20
614.67758110937154
30
0
10
189.00788751318817
20
617.33085585082711
30
0
10
197.16331973759796
20
611.69389539556914
30
0
10
204.66231859469605
20
616.39747173456954
30
0
10
213.52515166840035
20
616.34741098201403
30
0
10
223.04152968976936
20
617.01268932782864
30
0
10
227.05054168796443
20
624.84292164144097
30
0
10
233.85548945634642
20
630.44236161651099
30
0
10
234.43962397742698
20
640.03257966189324
30
0
10
244.2073731001642
20
642.35889900477969
30
0
10
249.8932245706751
20
646.44315634600559
30
0
10
251.21453305298201
20
652.79780188224709
30
0
10
244.54429324063307
20
655.74859812874831
30
0
10
241.17342586481286
20
659.94811502433879
30
0
10
234.80225372557445
20
660.29120162814479
30
0
10
231.84353334767326
20
666.81183445825229
30
0
10
225.29056883520599
20
664.3940553795826
30
0
10
220.17289338379794
20
667.2857025026351
30
0
10
214.34550536657386
20
667.16425085633989
30
0
10
212.68804207148037
20
677.23738862732534
30
0
10
202.77448921919759
20
673.17822655377768
30
0
10
200.39560459355644
20
680.4284554525218
30
0
10
193.92061619177849
20
679.29742684406779
30
0
10
188.07651245577179
20
683.47294818453952
30
0
10
180.44052048499486
20
680.91947089695373
30
0
10
175.11735107936425
20
679.16392384750316
30
0
10
174.55202049310566
20
672.68950054699462
30
0
10
172.96841118403205
20
665.9137638325135
30
0
10
173.69373690640919
20
657.26234211345491
30
0
10
172.08508817396216
20
647.9882756117845
30
0
10
160.33849564605075
20
649.68319246903002
30
0
10
161.33897592125351
20
638.87282080561613
30
0
10
155.44943077966809
20
637.38892697211224
30
0
10
151.20274581340587
20
634.21596044006856
30
0
10
151.2456180214497
20
625.70915899742749
30
0
10
154.11002633025629
20
618.60473264185339
30
0
10
160.02003098421554
20
615.64734527331723
30
0
10
162.92438507080075
20
615.30979156494141
30
0
0
SPLINE
5
105
100
AcDbEntity
8
0
100
AcDbSpline
70
2
71
3
72
47
73
43
74
0
42
0.000000001
43
0.0000000001
44
0.0000000001
40
0
40
0
40
0
40
0
40
0.7578375374627998
40
1.5156750749255996
40
3.0313501498511992
40
4.5470252247767986
40
5.3048627622395985
40
5.6837815309709985
40
6.0627002997023984
40
6.4416190684337984
40
6.8205378371651975
40
7.5783753746279974
40
8.3362129120907973
40
9.0940504495535972
40
9.8518879870163971
40
10.230806755747796
40
10.609725524479197
40
10.988644293210598
40
11.367563061941997
40
12.125400599404797
40
12.504319368136198
40
12.883238136867597
40
13.641075674330395
40
14.398913211793195
40
15.156750749255995
40
15.914588286718795
40
16.672425824181595
40
17.051344592912994
40
17.430263361644393
40
18.188100899107194
40
18.567019667838593
40
18.945938436569996
40
19.703775974032794
40
20.082694742764193
40
20.461613511495592
40
20.840532280226995
40
21.219451048958394
40
21.598369817689793
40
21.977288586421196
40
22.735126123883994
40
23.492963661346792
40
24.250801198809594
40
24.250801198809594
40
24.250801198809594
40
24.250801198809594
10
419.42440032958984
20
645.29525756835949
30
0
10
421.45362306606762
20
645.22267628249892
30
0
10
425.86095567829767
20
649.88874423929656
30
0
10
431.34440919079333
20
657.62751599325202
30
0
10
432.07972248462124
20
672.07212704274309
30
0
10
417.9036372758211
20
677.49263473266569
30
0
10
415.6236667378551
20
686.63196340760737
30
0
10
418.77641453766961
20
691.39853730031791
30
0
10
414.75458720079871
20
695.25110419580653
30
0
10
418.53151483783381
20
698.14027355453686
30
0
10
413.00138246572442
20
703.10072785051887
30
0
10
405.76283649713059
20
703.03040161906108
30
0
10
405.9445073372973
20
711.84622413408033
30
0
10
403.40849692904271
20
718.7443056662363
30
0
10
402.50127298699647
20
724.1852792953847
30
0
10
402.59711341495773
20
731.26347382680751
30
0
10
400.32511043233916
20
730.8001040067038
30
0
10
396.00542205809779
20
730.69375129517789
30
0
10
391.67365294423223
20
733.1798623994041
30
0
10
390.55295849850415
20
724.52685586535199
30
0
10
385.73980928251621
20
724.39181149429828
30
0
10
383.12697248105673
20
718.17532131075745
30
0
10
388.93496962480333
20
714.08562247867337
30
0
10
388.46885359314501
20
705.96923380484156
30
0
10
390.79736450303562
20
698.68640431751703
30
0
10
390.53950396801679
20
691.39866794956379
30
0
10
392.16038570195843
20
685.22406441727389
30
0
10
389.37398794339259
20
680.20506686203657
30
0
10
383.56298705101074
20
679.95638301303211
30
0
10
382.65627861767098
20
673.1952983815479
30
0
10
388.5914811485855
20
672.38832921901326
30
0
10
391.63206292828318
20
667.64594403046999
30
0
10
396.77172564961728
20
668.85014612543262
30
0
10
403.20256044326783
20
667.76251142960996
30
0
10
403.38965406642762
20
668.55175345006683
30
0
10
402.67408293091938
20
674.1421707749505
30
0
10
408.89162471328683
20
670.15809945790363
30
0
10
405.82769562442962
20
666.689426554183
30
0
10
407.40600091477916
20
661.64763795113095
30
0
10
408.44695339480808
20
655.15375477645807
30
0
10
413.68561925943135
20
650.32423195445995
30
0
10
417.39517759311218
20
645.36783885422005
30
0
10
419.42440032958984
20
645.29525756835949
30
0
0
SPLINE
5
106
100
AcDbEntity
8
0
100
AcDbSpline
70
2
71
3
72
46
73
42
74
0
42
0.000000001
43
0.0000000001
44
0.0000000001
40
0
40
0
40
0
40
0
40
0.71660911857909471
40
1.4332182371581894
40
2.1498273557372842
40
2.5081319150268317
40
2.8664364743163788
40
3.2247410336059259
40
3.5830455928954734
40
4.2996547114745685
40
5.0162638300536635
40
5.7328729486327576
40
6.4494820672118518
40
7.1660911857909468
40
8.5993094229491369
40
9.315918541528232
40
10.032527660107327
40
10.74913677868642
40
11.107441337975967
40
11.465745897265515
40
12.18235501584461
40
12.898964134423704
40
13.615573253002799
40
13.973877812292347
40
14.332182371581894
40
15.048791490160989
40
15.765400608740084
40
16.482009727319181
40
17.198618845898274
40
17.915227964477367
40
18.631837083056464
40
18.990141642346011
40
19.348446201635561
40
20.065055320214654
40
20.423359879504201
40
20.781664438793747
40
21.139968998083294
40
21.498273557372841
40
22.214882675951934
40
22.573187235241484
40
22.931491794531031
40
22.931491794531031
40
22.931491794531031
40
22.931491794531031
10
113.4243869781494
20
802.8865051269529
30
0
10
115.15586982868051
20
801.76192570870421
30
0
10
120.72498657968507
20
802.26671097119777
30
0
10
127.71050993494057
20
801.08219588292036
30
0
10
132.89534091822887
20
800.28114981904935
30
0
10
139.14016015979092
20
800.63072739665768
30
0
10
139.11305304665416
20
803.90778073836816
30
0
10
139.39759703789565
20
809.29025818156765
30
0
10
143.91783245490555
20
807.23332932459493
30
0
10
151.16941208233681
20
806.08489829697771
30
0
10
151.63773255515034
20
815.27566221007521
30
0
10
154.46801838961142
20
821.09246401927703
30
0
10
154.48119666805115
20
829.01057727128136
30
0
10
150.55114114249761
20
836.88799038825539
30
0
10
142.54959015674106
20
843.52487561272267
30
0
10
139.81060736203932
20
852.57724226943787
30
0
10
133.75268243150052
20
857.5412836017199
30
0
10
137.05538272423877
20
864.71865357696015
30
0
10
130.37192436665242
20
865.18338108972773
30
0
10
126.68574609256976
20
867.98911366139282
30
0
10
120.32245400532651
20
865.58656882267383
30
0
10
113.17998465532141
20
866.99990824183442
30
0
10
107.66539608144345
20
863.52693977783804
30
0
10
105.3049719119668
20
858.81693340535071
30
0
10
99.228600177737462
20
859.25783471183195
30
0
10
99.791014330776946
20
852.41692821589015
30
0
10
97.636736708794544
20
843.02093917544437
30
0
10
108.23549028314595
20
846.58323188291433
30
0
10
111.50628340464992
20
840.03337948206604
30
0
10
114.91375904550475
20
833.38337920193248
30
0
10
121.33027152683579
20
835.55487561660982
30
0
10
126.58247629648058
20
832.18594724488889
30
0
10
123.19329647950759
20
827.57101450471737
30
0
10
120.18005516608557
20
823.59528745478656
30
0
10
114.83892986866826
20
825.84117149966028
30
0
10
112.41099717342689
20
822.79381468942597
30
0
10
114.07718743539607
20
819.05816963914606
30
0
10
111.99731621195767
20
814.75696164307692
30
0
10
114.31930878045097
20
809.36681164338916
30
0
10
111.35370046483828
20
805.26186027907329
30
0
10
112.55864555288383
20
803.44879483607713
30
0
10
113.4243869781494
20
802.8865051269529
30
0
0
SPLINE
5
107
100
AcDbEntity
8
0
100
AcDbSpline
70
2
71
3
72
21
73
17
74
0
42
0.000000001
43
0.0000000001
44
0.0000000001
40
0
40
0
40
0
40
0
40
0.55952684076350012
40
1.1190536815270002
40
1.6785805222905004
40
2.2381073630540005
40
2.7976342038175006
40
3.3571610445810007
40
4.476214726108001
40
5.0357415668715007
40
5.5952684076350012
40
6.1547952483985018
40
6.7143220891620015
40
7.2738489299255011
40
7.8333757706890017
40
8.9524294522160019
40
8.9524294522160019
40
8.9524294522160019
40
8.9524294522160019
10
162.92438507080078
20
760.89057922363281
30
0
10
164.39172914676141
20
760.40897098419578
30
0
10
168.18428804396021
20
761.57851599455353
30
0
10
175.59583783855996
20
758.76292570282658
30
0
10
175.9295431484602
20
765.47109661291654
30
0
10
182.15217980679785
20
768.13316809753269
30
0
10
180.9462006473116
20
774.71648215546281
30
0
10
173.44189024642301
20
777.55966776458706
30
0
10
167.76117676762655
20
782.46991746101014
30
0
10
161.05748850684105
20
783.3859282175647
30
0
10
156.25678027338137
20
789.02183296724183
30
0
10
151.08600740431223
20
782.51362780693512
30
0
10
157.14409890298023
20
780.34121064945737
30
0
10
160.21420902993538
20
776.72432653893384
30
0
10
158.16127692683031
20
769.69690488851313
30
0
10
159.98969691887956
20
761.85379570250689
30
0
10
162.92438507080078
20
760.89057922363281
30
0
0
SPLINE
5
108
100
AcDbEntity
8
0
100
AcDbSpline
70
2
71
3
72
71
73
67
74
0
42
0.000000001
43
0.0000000001
44
0.0000000001
40
0
40
0
40
0
40
0
40
0.74310054871062092
40
1.4862010974212418
40
2.9724021948424837
40
3.3439524691977942
40
3.7155027435531043
40
4.4586032922637253
40
4.8301535666190354
40
5.2017038409743463
40
5.9448043896849674
40
6.6879049383955884
40
7.4310054871062086
40
8.1741060358168305
40
8.9172065845274506
40
9.6603071332380708
40
10.031857407593382
40
10.403407681948693
40
11.146508230659315
40
11.889608779369935
40
12.261159053725244
40
12.632709328080555
40
13.375809876791177
40
14.118910425501797
40
14.862010974212417
40
16.348212071633661
40
17.834413169054901
40
19.320614266476142
40
20.063714815186763
40
20.806815363897385
40
21.549915912608007
40
22.293016461318629
40
22.66456673567394
40
23.036117010029251
40
23.77921755873987
40
24.522318107450488
40
25.26541865616111
40
26.751619753582354
40
27.494720302292976
40
28.237820851003598
40
28.980921399714219
40
29.724021948424838
40
30.467122497135456
40
31.210223045846078
40
31.9533235945567
40
32.696424143267322
40
34.182625240688566
40
35.668826338109803
40
37.155027435531039
40
37.898127984241661
40
38.269678258596969
40
38.641228532952283
40
39.384329081662905
40
39.755879356018212
40
40.127429630373527
40
40.870530179084149
40
41.613630727794771
40
42.356731276505393
40
43.099831825216015
40
43.471382099571329
40
43.842932373926637
40
44.586032922637258
40
45.32913347134788
40
46.072234020058502
40
46.815334568769117
40
47.558435117479739
40
47.558435117479739
40
47.558435117479739
40
47.558435117479739
10
1170.9243774414065
20
485.05222320556646
30
0
10
1173.3032984652818
20
484.4374874205588
30
0
10
1178.2935459183384
20
484.11752387487218
30
0
10
1187.9601952537141
20
483.96811511912773
30
0
10
1197.387110749326
20
482.88730277676962
30
0
10
1203.3367255077699
20
486.58951206599363
30
0
10
1209.3843743771472
20
484.8577705438878
30
0
10
1208.712295922116
20
494.42604657907447
30
0
10
1201.9217874389417
20
491.8739796472392
30
0
10
1200.8360672489757
20
497.98010710531793
30
0
10
1194.511494333256
20
500.42389126653183
30
0
10
1189.855646104319
20
506.03943847665283
30
0
10
1187.2881020117345
20
512.9828641800143
30
0
10
1177.5116694789717
20
513.70341320323769
30
0
10
1180.5757414412199
20
522.56213518837717
30
0
10
1178.5000113991898
20
529.7838154824243
30
0
10
1185.2000407466815
20
529.9172445739564
30
0
10
1183.9887921623877
20
536.17956099943785
30
0
10
1186.2527164355643
20
541.33566148307307
30
0
10
1185.9884275226873
20
548.35559135413087
30
0
10
1190.1707881372326
20
550.42105682633189
30
0
10
1189.4847815352059
20
557.09921018614534
30
0
10
1185.4955559430214
20
560.85622961187187
30
0
10
1180.1549954832685
20
566.50893247601084
30
0
10
1179.2774581779606
20
576.59561274288126
30
0
10
1180.0996060694019
20
588.93234485325127
30
0
10
1178.4610677297374
20
603.78485217373941
30
0
10
1176.083121413335
20
615.60069088368232
30
0
10
1176.9458128078893
20
626.36032434482786
30
0
10
1171.1661495458293
20
631.45712951124347
30
0
10
1170.7606177497028
20
639.47486633986921
30
0
10
1167.9455119666573
20
644.38248837056324
30
0
10
1166.1864947535516
20
650.34667539490783
30
0
10
1164.0334255638127
20
643.01058906084916
30
0
10
1162.183733773998
20
637.99927284179159
30
0
10
1152.4464548478293
20
637.21742998841569
30
0
10
1152.521756396307
20
626.6358042841689
30
0
10
1146.8927249616772
20
618.80831482139376
30
0
10
1144.6719085282982
20
608.25611202188657
30
0
10
1137.3778643061814
20
605.59682386299482
30
0
10
1138.1395556252144
20
596.75163951376021
30
0
10
1136.437613711395
20
589.83935521684862
30
0
10
1133.4011020306084
20
583.05633810963468
30
0
10
1133.0024629898674
20
575.50386682478586
30
0
10
1124.4138711830733
20
572.42513179307366
30
0
10
1123.2184078427415
20
561.97897606627794
30
0
10
1119.0936987893369
20
550.45863657420443
30
0
10
1117.6056276978545
20
536.07032140070885
30
0
10
1111.9581541836733
20
523.68567406342186
30
0
10
1102.783916825945
20
520.96181635586015
30
0
10
1101.8338108456066
20
515.56696300152464
30
0
10
1098.2728616580569
20
512.10891244145284
30
0
10
1098.4493926513508
20
507.01476677583719
30
0
10
1098.5685004021402
20
501.4338239123623
30
0
10
1104.8593121525928
20
501.27610999196918
30
0
10
1110.057992831858
20
499.65747571003186
30
0
10
1117.7864625572533
20
500.10606146449874
30
0
10
1125.1489601504277
20
499.81766078333806
30
0
10
1131.3343242673975
20
500.63025400321692
30
0
10
1136.2811602585832
20
499.80398152589919
30
0
10
1138.8723248645581
20
493.84863252824914
30
0
10
1145.8895198230166
20
497.46839606331457
30
0
10
1148.7096070035464
20
487.95268876007839
30
0
10
1157.6560857444213
20
491.87463116047229
30
0
10
1164.0200197750876
20
487.80593858491784
30
0
10
1168.5454564175313
20
485.66695899057407
30
0
10
1170.9243774414065
20
485.05222320556646
30
0
0
SPLINE
5
109
100
AcDbEntity
8
0
100
AcDbSpline
70
2
71
3
72
70
73
66
74
0
42
0.000000001
43
0.0000000001
44
0.0000000001
40
0
40
0
40
0
40
0
40
0.82188215613069915
40
1.2328232341960488
40
1.6437643122613983
40
2.4656464683920976
40
3.2875286245227966
40
3.6984697025881461
40
4.1094107806534961
40
4.9312929367841951
40
5.3422340148495451
40
5.7531750929148942
40
6.5750572490455932
40
7.3969394051762922
40
7.8078804832416422
40
8.2188215613069922
40
8.6297626393723412
40
9.0407037174376903
40
9.4516447955030394
40
9.8625858735683902
40
10.273526951633741
40
10.68446802969909
40
11.506350185829788
40
13.150114498091186
40
13.971996654221886
40
14.793878810352584
40
16.437643122613984
40
17.259525278744682
40
17.670466356810032
40
18.081407434875381
40
18.903289591006079
40
19.72517174713678
40
20.547053903267482
40
21.36893605939818
40
22.190818215528878
40
23.012700371659577
40
23.423641449724926
40
23.834582527790275
40
24.656464683920973
40
25.067405761986322
40
25.478346840051671
40
26.300228996182373
40
27.122111152313074
40
27.943993308443773
40
29.587757620705169
40
30.409639776835867
40
31.231521932966569
40
32.875286245227969
40
33.697168401358667
40
34.519050557489365
40
34.929991635554714
40
35.340932713620063
40
35.751873791685412
40
36.162814869750761
40
37.806579182012158
40
39.450343494273561
40
42.737872118796361
40
44.381636431057757
40
46.025400743319153
40
47.66916505558055
40
49.312929367841946
40
50.134811523972644
40
50.956693680103342
40
51.77857583623404
40
52.600457992364746
40
52.600457992364746
40
52.600457992364746
40
52.600457992364746
10
1481.4244079589844
20
114.62856292724609
30
0
10
1483.1698439483014
20
112.81017623623643
30
0
10
1488.8635220272663
20
112.30847558084201
30
0
10
1491.4051942802666
20
117.85202747295769
30
0
10
1497.5831830939615
20
117.99904204961658
30
0
10
1497.000265931682
20
127.46288070941269
30
0
10
1498.8005927629542
20
133.15479757094062
30
0
10
1498.4601453508856
20
139.40738596330607
30
0
10
1504.0227709632302
20
141.68130733131758
30
0
10
1509.3021707337587
20
143.36340425105794
30
0
10
1510.0153833153304
20
149.52294845971542
30
0
10
1514.2361638763848
20
152.87122907235468
30
0
10
1514.1926968122839
20
162.01266848135478
30
0
10
1523.286498814364
20
160.2862250560479
30
0
10
1526.0527208655531
20
164.93065262103534
30
0
10
1530.7680792787335
20
165.05895160536477
30
0
10
1533.2642243465516
20
168.9565785711558
30
0
10
1537.5908536627005
20
168.70649736983427
30
0
10
1542.050958068276
20
169.20623300610387
30
0
10
1541.8977827859799
20
174.26480169074867
30
0
10
1546.1688378612016
20
176.43155300005367
30
0
10
1545.3298319985013
20
182.58309454618282
30
0
10
1547.0425570175448
20
191.69053061508382
30
0
10
1551.8587606298158
20
202.34847285526592
30
0
10
1549.3194727692
20
213.09422442974025
30
0
10
1549.2026340905365
20
224.21460467389011
30
0
10
1540.5368632995555
20
232.57659330844206
30
0
10
1533.6895560009184
20
238.50141590759313
30
0
10
1531.7819775279499
20
245.07909175356573
30
0
10
1526.3299177834833
20
243.6720691125517
30
0
10
1517.7586581865589
20
242.09270618241567
30
0
10
1518.9371804990244
20
252.3977199971909
30
0
10
1510.9445922162311
20
257.4774943876659
30
0
10
1512.2765182413009
20
266.47900175616007
30
0
10
1507.5550503446225
20
273.88836740438768
30
0
10
1498.4085553814675
20
272.29845009867182
30
0
10
1497.6964098214241
20
279.1046801900888
30
0
10
1493.8365423960042
20
282.9957254687522
30
0
10
1492.7356915044461
20
288.40561158171022
30
0
10
1490.6206213213716
20
293.91430340450876
30
0
10
1483.9304978344799
20
292.11563841747466
30
0
10
1480.5658396488766
20
299.8593168169059
30
0
10
1474.2757620653731
20
304.30866514045778
30
0
10
1464.5680642064376
20
309.26293078621802
30
0
10
1460.5091125908348
20
323.79548248765161
30
0
10
1449.0202448123578
20
318.37051960538577
30
0
10
1435.5654050338858
20
321.94852010042507
30
0
10
1442.35023112407
20
305.25044201589623
30
0
10
1444.5844365859818
20
295.83186684731294
30
0
10
1445.0508648975585
20
289.04468411722843
30
0
10
1444.6287073861756
20
282.93138078170045
30
0
10
1448.0860325467734
20
281.0264514833907
30
0
10
1450.4479812475943
20
278.44915423881895
30
0
10
1453.2860670399946
20
270.21409480557503
30
0
10
1454.5238240201527
20
258.43557940303009
30
0
10
1459.0031993987225
20
236.75673452342863
30
0
10
1460.5855524551016
20
214.9234849256348
30
0
10
1462.8917704508206
20
193.29287115704659
30
0
10
1461.4260261818954
20
176.185841339636
30
0
10
1473.4491601263892
20
162.99493674398775
30
0
10
1470.3965675604729
20
148.07817895595798
30
0
10
1477.0511713965184
20
138.84167087565783
30
0
10
1477.7393823374955
20
130.48661930650579
30
0
10
1480.2887987843524
20
123.05156217510196
30
0
10
1479.6789719696674
20
116.44694961825579
30
0
10
1481.4244079589844
20
114.62856292724609
30
0
0
ENDSEC
0
SECTION
2
OBJECTS
0
DICTIONARY
5
C
100
AcDbDictionary
3
ACAD_GROUP
350
D
3
ACAD_MLINESTYLE
350
17
0
DICTIONARY
5
D
100
AcDbDictionary
0
DICTIONARY
5
1A
330
C
100
AcDbDictionary
0
DICTIONARY
5
17
100
AcDbDictionary
0
ENDSEC
0
EOF
