0
SECTION
2
HEADER
9
$INSUNITS
70
4
9
$ACADVER
1
AC1014
9
$HANDSEED
5
FFFF
0
ENDSEC
0
SECTION
2
TABLES
0
TABLE
2
VPORT
5
8
100
AcDbSymbolTable
0
ENDTAB
0
TABLE
2
LTYPE
5
5
100
AcDbSymbolTable
0
LTYPE
5
14
100
AcDbSymbolTableRecord
100
AcDbLinetypeTableRecord
2
BYBLOCK
70
0
0
LTYPE
5
15
100
AcDbSymbolTableRecord
100
AcDbLinetypeTableRecord
2
BYLAYER
70
0
0
LTYPE
5
16
100
AcDbSymbolTableRecord
100
AcDbLinetypeTableRecord
2
DASHED
70
0
3
Dashed __ __ __ __ __ __ __ __ __ __ __ __ __ _
72
65
73
2
40
0.75
49
0.5
74
0
49
-0.25
74
0
0
ENDTAB
0
TABLE
2
LAYER
5
2
100
AcDbSymbolTable
70
2
0
LAYER
5
50
100
AcDbSymbolTableRecord
100
AcDbLayerTableRecord
2
0
70
0
62
7
6
CONTINUOUS
0
ENDTAB
0
TABLE
2
STYLE
5
3
100
AcDbSymbolTable
70
1
0
STYLE
5
11
100
AcDbSymbolTableRecord
100
AcDbTextStyleTableRecord
2
STANDARD
70
0
0
ENDTAB
0
TABLE
2
VIEW
5
6
100
AcDbSymbolTable
70
0
0
ENDTAB
0
TABLE
2
UCS
5
7
100
AcDbSymbolTable
70
0
0
ENDTAB
0
TABLE
2
APPID
5
9
100
AcDbSymbolTable
70
2
0
APPID
5
12
100
AcDbSymbolTableRecord
100
AcDbRegAppTableRecord
2
ACAD
70
0
0
ENDTAB
0
TABLE
2
DIMSTYLE
5
A
100
AcDbSymbolTable
70
1
0
ENDTAB
0
TABLE
2
BLOCK_RECORD
5
1
100
AcDbSymbolTable
70
1
0
BLOCK_RECORD
5
1F
100
AcDbSymbolTableRecord
100
AcDbBlockTableRecord
2
*MODEL_SPACE
0
BLOCK_RECORD
5
1B
100
AcDbSymbolTableRecord
100
AcDbBlockTableRecord
2
*PAPER_SPACE
0
ENDTAB
0
ENDSEC
0
SECTION
2
BLOCKS
0
BLOCK
5
20
100
AcDbEntity
100
AcDbBlockBegin
2
*MODEL_SPACE
0
ENDBLK
5
21
100
AcDbEntity
100
AcDbBlockEnd
0
BLOCK
5
1C
100
AcDbEntity
100
AcDbBlockBegin
2
*PAPER_SPACE
0
ENDBLK
5
1D
100
AcDbEntity
100
AcDbBlockEnd
0
ENDSEC
0
SECTION
2
ENTITIES
0
LWPOLYLINE
5
100
100
AcDbEntity
8
0
100
AcDbPolyline
90
4
70
1
43
0.0
10
1900
20
-800
10
0
20
-800
10
0
20
900
10
1900
20
900
0
SPLINE
5
101
100
AcDbEntity
8
0
100
AcDbSpline
70
2
71
3
72
48
73
44
74
0
42
0.000000001
43
0.0000000001
44
0.0000000001
40
0
40
0
40
0
40
0
40
0.79448927223017007
40
1.1917339083452552
40
1.5889785444603401
40
2.3834678166905103
40
3.1779570889206803
40
3.9724463611508503
40
4.3696909972659359
40
4.7669356333810207
40
5.1641802694961054
40
5.5614249056111902
40
5.9586695417262749
40
6.3559141778413606
40
6.554536495898903
40
6.7531588139564462
40
7.150403450071531
40
7.5476480861866158
40
7.9448927223017005
40
8.7393819945318718
40
9.1366266306469566
40
9.5338712667620413
40
10.328360538992211
40
11.12284981122238
40
11.91733908345255
40
12.711828355682721
40
13.109072991797806
40
13.506317627912892
40
14.300806900143062
40
15.095296172373232
40
15.889785444603401
40
16.287030080718488
40
16.684274716833571
40
17.478763989063744
40
17.876008625178827
40
18.273253261293913
40
19.067742533524083
40
19.862231805754252
40
20.656721077984422
40
22.245699622444761
40
23.8346781669051
40
24.629167439135273
40
25.423656711365442
40
25.423656711365442
40
25.423656711365442
40
25.423656711365442
10
1481.4244079589841
20
170.20204544067383
30
0
10
1483.2088094599478
20
168.80005911549461
30
0
10
1489.2334992382089
20
169.85389275052916
30
0
10
1489.8899342712029
20
175.36131353897485
30
0
10
1493.6561585106169
20
179.90748370078359
30
0
10
1488.8909265728021
20
186.16601238207505
30
0
10
1485.3710626692848
20
193.3499190710171
30
0
10
1488.7107419519652
20
200.11847767922842
30
0
10
1485.390276669493
20
205.49889769466122
30
0
10
1487.3136864118374
20
207.54075040369617
30
0
10
1489.0606388102176
20
211.6335699524453
30
0
10
1485.5441491972151
20
214.98579880981853
30
0
10
1488.210248352299
20
218.94651130764646
30
0
10
1485.9411310127198
20
222.65339510553571
30
0
10
1488.5620074205917
20
224.32227044555719
30
0
10
1487.2249627474823
20
227.77028369908658
30
0
10
1492.4828820842517
20
227.45824854400661
30
0
10
1491.2755372798702
20
232.69148651493373
30
0
10
1491.1317785983683
20
237.08442060770886
30
0
10
1489.1874973648235
20
242.44936939308144
30
0
10
1489.306373043047
20
248.0924350899447
30
0
10
1496.7932791922599
20
248.5747012155218
30
0
10
1495.0224847472875
20
257.0417945157136
30
0
10
1491.8868058478324
20
263.12282037107025
30
0
10
1492.9411473777809
20
273.54802863856372
30
0
10
1484.0966323850282
20
272.43178828607716
30
0
10
1482.5144222112012
20
280.26163348615376
30
0
10
1478.6567563850558
20
277.90533150396141
30
0
10
1478.6065814685412
20
270.39298015639508
30
0
10
1476.1517983843469
20
262.35528726534028
30
0
10
1481.2751010151715
20
257.87684359025843
30
0
10
1483.0029678981332
20
250.85058779207486
30
0
10
1475.9945282785256
20
250.70128813416329
30
0
10
1476.784932870904
20
242.82437473603784
30
0
10
1470.4126723487818
20
243.31196768360428
30
0
10
1467.5711725256947
20
237.25162252158276
30
0
10
1472.4464613175855
20
232.40361974508218
30
0
10
1473.0834990449625
20
224.12501719275815
30
0
10
1478.6535142587668
20
215.4033231254578
30
0
10
1479.5119910769954
20
201.57357068039713
30
0
10
1479.4622917852871
20
188.32307571186917
30
0
10
1480.5353201585147
20
178.61708857994932
30
0
10
1479.6400064580207
20
171.60403176585305
30
0
10
1481.4244079589841
20
170.20204544067383
30
0
0
SPLINE
5
102
100
AcDbEntity
8
0
100
AcDbSpline
70
2
71
3
72
45
73
41
74
0
42
0.000000001
43
0.0000000001
44
0.0000000001
40
0
40
0
40
0
40
0
40
0.84282359520077788
40
1.2642353928011669
40
1.6856471904015558
40
2.5284707856023338
40
3.3712943808031115
40
4.2141179760038892
40
5.0569415712046677
40
5.4783533688050561
40
5.8997651664054453
40
6.3211769640058346
40
6.742588761606223
40
7.1640005592066114
40
7.5854123568070007
40
8.4282359520077783
40
10.113883142409335
40
11.799530332810891
40
12.642353928011669
40
13.063765725612058
40
13.485177523212446
40
13.906589320812834
40
14.328001118413223
40
14.749412916013611
40
15.170824713614001
40
15.592236511214391
40
16.01364830881478
40
16.435060106415168
40
16.856471904015557
40
17.699295499216333
40
18.54211909441711
40
20.227766284818667
40
21.913413475220224
40
22.756237070421001
40
23.599060665621778
40
24.020472463222166
40
24.441884260822555
40
25.284707856023335
40
26.127531451224115
40
26.970355046424892
40
26.970355046424892
40
26.970355046424892
40
26.970355046424892
10
1148.424377441406
20
502.85282135009766
30
0
10
1151.231836160691
20
502.66518022940318
30
0
10
1155.6897578163037
20
503.58738297792195
30
0
10
1160.5466759578555
20
499.45996440761905
30
0
10
1165.7410577115181
20
502.80694296542504
30
0
10
1164.6713760269356
20
510.77509815494636
30
0
10
1164.9056080266205
20
519.07445497583853
30
0
10
1163.0488794999296
20
526.95759546545673
30
0
10
1163.4119121714616
20
535.35472740333728
30
0
10
1160.3956024969507
20
538.46235811532426
30
0
10
1155.5319110373243
20
539.89376556586205
30
0
10
1156.7293092549683
20
545.30543405849755
30
0
10
1161.3119171442308
20
547.56139070951406
30
0
10
1158.1549736685258
20
552.5034035872601
30
0
10
1163.2655397571016
20
555.96313338221682
30
0
10
1163.1647190473714
20
566.64613628071857
30
0
10
1166.5246723246305
20
579.57484556555846
30
0
10
1167.4742997643393
20
594.86000642831823
30
0
10
1163.4314032015886
20
602.88644354919984
30
0
10
1162.5793991272726
20
609.80276728797196
30
0
10
1157.7524322473851
20
607.8020247660661
30
0
10
1152.504060707377
20
609.58045993484097
30
0
10
1152.8477292503533
20
603.04547894249765
30
0
10
1147.3997029670202
20
604.67037961387086
30
0
10
1147.5490388265453
20
598.93161182559072
30
0
10
1144.7973005435576
20
596.04487301667473
30
0
10
1143.9070880297393
20
592.02522471913926
30
0
10
1138.1794781723643
20
591.66889580687814
30
0
10
1139.1593380962797
20
584.70857630401963
30
0
10
1136.7864705203031
20
578.50875430194287
30
0
10
1135.4766826571285
20
567.36962610428486
30
0
10
1128.867322813828
20
554.75781118312386
30
0
10
1131.4074562960618
20
540.16882390384535
30
0
10
1127.0988743927987
20
529.60133307163483
30
0
10
1126.360771662658
20
522.84447856360214
30
0
10
1123.6746103253522
20
517.24355836168365
30
0
10
1127.242051960669
20
512.76024322731791
30
0
10
1133.2085041103921
20
509.44282239517645
30
0
10
1140.3309793857984
20
505.02063061826186
30
0
10
1145.6169187221212
20
503.04046247079214
30
0
10
1148.424377441406
20
502.85282135009766
30
0
0
SPLINE
5
103
100
AcDbEntity
8
0
100
AcDbSpline
70
2
71
3
72
83
73
79
74
0
42
0.000000001
43
0.0000000001
44
0.0000000001
40
0
40
0
40
0
40
0
40
0.69862353270304056
40
1.3972470654060811
40
2.0958705981091219
40
2.7944941308121622
40
3.493117663515203
40
4.1917411962182438
40
4.541052962569764
40
4.8903647289212842
40
5.2396764952728043
40
5.5889882616243245
40
6.2876117943273648
40
6.9862353270304061
40
7.6848588597334473
40
8.3834823924364876
40
8.7327941587880069
40
9.082105925139528
40
9.431417691491049
40
9.7807294578425683
40
11.177976523248649
40
12.57522358865473
40
13.273847121357772
40
13.972470654060812
40
14.321782420412333
40
14.671094186763852
40
15.369717719466895
40
15.719029485818416
40
16.068341252169937
40
16.766964784872975
40
18.164211850279056
40
19.561458915685137
40
20.260082448388175
40
20.958705981091217
40
21.657329513794259
40
22.355953046497298
40
23.753200111903379
40
24.451823644606421
40
25.150447177309459
40
25.849070710012498
40
26.54769424271554
40
27.246317775418582
40
27.944941308121621
40
28.643564840824659
40
29.342188373527701
40
30.040811906230743
40
30.739435438933782
40
31.438058971636821
40
32.136682504339859
40
32.835306037042898
40
33.533929569745943
40
33.88324133609747
40
34.232553102448989
40
34.581864868800508
40
34.931176635152028
40
35.280488401503547
40
35.629800167855066
40
35.979111934206585
40
36.328423700558105
40
37.027047233261143
40
37.376358999612663
40
37.725670765964182
40
37.900326649139942
40
38.074982532315701
40
38.42429429866722
40
38.77360606501874
40
39.122917831370266
40
39.821541364073312
40
40.52016489677635
40
41.218788429479389
40
41.568100195830908
40
41.917411962182427
40
42.616035494885466
40
42.965347261236985
40
43.314659027588512
40
44.013282560291557
40
44.362594326643077
40
44.711906092994596
40
44.711906092994596
40
44.711906092994596
40
44.711906092994596
10
707.42439270019531
20
529.28104400634777
30
0
10
709.75869350255095
20
528.79698702478333
30
0
10
714.2479678084735
20
528.73524216371129
30
0
10
720.72955173271225
20
529.73879104771208
30
0
10
728.48413593094756
20
529.19069233965911
30
0
10
733.27014156754967
20
534.96901283569957
30
0
10
740.62402902564156
20
533.402922919714
30
0
10
747.04366840554599
20
534.90786323674752
30
0
10
746.0151947490665
20
540.76206207747543
30
0
10
749.86705594507998
20
541.72308575406169
30
0
10
753.22834868086545
20
541.48630815025422
30
0
10
757.41294941746094
20
544.82918512662513
30
0
10
763.11759552351259
20
541.161516262124
30
0
10
770.00082725488699
20
542.73097969191315
30
0
10
777.25521695343627
20
537.44228368032043
30
0
10
781.45423728582909
20
543.32586016280686
30
0
10
786.28766742942003
20
542.28908652783866
30
0
10
789.35190052667303
20
544.82597980213302
30
0
10
792.63175186943965
20
542.18102197149813
30
0
10
799.87829616539614
20
543.82899406361594
30
0
10
808.40317982831198
20
535.04028705441249
30
0
10
820.55240470594163
20
538.27138323230076
30
0
10
830.02197548920606
20
538.66411721231532
30
0
10
835.28863189562787
20
537.93124861111005
30
0
10
840.35514335405094
20
536.37452184693507
30
0
10
843.38181934649083
20
540.9969344409908
30
0
10
849.13948492246448
20
538.19347288470328
30
0
10
852.87493514234552
20
541.07522568583659
30
0
10
857.97775279120071
20
541.06826230272031
30
0
10
860.17129236084725
20
549.17339806778944
30
0
10
856.63696061478754
20
560.34976899521166
30
0
10
857.23181311078542
20
573.27866916980474
30
0
10
846.09833113005084
20
576.91711973781082
30
0
10
846.17955006918714
20
584.51515172319
30
0
10
842.83075771906613
20
591.03533420838357
30
0
10
844.61266395154689
20
599.57485929791699
30
0
10
843.05093743501607
20
609.47279908654446
30
0
10
841.43686957580655
20
617.88503255352066
30
0
10
839.50965591866816
20
626.1539955086181
30
0
10
830.90687643282808
20
624.26450396633516
30
0
10
827.22579336825697
20
618.08942801497574
30
0
10
823.50949088332811
20
612.72412474609735
30
0
10
820.64740927525577
20
605.35908848609677
30
0
10
812.35304482661275
20
605.71171113649609
30
0
10
808.04508893487491
20
600.23899736939666
30
0
10
804.56862191286575
20
594.11810051453256
30
0
10
799.86399364340082
20
589.59316440531961
30
0
10
797.24659538767355
20
582.50554640298424
30
0
10
788.08980252581728
20
583.59786907701005
30
0
10
785.8078638840218
20
575.89543669402747
30
0
10
780.43469115587413
20
573.5106282727495
30
0
10
775.96573094726045
20
572.22449235611498
30
0
10
771.86315273120317
20
574.91447511394722
30
0
10
770.83112546340158
20
569.91887194765036
30
0
10
767.2320548838909
20
570.57204075085156
30
0
10
762.66212240687253
20
572.40589609491121
30
0
10
760.72463513737125
20
569.67185402959683
30
0
10
758.34701727443326
20
567.40699480552939
30
0
10
753.64618754127832
20
565.76220273863032
30
0
10
752.41284068313962
20
560.8731165879617
30
0
10
753.29537954017474
20
556.30503997468509
30
0
10
751.26981167627775
20
553.54803240587671
30
0
10
754.55436304592558
20
550.84789639384428
30
0
10
751.73688133648977
20
553.39494242273349
30
0
10
748.82516439827884
20
551.84652005242492
30
0
10
746.84392081573765
20
548.89042745399399
30
0
10
742.33049107605302
20
552.18128948034405
30
0
10
737.55137268100907
20
554.47452776236128
30
0
10
730.01173248336954
20
554.62083624248078
30
0
10
724.58156944140865
20
552.63957331035044
30
0
10
721.21483223310338
20
549.02322098130526
30
0
10
715.76809453025521
20
549.65247301751651
30
0
10
714.68512175486467
20
544.2259506667956
30
0
10
710.92655480021631
20
541.5148081594125
30
0
10
709.53586445508063
20
538.0167437908658
30
0
10
704.96165909522779
20
536.19081908149553
30
0
10
703.87810967196469
20
530.2337217542082
30
0
10
706.25724229901743
20
529.52307249712976
30
0
10
707.42439270019531
20
529.28104400634777
30
0
0
SPLINE
5
104
100
AcDbEntity
8
0
100
AcDbSpline
70
2
71
3
72
50
73
46
74
0
42
0.000000001
43
0.0000000001
44
0.0000000001
40
0
40
0
40
0
40
0
40
0.83731544728627083
40
1.6746308945725417
40
2.5119463418588124
40
2.9306040655019476
40
3.3492617891450833
40
3.767919512788219
40
4.1865772364313543
40
4.6052349600744895
40
5.0238926837176248
40
5.44255040736076
40
5.8612081310038953
40
6.2798658546470314
40
6.6985235782901666
40
7.535839025576438
40
8.3731544728627085
40
10.04778536743525
40
10.88510081472152
40
11.303758538364654
40
11.722416262007791
40
12.559731709294063
40
13.397047156580333
40
14.234362603866604
40
14.65302032750974
40
15.071678051152876
40
15.490335774796012
40
15.908993498439147
40
16.327651222082281
40
16.746308945725417
40
17.583624393011689
40
18.002282116654825
40
18.420939840297958
40
19.258255287584227
40
20.095570734870499
40
20.932886182156771
40
21.77020162944304
40
22.607517076729309
40
23.444832524015581
40
23.863490247658717
40
24.282147971301853
40
24.700805694944989
40
25.119463418588126
40
25.956778865874398
40
26.794094313160667
40
26.794094313160667
40
26.794094313160667
40
26.794094313160667
10
585.92437744140636
20
456.14624023437506
30
0
10
588.2168433684019
20
455.27835881845692
30
0
10
594.17054939968455
20
456.98372369158722
30
0
10
603.79865712262972
20
452.34449571241618
30
0
10
606.09849799007361
20
460.85143906891346
30
0
10
609.1793829005311
20
465.42017019783248
30
0
10
614.36121250928568
20
464.91142429503776
30
0
10
614.64783743734233
20
470.75263466912702
30
0
10
620.34641871134829
20
469.62998771753354
30
0
10
621.79743707660771
20
474.34643910943413
30
0
10
625.54118010234697
20
476.24172165064113
30
0
10
625.43744965807355
20
482.10141444672831
30
0
10
631.88495500900012
20
479.1500859856435
30
0
10
631.81958258361533
20
484.97254429348283
30
0
10
635.51090943909617
20
488.64057117699201
30
0
10
638.40841172321905
20
495.35002310491097
30
0
10
644.72353147716888
20
503.81428846994703
30
0
10
656.95385742741246
20
506.92883485316929
30
0
10
661.13958920461926
20
516.47997982899926
30
0
10
660.65157587046519
20
521.98045445001935
30
0
10
663.89014192178206
20
527.48165152543481
30
0
10
653.97296735854957
20
530.18637344993874
30
0
10
647.55337626167284
20
526.48799515004134
30
0
10
637.71361580214011
20
528.75631810707989
30
0
10
638.1631134354958
20
521.48008793458416
30
0
10
634.15774011556925
20
520.2691305005676
30
0
10
630.50589230571995
20
523.25706004128608
30
0
10
626.07297276862528
20
522.81122553606519
30
0
10
622.33095179919337
20
520.94579351079165
30
0
10
616.19451029860045
20
521.38441860180819
30
0
10
614.04505276853979
20
514.27657983554525
30
0
10
607.76519713264906
20
514.5751090140343
30
0
10
604.64670177173662
20
509.25441114064199
30
0
10
602.87250276748046
20
502.69234522357783
30
0
10
599.99787478686119
20
494.93017319851589
30
0
10
599.00518696460176
20
485.8267389297273
30
0
10
590.85426984030858
20
482.50059019197863
30
0
10
582.69965009813041
20
480.64297422802753
30
0
10
577.00841171014599
20
476.85319888226212
30
0
10
569.86984553091452
20
479.61834986502771
30
0
10
569.96307648901154
20
474.09323771387079
30
0
10
572.76407756749325
20
471.00086546879743
30
0
10
578.92099617763097
20
470.07366059996036
30
0
10
580.41575383771158
20
462.19101218709613
30
0
10
583.63191151441083
20
457.01412165029325
30
0
10
585.92437744140636
20
456.14624023437506
30
0
0
SPLINE
5
105
100
AcDbEntity
8
0
100
AcDbSpline
70
2
71
3
72
47
73
43
74
0
42
0.000000001
43
0.0000000001
44
0.0000000001
40
0
40
0
40
0
40
0
40
0.37529113838202172
40
0.75058227676404343
40
1.1258734151460652
40
1.5011645535280869
40
2.2517468302921304
40
3.0023291070561737
40
3.7529113838202175
40
4.1282025222022387
40
4.5034936605842608
40
4.8787847989662829
40
5.2540759373483041
40
6.0046582141123475
40
6.7552404908763908
40
7.505822767640435
40
7.8811139060224562
40
8.2564050444044774
40
9.0069873211685216
40
9.7575695979325658
40
10.508151874696608
40
11.258734151460651
40
12.009316428224695
40
12.759898704988739
40
13.510480981752782
40
13.885772120134803
40
14.261063258516826
40
14.636354396898849
40
15.01164553528087
40
15.386936673662891
40
15.762227812044912
40
16.137518950426934
40
16.512810088808955
40
16.888101227190976
40
17.263392365572997
40
18.013974642337043
40
19.515139195865132
40
21.016303749393217
40
21.766886026157259
40
22.517468302921301
40
23.268050579685344
40
24.01863285644939
40
24.01863285644939
40
24.01863285644939
40
24.01863285644939
10
459.92439270019543
20
335.88859558105463
30
0
10
461.01736472804123
20
335.00889077173076
30
0
10
464.31466033509844
20
333.70948170422622
30
0
10
466.1733452988492
20
337.85466649144155
30
0
10
467.8152831135402
20
339.87712998533965
30
0
10
474.63584090873161
20
338.30512586780628
30
0
10
473.8502509455443
20
346.93570341952517
30
0
10
483.35612489421078
20
347.97133009088338
30
0
10
483.55691432603294
20
355.17041507183728
30
0
10
488.95333301892197
20
357.15383650144582
30
0
10
488.53444410972384
20
361.72206052852562
30
0
10
492.78921417619324
20
363.26025747995908
30
0
10
491.82521625796778
20
368.88482961183297
30
0
10
493.68763460208532
20
375.40484522766468
30
0
10
501.29301144400779
20
377.86313793557468
30
0
10
505.63663821864515
20
382.12708613985149
30
0
10
510.50867998280603
20
384.29339887041948
30
0
10
510.27782579508209
20
390.08096254853069
30
0
10
513.08093390652903
20
395.48971858504831
30
0
10
512.54933401043559
20
403.34775855512368
30
0
10
514.65427906186403
20
410.26992963560127
30
0
10
510.72931886801547
20
418.95609779468492
30
0
10
502.41247289038
20
417.5734391046293
30
0
10
495.33118935525056
20
419.25056820007956
30
0
10
488.46191315985601
20
417.32151517587596
30
0
10
488.698481430887
20
411.34262990976379
30
0
10
484.7489443912994
20
410.03332946636078
30
0
10
481.66428661282367
20
407.29297299771827
30
0
10
477.30112530907917
20
409.06552779851108
30
0
10
476.42295339636007
20
403.82747007365117
30
0
10
471.50922071933974
20
406.36054305856652
30
0
10
467.48811462240951
20
405.2494904460433
30
0
10
467.29127643081682
20
401.16383829033691
30
0
10
465.41440313905559
20
397.69166672913695
30
0
10
459.43440115439734
20
399.38388561499636
30
0
10
454.20613731822743
20
391.61295510256508
30
0
10
453.51404887969852
20
379.08627880858916
30
0
10
449.73038753292474
20
366.56006372623352
30
0
10
455.28740174042025
20
357.34965238336986
30
0
10
453.70200384142277
20
349.64333435949811
30
0
10
457.81196673858346
20
343.00682664157091
30
0
10
457.73844864450382
20
337.64800519970242
30
0
10
459.92439270019543
20
335.88859558105463
30
0
0
SPLINE
5
106
100
AcDbEntity
8
0
100
AcDbSpline
70
2
71
3
72
25
73
21
74
0
42
0.000000001
43
0.0000000001
44
0.0000000001
40
0
40
0
40
0
40
0
40
0.62168552557177181
40
1.2433710511435436
40
1.8650565767153156
40
2.4867421022870873
40
3.108427627858859
40
3.7301131534306311
40
4.3517986790024032
40
4.9734842045741745
40
5.5951697301459458
40
5.9060124929318318
40
6.2168552557177179
40
6.8385407812894901
40
7.1493835440753761
40
7.4602263068612622
40
8.0819118324330343
40
8.7035973580048065
40
9.3252828835765769
40
9.946968409148349
40
9.946968409148349
40
9.946968409148349
40
9.946968409148349
10
540.92437744140636
20
435.08220672607422
30
0
10
542.12824185708769
20
433.93937381497017
30
0
10
547.55800413736165
20
434.40411995745296
30
0
10
552.86455861945706
20
434.30670668764765
30
0
10
559.66949356973953
20
436.73952354711889
30
0
10
560.18373904653959
20
443.48008309121985
30
0
10
559.35181126540567
20
449.17804764361824
30
0
10
560.42039827884741
20
456.67344221188796
30
0
10
552.26162054562667
20
457.99205321070986
30
0
10
552.42449412583824
20
465.51488498529585
30
0
10
546.43393321407723
20
468.88434299590102
30
0
10
544.00029853311833
20
464.26061224481987
30
0
10
539.3304574545798
20
465.24108231974958
30
0
10
537.5042411732785
20
460.39923208942889
30
0
10
537.17603154834546
20
455.47600220206289
30
0
10
531.37665539373734
20
456.19772700895089
30
0
10
531.67936157840199
20
449.06761912960258
30
0
10
537.83121592475777
20
447.74439723216335
30
0
10
540.33481764327325
20
441.26111742407721
30
0
10
539.72051302572493
20
436.22503963717827
30
0
10
540.92437744140636
20
435.08220672607422
30
0
0
SPLINE
5
107
100
AcDbEntity
8
0
100
AcDbSpline
70
2
71
3
72
46
73
42
74
0
42
0.000000001
43
0.0000000001
44
0.0000000001
40
0
40
0
40
0
40
0
40
0.9153895357437184
40
1.8307790714874368
40
2.7461686072311551
40
3.6615581429748736
40
4.5769476787185921
40
5.4923372144623102
40
5.9500319823341696
40
6.4077267502060291
40
7.3231162859497472
40
8.2385058216934652
40
8.6962005895653256
40
9.1538953574371842
40
10.98467442892462
40
12.815453500412058
40
14.646232571899494
40
15.103927339771353
40
15.561622107643213
40
16.019316875515074
40
16.47701164338693
40
17.392401179130651
40
17.850095947002508
40
18.307790714874368
40
18.765485482746229
40
19.223180250618086
40
19.680875018489946
40
20.138569786361806
40
20.596264554233663
40
21.053959322105523
40
21.511654089977384
40
21.969348857849241
40
22.427043625721097
40
22.884738393592958
40
23.800127929336675
40
24.715517465080396
40
25.630907000824113
40
27.461686072311551
40
27.919380840183411
40
28.377075608055272
40
29.292465143798989
40
29.292465143798989
40
29.292465143798989
40
29.292465143798989
10
369.92439270019531
20
60.909199714660645
30
0
10
373.02514952881029
20
60.187448815085162
30
0
10
378.72125698149557
20
63.283070598700064
30
0
10
387.93454979021715
20
63.580996593819208
30
0
10
396.99191164700125
20
64.143324782100763
30
0
10
405.05217384423099
20
69.028743006690348
30
0
10
412.64595657142638
20
72.814676516027191
30
0
10
418.66133466199892
20
78.690326105473105
30
0
10
418.39540289601814
20
85.493882912222517
30
0
10
425.2576072482583
20
88.255356059852659
30
0
10
424.36869669763996
20
96.453696658664327
30
0
10
426.07650478355851
20
105.20705069134431
30
0
10
420.52802061392606
20
108.33200704371293
30
0
10
416.53888713724234
20
115.73485859901332
30
0
10
416.64428448521301
20
130.34477978843879
30
0
10
416.68344755076987
20
148.70934108932676
30
0
10
416.89728241889657
20
161.26661596903361
30
0
10
409.93743815665908
20
170.42775727134602
30
0
10
408.40521516221236
20
163.49844405193952
30
0
10
407.69054919752392
20
159.69377389294809
30
0
10
401.89471010796518
20
156.58797580856728
30
0
10
398.52150974820171
20
151.15430781668869
30
0
10
390.87765839330388
20
151.44013304937818
30
0
10
391.18066843608852
20
145.34654321012312
30
0
10
385.20238065309314
20
146.90542901091351
30
0
10
381.73119358831809
20
144.04251286333047
30
0
10
376.40174184152818
20
144.57630309312142
30
0
10
373.94270091081478
20
140.25776647114455
30
0
10
367.66349652660676
20
140.47692080791816
30
0
10
371.37164811557113
20
134.79001597412639
30
0
10
368.3463286099086
20
130.41165232405314
30
0
10
372.48081478772775
20
127.13545744987
30
0
10
375.27505137792474
20
123.98780458305653
30
0
10
374.33296887210417
20
116.96435667776043
30
0
10
373.91344217849968
20
109.98493014703486
30
0
10
373.50310924859366
20
100.79808746937519
30
0
10
366.61035538574561
20
90.676665056261342
30
0
10
363.84945259316311
20
79.882890144577374
30
0
10
367.8837824085943
20
70.218236152362564
30
0
10
361.79344597524954
20
66.11791965067377
30
0
10
366.82363587158034
20
61.630950614236127
30
0
10
369.92439270019531
20
60.909199714660645
30
0
0
SPLINE
5
108
100
AcDbEntity
8
0
100
AcDbSpline
70
2
71
3
72
23
73
19
74
0
42
0.000000001
43
0.0000000001
44
0.0000000001
40
0
40
0
40
0
40
0
40
0.85377565320724513
40
1.7075513064144903
40
3.4151026128289805
40
4.268878266036225
40
5.1226539192434704
40
5.9764295724507157
40
6.8302052256579611
40
7.6839808788652055
40
8.1108687054688282
40
8.53775653207245
40
9.3915321852796954
40
10.245307838486941
40
11.099083491694186
40
11.952859144901431
40
12.806634798108677
40
13.660410451315922
40
13.660410451315922
40
13.660410451315922
40
13.660410451315922
10
387.92438507080084
20
-79.958887100219755
30
0
10
390.25075455481527
20
-81.296791347890007
30
0
10
397.12383732636232
20
-80.7531750058113
30
0
10
405.66532086774123
20
-73.943188075197469
30
0
10
404.65121337678659
20
-60.484323431379352
30
0
10
399.11040379154457
20
-51.216996012971464
30
0
10
396.77824737533012
20
-42.542621357587258
30
0
10
385.59098569522399
20
-42.949440843070647
30
0
10
386.00800151216083
20
-30.605362320860365
30
0
10
376.89232062423832
20
-31.623592120401518
30
0
10
372.24855869463545
20
-33.849056642753332
30
0
10
365.54674447134403
20
-34.827179806395357
30
0
10
369.51813387785455
20
-43.286797305305541
30
0
10
372.06817405145921
20
-50.613754114874759
30
0
10
373.79133166171368
20
-59.543674747293579
30
0
10
381.57585195664461
20
-64.756284854687209
30
0
10
383.16562042227594
20
-72.725749519789773
30
0
10
385.59801558678646
20
-78.620982852549503
30
0
10
387.92438507080084
20
-79.958887100219755
30
0
0
ENDSEC
0
SECTION
2
OBJECTS
0
DICTIONARY
5
C
100
AcDbDictionary
3
ACAD_GROUP
350
D
3
ACAD_MLINESTYLE
350
17
0
DICTIONARY
5
D
100
AcDbDictionary
0
DICTIONARY
5
1A
330
C
100
AcDbDictionary
0
DICTIONARY
5
17
100
AcDbDictionary
0
ENDSEC
0
EOF
