0
SECTION
2
HEADER
9
$INSUNITS
70
4
9
$ACADVER
1
AC1014
9
$HANDSEED
5
FFFF
0
ENDSEC
0
SECTION
2
TABLES
0
TABLE
2
VPORT
5
8
100
AcDbSymbolTable
0
ENDTAB
0
TABLE
2
LTYPE
5
5
100
AcDbSymbolTable
0
LTYPE
5
14
100
AcDbSymbolTableRecord
100
AcDbLinetypeTableRecord
2
BYBLOCK
70
0
0
LTYPE
5
15
100
AcDbSymbolTableRecord
100
AcDbLinetypeTableRecord
2
BYLAYER
70
0
0
LTYPE
5
16
100
AcDbSymbolTableRecord
100
AcDbLinetypeTableRecord
2
DASHED
70
0
3
Dashed __ __ __ __ __ __ __ __ __ __ __ __ __ _
72
65
73
2
40
0.75
49
0.5
74
0
49
-0.25
74
0
0
ENDTAB
0
TABLE
2
LAYER
5
2
100
AcDbSymbolTable
70
2
0
LAYER
5
50
100
AcDbSymbolTableRecord
100
AcDbLayerTableRecord
2
0
70
0
62
7
6
CONTINUOUS
0
ENDTAB
0
TABLE
2
STYLE
5
3
100
AcDbSymbolTable
70
1
0
STYLE
5
11
100
AcDbSymbolTableRecord
100
AcDbTextStyleTableRecord
2
STANDARD
70
0
0
ENDTAB
0
TABLE
2
VIEW
5
6
100
AcDbSymbolTable
70
0
0
ENDTAB
0
TABLE
2
UCS
5
7
100
AcDbSymbolTable
70
0
0
ENDTAB
0
TABLE
2
APPID
5
9
100
AcDbSymbolTable
70
2
0
APPID
5
12
100
AcDbSymbolTableRecord
100
AcDbRegAppTableRecord
2
ACAD
70
0
0
ENDTAB
0
TABLE
2
DIMSTYLE
5
A
100
AcDbSymbolTable
70
1
0
ENDTAB
0
TABLE
2
BLOCK_RECORD
5
1
100
AcDbSymbolTable
70
1
0
BLOCK_RECORD
5
1F
100
AcDbSymbolTableRecord
100
AcDbBlockTableRecord
2
*MODEL_SPACE
0
BLOCK_RECORD
5
1B
100
AcDbSymbolTableRecord
100
AcDbBlockTableRecord
2
*PAPER_SPACE
0
ENDTAB
0
ENDSEC
0
SECTION
2
BLOCKS
0
BLOCK
5
20
100
AcDbEntity
100
AcDbBlockBegin
2
*MODEL_SPACE
0
ENDBLK
5
21
100
AcDbEntity
100
AcDbBlockEnd
0
BLOCK
5
1C
100
AcDbEntity
100
AcDbBlockBegin
2
*PAPER_SPACE
0
ENDBLK
5
1D
100
AcDbEntity
100
AcDbBlockEnd
0
ENDSEC
0
SECTION
2
ENTITIES
0
LWPOLYLINE
5
100
100
AcDbEntity
8
0
100
AcDbPolyline
90
4
70
1
43
0.0
10
1900
20
-800
10
0
20
-800
10
0
20
900
10
1900
20
900
0
SPLINE
5
101
100
AcDbEntity
8
0
100
AcDbSpline
70
2
71
3
72
22
73
18
74
0
42
0.000000001
43
0.0000000001
44
0.0000000001
40
0
40
0
40
0
40
0
40
0.78090347980633668
40
1.171355219709505
40
1.5618069596126734
40
1.9522586995158417
40
2.3427104394190099
40
3.1236139192253467
40
4.6854208788380198
40
6.2472278384506934
40
7.0281313182570297
40
7.809034798063367
40
9.3708417576760397
40
10.151745237482377
40
10.542196977385546
40
10.932648717288714
40
12.494455676901387
40
12.494455676901387
40
12.494455676901387
40
12.494455676901387
10
392.42439270019531
20
74.306507110595689
30
0
10
394.08136851864367
20
73.874259130928749
30
0
10
398.30392546877539
20
76.090716036300265
30
0
10
404.76001126733411
20
74.668695501795881
30
0
10
406.68457457416343
20
76.955205852911334
30
0
10
407.43238799051687
20
81.651908075765107
30
0
10
411.95864465325116
20
83.916852133607847
30
0
10
414.20167473052152
20
93.626596413021659
30
0
10
413.04389848157462
20
105.9045349763592
30
0
10
412.73187019390787
20
119.83409284771547
30
0
10
400.79124058848555
20
124.50481609775032
30
0
10
395.96987135687101
20
113.97097482221439
30
0
10
398.76825329538519
20
104.49191839261138
30
0
10
398.81819508057305
20
93.605728429715484
30
0
10
393.06207923522601
20
91.806931671020195
30
0
10
390.75831225870792
20
85.801052602003551
30
0
10
389.11044106329854
20
75.171003069929611
30
0
10
392.42439270019531
20
74.306507110595689
30
0
0
SPLINE
5
102
100
AcDbEntity
8
0
100
AcDbSpline
70
2
71
3
72
34
73
30
74
0
42
0.000000001
43
0.0000000001
44
0.0000000001
40
0
40
0
40
0
40
0
40
0.92187054967772297
40
1.8437410993554459
40
2.3046763741943073
40
2.7656116490331688
40
3.2265469238720303
40
3.6874821987108919
40
4.1484174735497534
40
4.6093527483886145
40
5.0702880232274765
40
5.5312232980663376
40
6.4530938477440607
40
6.9140291225829227
40
7.3749643974217838
40
7.8358996722606449
40
8.2968349470995069
40
8.7577702219383688
40
9.2187054967772291
40
9.679640771616091
40
10.140576046454953
40
10.371043683874383
40
10.601511321293813
40
11.062446596132675
40
11.984317145810397
40
12.906187695488121
40
13.828058245165845
40
14.288993520004706
40
14.749928794843568
40
14.749928794843568
40
14.749928794843568
40
14.749928794843568
10
837.92442321777344
20
547.19730377197266
30
0
10
840.69679577941292
20
546.17302679986165
30
0
10
847.45989710094796
20
550.56912700753105
30
0
10
844.78578550834504
20
558.72629636842748
30
0
10
843.71641038480971
20
564.3503405609531
30
0
10
843.81606849388788
20
570.08928762479582
30
0
10
838.72144183975809
20
571.04291995349979
30
0
10
839.74068104529238
20
576.96495400868082
30
0
10
833.52222631033646
20
578.38418385215766
30
0
10
835.51875860929545
20
585.14209747328073
30
0
10
829.62391600143872
20
583.64211982648624
30
0
10
833.85932336647011
20
575.50032022978553
30
0
10
823.84346351266345
20
579.17389901933507
30
0
10
819.94623952087181
20
573.83614153943677
30
0
10
814.91881726114252
20
574.83164507671052
30
0
10
810.21132326640009
20
574.64670321582946
30
0
10
807.01106180614624
20
570.65784360784414
30
0
10
805.04060999862543
20
566.62976165075054
30
0
10
800.67804022971006
20
564.18529630933472
30
0
10
801.66250949049811
20
557.94440531783346
30
0
10
794.29807858642801
20
558.9708096389694
30
0
10
796.57560621382277
20
554.9866821977148
30
0
10
799.44617602346523
20
557.61738023396583
30
0
10
804.26812587621407
20
552.02492869990397
30
0
10
810.62039094059048
20
548.89953380591157
30
0
10
820.30942214699098
20
550.1824041893608
30
0
10
827.7655073583843
20
548.511091690895
30
0
10
834.07045342487834
20
550.34488276811226
30
0
10
836.53823693695369
20
547.70944225802828
30
0
10
837.92442321777344
20
547.19730377197266
30
0
0
ENDSEC
0
SECTION
2
OBJECTS
0
DICTIONARY
5
C
100
AcDbDictionary
3
ACAD_GROUP
350
D
3
ACAD_MLINESTYLE
350
17
0
DICTIONARY
5
D
100
AcDbDictionary
0
DICTIONARY
5
1A
330
C
100
AcDbDictionary
0
DICTIONARY
5
17
100
AcDbDictionary
0
ENDSEC
0
EOF
