0
SECTION
2
HEADER
9
$INSUNITS
70
4
9
$ACADVER
1
AC1014
9
$HANDSEED
5
FFFF
0
ENDSEC
0
SECTION
2
TABLES
0
TABLE
2
VPORT
5
8
100
AcDbSymbolTable
0
ENDTAB
0
TABLE
2
LTYPE
5
5
100
AcDbSymbolTable
0
LTYPE
5
14
100
AcDbSymbolTableRecord
100
AcDbLinetypeTableRecord
2
BYBLOCK
70
0
0
LTYPE
5
15
100
AcDbSymbolTableRecord
100
AcDbLinetypeTableRecord
2
BYLAYER
70
0
0
LTYPE
5
16
100
AcDbSymbolTableRecord
100
AcDbLinetypeTableRecord
2
DASHED
70
0
3
Dashed __ __ __ __ __ __ __ __ __ __ __ __ __ _
72
65
73
2
40
0.75
49
0.5
74
0
49
-0.25
74
0
0
ENDTAB
0
TABLE
2
LAYER
5
2
100
AcDbSymbolTable
70
2
0
LAYER
5
50
100
AcDbSymbolTableRecord
100
AcDbLayerTableRecord
2
0
70
0
62
7
6
CONTINUOUS
0
ENDTAB
0
TABLE
2
STYLE
5
3
100
AcDbSymbolTable
70
1
0
STYLE
5
11
100
AcDbSymbolTableRecord
100
AcDbTextStyleTableRecord
2
STANDARD
70
0
0
ENDTAB
0
TABLE
2
VIEW
5
6
100
AcDbSymbolTable
70
0
0
ENDTAB
0
TABLE
2
UCS
5
7
100
AcDbSymbolTable
70
0
0
ENDTAB
0
TABLE
2
APPID
5
9
100
AcDbSymbolTable
70
2
0
APPID
5
12
100
AcDbSymbolTableRecord
100
AcDbRegAppTableRecord
2
ACAD
70
0
0
ENDTAB
0
TABLE
2
DIMSTYLE
5
A
100
AcDbSymbolTable
70
1
0
ENDTAB
0
TABLE
2
BLOCK_RECORD
5
1
100
AcDbSymbolTable
70
1
0
BLOCK_RECORD
5
1F
100
AcDbSymbolTableRecord
100
AcDbBlockTableRecord
2
*MODEL_SPACE
0
BLOCK_RECORD
5
1B
100
AcDbSymbolTableRecord
100
AcDbBlockTableRecord
2
*PAPER_SPACE
0
ENDTAB
0
ENDSEC
0
SECTION
2
BLOCKS
0
BLOCK
5
20
100
AcDbEntity
100
AcDbBlockBegin
2
*MODEL_SPACE
0
ENDBLK
5
21
100
AcDbEntity
100
AcDbBlockEnd
0
BLOCK
5
1C
100
AcDbEntity
100
AcDbBlockBegin
2
*PAPER_SPACE
0
ENDBLK
5
1D
100
AcDbEntity
100
AcDbBlockEnd
0
ENDSEC
0
SECTION
2
ENTITIES
0
LWPOLYLINE
5
100
100
AcDbEntity
8
0
100
AcDbPolyline
90
4
70
1
43
0.0
10
1900
20
-800
10
0
20
-800
10
0
20
900
10
1900
20
900
0
SPLINE
5
101
100
AcDbEntity
8
0
100
AcDbSpline
70
2
71
3
72
103
73
99
74
0
42
0.000000001
43
0.0000000001
44
0.0000000001
40
0
40
0
40
0
40
0
40
0.93853629393409288
40
1.8770725878681858
40
2.8156088818022784
40
3.7541451757363715
40
4.6926814696704646
40
5.1619496166375107
40
5.6312177636045568
40
6.5697540575386499
40
7.0390222045056969
40
7.508290351472743
40
7.97755849843979
40
8.446826645406837
40
9.3853629393409292
40
9.8546310863079754
40
10.323899233275021
40
10.793167380242068
40
11.262435527209114
40
11.73170367417616
40
12.200971821143206
40
13.1395081150773
40
14.078044409011394
40
14.54731255597844
40
15.016580702945486
40
15.95511699687958
40
16.893653290813674
40
17.36292143778072
40
17.832189584747766
40
18.770725878681858
40
19.709262172615951
40
20.178530319582997
40
20.647798466550043
40
21.586334760484135
40
22.055602907451181
40
22.524871054418227
40
23.46340734835232
40
24.401943642286412
40
24.871211789253458
40
25.340479936220504
40
26.2790162301546
40
27.217552524088696
40
27.686820671055742
40
28.156088818022788
40
28.625356964989834
40
29.09462511195688
40
30.033161405890972
40
30.502429552858018
40
30.971697699825064
40
31.91023399375916
40
32.848770287693256
40
33.318038434660302
40
33.787306581627348
40
34.256574728594394
40
34.72584287556144
40
35.664379169495533
40
36.133647316462579
40
36.602915463429625
40
37.072183610396671
40
37.541451757363717
40
38.010719904330763
40
38.479988051297809
40
39.418524345231901
40
39.887792492198948
40
40.357060639165994
40
40.82632878613304
40
41.295596933100086
40
41.764865080067132
40
42.234133227034178
40
42.703401374001224
40
43.17266952096827
40
43.641937667935316
40
44.111205814902362
40
44.580473961869416
40
45.049742108836462
40
45.988278402770561
40
46.926814696704653
40
47.865350990638746
40
48.803887284572838
40
49.273155431539884
40
49.74242357850693
40
50.211691725473976
40
50.680959872441022
40
51.619496166375114
40
52.558032460309207
40
53.027300607276253
40
53.496568754243299
40
53.965836901210345
40
54.435105048177391
40
54.904373195144437
40
55.373641342111483
40
56.312177636045575
40
57.250713929979668
40
57.719982076946714
40
58.18925022391376
40
58.658518370880806
40
59.127786517847852
40
60.066322811781944
40
60.066322811781944
40
60.066322811781944
40
60.066322811781944
10
990.92437744140625
20
552.84931182861339
30
0
10
993.94752643803849
20
552.33028257475382
30
0
10
999.77226549952661
20
549.7942733641064
30
0
10
1008.9733831532276
20
551.16902368972978
30
0
10
1019.7133123448843
20
548.86327235746683
30
0
10
1023.3381838842758
20
558.35685617234867
30
0
10
1023.404417013826
20
565.99521282888338
30
0
10
1018.6391862119499
20
572.09879424399912
30
0
10
1025.1167059121824
20
576.9212413263823
30
0
10
1013.4319794665009
20
583.03575040772353
30
0
10
1012.0156459210931
20
575.09112504352129
30
0
10
1005.7554696983415
20
576.44362723006248
30
0
10
1004.0750900757574
20
571.40805664280572
30
0
10
997.05992532779896
20
572.39905130529814
30
0
10
991.35135431177889
20
570.56687451429559
30
0
10
984.78669806352298
20
571.12589124294641
30
0
10
983.52011831510549
20
576.64880558995071
30
0
10
982.72733691854182
20
581.5160203631948
30
0
10
981.27721169917481
20
584.57637079957533
30
0
10
976.47992031614626
20
589.43627113892796
30
0
10
984.82681320200413
20
591.31983268940689
30
0
10
983.25149239237578
20
600.86038910619391
30
0
10
984.24530645493735
20
608.30934531536559
30
0
10
988.55326118583753
20
612.66494730996851
30
0
10
992.69100977727112
20
618.04932300797657
30
0
10
1001.3258977002555
20
612.30661238442315
30
0
10
1001.3221041339632
20
602.3876405195424
30
0
10
1007.9695241867078
20
602.06675189409623
30
0
10
1012.9187801267609
20
598.29514557043285
30
0
10
1021.0815251205602
20
598.39952057254493
30
0
10
1028.4669282144464
20
600.46034308996991
30
0
10
1035.3874954996631
20
597.12873664016035
30
0
10
1037.5180482549929
20
602.5362333411216
30
0
10
1047.1550277426149
20
604.50734431954197
30
0
10
1042.7433394834757
20
610.68784645880396
30
0
10
1041.825638134474
20
616.6674120775109
30
0
10
1040.4366006463292
20
624.61387305405219
30
0
10
1045.8712054415084
20
630.66649101266978
30
0
10
1048.7262685677542
20
636.43785479379221
30
0
10
1055.4965812547664
20
637.15278947809816
30
0
10
1057.6799705394349
20
646.64119471980621
30
0
10
1057.2865772510306
20
653.68314477193871
30
0
10
1056.9442844673979
20
660.48116706602514
30
0
10
1053.0290258887712
20
663.02962848742754
30
0
10
1047.9034748553593
20
662.35110943840573
30
0
10
1044.6380563633797
20
668.90017806973674
30
0
10
1045.5385601873732
20
676.5427405558371
30
0
10
1037.9846910873912
20
676.44651063377853
30
0
10
1032.2504306539875
20
679.09603215685161
30
0
10
1024.900516831739
20
677.04131093819331
30
0
10
1017.1548931987152
20
677.27968272870589
30
0
10
1010.7545106732397
20
678.18299045699086
30
0
10
1006.9320404018578
20
678.57627616355762
30
0
10
1002.067919056973
20
678.48919484308965
30
0
10
1002.8463246566423
20
686.22130718611982
30
0
10
998.69375821120514
20
691.23107413184903
30
0
10
991.87995389935099
20
693.97627907042931
30
0
10
988.47138412070751
20
690.5102559961565
30
0
10
985.43631735604185
20
685.69408741411405
30
0
10
981.1108196062919
20
686.72544256974209
30
0
10
976.32263768062921
20
685.32563026522087
30
0
10
971.11386242140736
20
689.39923373877309
30
0
10
963.54893389757149
20
689.67349527154113
30
0
10
959.37866094941955
20
685.49488788875908
30
0
10
955.40911750440182
20
682.41263955606473
30
0
10
949.31859365518244
20
686.20639331156667
30
0
10
949.81678668949553
20
678.60099158830371
30
0
10
942.76926828502769
20
680.66156483381758
30
0
10
940.3870270819159
20
676.67709407451991
30
0
10
939.1032957073819
20
672.2482631962921
30
0
10
941.00728208100213
20
666.61808337506511
30
0
10
935.54743674913902
20
665.90862031331937
30
0
10
932.12729988034266
20
662.45754667006372
30
0
10
930.94068259497237
20
658.03163332873044
30
0
10
926.56334210803448
20
653.22085399558523
30
0
10
927.53827533889773
20
644.89760038901773
30
0
10
925.15704641386651
20
635.96022091415227
30
0
10
924.48280766870096
20
626.66873807908132
30
0
10
922.67142678570713
20
619.1847518836413
30
0
10
923.89252288492071
20
612.68129095904885
30
0
10
920.63200985094022
20
608.50456454924915
30
0
10
924.24315087453078
20
603.41779769823449
30
0
10
918.90988673820459
20
598.88072353982568
30
0
10
922.16032220614909
20
589.68546440474427
30
0
10
927.73511644291489
20
584.88566954273767
30
0
10
929.53199094262243
20
578.27548167562804
30
0
10
934.01259444385221
20
576.20641258534465
30
0
10
938.13633522491227
20
574.25767795316506
30
0
10
940.93164605208108
20
569.83581478186954
30
0
10
946.54369971329493
20
571.12455109270104
30
0
10
950.11408390067027
20
564.88220252879466
30
0
10
958.95362290023104
20
564.8687798211929
30
0
10
962.35424305722381
20
553.64907063864177
30
0
10
968.61219403998973
20
558.18491532588246
30
0
10
973.47149402117634
20
556.40100330844871
30
0
10
976.61813626789399
20
552.38821335684906
30
0
10
983.20033575099262
20
553.02342193606546
30
0
10
987.90122844477378
20
553.36834108247274
30
0
10
990.92437744140625
20
552.84931182861339
30
0
0
SPLINE
5
102
100
AcDbEntity
8
0
100
AcDbSpline
70
2
71
3
72
19
73
15
74
0
42
0.000000001
43
0.0000000001
44
0.0000000001
40
0
40
0
40
0
40
0
40
1.0250354271007209
40
2.0500708542014419
40
3.0751062813021628
40
3.5876239948525233
40
4.1001417084028837
40
4.6126594219532446
40
5.1251771355036047
40
6.1502125626043256
40
6.6627302761546865
40
7.1752479897050465
40
7.6877657032554065
40
8.2002834168057674
40
8.2002834168057674
40
8.2002834168057674
40
8.2002834168057674
10
977.42439270019543
20
633.03207397460949
30
0
10
980.27599397056122
20
631.12402046337309
30
0
10
990.43022280919695
20
633.30436057065833
30
0
10
988.24635646977458
20
643.86348824241372
30
0
10
984.76098072939578
20
650.79848511882972
30
0
10
985.52130303666456
20
659.18061296638507
30
0
10
980.53542884682872
20
660.64179156867954
30
0
10
973.5039039765195
20
661.80004794908211
30
0
10
972.6026113185842
20
655.91568006433749
30
0
10
975.94133023178438
20
646.29456243799473
30
0
10
966.35844097097379
20
646.59926300580355
30
0
10
970.98406766378264
20
639.86969272341571
30
0
10
974.25974736912235
20
637.39326602390338
30
0
10
975.99859206501242
20
633.98610073022758
30
0
10
977.42439270019543
20
633.03207397460949
30
0
0
ENDSEC
0
SECTION
2
OBJECTS
0
DICTIONARY
5
C
100
AcDbDictionary
3
ACAD_GROUP
350
D
3
ACAD_MLINESTYLE
350
17
0
DICTIONARY
5
D
100
AcDbDictionary
0
DICTIONARY
5
1A
330
C
100
AcDbDictionary
0
DICTIONARY
5
17
100
AcDbDictionary
0
ENDSEC
0
EOF
