0
SECTION
2
HEADER
9
$INSUNITS
70
4
9
$ACADVER
1
AC1014
9
$HANDSEED
5
FFFF
0
ENDSEC
0
SECTION
2
TABLES
0
TABLE
2
VPORT
5
8
100
AcDbSymbolTable
0
ENDTAB
0
TABLE
2
LTYPE
5
5
100
AcDbSymbolTable
0
LTYPE
5
14
100
AcDbSymbolTableRecord
100
AcDbLinetypeTableRecord
2
BYBLOCK
70
0
0
LTYPE
5
15
100
AcDbSymbolTableRecord
100
AcDbLinetypeTableRecord
2
BYLAYER
70
0
0
LTYPE
5
16
100
AcDbSymbolTableRecord
100
AcDbLinetypeTableRecord
2
DASHED
70
0
3
Dashed __ __ __ __ __ __ __ __ __ __ __ __ __ _
72
65
73
2
40
0.75
49
0.5
74
0
49
-0.25
74
0
0
ENDTAB
0
TABLE
2
LAYER
5
2
100
AcDbSymbolTable
70
2
0
LAYER
5
50
100
AcDbSymbolTableRecord
100
AcDbLayerTableRecord
2
0
70
0
62
7
6
CONTINUOUS
0
ENDTAB
0
TABLE
2
STYLE
5
3
100
AcDbSymbolTable
70
1
0
STYLE
5
11
100
AcDbSymbolTableRecord
100
AcDbTextStyleTableRecord
2
STANDARD
70
0
0
ENDTAB
0
TABLE
2
VIEW
5
6
100
AcDbSymbolTable
70
0
0
ENDTAB
0
TABLE
2
UCS
5
7
100
AcDbSymbolTable
70
0
0
ENDTAB
0
TABLE
2
APPID
5
9
100
AcDbSymbolTable
70
2
0
APPID
5
12
100
AcDbSymbolTableRecord
100
AcDbRegAppTableRecord
2
ACAD
70
0
0
ENDTAB
0
TABLE
2
DIMSTYLE
5
A
100
AcDbSymbolTable
70
1
0
ENDTAB
0
TABLE
2
BLOCK_RECORD
5
1
100
AcDbSymbolTable
70
1
0
BLOCK_RECORD
5
1F
100
AcDbSymbolTableRecord
100
AcDbBlockTableRecord
2
*MODEL_SPACE
0
BLOCK_RECORD
5
1B
100
AcDbSymbolTableRecord
100
AcDbBlockTableRecord
2
*PAPER_SPACE
0
ENDTAB
0
ENDSEC
0
SECTION
2
BLOCKS
0
BLOCK
5
20
100
AcDbEntity
100
AcDbBlockBegin
2
*MODEL_SPACE
0
ENDBLK
5
21
100
AcDbEntity
100
AcDbBlockEnd
0
BLOCK
5
1C
100
AcDbEntity
100
AcDbBlockBegin
2
*PAPER_SPACE
0
ENDBLK
5
1D
100
AcDbEntity
100
AcDbBlockEnd
0
ENDSEC
0
SECTION
2
ENTITIES
0
LWPOLYLINE
5
100
100
AcDbEntity
8
0
100
AcDbPolyline
90
4
70
1
43
0.0
10
1900
20
-800
10
0
20
-800
10
0
20
900
10
1900
20
900
0
SPLINE
5
101
100
AcDbEntity
8
0
100
AcDbSpline
70
2
71
3
72
107
73
103
74
0
42
0.000000001
43
0.0000000001
44
0.0000000001
40
0
40
0
40
0
40
0
40
0.98107862249391531
40
1.9621572449878306
40
2.4526965562347884
40
2.943235867481746
40
3.4337751787287036
40
3.6790448343521822
40
3.9243144899756612
40
4.4148538012226188
40
4.9053931124695769
40
5.395932423716534
40
5.8864717349634921
40
6.3770110462104501
40
6.8675503574574073
40
7.8486289799513225
40
8.3391682911982805
40
8.8297076024452377
40
9.3202469136921948
40
9.8107862249391538
40
10.301325536186111
40
10.791864847433068
40
11.282404158680027
40
11.772943469926984
40
12.263482781173941
40
12.7540220924209
40
13.244561403667857
40
13.735100714914815
40
14.716179337408729
40
15.206718648655688
40
15.697257959902645
40
16.678336582396561
40
17.659415204890475
40
18.149954516137434
40
18.64049382738439
40
19.131033138631349
40
19.621572449878308
40
20.112111761125263
40
20.602651072372222
40
21.093190383619181
40
21.583729694866136
40
22.564808317360054
40
23.055347628607009
40
23.545886939853968
40
24.036426251100927
40
24.526965562347883
40
25.5080441848418
40
25.998583496088756
40
26.489122807335715
40
27.470201429829629
40
28.451280052323543
40
29.432358674817458
40
30.413437297311376
40
30.903976608558331
40
31.39451591980529
40
31.885055231052249
40
32.375594542299204
40
32.86613385354616
40
33.356673164793122
40
33.847212476040077
40
34.337751787287033
40
34.828291098533995
40
35.318830409780951
40
36.299909032274869
40
36.790448343521824
40
37.280987654768779
40
39.243144899756615
40
39.73368421100357
40
40.224223522250526
40
40.714762833497488
40
41.205302144744444
40
41.695841455991399
40
42.186380767238361
40
43.167459389732272
40
43.657998700979235
40
44.14853801222619
40
45.129616634720108
40
46.110695257214019
40
47.091773879707937
40
48.072852502201854
40
49.053931124695765
40
50.035009747189683
40
50.525549058436638
40
51.016088369683601
40
51.506627680930556
40
51.997166992177512
40
52.487706303424474
40
52.97824561467143
40
53.468784925918385
40
53.959324237165347
40
54.449863548412303
40
54.940402859659258
40
55.430942170906214
40
55.921481482153169
40
56.412020793400131
40
56.902560104647087
40
57.883638727141005
40
58.864717349634915
40
59.845795972128833
40
60.826874594622751
40
61.807953217116662
40
62.78903183961058
40
62.78903183961058
40
62.78903183961058
40
62.78903183961058
10
999.92439270019531
20
538.34396362304676
30
0
10
1003.0691854121267
20
537.69051703251432
30
0
10
1009.6995790974756
20
537.64389537246416
30
0
10
1017.1827757232228
20
534.36873169991156
30
0
10
1024.522931186094
20
535.64467985981048
30
0
10
1026.1236016939024
20
540.7416616037417
30
0
10
1027.073231951784
20
544.61650732782414
30
0
10
1031.0448636660478
20
544.90164642280104
30
0
10
1030.4420655482093
20
549.16272522881434
30
0
10
1034.4564088421366
20
551.02222281507261
30
0
10
1037.9544916470472
20
553.65888076078954
30
0
10
1037.2197741778566
20
559.22717301207751
30
0
10
1039.4022036285364
20
563.56336780930508
30
0
10
1037.269794914152
20
568.75724290944493
30
0
10
1041.7616881096405
20
574.12591786180133
30
0
10
1046.1778110777229
20
579.72738839460067
30
0
10
1052.4061128890146
20
576.95119269568238
30
0
10
1058.4514255437034
20
579.48859753514114
30
0
10
1055.4154639988665
20
584.5718406873375
30
0
10
1057.4081303142243
20
590.2626415421729
30
0
10
1063.4991503461208
20
589.07715633408122
30
0
10
1067.2100176102158
20
593.95604976710285
30
0
10
1064.3254201092511
20
598.27964715708777
30
0
10
1066.1882804683032
20
603.10050195950964
30
0
10
1064.8052201985474
20
608.73501234454909
30
0
10
1060.9340088420845
20
610.47430751167542
30
0
10
1056.1709153910556
20
612.37928056035616
30
0
10
1056.0650312265086
20
619.85751754418811
30
0
10
1057.6464465742231
20
626.89746098299554
30
0
10
1064.9322395104466
20
627.92002305987967
30
0
10
1064.86440574937
20
635.55023175171175
30
0
10
1068.3484836365676
20
642.56798009380861
30
0
10
1065.5093608558959
20
652.13671524178778
30
0
10
1073.5350963140247
20
655.49217641995006
30
0
10
1070.3597127214723
20
660.78737773968271
30
0
10
1066.9016570356157
20
664.27413036463804
30
0
10
1067.2030864883079
20
669.46098777041539
30
0
10
1065.3144000927982
20
674.45921097668531
30
0
10
1060.566670453984
20
676.16447000979201
30
0
10
1056.2954048986605
20
677.65859997729785
30
0
10
1051.4740587743293
20
682.06841427348263
30
0
10
1045.6509446157211
20
683.9757922206303
30
0
10
1042.0293434663447
20
692.00862368851836
30
0
10
1037.7992824861208
20
690.14355482751034
30
0
10
1033.0792824196096
20
692.58987511092585
30
0
10
1026.4261005128824
20
693.29379517184077
30
0
10
1022.5231710224809
20
698.08719810511957
30
0
10
1019.2274258724138
20
705.63808133687587
30
0
10
1012.4439088361607
20
703.61232612389711
30
0
10
1004.1884259166932
20
704.98201123109709
30
0
10
995.92309119140327
20
711.1355406705004
30
0
10
986.01115336588293
20
709.40249989584402
30
0
10
977.24586528292207
20
712.584949578889
30
0
10
973.4658686954599
20
706.54592560019432
30
0
10
974.2964803200407
20
700.0724796207212
30
0
10
967.7190714394817
20
701.73746949414658
30
0
10
963.74863241744788
20
699.87415920972808
30
0
10
958.30447236151281
20
698.30753226232241
30
0
10
957.59294022369374
20
693.17457966457391
30
0
10
951.07559568250792
20
696.62356372253441
30
0
10
947.80827601759086
20
692.08161571550988
30
0
10
942.30032998170122
20
691.83893989306125
30
0
10
939.25625127821581
20
685.56985343470456
30
0
10
930.38205046357859
20
688.16571403786065
30
0
10
928.97911354206053
20
680.51877250062159
30
0
10
922.67942795069121
20
673.91187277456902
30
0
10
920.29399015024296
20
663.87354293398687
30
0
10
915.91481992447154
20
655.13699912615937
30
0
10
915.62785222052753
20
650.83798250458699
30
0
10
916.30778459449414
20
643.31764932320175
30
0
10
909.5320920291465
20
646.70924137379984
30
0
10
909.21515789387843
20
640.11935401984192
30
0
10
903.4329293396936
20
636.64509447671196
30
0
10
902.1071530791753
20
629.58041279255281
30
0
10
903.51764231868458
20
623.46596895847165
30
0
10
902.79082869624688
20
616.85575144362917
30
0
10
902.93421841652059
20
608.73737700854167
30
0
10
901.32360303513963
20
599.06323517070723
30
0
10
900.82486415038557
20
589.25061367012029
30
0
10
904.11147609274235
20
580.03360918376245
30
0
10
905.22275421372319
20
569.85507631687597
30
0
10
914.09249190572621
20
566.11184516560218
30
0
10
920.23953611775892
20
567.92208721317263
30
0
10
925.78253188870804
20
565.46768917675809
30
0
10
929.40738508688787
20
560.07220909054809
30
0
10
923.73113259823515
20
566.81958679853528
30
0
10
918.96596423615301
20
564.9816415753312
30
0
10
914.17169020487768
20
564.89910187691021
30
0
10
919.16135079585069
20
558.92965960556216
30
0
10
920.23501439155825
20
555.10030987594484
30
0
10
923.53776603655479
20
551.29869145754697
30
0
10
929.59211547244365
20
551.33230198817068
30
0
10
931.44474496498503
20
554.03420222914497
30
0
10
937.7647835288119
20
555.75447481260699
30
0
10
939.42311758450501
20
548.97106912664515
30
0
10
947.3001330610432
20
551.8079753323658
30
0
10
951.99379247244815
20
542.87170442779279
30
0
10
961.97259169395704
20
542.02410935833359
30
0
10
971.59860148605412
20
545.42526520773822
30
0
10
981.0318962488393
20
541.80395551608865
30
0
10
990.83082282588612
20
541.56457491565857
30
0
10
996.77959998826373
20
538.99741021357909
30
0
10
999.92439270019531
20
538.34396362304676
30
0
0
ENDSEC
0
SECTION
2
OBJECTS
0
DICTIONARY
5
C
100
AcDbDictionary
3
ACAD_GROUP
350
D
3
ACAD_MLINESTYLE
350
17
0
DICTIONARY
5
D
100
AcDbDictionary
0
DICTIONARY
5
1A
330
C
100
AcDbDictionary
0
DICTIONARY
5
17
100
AcDbDictionary
0
ENDSEC
0
EOF
