0
SECTION
2
HEADER
9
$INSUNITS
70
4
9
$ACADVER
1
AC1014
9
$HANDSEED
5
FFFF
0
ENDSEC
0
SECTION
2
TABLES
0
TABLE
2
VPORT
5
8
100
AcDbSymbolTable
0
ENDTAB
0
TABLE
2
LTYPE
5
5
100
AcDbSymbolTable
0
LTYPE
5
14
100
AcDbSymbolTableRecord
100
AcDbLinetypeTableRecord
2
BYBLOCK
70
0
0
LTYPE
5
15
100
AcDbSymbolTableRecord
100
AcDbLinetypeTableRecord
2
BYLAYER
70
0
0
LTYPE
5
16
100
AcDbSymbolTableRecord
100
AcDbLinetypeTableRecord
2
DASHED
70
0
3
Dashed __ __ __ __ __ __ __ __ __ __ __ __ __ _
72
65
73
2
40
0.75
49
0.5
74
0
49
-0.25
74
0
0
ENDTAB
0
TABLE
2
LAYER
5
2
100
AcDbSymbolTable
70
2
0
LAYER
5
50
100
AcDbSymbolTableRecord
100
AcDbLayerTableRecord
2
0
70
0
62
7
6
CONTINUOUS
0
ENDTAB
0
TABLE
2
STYLE
5
3
100
AcDbSymbolTable
70
1
0
STYLE
5
11
100
AcDbSymbolTableRecord
100
AcDbTextStyleTableRecord
2
STANDARD
70
0
0
ENDTAB
0
TABLE
2
VIEW
5
6
100
AcDbSymbolTable
70
0
0
ENDTAB
0
TABLE
2
UCS
5
7
100
AcDbSymbolTable
70
0
0
ENDTAB
0
TABLE
2
APPID
5
9
100
AcDbSymbolTable
70
2
0
APPID
5
12
100
AcDbSymbolTableRecord
100
AcDbRegAppTableRecord
2
ACAD
70
0
0
ENDTAB
0
TABLE
2
DIMSTYLE
5
A
100
AcDbSymbolTable
70
1
0
ENDTAB
0
TABLE
2
BLOCK_RECORD
5
1
100
AcDbSymbolTable
70
1
0
BLOCK_RECORD
5
1F
100
AcDbSymbolTableRecord
100
AcDbBlockTableRecord
2
*MODEL_SPACE
0
BLOCK_RECORD
5
1B
100
AcDbSymbolTableRecord
100
AcDbBlockTableRecord
2
*PAPER_SPACE
0
ENDTAB
0
ENDSEC
0
SECTION
2
BLOCKS
0
BLOCK
5
20
100
AcDbEntity
100
AcDbBlockBegin
2
*MODEL_SPACE
0
ENDBLK
5
21
100
AcDbEntity
100
AcDbBlockEnd
0
BLOCK
5
1C
100
AcDbEntity
100
AcDbBlockBegin
2
*PAPER_SPACE
0
ENDBLK
5
1D
100
AcDbEntity
100
AcDbBlockEnd
0
ENDSEC
0
SECTION
2
ENTITIES
0
LWPOLYLINE
5
100
100
AcDbEntity
8
0
100
AcDbPolyline
90
4
70
1
43
0.0
10
1900
20
-800
10
0
20
-800
10
0
20
900
10
1900
20
900
0
SPLINE
5
101
100
AcDbEntity
8
0
100
AcDbSpline
70
2
71
3
72
340
73
336
74
0
42
0.000000001
43
0.0000000001
44
0.0000000001
40
0
40
0
40
0
40
0
40
0.71957418539285578
40
1.4391483707857116
40
2.8782967415714231
40
5.7565934831428462
40
11.513186966285692
40
17.269780449428538
40
23.026373932571385
40
34.539560898857076
40
46.05274786514277
40
57.565934831428464
40
69.079121797714151
40
80.592308763999853
40
92.10549573028554
40
103.61868269657123
40
109.37527617971408
40
115.13186966285693
40
120.88846314599976
40
123.7667598875712
40
124.48633407296406
40
125.20590825835691
40
125.56569535105334
40
125.92548244374976
40
126.64505662914262
40
128.08420499992832
40
129.52335337071403
40
132.40165011228547
40
135.27994685385687
40
138.1582435954283
40
143.91483707857117
40
149.671430561714
40
161.18461752799971
40
172.69780449428538
40
184.21099146057108
40
207.23736539314245
40
230.26373932571386
40
241.77692629199953
40
253.29011325828523
40
264.80330022457093
40
270.55989370771374
40
276.31648719085661
40
282.07308067399947
40
284.95137741557085
40
286.39052578635653
40
287.11009997174938
40
287.82967415714228
40
289.26882252792802
40
290.70797089871371
40
293.58626764028509
40
296.46456438185652
40
299.34286112342795
40
305.09945460657082
40
310.85604808971368
40
322.36923505599935
40
333.88242202228503
40
345.39560898857076
40
356.90879595485643
40
368.4219829211421
40
379.93516988742778
40
391.44835685371345
40
394.32665359528488
40
395.76580196607063
40
396.48537615146347
40
397.20495033685631
40
398.644098707642
40
399.36367289303485
40
399.72345998573132
40
400.08324707842775
40
400.80282126382065
40
401.16260835651707
40
401.52239544921349
40
402.24196963460633
40
402.60175672730276
40
402.96154381999918
40
403.3213309126956
40
403.68111800539202
40
404.40069219078487
40
404.76047928348129
40
405.12026637617771
40
405.83984056157061
40
406.55941474696351
40
407.27898893235636
40
407.9985631177492
40
408.71813730314204
40
410.15728567392773
40
410.87685985932058
40
411.59643404471342
40
413.03558241549911
40
414.47473078628485
40
420.23132426942766
40
425.98791775257052
40
437.50110471885625
40
449.01429168514193
40
454.77088516828474
40
460.5274786514276
40
466.28407213457047
40
469.16236887614184
40
472.04066561771327
40
473.47981398849902
40
474.91896235928471
40
475.63853654467755
40
476.35811073007039
40
477.79725910085608
40
480.67555584242751
40
483.55385258399895
40
486.43214932557038
40
489.31044606714181
40
495.06703955028468
40
506.58022651657035
40
518.09341348285602
40
529.60660044914175
40
541.11978741542748
40
552.6329743817131
40
564.14616134799871
40
575.65934831428444
40
587.17253528057017
40
598.6857222468559
40
604.44231572999877
40
610.19890921314163
40
615.9555026962845
40
621.71209617942736
40
623.15124455021305
40
624.59039292099874
40
626.02954129178443
40
626.74911547717738
40
627.10890256987386
40
627.46868966257023
40
628.18826384796307
40
628.90783803335603
40
629.62741221874887
40
630.34698640414172
40
631.06656058953456
40
631.42634768223093
40
631.7861347749274
40
632.50570896032025
40
633.22528314571309
40
633.94485733110594
40
634.3046444238023
40
634.66443151649878
40
635.02421860919526
40
635.38400570189162
40
635.74379279458799
40
636.10357988728447
40
636.46336697998095
40
636.82315407267731
40
637.18294116537368
40
637.54272825807016
40
637.90251535076663
40
638.262302443463
40
638.98187662885584
40
639.70145081424869
40
640.42102499964153
40
640.78081209233801
40
641.14059918503438
40
641.50038627773074
40
641.86017337042722
40
642.57974755582006
40
643.29932174121291
40
643.65910883390939
40
644.01889592660586
40
644.73847011199871
40
645.45804429739155
40
645.81783139008803
40
646.17761848278451
40
646.53740557548099
40
646.89719266817735
40
647.25697976087372
40
647.6167668535702
40
648.33634103896304
40
648.69612813165941
40
649.05591522435589
40
649.77548940974873
40
650.49506359514157
40
651.21463778053442
40
651.93421196592726
40
652.65378615132011
40
653.37336033671295
40
653.73314742940943
40
654.09293452210579
40
654.45272161480216
40
654.81250870749864
40
655.53208289289148
40
656.25165707828432
40
656.6114441709808
40
656.97123126367717
40
657.33101835637353
40
657.69080544907001
40
658.41037963446286
40
659.1299538198557
40
659.48974091255218
40
659.84952800524854
40
660.20931509794491
40
660.56910219064139
40
660.92888928333787
40
661.28867637603435
40
662.00825056142719
40
662.36803765412355
40
662.72782474682003
40
663.08761183951651
40
663.44739893221299
40
663.80718602490947
40
664.16697311760583
40
664.5267602103022
40
664.88654730299868
40
665.24633439569516
40
665.60612148839152
40
665.96590858108789
40
666.32569567378437
40
666.68548276648085
40
667.04526985917721
40
667.76484404457005
40
668.12463113726653
40
668.4844182299629
40
668.84420532265926
40
669.20399241535574
40
669.92356660074859
40
670.28335369344495
40
670.64314078614143
40
671.36271497153427
40
672.08228915692712
40
673.52143752771292
40
674.24101171310576
40
674.96058589849872
40
675.68016008389156
40
676.03994717658793
40
676.39973426928441
40
676.75952136198089
40
677.11930845467725
40
677.8388826400701
40
678.55845682546294
40
679.27803101085578
40
679.63781810355226
40
679.99760519624863
40
680.35739228894499
40
680.71717938164147
40
681.43675356703432
40
682.15632775242716
40
682.87590193782
40
683.59547612321285
40
684.31505030860581
40
684.67483740130228
40
685.03462449399865
40
685.39441158669501
40
685.75419867939149
40
686.47377286478445
40
687.19334705017729
40
687.55313414287366
40
687.91292123557014
40
688.27270832826662
40
688.63249542096298
40
689.35206960635583
40
690.07164379174867
40
690.79121797714151
40
691.15100506983799
40
691.51079216253436
40
691.87057925523072
40
692.2303663479272
40
692.94994053332005
40
693.66951471871289
40
694.38908890410573
40
694.7488759968021
40
695.10866308949858
40
695.82823727489153
40
696.18802436758801
40
696.54781146028438
40
697.98695983107018
40
699.42610820185587
40
700.14568238724871
40
700.86525657264156
40
701.22504366533803
40
701.5848307580344
40
701.94461785073076
40
702.30440494342724
40
702.66419203612372
40
703.02397912882009
40
703.74355331421293
40
704.46312749960578
40
705.18270168499862
40
705.5424887776951
40
705.90227587039146
40
706.62185005578431
40
707.34142424117726
40
707.70121133387374
40
708.06099842657011
40
708.42078551926647
40
708.78057261196295
40
709.50014679735591
40
710.21972098274875
40
710.9392951681416
40
711.65886935353444
40
712.37844353892729
40
713.09801772432013
40
713.45780481701649
40
713.81759190971297
40
714.17737900240945
40
714.53716609510582
40
715.25674028049866
40
715.61652737319514
40
715.97631446589151
40
716.33610155858787
40
716.69588865128435
40
717.05567574398083
40
717.41546283667719
40
718.13503702207004
40
718.85461120746299
40
719.57418539285584
40
721.01333376364164
40
722.45248213442733
40
723.17205631982017
40
723.89163050521302
40
724.61120469060586
40
725.3307788759987
40
725.69056596869518
40
726.05035306139155
40
726.76992724678439
40
727.48950143217724
40
727.8492885248736
40
728.20907561757008
40
728.92864980296292
40
729.64822398835577
40
730.00801108105225
40
730.36779817374861
40
731.08737235914145
40
731.8069465445343
40
732.52652072992714
40
733.24609491531999
40
733.60588200801635
40
733.96566910071283
40
734.32545619340931
40
734.68524328610567
40
735.04503037880204
40
735.40481747149852
40
736.12439165689148
40
736.84396584228432
40
736.84396584228432
40
736.84396584228432
40
736.84396584228432
10
621.92440032958996
20
-743.34449768066429
30
0
10
623.1415192390067
20
-744.3354747046227
30
0
10
629.72705372819553
20
-742.80698640513469
30
0
10
638.37360742225019
20
-743.71925341782787
30
0
10
655.74431894489635
20
-743.17576043138729
30
0
10
688.9263269332555
20
-743.45615759304405
30
0
10
736.99345784691798
20
-744.15719929196644
30
0
10
794.29737105628317
20
-744.94275881259784
30
0
10
871.08856322052702
20
-745.80051907699101
30
0
10
966.71510656958617
20
-748.09168326513009
30
0
10
1081.9522336012722
20
-747.30335721352628
30
0
10
1197.0558300962823
20
-747.51452899404615
30
0
10
1312.1955350616965
20
-747.4581679235705
30
0
10
1427.3243366821698
20
-747.47244042495242
30
0
10
1542.4606432120022
20
-747.47171148990083
30
0
10
1638.3916350764523
20
-747.46224752225487
30
0
10
1715.1709086983178
20
-747.48343271860131
30
0
10
1772.6614816700408
20
-747.41836641753389
30
0
10
1820.8688665744453
20
-747.6220133400426
30
0
10
1851.6595886465329
20
-747.28442915439109
30
0
10
1866.4439545556618
20
-747.62381531965661
30
0
10
1871.844714904378
20
-747.11140080778648
30
0
10
1878.0304299171721
20
-748.30843473580353
30
0
10
1877.1074093806392
20
-742.56431728651796
30
0
10
1877.4451754099166
20
-734.52097824518182
30
0
10
1877.2169329279377
20
-722.29201886512783
30
0
10
1877.307461624946
20
-703.19697418946373
30
0
10
1877.2630826895293
20
-679.16528353349747
30
0
10
1877.2772668840098
20
-650.39698151129539
30
0
10
1877.2726241493601
20
-612.01489135946395
30
0
10
1877.2748858821983
20
-564.04561766289146
30
0
10
1877.2739976752764
20
-487.29011843623994
30
0
10
1877.2744291580034
20
-391.34734827106973
30
0
10
1877.2743070478505
20
-276.21531747398109
30
0
10
1877.2742679296366
20
-122.70629001987025
30
0
10
1877.2748910405035
20
69.18082986561032
30
0
10
1877.2726714976809
20
261.06504115723271
30
0
10
1877.2771806253695
20
414.57872236151644
30
0
10
1877.2634137775131
20
529.69679190808779
30
0
10
1877.3064850655628
20
625.68319098112397
30
0
10
1877.2186116557809
20
702.34968723572865
30
0
10
1877.4869717223546
20
760.18462376761954
30
0
10
1876.6473590482215
20
807.31461599266538
30
0
10
1878.1462054465887
20
842.3971746870576
30
0
10
1876.0468175234771
20
857.08283513421532
30
0
10
1879.1772764335735
20
869.81463268104721
30
0
10
1866.2284084630801
20
866.4641852641131
30
0
10
1855.922353532344
20
868.14988415558605
30
0
10
1836.0710233860448
20
867.4876526626349
30
0
10
1812.4100194199382
20
867.8122322716996
30
0
10
1783.5232401666328
20
867.70849166009566
30
0
10
1745.1799298486499
20
867.74244752479706
30
0
10
1697.1917630798068
20
867.72590765310611
30
0
10
1620.443690320215
20
867.73239259448997
30
0
10
1524.4972593269974
20
867.729322060816
30
0
10
1409.3664832391978
20
867.72986252621445
30
0
10
1294.2340868051183
20
867.7313853050299
30
0
10
1179.1032306520938
20
867.72475372437157
30
0
10
1063.967833721126
20
867.74975726818661
30
0
10
948.84905962088158
20
867.65637467358397
30
0
10
862.46351613698596
20
867.91776979953113
30
0
10
809.73857339544281
20
867.60508481478064
30
0
10
792.9482681309463
20
867.76332910300255
30
0
10
783.85368644810217
20
864.3605251316643
30
0
10
774.36111539419528
20
864.84399457023289
30
0
10
765.00439910465957
20
863.09315162599898
30
0
10
756.31599650688918
20
863.81353193356233
30
0
10
751.63960008116283
20
863.70070234501998
30
0
10
748.96176587670266
20
858.52009134088632
30
0
10
743.58488206052414
20
859.61619252044238
30
0
10
738.42142827120881
20
860.11858620918269
30
0
10
736.61179376433392
20
854.26067222584629
30
0
10
729.47399605170722
20
857.32433519568542
30
0
10
728.64164573268283
20
850.6098716508111
30
0
10
724.27121875142552
20
852.06715473284953
30
0
10
720.54257348397346
20
851.41954951803518
30
0
10
718.09689716406319
20
847.73164361576869
30
0
10
711.0977669715985
20
847.93320814460435
30
0
10
712.01136030461373
20
841.42018229849464
30
0
10
706.73166792421694
20
840.86274487706214
30
0
10
700.76340248806218
20
840.83872929295717
30
0
10
694.02809704369793
20
841.67068954616809
30
0
10
684.88277466822296
20
840.80160835391007
30
0
10
684.27482923639616
20
848.57447219498454
30
0
10
683.69164252138398
20
857.45976674918347
30
0
10
682.99996294658854
20
869.58231916385739
30
0
10
671.7388146657288
20
867.3822417393294
30
0
10
662.55575325609811
20
867.92602074839215
30
0
10
650.36571402799905
20
867.66628316632602
30
0
10
621.69032164069074
20
867.80801130262955
30
0
10
578.43403722149208
20
867.70015865310393
30
0
10
501.71510750135388
20
867.74736134560897
30
0
10
405.75500373671116
20
867.72334830075908
30
0
10
309.81425209301335
20
867.73272497770017
30
0
10
233.06435897936322
20
867.72650411533948
30
0
10
175.48220326763473
20
867.74297124723546
30
0
10
127.56173134561945
20
867.69196884655776
30
0
10
89.080042935632036
20
867.79594056210101
30
0
10
65.359935941448668
20
867.53135129939608
30
0
10
45.625902235191091
20
868.07445828408208
30
0
10
35.021527399051521
20
866.69173987133888
30
0
10
22.582540403631736
20
869.52451283021276
30
0
10
24.115796206579681
20
858.17462141188525
30
0
10
23.185043803573542
20
842.45561744200381
30
0
10
23.70665233107988
20
817.8695720263438
30
0
10
23.539011045869906
20
789.2795172489956
30
0
10
23.583645953702277
20
760.44518636289649
30
0
10
23.569114825542851
20
722.08461813284021
30
0
10
23.578184230943009
20
654.91392412107245
30
0
10
23.57310211116733
20
558.97654861508227
30
0
10
23.574733368694297
20
443.842797748338
30
0
10
23.574306882317252
20
328.71143384535924
30
0
10
23.574381570298392
20
213.57942234687533
30
0
10
23.574509304750919
20
98.447614266648401
30
0
10
23.573923678959616
20
-16.684359891099696
30
0
10
23.576138447672346
20
-131.81587315701992
30
0
10
23.567864998612713
20
-246.94906391273221
30
0
10
23.59359752155089
20
-342.88818198637773
30
0
10
23.541122695616721
20
-419.65113583507309
30
0
10
23.701372870727493
20
-477.19149758592687
30
0
10
23.099728289780458
20
-534.85344418456066
30
0
10
24.781680313816913
20
-577.759166579404
30
0
10
23.212449892634595
20
-606.76369505287926
30
0
10
27.075959434931114
20
-620.75188436715268
30
0
10
28.638200968298129
20
-632.5366897416236
30
0
10
26.412153568966033
20
-641.32766775884033
30
0
10
28.874609911119464
20
-645.87947190926513
30
0
10
34.569087068178789
20
-643.80219680472703
30
0
10
39.7598961492642
20
-645.93542542871296
30
0
10
43.431915515412612
20
-653.65420788649908
30
0
10
51.520144755076906
20
-653.40125046183459
30
0
10
56.410102330237763
20
-655.15081752221147
30
0
10
64.688225072124084
20
-661.17602146796287
30
0
10
63.702556964999758
20
-653.68165642617146
30
0
10
68.378259431669065
20
-653.75145197008214
30
0
10
73.914449039014471
20
-653.15835073132916
30
0
10
83.894584838083617
20
-655.89618166911066
30
0
10
81.931536943925138
20
-647.22259237169226
30
0
10
86.093631584103292
20
-644.20102043272186
30
0
10
91.466875721825005
20
-646.26422782440613
30
0
10
90.460880400886367
20
-641.144838989557
30
0
10
92.911356487360806
20
-639.84536678058885
30
0
10
96.658278814124145
20
-639.83648329270284
30
0
10
95.741894379714466
20
-634.37795285816787
30
0
10
101.17605977643481
20
-636.40475330640254
30
0
10
103.79083904933033
20
-635.28965850445218
30
0
10
109.09673276097774
20
-637.22194751053871
30
0
10
109.02255543896979
20
-632.84709320032721
30
0
10
110.60098739223102
20
-630.40035020344169
30
0
10
116.85188805796619
20
-632.04621089362263
30
0
10
122.21668671046561
20
-631.32566195754805
30
0
10
128.60597834770084
20
-630.40221805573151
30
0
10
137.36240123226872
20
-633.55491135673515
30
0
10
135.40159630606945
20
-625.51545028073588
30
0
10
141.55008402964575
20
-628.29233437910091
30
0
10
140.11466403971795
20
-622.35243161183985
30
0
10
144.73361052830384
20
-622.03568293201533
30
0
10
150.12239655186275
20
-621.34936281096464
30
0
10
159.20982935946958
20
-624.92389613580895
30
0
10
158.26482601032322
20
-618.08058474188999
30
0
10
162.20544318839791
20
-617.03800872405395
30
0
10
170.73187096381793
20
-619.48909926789156
30
0
10
165.86401256348964
20
-607.93207446875056
30
0
10
171.71985033227273
20
-608.90340097984404
30
0
10
175.42655465537806
20
-609.00514972525787
30
0
10
178.50642821999816
20
-608.4553572624917
30
0
10
182.8368611192879
20
-609.27128824005285
30
0
10
186.46557212995535
20
-609.24314010614364
30
0
10
184.72921543104565
20
-601.4885488865433
30
0
10
194.39413919295816
20
-607.11217953845664
30
0
10
194.515017981847
20
-601.54473226149139
30
0
10
196.62541873301905
20
-598.28842130717112
30
0
10
204.52259954244266
20
-600.45666121828731
30
0
10
210.45532445830338
20
-599.1650743897394
30
0
10
220.08333154344487
20
-601.37311731087902
30
0
10
214.51632740272748
20
-587.7395501086346
30
0
10
227.34235167752337
20
-593.86519841100767
30
0
10
226.10678270736798
20
-585.32254885775217
30
0
10
226.4907961547905
20
-581.05442205488521
30
0
10
231.94740631659042
20
-582.74157106193775
30
0
10
230.07839397851478
20
-576.32607740274568
30
0
10
236.09728318347649
20
-577.83500455847786
30
0
10
243.09552317931607
20
-577.28506565611724
30
0
10
242.4167522467078
20
-583.54493920787968
30
0
10
245.27748924902784
20
-590.63226964209821
30
0
10
238.03251837917387
20
-588.15199647142038
30
0
10
241.42793291759486
20
-592.45777735853108
30
0
10
246.66163801856152
20
-589.46232669727249
30
0
10
241.01323170198208
20
-578.89639003886975
30
0
10
252.43153060067976
20
-584.35151550129967
30
0
10
253.01899498480739
20
-579.46527260416644
30
0
10
254.30181892011461
20
-576.63135182306394
30
0
10
258.86034530117007
20
-577.619510601927
30
0
10
257.14297601216708
20
-571.32135777648682
30
0
10
263.15302231613208
20
-573.95888647131858
30
0
10
262.49290609087956
20
-567.34957573962311
30
0
10
262.06634104091984
20
-562.58795291034596
30
0
10
262.78360950349958
20
-558.24049504834534
30
0
10
267.95191347799511
20
-559.81594706391365
30
0
10
271.52321685702043
20
-559.82593320811554
30
0
10
272.0091240714188
20
-555.89787085733133
30
0
10
270.71208837766613
20
-550.95922058725102
30
0
10
272.88500564622075
20
-549.48860511341923
30
0
10
278.2332875054795
20
-551.27382318392824
30
0
10
280.77651428445029
20
-550.06998207187337
30
0
10
279.90660012326907
20
-544.72573355345583
30
0
10
284.43898384518172
20
-545.77156951858615
30
0
10
289.42663929634966
20
-547.32009314650099
30
0
10
288.59892385428122
20
-542.10042599752808
30
0
10
291.39313087916372
20
-541.09052899164635
30
0
10
296.33246951490747
20
-540.77481568280723
30
0
10
291.60866584914095
20
-530.77146759005007
30
0
10
298.96373730392179
20
-533.26960187520967
30
0
10
299.07096105688697
20
-528.92488489823472
30
0
10
297.61332352030075
20
-523.78695159133269
30
0
10
301.80018317892547
20
-522.9448157058772
30
0
10
307.09474552450888
20
-523.42096347093718
30
0
10
312.4345270245791
20
-523.96691155922531
30
0
10
310.93174674375354
20
-516.48814722387795
30
0
10
319.76560813857577
20
-519.71855221475835
30
0
10
328.10830073059458
20
-518.35025536772025
30
0
10
338.28100596772634
20
-518.62386425305101
30
0
10
347.65138892972357
20
-519.31338062453551
30
0
10
355.26802351595478
20
-516.48523635592005
30
0
10
360.73986577148276
20
-524.73026533224061
30
0
10
361.58451601549808
20
-520.66956903169353
30
0
10
362.59166263581648
20
-517.80427413959433
30
0
10
368.00562054097429
20
-519.01772682572516
30
0
10
371.55579979282032
20
-518.8504488746803
30
0
10
375.80042306336941
20
-525.50189707318862
30
0
10
384.48508940015017
20
-521.40283699413669
30
0
10
387.33260518623325
20
-528.45740211639338
30
0
10
393.65330575559875
20
-528.38613342575309
30
0
10
392.01486480948211
20
-522.87696173061033
30
0
10
396.93355334142166
20
-522.69023913013154
30
0
10
399.92022072436981
20
-526.99471532231189
30
0
10
405.55387077915697
20
-528.14905073397813
30
0
10
413.02028462008377
20
-527.75694816486703
30
0
10
416.35234061481583
20
-536.53806430279826
30
0
10
424.50858539616212
20
-535.2090885099276
30
0
10
427.61933683156172
20
-542.36684196193994
30
0
10
433.25610618446535
20
-540.62572875220258
30
0
10
435.31603199931612
20
-543.91946315921177
30
0
10
438.28783524126118
20
-546.35993416433098
30
0
10
443.3166778268299
20
-545.48095152183566
30
0
10
449.25208411564438
20
-546.08093628473785
30
0
10
455.12162910272116
20
-545.48021785962726
30
0
10
460.37722878539603
20
-545.49637683431763
30
0
10
462.00472782660086
20
-548.1793896041122
30
0
10
466.26143099096987
20
-551.68024768018688
30
0
10
463.89997598771293
20
-542.66353621324026
30
0
10
473.36575192819157
20
-547.17790211069848
30
0
10
479.93566004843638
20
-545.73948366531511
30
0
10
482.53508469271287
20
-550.87783465762516
30
0
10
488.1904423699375
20
-556.09812142890848
30
0
10
486.69567205941229
20
-550.8993066984076
30
0
10
489.18506839441812
20
-548.81246987402187
30
0
10
495.17828936524063
20
-551.96860716366041
30
0
10
499.80637244343887
20
-552.03755287353806
30
0
10
508.9482093583959
20
-549.88342937074731
30
0
10
509.74330523786068
20
-563.19354637870219
30
0
10
509.36458145012858
20
-553.70880092795028
30
0
10
515.10455836168921
20
-555.64872642530577
30
0
10
519.44567107515263
20
-554.76967482062719
30
0
10
522.71339286841658
20
-559.67373447949035
30
0
10
530.26319281279802
20
-559.04454018657748
30
0
10
540.41359192491313
20
-559.80856120354133
30
0
10
553.96688448622729
20
-557.29806730786163
30
0
10
559.97658847462412
20
-564.78413388727688
30
0
10
567.95199954440488
20
-565.25703777486956
30
0
10
566.77290735072745
20
-570.70117534383019
30
0
10
568.44764646677322
20
-573.6731902562924
30
0
10
568.28301931897772
20
-566.20575179256298
30
0
10
573.96795624963306
20
-569.67985923635808
30
0
10
572.11107016351275
20
-562.87997013768302
30
0
10
578.76826869068441
20
-564.05763275762172
30
0
10
581.5354841429554
20
-569.34144368870864
30
0
10
580.24016895945692
20
-576.72252863780591
30
0
10
581.28018300110546
20
-583.0405967424997
30
0
10
587.58072413517846
20
-581.49100592203797
30
0
10
590.59993953974174
20
-586.4966308280824
30
0
10
589.39860840318545
20
-592.44561196850896
30
0
10
589.76113809976459
20
-598.3896379823957
30
0
10
590.27692287209209
20
-603.85505134165999
30
0
10
585.54061884188627
20
-602.82361964678989
30
0
10
581.26469444311408
20
-601.94001655584373
30
0
10
580.27198326681878
20
-606.9250010864879
30
0
10
581.71920667807115
20
-612.76476795483586
30
0
10
578.89985332280753
20
-621.51924557371422
30
0
10
586.71733174375629
20
-622.75123318689123
30
0
10
593.98775173982892
20
-621.00980730878007
30
0
10
600.05364120319439
20
-626.46515150227174
30
0
10
598.73750553778086
20
-633.18766422549504
30
0
10
598.43817128580213
20
-637.35751427585524
30
0
10
599.43987714718003
20
-642.06539752810545
30
0
10
598.09029688117948
20
-644.43959472221934
30
0
10
590.85305107495844
20
-641.84088838131743
30
0
10
589.7896651564588
20
-646.51343498072947
30
0
10
589.33403068943096
20
-650.79191304767687
30
0
10
590.71292687077243
20
-655.84486166963995
30
0
10
588.60393440505823
20
-657.20456783956024
30
0
10
584.27542311032789
20
-656.9751611994252
30
0
10
585.06345868812798
20
-662.55203348860061
30
0
10
589.27279389650334
20
-665.03447491952682
30
0
10
589.41856112965979
20
-671.12314434486575
30
0
10
590.83474144198703
20
-678.32560780600033
30
0
10
602.88467104597532
20
-675.22070639738263
30
0
10
613.68382982844673
20
-676.2995390783733
30
0
10
625.9855504139739
20
-677.48070697673245
30
0
10
635.57384548024504
20
-674.35469542972896
30
0
10
642.66806276484272
20
-684.70038118591674
30
0
10
631.50578079079639
20
-682.4179815697272
30
0
10
637.32274892042039
20
-694.66027313862901
30
0
10
630.04568488239875
20
-691.79261302690952
30
0
10
629.37009792107915
20
-698.60948420588682
30
0
10
636.19302330558742
20
-701.01210632831237
30
0
10
634.39069384324068
20
-709.47782374521967
30
0
10
640.85615730846723
20
-707.42466373501748
30
0
10
645.14689758525321
20
-708.148604025758
30
0
10
651.56747701671998
20
-706.99121496849887
30
0
10
657.09691751684772
20
-709.36906835148477
30
0
10
658.10637784626329
20
-716.21200627973144
30
0
10
652.06182539554959
20
-714.88811777263538
30
0
10
647.43600803311074
20
-716.33099102643757
30
0
10
637.01647725192197
20
-713.08241677770297
30
0
10
642.09272542368126
20
-726.11100324777806
30
0
10
633.53827829533918
20
-724.50288024452163
30
0
10
629.8287524357163
20
-724.2786062427723
30
0
10
627.46348660948786
20
-720.25303886170855
30
0
10
624.34456232377772
20
-720.02140302536418
30
0
10
626.49282874514063
20
-726.72889796245568
30
0
10
626.15155525025784
20
-729.60755417271139
30
0
10
619.20609371170826
20
-727.93849421113418
30
0
10
622.4243402716944
20
-736.86112426138357
30
0
10
620.70728142017299
20
-742.35352065670577
30
0
10
621.92440032958996
20
-743.34449768066429
30
0
0
SPLINE
5
102
100
AcDbEntity
8
0
100
AcDbSpline
70
2
71
3
72
40
73
36
74
0
42
0.000000001
43
0.0000000001
44
0.0000000001
40
0
40
0
40
0
40
0
40
0.65157096584003726
40
1.3031419316800745
40
2.6062838633601491
40
3.2578548292001863
40
3.9094257950402236
40
4.5609967608802613
40
5.2125677267202981
40
6.5157096584003726
40
7.8188515900804472
40
8.4704225559204858
40
9.1219935217605226
40
9.447779004680541
40
9.7735644876005594
40
10.099349970520578
40
10.425135453440596
40
11.076706419280633
40
11.72827738512067
40
12.379848350960707
40
13.031419316800745
40
13.682990282640784
40
14.008775765560802
40
14.334561248480821
40
14.986132214320858
40
15.311917697240876
40
15.637703180160894
40
16.289274146000935
40
16.940845111840972
40
17.592416077681008
40
18.243987043521045
40
18.895558009361082
40
19.547128975201119
40
20.198699941041156
40
20.850270906881192
40
20.850270906881192
40
20.850270906881192
40
20.850270906881192
10
387.92438507080089
20
-743.40713500976574
30
0
10
389.14720205534604
20
-744.93532047260351
30
0
10
394.72753311945496
20
-745.9536798058416
30
0
10
400.59565742258644
20
-741.58592042754901
30
0
10
413.04601961491647
20
-747.96216371356081
30
0
10
416.38553746030072
20
-738.16543602073307
30
0
10
424.24549133702703
20
-741.42710033922617
30
0
10
430.11891391815453
20
-740.69749129288516
30
0
10
438.13335308535409
20
-745.13928570519101
30
0
10
448.15509695917029
20
-742.33496376716732
30
0
10
463.42134313998906
20
-745.74687470300978
30
0
10
462.22565530795038
20
-735.46176679272332
30
0
10
459.99236308748448
20
-730.91007597630164
30
0
10
461.30796568567627
20
-725.91503601101806
30
0
10
458.6465855552284
20
-724.24853769206152
30
0
10
459.92030978787398
20
-730.79677727007015
30
0
10
453.5345041522487
20
-727.6846508953729
30
0
10
449.14750017288674
20
-729.37322698923151
30
0
10
442.59680196047321
20
-725.94729991600707
30
0
10
439.0915735782736
20
-719.59802316058756
30
0
10
431.72310423032116
20
-721.08385014568853
30
0
10
428.53034402802302
20
-714.48712132102412
30
0
10
424.27162478228132
20
-715.87822466671139
30
0
10
418.20460958629275
20
-713.65501192333397
30
0
10
420.11538439838722
20
-721.31986778122473
30
0
10
414.15964793850043
20
-719.47339606708567
30
0
10
410.23057691413948
20
-720.08199758554736
30
0
10
404.61692861817733
20
-719.1975418879407
30
0
10
397.79197611012773
20
-721.33818693630224
30
0
10
402.00005017595504
20
-731.39874669049095
30
0
10
393.92106767047261
20
-725.650991479391
30
0
10
386.85805976019037
20
-722.25235587451994
30
0
10
387.19214384992802
20
-731.37974280237586
30
0
10
387.39063121218408
20
-736.78456702881488
30
0
10
386.70156808625569
20
-741.87894954692797
30
0
10
387.92438507080089
20
-743.40713500976574
30
0
0
SPLINE
5
103
100
AcDbEntity
8
0
100
AcDbSpline
70
2
71
3
72
40
73
36
74
0
42
0.000000001
43
0.0000000001
44
0.0000000001
40
0
40
0
40
0
40
0
40
1.2037487969118066
40
1.8056231953677098
40
2.4074975938236132
40
3.0093719922795161
40
3.6112463907354195
40
4.2131207891913229
40
4.8149951876472263
40
5.4168695861031289
40
6.0187439845590323
40
6.319681183786984
40
6.6206183830149357
40
7.2224927814708391
40
7.5234299806987908
40
7.8243671799267425
40
8.4262415783826459
40
9.0281159768385493
40
9.6299903752944527
40
10.231864773750356
40
10.833739172206258
40
11.435613570662161
40
12.037487969118065
40
12.639362367573968
40
13.241236766029871
40
13.542173965257824
40
13.843111164485775
40
14.444985562941678
40
14.745922762169631
40
15.046859961397582
40
15.648734359853485
40
16.25060875830939
40
16.852483156765292
40
18.056231953677099
40
19.259980750588905
40
19.259980750588905
40
19.259980750588905
40
19.259980750588905
10
387.92438507080078
20
-703.09692382812511
30
0
10
388.12938317340837
20
-702.9637662410571
30
0
10
388.46089916279431
20
-692.21083097993517
30
0
10
388.55517517741328
20
-685.34893351570543
30
0
10
388.12307997793948
20
-678.47992040960935
30
0
10
398.48954057505665
20
-683.30223199706268
30
0
10
396.89090577766615
20
-674.38528041777863
30
0
10
398.76197833568654
20
-670.39513138959921
30
0
10
407.82338754162038
20
-673.603073473525
30
0
10
406.54777449735349
20
-664.61194572141176
30
0
10
401.27669860317371
20
-662.566227705296
30
0
10
402.52924147091852
20
-658.24006544626639
30
0
10
400.46579537206702
20
-652.39239763084936
30
0
10
407.56876532726733
20
-655.45839718000082
30
0
10
405.57328485170586
20
-648.47328472768356
30
0
10
411.38139152665502
20
-650.44818251109177
30
0
10
411.07807443327857
20
-643.75674291077689
30
0
10
410.80447079914711
20
-638.72491062606844
30
0
10
412.33815075516907
20
-631.41876229660659
30
0
10
407.09324052634491
20
-629.3244140236344
30
0
10
400.48185406733796
20
-629.70315968392151
30
0
10
395.07271636061978
20
-630.68959458109464
30
0
10
396.61898703883827
20
-638.71134514995174
30
0
10
395.7507336336879
20
-643.70702050828436
30
0
10
397.13271651620119
20
-650.15436034035952
30
0
10
395.95125510701973
20
-653.04109108042792
30
0
10
390.24182296541653
20
-651.46554209143471
30
0
10
392.0417666476676
20
-658.15560113202969
30
0
10
391.47681000537233
20
-661.32347642356081
30
0
10
393.23658467767478
20
-667.19789865649943
30
0
10
385.38974414161288
20
-664.62244198136148
30
0
10
387.97060330217647
20
-673.89230320669139
30
0
10
386.88802516698979
20
-680.9025494449055
30
0
10
387.34141587694415
20
-689.42546474863673
30
0
10
387.71938696819319
20
-703.23008141519324
30
0
10
387.92438507080078
20
-703.09692382812511
30
0
0
SPLINE
5
104
100
AcDbEntity
8
0
100
AcDbSpline
70
2
71
3
72
30
73
26
74
0
42
0.000000001
43
0.0000000001
44
0.0000000001
40
0
40
0
40
0
40
0
40
0.38097204186295164
40
0.76194408372590328
40
1.1429161255888549
40
1.5238881674518066
40
1.9048602093147582
40
2.2858322511777098
40
2.6668042930406615
40
3.0477763349036131
40
3.4287483767665647
40
3.8097204186295164
40
4.5716645023554197
40
5.3336085860813229
40
5.7145806279442741
40
6.0955526698072262
40
6.8574967535331295
40
7.6194408372590328
40
8.3813849209849351
40
9.1433290047108393
40
9.5243010465737914
40
9.9052730884367435
40
10.667217172162646
40
11.429161255888548
40
12.191105339614452
40
12.191105339614452
40
12.191105339614452
40
12.191105339614452
10
419.4244003295899
20
-631.24061584472656
30
0
10
420.77440688191587
20
-631.74937707914535
30
0
10
423.94533252604299
20
-632.17506521291432
30
0
10
425.43564554949222
20
-629.03297065676543
30
0
10
423.13929421057998
20
-622.73726068014435
30
0
10
426.82562704420462
20
-622.81639919410895
30
0
10
429.06918948109023
20
-620.65193937140327
30
0
10
429.76410234753615
20
-617.03032214427151
30
0
10
434.31511982298156
20
-617.70178922761568
30
0
10
433.06879094479115
20
-611.77397527007599
30
0
10
439.16892007929232
20
-614.23308287659563
30
0
10
437.50115661217279
20
-606.32857453717702
30
0
10
438.32223795909357
20
-601.27695813912101
30
0
10
438.26187052573567
20
-595.11702430320656
30
0
10
438.23476185540022
20
-588.79578080692579
30
0
10
432.52150432800147
20
-589.65085669650762
30
0
10
425.43468658511233
20
-588.90222409569617
30
0
10
430.20030585379942
20
-602.04428197500579
30
0
10
415.54784407974887
20
-594.74148259629362
30
0
10
421.68723180655803
20
-608.3825048848953
30
0
10
415.04424974370812
20
-606.51570224155375
30
0
10
413.51244166156516
20
-611.17741850257721
30
0
10
414.75280561126669
20
-618.05963048259514
30
0
10
413.20801117353477
20
-625.82071109793935
30
0
10
416.72438722493791
20
-630.22309337588899
30
0
10
419.4244003295899
20
-631.24061584472656
30
0
0
SPLINE
5
105
100
AcDbEntity
8
0
100
AcDbSpline
70
2
71
3
72
101
73
97
74
0
42
0.000000001
43
0.0000000001
44
0.0000000001
40
0
40
0
40
0
40
0
40
0.77094159443880661
40
1.5418831888776132
40
1.9273539860970166
40
2.3128247833164197
40
2.6982955805358229
40
3.0837663777552264
40
3.8547079721940332
40
4.6256495666328394
40
6.1675327555104529
40
6.93847434994926
40
7.7094159443880663
40
8.0948867416074695
40
8.4803575388268726
40
8.8658283360462757
40
9.2512991332656789
40
10.022240727704485
40
10.407711524923888
40
10.793182322143291
40
11.178653119362695
40
11.564123916582098
40
11.949594713801503
40
12.335065511020906
40
12.720536308240309
40
13.106007105459714
40
13.87694869989852
40
14.262419497117923
40
14.647890294337326
40
15.03336109155673
40
15.418831888776133
40
15.804302685995536
40
16.189773483214939
40
16.57524428043434
40
16.960715077653745
40
17.34618587487315
40
17.731656672092551
40
18.502598266531358
40
18.888069063750763
40
19.273539860970164
40
19.659010658189565
40
20.04448145540897
40
20.429952252628375
40
20.815423049847777
40
21.586364644286583
40
21.971835441505988
40
22.357306238725389
40
22.74277703594479
40
23.128247833164195
40
23.5137186303836
40
23.899189427603005
40
24.28466022482241
40
24.670131022041812
40
25.055601819261213
40
25.441072616480618
40
25.826543413700023
40
26.212014210919428
40
26.982955805358234
40
27.75389739979704
40
28.524838994235846
40
29.295780588674653
40
29.681251385894058
40
30.066722183113459
40
30.45219298033286
40
30.837663777552265
40
31.22313457477167
40
31.608605371991072
40
32.379546966429878
40
33.150488560868681
40
33.92143015530749
40
34.6923717497463
40
35.077842546965698
40
35.463313344185103
40
36.234254938623906
40
37.005196533062716
40
37.776138127501525
40
38.161608924720923
40
38.547079721940328
40
38.932550519159733
40
39.318021316379131
40
40.088962910817941
40
40.474433708037346
40
40.85990450525675
40
41.245375302476148
40
41.630846099695553
40
42.401787694134356
40
43.172729288573166
40
43.943670883011976
40
44.714612477450778
40
45.485554071889581
40
46.256495666328391
40
46.641966463547796
40
47.027437260767201
40
47.79837885520601
40
48.56932044964482
40
49.340262044083623
40
49.340262044083623
40
49.340262044083623
40
49.340262044083623
10
783.92440795898449
20
-148.33154678344729
30
0
10
785.87116497295597
20
-149.6027381509883
30
0
10
792.07265374801989
20
-149.45094285658993
30
0
10
797.64578836108785
20
-145.63869684656123
30
0
10
795.85609826280984
20
-139.31526289329094
30
0
10
800.44884316257321
20
-138.94215095749377
30
0
10
805.82749522815834
20
-140.53426992884752
30
0
10
805.64321635511942
20
-135.04006382399672
30
0
10
806.92168202081234
20
-128.45761198376698
30
0
10
800.42639825061099
20
-119.19699727453597
30
0
10
786.56164985462988
20
-125.36739116042655
30
0
10
782.55708236513487
20
-114.35115471998016
30
0
10
782.78552187117214
20
-107.57811442527212
30
0
10
783.32555930002945
20
-102.74853177103323
30
0
10
788.81610291799018
20
-103.55865886687219
30
0
10
793.18672758724699
20
-104.31958020803754
30
0
10
790.88085850233381
20
-96.588389020147915
30
0
10
799.74749689885675
20
-99.589095750857425
30
0
10
803.5744661342294
20
-98.40054866294858
30
0
10
808.62254097037055
20
-99.790671635142104
30
0
10
811.55409702941711
20
-98.859415618063423
30
0
10
809.98888517025193
20
-93.283547875338712
30
0
10
808.61214531320456
20
-90.861136176114769
30
0
10
804.29262760213942
20
-86.874017133642042
30
0
10
802.87658114814417
20
-91.922596804983797
30
0
10
797.10866719569538
20
-91.152541472627547
30
0
10
793.11308217396686
20
-92.250496694339319
30
0
10
786.09703668499503
20
-90.409773650440115
30
0
10
784.15257660211819
20
-92.114164877801954
30
0
10
784.67399774146725
20
-96.775333384869555
30
0
10
778.51898065568889
20
-96.270281231537382
30
0
10
777.11961778751277
20
-90.717176366384933
30
0
10
781.91551714226591
20
-90.542698581741092
30
0
10
784.53658523193269
20
-88.517232641991512
30
0
10
781.85526862726556
20
-83.795572178304795
30
0
10
778.69091494817042
20
-82.316328317859657
30
0
10
776.11788397701366
20
-76.708081307211231
30
0
10
767.96089236627517
20
-79.123689622119258
30
0
10
770.6577784748979
20
-71.88597906050633
30
0
10
766.38871517785924
20
-70.104778895661724
30
0
10
765.11919904484216
20
-66.350474457030941
30
0
10
765.78076545240424
20
-62.393668260910289
30
0
10
761.55370913669276
20
-60.184247962320001
30
0
10
759.2130638900021
20
-56.234281653666955
30
0
10
751.62390426472371
20
-53.420205380551678
30
0
10
753.7123223808079
20
-60.737332556899126
30
0
10
746.82130160327858
20
-58.064347804094169
30
0
10
749.53997353306886
20
-66.235876075148809
30
0
10
744.92275517004441
20
-58.67746610320124
30
0
10
751.08065533700506
20
-59.207304319322525
30
0
10
752.55831300138937
20
-57.312809112676682
30
0
10
751.50719458360322
20
-52.337829737083439
30
0
10
751.63423171004763
20
-48.750806780241554
30
0
10
751.29017302644229
20
-44.479563439637744
30
0
10
756.31351460949088
20
-44.698907180110361
30
0
10
761.25546424560889
20
-46.34516815383094
30
0
10
761.26545051927587
20
-40.659242205696543
30
0
10
759.32159523868631
20
-33.321047501516084
30
0
10
751.48803290197088
20
-32.16929708168567
30
0
10
743.21402715904833
20
-34.631550023704079
30
0
10
739.01573166235949
20
-26.765878456808778
30
0
10
733.79039720427636
20
-28.88066605725249
30
0
10
735.95914877555151
20
-34.290664265135725
30
0
10
735.17291190205219
20
-37.673529049019301
30
0
10
730.29817309998475
20
-37.423391159300436
30
0
10
725.36640409146344
20
-36.286702228717346
30
0
10
726.65671487466921
20
-42.500101010338376
30
0
10
725.65670481250424
20
-50.074348682443599
30
0
10
738.51028037673495
20
-48.347607405193862
30
0
10
731.48795864069393
20
-58.741881989650594
30
0
10
742.56267594626422
20
-65.468254489376733
30
0
10
733.48965870230518
20
-63.391167312168605
30
0
10
735.97748432617891
20
-71.014542556037142
30
0
10
741.76802911263849
20
-73.847650892776912
30
0
10
736.90738482879851
20
-82.310942865387688
30
0
10
748.36368915125126
20
-89.453983445564376
30
0
10
746.49540322365442
20
-79.623533693646877
30
0
10
749.32140748802169
20
-84.699185330596336
30
0
10
749.00770472515637
20
-88.035766896820192
30
0
10
754.36730528357259
20
-91.197865814178243
30
0
10
758.52132173345558
20
-94.418726224433428
30
0
10
757.34831124460879
20
-101.1945470589513
30
0
10
754.01823281521024
20
-97.343921644028654
30
0
10
750.45004838446073
20
-94.304542305355909
30
0
10
746.39441620377215
20
-98.879514948438356
30
0
10
753.6671690977488
20
-103.93397070705944
30
0
10
757.79487373002598
20
-109.48291840770423
30
0
10
768.56471619656622
20
-106.59875263786788
30
0
10
766.55908043256079
20
-116.94644582477082
30
0
10
764.94353502801437
20
-125.30100155537822
30
0
10
777.96706895162424
20
-126.56680807344898
30
0
10
771.79944400311319
20
-126.28720885854705
30
0
10
769.51549124210715
20
-131.70443254078484
30
0
10
776.90995244196233
20
-135.82922834083629
30
0
10
780.39211166419091
20
-141.82379465134392
30
0
10
781.97765094501301
20
-147.06035541590629
30
0
10
783.92440795898449
20
-148.33154678344729
30
0
0
SPLINE
5
106
100
AcDbEntity
8
0
100
AcDbSpline
70
2
71
3
72
124
73
120
74
0
42
0.000000001
43
0.0000000001
44
0.0000000001
40
0
40
0
40
0
40
0
40
0.5279982675367717
40
1.0559965350735434
40
2.1119930701470868
40
2.6399913376838589
40
3.1679896052206304
40
3.695987872757402
40
4.2239861402941736
40
4.7519844078309461
40
5.2799826753677177
40
5.8079809429044893
40
6.3359792104412609
40
6.8639774779780325
40
7.3919757455148041
40
7.9199740130515757
40
8.4479722805883473
40
8.9759705481251189
40
9.5039688156618922
40
10.031967083198664
40
10.559965350735435
40
11.087963618272207
40
11.615961885808979
40
12.14396015334575
40
12.671958420882522
40
13.199956688419293
40
13.727954955956065
40
13.991954089724452
40
14.255953223492837
40
14.783951491029608
40
15.31194975856638
40
15.839948026103151
40
16.895944561176695
40
17.951941096250238
40
18.479939363787011
40
19.007937631323784
40
19.535935898860558
40
20.063934166397328
40
21.119930701470871
40
21.647928969007644
40
22.175927236544414
40
23.231923771617957
40
23.759922039154731
40
24.2879203066915
40
24.551919440459884
40
24.81591857422827
40
25.343916841765044
40
25.871915109301817
40
26.399913376838587
40
26.927911644375357
40
27.45590991191213
40
27.719909045680517
40
27.983908179448903
40
28.511906446985673
40
29.039904714522443
40
29.567902982059216
40
30.09590124959599
40
30.623899517132759
40
31.151897784669529
40
31.679896052206303
40
32.735892587279849
40
33.263890854816623
40
33.791889122353389
40
34.319887389890155
40
34.847885657426929
40
35.903882192500475
40
36.431880460037249
40
36.959878727574022
40
37.487876995110796
40
38.015875262647562
40
38.543873530184328
40
39.071871797721101
40
39.599870065257875
40
40.127868332794648
40
40.655866600331422
40
41.183864867868195
40
41.711863135404968
40
42.239861402941735
40
42.767859670478501
40
43.295857938015274
40
43.823856205552048
40
44.351854473088821
40
44.879852740625594
40
45.407851008162368
40
46.463847543235907
40
46.991845810772674
40
47.519844078309447
40
48.04784234584622
40
48.575840613382994
40
49.63183714845654
40
50.68783368353008
40
51.215831951066846
40
51.74383021860362
40
52.271828486140393
40
52.799826753677166
40
53.32782502121394
40
53.855823288750713
40
54.383821556287486
40
54.911819823824253
40
55.967816358897792
40
56.495814626434566
40
57.023812893971339
40
57.551811161508112
40
58.079809429044886
40
58.607807696581659
40
59.135805964118425
40
60.191802499191965
40
60.719800766728738
40
61.247799034265512
40
61.775797301802285
40
62.303795569339059
40
63.359792104412605
40
63.887790371949379
40
64.415788639486152
40
65.471785174559699
40
65.999783442096472
40
66.527781709633246
40
67.055779977170005
40
67.583778244706778
40
67.583778244706778
40
67.583778244706778
40
67.583778244706778
10
779.42436218261707
20
141.62212371826169
30
0
10
781.17002914714578
20
141.35565263795851
30
0
10
785.40451639857395
20
143.29822890584271
30
0
10
774.64980613147407
20
149.70002317498233
30
0
10
787.11247532070331
20
148.70702475461781
30
0
10
793.98569414591498
20
148.12119425869184
30
0
10
797.47228554156209
20
152.8386578646612
30
0
10
796.16110157492142
20
158.63522641523221
30
0
10
804.59243862751782
20
156.96718942689887
30
0
10
806.01035986944271
20
162.89785838074613
30
0
10
806.19273932956139
20
167.54056072715545
30
0
10
804.78846122067921
20
174.26602597140379
30
0
10
808.88047439968898
20
176.46582796599569
30
0
10
816.63286741612774
20
174.00722017211569
30
0
10
812.71157159911911
20
183.59232856488046
30
0
10
817.70623845279442
20
183.59603791422893
30
0
10
821.06473014100743
20
179.47819535899276
30
0
10
826.61569680469609
20
178.56275170957051
30
0
10
829.85849910373327
20
175.43595621933574
30
0
10
836.97814869459035
20
174.69049482291291
30
0
10
837.05225314035511
20
181.90528752292269
30
0
10
845.93870911004751
20
178.43548396437907
30
0
10
846.71296503290114
20
183.03475620377444
30
0
10
844.9404443942841
20
189.97204935781966
30
0
10
852.73370589367676
20
188.61499432435244
30
0
10
856.29859848081014
20
189.81972972425271
30
0
10
863.03357793730936
20
187.77226693745627
30
0
10
864.39046568689503
20
189.81521713371521
30
0
10
863.80172123252589
20
195.02121589243498
30
0
10
868.69854407513742
20
188.69646381738909
30
0
10
873.48163725934842
20
188.77656892537729
30
0
10
879.68073523130613
20
192.98281920061342
30
0
10
877.03311555709547
20
203.13130127709485
30
0
10
878.71258955656629
20
211.65735935562623
30
0
10
876.22746981403066
20
218.52655761151013
30
0
10
878.0919249362189
20
223.58805833011803
30
0
10
875.26414526494023
20
228.76964170357692
30
0
10
867.36972923538247
20
227.53571746661666
30
0
10
860.5102661362763
20
229.31920696840029
30
0
10
854.5425974486252
20
230.99427938571779
30
0
10
847.28842632803662
20
231.26935746543651
30
0
10
840.73399935603504
20
232.70420237152024
30
0
10
833.57462394910885
20
233.03146050697791
30
0
10
829.04071504491867
20
232.58191161528424
30
0
10
829.97942991684124
20
227.97474244678895
30
0
10
825.95909958407196
20
227.64194896343781
30
0
10
819.40782850177152
20
229.92418412787339
30
0
10
821.2132403376138
20
221.87531300868997
30
0
10
813.08644157758886
20
224.62360090599327
30
0
10
811.16994529689191
20
229.02774214952336
30
0
10
804.8795435081729
20
228.53728996937821
30
0
10
801.9282526988618
20
228.50176839227566
30
0
10
803.74655741996344
20
223.5139630630336
30
0
10
796.91266882422065
20
222.20052650543948
30
0
10
795.1325892720115
20
230.54244601580484
30
0
10
804.26531753622555
20
228.50753186771217
30
0
10
797.84200212745668
20
236.86750957244357
30
0
10
797.95144823545411
20
237.85929829003859
30
0
10
805.1727707125392
20
240.47580195793086
30
0
10
803.82019039983902
20
247.79970759089312
30
0
10
807.90680723403455
20
254.76919318176758
30
0
10
801.79122308379931
20
260.47098792959429
30
0
10
796.05932165822264
20
259.54368734289409
30
0
10
791.67214752359678
20
259.13400437948792
30
0
10
781.52811807376884
20
261.95128669971899
30
0
10
787.67867033428638
20
249.15025179315239
30
0
10
777.02147572670583
20
251.21384557914837
30
0
10
774.96679841587297
20
245.87056599407811
30
0
10
775.86100439612414
20
239.45309724093889
30
0
10
781.59682809408139
20
238.90911052644012
30
0
10
785.54748909536852
20
236.508585832427
30
0
10
776.41785608131067
20
237.32679259006065
30
0
10
770.73333546594745
20
239.04434652116902
30
0
10
770.40227795234262
20
231.95981355772722
30
0
10
776.26017760673858
20
230.10747837192326
30
0
10
774.8851715863043
20
221.35875803584844
30
0
10
774.92546420578446
20
231.65231792230168
30
0
10
768.52749099619643
20
233.94845800383564
30
0
10
765.90013878388208
20
230.58573205582988
30
0
10
766.92369229172186
20
224.83619190469054
30
0
10
772.71490666538875
20
219.38978347562119
30
0
10
764.80348929132549
20
219.29390195816453
30
0
10
759.0080918238059
20
220.40720286320638
30
0
10
756.52513097595659
20
215.05421432169379
30
0
10
759.12615060198073
20
205.87699657189717
30
0
10
767.35452065518973
20
207.43092118869095
30
0
10
769.77620928759097
20
201.41251856340264
30
0
10
776.8745098903612
20
202.77480125168404
30
0
10
774.41227592800601
20
192.93577877387702
30
0
10
759.04357361449092
20
201.54016265748322
30
0
10
764.15360901820463
20
186.94381835152222
30
0
10
772.07317908458219
20
190.38915312617732
30
0
10
776.89044708877896
20
187.05160038965803
30
0
10
774.24554008990754
20
181.6981409685157
30
0
10
777.12874101107229
20
174.48258046043915
30
0
10
771.00399693409372
20
174.73444157660438
30
0
10
765.96686829168334
20
173.70974526062983
30
0
10
760.25226589651902
20
174.41197901092121
30
0
10
758.45541713982993
20
182.42471088858014
30
0
10
762.11503636081591
20
189.20159784188957
30
0
10
759.32879409000577
20
195.47384376381245
30
0
10
751.77622312433823
20
195.93238827469378
30
0
10
754.94334878405061
20
186.15822853361936
30
0
10
748.27674247135201
20
190.82391268753986
30
0
10
746.42356955648268
20
194.84757449784189
30
0
10
737.55983011925309
20
199.436165902798
30
0
10
739.64002765323789
20
188.40691199550974
30
0
10
740.13039584442572
20
182.00139613493099
30
0
10
741.20097427436963
20
176.998783503395
30
0
10
739.8834539168306
20
170.78779526072682
30
0
10
750.78540343562565
20
172.8657441865515
30
0
10
747.45963075872419
20
160.10722679260601
30
0
10
758.10103362979407
20
163.19010576003592
30
0
10
757.03625370687519
20
154.05132384009215
30
0
10
756.32570433965395
20
145.66592822456707
30
0
10
764.58967443113704
20
145.85640867450417
30
0
10
769.28009663000807
20
143.70689447788547
30
0
10
774.9305146114018
20
144.89705538766185
30
0
10
777.67869521808836
20
141.88859479856487
30
0
10
779.42436218261707
20
141.62212371826169
30
0
0
SPLINE
5
107
100
AcDbEntity
8
0
100
AcDbSpline
70
2
71
3
72
66
73
62
74
0
42
0.000000001
43
0.0000000001
44
0.0000000001
40
0
40
0
40
0
40
0
40
0.95014639976273751
40
1.4252195996441062
40
1.6627561995847906
40
1.900292799525475
40
2.1378293994661597
40
2.3753659994068439
40
2.8504391992882123
40
3.3255123991695812
40
3.8005855990509501
40
4.2756587989323194
40
4.7507319988136878
40
5.2258051986950562
40
5.7008783985764246
40
6.1759515984577931
40
6.6510247983391624
40
7.1260979982205317
40
7.6011711981019001
40
8.0762443979832703
40
8.5513175978646387
40
9.5014639976273756
40
9.976537197508744
40
10.451610397390112
40
10.926683597271481
40
11.164220197212165
40
11.401756797152849
40
11.876829997034218
40
12.351903196915586
40
12.826976396796955
40
13.302049596678325
40
14.252195996441063
40
15.2023423962038
40
15.67741559608517
40
16.152488795966541
40
16.627561995847909
40
17.102635195729277
40
17.577708395610646
40
18.052781595492014
40
19.002927995254751
40
19.47800119513612
40
19.953074395017488
40
20.428147594898856
40
20.903220794780225
40
21.378293994661593
40
21.853367194542962
40
22.32844039442433
40
22.803513594305699
40
23.753659994068435
40
24.228733193949804
40
24.703806393831172
40
25.178879593712541
40
25.653952793593909
40
26.129025993475281
40
26.60409919335665
40
27.079172393238018
40
27.55424559311939
40
28.504391992882127
40
29.454538392644864
40
29.929611592526232
40
30.4046847924076
40
30.4046847924076
40
30.4046847924076
40
30.4046847924076
10
1305.924377441406
20
-148.32438468933105
30
0
10
1308.9058404193092
20
-149.55830378204303
30
0
10
1313.6278312793206
20
-147.96512085115518
30
0
10
1319.5203732487028
20
-148.53792444136459
30
0
10
1323.3571393971301
20
-149.01808616373157
30
0
10
1322.9337836874768
20
-146.184782828583
30
0
10
1323.1172844080527
20
-143.75821360497733
30
0
10
1328.2642817851163
20
-144.93794579573776
30
0
10
1326.2513258478925
20
-138.96693839943475
30
0
10
1332.4959321870065
20
-139.72971538588968
30
0
10
1337.1984949981238
20
-138.50708075173469
30
0
10
1340.5347520709356
20
-143.73500701127534
30
0
10
1344.1848850184354
20
-143.63491648499738
30
0
10
1351.1721605264379
20
-145.32669290539087
30
0
10
1350.0324243107682
20
-139.37088710160592
30
0
10
1349.7345729501585
20
-134.33634973876309
30
0
10
1356.5860241635435
20
-134.66534981242415
30
0
10
1358.6328958649287
20
-139.90253427199025
30
0
10
1363.6684307548401
20
-139.56940876248981
30
0
10
1368.652892636004
20
-138.79578653850038
30
0
10
1373.344465698008
20
-143.63762048127779
30
0
10
1377.0822170092511
20
-149.11005262234178
30
0
10
1384.6474600454212
20
-147.34377085304541
30
0
10
1383.3765489437046
20
-141.47713847195217
30
0
10
1386.3455139137291
20
-138.57412917570093
30
0
10
1385.3494749272568
20
-134.47711404495209
30
0
10
1388.7658588255945
20
-134.40586769506396
30
0
10
1387.0197402214592
20
-128.19615738035927
30
0
10
1390.1952487125889
20
-125.0154676806558
30
0
10
1391.198943700447
20
-119.8570068809393
30
0
10
1383.7408429882935
20
-116.62324405604616
30
0
10
1375.3489180037691
20
-119.33256626485367
30
0
10
1372.8324495176557
20
-110.56077095252661
30
0
10
1363.8451827128554
20
-107.72504380496531
30
0
10
1365.9706641963003
20
-115.83639136561395
30
0
10
1359.5833043316129
20
-109.14593904848319
30
0
10
1358.3791728046581
20
-105.9026938639761
30
0
10
1356.7101164450482
20
-99.788578838271732
30
0
10
1349.4766989793973
20
-101.21787353303699
30
0
10
1345.1323278722705
20
-95.062618165326697
30
0
10
1345.4286087401408
20
-87.975931194800054
30
0
10
1340.1422862241516
20
-86.488515015841443
30
0
10
1334.8067407052358
20
-87.233741294670438
30
0
10
1333.1188873058684
20
-92.173115656849888
30
0
10
1326.8449966730439
20
-90.764244106714216
30
0
10
1324.3861672800392
20
-95.630977057666655
30
0
10
1325.4029125338056
20
-100.82404673839675
30
0
10
1317.8971564975325
20
-103.10092136153128
30
0
10
1311.7711329115655
20
-101.83829811350201
30
0
10
1306.2377679613569
20
-104.2143678009014
30
0
10
1307.0960548720959
20
-110.23457120315572
30
0
10
1301.2664014037671
20
-110.30847033675742
30
0
10
1295.8536038735929
20
-113.46916406908349
30
0
10
1304.3373770832086
20
-117.91106970600865
30
0
10
1295.2526876454442
20
-118.33204560577875
30
0
10
1292.7642202804809
20
-118.84645461764248
30
0
10
1292.283975718037
20
-127.86525322739281
30
0
10
1299.7659875297591
20
-131.21972214539886
30
0
10
1302.663098984458
20
-138.62459813053221
30
0
10
1301.5354484389372
20
-145.32548552694442
30
0
10
1304.4336459524543
20
-147.70742514297504
30
0
10
1305.924377441406
20
-148.32438468933105
30
0
0
SPLINE
5
108
100
AcDbEntity
8
0
100
AcDbSpline
70
2
71
3
72
112
73
108
74
0
42
0.000000001
43
0.0000000001
44
0.0000000001
40
0
40
0
40
0
40
0
40
0.54786372391060101
40
1.095727447821202
40
1.643591171731803
40
2.191454895642404
40
2.7393186195530053
40
3.287182343463606
40
3.8350460673742068
40
4.3829097912848081
40
4.9307735151954093
40
5.4786372391060105
40
6.0265009630166109
40
6.5743646869272121
40
7.1222284108378133
40
7.6700921347484137
40
7.9440239967037138
40
8.217955858659014
40
8.7658195825696161
40
9.3136833064802182
40
9.8615470303908186
40
10.957274478212021
40
11.505138202122621
40
12.053001926033222
40
12.600865649943824
40
13.148729373854424
40
14.244456821675627
40
14.792320545586227
40
15.340184269496827
40
15.888047993407428
40
16.435911717318028
40
17.531639165139232
40
19.723094060781637
40
20.818821508602838
40
21.914548956424042
40
22.462412680334644
40
23.010276404245243
40
23.558140128155841
40
24.106003852066443
40
25.201731299887648
40
25.74959502379825
40
26.297458747708848
40
26.845322471619447
40
27.393186195530049
40
27.941049919440651
40
28.488913643351253
40
29.036777367261855
40
29.584641091172454
40
30.132504815083053
40
30.680368538993655
40
31.228232262904257
40
31.776095986814855
40
32.323959710725454
40
32.871823434636056
40
33.419687158546658
40
33.96755088245726
40
34.515414606367862
40
34.78934646832316
40
35.063278330278465
40
36.159005778099669
40
36.706869502010271
40
37.254733225920873
40
37.802596949831475
40
38.350460673742077
40
38.898324397652672
40
39.446188121563274
40
39.994051845473876
40
40.267983707429174
40
40.541915569384471
40
40.815847431339776
40
41.089779293295074
40
41.637643017205676
40
42.185506741116278
40
42.73337046502688
40
43.829097912848084
40
44.924825360669288
40
46.020552808490493
40
46.568416532401095
40
47.116280256311697
40
47.664143980222292
40
48.212007704132894
40
49.307735151954091
40
50.403462599775295
40
50.951326323685898
40
51.4991900475965
40
52.047053771507102
40
52.594917495417704
40
54.786372391060112
40
56.977827286702514
40
59.169282182344915
40
59.717145906255517
40
60.265009630166119
40
60.812873354076721
40
61.360737077987324
40
61.908600801897926
40
62.456464525808528
40
63.004328249719123
40
63.552191973629725
40
64.100055697540327
40
64.647919421450922
40
65.195783145361531
40
65.743646869272126
40
66.839374317093331
40
67.935101764914521
40
68.48296548882513
40
69.030829212735725
40
70.126556660556929
40
70.126556660556929
40
70.126556660556929
40
70.126556660556929
10
1004.4243621826172
20
529.08355712890625
30
0
10
1006.1994942095407
20
528.43826910791552
30
0
10
1010.1116915450235
20
527.87417766155272
30
0
10
1014.461721909445
20
531.16622718776023
30
0
10
1018.1538534919987
20
524.57179559473207
30
0
10
1024.3682320410235
20
526.24711628690932
30
0
10
1029.346781388911
20
527.66153115124303
30
0
10
1034.9765584829906
20
527.6904331006474
30
0
10
1040.1089596280631
20
528.57126875523829
30
0
10
1041.9801958045114
20
534.60611747039286
30
0
10
1047.0544425838032
20
536.21663140259261
30
0
10
1052.8777742378159
20
534.70188971476944
30
0
10
1057.268881822047
20
538.18296643671158
30
0
10
1055.8131469775631
20
544.12147687366985
30
0
10
1057.3019155276193
20
549.20088123040091
30
0
10
1058.0224010265513
20
554.17087174245876
30
0
10
1062.8471956519516
20
554.33066747072519
30
0
10
1063.843390248679
20
557.99925407176079
30
0
10
1066.82825586741
20
561.83631932231697
30
0
10
1072.9574267912672
20
560.46423659305822
30
0
10
1079.0672298315815
20
564.35559292168273
30
0
10
1083.4265199721872
20
570.47435637857927
30
0
10
1083.1689493991605
20
578.74025985285709
30
0
10
1088.5702708627757
20
580.88915625866139
30
0
10
1091.7933509955096
20
586.85918697619206
30
0
10
1082.0665843078468
20
588.3358367638624
30
0
10
1084.1776626360499
20
599.86677385454732
30
0
10
1074.5737391924633
20
599.19522891785323
30
0
10
1075.0439731326046
20
606.29207517570308
30
0
10
1074.4871365670774
20
611.35554956302826
30
0
10
1070.0245287468915
20
617.82143649933255
30
0
10
1077.4820113101871
20
630.63339105311195
30
0
10
1075.5354812224286
20
645.17281730513332
30
0
10
1075.6322105779386
20
659.53977894271998
30
0
10
1078.0828037971287
20
669.17196821611799
30
0
10
1074.1430318881569
20
675.35850169545415
30
0
10
1074.4546958332096
20
682.35850224221622
30
0
10
1067.1938066132936
20
682.00530600075467
30
0
10
1065.891326414355
20
690.22050580612199
30
0
10
1057.7032004589712
20
691.77431877878621
30
0
10
1053.5408577841015
20
698.51894641504805
30
0
10
1047.3812722530802
20
698.03739237619834
30
0
10
1044.3211231950736
20
703.48757777652531
30
0
10
1039.3787349201152
20
706.03995419624198
30
0
10
1034.2200530029934
20
707.45792028972403
30
0
10
1029.6056246032756
20
710.70172028152024
30
0
10
1024.6744026160213
20
711.124324410486
30
0
10
1021.9291778991419
20
717.8143619685635
30
0
10
1015.4056804424687
20
713.01373803829551
30
0
10
1010.7652795403758
20
716.72649419738514
30
0
10
1004.2371173103733
20
715.14851793688092
30
0
10
1002.1900456626579
20
721.81486833759675
30
0
10
997.61901085467741
20
723.48438917513533
30
0
10
991.73068244139495
20
723.70449349397416
30
0
10
986.46906227328918
20
720.91447691446433
30
0
10
981.53655239991485
20
724.09977869358272
30
0
10
976.66878834515512
20
724.36754533249359
30
0
10
976.22220812568173
20
719.77670588833848
30
0
10
970.6535783127207
20
717.50173376949147
30
0
10
964.34740315230079
20
717.71235276618108
30
0
10
958.70443815911926
20
712.90012885401461
30
0
10
957.40601895660029
20
706.61770714700947
30
0
10
950.22990874408265
20
708.67359786083193
30
0
10
947.02337143294767
20
702.93564022973567
30
0
10
940.62921059024848
20
704.73942466104916
30
0
10
937.29617057118412
20
698.56756970521383
30
0
10
932.0997119527766
20
700.94884998449118
30
0
10
929.07938835670859
20
697.16086394367994
30
0
10
926.40392310792913
20
698.60554357758519
30
0
10
924.26865080993377
20
701.64167397085646
30
0
10
923.09559864387052
20
694.41129888364117
30
0
10
922.92243045860778
20
704.08810248390853
30
0
10
916.82859479713727
20
704.40437458843121
30
0
10
910.76207033726701
20
707.25647985986143
30
0
10
900.05593695189702
20
704.22877469621642
30
0
10
899.96106083146572
20
691.59021599008508
30
0
10
900.49794841236348
20
683.59637496465575
30
0
10
906.3916376247555
20
675.97663187079706
30
0
10
902.50821176385716
20
672.4717109627818
30
0
10
902.92264894589175
20
666.70288946412211
30
0
10
899.5266130674222
20
660.20936640452555
30
0
10
900.53512449670598
20
650.60899948149211
30
0
10
896.61387374757146
20
642.21243018481232
30
0
10
897.60053513068272
20
634.63915749243552
30
0
10
893.85434133647493
20
629.88204617913311
30
0
10
896.83026292101522
20
624.60053831436699
30
0
10
896.11515388916519
20
613.61985790811116
30
0
10
896.1606578804151
20
597.22972451442433
30
0
10
898.7082158329722
20
575.20394838979075
30
0
10
901.5492478702397
20
560.11872748164478
30
0
10
908.08310499949027
20
549.42471129423438
30
0
10
913.35416867919378
20
549.26296214829665
30
0
10
919.10626941641897
20
547.7483962475028
30
0
10
921.53903309697955
20
542.01743837968593
30
0
10
927.75470474256906
20
541.99939261500151
30
0
10
930.97586911937697
20
536.64238146288824
30
0
10
936.53939779914481
20
537.24167174973945
30
0
10
941.18608867160788
20
533.36730519788011
30
0
10
946.70365514286664
20
536.10958247394024
30
0
10
951.84811159520802
20
533.23038946177121
30
0
10
957.41870628802815
20
532.69667702545303
30
0
10
964.15906570853554
20
535.51592878282042
30
0
10
973.30542057282685
20
536.39491960758266
30
0
10
982.54067034664388
20
536.22921384233041
30
0
10
988.81468205590272
20
533.28994476338619
30
0
10
996.63450189290461
20
534.48945102071559
30
0
10
1000.8740981287697
20
530.37413317088772
30
0
10
1004.4243621826172
20
529.08355712890625
30
0
0
SPLINE
5
109
100
AcDbEntity
8
0
100
AcDbSpline
70
2
71
3
72
103
73
99
74
0
42
0.000000001
43
0.0000000001
44
0.0000000001
40
0
40
0
40
0
40
0
40
0.95280045365417321
40
1.9056009073083464
40
2.8584013609625196
40
3.8112018146166928
40
4.7640022682708665
40
5.2404024950979533
40
5.7168027219250392
40
6.669603175579212
40
7.6224036292333857
40
8.0988038560604725
40
8.5752040828875593
40
9.528004536541733
40
10.00440476336882
40
10.480804990195907
40
10.957205217022992
40
11.433605443850078
40
12.38640589750425
40
12.862806124331337
40
13.339206351158424
40
13.815606577985511
40
14.292006804812598
40
14.768407031639684
40
15.244807258466771
40
16.197607712120945
40
16.67400793894803
40
17.150408165775119
40
17.626808392602207
40
18.103208619429292
40
19.056009073083466
40
20.00880952673764
40
20.485209753564725
40
20.961609980391813
40
21.914410434045983
40
22.390810660873072
40
22.867210887700157
40
23.343611114527242
40
23.820011341354331
40
24.058211454767871
40
24.296411568181416
40
24.772811795008501
40
25.249212021835589
40
25.725612248662674
40
26.678412702316848
40
27.631213155971022
40
28.584013609625195
40
30.489614516933543
40
31.442414970587716
40
32.39521542424189
40
32.871615651068979
40
33.34801587789606
40
33.824416104723149
40
34.300816331550237
40
34.777216558377326
40
35.253616785204414
40
36.206417238858585
40
37.159217692512755
40
37.635617919339843
40
38.112018146166932
40
39.064818599821109
40
40.017619053475279
40
40.494019280302368
40
40.970419507129449
40
41.446819733956538
40
41.923219960783626
40
42.399620187610715
40
42.876020414437804
40
43.352420641264885
40
43.828820868091974
40
44.781621321746144
40
45.258021548573232
40
45.734421775400321
40
46.21082200222741
40
46.687222229054498
40
47.640022682708668
40
48.116422909535757
40
48.592823136362838
40
49.069223363189927
40
49.545623590017016
40
50.022023816844104
40
50.498424043671193
40
50.974824270498274
40
51.451224497325363
40
52.404024950979533
40
53.35682540463371
40
53.833225631460792
40
54.30962585828788
40
54.786026085114969
40
55.26242631194205
40
55.738826538769139
40
56.215226765596228
40
57.168027219250398
40
57.644427446077486
40
58.120827672904568
40
59.073628126558745
40
60.026428580212915
40
60.979229033867085
40
60.979229033867085
40
60.979229033867085
40
60.979229033867085
10
1395.9243774414062
20
220.95579147338867
30
0
10
1398.3928301593014
20
219.03857202064276
30
0
10
1407.8672551390889
20
220.21513812283735
30
0
10
1405.8845144041882
20
232.09197821337949
30
0
10
1406.3979123553204
20
240.33668317799362
30
0
10
1406.5385669491545
20
252.62608950373016
30
0
10
1394.5476870733776
20
249.55286567934405
30
0
10
1394.613520048895
20
257.6764493315253
30
0
10
1392.3733961776998
20
263.16206249537163
30
0
10
1393.3961173450623
20
272.0156378938679
30
0
10
1387.2952900579005
20
277.97609344333284
30
0
10
1380.7576890786563
20
278.38225857384458
30
0
10
1376.5773213600573
20
283.83740253250841
30
0
10
1373.1940929090542
20
288.71375366304005
30
0
10
1371.3154786305549
20
294.36092568436862
30
0
10
1370.693102732761
20
300.62467986338385
30
0
10
1364.2372731209796
20
299.55162467338238
30
0
10
1363.9899124357107
20
306.14033315695303
30
0
10
1359.6759363727094
20
311.92615597067538
30
0
10
1353.5405301937612
20
314.26486755589076
30
0
10
1350.0359765143787
20
314.98042533779346
30
0
10
1350.4445404607973
20
321.40376431200389
30
0
10
1346.3907402950597
20
324.29890783681748
30
0
10
1345.9060565616855
20
329.44309540808911
30
0
10
1339.7203553826812
20
333.08075493627308
30
0
10
1339.8744312426688
20
339.87998263490425
30
0
10
1337.6655153559409
20
346.56187067234691
30
0
10
1331.702935458663
20
345.4628648837936
30
0
10
1331.7029725138491
20
352.06638668485647
30
0
10
1329.2429461962292
20
357.44157563329304
30
0
10
1324.9843221866579
20
364.45878022709769
30
0
10
1322.6896055966217
20
371.93349325523081
30
0
10
1319.0946490775252
20
377.63744706800367
30
0
10
1311.8400041393907
20
375.9731909373462
30
0
10
1305.7333347681079
20
376.6224622901143
30
0
10
1300.6044175229167
20
380.50350902914801
30
0
10
1295.4275073368162
20
379.96629968913919
30
0
10
1291.4763206864493
20
381.62661082476779
30
0
10
1286.6046005218152
20
381.90840862379616
30
0
10
1283.461163685954
20
381.7573331446049
30
0
10
1284.3446414311379
20
377.22549337221523
30
0
10
1281.1162221378836
20
376.97034635617524
30
0
10
1274.3568301131838
20
376.55745171099221
30
0
10
1277.9952262895213
20
368.95520806628338
30
0
10
1273.3624095094415
20
360.32999285121582
30
0
10
1263.5454799167896
20
367.46662613517253
30
0
10
1252.114077880527
20
373.17099557529605
30
0
10
1239.3429368221266
20
363.76230594479932
30
0
10
1241.0953256403363
20
350.28203440659246
30
0
10
1241.8296598293603
20
342.98369767108824
30
0
10
1241.0302164836462
20
335.95643945889441
30
0
10
1244.1649464499662
20
332.8437869088674
30
0
10
1249.3277894137545
20
332.00324365470664
30
0
10
1252.1130602346418
20
328.18876495193075
30
0
10
1257.1071413192474
20
329.6442544417273
30
0
10
1263.2894563771633
20
328.99815575290177
30
0
10
1271.9197000267218
20
329.93065305855941
30
0
10
1277.5546550940019
20
324.07934539941027
30
0
10
1284.5797258042683
20
323.98168696407362
30
0
10
1285.4996666604789
20
315.84295869020696
30
0
10
1294.939919422432
20
314.73019280028831
30
0
10
1301.5058451659188
20
315.41426807655881
30
0
10
1306.3298590353108
20
307.19488086207144
30
0
10
1304.1291385281129
20
305.07115310934819
30
0
10
1302.2962958447056
20
299.45211322373979
30
0
10
1295.2887553967821
20
300.91696759481556
30
0
10
1294.7594616056763
20
296.29571497796263
30
0
10
1292.0054693099314
20
292.19753877469844
30
0
10
1293.9188650212668
20
286.30585560696409
30
0
10
1284.3341716693405
20
286.23853990226161
30
0
10
1293.8380265433593
20
279.00444826750845
30
0
10
1294.3114120240466
20
272.46310540964737
30
0
10
1298.446425524683
20
270.17098779523803
30
0
10
1303.0148097886058
20
268.63750374256631
30
0
10
1303.3683840494405
20
261.69411826442905
30
0
10
1305.5142751511953
20
253.9653518989798
30
0
10
1313.2675379244806
20
258.27064426873824
30
0
10
1317.8901581663561
20
252.15871461722574
30
0
10
1311.6516249099304
20
251.47013805253579
30
0
10
1310.7947458400004
20
247.68062408759528
30
0
10
1311.4108907635518
20
242.53700754644061
30
0
10
1310.41932855146
20
237.78099810101767
30
0
10
1314.2966032900708
20
233.42265877286823
30
0
10
1321.1747556710184
20
234.80884729922082
30
0
10
1326.9698315772623
20
231.94417120404904
30
0
10
1335.023672771068
20
221.64309179322927
30
0
10
1336.2927496185353
20
230.66790959313317
30
0
10
1343.6725110903049
20
228.767192555696
30
0
10
1341.5053647473883
20
236.0992158649708
30
0
10
1345.7973061529287
20
238.78923968068264
30
0
10
1350.3202311676578
20
236.06160457324512
30
0
10
1356.8653920511651
20
237.24492601273488
30
0
10
1362.2789041600845
20
233.1726404948181
30
0
10
1369.2540451164182
20
234.51172779205027
30
0
10
1373.2515814114436
20
227.97940205621475
30
0
10
1381.5294906918239
20
229.59878761354582
30
0
10
1393.0565388317182
20
231.71845483931261
30
0
10
1393.4559247235111
20
222.87301092613455
30
0
10
1395.9243774414062
20
220.95579147338867
30
0
0
SPLINE
5
110
100
AcDbEntity
8
0
100
AcDbSpline
70
2
71
3
72
28
73
24
74
0
42
0.000000001
43
0.0000000001
44
0.0000000001
40
0
40
0
40
0
40
0
40
0.80317888478327326
40
1.6063577695665465
40
2.4095366543498198
40
3.212715539133093
40
4.0158944239163663
40
4.8190733086996396
40
5.6222521934829128
40
6.4254310782661861
40
6.8270205206578227
40
7.2286099630494594
40
7.630199405441096
40
8.0317888478327326
40
8.4333782902243684
40
8.8349677326160059
40
9.6381466173992791
40
10.441325502182552
40
10.84291494457419
40
11.244504386965826
40
11.646093829357461
40
12.047683271749099
40
12.850862156532372
40
12.850862156532372
40
12.850862156532372
40
12.850862156532372
10
1283.424377441406
20
-170.76585769653317
30
0
10
1285.5449685006568
20
-171.8356494397762
30
0
10
1292.2685934169949
20
-171.803746525614
30
0
10
1297.4486764089954
20
-166.03166286278207
30
0
10
1295.8998704207124
20
-157.26878607038768
30
0
10
1296.342444604873
20
-149.90553639845538
30
0
10
1295.9541404098832
20
-139.94091632275487
30
0
10
1285.5599733107554
20
-141.41170584150311
30
0
10
1282.2530717819691
20
-132.66170965627782
30
0
10
1272.4940914569593
20
-132.43483019715876
30
0
10
1274.5474641981637
20
-139.58285790538906
30
0
10
1270.1015341488876
20
-141.20068023614363
30
0
10
1265.7854405407238
20
-140.62087637061202
30
0
10
1263.6596252422278
20
-144.31363491607684
30
0
10
1263.4432164822188
20
-148.17723567900853
30
0
10
1261.4981693728096
20
-152.68947183044187
30
0
10
1272.2020272111224
20
-153.45262269240413
30
0
10
1276.8125986425953
20
-151.32635308331709
30
0
10
1284.128664489863
20
-157.01559470250086
30
0
10
1282.3362480127635
20
-158.06850778910106
30
0
10
1277.991966523668
20
-159.26707350156391
30
0
10
1279.984731891657
20
-166.46276353793937
30
0
10
1281.3037863821551
20
-169.69606595329012
30
0
10
1283.424377441406
20
-170.76585769653317
30
0
0
SPLINE
5
111
100
AcDbEntity
8
0
100
AcDbSpline
70
2
71
3
72
25
73
21
74
0
42
0.000000001
43
0.0000000001
44
0.0000000001
40
0
40
0
40
0
40
0
40
0.44653026880046759
40
0.89306053760093518
40
1.3395908064014028
40
1.7861210752018704
40
2.2326513440023379
40
2.6791816128028056
40
3.125711881603273
40
3.5722421504037407
40
5.3583632256056113
40
6.2514237632065459
40
7.1444843008074814
40
8.0375448384084169
40
8.9306053760093516
40
9.823665913610288
40
10.716726451211223
40
12.502847526413092
40
13.395908064014026
40
14.288968601614963
40
14.288968601614963
40
14.288968601614963
40
14.288968601614963
10
1400.4243469238279
20
-70.276050567626953
30
0
10
1401.568601525159
20
-70.50108899937824
30
0
10
1404.9468407956124
20
-69.122639176782712
30
0
10
1409.3136602349043
20
-69.559306802521235
30
0
10
1413.0269298994178
20
-66.969024705020786
30
0
10
1418.5728239302616
20
-67.989084690271241
30
0
10
1417.149255554066
20
-61.172717479163587
30
0
10
1425.5046972677778
20
-64.270006352410704
30
0
10
1425.8158917060159
20
-60.25600502437166
30
0
10
1430.759464519941
20
-52.673155380434281
30
0
10
1431.9351805229403
20
-42.097206787689522
30
0
10
1433.2347801977608
20
-30.178161698696453
30
0
10
1427.4716864514353
20
-21.349133490162036
30
0
10
1417.6338754872522
20
-24.923838628375652
30
0
10
1409.3768427839725
20
-25.695159442877159
30
0
10
1399.405495236098
20
-26.538059440231251
30
0
10
1396.73461714464
20
-39.253171199723809
30
0
10
1395.1719648508861
20
-51.140179760547937
30
0
10
1397.9177395870092
20
-61.611713232726828
30
0
10
1398.1358377211659
20
-69.82597370412438
30
0
10
1400.4243469238279
20
-70.276050567626953
30
0
0
SPLINE
5
112
100
AcDbEntity
8
0
100
AcDbSpline
70
2
71
3
72
20
73
16
74
0
42
0.000000001
43
0.0000000001
44
0.0000000001
40
0
40
0
40
0
40
0
40
0.52843655099682729
40
1.0568731019936546
40
2.1137462039873092
40
2.6421827549841366
40
3.1706193059809635
40
3.6990558569777909
40
4.2274924079746183
40
4.7559289589714453
40
5.2843655099682731
40
6.3412386119619271
40
7.3981117139555819
40
7.9265482649524088
40
8.4549848159492367
40
8.4549848159492367
40
8.4549848159492367
40
8.4549848159492367
10
1341.9244384765627
20
-44.006943702697754
30
0
10
1343.0291964779535
20
-45.019297801496023
30
0
10
1348.1187510589593
20
-44.393451149592153
30
0
10
1347.4160223747449
20
-36.057314581465938
30
0
10
1345.9699747318475
20
-29.739130881092063
30
0
10
1346.4476126241366
20
-22.51479204171472
30
0
10
1343.3360366290403
20
-17.783885519260739
30
0
10
1338.5533220080695
20
-14.918871399694407
30
0
10
1339.1436379656548
20
-8.2916756381668222
30
0
10
1334.1300979828266
20
-6.9498116012839253
30
0
10
1334.4867434231664
20
-16.168351810332481
30
0
10
1335.6799396104334
20
-23.534867546436384
30
0
10
1337.6279280955059
20
-32.761951951793485
30
0
10
1341.4902030506139
20
-38.319326556802523
30
0
10
1340.8196804751719
20
-42.994589603899485
30
0
10
1341.9244384765627
20
-44.006943702697754
30
0
0
SPLINE
5
113
100
AcDbEntity
8
0
100
AcDbSpline
70
2
71
3
72
27
73
23
74
0
42
0.000000001
43
0.0000000001
44
0.0000000001
40
0
40
0
40
0
40
0
40
0.69101813084031105
40
1.3820362616806221
40
2.7640725233612442
40
3.1095815887814
40
3.4550906542015554
40
3.8005997196217107
40
4.1461087850418661
40
4.4916178504620214
40
4.8371269158821768
40
5.5281450467224884
40
6.2191631775628
40
6.5646722429829554
40
6.9101813084031107
40
7.6011994392434215
40
8.2922175700837322
40
8.9832357009240429
40
9.6742538317643536
40
10.01976289718451
40
10.365271962604666
40
11.056290093444977
40
11.056290093444977
40
11.056290093444977
40
11.056290093444977
10
1224.9243927001955
20
380.18661499023443
30
0
10
1226.6973161094029
20
379.99966685686155
30
0
10
1230.8071167377536
20
385.07343983822551
30
0
10
1221.4226770046146
20
391.28706526309259
30
0
10
1225.0969038716746
20
404.7073411582578
30
0
10
1216.2818213255193
20
402.98433535099514
30
0
10
1215.0133951791017
20
406.58175206418025
30
0
10
1215.596383043903
20
410.0567711310311
30
0
10
1212.3734725077545
20
412.27693868686845
30
0
10
1211.6144931704525
20
416.34967326647347
30
0
10
1206.1995370118623
20
414.22974045968596
30
0
10
1199.5114233560405
20
416.6231683342906
30
0
10
1199.77103902315
20
407.91273605602771
30
0
10
1194.5431695878294
20
406.85343746076228
30
0
10
1193.7205448733025
20
401.55074878905077
30
0
10
1197.5052103633179
20
397.08210327778249
30
0
10
1201.5315259475151
20
390.18349308536858
30
0
10
1209.852635395715
20
393.32303665108088
30
0
10
1213.5389118226562
20
388.83197524032261
30
0
10
1215.5496928311263
20
383.97209594531836
30
0
10
1220.9150495346282
20
384.73973725974878
30
0
10
1223.151469290988
20
380.37356312360725
30
0
10
1224.9243927001955
20
380.18661499023443
30
0
0
SPLINE
5
114
100
AcDbEntity
8
0
100
AcDbSpline
70
2
71
3
72
26
73
22
74
0
42
0.000000001
43
0.0000000001
44
0.0000000001
40
0
40
0
40
0
40
0
40
1.257582099763376
40
1.5719776247042199
40
1.886373149645064
40
2.2007686745859081
40
2.515164199526752
40
3.1439552494084397
40
3.7727462992901279
40
4.0871418242309723
40
4.4015373491718162
40
5.0303283990535039
40
5.6591194489351917
40
6.2879104988168795
40
6.9167015486985672
40
7.2310970736394111
40
7.5454925985802559
40
7.8598881235211007
40
8.1742836484619446
40
8.8030746983436323
40
10.060656798107008
40
10.060656798107008
40
10.060656798107008
40
10.060656798107008
10
725.42442321777344
20
216.27422332763675
30
0
10
728.366038533503
20
215.22501409801549
30
0
10
733.48109333704986
20
217.28243236425894
30
0
10
742.17947895281884
20
214.85039983536217
30
0
10
743.32317030650711
20
216.81531586963561
30
0
10
742.39563975789099
20
221.04847850113796
30
0
10
749.23075420144573
20
219.3759965391701
30
0
10
746.6214016217491
20
227.37203152130544
30
0
10
746.48013045254993
20
231.3272860767986
30
0
10
745.35704537994866
20
235.8309369110957
30
0
10
748.92439954887993
20
239.25301376554646
30
0
10
738.83687857146697
20
244.77618345301326
30
0
10
741.29547117965171
20
235.46201352810482
30
0
10
731.53691912015063
20
238.05580542712181
30
0
10
728.30709363579115
20
236.34594195201333
30
0
10
721.9834578581706
20
238.24116367574334
30
0
10
721.89553876578157
20
235.08807675040032
30
0
10
721.1976807470694
20
232.32691251827936
30
0
10
714.87980647166614
20
233.33861600308208
30
0
10
719.79602771911118
20
222.93996216561391
30
0
10
722.48280790204376
20
217.323432557258
30
0
10
725.42442321777344
20
216.27422332763675
30
0
0
SPLINE
5
115
100
AcDbEntity
8
0
100
AcDbSpline
70
2
71
3
72
37
73
33
74
0
42
0.000000001
43
0.0000000001
44
0.0000000001
40
0
40
0
40
0
40
0
40
0.43687640130494504
40
0.87375280260989008
40
1.3106292039148351
40
1.7475056052197802
40
2.6212584078296701
40
3.4950112104395603
40
3.9318876117445054
40
4.3687640130494501
40
4.8056404143543947
40
5.2425168156593402
40
5.6793932169642858
40
6.1162696182692304
40
6.5531460195741751
40
6.9900224208791206
40
7.4268988221840662
40
7.8637752234890108
40
8.3006516247939555
40
8.7375280260989001
40
9.1744044274038448
40
9.6112808287087894
40
10.048157230013736
40
10.48503363131868
40
10.921910032623625
40
11.358786433928572
40
11.795662835233516
40
12.232539236538461
40
12.669415637843406
40
13.10629203914835
40
13.543168440453297
40
13.980044841758241
40
13.980044841758241
40
13.980044841758241
40
13.980044841758241
10
765.92437744140636
20
234.10699844360354
30
0
10
767.28834683849163
20
233.39220011497108
30
0
10
771.34673099628367
20
233.3746677420869
30
0
10
769.23034617754422
20
239.4053130403633
30
0
10
770.19824828681635
20
243.30298441818113
30
0
10
764.20366050141695
20
247.07933737534387
30
0
10
760.33956025926136
20
252.0466861116513
30
0
10
759.23490360287121
20
261.3002108818111
30
0
10
767.09030970271328
20
261.37397849441714
30
0
10
763.91689484741835
20
267.29969902088027
30
0
10
760.30105782640203
20
269.16695469904926
30
0
10
758.45128526369967
20
272.9974803506197
30
0
10
751.82173951841924
20
274.80280277223079
30
0
10
753.90251384569012
20
266.74524335123232
30
0
10
749.64310714758301
20
273.78110214837807
30
0
10
744.59547665302102
20
272.6985599752619
30
0
10
743.21262901633474
20
268.48194438804472
30
0
10
739.78370865734701
20
265.9188028597124
30
0
10
736.5662779392369
20
263.71709242710051
30
0
10
732.61820662696653
20
262.04195080753584
30
0
10
733.92880788158391
20
256.65823099626334
30
0
10
729.2812067073553
20
254.40483942809536
30
0
10
736.2657913431816
20
251.49642599280332
30
0
10
740.61325109323752
20
251.95155365002225
30
0
10
738.86350883506009
20
245.94448904874056
30
0
10
742.86354897726233
20
242.30795728866201
30
0
10
747.67696991457206
20
243.97224439619157
30
0
10
750.60714487759833
20
239.64833819764846
30
0
10
754.21189007344447
20
237.91548396775565
30
0
10
759.04929931317247
20
239.3178064792607
30
0
10
763.16291461377307
20
237.66345771388166
30
0
10
764.56040804432121
20
234.82179677223598
30
0
10
765.92437744140636
20
234.10699844360354
30
0
0
SPLINE
5
116
100
AcDbEntity
8
0
100
AcDbSpline
70
2
71
3
72
19
73
15
74
0
42
0.000000001
43
0.0000000001
44
0.0000000001
40
0
40
0
40
0
40
0
40
0.41789503638554737
40
0.83579007277109474
40
1.6715801455421895
40
2.0894751819277371
40
2.5073702183132842
40
3.343160291084379
40
3.7610553274699265
40
4.1789503638554741
40
4.5968454002410208
40
5.0147404366265684
40
5.8505305093976627
40
6.6863205821687579
40
6.6863205821687579
40
6.6863205821687579
40
6.6863205821687579
10
770.42442321777332
20
-40.242557525634766
30
0
10
771.49310096990064
20
-40.689817524298505
30
0
10
774.64946931954319
20
-40.06421026091482
30
0
10
781.19867768015183
20
-41.199188806522869
30
0
10
775.98617725727149
20
-30.333891985321472
30
0
10
784.83333465940905
20
-32.367181862169687
30
0
10
782.33809764150135
20
-24.715375814937666
30
0
10
779.3565560726455
20
-19.781610640374783
30
0
10
773.78302517741872
20
-19.93001180179018
30
0
10
769.51542550194858
20
-20.869588859268895
30
0
10
765.46698987228683
20
-18.267657071186363
30
0
10
767.19124317121555
20
-27.332911607031495
30
0
10
768.08840808656032
20
-31.478488490807642
30
0
10
768.28706771351858
20
-39.348037528307287
30
0
10
770.42442321777332
20
-40.242557525634766
30
0
0
SPLINE
5
117
100
AcDbEntity
8
0
100
AcDbSpline
70
2
71
3
72
22
73
18
74
0
42
0.000000001
43
0.0000000001
44
0.0000000001
40
0
40
0
40
0
40
0
40
0.59609865155544162
40
1.1921973031108832
40
1.7882959546663248
40
2.3843946062217665
40
2.9804932577772081
40
3.5765919093326497
40
4.1726905608880909
40
4.7687892124435329
40
5.9609865155544162
40
6.5570851671098573
40
7.1531838186652994
40
7.7492824702207406
40
8.3453811217761817
40
8.9414797733316238
40
9.5375784248870659
40
9.5375784248870659
40
9.5375784248870659
40
9.5375784248870659
10
761.42440795898438
20
-17.845507860183712
30
0
10
763.38753060376666
20
-18.901188542346752
30
0
10
769.56619710220355
20
-18.794123882136095
30
0
10
766.80145894254906
20
-10.144463206079063
30
0
10
775.12579956309435
20
-13.447578703112269
30
0
10
780.89533689987115
20
-8.5500937812095898
30
0
10
776.13124574374865
20
-2.7722090266949144
30
0
10
769.89036163208948
20
-3.3953418795895036
30
0
10
764.06549463424653
20
-3.6255468595152838
30
0
10
756.59562103854398
20
-0.50047010129622416
30
0
10
749.50057698112118
20
-2.0316022078348195
30
0
10
739.43705534638661
20
-0.29526743526111776
30
0
10
739.62301004946357
20
-8.5499153119615414
30
0
10
747.79562115794738
20
-7.550299476496745
30
0
10
750.54888322527427
20
-14.512223434136718
30
0
10
757.78746123350982
20
-12.460039789157861
30
0
10
759.46128531420197
20
-16.789827178020673
30
0
10
761.42440795898438
20
-17.845507860183712
30
0
0
SPLINE
5
118
100
AcDbEntity
8
0
100
AcDbSpline
70
2
71
3
72
24
73
20
74
0
42
0.000000001
43
0.0000000001
44
0.0000000001
40
0
40
0
40
0
40
0
40
0.62950879315752484
40
1.2590175863150497
40
1.8885263794725744
40
2.5180351726300993
40
3.1475439657876239
40
3.7770527589451488
40
4.4065615521026738
40
5.0360703452601987
40
5.6655791384177228
40
6.2950879315752477
40
6.6098423281540102
40
6.9245967247327727
40
7.5541055178902976
40
8.1836143110478226
40
8.8131231042053475
40
9.4426318973628725
40
10.072140690520397
40
10.072140690520397
40
10.072140690520397
40
10.072140690520397
10
1188.9244079589848
20
-265.28406143188488
30
0
10
1190.5114824792993
20
-266.49009251995312
30
0
10
1195.6195292111784
20
-265.79595231901584
30
0
10
1200.9743627277699
20
-265.76264069826527
30
0
10
1208.8075459426427
20
-266.45443574968169
30
0
10
1205.5553638391052
20
-257.73560209507207
30
0
10
1206.1252506304957
20
-252.23219121137302
30
0
10
1205.1222147048184
20
-245.84936615308999
30
0
10
1201.5998357383821
20
-240.94025567519284
30
0
10
1194.6730776983236
20
-241.23691542859387
30
0
10
1188.4788868640869
20
-239.31936930452628
30
0
10
1183.7519573351462
20
-243.53061380057395
30
0
10
1185.2914856024797
20
-248.55677333978446
30
0
10
1180.305692711848
20
-249.52763730868188
30
0
10
1175.4153324000399
20
-250.53081623678426
30
0
10
1171.7268598343067
20
-257.73000922365617
30
0
10
1179.4696918163233
20
-259.21648689224787
30
0
10
1186.0970820892917
20
-258.55976579060615
30
0
10
1187.3373334386704
20
-264.07803034381658
30
0
10
1188.9244079589848
20
-265.28406143188488
30
0
0
ENDSEC
0
SECTION
2
OBJECTS
0
DICTIONARY
5
C
100
AcDbDictionary
3
ACAD_GROUP
350
D
3
ACAD_MLINESTYLE
350
17
0
DICTIONARY
5
D
100
AcDbDictionary
0
DICTIONARY
5
1A
330
C
100
AcDbDictionary
0
DICTIONARY
5
17
100
AcDbDictionary
0
ENDSEC
0
EOF
