0
SECTION
2
HEADER
9
$INSUNITS
70
4
9
$ACADVER
1
AC1014
9
$HANDSEED
5
FFFF
0
ENDSEC
0
SECTION
2
TABLES
0
TABLE
2
VPORT
5
8
100
AcDbSymbolTable
0
ENDTAB
0
TABLE
2
LTYPE
5
5
100
AcDbSymbolTable
0
LTYPE
5
14
100
AcDbSymbolTableRecord
100
AcDbLinetypeTableRecord
2
BYBLOCK
70
0
0
LTYPE
5
15
100
AcDbSymbolTableRecord
100
AcDbLinetypeTableRecord
2
BYLAYER
70
0
0
LTYPE
5
16
100
AcDbSymbolTableRecord
100
AcDbLinetypeTableRecord
2
DASHED
70
0
3
Dashed __ __ __ __ __ __ __ __ __ __ __ __ __ _
72
65
73
2
40
0.75
49
0.5
74
0
49
-0.25
74
0
0
ENDTAB
0
TABLE
2
LAYER
5
2
100
AcDbSymbolTable
70
2
0
LAYER
5
50
100
AcDbSymbolTableRecord
100
AcDbLayerTableRecord
2
0
70
0
62
7
6
CONTINUOUS
0
ENDTAB
0
TABLE
2
STYLE
5
3
100
AcDbSymbolTable
70
1
0
STYLE
5
11
100
AcDbSymbolTableRecord
100
AcDbTextStyleTableRecord
2
STANDARD
70
0
0
ENDTAB
0
TABLE
2
VIEW
5
6
100
AcDbSymbolTable
70
0
0
ENDTAB
0
TABLE
2
UCS
5
7
100
AcDbSymbolTable
70
0
0
ENDTAB
0
TABLE
2
APPID
5
9
100
AcDbSymbolTable
70
2
0
APPID
5
12
100
AcDbSymbolTableRecord
100
AcDbRegAppTableRecord
2
ACAD
70
0
0
ENDTAB
0
TABLE
2
DIMSTYLE
5
A
100
AcDbSymbolTable
70
1
0
ENDTAB
0
TABLE
2
BLOCK_RECORD
5
1
100
AcDbSymbolTable
70
1
0
BLOCK_RECORD
5
1F
100
AcDbSymbolTableRecord
100
AcDbBlockTableRecord
2
*MODEL_SPACE
0
BLOCK_RECORD
5
1B
100
AcDbSymbolTableRecord
100
AcDbBlockTableRecord
2
*PAPER_SPACE
0
ENDTAB
0
ENDSEC
0
SECTION
2
BLOCKS
0
BLOCK
5
20
100
AcDbEntity
100
AcDbBlockBegin
2
*MODEL_SPACE
0
ENDBLK
5
21
100
AcDbEntity
100
AcDbBlockEnd
0
BLOCK
5
1C
100
AcDbEntity
100
AcDbBlockBegin
2
*PAPER_SPACE
0
ENDBLK
5
1D
100
AcDbEntity
100
AcDbBlockEnd
0
ENDSEC
0
SECTION
2
ENTITIES
0
LWPOLYLINE
5
100
100
AcDbEntity
8
0
100
AcDbPolyline
90
4
70
1
43
0.0
10
1900
20
-800
10
0
20
-800
10
0
20
900
10
1900
20
900
0
SPLINE
5
101
100
AcDbEntity
8
0
100
AcDbSpline
70
2
71
3
72
1624
73
1620
74
0
42
0.000000001
43
0.0000000001
44
0.0000000001
40
0
40
0
40
0
40
0
40
0.55156525519362642
40
1.1031305103872528
40
1.6546957655808794
40
2.2062610207745057
40
3.3093915311617588
40
3.8609567863553851
40
4.4125220415490114
40
4.9640872967426386
40
5.5156525519362649
40
6.0672178071298912
40
6.6187830623235175
40
7.1703483175171439
40
7.7219135727107702
40
8.2734788279043965
40
8.8250440830980228
40
9.9281745934852772
40
10.479739848678904
40
11.03130510387253
40
12.134435614259782
40
12.686000869453409
40
13.237566124647035
40
13.513348752243848
40
13.789131379840661
40
14.064914007437475
40
14.340696635034288
40
14.892261890227914
40
15.44382714542154
40
15.995392400615167
40
16.546957655808793
40
17.650088166196046
40
18.201653421389672
40
18.753218676583302
40
19.029001304180113
40
19.304783931776928
40
19.856349186970554
40
20.959479697357807
40
22.06261020774506
40
22.614175462938686
40
22.889958090535501
40
23.165740718132312
40
23.717305973325939
40
23.993088600922754
40
24.268871228519565
40
25.372001738906818
40
25.923566994100444
40
26.47513224929407
40
27.026697504487696
40
27.578262759681323
40
28.129828014874949
40
28.681393270068575
40
29.232958525262202
40
29.508741152859017
40
29.784523780455828
40
30.336089035649454
40
30.887654290843081
40
31.439219546036707
40
31.990784801230333
40
32.542350056423956
40
33.093915311617586
40
34.197045822004839
40
34.748611077198461
40
35.300176332392091
40
36.403306842779344
40
36.954872097972974
40
37.506437353166604
40
38.058002608360226
40
38.609567863553856
40
39.712698373941109
40
40.815828884328361
40
41.367394139521991
40
41.918959394715614
40
42.470524649909237
40
43.022089905102867
40
43.573655160296497
40
44.125220415490119
40
44.676785670683742
40
45.228350925877372
40
46.331481436264625
40
46.883046691458247
40
47.434611946651877
40
48.53774245703913
40
49.089307712232753
40
49.640872967426382
40
50.744003477813635
40
51.847133988200888
40
52.398699243394518
40
52.95026449858814
40
53.501829753781763
40
54.053395008975393
40
55.156525519362646
40
55.708090774556268
40
56.259656029749898
40
56.811221284943528
40
57.362786540137151
40
58.465917050524403
40
59.569047560911656
40
60.672178071298909
40
61.775308581686161
40
62.326873836879784
40
62.878439092073414
40
63.981569602460667
40
65.084700112847912
40
65.636265368041535
40
66.187830623235172
40
66.739395878428809
40
67.290961133622432
40
67.842526388816054
40
68.394091644009677
40
68.669874271606488
40
68.9456568992033
40
69.221439526800111
40
69.497222154396923
40
69.773004781993734
40
70.048787409590545
40
70.324570037187357
40
70.600352664784182
40
71.151917919977819
40
71.703483175171442
40
72.806613685558688
40
73.35817894075231
40
73.909744195945947
40
75.012874706333207
40
75.56443996152683
40
76.116005216720453
40
76.667570471914075
40
77.219135727107712
40
77.770700982301349
40
78.046483609898161
40
78.322266237494972
40
78.598048865091783
40
78.873831492688595
40
79.425396747882218
40
79.97696200307584
40
80.252744630672652
40
80.528527258269463
40
81.080092513463086
40
81.631657768656723
40
82.18322302385036
40
82.734788279043983
40
83.837918789431228
40
84.941049299818474
40
85.492614555012096
40
86.044179810205733
40
86.59574506539937
40
87.147310320592993
40
88.250440830980239
40
89.353571341367484
40
90.456701851754744
40
91.559832362142004
40
92.111397617335626
40
92.662962872529249
40
93.214528127722872
40
93.766093382916495
40
94.869223893303754
40
95.420789148497391
40
95.972354403691014
40
96.523919658884637
40
97.07548491407826
40
97.627050169271882
40
98.178615424465505
40
98.730180679659128
40
99.005963307255939
40
99.281745934852765
40
99.55752856244959
40
99.833311190046402
40
100.38487644524002
40
100.93644170043365
40
101.48800695562727
40
102.03957221082089
40
102.59113746601452
40
103.14270272120814
40
103.69426797640178
40
104.79739848678904
40
105.90052899717628
40
106.4520942523699
40
106.72787687996671
40
107.00365950756353
40
107.55522476275715
40
107.83100739035396
40
108.10679001795079
40
108.65835527314442
40
109.20992052833805
40
109.76148578353167
40
110.03726841112848
40
110.31305103872529
40
110.86461629391891
40
111.41618154911254
40
111.96774680430616
40
112.5193120594998
40
112.79509468709662
40
113.07087731469343
40
113.62244256988706
40
114.17400782508068
40
114.44979045267749
40
114.7255730802743
40
115.27713833546792
40
115.82870359066155
40
116.93183410104881
40
117.48339935624244
40
118.03496461143607
40
118.58652986662969
40
119.13809512182331
40
119.68966037701693
40
119.96544300461375
40
120.24122563221056
40
120.51700825980737
40
120.79279088740418
40
121.34435614259782
40
121.89592139779145
40
122.17170402538827
40
122.44748665298508
40
122.72326928058189
40
122.9990519081787
40
123.55061716337232
40
124.10218241856595
40
124.37796504616276
40
124.65374767375957
40
125.20531292895319
40
125.75687818414683
40
126.86000869453409
40
127.41157394972771
40
127.96313920492133
40
128.51470446011496
40
129.06626971530858
40
129.6178349705022
40
130.16940022569582
40
131.27253073608307
40
131.82409599127669
40
132.37566124647034
40
133.47879175685762
40
134.58192226724486
40
135.13348752243849
40
135.68505277763211
40
136.78818328801935
40
137.8913137984066
40
138.99444430879385
40
139.54600956398747
40
140.09757481918109
40
141.20070532956836
40
141.75227058476202
40
142.30383583995564
40
142.85540109514926
40
143.40696635034288
40
143.6827489779397
40
143.95853160553651
40
144.23431423313332
40
144.51009686073013
40
145.61322737111738
40
146.164792626311
40
146.71635788150462
40
147.81948839189189
40
148.92261890227917
40
150.02574941266641
40
150.57731466786004
40
151.12887992305366
40
151.68044517824728
40
152.23201043344091
40
152.78357568863453
40
153.33514094382815
40
154.43827145421542
40
154.98983670940908
40
155.5414019646027
40
156.64453247498994
40
157.74766298537719
40
158.85079349576444
40
159.95392400615168
40
160.5054892613453
40
161.05705451653893
40
162.16018502692617
40
162.71175028211979
40
163.26331553731345
40
163.8148807925071
40
164.36644604770072
40
164.91801130289434
40
165.46957655808797
40
166.02114181328159
40
166.57270706847521
40
167.67583757886246
40
168.22740283405608
40
168.7789680892497
40
169.33053334444332
40
169.88209859963695
40
170.98522911002419
40
172.08835962041147
40
173.19149013079874
40
174.29462064118599
40
174.84618589637961
40
175.39775115157323
40
176.50088166196048
40
177.60401217234772
40
178.70714268273497
40
179.25870793792859
40
179.81027319312221
40
180.36183844831584
40
180.91340370350949
40
182.01653421389676
40
183.11966472428401
40
184.22279523467125
40
185.3259257450585
40
186.42905625544574
40
186.98062151063937
40
187.53218676583299
40
188.08375202102661
40
188.63531727622023
40
189.73844778660751
40
190.84157829699478
40
191.94470880738203
40
193.04783931776927
40
194.15096982815652
40
194.70253508335014
40
194.97831771094695
40
195.25410033854376
40
195.52988296614058
40
195.80566559373739
40
196.35723084893101
40
197.46036135931826
40
198.56349186970553
40
199.11505712489918
40
199.6666223800928
40
200.76975289048005
40
201.32131814567367
40
201.87288340086729
40
202.97601391125454
40
203.52757916644816
40
204.07914442164179
40
204.63070967683541
40
205.18227493202903
40
205.73384018722265
40
206.28540544241628
40
206.8369706976099
40
207.38853595280355
40
208.49166646319082
40
209.59479697357807
40
210.69792748396532
40
211.80105799435256
40
212.90418850473981
40
213.45575375993343
40
214.00731901512705
40
214.28310164272386
40
214.55888427032068
40
215.1104495255143
40
216.21358003590157
40
217.31671054628885
40
218.41984105667609
40
219.52297156706334
40
220.62610207745058
40
221.72923258783783
40
222.28079784303145
40
222.83236309822507
40
223.3839283534187
40
223.93549360861232
40
224.48705886380594
40
225.03862411899959
40
225.59018937419324
40
226.14175462938687
40
226.69331988458049
40
227.24488513977411
40
227.52066776737092
40
227.79645039496774
40
228.34801565016136
40
228.89958090535498
40
229.4511461605486
40
230.00271141574223
40
230.55427667093585
40
231.65740718132309
40
232.76053769171034
40
233.86366820209761
40
234.96679871248489
40
236.06992922287213
40
237.17305973325938
40
237.724624988453
40
238.27619024364662
40
238.82775549884025
40
239.37932075403387
40
239.93088600922749
40
240.48245126442112
40
241.03401651961474
40
241.58558177480836
40
242.13714703000198
40
242.68871228519563
40
243.24027754038929
40
243.79184279558291
40
244.34340805077653
40
244.89497330597015
40
245.44653856116378
40
245.9981038163574
40
246.54966907155102
40
246.82545169914783
40
247.10123432674465
40
247.37701695434146
40
247.65279958193827
40
248.20436483713189
40
248.75593009232551
40
249.30749534751914
40
249.85906060271276
40
250.41062585790638
40
251.51375636829366
40
252.06532162348731
40
252.61688687868093
40
252.89266950627774
40
253.16845213387455
40
253.72001738906818
40
254.2715826442618
40
254.82314789945542
40
255.92627840984267
40
256.47784366503629
40
256.7536262926331
40
257.02940892022991
40
257.58097417542353
40
258.13253943061716
40
258.68410468581078
40
259.2356699410044
40
259.51145256860121
40
259.78723519619803
40
260.06301782379484
40
260.33880045139165
40
260.89036570658527
40
261.44193096177889
40
262.54506147216614
40
263.64819198255339
40
264.75132249294069
40
265.85445300332799
40
266.95758351371524
40
268.06071402410248
40
269.16384453448973
40
269.71540978968335
40
270.26697504487697
40
270.81854030007059
40
271.37010555526422
40
271.92167081045784
40
272.19745343805465
40
272.47323606565146
40
272.74901869324827
40
273.02480132084509
40
273.3005839484419
40
273.57636657603871
40
274.67949708642595
40
275.7826275968132
40
276.33419285200682
40
276.88575810720045
40
277.98888861758769
40
279.09201912797494
40
279.64358438316856
40
280.19514963836218
40
280.7467148935558
40
281.29828014874943
40
281.84984540394305
40
282.40141065913673
40
282.95297591433041
40
283.50454116952403
40
283.78032379712084
40
284.05610642471765
40
284.33188905231447
40
284.60767167991128
40
285.1592369351049
40
285.71080219029852
40
286.26236744549215
40
286.81393270068577
40
287.91706321107301
40
288.46862846626664
40
289.02019372146026
40
289.57175897665388
40
290.1233242318475
40
290.67488948704113
40
291.22645474223475
40
291.77801999742837
40
292.329585252622
40
293.43271576300924
40
294.53584627339649
40
295.63897678378373
40
296.74210729417098
40
297.84523780455822
40
298.94836831494547
40
300.05149882533277
40
301.15462933572007
40
302.25775984610732
40
303.36089035649456
40
304.46402086688181
40
305.01558612207543
40
305.56715137726906
40
305.84293400486587
40
306.11871663246268
40
306.6702818876563
40
307.22184714284992
40
307.77341239804355
40
308.32497765323717
40
308.87654290843079
40
309.97967341881804
40
311.08280392920528
40
311.63436918439891
40
312.18593443959253
40
313.28906494997977
40
315.49532597075427
40
316.59845648114151
40
317.70158699152881
40
318.25315224672249
40
318.5289348743193
40
318.80471750191612
40
319.35628275710974
40
319.90784801230336
40
320.45941326749698
40
321.01097852269061
40
321.56254377788423
40
322.11410903307785
40
322.66567428827148
40
322.94145691586829
40
323.2172395434651
40
323.76880479865872
40
324.32037005385234
40
324.87193530904597
40
325.42350056423959
40
325.97506581943321
40
326.52663107462683
40
328.73289209540133
40
329.83602260578857
40
330.38758786098219
40
330.93915311617582
40
332.04228362656306
40
332.59384888175668
40
333.14541413695031
40
333.69697939214393
40
334.24854464733755
40
334.80010990253118
40
335.35167515772486
40
336.45480566811216
40
337.5579361784994
40
338.10950143369303
40
338.66106668888665
40
339.21263194408027
40
339.76419719927389
40
340.31576245446752
40
340.86732770966114
40
341.41889296485476
40
341.97045822004839
40
342.52202347524201
40
343.07358873043563
40
344.17671924082288
40
345.27984975121012
40
345.83141500640374
40
346.38298026159737
40
346.93454551679099
40
347.48611077198461
40
348.58924128237186
40
349.6923717927591
40
350.24393704795273
40
350.79550230314635
40
351.34706755833997
40
351.8986328135336
40
352.45019806872722
40
353.0017633239209
40
354.1048938343082
40
355.20802434469545
40
356.31115485508269
40
357.41428536546994
40
357.96585062066356
40
358.51741587585718
40
359.62054638624443
40
360.17211164143805
40
360.72367689663167
40
361.2752421518253
40
361.82680740701892
40
362.92993791740616
40
364.03306842779341
40
364.58463368298703
40
365.13619893818066
40
365.68776419337428
40
366.2393294485679
40
367.34245995895515
40
368.44559046934239
40
368.99715572453601
40
369.54872097972964
40
370.10028623492326
40
370.65185149011694
40
371.75498200050424
40
372.85811251089149
40
375.06437353166598
40
377.27063455244047
40
377.82219980763409
40
378.37376506282772
40
378.92533031802134
40
379.47689557321496
40
380.58002608360221
40
381.13159133879583
40
381.68315659398945
40
382.23472184918307
40
382.7862871043767
40
383.33785235957032
40
383.88941761476394
40
384.99254812515119
40
386.09567863553843
40
386.64724389073206
40
387.19880914592568
40
387.7503744011193
40
388.30193965631298
40
389.40507016670028
40
389.95663542189391
40
390.50820067708753
40
391.61133118747478
40
392.1628964426684
40
392.43867907026521
40
392.71446169786202
40
393.81759220824927
40
394.36915746344289
40
394.92072271863651
40
396.02385322902376
40
397.126983739411
40
397.67854899460463
40
398.23011424979825
40
398.78167950499187
40
399.33324476018549
40
399.88481001537912
40
400.43637527057274
40
401.53950578095998
40
402.09107103615361
40
402.64263629134723
40
403.19420154654085
40
403.74576680173448
40
404.84889731212172
40
405.40046256731534
40
405.95202782250902
40
407.05515833289633
40
407.60672358808995
40
408.15828884328357
40
408.70985409847719
40
409.26141935367082
40
409.53720198126763
40
409.81298460886444
40
410.36454986405806
40
410.91611511925169
40
411.46768037444531
40
412.57081088483255
40
414.77707190560704
40
419.18959394715603
40
423.60211598870507
40
432.42716007180309
40
441.25220415490111
40
450.07724823799913
40
454.48977027954811
40
458.90229232109715
40
463.31481436264619
40
465.52107538342068
40
467.72733640419517
40
469.93359742496966
40
471.03672793535691
40
471.58829319055053
40
472.13985844574415
40
472.69142370093778
40
473.2429889561314
40
474.34611946651864
40
476.55238048729319
40
478.75864150806774
40
480.96490252884223
40
485.37742457039121
40
489.78994661194019
40
494.20246865348923
40
503.02751273658725
40
507.44003477813629
40
511.85255681968533
40
514.05881784045982
40
515.16194835084707
40
515.71351360604069
40
516.26507886123431
40
518.47133988200881
40
520.6776009027833
40
522.88386192355779
40
523.98699243394503
40
524.26277506154179
40
524.53855768913866
40
525.09012294433228
40
525.6416881995259
40
525.91747082712277
40
526.19325345471952
40
526.46903608231628
40
526.74481870991315
40
527.02060133751002
40
527.29638396510677
40
527.84794922030039
40
528.39951447549402
40
528.95107973068775
40
529.50264498588137
40
530.054210241075
40
530.60577549626873
40
531.15734075146236
40
531.70890600665598
40
532.2604712618496
40
532.81203651704323
40
533.91516702743047
40
535.01829753781772
40
536.12142804820496
40
538.32768906897945
40
539.4308195793667
40
539.98238483456032
40
540.53395008975394
40
541.08551534494757
40
541.63708060014119
40
542.18864585533481
40
542.74021111052843
40
543.01599373812519
40
543.29177636572206
40
543.84334162091568
40
544.3949068761093
40
544.94647213130293
40
547.15273315207742
40
547.70429840727104
40
547.98008103486791
40
548.25586366246466
40
548.80742891765829
40
549.35899417285191
40
549.91055942804553
40
550.1863420556424
40
550.46212468323915
40
551.01368993843278
40
551.5652551936264
40
552.11682044882002
40
552.39260307641689
40
552.66838570401364
40
553.21995095920727
40
553.77151621440089
40
554.32308146959451
40
554.87464672478814
40
555.97777723517538
40
556.529342490369
40
557.08090774556263
40
557.63247300075625
40
558.18403825594987
40
559.28716876633712
40
560.39029927672436
40
560.94186453191799
40
561.49342978711161
40
562.04499504230523
40
562.59656029749885
40
564.80282131827346
40
567.00908233904806
40
569.21534335982255
40
571.42160438059705
40
572.52473489098429
40
573.07630014617791
40
573.62786540137154
40
574.73099591175878
40
575.83412642214603
40
576.38569167733965
40
576.93725693253327
40
577.21303956013003
40
577.4888221877269
40
578.04038744292052
40
578.31617007051727
40
578.59195269811414
40
579.14351795330776
40
580.24664846369501
40
581.34977897408226
40
582.4529094844695
40
584.65917050524399
40
586.86543152601848
40
591.27795356756747
40
595.69047560911645
40
597.89673662989094
40
598.99986714027818
40
599.55143239547192
40
599.82721502306867
40
600.10299765066554
40
600.37878027826241
40
600.65456290585917
40
601.2061281610529
40
601.48191078864966
40
601.75769341624652
40
602.30925867144015
40
602.5850412990369
40
602.86082392663377
40
603.41238918182739
40
603.96395443702102
40
604.51551969221464
40
604.79130231981139
40
605.06708494740826
40
605.34286757500513
40
605.61865020260188
40
606.17021545779551
40
606.72178071298913
40
607.27334596818275
40
607.54912859577962
40
607.82491122337638
40
608.10069385097313
40
608.37647647857
40
608.65225910616687
40
608.92804173376362
40
609.20382436136038
40
609.47960698895724
40
610.03117224415087
40
610.58273749934449
40
611.13430275453811
40
611.68586800973173
40
612.23743326492536
40
612.78899852011898
40
613.3405637753126
40
613.89212903050623
40
614.44369428569985
40
614.99525954089347
40
615.27104216849034
40
615.54682479608709
40
616.64995530647434
40
617.20152056166796
40
617.75308581686159
40
618.30465107205521
40
618.85621632724883
40
619.13199895484559
40
619.40778158244245
40
619.68356421003932
40
619.95934683763608
40
620.5109120928297
40
621.06247734802332
40
621.61404260321694
40
622.16560785841057
40
622.71717311360419
40
623.26873836879781
40
623.82030362399144
40
624.37186887918506
40
624.92343413437868
40
625.19921676197555
40
625.4749993895723
40
626.02656464476593
40
626.57812989995955
40
627.12969515515317
40
627.40547778275004
40
627.68126041034679
40
628.78439092073404
40
629.33595617592766
40
629.88752143112129
40
630.99065194150853
40
632.09378245189578
40
633.19691296228302
40
633.74847821747665
40
634.30004347267027
40
635.40317398305763
40
635.95473923825125
40
636.50630449344499
40
637.05786974863861
40
637.60943500383223
40
637.88521763142899
40
638.16100025902585
40
638.71256551421948
40
639.2641307694131
40
639.81569602460672
40
640.36726127980035
40
640.91882653499397
40
641.47039179018759
40
642.02195704538121
40
642.57352230057484
40
643.12508755576846
40
643.67665281096208
40
644.2282180661557
40
644.77978332134933
40
645.33134857654295
40
645.88291383173657
40
646.4344790869302
40
646.98604434212382
40
647.26182696972069
40
647.53760959731744
40
648.08917485251106
40
648.36495748010793
40
648.64074010770469
40
649.19230536289831
40
649.74387061809193
40
650.84700112847918
40
651.12278375607593
40
651.3985663836728
40
651.95013163886642
40
652.50169689406005
40
653.05326214925367
40
654.15639265964091
40
655.25952317002816
40
655.53530579762491
40
655.81108842522178
40
656.36265368041541
40
656.91421893560903
40
657.46578419080265
40
658.01734944599627
40
658.5689147011899
40
659.12047995638352
40
659.39626258398039
40
659.67204521157714
40
660.77517572196439
40
661.32674097715801
40
661.87830623235163
40
662.98143674273888
40
663.5330019979325
40
664.08456725312612
40
664.63613250831975
40
665.18769776351337
40
665.73926301870699
40
666.29082827390062
40
666.84239352909424
40
667.39395878428786
40
667.94552403948148
40
668.49708929467511
40
669.04865454986873
40
669.60021980506235
40
670.15178506025609
40
670.70335031544971
40
671.80648082583707
40
672.35804608103069
40
672.63382870862756
40
672.90961133622432
40
673.18539396382107
40
673.46117659141794
40
674.01274184661156
40
675.11587235699881
40
676.21900286738605
40
676.77056812257968
40
677.3221333777733
40
678.42526388816054
40
678.97682914335417
40
679.52839439854779
40
680.63152490893503
40
681.18309016412866
40
681.73465541932228
40
682.2862206745159
40
682.83778592970953
40
683.38935118490315
40
683.94091644009677
40
684.49248169529039
40
685.04404695048402
40
685.59561220567764
40
686.14717746087126
40
687.25030797125851
40
687.52609059885526
40
687.80187322645213
40
688.077655854049
40
688.35343848164575
40
688.90500373683938
40
689.456568992033
40
690.00813424722662
40
690.55969950242024
40
691.11126475761387
40
691.66283001280749
40
691.93861264040424
40
692.21439526800111
40
692.76596052319474
40
693.31752577838836
40
693.86909103358198
40
694.4206562887756
40
694.97222154396923
40
695.52378679916285
40
696.07535205435647
40
696.62691730955009
40
697.17848256474372
40
697.73004781993734
40
698.28161307513096
40
699.38474358551821
40
700.48787409590545
40
700.76365672350221
40
701.03943935109908
40
701.5910046062927
40
702.69413511667994
40
703.79726562706719
40
704.34883088226081
40
704.90039613745444
40
705.45196139264817
40
706.0035266478418
40
707.10665715822915
40
708.2097876686164
40
708.76135292381002
40
709.31291817900365
40
709.86448343419727
40
710.41604868939089
40
711.51917919977814
40
712.07074445497176
40
712.62230971016538
40
713.173874965359
40
713.44965759295587
40
713.72544022055263
40
714.00122284814938
40
714.27700547574625
40
714.82857073093987
40
715.3801359861335
40
715.93170124132712
40
716.48326649652074
40
717.03483175171436
40
717.58639700690799
40
718.13796226210161
40
718.68952751729523
40
719.24109277248886
40
719.79265802768248
40
720.3442232828761
40
720.62000591047286
40
720.89578853806972
40
721.17157116566659
40
721.44735379326335
40
722.55048430365059
40
723.10204955884421
40
723.65361481403784
40
724.75674532442508
40
725.30831057961871
40
725.85987583481233
40
726.96300634519957
40
728.06613685558682
40
729.16926736597406
40
729.72083262116769
40
730.27239787636131
40
731.37552838674856
40
732.4786588971358
40
733.03022415232942
40
733.58178940752305
40
734.68491991791029
40
735.23648517310392
40
735.78805042829754
40
736.89118093868478
40
737.44274619387841
40
737.99431144907203
40
738.54587670426565
40
739.09744195945927
40
739.37322458705603
40
739.6490072146529
40
740.20057246984652
40
741.30370298023388
40
742.40683349062124
40
742.95839874581486
40
743.50996400100848
40
744.61309451139573
40
745.16465976658935
40
745.71622502178298
40
746.81935553217022
40
747.92248604255747
40
748.47405129775109
40
749.02561655294471
40
749.57718180813833
40
750.12874706333196
40
750.68031231852558
40
750.95609494612245
40
751.2318775737192
40
751.78344282891283
40
752.33500808410645
40
752.88657333930007
40
753.43813859449369
40
753.98970384968732
40
754.54126910488094
40
754.81705173247769
40
755.09283436007456
40
755.36861698767143
40
755.64439961526818
40
756.19596487046181
40
756.74753012565543
40
757.29909538084905
40
757.85066063604268
40
758.95379114642992
40
759.50535640162354
40
760.05692165681717
40
761.16005216720441
40
761.71161742239804
40
762.26318267759166
40
762.81474793278528
40
763.3663131879789
40
763.91787844317253
40
764.46944369836615
40
765.57257420875339
40
766.67570471914064
40
767.22726997433426
40
767.77883522952789
40
768.88196573991513
40
769.43353099510875
40
769.98509625030238
40
771.08822676068962
40
772.19135727107687
40
772.74292252627049
40
773.29448778146411
40
773.84605303665774
40
774.39761829185136
40
775.5007488022386
40
776.60387931262596
40
777.70700982301332
40
777.98279245061008
40
778.25857507820695
40
778.81014033340057
40
779.36170558859419
40
779.91327084378781
40
780.46483609898144
40
781.01640135417506
40
781.56796660936868
40
782.1195318645623
40
782.67109711975593
40
783.22266237494955
40
783.77422763014317
40
784.3257928853368
40
784.60157551293355
40
784.87735814053042
40
785.15314076812729
40
785.42892339572404
40
785.98048865091766
40
786.53205390611129
40
787.08361916130491
40
787.63518441649853
40
788.18674967169216
40
788.46253229928902
40
788.73831492688578
40
789.01409755448253
40
789.2898801820794
40
789.56566280967627
40
789.84144543727302
40
790.39301069246665
40
790.94457594766027
40
791.49614120285389
40
791.77192383045076
40
791.90981514424914
40
792.04770645804751
40
792.59927171324114
40
793.15083696843476
40
793.70240222362838
40
794.25396747882201
40
794.80553273401563
40
795.35709798920925
40
795.90866324440287
40
796.4602284995965
40
797.01179375479012
40
797.56335900998374
40
798.11492426517736
40
798.66648952037099
40
799.21805477556461
40
799.49383740316148
40
799.76962003075823
40
800.04540265835499
40
800.32118528595186
40
800.87275054114548
40
801.4243157963391
40
801.97588105153272
40
802.52744630672635
40
803.07901156191997
40
804.18214207230722
40
804.73370732750084
40
805.28527258269446
40
806.38840309308171
40
807.49153360346895
40
808.04309885866257
40
808.5946641138562
40
809.14622936904982
40
809.69779462424344
40
810.24935987943707
40
810.80092513463069
40
811.35249038982442
40
811.90405564501805
40
812.45562090021167
40
813.00718615540541
40
814.11031666579265
40
814.66188192098627
40
814.93766454858314
40
815.2134471761799
40
815.76501243137352
40
816.04079505897039
40
816.31657768656714
40
816.86814294176077
40
817.41970819695439
40
817.97127345214801
40
818.52283870734163
40
819.62596921772888
40
820.1775344729225
40
820.72909972811613
40
821.28066498330975
40
821.83223023850337
40
822.93536074889062
40
824.03849125927786
40
825.14162176966511
40
825.69318702485873
40
826.24475228005235
40
826.79631753524598
40
827.3478827904396
40
827.89944804563322
40
828.45101330082684
40
829.55414381121409
40
830.65727432160134
40
831.20883957679496
40
831.76040483198858
40
832.86353534237583
40
833.41510059756945
40
833.96666585276307
40
834.51823110795669
40
835.06979636315032
40
835.62136161834394
40
836.17292687353756
40
837.27605738392481
40
837.82762263911843
40
838.37918789431205
40
838.93075314950568
40
839.4823184046993
40
839.75810103229605
40
840.03388365989292
40
840.58544891508654
40
841.68857942547379
40
842.79170993586104
40
843.89484044624828
40
844.4464057014419
40
844.99797095663553
40
846.10110146702277
40
847.20423197741013
40
847.75579723260375
40
848.30736248779749
40
848.58314511539425
40
848.85892774299111
40
849.41049299818474
40
849.96205825337836
40
850.51362350857198
40
851.0651887637656
40
851.61675401895923
40
852.16831927415285
40
852.71988452934647
40
853.2714497845401
40
853.54723241213696
40
853.82301503973372
40
854.09879766733047
40
854.37458029492734
40
854.92614555012096
40
855.47771080531459
40
856.02927606050821
40
857.13240657089545
40
857.68397182608908
40
858.2355370812827
40
858.78710233647632
40
859.33866759166995
40
860.44179810205719
40
861.54492861244444
40
862.64805912283168
40
863.19962437802531
40
863.75118963321893
40
864.30275488841255
40
864.85432014360617
40
865.4058853987998
40
865.68166802639666
40
865.95745065399342
40
866.23323328159017
40
866.50901590918704
40
867.06058116438066
40
867.61214641957429
40
868.16371167476791
40
869.26684218515516
40
869.81840744034878
40
870.3699726955424
40
870.64575532313916
40
870.92153795073602
40
871.47310320592965
40
872.02466846112327
40
872.57623371631689
40
873.12779897151052
40
873.67936422670414
40
874.23092948189776
40
874.50671210949463
40
874.78249473709138
40
875.33405999228501
40
875.88562524747863
40
876.43719050267225
40
876.98875575786587
40
878.09188626825312
40
879.19501677864037
40
879.74658203383399
40
880.29814728902761
40
881.40127779941486
40
881.95284305460859
40
882.22862568220535
40
882.50440830980222
40
883.05597356499584
40
883.60753882018957
40
884.1591040753832
40
884.71066933057682
40
884.98645195817357
40
885.26223458577044
40
885.81379984096407
40
886.36536509615769
40
886.91693035135131
40
887.46849560654493
40
888.02006086173856
40
888.57162611693218
40
889.1231913721258
40
889.67475662731943
40
890.22632188251305
40
891.32945239290029
40
891.88101764809392
40
892.43258290328754
40
892.98414815848116
40
893.53571341367478
40
894.08727866886841
40
894.36306129646528
40
894.63884392406203
40
895.19040917925565
40
895.74197443444928
40
896.84510494483652
40
897.39667020003014
40
897.94823545522377
40
898.49980071041739
40
899.05136596561101
40
899.32714859320777
40
899.60293122080463
40
900.15449647599826
40
901.2576269863855
40
901.53340961398226
40
901.80919224157913
40
902.08497486917599
40
902.36075749677275
40
902.91232275196637
40
903.46388800715999
40
904.56701851754724
40
905.67014902793449
40
906.22171428312811
40
906.77327953832173
40
907.87641004870898
40
908.97954055909622
40
909.53110581428984
40
910.08267106948347
40
910.63423632467709
40
911.18580157987071
40
912.28893209025796
40
913.3920626006452
40
914.49519311103245
40
915.59832362141969
40
916.70145413180694
40
917.8045846421943
40
918.90771515258166
40
920.0108456629689
40
920.56241091816253
40
921.11397617335615
40
922.2171066837434
40
922.76867193893702
40
923.32023719413064
40
924.42336770451789
40
924.97493295971151
40
925.52649821490513
40
926.62962872529238
40
927.181193980486
40
927.73275923567962
40
928.28432449087325
40
928.83588974606687
40
929.38745500126049
40
929.93902025645411
40
931.04215076684136
40
931.59371602203498
40
932.14528127722861
40
932.69684653242223
40
933.24841178761585
40
933.79997704280947
40
934.07575967040634
40
934.3515422980031
40
934.90310755319672
40
935.45467280839034
40
936.00623806358396
40
936.55780331877759
40
937.10936857397121
40
937.66093382916483
40
938.76406433955208
40
939.3156295947457
40
939.86719484993932
40
940.97032536032657
40
942.07345587071381
40
943.17658638110106
40
943.72815163629468
40
944.27971689148831
40
945.38284740187555
40
945.93441265706917
40
946.4859779122628
40
947.03754316745642
40
947.58910842265004
40
948.69223893303729
40
949.79536944342453
40
950.34693469861816
40
950.89849995381178
40
952.00163046419902
40
952.55319571939276
40
952.82897834698952
40
953.10476097458638
40
953.65632622978001
40
953.93210885737687
40
954.20789148497374
40
954.75945674016737
40
955.31102199536099
40
955.86258725055461
40
956.41415250574823
40
956.96571776094186
40
957.51728301613548
40
958.0688482713291
40
958.62041352652273
40
959.17197878171635
40
959.72354403690997
40
960.27510929210359
40
960.82667454729722
40
961.37823980249084
40
961.65402243008771
40
961.92980505768446
40
962.48137031287808
40
963.03293556807171
40
963.58450082326533
40
964.13606607845895
40
965.2391965888462
40
966.34232709923344
40
966.89389235442707
40
967.44545760962069
40
967.99702286481431
40
968.54858812000793
40
969.65171863039518
40
970.2032838855888
40
970.75484914078243
40
971.85797965116967
40
972.13376227876643
40
972.40954490636329
40
972.96111016155692
40
973.51267541675054
40
973.78845804434741
40
974.06424067194416
40
975.16737118233141
40
976.27050169271865
40
976.82206694791228
40
977.3736322031059
40
977.92519745829952
40
978.47676271349314
40
979.57989322388039
40
980.68302373426764
40
981.23458898946126
40
981.78615424465488
40
982.88928475504213
40
983.44085001023575
40
983.99241526542937
40
984.54398052062299
40
985.09554577581662
40
985.64711103101024
40
986.19867628620386
40
987.30180679659111
40
988.40493730697847
40
989.50806781736583
40
990.05963307255945
40
990.61119832775307
40
992.81745934852756
40
993.92058985891481
40
995.02372036930205
40
997.22998139007655
40
997.78154664527017
40
998.33311190046379
40
998.88467715565741
40
999.43624241085104
40
1000.5393729212383
40
1001.6425034316255
40
1002.1940686868192
40
1002.7456339420128
40
1003.2971991972064
40
1003.8487644524
40
1004.9518949627873
40
1006.0550254731745
40
1007.1581559835618
40
1007.7097212387554
40
1008.261286493949
40
1008.8128517491426
40
1009.3644170043362
40
1009.9159822595299
40
1010.4675475147235
40
1012.673808535498
40
1014.8800695562726
40
1015.9832000666599
40
1016.5347653218536
40
1017.0863305770472
40
1019.2925915978217
40
1019.8441568530153
40
1020.1199394806122
40
1020.3957221082089
40
1020.5336134220073
40
1020.6715047358057
40
1020.9472873634026
40
1021.4988526185962
40
1022.6019831289834
40
1023.7051136393707
40
1024.8082441497579
40
1025.9113746601452
40
1026.4629399153387
40
1027.0145051705324
40
1027.2902877981292
40
1027.5660704257261
40
1028.1176356809196
40
1029.2207661913069
40
1030.3238967016941
40
1031.4270272120814
40
1032.5301577224686
40
1033.0817229776621
40
1033.6332882328559
40
1034.7364187432431
40
1035.8395492536304
40
1036.9426797640176
40
1038.0458102744049
40
1038.5973755295986
40
1039.1489407847921
40
1039.7005060399856
40
1040.2520712951793
40
1041.3552018055666
40
1043.5614628263411
40
1045.7677238471156
40
1046.8708543575028
40
1047.9739848678901
40
1049.0771153782773
40
1050.1802458886646
40
1051.2833763990518
40
1052.386506909439
40
1053.4896374198263
40
1054.5927679302135
40
1055.144333185407
40
1055.6958984406008
40
1056.799028950988
40
1059.0052899717627
40
1060.10842048215
40
1060.6599857373437
40
1060.9357683649405
40
1061.2115509925375
40
1061.4873336201342
40
1061.763116247731
40
1062.038898875328
40
1062.3146815029247
40
1062.8662467581185
40
1063.417812013312
40
1063.9693772685055
40
1064.5209425236992
40
1065.0725077788929
40
1065.6240730340865
40
1066.7272035444737
40
1067.2787687996674
40
1067.8303340548609
40
1068.9334645652482
40
1070.0365950756354
40
1071.1397255860227
40
1072.2428560964099
40
1072.7944213516034
40
1073.0702039792004
40
1073.3459866067972
40
1073.8975518619909
40
1074.4491171171844
40
1075.0006823723779
40
1075.5522476275717
40
1075.8280302551684
40
1076.1038128827654
40
1076.3795955103622
40
1076.6553781379589
40
1077.2069433931524
40
1077.7585086483462
40
1078.3100739035399
40
1078.8616391587334
40
1079.4132044139269
40
1079.9647696691206
40
1081.0679001795079
40
1081.6194654347014
40
1082.1710306898951
40
1082.7225959450889
40
1083.2741612002824
40
1083.8257264554759
40
1084.3772917106696
40
1085.4804222210569
40
1086.0319874762504
40
1086.5835527314441
40
1087.6866832418314
40
1088.7898137522186
40
1089.3413790074123
40
1089.8929442626059
40
1090.4445095177994
40
1090.9960747729931
40
1091.5476400281868
40
1091.8234226557836
40
1092.0992052833803
40
1092.6507705385739
40
1093.2023357937676
40
1093.7539010489613
40
1094.3054663041548
40
1094.8570315593483
40
1095.4085968145421
40
1095.9601620697358
40
1096.5117273249293
40
1097.0632925801228
40
1097.6148578353166
40
1098.1664230905103
40
1098.7179883457038
40
1099.2695536008973
40
1099.8211188560911
40
1100.0969014836878
40
1100.3726841112848
40
1100.9242493664783
40
1102.0273798768656
40
1103.1305103872528
40
1104.23364089764
40
1104.7852061528338
40
1105.3367714080273
40
1105.8883366632208
40
1106.4399019184145
40
1106.7156845460113
40
1106.9914671736083
40
1107.5430324288018
40
1108.0945976839953
40
1108.646162939189
40
1109.1977281943828
40
1109.7492934495763
40
1110.3008587047698
40
1110.8524239599635
40
1111.4039892151573
40
1111.9555544703508
40
1112.5071197255443
40
1113.058684980738
40
1113.6102502359317
40
1114.1618154911253
40
1114.7133807463188
40
1115.2649460015125
40
1115.8165112567062
40
1116.3680765118997
40
1117.471207022287
40
1118.5743375326742
40
1119.6774680430615
40
1120.2290332982552
40
1120.7805985534487
40
1121.3321638086422
40
1121.883729063836
40
1122.9868595742232
40
1123.5384248294167
40
1124.0899900846105
40
1124.6415553398042
40
1125.1931205949977
40
1125.4689032225945
40
1125.7446858501912
40
1126.0204684777882
40
1126.296251105385
40
1126.8478163605787
40
1127.3993816157722
40
1128.5025121261597
40
1129.0540773813532
40
1129.6056426365469
40
1129.6056426365469
40
1129.6056426365469
40
1129.6056426365469
10
972.92442321777321
20
-482.81936645507784
30
0
10
974.51964677546448
20
-483.56968347188484
30
0
10
978.73656442247568
20
-482.5518535374847
30
0
10
983.62498835724818
20
-482.0509215875623
30
0
10
988.60501508803804
20
-479.66556769451296
30
0
10
996.04723355924421
20
-479.63261198931559
30
0
10
1003.3206789122518
20
-480.39992825488918
30
0
10
1010.5406453867556
20
-479.52339593475125
30
0
10
1016.3734922237259
20
-482.98938746116738
30
0
10
1020.790735550722
20
-477.1808374187861
30
0
10
1025.7339019762214
20
-482.51285376997669
30
0
10
1031.1985838075329
20
-481.51541433959608
30
0
10
1036.6743736631433
20
-483.51367544462857
30
0
10
1041.8017290281296
20
-480.79758945404302
30
0
10
1047.4165312258554
20
-482.65458082261705
30
0
10
1052.9797781134366
20
-480.94318231966417
30
0
10
1059.9765780091543
20
-484.53946701189318
30
0
10
1066.8130134249609
20
-483.1176753841342
30
0
10
1074.0649138470546
20
-481.5084384695237
30
0
10
1080.0995240266659
20
-477.80604578077509
30
0
10
1088.5866118169549
20
-477.66225601520284
30
0
10
1091.6013581862937
20
-471.41314107832301
30
0
10
1093.9687069917836
20
-467.51325337547621
30
0
10
1097.0652046663035
20
-465.03708183614657
30
0
10
1096.17502210063
20
-461.41067270842791
30
0
10
1099.9214414411595
20
-461.78092622155032
30
0
10
1101.9797030503705
20
-458.26580069685775
30
0
10
1106.7571690558079
20
-458.2259210032646
30
0
10
1111.854871410831
20
-455.08639661376947
30
0
10
1111.6486929775369
20
-448.7802140821185
30
0
10
1121.8255076727328
20
-450.6370390682448
30
0
10
1126.7531331577593
20
-444.98253151789311
30
0
10
1134.6524441786714
20
-444.72554616994506
30
0
10
1138.0660855335036
20
-441.72320133887519
30
0
10
1139.9005020036564
20
-438.42639241951383
30
0
10
1144.6817377377743
20
-440.09484406037819
30
0
10
1147.7523564319624
20
-432.99192023235611
30
0
10
1156.3365596195511
20
-429.95142532327088
30
0
10
1164.5965771386809
20
-428.76853620604902
30
0
10
1173.0077293607196
20
-430.01384760180372
30
0
10
1172.9142894601528
20
-425.21431360544034
30
0
10
1177.6580233362022
20
-425.6008932449173
30
0
10
1180.8638176926952
20
-425.20255939493182
30
0
10
1184.0068608763399
20
-422.25667099737962
30
0
10
1189.3610405954619
20
-426.15062189262886
30
0
10
1195.7063792658614
20
-424.88266785751654
30
0
10
1202.9419678949698
20
-423.74786619557472
30
0
10
1208.6821282582691
20
-426.41723490457912
30
0
10
1212.8061632381762
20
-421.85726250555086
30
0
10
1218.7902548059487
20
-424.45518587047451
30
0
10
1224.0962940576992
20
-422.24707752254579
30
0
10
1229.6317671235256
20
-423.74471085786871
30
0
10
1234.126736140174
20
-420.01209956847924
30
0
10
1236.7018518051384
20
-421.53063089680307
30
0
10
1236.0781640088387
20
-415.27191173275128
30
0
10
1243.1772095887491
20
-418.57450926696356
30
0
10
1246.2035621053219
20
-413.05365227250007
30
0
10
1250.5755455670135
20
-410.4846619621415
30
0
10
1253.6484331835277
20
-406.37233325397915
30
0
10
1256.5571599206214
20
-401.48731180073099
30
0
10
1264.2438350458842
20
-400.95840986007858
30
0
10
1266.5110784856258
20
-390.89621601828992
30
0
10
1275.3410657757743
20
-392.21098033738701
30
0
10
1276.9931036108537
20
-382.45105976354773
30
0
10
1287.2368466580765
20
-386.51036985925094
30
0
10
1291.1400779473829
20
-378.58525227392659
30
0
10
1297.0614980168721
20
-379.17125736004959
30
0
10
1302.7068106632128
20
-379.01423630217101
30
0
10
1303.8164098028251
20
-369.20185384083754
30
0
10
1317.2064504915902
20
-373.93867176721932
30
0
10
1319.8081563199719
20
-362.97185774749045
30
0
10
1322.7189679397916
20
-355.86787717740708
30
0
10
1327.571347244801
20
-354.27257510766503
30
0
10
1334.2180298461346
20
-353.74299749091631
30
0
10
1333.8461865301515
20
-347.114405282002
30
0
10
1335.7499072970393
20
-341.91230503715713
30
0
10
1341.0637455461494
20
-338.93972583549419
30
0
10
1339.5926993814944
20
-332.74885089583017
30
0
10
1347.3365590044693
20
-329.29589101838366
30
0
10
1349.1371423180985
20
-321.64043520304375
30
0
10
1350.4106660433886
20
-314.41065918413875
30
0
10
1358.1912854051563
20
-311.0384875442536
30
0
10
1357.8002184172333
20
-302.2270894580991
30
0
10
1365.2517675024333
20
-298.80794759028743
30
0
10
1367.5911401918015
20
-291.86171443957005
30
0
10
1376.3652342092005
20
-287.57367681382698
30
0
10
1384.3749416748615
20
-282.86847419325505
30
0
10
1385.1357180905093
20
-274.06562054216135
30
0
10
1391.849965757262
20
-273.92667726785271
30
0
10
1391.7761014152825
20
-267.65572769567393
30
0
10
1397.3492428261393
20
-262.64157521610122
30
0
10
1402.5884157957571
20
-257.67615974340146
30
0
10
1405.5292740002892
20
-250.95359741703899
30
0
10
1411.4186515882961
20
-248.7926746319242
30
0
10
1412.303448893636
20
-242.63949062428611
30
0
10
1420.1272265511202
20
-240.56987710095117
30
0
10
1428.380900557117
20
-235.59476975512962
30
0
10
1430.574579629596
20
-224.58595099419603
30
0
10
1430.8382345035734
20
-213.84164899310079
30
0
10
1432.2416880044084
20
-203.90293254592842
30
0
10
1437.34484224316
20
-199.97972254217308
30
0
10
1445.2471599375581
20
-198.13162142133575
30
0
10
1447.7386924644138
20
-188.38221054461613
30
0
10
1449.5589650734987
20
-181.00743528362125
30
0
10
1448.5501022318588
20
-170.68970952560832
30
0
10
1455.9598039914117
20
-173.91485034380707
30
0
10
1459.9326437630361
20
-171.22008590311509
30
0
10
1462.7953204363373
20
-166.50041407779378
30
0
10
1463.292982685919
20
-159.55110304500982
30
0
10
1470.7908939734621
20
-161.81139852118449
30
0
10
1469.7133599414667
20
-156.82603196573467
30
0
10
1472.496651661435
20
-155.43839767874115
30
0
10
1475.6304939731085
20
-155.59920386255419
30
0
10
1476.134012703621
20
-152.13253513903649
30
0
10
1473.7064029209103
20
-149.05123491873053
30
0
10
1477.1682466928833
20
-148.53429782769365
30
0
10
1479.7348298694055
20
-147.35610817984985
30
0
10
1479.9510200338043
20
-143.27591964786276
30
0
10
1482.0188879684781
20
-139.31980858316092
30
0
10
1489.1683331564298
20
-136.39702509617746
30
0
10
1487.1887298566721
20
-125.63427535654012
30
0
10
1496.7032490100064
20
-125.34585436527829
30
0
10
1497.1371708366605
20
-116.92340451038137
30
0
10
1499.3222297579832
20
-108.65055883882704
30
0
10
1507.505335302485
20
-108.43994432137086
30
0
10
1511.15735147538
20
-104.55392441464859
30
0
10
1512.7220253868127
20
-98.494491753169783
30
0
10
1519.71725246298
20
-99.683615749571175
30
0
10
1522.2577087013121
20
-95.009876942999682
30
0
10
1524.8029888732167
20
-92.546823324633039
30
0
10
1522.4185364886196
20
-89.871915421396338
30
0
10
1527.3088995664739
20
-89.832155024853932
30
0
10
1527.5616509585125
20
-85.518211553617093
30
0
10
1527.4815244707236
20
-81.143071902361498
30
0
10
1530.0150779387616
20
-76.969824240773931
30
0
10
1531.5976026981075
20
-73.75866706390066
30
0
10
1536.2100097677012
20
-75.003839518152077
30
0
10
1539.0141516370441
20
-68.322758637730985
30
0
10
1543.0458339410541
20
-74.51121119173834
30
0
10
1546.7867123882627
20
-76.530048064087538
30
0
10
1554.4598792449572
20
-80.112477111281052
30
0
10
1552.7585662256015
20
-90.748822193432076
30
0
10
1553.2566192952008
20
-100.18802237384537
30
0
10
1558.822916432011
20
-104.64922537427456
30
0
10
1559.0621633956985
20
-111.61111171200903
30
0
10
1555.2514461773646
20
-115.33449620547094
30
0
10
1555.0663082068622
20
-122.50595960702093
30
0
10
1559.0881726126725
20
-133.7162714731281
30
0
10
1545.0112761218988
20
-135.31939623713615
30
0
10
1537.8599066423599
20
-125.32388258068828
30
0
10
1547.6761870308492
20
-115.50183670796793
30
0
10
1539.9720633311219
20
-110.96867444228417
30
0
10
1535.7086341377212
20
-113.5563841753474
30
0
10
1529.566927034316
20
-114.44698704981086
30
0
10
1530.3105790939062
20
-123.45652822512108
30
0
10
1528.5220479448367
20
-129.57826844634855
30
0
10
1525.3128937745998
20
-137.18275538960742
30
0
10
1529.5179294301611
20
-141.20473353129108
30
0
10
1528.8475287737947
20
-150.42397839372762
30
0
10
1535.6837580151523
20
-144.26976549160801
30
0
10
1536.9712049028919
20
-152.46967485119515
30
0
10
1542.5506157524558
20
-154.05009544840564
30
0
10
1546.3405628926296
20
-154.36458861180694
30
0
10
1551.4250222363341
20
-154.66403828714235
30
0
10
1550.2850902627597
20
-150.16099171330677
30
0
10
1554.1401052750457
20
-152.20332432184736
30
0
10
1556.8524490424106
20
-148.81877694876934
30
0
10
1559.2254223724003
20
-145.09870372719931
30
0
10
1565.3957911658035
20
-146.75460316543771
30
0
10
1570.496859559204
20
-147.10337440353001
30
0
10
1575.6245959689388
20
-145.57408673942194
30
0
10
1581.2209696146433
20
-146.79008620931356
30
0
10
1584.6991390876715
20
-141.63945550721388
30
0
10
1582.5394359403424
20
-134.11202330758383
30
0
10
1581.0065024774217
20
-125.50896432716814
30
0
10
1579.958100802387
20
-115.57422624854617
30
0
10
1583.1076393430951
20
-110.35570892814721
30
0
10
1581.1081868213475
20
-105.77140406589567
30
0
10
1584.452301709365
20
-104.48017478864288
30
0
10
1586.9811334899559
20
-101.50282637653163
30
0
10
1590.4313043916104
20
-100.71285900764553
30
0
10
1589.778460392401
20
-95.676927694555417
30
0
10
1595.0627747630724
20
-94.607188465394472
30
0
10
1597.0434079769598
20
-89.116490298438265
30
0
10
1593.2514172787187
20
-82.132708777810166
30
0
10
1598.4067095387761
20
-83.656422964182568
30
0
10
1599.4581614371937
20
-79.173987758029114
30
0
10
1591.9799723360095
20
-80.491687984963477
30
0
10
1592.4389133630641
20
-73.263555840552385
30
0
10
1592.1936918096387
20
-68.166605820739065
30
0
10
1592.2459402111222
20
-63.559522082808684
30
0
10
1588.6543387374472
20
-60.1394624676673
30
0
10
1591.5873035799586
20
-57.232962343715116
30
0
10
1588.9888137241969
20
-52.643448981661898
30
0
10
1591.9101300288401
20
-49.192055176966662
30
0
10
1586.8364645958263
20
-43.596254832441744
30
0
10
1591.504298171491
20
-45.74477213327544
30
0
10
1589.7403159899809
20
-37.646883707111336
30
0
10
1591.4831446488813
20
-31.812154501157075
30
0
10
1592.193989620851
20
-24.418524021812829
30
0
10
1589.9590107861329
20
-16.175545674898835
30
0
10
1583.3692808001397
20
-16.914291404323865
30
0
10
1583.5249916171397
20
-9.8622089276296485
30
0
10
1583.1070019551889
20
-4.7405053331488478
30
0
10
1582.0449389818605
20
-0.23460634434686239
30
0
10
1581.2604142142379
20
4.0623385671941072
30
0
10
1577.3527688333772
20
3.1581583187606266
30
0
10
1577.9154776197283
20
7.1513480959536135
30
0
10
1575.0434795519027
20
9.0073019996259234
30
0
10
1575.6813935975551
20
13.892788733063718
30
0
10
1574.0933790573943
20
20.036223380053222
30
0
10
1579.2889789323522
20
19.479933889047814
30
0
10
1577.0943898780238
20
23.673948167170238
30
0
10
1575.9253623093084
20
26.044468611711842
30
0
10
1581.1797026456272
20
26.299120583410669
30
0
10
1581.7780493686291
20
31.745694734366296
30
0
10
1588.0746481556794
20
31.412178604510359
30
0
10
1588.1019963747585
20
36.242119143116639
30
0
10
1592.2813328623897
20
36.505479216708906
30
0
10
1596.4121825863608
20
34.773035829434619
30
0
10
1604.3529655312398
20
31.233775466401728
30
0
10
1599.1908273905847
20
22.515886616247176
30
0
10
1600.8698029302259
20
15.743211065503237
30
0
10
1603.3672773897974
20
10.636943611085549
30
0
10
1605.2714472111707
20
5.9074636744727771
30
0
10
1613.4476680059106
20
5.4276014757167834
30
0
10
1612.1956671746839
20
11.465587462722237
30
0
10
1615.1545083775316
20
18.204227957026085
30
0
10
1613.8453952877373
20
26.083065246227861
30
0
10
1609.6662156520215
20
32.474694798292973
30
0
10
1600.669367745935
20
30.20601715828078
30
0
10
1598.6785879324234
20
41.245053693163634
30
0
10
1596.861158115722
20
49.530712841057451
30
0
10
1593.7214409624985
20
56.516099667168625
30
0
10
1586.1164477431703
20
58.253630924035591
30
0
10
1587.9597827890018
20
71.183605287767193
30
0
10
1596.4276048223182
20
75.707110573116665
30
0
10
1598.4076553639784
20
87.491842111335814
30
0
10
1606.4332682435229
20
86.447710237334277
30
0
10
1613.5875455783228
20
86.745606670012478
30
0
10
1620.9404107612136
20
86.261187829751137
30
0
10
1628.137000190957
20
88.504187098994706
30
0
10
1632.2406105262494
20
88.020084154798823
30
0
10
1635.2570434729262
20
81.480223120753422
30
0
10
1637.7105556371844
20
79.026756904067497
30
0
10
1643.1091033624773
20
76.171270308035758
30
0
10
1641.0367429321161
20
78.815040284985571
30
0
10
1641.142976803746
20
82.211873900458428
30
0
10
1647.2593135832276
20
83.152447429744285
30
0
10
1652.5970643237711
20
87.651175866693308
30
0
10
1653.6785242472683
20
95.057506012293771
30
0
10
1659.756735001552
20
99.797882186585767
30
0
10
1659.1002597641982
20
110.28238991474545
30
0
10
1658.1917602863994
20
120.75271702495272
30
0
10
1655.4735557036861
20
129.0013338214932
30
0
10
1656.744871905438
20
137.55499619278274
30
0
10
1662.1493663829301
20
139.32891844427675
30
0
10
1661.9041146136465
20
145.98608476245892
30
0
10
1664.1810381266839
20
150.98654300792583
30
0
10
1667.8712278056228
20
154.55777916355214
30
0
10
1676.0474757244003
20
155.76975695816657
30
0
10
1677.3821094582895
20
164.11614091210282
30
0
10
1678.247688092888
20
172.31325639728772
30
0
10
1686.4523000502575
20
173.16686654907161
30
0
10
1687.6827610690543
20
184.07449213721247
30
0
10
1688.4518438322552
20
194.44428231001672
30
0
10
1685.7452238713681
20
205.49825556559054
30
0
10
1689.8614561176694
20
214.7080582895415
30
0
10
1694.2945235710047
20
219.3522203212282
30
0
10
1702.7727491550713
20
220.56403588006063
30
0
10
1700.5250014378489
20
229.74926340842259
30
0
10
1697.3449011763269
20
236.09852642640192
30
0
10
1691.2585191091389
20
237.12110493666685
30
0
10
1690.7429734242232
20
243.38850936006622
30
0
10
1687.1157596366065
20
247.88127208870867
30
0
10
1682.1152697841007
20
250.14002316414621
30
0
10
1677.3649972257349
20
253.31188347260607
30
0
10
1672.5925522274397
20
254.88832468255077
30
0
10
1664.0410284596421
20
254.17836945682663
30
0
10
1663.2717659342215
20
264.94951529787494
30
0
10
1654.9507439331808
20
263.97566177491547
30
0
10
1649.410970478091
20
265.95718474628035
30
0
10
1644.4823916691917
20
262.5078166524512
30
0
10
1637.0622453677688
20
263.79135727667483
30
0
10
1628.4494610647698
20
260.15024609054217
30
0
10
1617.4424298283791
20
266.02186534183193
30
0
10
1618.4138685973362
20
279.04239881655803
30
0
10
1608.4324952242905
20
283.16174032393388
30
0
10
1606.6380440662908
20
291.21421320870581
30
0
10
1599.5338867003445
20
294.28035268220361
30
0
10
1598.5428388192483
20
305.29002413318301
30
0
10
1600.1351256645462
20
314.49742827457163
30
0
10
1600.4455521412797
20
326.48082227552163
30
0
10
1608.6961043653996
20
324.88113976150834
30
0
10
1613.8629685146564
20
327.04560082324338
30
0
10
1618.1143241336476
20
330.61388877647778
30
0
10
1616.0352473570563
20
338.54443794419859
30
0
10
1617.0876545172521
20
348.42904750828234
30
0
10
1601.6122149829985
20
346.79491772610481
30
0
10
1598.4546261635728
20
358.62377779823981
30
0
10
1596.8290212670631
20
368.22199896469738
30
0
10
1598.7603380405726
20
379.94105388232441
30
0
10
1589.9851383300904
20
381.32691156384897
30
0
10
1587.9941598869573
20
385.56427574867894
30
0
10
1585.6787693283509
20
391.56271473394372
30
0
10
1576.7225820656899
20
391.3987527714815
30
0
10
1579.6170736458048
20
406.7846316106984
30
0
10
1564.8464446144794
20
403.87131390769764
30
0
10
1557.9150452211416
20
413.81214016042304
30
0
10
1547.8659429752361
20
417.4195170488041
30
0
10
1536.9998944231988
20
414.80280582468936
30
0
10
1534.7757410303889
20
422.80257707236342
30
0
10
1538.9538222337496
20
424.30562413756638
30
0
10
1538.6080900492379
20
427.75560923730961
30
0
10
1540.5393911070591
20
429.68512160093246
30
0
10
1545.4059066747741
20
428.52177597208146
30
0
10
1545.9837481736088
20
436.84234683938718
30
0
10
1546.0242551192691
20
444.72036952638911
30
0
10
1552.8896370286136
20
453.8666733324178
30
0
10
1560.4275554657515
20
451.44679366863443
30
0
10
1567.9431141362302
20
451.0651097232934
30
0
10
1571.5403034313033
20
442.54627214614743
30
0
10
1579.1014188064571
20
443.04106281107636
30
0
10
1587.6229440472187
20
441.94553810479044
30
0
10
1587.5432230593451
20
451.5224422593958
30
0
10
1585.8037692649489
20
459.59393572424204
30
0
10
1579.0878575992726
20
459.07820160560249
30
0
10
1576.1802997865111
20
465.01658370902487
30
0
10
1569.5196908719411
20
463.63414770693049
30
0
10
1567.1574287203775
20
470.4447162017504
30
0
10
1560.6987487863898
20
468.85188503892891
30
0
10
1555.5949456440542
20
468.95752452726731
30
0
10
1553.1809847410232
20
477.75897006939999
30
0
10
1550.3259483946467
20
485.4558625847103
30
0
10
1547.2275492718722
20
496.11618064603124
30
0
10
1544.8974619553946
20
507.10387262025495
30
0
10
1546.7891571228154
20
517.39407986721676
30
0
10
1546.4251357803219
20
528.50795286596224
30
0
10
1538.1042788012251
20
530.26553666816289
30
0
10
1538.5117057937414
20
537.63394969081537
30
0
10
1542.7580866756034
20
537.11163192508809
30
0
10
1544.7407325900081
20
540.99550270868792
30
0
10
1545.4135696041913
20
547.11609686647512
30
0
10
1541.8628296037525
20
555.81457238402118
30
0
10
1546.9543907775264
20
567.4588762206879
30
0
10
1538.5775454744933
20
575.50762229441034
30
0
10
1532.062012162846
20
584.16697443623343
30
0
10
1523.0907417956046
20
590.21111126949233
30
0
10
1514.4495134559472
20
594.13568785464747
30
0
10
1507.2888052437829
20
591.2621417940635
30
0
10
1502.0511641560959
20
592.69708017011578
30
0
10
1495.5969657485612
20
591.81109558377307
30
0
10
1493.521665320704
20
597.56872134688388
30
0
10
1489.6343059996277
20
601.61544679514088
30
0
10
1484.5482062794599
20
603.11901705139383
30
0
10
1483.3045208249075
20
609.59778852591182
30
0
10
1477.4716291808045
20
611.55555187903769
30
0
10
1471.7328757748642
20
610.66662716073643
30
0
10
1468.5406290162355
20
613.08815602521986
30
0
10
1462.5020635394551
20
612.22638064400621
30
0
10
1467.5275636912488
20
607.25714106697001
30
0
10
1460.7986453834751
20
613.06491464666408
30
0
10
1458.518610929302
20
615.498321419636
30
0
10
1457.8968482276809
20
622.60718351505091
30
0
10
1450.8633880558411
20
620.77511945875347
30
0
10
1444.4152149945198
20
624.90693432740568
30
0
10
1434.8169155256946
20
619.02747178841537
30
0
10
1425.2590542683038
20
626.39677369818071
30
0
10
1414.1728318740024
20
622.69794915038096
30
0
10
1403.0110708444972
20
622.39854637202507
30
0
10
1393.65214623064
20
622.12804117408655
30
0
10
1379.9694495739059
20
621.98178912410151
30
0
10
1384.9304955649613
20
630.95232773743373
30
0
10
1380.1861486539819
20
634.08295738451511
30
0
10
1374.1025241031289
20
633.61377423018348
30
0
10
1369.1122489260551
20
633.70156496382367
30
0
10
1362.1935946914914
20
634.19940227801487
30
0
10
1361.9313157311017
20
627.77361652303057
30
0
10
1355.5507670239169
20
625.87520949661871
30
0
10
1352.2731889979846
20
630.64090905280921
30
0
10
1349.4308050606719
20
635.99319821738629
30
0
10
1346.3156560297193
20
638.48819334003952
30
0
10
1335.3206614859539
20
638.22483045736271
30
0
10
1345.0057908315773
20
638.68439322755899
30
0
10
1333.7022799855963
20
647.27211306331753
30
0
10
1342.8661962673075
20
647.37973829207488
30
0
10
1339.6636445514662
20
655.03320782575406
30
0
10
1343.8017216922867
20
657.72637552812637
30
0
10
1347.1651339349078
20
660.64910432470595
30
0
10
1351.1509444768697
20
661.54018798380571
30
0
10
1350.2110636172947
20
665.62088270070149
30
0
10
1353.9447381985037
20
665.21834951100664
30
0
10
1356.3249842912414
20
668.33883396672127
30
0
10
1362.423250312504
20
665.3413024874402
30
0
10
1365.1687189511983
20
671.05621265961599
30
0
10
1366.8186202118168
20
675.66292207638662
30
0
10
1368.6639818646772
20
681.42428898813523
30
0
10
1376.8329435993724
20
681.81543132721231
30
0
10
1383.3403093576055
20
685.02722745655183
30
0
10
1390.2575480961546
20
685.40790766424448
30
0
10
1395.0189448092817
20
687.37861955676703
30
0
10
1396.2592983993534
20
690.98372976187875
30
0
10
1400.9328588283131
20
689.5723733459422
30
0
10
1404.9710808484924
20
692.31105249759617
30
0
10
1406.5571837955465
20
698.21674124864239
30
0
10
1412.9035549332934
20
701.16876805536299
30
0
10
1420.0172858810561
20
702.55381509963422
30
0
10
1427.4041711536177
20
701.42966669957502
30
0
10
1429.9134432664368
20
704.24953234868394
30
0
10
1427.0552261732901
20
708.11136548501622
30
0
10
1432.8078713949994
20
711.60069204256047
30
0
10
1436.5718313192917
20
712.08396983599926
30
0
10
1443.2549678181158
20
712.37428482838254
30
0
10
1444.3733616976303
20
717.92467196304301
30
0
10
1449.1196903983566
20
716.89915070128961
30
0
10
1449.9163495933699
20
720.50788599913335
30
0
10
1449.3011518747753
20
723.18994473025111
30
0
10
1452.7525918935421
20
725.81040153296669
30
0
10
1451.441024276819
20
730.75064431894066
30
0
10
1455.1352638543385
20
737.49487970151961
30
0
10
1453.9514409729691
20
746.8779325898347
30
0
10
1454.5490019093154
20
757.97214912023765
30
0
10
1457.1607579686251
20
768.38402196453671
30
0
10
1458.8741138422065
20
779.8640912120884
30
0
10
1451.2613393950819
20
788.71180895459986
30
0
10
1448.1093146766175
20
798.57544173694782
30
0
10
1445.8037097594224
20
808.33062142278004
30
0
10
1437.3460602884625
20
810.00307924349363
30
0
10
1432.7308102019947
20
807.19178333959746
30
0
10
1429.7488214631587
20
801.98503682052149
30
0
10
1423.4018757592216
20
803.21779706438417
30
0
10
1419.7244413947324
20
801.1552097986231
30
0
10
1414.8671087435321
20
801.39004274025399
30
0
10
1414.0665953447542
20
799.07530908063427
30
0
10
1414.9449798881417
20
795.2905256119742
30
0
10
1410.4693609266085
20
795.75850203288655
30
0
10
1410.9514112563907
20
792.71544440707521
30
0
10
1407.3662113457101
20
788.88690274028409
30
0
10
1410.3189310002385
20
779.77468405641503
30
0
10
1405.4722418683509
20
769.5251208076993
30
0
10
1396.3424966490379
20
772.2381617176934
30
0
10
1393.8314123341052
20
765.1924792120833
30
0
10
1392.1286340602012
20
755.9833422028712
30
0
10
1394.7136039265301
20
747.21594277224369
30
0
10
1394.9030129393614
20
739.67397569614582
30
0
10
1394.3905806789762
20
734.40649721855937
30
0
10
1391.290975290442
20
728.9384508989998
30
0
10
1385.7135155200513
20
730.63486111054613
30
0
10
1378.8979790391056
20
731.67326990625372
30
0
10
1378.6515169115337
20
724.69318461149464
30
0
10
1372.1551125419624
20
723.77451970078437
30
0
10
1367.3889576757247
20
724.69610664723461
30
0
10
1364.591489561594
20
721.57213897673205
30
0
10
1360.9822667167316
20
723.63579736472616
30
0
10
1359.7343471542897
20
723.28948169154683
30
0
10
1360.7397844057446
20
717.25750461197936
30
0
10
1353.6496030935609
20
718.89481305805907
30
0
10
1352.8751474475382
20
711.91417000620379
30
0
10
1346.8804822807317
20
709.60707280900488
30
0
10
1340.0830342324118
20
712.69830223351687
30
0
10
1333.8337611882503
20
717.94078473781042
30
0
10
1326.0831088811935
20
714.24961308787783
30
0
10
1321.434708735477
20
716.64460930195628
30
0
10
1316.2030508529031
20
718.50606340936849
30
0
10
1310.9394328241783
20
719.75481296491751
30
0
10
1304.6870763980942
20
718.55891285830171
30
0
10
1303.0123743557865
20
726.28938714691662
30
0
10
1296.6901160530242
20
724.61051768451671
30
0
10
1289.6751314180729
20
728.28364667565188
30
0
10
1288.6993434976898
20
738.37445137698182
30
0
10
1289.5447300262804
20
749.09008437036789
30
0
10
1289.9180228319738
20
760.18655241623287
30
0
10
1289.1223814026896
20
771.17826192292796
30
0
10
1291.3336002127826
20
782.0127846404597
30
0
10
1290.5828072595095
20
792.60136513383009
30
0
10
1293.1223394773201
20
804.16804574939817
30
0
10
1304.2167540027153
20
807.74173431165821
30
0
10
1313.3853237712983
20
813.43450277400382
30
0
10
1324.8361618255149
20
813.21058361785902
30
0
10
1332.4014954195623
20
819.78297856457925
30
0
10
1331.8426110062408
20
828.94226468775514
30
0
10
1338.5187276462925
20
827.26063040079089
30
0
10
1338.3577618248896
20
832.18998526349412
30
0
10
1341.920588319641
20
834.27988416057246
30
0
10
1340.4451605076342
20
838.98125662551047
30
0
10
1340.4393940348177
20
846.74102688672042
30
0
10
1348.9048437342517
20
843.1876812433336
30
0
10
1344.8248909560687
20
851.28769890629667
30
0
10
1340.2463087936687
20
855.62730531885461
30
0
10
1337.3985735023543
20
865.99357940664072
30
0
10
1325.8642294870813
20
863.26515532934059
30
0
10
1319.8521231949801
20
868.13268361731548
30
0
10
1312.2381182450815
20
867.4453056773865
30
0
10
1299.4524256335731
20
868.03431889252784
30
0
10
1285.233094226639
20
867.05772099977014
30
0
10
1269.2135599454662
20
868.80929278660483
30
0
10
1263.3326026573345
20
864.57441593988869
30
0
10
1252.64942518573
20
865.50719905732103
30
0
10
1255.0721989836784
20
860.76316335564172
30
0
10
1250.8580145776546
20
861.22842939604641
30
0
10
1246.7526494214469
20
858.59147402373662
30
0
10
1244.0869764080849
20
853.42009067534627
30
0
10
1238.8845878573197
20
851.83065523443474
30
0
10
1233.566748004946
20
851.35716939994791
30
0
10
1228.0955546211753
20
848.54141959023286
30
0
10
1228.1875123920063
20
841.35650601402165
30
0
10
1222.544720866638
20
843.25989635067094
30
0
10
1219.7078384444176
20
840.04166579477157
30
0
10
1215.2727523031569
20
841.52097680607767
30
0
10
1213.9936828770458
20
836.09146283710038
30
0
10
1208.9950431714619
20
833.52729335984111
30
0
10
1207.4156763417996
20
828.04498582467488
30
0
10
1206.399646345682
20
822.25881182916032
30
0
10
1211.4405277091739
20
818.46413297673291
30
0
10
1211.7123349204849
20
806.82407126387159
30
0
10
1214.25254492927
20
794.38319347822301
30
0
10
1210.4585447115019
20
782.01257878450087
30
0
10
1210.1807830659993
20
774.54347913958691
30
0
10
1216.0154654633507
20
768.47614890198258
30
0
10
1212.9098070263512
20
760.84314122998182
30
0
10
1213.6213422730411
20
753.26052831252525
30
0
10
1209.1833043383929
20
749.05569110554336
30
0
10
1205.2808294512402
20
747.56980857665803
30
0
10
1202.6997832994839
20
739.26006385170797
30
0
10
1198.7625557127124
20
746.92722859153935
30
0
10
1189.923161521592
20
745.29369615778796
30
0
10
1193.4036397660377
20
762.28783555107634
30
0
10
1177.6458839753307
20
755.35987350559571
30
0
10
1177.5667247344134
20
764.1530164787747
30
0
10
1172.1613696054171
20
766.61566713474724
30
0
10
1169.5749192206954
20
770.83242493907755
30
0
10
1168.9931174082076
20
776.53195113833453
30
0
10
1169.8928126348619
20
782.0288164881207
30
0
10
1166.7814745048183
20
787.46990369898867
30
0
10
1160.5326091259351
20
787.74947232994191
30
0
10
1159.3328737002787
20
795.0392365981794
30
0
10
1152.7723514060649
20
794.75453593372151
30
0
10
1148.8484715751524
20
801.800313459976
30
0
10
1136.4228059272534
20
800.88963007797759
30
0
10
1138.1683002148279
20
813.74186602613975
30
0
10
1130.4485598102781
20
817.01682956558386
30
0
10
1129.8497120093928
20
822.59404291238525
30
0
10
1129.6023488018639
20
828.09240821639219
30
0
10
1134.6553299727059
20
835.11322525640321
30
0
10
1121.9370633065946
20
839.3321006047837
30
0
10
1114.4946173566209
20
840.45288844014283
30
0
10
1106.3443577204462
20
841.80104947542247
30
0
10
1104.8574598485625
20
848.66098595031031
30
0
10
1099.2756813000337
20
848.69952252094095
30
0
10
1096.1194565312151
20
853.50138111101148
30
0
10
1092.9997110143827
20
858.48922012150058
30
0
10
1085.1642852576706
20
858.43351038324704
30
0
10
1074.745553425005
20
860.40693627273026
30
0
10
1072.5374754073052
20
845.15299573064226
30
0
10
1059.7985755556488
20
847.33450836351903
30
0
10
1051.367311437984
20
844.3430948941085
30
0
10
1044.277473938304
20
843.76360585972691
30
0
10
1038.3029731191602
20
838.96337510613148
30
0
10
1030.7328124830483
20
838.17206456096665
30
0
10
1023.4003076825549
20
839.13264459417996
30
0
10
1018.9877717789018
20
835.48802285945624
30
0
10
1014.3199874175596
20
831.91166773985765
30
0
10
1007.4282034823146
20
833.27115085905916
30
0
10
1001.2933871119066
20
842.42750668055987
30
0
10
991.24241116154224
20
840.22746156642609
30
0
10
984.42104561451447
20
842.76575107155008
30
0
10
978.94263525605993
20
838.36879792833793
30
0
10
974.43339224180045
20
842.91369716442489
30
0
10
966.97560477472734
20
842.1961963493294
30
0
10
957.74167919491424
20
844.74133982878107
30
0
10
951.81419027252468
20
852.65767570065464
30
0
10
954.40052456915873
20
859.86495621368272
30
0
10
951.75498768162754
20
866.02020375647135
30
0
10
945.52752854873131
20
864.68047722531583
30
0
10
938.63792250723873
20
867.01464060695298
30
0
10
929.70512873557527
20
867.91018378978197
30
0
10
914.95266695853911
20
867.57839024452903
30
0
10
896.29965067848411
20
868.20294443143644
30
0
10
880.7008153018329
20
866.63700852180625
30
0
10
868.42155275650612
20
868.62983641429241
30
0
10
864.9358821550893
20
865.46256688117171
30
0
10
858.84893190885214
20
864.4786420618484
30
0
10
858.05455175053476
20
856.18420488198444
30
0
10
856.87245958688038
20
848.67760950730735
30
0
10
848.72473837397251
20
846.30507138002031
30
0
10
846.736973605706
20
841.25834550349907
30
0
10
842.70749273295019
20
836.83819588883193
30
0
10
843.85515910130732
20
831.25633052806052
30
0
10
843.54291405481274
20
825.21477922877864
30
0
10
838.16686492139252
20
820.39781752247734
30
0
10
838.49931119402243
20
810.09808429154577
30
0
10
831.7672061722842
20
803.73871043384747
30
0
10
828.55679160614102
20
796.30237272133013
30
0
10
822.11184270762806
20
797.44913885024152
30
0
10
817.5324130718152
20
794.13069976578879
30
0
10
809.34519881634856
20
794.00127061867329
30
0
10
807.51333362311254
20
783.20086014009939
30
0
10
798.44104386786489
20
787.70260760781127
30
0
10
792.91551017361837
20
782.31486145042641
30
0
10
783.71280760031584
20
788.18786368289818
30
0
10
779.68296171957854
20
782.09275310218891
30
0
10
775.36403550094883
20
784.20390451626179
30
0
10
770.95624917594228
20
780.27242504943706
30
0
10
764.13684124114434
20
782.53142274528182
30
0
10
756.60886150686792
20
781.41395811496204
30
0
10
750.48856355752446
20
786.29266193493686
30
0
10
740.55766590261214
20
784.6403791136679
30
0
10
733.19330146994787
20
790.49944459707058
30
0
10
727.28463680146422
20
794.74331608329908
30
0
10
720.85121497246996
20
792.72130556938453
30
0
10
717.85098774127982
20
798.49833611769304
30
0
10
711.86992833473369
20
798.56840319893217
30
0
10
707.00740887421057
20
801.34259498613585
30
0
10
698.94660409110031
20
799.13390284191962
30
0
10
693.39895340787734
20
805.47071536229339
30
0
10
685.27660028781747
20
804.43224885737663
30
0
10
681.48771406875517
20
809.00916945943618
30
0
10
679.68059380713714
20
814.18636442312709
30
0
10
671.78289952183763
20
816.19573903920946
30
0
10
666.61830330125349
20
821.28423060109253
30
0
10
661.18872849273032
20
826.29190408450199
30
0
10
660.73285179502591
20
834.15754574766925
30
0
10
658.17803275028211
20
840.49745641045979
30
0
10
658.94758236383166
20
849.09304781894457
30
0
10
651.39360750543642
20
849.61059758293504
30
0
10
650.48321505806382
20
856.02155725866055
30
0
10
645.81610550928622
20
858.31178213924375
30
0
10
647.87318712478395
20
863.59307834057904
30
0
10
643.31010513373042
20
863.47342219343591
30
0
10
642.33940621367037
20
869.3891976963755
30
0
10
635.54034590406729
20
867.30069775176662
30
0
10
628.5927274248379
20
867.96319003460383
30
0
10
615.48165592770249
20
867.56535828817414
30
0
10
589.87306424358803
20
867.83299081502832
30
0
10
553.36002558963651
20
867.81784181076569
30
0
10
494.40435688804791
20
867.67932996000127
30
0
10
420.92225472530583
20
867.74722183380675
30
0
10
332.65219626680499
20
867.72551855023562
30
0
10
259.11562246964894
20
867.72997095500102
30
0
10
200.27979155970206
20
867.73102730630342
30
0
10
156.15954904295137
20
867.72581320266283
30
0
10
119.37331634005282
20
867.74253332856711
30
0
10
89.98748829833437
20
867.70835610339816
30
0
10
67.830261269878051
20
867.81274403339512
30
0
10
49.74078419065971
20
867.48613597107578
30
0
10
36.340809500210085
20
868.07105796660835
30
0
10
29.763559918847115
20
867.21585129224547
30
0
10
22.446705832161115
20
869.18019359904849
30
0
10
23.941223419354852
20
861.32903782947324
30
0
10
23.350625778482296
20
854.96822218215107
30
0
10
23.735466513295734
20
841.4416334464895
30
0
10
23.519770268078311
20
823.4243083521485
30
0
10
23.588655630618348
20
801.24402126076143
30
0
10
23.566381025126365
20
771.8657242317729
30
0
10
23.575148791438348
20
735.07595219771872
30
0
10
23.581119830644361
20
690.95622071260652
30
0
10
23.535245862113079
20
632.12332723043858
30
0
10
23.821484579154415
20
573.27395284887416
30
0
10
23.151761755082347
20
514.47895979201166
30
0
10
24.846328268109467
20
477.60986990231083
30
0
10
21.803376936437886
20
452.04622510053593
30
0
10
27.095308096885454
20
438.98657242520926
30
0
10
22.913659975332315
20
432.36362812973823
30
0
10
24.719614317064419
20
421.1080607926574
30
0
10
22.923123754803942
20
404.64750056246743
30
0
10
24.43556891536528
20
382.92008740997471
30
0
10
21.390402878688441
20
363.32128647363152
30
0
10
26.040826962665626
20
353.38779345827004
30
0
10
27.346695014062142
20
346.7804221637
30
0
10
31.51350820417235
20
347.69194333624398
30
0
10
35.528980483450759
20
345.15535688308341
30
0
10
34.937646178769171
20
339.3444999032738
30
0
10
39.649219384510495
20
339.03059357121504
30
0
10
38.983705997122691
20
343.99146465907404
30
0
10
42.34976022487082
20
341.4364294795663
30
0
10
44.748116872903942
20
342.42999327454629
30
0
10
48.4670110628239
20
342.0677497502009
30
0
10
47.85399791929818
20
337.85505236520555
30
0
10
49.55033680095633
20
333.19205930217458
30
0
10
46.413494450134337
20
329.26805440723126
30
0
10
43.663824965035516
20
322.49532677202683
30
0
10
39.093254158667349
20
328.23034744195309
30
0
10
34.919561193668471
20
331.52111077061431
30
0
10
33.325386466412027
20
336.29700174342332
30
0
10
26.457669932468775
20
341.16621613921484
30
0
10
27.693511341313169
20
332.84881546347754
30
0
10
25.550088227882792
20
328.40873557189781
30
0
10
25.386677789420624
20
320.76617252026386
30
0
10
24.482400050644841
20
311.79152196936974
30
0
10
23.168928890645546
20
300.75752786462624
30
0
10
24.688634735233258
20
286.11774881630384
30
0
10
24.300268453885721
20
271.3849348914606
30
0
10
26.017508918119585
20
258.62417365863791
30
0
10
27.72745143974911
20
251.53051073722042
30
0
10
26.396847506440075
20
245.63658773270009
30
0
10
29.612427293327663
20
239.91208877995987
30
0
10
34.692066632953107
20
247.15382174947138
30
0
10
40.721612767726768
20
240.07787288248377
30
0
10
43.447093558003012
20
246.1049998973904
30
0
10
47.78310059339168
20
243.88669309266717
30
0
10
50.346522489245622
20
248.23504511528458
30
0
10
54.65338865233101
20
243.35426753960573
30
0
10
60.055870197351453
20
246.20569941285285
30
0
10
70.875347289524328
20
242.58466559855574
30
0
10
82.146705071351889
20
247.17325474778818
30
0
10
92.070495190051886
20
243.1378606342243
30
0
10
95.778298212642284
20
245.39057135038519
30
0
10
98.084802270461296
20
241.32081367752446
30
0
10
103.42935973223246
20
242.26322951133895
30
0
10
107.12435541292433
20
238.40150566178409
30
0
10
108.08734688710854
20
232.93965817640142
30
0
10
112.68744745959091
20
233.67248025632529
30
0
10
113.55048178655437
20
229.16673098396427
30
0
10
115.8430111357824
20
225.04319212486166
30
0
10
112.31855143866713
20
220.37255078287498
30
0
10
115.54619639895319
20
214.08732556798265
30
0
10
110.75762957268957
20
214.80909855540381
30
0
10
109.14421580530905
20
221.0494399766468
30
0
10
107.46785642750403
20
214.11572408817651
30
0
10
102.24817735463391
20
214.41613378023254
30
0
10
97.306020071940168
20
211.64870681256517
30
0
10
90.038387726237033
20
215.65738663500048
30
0
10
83.163702716485545
20
214.53203193977754
30
0
10
74.709721152122597
20
214.57785886720609
30
0
10
74.601357854493187
20
222.30959263865594
30
0
10
68.340107642587284
20
222.7341776704352
30
0
10
61.200442751695121
20
222.49876004252098
30
0
10
52.118411877814538
20
223.95780911823127
30
0
10
42.570800014777959
20
223.03603240669639
30
0
10
35.799495485710665
20
224.74309793049028
30
0
10
31.255049647541028
20
230.1144514028569
30
0
10
27.098902551190527
20
227.41662452657894
30
0
10
22.842407098894789
20
216.23692571658066
30
0
10
23.833896245569672
20
200.28161813602512
30
0
10
23.597255200996234
20
178.00972262911648
30
0
10
23.223550216528828
20
155.99382662125763
30
0
10
24.620862666881898
20
137.61500299020929
30
0
10
26.474098787777478
20
125.6141413551461
30
0
10
27.564723852792909
20
117.62859178143569
30
0
10
36.186861051612041
20
120.14670942862465
30
0
10
45.591075003699935
20
115.15577999346036
30
0
10
45.78808316035218
20
104.85156401204091
30
0
10
41.925989356964131
20
98.2462837820499
30
0
10
43.612546965455898
20
93.700898969066515
30
0
10
41.263401617707757
20
89.82804242967687
30
0
10
37.504410020285512
20
93.180042822136244
30
0
10
33.919987848859058
20
92.416429990450339
30
0
10
30.421039618953944
20
93.202443219736111
30
0
10
27.549517254069396
20
98.213975618417749
30
0
10
24.160474155448085
20
89.283953237633668
30
0
10
24.150874281346887
20
81.702489547072176
30
0
10
24.919777307758679
20
70.180868273186249
30
0
10
22.849008733251498
20
55.830776960430832
30
0
10
23.817903299302149
20
37.277070357291706
30
0
10
23.419661464297281
20
7.9270776847063695
30
0
10
23.749387102901352
20
-28.882369763337756
30
0
10
23.204129283564143
20
-65.623843379865335
30
0
10
24.080606073764081
20
-91.400256355442622
30
0
10
22.865987198319296
20
-104.21950218213361
30
0
10
25.726182410124082
20
-110.54638245571267
30
0
10
27.738005871037391
20
-113.16242121454948
30
0
10
27.570697333085992
20
-118.16493671678001
30
0
10
28.875790828977308
20
-114.27615380096164
30
0
10
32.827438967655944
20
-113.7144275581023
30
0
10
36.310338207856923
20
-117.87647043545753
30
0
10
36.467741594804188
20
-112.10457582007946
30
0
10
39.084531604585464
20
-109.74763337979809
30
0
10
43.151830137571032
20
-108.77704355148929
30
0
10
45.936580804931815
20
-107.49402079362773
30
0
10
45.083599533207412
20
-102.11090347806706
30
0
10
52.829654595059061
20
-105.85370500543343
30
0
10
53.882698303304991
20
-97.97244637587248
30
0
10
59.61135369258173
20
-99.754195947263156
30
0
10
64.222776480812158
20
-99.30979051307105
30
0
10
60.855619966936445
20
-95.911816470136131
30
0
10
63.106196041321958
20
-94.332374345936515
30
0
10
63.422375789625711
20
-89.720909504671425
30
0
10
69.395656218445112
20
-90.922050858332909
30
0
10
74.192406183993711
20
-90.566135315599624
30
0
10
78.586873820948099
20
-93.28158817622068
30
0
10
82.241420907122404
20
-92.048384149064304
30
0
10
85.215990402171855
20
-96.287942235463859
30
0
10
86.693087191800032
20
-91.069245221918635
30
0
10
86.477162846204308
20
-96.455935419108286
30
0
10
89.550176750175936
20
-95.960707721088454
30
0
10
92.927989327122702
20
-97.647710363284887
30
0
10
93.684019658150646
20
-93.401871470968715
30
0
10
97.77267926464809
20
-95.026464085314984
30
0
10
101.67512341542322
20
-96.232966583075637
30
0
10
107.12526647346181
20
-96.931375458092376
30
0
10
111.62107554795523
20
-93.893532536187706
30
0
10
118.16452835089191
20
-92.13568956077664
30
0
10
120.1115003201602
20
-97.143859421246276
30
0
10
123.14923476344815
20
-103.82068307712348
30
0
10
127.57148245309779
20
-97.034684653917523
30
0
10
133.23735420440784
20
-98.135137807904869
30
0
10
137.08281986971929
20
-93.807999697754894
30
0
10
142.11877952583515
20
-94.867576943570384
30
0
10
145.35404805765745
20
-92.106444355102042
30
0
10
150.0988090484299
20
-96.406072215654035
30
0
10
159.61951389329639
20
-93.568665915342777
30
0
10
158.1353187782135
20
-102.36738782997462
30
0
10
165.99477293506439
20
-105.15828390011741
30
0
10
168.06217142691406
20
-108.91919105379577
30
0
10
164.09077319690709
20
-113.88427762170197
30
0
10
159.51749718611541
20
-112.81514234496075
30
0
10
158.14247702004056
20
-114.82096401644711
30
0
10
158.62191010803483
20
-118.5434257582877
30
0
10
153.14358040899069
20
-116.4211076572566
30
0
10
151.36648178294843
20
-122.54847292455791
30
0
10
142.81132102839672
20
-115.75532934594682
30
0
10
150.1960054128146
20
-128.55361207973172
30
0
10
143.04656957279792
20
-120.32000799591057
30
0
10
144.50474094478358
20
-129.92324912425516
30
0
10
143.77915844090637
20
-135.01213795322397
30
0
10
150.18952932975853
20
-137.17599439371585
30
0
10
151.25862488114171
20
-143.71740699005426
30
0
10
148.11659025938161
20
-147.23692944239468
30
0
10
144.15939536451037
20
-147.00371991360154
30
0
10
143.00671623881996
20
-151.27561207713876
30
0
10
140.00991626589885
20
-154.92228628293606
30
0
10
135.71559206536895
20
-157.1251121384449
30
0
10
131.3677216728382
20
-159.02804910212359
30
0
10
132.59767291692046
20
-164.01231528228072
30
0
10
125.79954573123777
20
-165.21613626450471
30
0
10
128.94784665666748
20
-173.89815458460052
30
0
10
127.3885179199809
20
-181.2838507442263
30
0
10
122.34633832047756
20
-185.82556520281858
30
0
10
115.42570149909429
20
-192.62332596490876
30
0
10
104.59339773574936
20
-193.18669081904852
30
0
10
95.070248318338145
20
-194.56543947004184
30
0
10
90.027326743630027
20
-200.23076910560857
30
0
10
88.219500307834494
20
-208.65771918971461
30
0
10
76.61647919316944
20
-204.01096733564458
30
0
10
75.690395405737803
20
-212.13966700999401
30
0
10
68.645369550699201
20
-213.36792914157971
30
0
10
68.761472006947486
20
-219.66770714597655
30
0
10
65.840024007108099
20
-223.60625733585721
30
0
10
64.040163762132991
20
-226.31574878570515
30
0
10
69.96493309466122
20
-226.7662332367974
30
0
10
70.140918802347201
20
-232.06315765254357
30
0
10
72.147347656212872
20
-237.21086941424062
30
0
10
70.97003804038269
20
-242.55312209772177
30
0
10
77.105420178638354
20
-246.31017707653743
30
0
10
82.078506206446932
20
-244.91152605981895
30
0
10
88.990886944576602
20
-247.29145730646513
30
0
10
87.381787064785286
20
-239.53989253217435
30
0
10
94.711721470986689
20
-241.33305751168422
30
0
10
100.12433751685421
20
-241.15200543265516
30
0
10
103.60933745428875
20
-235.30848469056963
30
0
10
109.60133395541601
20
-237.87840714621814
30
0
10
113.22173017911982
20
-232.53247840839506
30
0
10
119.59073389029308
20
-235.36084450546531
30
0
10
122.70491893992785
20
-229.39698649266191
30
0
10
125.68813509942579
20
-225.37546642878837
30
0
10
129.06475429839867
20
-221.61498259989452
30
0
10
127.89451181252159
20
-217.51247942310528
30
0
10
132.67660557754866
20
-215.27803716121764
30
0
10
134.81364650853681
20
-222.26574347145316
30
0
10
137.6539075070377
20
-218.36224152077494
30
0
10
141.64318908067764
20
-219.84932914780146
30
0
10
142.77285229449706
20
-224.81964767363053
30
0
10
147.55888091400837
20
-229.60688927334849
30
0
10
153.93949297687033
20
-234.56029272184142
30
0
10
159.33189419329273
20
-231.92155526566933
30
0
10
160.54897292809733
20
-237.09228830663662
30
0
10
165.81458218947495
20
-238.51710641298411
30
0
10
163.79021016450605
20
-244.45048427433451
30
0
10
161.39115241458998
20
-250.74081227446413
30
0
10
148.81818077207362
20
-250.48693535851541
30
0
10
151.57164007011727
20
-263.64722998302841
30
0
10
144.9667017381791
20
-262.75476488064334
30
0
10
142.02861368014456
20
-265.41816637892703
30
0
10
136.31217824007209
20
-260.91646037042426
30
0
10
135.61482842417749
20
-270.55223737823729
30
0
10
128.84135614413918
20
-267.96683462578119
30
0
10
124.71036406527922
20
-271.98106866576842
30
0
10
118.36099282999388
20
-271.78797064230912
30
0
10
118.44198773043738
20
-278.51280973100813
30
0
10
113.57048100286583
20
-276.84204342254992
30
0
10
110.78711054302586
20
-281.85253574187772
30
0
10
106.98113141755886
20
-288.69091580716895
30
0
10
99.334014172645183
20
-286.25828368749592
30
0
10
92.096562812798751
20
-286.68170015084934
30
0
10
88.912869100766301
20
-275.52963040505557
30
0
10
81.132548794809964
20
-279.00778851393
30
0
10
75.80041798677982
20
-278.77226002030335
30
0
10
70.133186406277858
20
-280.2104445796333
30
0
10
66.1323457296036
20
-274.63470919350664
30
0
10
58.979354155924533
20
-276.47790970976808
30
0
10
59.681755308910923
20
-269.3198156891068
30
0
10
52.502926381877153
20
-267.78969459831887
30
0
10
48.576038802755747
20
-267.11837368844726
30
0
10
42.454077667065221
20
-268.75065139570961
30
0
10
37.770087069341059
20
-263.28813609310407
30
0
10
33.47760392622412
20
-265.90455834748923
30
0
10
27.468761211747438
20
-269.21852981953737
30
0
10
30.255667848061062
20
-275.2187597661183
30
0
10
24.331471081348948
20
-280.87902369573845
30
0
10
27.508671101624369
20
-289.29714707095985
30
0
10
26.367875753382428
20
-294.74943684311381
30
0
10
28.945232813108287
20
-299.57555440637748
30
0
10
29.086754742990113
20
-294.44620245813985
30
0
10
32.282659508564706
20
-295.65426036769929
30
0
10
33.221786169363867
20
-291.33021431780941
30
0
10
40.028370774943454
20
-289.48401862934298
30
0
10
48.929372618202791
20
-289.12590200955498
30
0
10
58.005648075401446
20
-290.12125249753666
30
0
10
65.764077083947726
20
-288.7932258957552
30
0
10
72.016767197596877
20
-292.1975609414327
30
0
10
78.912124361408488
20
-294.23807246277528
30
0
10
86.688298047893127
20
-294.33914378949157
30
0
10
91.31311861411055
20
-301.31180577781629
30
0
10
100.29438434189528
20
-297.827402037095
30
0
10
105.95643546690125
20
-303.540837498499
30
0
10
103.6541435497334
20
-309.8658681392169
30
0
10
107.46011772096331
20
-314.67988408933286
30
0
10
105.44592794611141
20
-319.42579293326492
30
0
10
103.84705919633447
20
-325.4359381215861
30
0
10
110.16747672564158
20
-329.08051792690657
30
0
10
109.40644184563337
20
-319.62857483923852
30
0
10
116.89149560304361
20
-325.33043270213136
30
0
10
118.74056164722701
20
-319.81903758466893
30
0
10
120.53208112120117
20
-312.9246775395286
30
0
10
120.08047820280024
20
-306.89575599080194
30
0
10
122.57244764045535
20
-301.69559801670272
30
0
10
126.11560704106289
20
-302.66554680381216
30
0
10
127.27516093677337
20
-298.63914014461557
30
0
10
131.82209310115769
20
-301.06170527029087
30
0
10
133.89881976235975
20
-296.43396639969757
30
0
10
136.965242318695
20
-292.96732459132551
30
0
10
142.64633229597283
20
-290.97019198373539
30
0
10
148.03686412706855
20
-291.03168092582001
30
0
10
152.58585391126493
20
-288.1415588468829
30
0
10
158.36834992964373
20
-290.47437841863962
30
0
10
159.98743450077231
20
-285.87992729122499
30
0
10
164.07116160476795
20
-286.85231859439898
30
0
10
167.76103181418983
20
-283.4971157488186
30
0
10
173.2167047415075
20
-282.65465277939319
30
0
10
179.25812636724757
20
-283.45357644456675
30
0
10
181.57010272860632
20
-277.39207620403499
30
0
10
185.1242921214758
20
-273.9201506320091
30
0
10
187.72181529068655
20
-269.37457583310481
30
0
10
187.48805793367953
20
-262.5614733027665
30
0
10
194.42548923769561
20
-263.61921078087624
30
0
10
199.54671187799028
20
-262.10811288719606
30
0
10
204.10244372612533
20
-258.79683806877063
30
0
10
211.73479501261727
20
-257.98951438391219
30
0
10
218.31784803090088
20
-252.00410484010018
30
0
10
224.30938016578236
20
-246.1542247256088
30
0
10
225.81351282689567
20
-240.38445010017583
30
0
10
230.89181152655198
20
-241.10856908779056
30
0
10
231.84987103491329
20
-233.8153140517357
30
0
10
236.65458065363708
20
-226.44008964574164
30
0
10
238.94928227727107
20
-216.96775491419385
30
0
10
246.05766880664405
20
-213.87641937725957
30
0
10
249.68568672805651
20
-209.58595781228445
30
0
10
256.44766555841574
20
-209.53334376875125
30
0
10
258.24407644125051
20
-202.82915928156186
30
0
10
267.33415061072014
20
-198.13339051036314
30
0
10
276.94054007283233
20
-198.45561678546721
30
0
10
283.27810550076913
20
-195.88838896158296
30
0
10
288.58917811103316
20
-194.05545547052509
30
0
10
294.58534394705373
20
-195.10696165848645
30
0
10
298.06462730517575
20
-187.10413137713445
30
0
10
302.3900261861433
20
-182.40744776190152
30
0
10
308.8722835627359
20
-179.71787204253309
30
0
10
314.15789889097391
20
-179.12881114972157
30
0
10
318.52123568655747
20
-177.82271488756828
30
0
10
322.71724874082565
20
-179.9498803639849
30
0
10
324.53266166906371
20
-177.26363886315423
30
0
10
325.59353743540203
20
-176.15514223398517
30
0
10
328.24911888862846
20
-181.6038552983247
30
0
10
330.55701191621836
20
-184.36073957785098
30
0
10
334.65051642368462
20
-188.49408122087345
30
0
10
340.90187147128756
20
-188.09626211677562
30
0
10
340.34963325922683
20
-195.88130385818343
30
0
10
346.85836121359102
20
-196.11063893680725
30
0
10
350.41964588810316
20
-201.26170046329577
30
0
10
355.88933202042017
20
-199.559488691806
30
0
10
362.12275227761836
20
-201.12130321715762
30
0
10
365.10073422398807
20
-196.08223747719182
30
0
10
364.29261168993463
20
-190.10420477772286
30
0
10
367.30324890486781
20
-186.5733632336204
30
0
10
368.37351630401827
20
-182.44716858733383
30
0
10
372.68312691279311
20
-183.62652382468485
30
0
10
371.83325284225077
20
-179.95117258874686
30
0
10
377.84981572409828
20
-177.84714892964516
30
0
10
383.47790940695836
20
-175.62562163449138
30
0
10
390.6709467612003
20
-177.59617918588287
30
0
10
398.78235753785054
20
-175.801702584282
30
0
10
402.0858543193134
20
-183.95802281461636
30
0
10
405.18905605710529
20
-190.85901461481203
30
0
10
413.1555391594631
20
-192.36013275179295
30
0
10
416.28850791820298
20
-202.23946805255019
30
0
10
421.90328123919073
20
-211.52012689364835
30
0
10
424.88715842782739
20
-219.89215926097998
30
0
10
428.07308161890705
20
-227.33673697692728
30
0
10
436.97834722810484
20
-226.30297518419408
30
0
10
439.17630146227879
20
-237.75456502276683
30
0
10
444.1226782653228
20
-244.85537184295836
30
0
10
448.54825838905953
20
-250.86262729626242
30
0
10
456.07420702661204
20
-252.73916044922004
30
0
10
459.37555287836739
20
-259.62624948995733
30
0
10
466.53333638202423
20
-261.34618661294417
30
0
10
468.95251579692808
20
-269.04480273279182
30
0
10
469.67561905976208
20
-276.26414870981591
30
0
10
471.00682294010539
20
-283.13689231220917
30
0
10
471.34096222248343
20
-289.78865975200671
30
0
10
477.26539291980947
20
-290.10275433857822
30
0
10
481.55458133012064
20
-292.53137837758356
30
0
10
481.81148534568138
20
-297.06542234888781
30
0
10
485.6373899912719
20
-297.07491194901138
30
0
10
491.43346566269889
20
-301.0766035439446
30
0
10
500.06143102726014
20
-300.86946590653321
30
0
10
510.86425318352667
20
-300.53886052443534
30
0
10
512.12436006200255
20
-309.76206766663904
30
0
10
519.95464812759008
20
-310.57687552649463
30
0
10
528.44318153853737
20
-310.5142617892817
30
0
10
529.85872249398687
20
-319.37584523968712
30
0
10
536.06148531084682
20
-322.1224427919808
30
0
10
545.5017687680521
20
-322.29861611450792
30
0
10
554.60297580049121
20
-323.53993874736545
30
0
10
561.47744978410901
20
-323.66438815225797
30
0
10
568.55782773961391
20
-323.04901678006661
30
0
10
567.85189182246586
20
-328.69008284971522
30
0
10
571.0681045671746
20
-333.34813539281078
30
0
10
572.46599602919889
20
-337.90922008599409
30
0
10
576.98707020660413
20
-337.78982755293021
30
0
10
578.1288617125083
20
-341.78777185377089
30
0
10
581.81492150059807
20
-344.02946653047582
30
0
10
588.58903692024683
20
-344.70206088104942
30
0
10
589.13229028332933
20
-337.82169052114176
30
0
10
590.276793637173
20
-332.9022208582083
30
0
10
588.4599113289355
20
-326.72392192631207
30
0
10
585.06193575036536
20
-324.30137580681117
30
0
10
580.21560674949615
20
-325.44332448949973
30
0
10
580.08798390522827
20
-321.75368112764272
30
0
10
579.10261139154034
20
-319.39756867323274
30
0
10
574.51646464402904
20
-319.6766516131072
30
0
10
570.68734169517245
20
-318.54668788028272
30
0
10
566.8401894368892
20
-313.83268267872779
30
0
10
559.7511209775555
20
-316.08193493571258
30
0
10
556.0517952236039
20
-309.48442458254635
30
0
10
553.07880337876759
20
-302.13428791528156
30
0
10
547.81602382301594
20
-298.21909030046334
30
0
10
540.74860099005809
20
-294.99138155253388
30
0
10
543.09575064483158
20
-284.29857431201236
30
0
10
534.07047256810574
20
-283.78614516281493
30
0
10
530.8932009883149
20
-278.7388696189829
30
0
10
528.37690272381747
20
-273.66953213388274
30
0
10
522.74286238497712
20
-272.05549166978165
30
0
10
520.59780943431269
20
-266.56179079995945
30
0
10
512.43587153467843
20
-264.55549415669043
30
0
10
512.05603940111791
20
-254.50225377414768
30
0
10
511.78708802310871
20
-244.11555584448223
30
0
10
503.78595129498279
20
-241.48900837672915
30
0
10
503.80162617628918
20
-233.07925031439049
30
0
10
502.13285878789395
20
-226.67203695387292
30
0
10
500.96418762682077
20
-218.57801222163721
30
0
10
492.53041368102959
20
-216.91624578215965
30
0
10
488.47739894974427
20
-208.55443722700696
30
0
10
490.01188202686683
20
-196.25825820056647
30
0
10
480.90524791020709
20
-197.04280139239654
30
0
10
479.38768355571131
20
-190.49591273485487
30
0
10
475.83800763950103
20
-186.84124367416575
30
0
10
470.46111889127246
20
-182.19224503065848
30
0
10
470.0240718017584
20
-171.73650377104957
30
0
10
472.18103929810155
20
-161.0234490432376
30
0
10
473.13972986680398
20
-153.6478572311739
30
0
10
472.7402326340362
20
-146.95333237297731
30
0
10
477.47672111035456
20
-146.57945558849346
30
0
10
477.07273043496406
20
-140.35295837044566
30
0
10
483.74204254072265
20
-138.95301568415579
30
0
10
483.81288511145067
20
-133.05860480711812
30
0
10
487.57937170931973
20
-128.00278206384502
30
0
10
484.55607910005665
20
-122.74597053507918
30
0
10
485.43534038772037
20
-117.12417717493722
30
0
10
482.88001102534326
20
-112.15657163298235
30
0
10
482.69757393352501
20
-106.46830808331916
30
0
10
478.29118784409815
20
-103.50262672040355
30
0
10
477.6761917504075
20
-97.097275235646663
30
0
10
480.20913051092964
20
-93.480450020503412
30
0
10
479.99273758305992
20
-89.165661381552837
30
0
10
482.26510681376823
20
-87.897464431154603
30
0
10
485.49803851827892
20
-89.527412094592904
30
0
10
486.74373095509162
20
-84.572636599842383
30
0
10
492.49554054704561
20
-86.127250005024919
30
0
10
493.13015790488458
20
-78.646394584473441
30
0
10
493.31234435900842
20
-73.665012840700982
30
0
10
498.75664983889874
20
-69.435335389385784
30
0
10
494.39883954814889
20
-63.986948668234007
30
0
10
499.24974317250133
20
-63.01824094413287
30
0
10
499.58891207974062
20
-60.31446896751266
30
0
10
499.66331813321403
20
-57.542192245564401
30
0
10
500.73521626522563
20
-55.672428914670505
30
0
10
501.68739283780963
20
-52.001344865878629
30
0
10
496.21921293711318
20
-50.128638582961003
30
0
10
501.76736949352539
20
-47.861189718942676
30
0
10
501.87226749863396
20
-41.823201229778419
30
0
10
504.18129148172466
20
-37.637761575371627
30
0
10
508.3268719001
20
-37.258298387512788
30
0
10
508.05358372924849
20
-34.94283943412821
30
0
10
511.82118201769879
20
-36.46177820433725
30
0
10
509.10733233177871
20
-28.400496427307665
30
0
10
510.73187015400333
20
-24.45414939162708
30
0
10
511.28451976285027
20
-18.876951273139078
30
0
10
513.44311921592214
20
-12.80707771665986
30
0
10
520.04459660466421
20
-14.758346957023637
30
0
10
524.77446218049965
20
-12.167823426441265
30
0
10
530.8884762705211
20
-12.357544802635177
30
0
10
534.01317077624958
20
-8.2486504450810543
30
0
10
534.29365700185122
20
-2.2684945060155464
30
0
10
538.60977284373257
20
1.5534435311288508
30
0
10
545.75193544065689
20
1.2980778818109284
30
0
10
545.30870563226392
20
6.7763262413797527
30
0
10
539.38913023636815
20
9.0142958526848602
30
0
10
540.4375524268487
20
13.641279258290284
30
0
10
544.81736847073603
20
12.967719349904225
30
0
10
543.6443750627875
20
16.554317316776498
30
0
10
546.76256598138013
20
18.542173418883369
30
0
10
546.42700615478407
20
24.109733815758617
30
0
10
546.862032398981
20
28.996941446996367
30
0
10
548.32420012954276
20
35.472592828490015
30
0
10
554.70866664119944
20
31.989829914249377
30
0
10
562.29485267567657
20
33.744666596901808
30
0
10
560.60930317394491
20
42.685661010755105
30
0
10
560.70291508651917
20
50.899921456833283
30
0
10
554.03202404205626
20
53.301857238915375
30
0
10
549.65880578045869
20
62.21239314831017
30
0
10
550.45947085931959
20
71.56074210867439
30
0
10
543.29373056944542
20
77.853380356511352
30
0
10
539.3475429044978
20
71.975169739555412
30
0
10
533.05859881545791
20
74.105699428590881
30
0
10
529.64478116872851
20
67.840230026402452
30
0
10
523.50240069834524
20
71.670608199081784
30
0
10
523.52154865049829
20
76.973563034901275
30
0
10
524.27391630198053
20
84.403945124300307
30
0
10
517.32561773662587
20
81.589387036608358
30
0
10
512.29639086918087
20
83.142585818615075
30
0
10
509.15064452363811
20
90.935472531758393
30
0
10
510.54639088882419
20
97.718266766883417
30
0
10
510.42049038785763
20
104.51811746099244
30
0
10
505.2125546156509
20
105.50333559513219
30
0
10
503.6727568283772
20
102.13956482303843
30
0
10
498.51752322000402
20
104.12586000066163
30
0
10
496.66395076262927
20
100.38108267392197
30
0
10
492.58750691205069
20
103.28157210404741
30
0
10
488.38094965587254
20
100.99690511127507
30
0
10
481.73937447909782
20
106.47831869930998
30
0
10
486.37334466643574
20
110.20944209069046
30
0
10
494.5577765556958
20
108.96373696097129
30
0
10
496.47846789538846
20
118.58796420846571
30
0
10
502.01524847977458
20
122.76256876021803
30
0
10
508.30907080046273
20
121.13169303463343
30
0
10
512.24487489298383
20
124.8355216267079
30
0
10
515.87555473176872
20
130.87132754318583
30
0
10
526.12706048068401
20
131.9998535986154
30
0
10
535.85229897346517
20
137.11789707713481
30
0
10
537.77902595442447
20
146.46745706986249
30
0
10
532.57579642401697
20
153.05504513158053
30
0
10
525.55906314661149
20
151.74120604282791
30
0
10
526.76536945074702
20
159.35178243187605
30
0
10
525.42668150932957
20
164.97703710485757
30
0
10
531.79760947959358
20
167.44551703861555
30
0
10
532.94669795815412
20
174.82691634016936
30
0
10
532.869744486591
20
183.9155792510204
30
0
10
534.00825262239914
20
193.27335869794169
30
0
10
537.79846882306981
20
199.31287859309799
30
0
10
536.49223789204871
20
207.48554779686626
30
0
10
537.74318410529452
20
211.83944139904719
30
0
10
536.53573157285405
20
225.20679589497846
30
0
10
535.87358966340412
20
217.2664849366225
30
0
10
533.12128250289709
20
213.08953427291993
30
0
10
525.91145061645125
20
215.00308431130213
30
0
10
525.58915391356209
20
207.67188798345288
30
0
10
523.88498880578413
20
201.20918004092061
30
0
10
523.07103995731029
20
192.92539232475866
30
0
10
515.55898554902842
20
190.55974413261012
30
0
10
511.35300774866516
20
187.65695705176006
30
0
10
510.08682986921622
20
179.70259406848476
30
0
10
503.45847392786658
20
187.42682450089836
30
0
10
503.18485526475206
20
182.1621771937759
30
0
10
499.53130812602024
20
180.80775762725455
30
0
10
499.21537111091033
20
189.55966706582819
30
0
10
494.62449557433587
20
197.1370639351112
30
0
10
496.54001648834054
20
207.22366436370518
30
0
10
496.42989216080764
20
220.8777940763992
30
0
10
487.0566083493826
20
217.8205790141472
30
0
10
484.94424622000463
20
225.88085270460397
30
0
10
474.31296537949947
20
229.64427662949367
30
0
10
480.99386754177738
20
240.70915592505798
30
0
10
488.5624059098725
20
239.63660606873822
30
0
10
493.04594686213738
20
241.38716702905737
30
0
10
495.93988500689136
20
235.15677124454749
30
0
10
496.95483949304304
20
240.46356690742601
30
0
10
496.33263642608364
20
244.20097692339485
30
0
10
498.52687851145652
20
249.59025959464208
30
0
10
501.24814363659959
20
254.30501012748596
30
0
10
508.03766782700961
20
254.56197160530786
30
0
10
510.67291836130369
20
257.7113853996982
30
0
10
509.16773614315434
20
264.22408259714553
30
0
10
511.66353630016323
20
269.88021876174651
30
0
10
516.46894361669126
20
269.59574965783963
30
0
10
519.20428848919812
20
272.71328012246227
30
0
10
521.98101204677687
20
271.04940408141044
30
0
10
525.24951661202419
20
271.09595742469952
30
0
10
525.7311883116364
20
275.77086868294549
30
0
10
530.8394807418897
20
274.99977716861804
30
0
10
536.90729305981688
20
276.71273163168723
30
0
10
540.52673463461451
20
268.32932810267903
30
0
10
549.03836097502949
20
270.83727614738041
30
0
10
554.56100540769557
20
265.44183068150113
30
0
10
561.54993192831193
20
266.54056615569266
30
0
10
560.28303283095056
20
259.27380926102046
30
0
10
564.29666165426272
20
253.19024882417955
30
0
10
562.1580628491638
20
243.31513744663471
30
0
10
559.8383322800164
20
232.73595026651003
30
0
10
561.94087793161191
20
223.84916835252432
30
0
10
561.12783208567225
20
215.8437047735589
30
0
10
565.33322077011042
20
212.88040211788714
30
0
10
571.2669816637142
20
212.67830957706065
30
0
10
575.90795236510621
20
215.88087902034218
30
0
10
574.33673437832977
20
221.70632423373988
30
0
10
578.14732664120288
20
223.49192881511087
30
0
10
577.65781829899549
20
227.59862014067366
30
0
10
581.2538374919701
20
226.60710083430848
30
0
10
582.6704744495355
20
230.43009080877638
30
0
10
582.39703288633723
20
234.93722542110586
30
0
10
584.00080585026922
20
240.15692962186461
30
0
10
582.91376939216161
20
247.57514879014985
30
0
10
585.43443502266973
20
254.58289318692033
30
0
10
585.28257465478077
20
261.84083852982076
30
0
10
582.82381667776485
20
266.80097501948779
30
0
10
586.58621708650242
20
269.29901075701588
30
0
10
585.02808053574472
20
273.84859834756134
30
0
10
590.12403499947607
20
274.67116037479661
30
0
10
596.60239731284832
20
273.59227809085331
30
0
10
598.85403331358953
20
278.01145222795623
30
0
10
599.694433776712
20
284.27625687455867
30
0
10
590.45019474559558
20
285.77513031850066
30
0
10
595.15773111346016
20
290.86983438987437
30
0
10
599.11865603677256
20
287.26377912697222
30
0
10
598.34322708601394
20
292.47127969881092
30
0
10
599.6099473592576
20
296.81306164488495
30
0
10
594.57785790815342
20
301.3015866013202
30
0
10
588.22533970901134
20
299.75073541119423
30
0
10
583.67370948994949
20
305.91250729611249
30
0
10
579.42389746374988
20
313.97193321196039
30
0
10
579.02304176633743
20
322.56519481216117
30
0
10
577.94327475156479
20
331.49804831376542
30
0
10
587.213706306022
20
329.63570755693382
30
0
10
593.20590013162882
20
332.11181521998526
30
0
10
600.68145467894612
20
330.90441437354673
30
0
10
599.87657213329203
20
336.33739169472045
30
0
10
603.13746796636849
20
337.76975608573969
30
0
10
606.12600132952161
20
340.74454529013565
30
0
10
606.76949245338153
20
347.78512628161201
30
0
10
613.07024344218144
20
346.92658244523454
30
0
10
616.14981537520634
20
350.59780522121633
30
0
10
616.55739072133588
20
354.92977970225581
30
0
10
620.69108309830335
20
355.57380889267534
30
0
10
621.90981384596694
20
361.05357073515756
30
0
10
616.10698672672686
20
363.89389868320967
30
0
10
614.90993996272687
20
370.27689598702756
30
0
10
607.83522577147119
20
370.04801650189535
30
0
10
606.8929653916133
20
375.41526142215838
30
0
10
607.12233543986156
20
381.69501398335808
30
0
10
612.38674517225786
20
383.04751841188761
30
0
10
618.00227763242651
20
384.37368528652837
30
0
10
622.80434746248841
20
389.36964084869294
30
0
10
630.5608717524849
20
389.23878877301354
30
0
10
637.97574723652599
20
389.58799110405471
30
0
10
638.51006395427612
20
382.24704558620556
30
0
10
642.8079835638938
20
379.05528620868125
30
0
10
648.38634581937515
20
379.42283996460208
30
0
10
653.00348796146977
20
376.95433104344238
30
0
10
656.03286817649314
20
379.63188919982684
30
0
10
660.41187595838676
20
378.93766272437529
30
0
10
659.99253624824519
20
386.2178940144608
30
0
10
668.05883083646245
20
386.0167673165376
30
0
10
674.03268809805581
20
389.29074516129663
30
0
10
682.82711496457796
20
389.13764974052697
30
0
10
682.46737334824161
20
396.28922306438892
30
0
10
689.56374692171437
20
396.2595955208505
30
0
10
691.64763690496306
20
400.30804639178893
30
0
10
693.60100046961918
20
404.2145763893941
30
0
10
698.30273614143857
20
401.97683449800661
30
0
10
700.07589722537261
20
409.69113900323032
30
0
10
708.45031193360182
20
411.16632342640401
30
0
10
706.91357879776899
20
417.84672333286221
30
0
10
710.14422495319207
20
418.78462060932281
30
0
10
712.93587126658235
20
419.24130489247045
30
0
10
712.64991829672431
20
424.54055113812217
30
0
10
707.960033546006
20
425.60947548726256
30
0
10
704.23100894539994
20
432.16687055587681
30
0
10
702.85931429011907
20
442.8203059907832
30
0
10
713.81304134455888
20
445.47708760986444
30
0
10
717.29283673250791
20
451.65969899849102
30
0
10
725.46225806423138
20
451.08145314710828
30
0
10
732.767712364217
20
456.43350540430038
30
0
10
742.81503046328885
20
452.52707880057699
30
0
10
749.05798796492945
20
457.22950111426024
30
0
10
754.27781395096554
20
456.96600001825959
30
0
10
757.53365761709074
20
462.84121538018121
30
0
10
765.76622523942501
20
460.87202920058496
30
0
10
772.95613500827017
20
466.78402668529407
30
0
10
783.95018194202385
20
468.91644085612586
30
0
10
795.22261121578083
20
470.28772547056212
30
0
10
802.24179528741786
20
479.09787120053716
30
0
10
813.97886678526561
20
477.11651755714422
30
0
10
824.05106009355404
20
481.97343878735285
30
0
10
835.00963430875095
20
482.29104967017963
30
0
10
842.76854222755946
20
487.0241607248102
30
0
10
849.83957523518018
20
490.576129686743
30
0
10
856.60848300325267
20
486.07673986640054
30
0
10
864.22800221697776
20
487.28946088192964
30
0
10
871.10229767162025
20
484.81657649547731
30
0
10
873.7653588378447
20
477.31593698681223
30
0
10
877.27988762537518
20
471.19802373268431
30
0
10
877.66792735484592
20
463.21446013454351
30
0
10
884.58817182392227
20
459.34332768457324
30
0
10
890.39441726809991
20
455.74555168810264
30
0
10
897.3905803512132
20
452.22786620562624
30
0
10
898.16730403122915
20
446.27471150499355
30
0
10
901.22247650799841
20
441.59549010120833
30
0
10
902.05957490906258
20
436.15620714897943
30
0
10
906.91990895846902
20
432.39602785331073
30
0
10
907.02317268219076
20
425.22409213922333
30
0
10
908.55138323558117
20
417.74454734962274
30
0
10
908.96630492527208
20
410.87507194821563
30
0
10
915.17023577387192
20
409.35630649400582
30
0
10
918.46329454793226
20
404.39415155403094
30
0
10
923.1647929983726
20
402.60589737510441
30
0
10
927.8761726951775
20
397.67678147894685
30
0
10
930.02449820431127
20
402.20239051140902
30
0
10
932.16137389519815
20
400.62042509490072
30
0
10
937.5810955045672
20
400.45969946735823
30
0
10
942.64907005558848
20
402.26028714963763
30
0
10
947.0699011931556
20
397.51577100242355
30
0
10
953.17804852010613
20
401.28795448812355
30
0
10
957.46146731154215
20
396.50286905103599
30
0
10
964.11764380315219
20
394.50757378447906
30
0
10
972.7444339530141
20
397.72435768405052
30
0
10
977.44400130559586
20
390.38514336132096
30
0
10
985.61379875412013
20
392.18856666609844
30
0
10
994.31006541603847
20
392.55761319941456
30
0
10
1005.2841085093047
20
393.17823598767632
30
0
10
1014.7529002115958
20
392.50073168493509
30
0
10
1020.363070296616
20
388.24770779409363
30
0
10
1026.9983339984765
20
386.06593889128874
30
0
10
1034.2301064930755
20
384.17355035939806
30
0
10
1039.3960807978754
20
377.85427679438925
30
0
10
1045.8565710334151
20
379.64507963439769
30
0
10
1048.3488435672798
20
373.38389097624997
30
0
10
1053.9868870471371
20
369.24850622588514
30
0
10
1061.6806558532039
20
362.32795522827865
30
0
10
1061.6741375785584
20
353.54676925719798
30
0
10
1062.5416021144624
20
345.28747367351519
30
0
10
1069.4773899721308
20
344.31363949364595
30
0
10
1077.3651255925142
20
346.37593868955008
30
0
10
1078.4495415946644
20
352.95959731845954
30
0
10
1082.5116516487301
20
354.64605803206945
30
0
10
1079.664249486726
20
359.45104050729293
30
0
10
1084.8407176390922
20
360.24771301576732
30
0
10
1083.6335246234671
20
365.53524216411205
30
0
10
1085.7983327001932
20
364.90051720816768
30
0
10
1092.8164151672418
20
364.11686927750418
30
0
10
1087.9034950269001
20
373.88333908261416
30
0
10
1095.8596801875347
20
372.53800038388852
30
0
10
1096.6859740674463
20
379.40022992966522
30
0
10
1100.4463960443159
20
382.95345113738358
30
0
10
1100.2334287069898
20
389.90083126396547
30
0
10
1093.2976676410042
20
390.18228662444727
30
0
10
1091.5577581639805
20
396.34854485963302
30
0
10
1087.5477099078148
20
399.75152116160382
30
0
10
1083.7242768696619
20
403.76257810847562
30
0
10
1083.9357464212089
20
410.97195379410516
30
0
10
1092.5562848849734
20
408.03274013833118
30
0
10
1092.9799021820975
20
415.00039824355486
30
0
10
1097.5908438706094
20
413.51054723758239
30
0
10
1099.984275457618
20
416.53926418215315
30
0
10
1100.3477277791251
20
421.27829114936782
30
0
10
1102.0405979759996
20
426.37728934545237
30
0
10
1102.9265982047366
20
432.18065509390249
30
0
10
1110.5651918319236
20
435.18660266443135
30
0
10
1113.2296898766417
20
445.12612650418845
30
0
10
1121.8887930580283
20
448.49760661621644
30
0
10
1128.5518480504734
20
451.83695943517756
30
0
10
1134.8940119891392
20
449.920100673967
30
0
10
1137.3196270648205
20
456.21701539225973
30
0
10
1145.3589339470377
20
455.98390341640885
30
0
10
1152.4335403872865
20
457.35920913826163
30
0
10
1159.6404179631513
20
456.00952797918694
30
0
10
1167.6983166245773
20
458.83175284539743
30
0
10
1169.6537939271616
20
449.04217672438779
30
0
10
1176.0160976946593
20
451.09189960885692
30
0
10
1178.2268746454874
20
446.90021068224121
30
0
10
1183.5933321408293
20
448.43688185024035
30
0
10
1187.0973921646842
20
445.22800729674952
30
0
10
1188.6237947415038
20
441.135404739602
30
0
10
1194.539707371114
20
445.09741127336775
30
0
10
1201.9713836841797
20
436.77936203409098
30
0
10
1211.0558506841512
20
441.91435172183265
30
0
10
1218.342691340752
20
440.93809707244429
30
0
10
1224.3829006543851
20
438.18875035948304
30
0
10
1227.8363337176984
20
443.61241891598632
30
0
10
1235.4782416793673
20
442.20539323610814
30
0
10
1244.274761349043
20
442.80484407128642
30
0
10
1253.06730096603
20
440.04563219725173
30
0
10
1260.2839487768731
20
437.9923403883206
30
0
10
1267.3319246894309
20
439.58054051997522
30
0
10
1274.5829548392173
20
436.93930993541784
30
0
10
1281.7862856902007
20
437.2350183625727
30
0
10
1286.5322139172238
20
433.61434165672557
30
0
10
1292.4113949054058
20
435.13405845773764
30
0
10
1296.6778389170927
20
430.52270368389361
30
0
10
1302.7883314201588
20
431.96672640366171
30
0
10
1306.9830303560766
20
424.36981274939194
30
0
10
1315.9393032161281
20
422.15110583168416
30
0
10
1325.8923052329428
20
418.38771689779577
30
0
10
1334.726956575842
20
415.48697609884289
30
0
10
1340.2367040162003
20
411.03548241937926
30
0
10
1350.275132296345
20
407.01626227222778
30
0
10
1353.5892065720745
20
393.33505656039347
30
0
10
1361.0527842791253
20
380.68091711353077
30
0
10
1359.2718274663514
20
365.55522246502721
30
0
10
1358.8745813823446
20
352.30328924032762
30
0
10
1362.4778534984941
20
342.36244381714573
30
0
10
1362.9007401374647
20
335.50279974516735
30
0
10
1369.6800283964981
20
336.08920121945033
30
0
10
1372.2259940597291
20
327.08448733193723
30
0
10
1383.1876084934063
20
330.01553668368979
30
0
10
1392.324475274997
20
327.04159885299146
30
0
10
1395.1357874422465
20
318.69563921733692
30
0
10
1401.3914801924006
20
319.84369836297549
30
0
10
1406.9796167182581
20
318.11132493038832
30
0
10
1406.1765419096778
20
309.05148228869302
30
0
10
1409.1785688243635
20
300.91835869182444
30
0
10
1413.980082602508
20
290.7550370153208
30
0
10
1416.326940008438
20
281.94957433358252
30
0
10
1417.2983954989168
20
274.47039336738942
30
0
10
1420.8454846520754
20
270.30030239479834
30
0
10
1424.9352420924424
20
266.23206358020138
30
0
10
1424.9576869446332
20
260.24302107146923
30
0
10
1428.5720895765346
20
256.38154403942127
30
0
10
1429.5523185174666
20
244.84244279172412
30
0
10
1431.4036445729723
20
228.74454478315369
30
0
10
1432.4714642436143
20
210.69686443363526
30
0
10
1430.4534892979257
20
196.98734708079471
30
0
10
1434.6912423938488
20
191.06963568610803
30
0
10
1436.246263260309
20
180.08359630374585
30
0
10
1437.4266697980172
20
169.46421640825082
30
0
10
1437.1908160410117
20
159.12587064781778
30
0
10
1438.5954118022551
20
155.72793365308948
30
0
10
1437.363273587885
20
152.9090907369345
30
0
10
1434.5692736755452
20
154.05507391492901
30
0
10
1436.5563784375784
20
151.64323937701334
30
0
10
1434.1053680474056
20
148.89901973472635
30
0
10
1435.9521812876228
20
142.29294956365723
30
0
10
1433.861848480816
20
132.23852761163835
30
0
10
1442.7728686007358
20
125.1016593356558
30
0
10
1446.3156198228003
20
114.29244536006244
30
0
10
1445.854407946495
20
105.07677319512432
30
0
10
1447.4902633889544
20
97.770900696200272
30
0
10
1446.3199734905993
20
93.721105581189903
30
0
10
1443.4069181023244
20
90.107996347962882
30
0
10
1440.5377705178419
20
94.176716455047838
30
0
10
1434.088313552299
20
94.028885529644555
30
0
10
1429.4724513974299
20
105.96883352449728
30
0
10
1416.4645082863833
20
98.861878846830621
30
0
10
1415.8148301151416
20
88.000792691169991
30
0
10
1413.7490820411026
20
78.419987391285716
30
0
10
1418.6004886275182
20
72.428286865183637
30
0
10
1419.0954759786091
20
64.680915781779603
30
0
10
1428.1072696684134
20
59.378617716902141
30
0
10
1430.5035899908203
20
48.238290830942731
30
0
10
1432.8802928588768
20
37.545253774222999
30
0
10
1434.9154578015032
20
29.027406195856962
30
0
10
1436.3027730934955
20
20.96512676220199
30
0
10
1442.7002187363655
20
20.744766442727478
30
0
10
1446.8879775854555
20
17.576758285459981
30
0
10
1446.3130822002711
20
9.5328425464802375
30
0
10
1449.8557886473022
20
-2.6388914110974548
30
0
10
1448.7789155338257
20
-21.265072170200447
30
0
10
1449.2076743085518
20
-39.489156135293598
30
0
10
1448.3823429802014
20
-54.307191882652148
30
0
10
1446.822174993335
20
-64.731503237792865
30
0
10
1446.1448119246093
20
-77.659129330088163
30
0
10
1433.2823169072662
20
-79.173155320201957
30
0
10
1431.5920574077757
20
-91.894037896652932
30
0
10
1424.9243422186473
20
-99.91452603936537
30
0
10
1417.0922169816274
20
-107.86387268317888
30
0
10
1412.3906501646036
20
-115.84807503039542
30
0
10
1410.1739773255338
20
-123.00447977433871
30
0
10
1403.350251413583
20
-127.35085792644779
30
0
10
1404.9890468340666
20
-141.7990858792011
30
0
10
1404.1251069504563
20
-155.06807058726133
30
0
10
1403.329773402163
20
-169.42794417559472
30
0
10
1398.5618405356843
20
-172.85730212455252
30
0
10
1395.9367118621126
20
-176.89867063706899
30
0
10
1393.9386485486839
20
-173.96895864855048
30
0
10
1391.473955783508
20
-171.395564067767
30
0
10
1389.6284111441494
20
-174.7340933262094
30
0
10
1386.5244031743227
20
-173.73321904991036
30
0
10
1384.2202293833145
20
-177.11148840215918
30
0
10
1378.8063979588051
20
-176.29821917164327
30
0
10
1375.3954231070475
20
-180.49009306852454
30
0
10
1371.3170869407763
20
-183.70818624681539
30
0
10
1365.745489821305
20
-184.15036185836001
30
0
10
1359.4256435249908
20
-183.40685319578199
30
0
10
1356.6349656488921
20
-191.45892118003545
30
0
10
1356.0562146650946
20
-197.75637662111433
30
0
10
1355.9921708447803
20
-206.22050048788367
30
0
10
1346.6491863069473
20
-206.27804029984091
30
0
10
1346.4377689557632
20
-217.62703017336656
30
0
10
1338.879947783438
20
-225.69121907079975
30
0
10
1335.2182539578157
20
-235.8392650108469
30
0
10
1334.4321462257165
20
-245.36624948991007
30
0
10
1333.9455841060312
20
-251.280908532571
30
0
10
1333.4039975740754
20
-255.68585307427523
30
0
10
1328.5085909484167
20
-255.01377650389162
30
0
10
1327.0501512450471
20
-259.43377028123518
30
0
10
1325.617118314907
20
-264.66605976427917
30
0
10
1325.3779020669581
20
-270.13718377682926
30
0
10
1323.4234513175052
20
-274.81327793797311
30
0
10
1318.5760976534789
20
-274.2495332113524
30
0
10
1319.7776945418245
20
-277.94918223489344
30
0
10
1318.8156094015662
20
-280.28519278929218
30
0
10
1314.7557358474392
20
-281.4711588752599
30
0
10
1313.5372442495916
20
-286.69309124613341
30
0
10
1310.3405184638082
20
-290.13637205978409
30
0
10
1304.6007139563337
20
-291.59156443480657
30
0
10
1303.7017633066471
20
-297.57337707307977
30
0
10
1302.7057528017724
20
-303.70040385705869
30
0
10
1294.6254209473093
20
-304.96899822730705
30
0
10
1295.4412932869402
20
-316.71017435368105
30
0
10
1286.6451907770445
20
-315.32672415327693
30
0
10
1282.004955576585
20
-318.43984399448414
30
0
10
1277.507467178807
20
-320.70968632429333
30
0
10
1276.2423311409932
20
-326.38984637122297
30
0
10
1275.8069278273838
20
-332.73972089526626
30
0
10
1269.2235966457336
20
-335.28794649328864
30
0
10
1265.4224277897945
20
-342.72270348946756
30
0
10
1258.2670709179588
20
-344.01697650591416
30
0
10
1252.0885343541927
20
-347.0441546149334
30
0
10
1244.9729517068588
20
-352.56684057127751
30
0
10
1235.1249417468084
20
-353.99277885449897
30
0
10
1232.3390571735063
20
-361.83383087772881
30
0
10
1225.1737573168225
20
-359.7505964247469
30
0
10
1221.9841482804804
20
-365.12723823769829
30
0
10
1214.1715717747318
20
-362.79597619127424
30
0
10
1215.4836131280106
20
-369.40963417887673
30
0
10
1210.3243906158737
20
-369.17290848529234
30
0
10
1208.9675069309774
20
-373.10213312146232
30
0
10
1205.0877089117887
20
-375.52877623324196
30
0
10
1203.8521000089511
20
-381.99209643540325
30
0
10
1197.5237967106418
20
-382.05056231417609
30
0
10
1193.2527929574289
20
-385.08891655892262
30
0
10
1188.2090595767816
20
-387.78912687907371
30
0
10
1187.638107967558
20
-393.87233082699743
30
0
10
1184.2826761285612
20
-398.59161890451628
30
0
10
1178.5615820326395
20
-399.65618057112948
30
0
10
1173.1768892072919
20
-400.71993869457981
30
0
10
1171.40152164699
20
-406.74165988514483
30
0
10
1167.8712270403294
20
-410.15911109395267
30
0
10
1162.1395443123647
20
-411.5772719713828
30
0
10
1157.5393560556677
20
-413.80392198475943
30
0
10
1151.0304032499378
20
-412.04770707027842
30
0
10
1150.3064835450691
20
-416.50673540421781
30
0
10
1146.912358032994
20
-414.82673373459943
30
0
10
1141.4835595076534
20
-420.96113808447012
30
0
10
1132.0565490958822
20
-415.29704025335502
30
0
10
1121.2683200016968
20
-416.00895655417776
30
0
10
1111.6531556403024
20
-415.78150903147645
30
0
10
1106.7326924497067
20
-409.34015482140177
30
0
10
1100.9559800149002
20
-412.11482071733826
30
0
10
1094.763830082029
20
-412.35149941009456
30
0
10
1093.924417596219
20
-418.43511624198322
30
0
10
1089.1118432440401
20
-417.22687758693945
30
0
10
1087.8862676452768
20
-421.23724922237011
30
0
10
1087.7586424564547
20
-426.23000629522096
30
0
10
1080.4025227523646
20
-426.08232539416485
30
0
10
1079.7439740806178
20
-432.09924720074952
30
0
10
1079.0722665074704
20
-437.89328651091176
30
0
10
1074.636519861137
20
-440.76206082361409
30
0
10
1068.0812279083843
20
-439.55049631478244
30
0
10
1065.6060618295332
20
-445.37056889390675
30
0
10
1060.870360964776
20
-447.47337711206978
30
0
10
1054.8990279163374
20
-448.20387865900534
30
0
10
1055.0663581460176
20
-455.60152357121012
30
0
10
1047.1053807955352
20
-453.62305123465842
30
0
10
1046.057987466455
20
-460.53562366944902
30
0
10
1039.9176781622721
20
-461.24791809237377
30
0
10
1036.8013507083574
20
-466.62397994952875
30
0
10
1031.0106074293626
20
-466.63327995315763
30
0
10
1026.0183360153169
20
-465.2497103951211
30
0
10
1018.952535928713
20
-467.68827673205743
30
0
10
1009.7464650164646
20
-468.11340236568816
30
0
10
999.07516912022152
20
-465.87250435385818
30
0
10
989.06165055769043
20
-468.53024373554405
30
0
10
983.29664401527202
20
-463.05561910717188
30
0
10
977.70568258170488
20
-464.1335331180328
30
0
10
972.8541192857756
20
-460.71056490090496
30
0
10
965.61804474962082
20
-462.65786251241457
30
0
10
958.74248518139871
20
-464.74989174131156
30
0
10
950.57310592679585
20
-462.83317718309655
30
0
10
947.00470283339985
20
-468.85354097417093
30
0
10
941.68287566712388
20
-467.54715182168081
30
0
10
935.53910134062733
20
-466.40565828162357
30
0
10
935.72222455557244
20
-471.92533167868083
30
0
10
938.30295509123346
20
-471.91141019312749
30
0
10
941.73402842555106
20
-470.60927239974541
30
0
10
942.72886148573798
20
-475.11967326500212
30
0
10
946.59256715642618
20
-477.93199730399078
30
0
10
954.1949444513798
20
-477.80543935542033
30
0
10
961.14649469900291
20
-479.29967511265431
30
0
10
969.16522307632988
20
-478.04995143664314
30
0
10
971.32919966008194
20
-482.06904943827078
30
0
10
972.92442321777321
20
-482.81936645507784
30
0
0
SPLINE
5
102
100
AcDbEntity
8
0
100
AcDbSpline
70
2
71
3
72
115
73
111
74
0
42
0.000000001
43
0.0000000001
44
0.0000000001
40
0
40
0
40
0
40
0
40
0.64069394837884841
40
0.96104092256827256
40
1.2813878967576968
40
1.6017348709471211
40
1.9220818451365451
40
2.5627757935153936
40
3.2034697418942422
40
3.8441636902730902
40
4.4848576386519383
40
4.8052046128413632
40
5.1255515870307873
40
5.7662455354096362
40
6.4069394837884843
40
6.7272864579779084
40
7.0476334321673324
40
7.6883273805461805
40
8.3290213289250286
40
8.9697152773038766
40
9.2900622514933016
40
9.6104092256827265
40
10.251103174061575
40
11.532491070819272
40
12.813878967576969
40
14.095266864334665
40
15.376654761092361
40
16.658042657850057
40
17.298736606228907
40
17.939430554607753
40
18.580124502986603
40
19.220818451365453
40
20.502206348123149
40
21.783594244880845
40
23.064982141638545
40
23.705676090017391
40
24.026023064206818
40
24.346370038396241
40
24.987063986775091
40
25.627757935153937
40
26.268451883532784
40
26.909145831911633
40
27.229492806101057
40
27.549839780290483
40
27.870186754479906
40
28.19053372866933
40
29.471921625427026
40
30.112615573805876
40
30.753309522184722
40
31.394003470563568
40
32.034697418942415
40
33.316085315700114
40
33.956779264078961
40
34.597473212457814
40
35.23816716083666
40
35.878861109215507
40
36.51955505759436
40
37.160249005973206
40
37.800942954352053
40
38.441636902730906
40
39.723024799488599
40
41.004412696246298
40
41.645106644625145
40
42.285800593003998
40
42.926494541382844
40
43.567188489761691
40
44.207882438140544
40
44.84857638651939
40
45.489270334898237
40
46.12996428327709
40
46.770658231655936
40
47.411352180034783
40
48.052046128413636
40
48.692740076792482
40
49.974127973550182
40
51.255515870307875
40
52.536903767065567
40
53.818291663823267
40
56.381067457338659
40
61.506619044369451
40
62.788006941127151
40
64.069394837884843
40
64.710088786263697
40
65.350782734642536
40
66.632170631400243
40
67.913558528157935
40
68.554252476536789
40
69.194946424915628
40
69.835640373294481
40
70.476334321673335
40
71.757722218431027
40
72.398416166809881
40
73.03911011518872
40
73.679804063567573
40
74.320498011946427
40
74.961191960325266
40
75.601885908704119
40
76.242579857082973
40
76.883273805461812
40
77.523967753840651
40
78.164661702219504
40
78.485008676408938
40
78.805355650598358
40
79.446049598977197
40
80.08674354735605
40
80.407090521545484
40
80.727437495734904
40
81.047784469924324
40
81.368131444113743
40
82.008825392492597
40
82.008825392492597
40
82.008825392492597
40
82.008825392492597
10
1026.9243621826172
20
498.63201141357422
30
0
10
1029.0319649486025
20
497.70636514458545
30
0
10
1032.6843881484915
20
498.14334843096327
30
0
10
1036.5472435542342
20
498.60222974767714
30
0
10
1037.8399744128792
20
502.21581075870466
30
0
10
1041.3313967473864
20
501.63996257481648
30
0
10
1045.062152503049
20
503.71412555899917
30
0
10
1051.1186368848175
20
502.49730355785368
30
0
10
1056.439697943285
20
505.66313282676589
30
0
10
1057.6165719798341
20
513.53622996105184
30
0
10
1065.2260439509098
20
511.09724361178758
30
0
10
1066.6168037477601
20
516.39357881912542
30
0
10
1071.4935637958606
20
516.17090969242383
30
0
10
1074.0841713631962
20
521.36983144606972
30
0
10
1076.5050364477534
20
526.11875674895657
30
0
10
1077.5506422525796
20
530.02159414449625
30
0
10
1082.40405864539
20
531.33200676121066
30
0
10
1081.9043691786137
20
537.94584248739181
30
0
10
1085.3247745101769
20
543.08667113273964
30
0
10
1084.2897817500766
20
549.64008220881124
30
0
10
1090.2877480017855
20
549.50578930659901
30
0
10
1090.996966867405
20
554.27805837614824
30
0
10
1093.0465220529211
20
561.06743412700314
30
0
10
1098.5694977202556
20
570.58581729030243
30
0
10
1100.3864656432017
20
583.35224481351793
30
0
10
1103.3284140151547
20
595.87338307818561
30
0
10
1104.6929867123799
20
608.27664832190703
30
0
10
1102.5740613199384
20
618.8928343443456
30
0
10
1103.3987364853165
20
627.77590022340121
30
0
10
1108.6800830198958
20
631.74431266878412
30
0
10
1113.0624747122611
20
636.65357500977211
30
0
10
1113.425740080349
20
645.37423136570385
30
0
10
1114.841158185126
20
656.38838370785857
30
0
10
1106.7573843031764
20
666.85664092098818
30
0
10
1105.7452050929508
20
677.98289342623912
30
0
10
1104.2930880942426
20
684.25865935721572
30
0
10
1104.3162217841887
20
689.82605550573817
30
0
10
1099.8121983520773
20
690.1616709952043
30
0
10
1095.0372202209614
20
693.04611572627721
30
0
10
1092.1038487542214
20
699.45903598992481
30
0
10
1084.2933359050817
20
699.14217915980066
30
0
10
1084.0155073018564
20
704.74353371790244
30
0
10
1081.5181236057986
20
709.01531122878453
30
0
10
1077.8737759545375
20
708.36437151340056
30
0
10
1075.4740671197239
20
709.7892882301951
30
0
10
1072.5495915242141
20
717.09468391950122
30
0
10
1062.6304724347497
20
711.55756436377396
30
0
10
1056.9534430321351
20
719.58061636994569
30
0
10
1048.9244192531323
20
718.12862278163971
30
0
10
1047.4943910038301
20
725.53642773827755
30
0
10
1040.6795346843517
20
730.92571669400149
30
0
10
1032.6864003860603
20
733.86969297561586
30
0
10
1024.7286254181595
20
734.84241607325635
30
0
10
1018.5799483140518
20
737.07127720045389
30
0
10
1015.4024503856664
20
744.27489488335732
30
0
10
1008.7376100978443
20
742.96441263501708
30
0
10
1002.1665513777459
20
741.81856403088432
30
0
10
996.56834016104904
20
745.18702527992002
30
0
10
990.1055496907037
20
744.66393721767474
30
0
10
982.07327210114227
20
748.65252864874014
30
0
10
971.38488536400223
20
745.38435393653594
30
0
10
962.12858945054813
20
740.55374983292268
30
0
10
953.15406637019294
20
740.30265357089525
30
0
10
947.54762662876431
20
743.36129609380066
30
0
10
940.74424898781876
20
744.70967845859582
30
0
10
936.5565312118747
20
738.63664483713876
30
0
10
930.28548452553059
20
737.92518354568472
30
0
10
926.75061852537272
20
731.5336674953835
30
0
10
918.96866721438244
20
734.61912248600652
30
0
10
915.98015270224107
20
727.69650156924683
30
0
10
907.60230999523344
20
729.40518774439738
30
0
10
906.2801177435075
20
721.47113436883023
30
0
10
898.86842063803385
20
720.10087775493855
30
0
10
898.16564524430316
20
710.11772555182097
30
0
10
888.39633727861792
20
704.82921756034614
30
0
10
877.95457994378353
20
696.78429601477978
30
0
10
876.74928168376846
20
683.20836479551895
30
0
10
876.30683747298895
20
666.44344954985718
30
0
10
874.10367625304139
20
636.53405435373475
30
0
10
873.41660835102073
20
606.78957838742986
30
0
10
876.52905878407319
20
581.31612473519203
30
0
10
880.31300101955389
20
571.42638255310749
30
0
10
883.71023965212987
20
564.11647424072942
30
0
10
890.9648700806946
20
559.08957527464838
30
0
10
897.4309062876772
20
550.6914283531795
30
0
10
902.05071266251809
20
541.43775386698724
30
0
10
908.03914361842112
20
534.37168744574421
30
0
10
914.20660521987872
20
534.26227649531052
30
0
10
919.9362802273256
20
530.44074034590051
30
0
10
922.64265037070413
20
521.716007197934
30
0
10
931.74228188641928
20
519.10267913549114
30
0
10
940.32733359397992
20
519.6007136601861
30
0
10
945.56799744962041
20
515.46818428929805
30
0
10
951.48815703509899
20
513.50643649652352
30
0
10
959.01675870968143
20
514.47283170618664
30
0
10
960.6191221031454
20
507.89527587729754
30
0
10
965.75777139177944
20
503.63118088556996
30
0
10
972.63474714768859
20
504.92466181955206
30
0
10
978.32390654093786
20
501.66306362113568
30
0
10
984.76602191163943
20
501.69491833447097
30
0
10
990.30153525063486
20
502.97703475900323
30
0
10
994.01119560038751
20
498.7960573645621
30
0
10
997.46538597526796
20
500.5277914018485
30
0
10
1002.7902259298298
20
501.58399809965977
30
0
10
1008.1481250942484
20
501.9652385748804
30
0
10
1012.2338824373387
20
500.14615569085441
30
0
10
1014.9011493458546
20
501.79805051905328
30
0
10
1018.17908097187
20
499.21870797209641
30
0
10
1022.1463743185654
20
502.77157977590713
30
0
10
1024.8167594166321
20
499.55765768256299
30
0
10
1026.9243621826172
20
498.63201141357422
30
0
0
SPLINE
5
103
100
AcDbEntity
8
0
100
AcDbSpline
70
2
71
3
72
51
73
47
74
0
42
0.000000001
43
0.0000000001
44
0.0000000001
40
0
40
0
40
0
40
0
40
0.84708926347672453
40
1.6941785269534491
40
2.1177231586918115
40
2.5412677904301737
40
2.9648124221685359
40
3.3883570539068981
40
3.8119016856452603
40
4.0236740015144417
40
4.235446317383623
40
4.6589909491219856
40
5.0825355808603474
40
5.5060802125987092
40
5.9296248443370718
40
6.3531694760754345
40
6.7767141078137962
40
7.6238033712905207
40
8.470892634767246
40
9.3179818982439713
40
9.7415265299823339
40
10.165071161720695
40
10.588615793459056
40
10.800388109328237
40
11.012160425197418
40
11.435705056935781
40
11.859249688674144
40
12.706338952150869
40
13.553428215627592
40
14.400517479104316
40
14.824062110842679
40
15.247606742581041
40
16.094696006057767
40
16.941785269534492
40
18.635963796487943
40
19.483053059964668
40
20.33014232344139
40
21.177231586918111
40
22.024320850394837
40
22.871410113871562
40
23.294954745609925
40
23.718499377348287
40
24.14204400908665
40
24.565588640825013
40
25.412677904301738
40
27.106856431255185
40
27.106856431255185
40
27.106856431255185
40
27.106856431255185
10
549.92439270019543
20
728.22052001953136
30
0
10
552.12550948093383
20
726.84628422842604
30
0
10
557.53511925179976
20
725.16993707780375
30
0
10
565.53072237751553
20
726.28361517505891
30
0
10
567.21477539237867
20
732.49738547934589
30
0
10
571.49156234296424
20
732.45932379420481
30
0
10
575.61923679338031
20
734.16150886111484
30
0
10
578.55597127243823
20
737.18980992434524
30
0
10
577.46946751237363
20
741.37568289707747
30
0
10
582.15174756586384
20
741.59366332851869
30
0
10
578.63265885981912
20
743.49933079328696
30
0
10
580.01972036178745
20
747.56939869748953
30
0
10
573.25928354891994
20
747.21845608174908
30
0
10
570.57702302853227
20
745.13532140319035
30
0
10
565.50396248561674
20
746.00723688233199
30
0
10
567.59066290157671
20
751.19307714062393
30
0
10
565.54575611158896
20
756.445736587434
30
0
10
566.3652916526936
20
763.58212386331604
30
0
10
563.16512678173751
20
771.73679852706186
30
0
10
564.9187026223575
20
778.75170498863758
30
0
10
564.09643860245149
20
784.66114220222596
30
0
10
560.4043637139232
20
787.27510233506234
30
0
10
558.0288908863447
20
791.55069347547669
30
0
10
562.42180874267274
20
791.10569102457862
30
0
10
557.83684237681859
20
795.30348147568384
30
0
10
558.39106914762499
20
788.96083983043297
30
0
10
550.27064424897037
20
795.14403140754393
30
0
10
547.18065573370802
20
799.05010987076162
30
0
10
537.31723247744446
20
798.22175070741594
30
0
10
531.76124835506369
20
795.5026051391676
30
0
10
528.29804764088567
20
790.28178355283501
30
0
10
523.63474090686782
20
789.07193220911711
30
0
10
516.1177271550896
20
786.60957753271168
30
0
10
514.89243848164676
20
774.5802107512169
30
0
10
513.20870597751366
20
764.07388389350115
30
0
10
512.10947938738718
20
752.23009805856418
30
0
10
516.16941364228194
20
744.88884981882177
30
0
10
516.46605829997645
20
735.07267790407184
30
0
10
525.41258505086967
20
733.59525208956779
30
0
10
531.51335501118842
20
729.01796965549829
30
0
10
538.18709871408134
20
733.18805542553491
30
0
10
532.74927137730253
20
735.67534017406933
30
0
10
529.9750994870459
20
737.54964437208969
30
0
10
530.10292631688435
20
745.56667121237058
30
0
10
541.94093742467032
20
738.30807226982211
30
0
10
545.52215913871851
20
730.96899160174189
30
0
10
549.92439270019543
20
728.22052001953136
30
0
0
SPLINE
5
104
100
AcDbEntity
8
0
100
AcDbSpline
70
2
71
3
72
67
73
63
74
0
42
0.000000001
43
0.0000000001
44
0.0000000001
40
0
40
0
40
0
40
0
40
0.60198397779283874
40
1.2039679555856775
40
2.407935911171355
40
3.6119038667570322
40
4.2138878445498715
40
4.8158718223427099
40
6.0198397779283876
40
6.6218237557212261
40
7.2238077335140645
40
7.8257917113069038
40
8.4277756890997431
40
9.0297596668925806
40
9.6317436446854199
40
10.233727622478259
40
10.534719611374678
40
10.835711600271097
40
12.039679555856775
40
12.641663533649613
40
13.243647511442452
40
13.845631489235291
40
14.447615467028129
40
15.049599444820968
40
15.651583422613808
40
16.253567400406645
40
16.855551378199486
40
17.457535355992324
40
18.059519333785161
40
18.661503311578002
40
19.26348728937084
40
19.564479278267257
40
19.865471267163677
40
20.467455244956518
40
21.671423200542193
40
22.273407178335034
40
22.574399167231455
40
22.875391156127872
40
24.079359111713551
40
25.283327067299229
40
25.885311045092067
40
26.487295022884908
40
27.089279000677745
40
27.691262978470583
40
28.293246956263424
40
28.895230934056261
40
29.497214911849099
40
30.09919888964194
40
30.701182867434778
40
31.303166845227615
40
31.905150823020453
40
32.50713480081329
40
33.109118778606131
40
33.711102756398972
40
34.313086734191813
40
34.915070711984647
40
35.517054689777481
40
36.119038667570322
40
36.721022645363163
40
37.323006623156004
40
37.924990600948846
40
38.52697457874168
40
38.52697457874168
40
38.52697457874168
40
38.52697457874168
10
1386.9244384765627
20
541.38618469238293
30
0
10
1388.6143425240721
20
540.29307154159801
30
0
10
1393.4662465073329
20
540.35217511454823
30
0
10
1399.660276141959
20
542.06128093219513
30
0
10
1410.8186789326053
20
540.96272035089169
30
0
10
1419.7799951744807
20
542.26003397172212
30
0
10
1428.1596293113719
20
543.97337092074235
30
0
10
1428.1577509601916
20
553.56506421157644
30
0
10
1431.0802142652583
20
560.37201020702184
30
0
10
1430.1112867018026
20
568.86309816476751
30
0
10
1425.7614691155154
20
572.65002071157028
30
0
10
1419.3009983884872
20
572.61616213255638
30
0
10
1414.2934784214856
20
576.1639634254044
30
0
10
1407.4425504403721
20
574.6289763842849
30
0
10
1405.3672271404726
20
582.73437228447335
30
0
10
1399.6288895866414
20
581.75360900752094
30
0
10
1395.2168445647555
20
581.49124374078167
30
0
10
1394.1317502691356
20
589.03582920621307
30
0
10
1385.522421374596
20
590.2982777776175
30
0
10
1383.1813440593103
20
598.85107632671384
30
0
10
1376.1155086725771
20
599.93691017852848
30
0
10
1371.2098787037862
20
597.90242221681888
30
0
10
1363.9482316279714
20
599.34271188552657
30
0
10
1362.7826704363174
20
606.92764784372514
30
0
10
1354.317251859595
20
604.76422495813563
30
0
10
1354.3881599843949
20
612.06686090847643
30
0
10
1350.3148933619168
20
616.81261676496865
30
0
10
1346.5533598109826
20
621.40456061375335
30
0
10
1339.0333274574946
20
620.671290356339
30
0
10
1339.836136849508
20
628.99399817263725
30
0
10
1336.8347329555372
20
631.61873775723916
30
0
10
1334.1188985077547
20
636.46568280868939
30
0
10
1330.7366769222538
20
635.03154425167986
30
0
10
1323.3519574825909
20
635.6401631576249
30
0
10
1316.1154809657114
20
631.52244190675276
30
0
10
1309.0511241658528
20
633.00295049914871
30
0
10
1305.4545988244331
20
628.91803063307532
30
0
10
1312.2839791402921
20
626.18663994904955
30
0
10
1322.0273065682022
20
624.45241377507034
30
0
10
1321.0596712259701
20
609.18904127954602
30
0
10
1312.1559345197002
20
610.16444081955183
30
0
10
1307.6895845141225
20
605.80406016849633
30
0
10
1302.3879397942951
20
602.69516883565916
30
0
10
1304.3874114049372
20
596.22064690526668
30
0
10
1304.3515476957018
20
589.31281499099964
30
0
10
1310.6247500124682
20
587.60139057269362
30
0
10
1316.4006370388759
20
586.36641460515852
30
0
10
1321.7343228949892
20
583.45445040067341
30
0
10
1322.1121511556289
20
576.54599609726552
30
0
10
1326.806377365031
20
573.2717259211571
30
0
10
1333.7527900501698
20
575.31371013405737
30
0
10
1337.779695829769
20
569.37601758998926
30
0
10
1344.1428735144414
20
569.37337921651192
30
0
10
1349.2031941775792
20
566.47135227351919
30
0
10
1354.4795100243948
20
563.39031855061035
30
0
10
1356.6513688896191
20
556.71127720537459
30
0
10
1363.5578430039411
20
556.97089772399568
30
0
10
1367.7961969507855
20
552.25974343911275
30
0
10
1369.975874403463
20
547.00294967874288
30
0
10
1376.9890139988179
20
546.61419058888237
30
0
10
1383.3268222222782
20
546.91085401925807
30
0
10
1385.2345344290538
20
542.47929784316796
30
0
10
1386.9244384765627
20
541.38618469238293
30
0
0
SPLINE
5
105
100
AcDbEntity
8
0
100
AcDbSpline
70
2
71
3
72
91
73
87
74
0
42
0.000000001
43
0.0000000001
44
0.0000000001
40
0
40
0
40
0
40
0
40
0.83665853382312494
40
1.6733170676462499
40
2.5099756014693746
40
3.3466341352924998
40
4.1832926691156249
40
5.0199512029387492
40
6.6932682705849995
40
7.5299268044081247
40
7.9482560713196868
40
8.3665853382312498
40
9.2032438720543741
40
10.039902405877498
40
10.876560939700624
40
11.294890206612187
40
11.713219473523749
40
12.549878007346873
40
13.386536541169999
40
15.059853608816249
40
15.478182875727811
40
15.896512142639374
40
16.7331706764625
40
17.569829210285626
40
17.988158477197189
40
18.406487744108748
40
19.243146277931871
40
20.079804811754997
40
20.49813407866656
40
20.916463345578123
40
21.334792612489686
40
21.753121879401249
40
22.171451146312812
40
22.589780413224375
40
23.426438947047497
40
23.844768213959057
40
24.26309748087062
40
24.472262114326401
40
24.681426747782183
40
25.099756014693746
40
25.518085281605309
40
25.936414548516872
40
26.773073082339998
40
28.44639014998625
40
29.283048683809376
40
30.119707217632499
40
30.956365751455621
40
31.793024285278747
40
32.629682819101873
40
33.466341352924999
40
34.302999886748125
40
34.721329153659688
40
35.139658420571251
40
35.557987687482814
40
35.976316954394377
40
36.394646221305941
40
36.812975488217504
40
37.231304755129067
40
37.64963402204063
40
38.486292555863756
40
39.322951089686882
40
39.741280356598438
40
40.159609623510001
40
40.577938890421564
40
40.99626815733312
40
41.832926691156246
40
42.669585224979372
40
43.506243758802498
40
44.342902292625624
40
44.761231559537187
40
45.17956082644875
40
45.597890093360313
40
46.016219360271876
40
46.852877894095002
40
47.689536427918128
40
48.526194961741254
40
48.944524228652817
40
49.36285349556438
40
49.781182762475936
40
50.199512029387499
40
50.617841296299062
40
51.036170563210618
40
51.454499830122181
40
51.872829097033744
40
52.70948763085687
40
53.546146164679996
40
53.546146164679996
40
53.546146164679996
40
53.546146164679996
10
1620.9243774414062
20
691.90887451171875
30
0
10
1622.6442817618959
20
690.28892884238508
30
0
10
1629.6174984878826
20
690.77755724600809
30
0
10
1637.1307519753736
20
689.88889688351674
30
0
10
1645.0930522986373
20
692.03689724701849
30
0
10
1654.381328944924
20
690.92004971331971
30
0
10
1658.1965018352853
20
699.62154230650231
30
0
10
1663.692618005553
20
709.60212771252304
30
0
10
1654.5611077972512
20
719.18189145746692
30
0
10
1653.3190372042709
20
730.30677671524643
30
0
10
1646.3135600800422
20
729.06756427813423
30
0
10
1645.301695513966
20
736.3226024240812
30
0
10
1642.3489725714244
20
741.65924732197664
30
0
10
1641.7948166221561
20
750.98909029140361
30
0
10
1646.9919362803817
20
755.85030753886031
30
0
10
1646.9019299491563
20
762.67662523152421
30
0
10
1653.4211157664554
20
763.27499527767941
30
0
10
1653.0158725518709
20
772.08334611682153
30
0
10
1654.6607506761623
20
782.34687921718682
30
0
10
1654.363156361941
20
791.80309578491062
30
0
10
1655.3578626618071
20
801.03205490868095
30
0
10
1661.5205295010542
20
802.54277970347925
30
0
10
1663.4193468037777
20
810.29051129456491
30
0
10
1664.9978719639598
20
816.67345766741562
30
0
10
1672.6353393483794
20
818.92030960653915
30
0
10
1663.317092880478
20
820.40234815717895
30
0
10
1666.0808228474443
20
828.88471903097582
30
0
10
1659.9531135820116
20
833.58764115763847
30
0
10
1661.95400698801
20
840.20702729587447
30
0
10
1666.9185920725079
20
840.67225030261682
30
0
10
1665.2940759362912
20
846.97365835482856
30
0
10
1671.7055787959675
20
843.76647273357753
30
0
10
1673.9661855207496
20
849.09082062131745
30
0
10
1680.4662695063259
20
844.19769445155111
30
0
10
1682.2073260230718
20
853.00540116104844
30
0
10
1688.7202031107975
20
852.79823184913641
30
0
10
1690.1321148312447
20
856.63270516873035
30
0
10
1693.5802204353718
20
856.09755869535616
30
0
10
1693.5485849599645
20
859.93601818300522
30
0
10
1695.094852463536
20
862.46147615476843
30
0
10
1693.8600433990985
20
867.70753260022491
30
0
10
1687.6255020996189
20
867.75978716435145
30
0
10
1678.3152648920361
20
867.67941006035244
30
0
10
1666.7648724356932
20
867.93267175946517
30
0
10
1656.1026676102529
20
867.35771541218128
30
0
10
1646.6821291212459
20
868.52188910527173
30
0
10
1645.4248336122159
20
858.97234882481371
30
0
10
1650.8567856510062
20
852.2422862047913
30
0
10
1653.9840732003106
20
844.8701061009026
30
0
10
1655.1862935604549
20
835.00948494856641
30
0
10
1646.496366058795
20
836.03409663055629
30
0
10
1640.33835960334
20
836.72819714769264
30
0
10
1637.718630899778
20
832.80880413949319
30
0
10
1632.8949607827822
20
836.11487620405239
30
0
10
1629.7486699416086
20
833.69450080634067
30
0
10
1626.894095339826
20
830.43573061601091
30
0
10
1621.7828237256265
20
832.23908469541743
30
0
10
1619.6498855335983
20
828.11936861132654
30
0
10
1615.811449690239
20
824.16423737104674
30
0
10
1617.0761705438279
20
816.26344089347685
30
0
10
1609.3821493168628
20
813.60668495680613
30
0
10
1605.3801502625724
20
808.92255351383653
30
0
10
1608.1892150938072
20
804.65113476483498
30
0
10
1606.6934062224529
20
800.0309711787545
30
0
10
1612.2564657731848
20
797.03445225227358
30
0
10
1616.8569227870407
20
792.35276617436512
30
0
10
1623.0557703699403
20
785.61552406476949
30
0
10
1619.0700808529039
20
777.47951738733036
30
0
10
1613.855648775273
20
773.2195707959653
30
0
10
1608.8673312727258
20
769.71871600144073
30
0
10
1609.3136322716007
20
765.07397777313736
30
0
10
1605.8665874374419
20
762.36049318233711
30
0
10
1605.1103983122059
20
756.86637807389525
30
0
10
1605.7291026957846
20
750.29590473835424
30
0
10
1610.7114183092506
20
742.29334078267539
30
0
10
1616.1967313262035
20
740.04719519563355
30
0
10
1621.7119081745882
20
734.74833028571334
30
0
10
1618.0619966390884
20
731.10585900780484
30
0
10
1620.4795995676361
20
727.32566665400213
30
0
10
1618.6604088340509
20
723.17511938672192
30
0
10
1623.5958903370083
20
719.01870065495041
30
0
10
1617.3099599155657
20
717.26046667933247
30
0
10
1619.139491864295
20
712.36371917909526
30
0
10
1617.9692628352702
20
706.96459099372635
30
0
10
1619.2980725649436
20
700.49723126201013
30
0
10
1619.2044731209166
20
693.52882018105242
30
0
10
1620.9243774414062
20
691.90887451171875
30
0
0
SPLINE
5
106
100
AcDbEntity
8
0
100
AcDbSpline
70
2
71
3
72
53
73
49
74
0
42
0.000000001
43
0.0000000001
44
0.0000000001
40
0
40
0
40
0
40
0
40
0.7370299242967564
40
1.4740598485935128
40
2.2110897728902694
40
2.9481196971870256
40
3.6851496214837822
40
4.4221795457805388
40
4.7906945079289169
40
5.159209470077295
40
5.8962393943740512
40
6.2647543565224293
40
6.6332693186708074
40
6.8175267997449964
40
7.0017842808191855
40
7.3702992429675644
40
8.1073291672643215
40
8.8443590915610777
40
9.5813890158578339
40
10.31841894015459
40
11.055448864451346
40
11.792478788748102
40
12.529508713044859
40
13.266538637341615
40
13.635053599489993
40
14.003568561638371
40
14.372083523786749
40
14.740598485935129
40
15.109113448083509
40
15.477628410231887
40
15.846143372380265
40
16.214658334528643
40
16.583173296677021
40
16.951688258825399
40
17.320203220973777
40
17.688718183122155
40
18.057233145270533
40
18.425748107418912
40
18.79426306956729
40
19.162778031715668
40
19.531292993864046
40
19.899807956012424
40
20.268322918160802
40
20.63683788030918
40
21.373867804605936
40
22.110897728902692
40
22.847927653199449
40
23.584957577496205
40
23.584957577496205
40
23.584957577496205
40
23.584957577496205
10
1476.9244384765625
20
-227.67559051513672
30
0
10
1479.1844319854658
20
-228.63721750460491
30
0
10
1484.2763532783179
20
-227.57917535366335
30
0
10
1491.5217467184357
20
-227.35027756000844
30
0
10
1498.0556900072438
20
-222.64713231848219
30
0
10
1496.0368160679693
20
-214.4931564323758
30
0
10
1499.7442085983862
20
-207.73621462885657
30
0
10
1495.0510948830756
20
-200.8959759571529
30
0
10
1500.5700208244566
20
-197.7612687852565
30
0
10
1504.5808318194177
20
-202.35383329221088
30
0
10
1509.8294974419759
20
-199.77710380544497
30
0
10
1513.9825447052963
20
-197.98998624938514
30
0
10
1517.1860513844504
20
-199.85093534837731
30
0
10
1519.7997414715869
20
-200.98036389806776
30
0
10
1519.0084854658107
20
-196.98321376132401
30
0
10
1524.1693515007044
20
-197.39044958952343
30
0
10
1529.174868198666
20
-195.58028018511411
30
0
10
1538.3897236875923
20
-195.33322754452374
30
0
10
1535.7848320355199
20
-186.16937612342878
30
0
10
1537.6951662986603
20
-179.49522334056263
30
0
10
1538.5892538521045
20
-172.5543645619193
30
0
10
1539.60327398202
20
-163.5020667510197
30
0
10
1530.5715279309179
20
-163.12217157863327
30
0
10
1526.0276165786008
20
-160.54346355107481
30
0
10
1519.7439460068856
20
-160.32810456084502
30
0
10
1520.674914522479
20
-166.245164275598
30
0
10
1515.5251506522713
20
-163.71346556260178
30
0
10
1512.6677442119083
20
-165.46591705929501
30
0
10
1513.7614130852455
20
-170.93254634610071
30
0
10
1512.0610688153965
20
-172.69209924822846
30
0
10
1506.7351802729595
20
-171.06815706558422
30
0
10
1503.8306398693464
20
-171.98751970139668
30
0
10
1500.7671882394354
20
-174.17343977420333
30
0
10
1497.8331437321053
20
-175.67307638911072
30
0
10
1496.1725302317043
20
-179.32972067283953
30
0
10
1493.0568963933863
20
-181.17753729525091
30
0
10
1490.6133578304318
20
-182.75169324756826
30
0
10
1491.1116657649416
20
-187.60235993231137
30
0
10
1486.7181416825076
20
-189.01845963717008
30
0
10
1488.0114547987387
20
-194.42219034027747
30
0
10
1482.8281032251789
20
-193.61601459338652
30
0
10
1481.3739938722426
20
-197.54860050871301
30
0
10
1476.5913715073721
20
-196.45392939810907
30
0
10
1476.0060876383677
20
-202.16336875468375
30
0
10
1476.4811621516983
20
-207.91813765712234
30
0
10
1475.339991861716
20
-215.29729790860071
30
0
10
1470.7163922248981
20
-221.80941341685411
30
0
10
1474.6644449676592
20
-226.71396352566853
30
0
10
1476.9244384765625
20
-227.67559051513672
30
0
0
SPLINE
5
107
100
AcDbEntity
8
0
100
AcDbSpline
70
2
71
3
72
38
73
34
74
0
42
0.000000001
43
0.0000000001
44
0.0000000001
40
0
40
0
40
0
40
0
40
1.1712960730955508
40
2.3425921461911017
40
2.9282401827388771
40
3.5138882192866525
40
4.0995362558344279
40
4.6851842923822034
40
4.9780083106560911
40
5.2708323289299788
40
5.8564803654777542
40
6.4421284020255296
40
7.027776438573305
40
7.6134244751210804
40
8.1990725116688559
40
8.7847205482166313
40
9.3703685847644067
40
9.9560166213121821
40
10.541664657859958
40
11.712960730955508
40
12.298608767503284
40
12.884256804051059
40
13.469904840598835
40
14.05555287714661
40
14.641200913694385
40
15.226848950242161
40
15.812496986789936
40
16.398145023337712
40
16.983793059885485
40
17.276617078159376
40
17.569441096433263
40
18.15508913298104
40
18.740737169528813
40
18.740737169528813
40
18.740737169528813
40
18.740737169528813
10
774.92439270019543
20
-455.67745208740246
30
0
10
778.82968434026884
20
-455.85194012975978
30
0
10
786.30504365011438
20
-455.52872221162045
30
0
10
796.27452176614781
20
-457.30632936114046
30
0
10
803.73976743872481
20
-457.07772942664144
30
0
10
808.4662966548193
20
-454.95117352472994
30
0
10
813.10688648912469
20
-451.00622510453047
30
0
10
818.67715047233287
20
-454.238998488113
30
0
10
821.62452478461876
20
-449.85189745690712
30
0
10
816.67408196801966
20
-449.38286680138481
30
0
10
811.51506386184406
20
-449.73097722503292
30
0
10
809.38943062264343
20
-443.50992202509462
30
0
10
802.80182299508738
20
-443.25223018929626
30
0
10
797.38789158441341
20
-443.84812301965718
30
0
10
791.93137745008789
20
-447.43488695080055
30
0
10
786.18327463731066
20
-444.72930078403044
30
0
10
780.82946572810158
20
-443.65452903997596
30
0
10
774.23481203524921
20
-444.75457142133536
30
0
10
770.05113036654257
20
-436.64000899270258
30
0
10
761.85074227536529
20
-435.68599542050237
30
0
10
756.67772370131399
20
-428.27287243143542
30
0
10
750.42543753547181
20
-432.17894983869286
30
0
10
745.1333582359315
20
-431.71928202066653
30
0
10
737.41499998067172
20
-431.56318925178817
30
0
10
740.63396709724088
20
-439.02922935571974
30
0
10
743.223281541554
20
-444.02815155546165
30
0
10
749.88803598487334
20
-444.29867193577309
30
0
10
754.86144807852713
20
-446.43204224323017
30
0
10
756.75806135721257
20
-451.96480552109495
30
0
10
761.55464042494168
20
-450.28019229620031
30
0
10
764.70540236872966
20
-452.62571131892429
30
0
10
768.98264924750993
20
-455.24767152315303
30
0
10
772.97174688015866
20
-455.59020806622379
30
0
10
774.92439270019543
20
-455.67745208740246
30
0
0
SPLINE
5
108
100
AcDbEntity
8
0
100
AcDbSpline
70
2
71
3
72
85
73
81
74
0
42
0.000000001
43
0.0000000001
44
0.0000000001
40
0
40
0
40
0
40
0
40
0.38933574431373852
40
0.77867148862747704
40
1.5573429772549541
40
2.3360144658824309
40
3.1146859545099082
40
3.5040216988236468
40
3.893357443137385
40
4.6720289317648618
40
5.450700420392339
40
6.2293719090198163
40
7.0080433976472936
40
7.7867148862747699
40
8.5653863749022463
40
9.3440578635297236
40
10.122729352157201
40
10.901400840784678
40
11.680072329412155
40
12.458743818039633
40
13.23741530666711
40
14.016086795294587
40
14.794758283922064
40
15.57342977254954
40
16.352101261177015
40
17.130772749804493
40
17.520108494118233
40
17.90944423843197
40
18.688115727059447
40
19.466787215686924
40
19.856122960000661
40
20.245458704314402
40
20.634794448628142
40
21.024130192941879
40
21.802801681569356
40
22.581473170196833
40
23.360144658824311
40
24.138816147451788
40
24.917487636079265
40
25.696159124706742
40
26.085494869020479
40
26.47483061333422
40
26.86416635764796
40
27.253502101961697
40
27.642837846275434
40
28.032173590589174
40
28.810845079216651
40
29.589516567844129
40
30.368188056471606
40
30.757523800785343
40
31.146859545099083
40
31.925531033726561
40
32.314866778040297
40
32.704202522354038
40
33.093538266667778
40
33.482874010981519
40
34.261545499608992
40
35.040216988236466
40
35.429552732550206
40
35.818888476863947
40
36.597559965491428
40
37.376231454118901
40
38.154902942746375
40
38.933574431373856
40
39.712245920001337
40
40.49091740862881
40
42.048260385883765
40
42.826931874511246
40
43.216267618824986
40
43.605603363138719
40
45.162946340393674
40
45.552282084707414
40
45.941617829021148
40
46.720289317648621
40
47.109625061962362
40
47.498960806276102
40
48.277632294903576
40
48.666968039217309
40
49.05630378353105
40
49.83497527215853
40
49.83497527215853
40
49.83497527215853
40
49.83497527215853
10
1004.4243621826174
20
-14.707727432250977
30
0
10
1005.6988543753623
20
-14.680845182046509
30
0
10
1008.6319765776874
20
-13.269998331185969
30
0
10
1012.3159675926128
20
-18.391983711096355
30
0
10
1019.231293099094
20
-16.151888699560494
30
0
10
1024.9046944408449
20
-10.661837192278405
30
0
10
1025.7822530955209
20
-4.7886032062572985
30
0
10
1021.4701209628082
20
-0.91939081116628341
30
0
10
1020.3005308883735
20
4.0936404119052714
30
0
10
1020.0277224738359
20
12.042735767402803
30
0
10
1029.5582627837755
20
12.186568005609136
30
0
10
1036.7127331466579
20
13.005806615162172
30
0
10
1045.1567175844925
20
13.77246453969493
30
0
10
1049.3033359973881
20
20.348782272022508
30
0
10
1058.2592183527024
20
21.122258507388437
30
0
10
1058.6055642097019
20
30.036977667578562
30
0
10
1061.3519962283367
20
38.476577415741737
30
0
10
1052.6816963581318
20
42.001121356000041
30
0
10
1047.9292470553307
20
47.724450515616176
30
0
10
1052.1838505234446
20
56.631216641036424
30
0
10
1059.6140379746084
20
56.58204789423614
30
0
10
1066.8064181320633
20
63.437232858115209
30
0
10
1071.5480139424217
20
55.308200331007583
30
0
10
1080.1171766247185
20
56.116901115267595
30
0
10
1087.3990021974787
20
56.462415260040842
30
0
10
1094.3517919642743
20
55.829956659691476
30
0
10
1098.30553464644
20
60.507748801450219
30
0
10
1104.0843862576239
20
56.209288000383957
30
0
10
1106.4378873692192
20
64.976366632239191
30
0
10
1103.4682819871596
20
69.951308863553649
30
0
10
1098.3838623406066
20
73.354943000936174
30
0
10
1094.595981656722
20
69.24903428023481
30
0
10
1091.7252705665073
20
74.701733431704213
30
0
10
1087.4221052064925
20
74.210078771706279
30
0
10
1080.8769850715989
20
75.543001380227935
30
0
10
1071.7167216702196
20
73.413398459682128
30
0
10
1069.1292873547939
20
82.308548353148751
30
0
10
1061.1107178128823
20
85.598897256945463
30
0
10
1061.2379714168205
20
94.670791827022214
30
0
10
1058.9604421058132
20
99.81304659540676
30
0
10
1059.7779901734839
20
106.74419327026951
30
0
10
1056.6053970696512
20
107.89724557742198
30
0
10
1052.46729903961
20
108.50592596884582
30
0
10
1052.0020749830999
20
113.73877243203721
30
0
10
1048.7971473502673
20
115.95195727852965
30
0
10
1043.0851355249565
20
114.44445942496046
30
0
10
1038.751112540524
20
120.77929403121168
30
0
10
1031.9892603171106
20
123.30681233827607
30
0
10
1026.1418185992029
20
127.35803607708917
30
0
10
1021.2669806622982
20
124.89532628595443
30
0
10
1016.551841243719
20
129.30468106117507
30
0
10
1011.3344711082846
20
126.05319944968394
30
0
10
1008.7033354095254
20
121.74603972898269
30
0
10
1005.1096241270502
20
120.0711763849803
30
0
10
1000.4571987983402
20
120.19147027917006
30
0
10
1000.3645990643855
20
113.63390084504083
30
0
10
1001.8675849965904
20
108.2635480537142
30
0
10
998.90779272434656
20
100.24681490313142
30
0
10
991.27295123046906
20
103.43917776295072
30
0
10
992.48134308186854
20
97.440118444114006
30
0
10
992.96659549685546
20
90.430592681728456
30
0
10
986.38749071394398
20
85.536036358572929
30
0
10
982.49466298729635
20
79.050736295119009
30
0
10
986.50850104556844
20
70.661810421245079
30
0
10
979.8374429501323
20
64.912029930271714
30
0
10
981.51639306336847
20
53.74026338742091
30
0
10
981.01624710630347
20
43.519678670606098
30
0
10
980.0122244318294
20
34.876839204541881
30
0
10
978.08565519718445
20
29.279574842250206
30
0
10
968.50235548921864
20
29.66797424627606
30
0
10
972.32023676675578
20
18.970587648307216
30
0
10
971.81796852603247
20
9.8644289666054608
30
0
10
977.73874387392311
20
8.8596820845220829
30
0
10
979.19761900882963
20
2.9865580603539015
30
0
10
981.90578838032764
20
-1.2836168171791198
30
0
10
988.03232484100795
20
-0.73575324696164357
30
0
10
991.26593223806537
20
-5.2861910952230895
30
0
10
996.69238097151731
20
-5.7892907014859274
30
0
10
999.20431466939885
20
-10.770891631918492
30
0
10
1001.8753777971276
20
-14.761491932659915
30
0
10
1004.4243621826174
20
-14.707727432250977
30
0
0
SPLINE
5
109
100
AcDbEntity
8
0
100
AcDbSpline
70
2
71
3
72
42
73
38
74
0
42
0.000000001
43
0.0000000001
44
0.0000000001
40
0
40
0
40
0
40
0
40
1.4835923016920072
40
2.2253884525380108
40
2.5962865279610128
40
2.9671846033840144
40
3.7089807542300179
40
4.4507769050760215
40
4.821674980499024
40
5.1925730559220256
40
5.5634711313450271
40
5.9343692067680287
40
6.6761653576140318
40
7.4179615084600359
40
8.1597576593060399
40
8.9015538101520431
40
9.643349960998048
40
10.385146111844051
40
11.126942262690054
40
11.868738413536057
40
12.610534564382061
40
13.352330715228064
40
14.094126866074067
40
14.835923016920072
40
15.577719167766077
40
16.31951531861208
40
17.061311469458083
40
17.803107620304086
40
18.544903771150089
40
18.915801846573093
40
19.286699921996096
40
20.028496072842099
40
20.770292223688102
40
21.512088374534105
40
22.253884525380109
40
22.995680676226112
40
23.737476827072115
40
23.737476827072115
40
23.737476827072115
40
23.737476827072115
10
954.92439270019531
20
102.78635978698732
30
0
10
960.14601821433507
20
102.65588874970754
30
0
10
967.40849793360894
20
102.66194345514688
30
0
10
975.61544672419143
20
106.0854698939854
30
0
10
980.723920173745
20
103.7024871402925
30
0
10
984.18901886666174
20
107.27962832309487
30
0
10
991.74834820733906
20
106.69443865268774
30
0
10
993.93111074141245
20
113.18243929728939
30
0
10
996.32266911110332
20
116.71228130857392
30
0
10
1000.2875859527563
20
117.26984713403232
30
0
10
997.76925500797586
20
121.92583526945334
30
0
10
1000.6076189934721
20
126.39241037374772
30
0
10
996.29107350878235
20
132.66622625837522
30
0
10
999.62074208382307
20
139.05809566742246
30
0
10
999.99827157108712
20
146.45180984496099
30
0
10
1000.621954774758
20
154.17024431580862
30
0
10
994.05613294375598
20
159.40892300719483
30
0
10
993.35503372914388
20
166.70252922442688
30
0
10
992.5673168035554
20
175.74832400768929
30
0
10
983.68342775336021
20
175.5184513117797
30
0
10
977.67473781366834
20
179.50341823163714
30
0
10
969.61361124091127
20
179.12791595924094
30
0
10
969.97259994705576
20
169.62521278681979
30
0
10
963.74773843049968
20
165.65056189736208
30
0
10
957.27757373768804
20
162.71671736498149
30
0
10
956.94804264409345
20
153.54791223957255
30
0
10
950.17364397471169
20
150.93369000920029
30
0
10
944.729286781155
20
146.77699151569789
30
0
10
942.75973824803998
20
140.17811955361344
30
0
10
940.28905946519262
20
137.31618060361714
30
0
10
934.85276316300906
20
136.39980155691021
30
0
10
935.68367902566126
20
128.59501623531031
30
0
10
934.05738569259574
20
121.27479553393572
30
0
10
939.0542183846153
20
115.37856960091416
30
0
10
943.03742527768941
20
109.92463909191315
30
0
10
946.90196824500686
20
103.04932009669328
30
0
10
952.31357994312532
20
102.8515953056272
30
0
10
954.92439270019531
20
102.78635978698732
30
0
0
SPLINE
5
110
100
AcDbEntity
8
0
100
AcDbSpline
70
2
71
3
72
24
73
20
74
0
42
0.000000001
43
0.0000000001
44
0.0000000001
40
0
40
0
40
0
40
0
40
0.67105599877512945
40
1.3421119975502589
40
2.6842239951005178
40
3.3552799938756475
40
4.0263359926507771
40
4.3618639920383417
40
4.6973919914259064
40
5.3684479902010356
40
6.0395039889761648
40
6.7105599877512949
40
7.381615986526425
40
7.7171439859139896
40
8.0526719853015543
40
8.3881999846891198
40
8.7237279840766835
40
9.3947839828518127
40
10.736895980402071
40
10.736895980402071
40
10.736895980402071
40
10.736895980402071
10
842.4243927001952
20
88.439302444457994
30
0
10
844.4360266281135
20
87.350522234635378
30
0
10
848.75412825450917
20
85.883133107361317
30
0
10
855.55634239793505
20
90.118823956479645
30
0
10
865.31301753946673
20
94.432282103664477
30
0
10
865.35410221758764
20
103.71292488685876
30
0
10
865.70000643037633
20
109.51953860197457
30
0
10
868.38778338479665
20
112.77147583526416
30
0
10
866.85573196535199
20
118.05614332225004
30
0
10
861.53728771346437
20
118.28349630919577
30
0
10
853.12119009748289
20
119.5180586752423
30
0
10
854.23930027255551
20
108.52430106212425
30
0
10
848.51145721277726
20
111.98773695577687
30
0
10
845.05596460602749
20
108.78653942942542
30
0
10
840.94666222002627
20
109.42924547329008
30
0
10
840.18590798365051
20
105.49841080317343
30
0
10
835.60640116746481
20
104.17091545230777
30
0
10
833.25072437228141
20
96.013717370684688
30
0
10
838.40112484435861
20
90.616862864103226
30
0
10
842.4243927001952
20
88.439302444457994
30
0
0
SPLINE
5
111
100
AcDbEntity
8
0
100
AcDbSpline
70
2
71
3
72
51
73
47
74
0
42
0.000000001
43
0.0000000001
44
0.0000000001
40
0
40
0
40
0
40
0
40
0.84708926347672453
40
1.6941785269534491
40
2.1177231586918115
40
2.5412677904301737
40
2.9648124221685359
40
3.3883570539068981
40
3.8119016856452603
40
4.0236740015144417
40
4.235446317383623
40
4.6589909491219856
40
5.0825355808603474
40
5.5060802125987092
40
5.9296248443370718
40
6.3531694760754345
40
6.7767141078137962
40
7.6238033712905207
40
8.470892634767246
40
9.3179818982439713
40
9.7415265299823339
40
10.165071161720695
40
10.588615793459056
40
10.800388109328237
40
11.012160425197418
40
11.435705056935781
40
11.859249688674144
40
12.706338952150869
40
13.553428215627592
40
14.400517479104316
40
14.824062110842679
40
15.247606742581041
40
16.094696006057767
40
16.941785269534492
40
18.635963796487943
40
19.483053059964668
40
20.33014232344139
40
21.177231586918111
40
22.024320850394837
40
22.871410113871562
40
23.294954745609925
40
23.718499377348287
40
24.14204400908665
40
24.565588640825013
40
25.412677904301738
40
27.106856431255185
40
27.106856431255185
40
27.106856431255185
40
27.106856431255185
10
549.92439270019543
20
728.22052001953136
30
0
10
552.12550948093383
20
726.84628422842604
30
0
10
557.53511925179976
20
725.16993707780375
30
0
10
565.53072237751553
20
726.28361517505891
30
0
10
567.21477539237867
20
732.49738547934589
30
0
10
571.49156234296424
20
732.45932379420481
30
0
10
575.61923679338031
20
734.16150886111484
30
0
10
578.55597127243823
20
737.18980992434524
30
0
10
577.46946751237363
20
741.37568289707747
30
0
10
582.15174756586384
20
741.59366332851869
30
0
10
578.63265885981912
20
743.49933079328696
30
0
10
580.01972036178745
20
747.56939869748953
30
0
10
573.25928354891994
20
747.21845608174908
30
0
10
570.57702302853227
20
745.13532140319035
30
0
10
565.50396248561674
20
746.00723688233199
30
0
10
567.59066290157671
20
751.19307714062393
30
0
10
565.54575611158896
20
756.445736587434
30
0
10
566.3652916526936
20
763.58212386331604
30
0
10
563.16512678173751
20
771.73679852706186
30
0
10
564.9187026223575
20
778.75170498863758
30
0
10
564.09643860245149
20
784.66114220222596
30
0
10
560.4043637139232
20
787.27510233506234
30
0
10
558.0288908863447
20
791.55069347547669
30
0
10
562.42180874267274
20
791.10569102457862
30
0
10
557.83684237681859
20
795.30348147568384
30
0
10
558.39106914762499
20
788.96083983043297
30
0
10
550.27064424897037
20
795.14403140754393
30
0
10
547.18065573370802
20
799.05010987076162
30
0
10
537.31723247744446
20
798.22175070741594
30
0
10
531.76124835506369
20
795.5026051391676
30
0
10
528.29804764088567
20
790.28178355283501
30
0
10
523.63474090686782
20
789.07193220911711
30
0
10
516.1177271550896
20
786.60957753271168
30
0
10
514.89243848164676
20
774.5802107512169
30
0
10
513.20870597751366
20
764.07388389350115
30
0
10
512.10947938738718
20
752.23009805856418
30
0
10
516.16941364228194
20
744.88884981882177
30
0
10
516.46605829997645
20
735.07267790407184
30
0
10
525.41258505086967
20
733.59525208956779
30
0
10
531.51335501118842
20
729.01796965549829
30
0
10
538.18709871408134
20
733.18805542553491
30
0
10
532.74927137730253
20
735.67534017406933
30
0
10
529.9750994870459
20
737.54964437208969
30
0
10
530.10292631688435
20
745.56667121237058
30
0
10
541.94093742467032
20
738.30807226982211
30
0
10
545.52215913871851
20
730.96899160174189
30
0
10
549.92439270019543
20
728.22052001953136
30
0
0
SPLINE
5
112
100
AcDbEntity
8
0
100
AcDbSpline
70
2
71
3
72
31
73
27
74
0
42
0.000000001
43
0.0000000001
44
0.0000000001
40
0
40
0
40
0
40
0
40
0.83128809848074792
40
1.2469321477211219
40
1.6625761969614958
40
2.4938642954422439
40
2.9095083446826178
40
3.3251523939229917
40
4.1564404924037399
40
4.5720845416441138
40
4.9877285908844877
40
5.4033726401248616
40
5.8190166893652355
40
6.6503047878459833
40
7.0659488370863581
40
7.481592886326732
40
7.8972369355671059
40
8.3128809848074798
40
9.1441690832882276
40
9.5598131325286015
40
9.9754571817689754
40
10.391101231009349
40
10.806745280249723
40
11.638033378730471
40
12.469321477211219
40
13.300609575691967
40
13.300609575691967
40
13.300609575691967
40
13.300609575691967
10
1391.4244079589844
20
431.23943328857416
30
0
10
1393.9931315965671
20
430.24280530188713
30
0
10
1397.7649719661792
20
427.25738985852433
30
0
10
1402.8587021699186
20
428.54008830020319
30
0
10
1410.287144154468
20
424.89800487479721
30
0
10
1409.2125522194751
20
431.48860984430087
30
0
10
1415.2174990405408
20
436.73417235159951
30
0
10
1405.6887336602872
20
436.8461831812424
30
0
10
1407.973107983438
20
444.24554382472036
30
0
10
1404.8435838589057
20
449.45990572803686
30
0
10
1400.0556470017032
20
448.32669497106133
30
0
10
1395.8418489144451
20
447.98745435894062
30
0
10
1391.708546959346
20
452.25889801292311
30
0
10
1385.6335508863435
20
452.74744866567301
30
0
10
1381.1222525399453
20
449.97036046883602
30
0
10
1376.8439088046453
20
450.90857082210215
30
0
10
1372.2407126745859
20
451.52615710314285
30
0
10
1369.5693491084082
20
445.60971254687848
30
0
10
1361.4476876484764
20
450.21603079990422
30
0
10
1359.4373372743125
20
443.47135188553341
30
0
10
1362.8353071518793
20
440.40807892225678
30
0
10
1363.3577362820897
20
435.20256553985922
30
0
10
1370.2585932326531
20
436.4198946929651
30
0
10
1374.1284307362728
20
429.21926409720595
30
0
10
1383.6099102638859
20
432.24201929752587
30
0
10
1388.8556843214017
20
432.23606127526125
30
0
10
1391.4244079589844
20
431.23943328857416
30
0
0
ENDSEC
0
SECTION
2
OBJECTS
0
DICTIONARY
5
C
100
AcDbDictionary
3
ACAD_GROUP
350
D
3
ACAD_MLINESTYLE
350
17
0
DICTIONARY
5
D
100
AcDbDictionary
0
DICTIONARY
5
1A
330
C
100
AcDbDictionary
0
DICTIONARY
5
17
100
AcDbDictionary
0
ENDSEC
0
EOF
