0
SECTION
2
HEADER
9
$INSUNITS
70
4
9
$ACADVER
1
AC1014
9
$HANDSEED
5
FFFF
0
ENDSEC
0
SECTION
2
TABLES
0
TABLE
2
VPORT
5
8
100
AcDbSymbolTable
0
ENDTAB
0
TABLE
2
LTYPE
5
5
100
AcDbSymbolTable
0
LTYPE
5
14
100
AcDbSymbolTableRecord
100
AcDbLinetypeTableRecord
2
BYBLOCK
70
0
0
LTYPE
5
15
100
AcDbSymbolTableRecord
100
AcDbLinetypeTableRecord
2
BYLAYER
70
0
0
LTYPE
5
16
100
AcDbSymbolTableRecord
100
AcDbLinetypeTableRecord
2
DASHED
70
0
3
Dashed __ __ __ __ __ __ __ __ __ __ __ __ __ _
72
65
73
2
40
0.75
49
0.5
74
0
49
-0.25
74
0
0
ENDTAB
0
TABLE
2
LAYER
5
2
100
AcDbSymbolTable
70
2
0
LAYER
5
50
100
AcDbSymbolTableRecord
100
AcDbLayerTableRecord
2
0
70
0
62
7
6
CONTINUOUS
0
ENDTAB
0
TABLE
2
STYLE
5
3
100
AcDbSymbolTable
70
1
0
STYLE
5
11
100
AcDbSymbolTableRecord
100
AcDbTextStyleTableRecord
2
STANDARD
70
0
0
ENDTAB
0
TABLE
2
VIEW
5
6
100
AcDbSymbolTable
70
0
0
ENDTAB
0
TABLE
2
UCS
5
7
100
AcDbSymbolTable
70
0
0
ENDTAB
0
TABLE
2
APPID
5
9
100
AcDbSymbolTable
70
2
0
APPID
5
12
100
AcDbSymbolTableRecord
100
AcDbRegAppTableRecord
2
ACAD
70
0
0
ENDTAB
0
TABLE
2
DIMSTYLE
5
A
100
AcDbSymbolTable
70
1
0
ENDTAB
0
TABLE
2
BLOCK_RECORD
5
1
100
AcDbSymbolTable
70
1
0
BLOCK_RECORD
5
1F
100
AcDbSymbolTableRecord
100
AcDbBlockTableRecord
2
*MODEL_SPACE
0
BLOCK_RECORD
5
1B
100
AcDbSymbolTableRecord
100
AcDbBlockTableRecord
2
*PAPER_SPACE
0
ENDTAB
0
ENDSEC
0
SECTION
2
BLOCKS
0
BLOCK
5
20
100
AcDbEntity
100
AcDbBlockBegin
2
*MODEL_SPACE
0
ENDBLK
5
21
100
AcDbEntity
100
AcDbBlockEnd
0
BLOCK
5
1C
100
AcDbEntity
100
AcDbBlockBegin
2
*PAPER_SPACE
0
ENDBLK
5
1D
100
AcDbEntity
100
AcDbBlockEnd
0
ENDSEC
0
SECTION
2
ENTITIES
0
LWPOLYLINE
5
100
100
AcDbEntity
8
0
100
AcDbPolyline
90
4
70
1
43
0.0
10
1900
20
-800
10
0
20
-800
10
0
20
900
10
1900
20
900
0
SPLINE
5
101
100
AcDbEntity
8
0
100
AcDbSpline
70
2
71
3
72
1677
73
1673
74
0
42
0.000000001
43
0.0000000001
44
0.0000000001
40
0
40
0
40
0
40
0
40
0.52848441868862883
40
1.0569688373772577
40
2.1139376747545153
40
2.6424220934431442
40
3.170906512131773
40
3.6993909308204018
40
4.2278753495090307
40
4.7563597681976599
40
5.2848441868862883
40
5.8133286055749167
40
6.341813024263546
40
7.3987818616408036
40
7.927266280329432
40
8.4557506990180613
40
9.5127195363953199
40
10.569688373772577
40
11.098172792461206
40
11.626657211149833
40
12.155141629838463
40
12.683626048527092
40
13.212110467215721
40
13.740594885904351
40
14.797563723281607
40
15.854532560658864
40
16.911501398036123
40
17.968470235413381
40
19.02543907279064
40
19.553923491479267
40
20.082407910167895
40
21.139376747545153
40
21.667861166233784
40
22.196345584922412
40
22.724830003611039
40
23.253314422299667
40
23.781798840988294
40
24.310283259676925
40
24.838767678365556
40
25.367252097054184
40
25.895736515742811
40
26.424220934431442
40
26.688463143775756
40
26.952705353120074
40
27.481189771808701
40
28.538158609185956
40
29.066643027874584
40
29.595127446563215
40
30.123611865251846
40
30.652096283940473
40
31.709065121317728
40
32.76603395869499
40
33.823002796072245
40
34.351487214760873
40
34.8799716334495
40
35.408456052138135
40
35.936940470826762
40
36.993909308204024
40
38.050878145581279
40
39.107846982958534
40
40.164815820335789
40
40.693300239024417
40
41.221784657713044
40
41.750269076401679
40
42.278753495090307
40
42.807237913778934
40
43.335722332467569
40
43.864206751156196
40
44.392691169844824
40
44.921175588533451
40
45.449660007222079
40
45.978144425910706
40
46.506628844599334
40
47.035113263287961
40
47.563597681976589
40
48.092082100665223
40
48.620566519353851
40
49.677535356731113
40
50.734504194108368
40
51.791473031485623
40
52.848441868862885
40
54.962379543617402
40
57.076317218371912
40
58.133286055749167
40
58.661770474437802
40
59.190254893126429
40
60.247223730503691
40
60.775708149192319
40
61.039950358536629
40
61.304192567880946
40
61.832676986569574
40
62.361161405258201
40
63.418130242635456
40
64.475099080012711
40
65.53206791738998
40
66.060552336078615
40
66.589036754767235
40
66.853278964111553
40
67.117521173455856
40
67.64600559214449
40
68.174490010833125
40
68.702974429521745
40
69.231458848210366
40
69.759943266899
40
70.024185476243318
40
70.288427685587635
40
70.81691210427627
40
71.873880941653525
40
72.402365360342145
40
72.93084977903078
40
73.459334197719414
40
73.987818616408049
40
74.516303035096684
40
75.044787453785304
40
75.573271872473924
40
76.101756291162559
40
76.630240709851194
40
77.158725128539814
40
78.215693965917069
40
78.744178384605704
40
79.272662803294324
40
79.801147221982944
40
80.329631640671579
40
80.858116059360214
40
81.386600478048834
40
81.915084896737454
40
82.179327106081772
40
82.443569315426089
40
82.972053734114724
40
83.500538152803358
40
84.029022571491993
40
84.557506990180613
40
85.085991408869234
40
85.614475827557868
40
86.142960246246503
40
86.671444664935137
40
87.199929083623772
40
87.728413502312392
40
88.256897921001013
40
88.785382339689647
40
89.313866758378282
40
89.842351177066902
40
90.899320014444157
40
91.956288851821412
40
93.013257689198667
40
94.070226526575922
40
95.127195363953177
40
96.184164201330447
40
97.241133038707702
40
97.769617457396322
40
98.298101876084957
40
98.826586294773591
40
99.355070713462226
40
99.88355513215086
40
100.41203955083948
40
101.46900838821674
40
101.99749280690537
40
102.52597722559399
40
103.05446164428261
40
103.58294606297125
40
104.11143048165988
40
104.63991490034851
40
105.69688373772577
40
106.75385257510302
40
107.81082141248029
40
108.86779024985755
40
109.13203245920187
40
109.39627466854617
40
109.9247590872348
40
110.98172792461206
40
112.03869676198931
40
113.09566559936657
40
114.15263443674382
40
114.68111885543246
40
115.20960327412108
40
115.7380876928097
40
116.26657211149833
40
116.79505653018697
40
117.3235409488756
40
117.85202536756424
40
118.11626757690854
40
118.38050978625286
40
118.64475199559718
40
118.90899420494148
40
119.43747862363011
40
119.96596304231875
40
120.49444746100738
40
121.02293187969602
40
121.55141629838464
40
122.60838513576189
40
123.13686955445053
40
123.66535397313915
40
124.19383839182777
40
124.7223228105164
40
125.25080722920504
40
125.77929164789366
40
126.30777606658228
40
126.83626048527091
40
127.36474490395955
40
127.89322932264817
40
128.95019816002542
40
130.00716699740269
40
131.06413583477996
40
131.5926202534686
40
132.12110467215723
40
132.64958909084584
40
133.17807350953447
40
133.70655792822311
40
134.23504234691171
40
135.29201118428898
40
136.34898002166625
40
136.87746444035486
40
137.40594885904349
40
137.93443327773213
40
138.46291769642073
40
138.99140211510937
40
139.519886533798
40
140.04837095248664
40
140.57685537117527
40
141.63382420855254
40
142.16230862724117
40
142.69079304592981
40
143.21927746461841
40
143.74776188330705
40
144.80473072068429
40
145.86169955806156
40
146.39018397675019
40
146.91866839543883
40
147.44715281412746
40
147.9756372328161
40
149.03260607019337
40
149.29684827953767
40
149.56109048888197
40
150.08957490757061
40
150.61805932625924
40
151.14654374494785
40
151.67502816363648
40
152.20351258232512
40
152.73199700101375
40
153.26048141970239
40
154.31745025707963
40
154.84593467576826
40
155.37441909445687
40
155.9029035131455
40
156.43138793183414
40
156.95987235052277
40
157.22411455986708
40
157.48835676921141
40
158.01684118790001
40
158.54532560658865
40
159.60229444396589
40
160.65926328134316
40
161.71623211872043
40
162.77320095609767
40
163.83016979347491
40
164.88713863085218
40
165.41562304954081
40
165.94410746822945
40
166.47259188691808
40
167.00107630560672
40
167.52956072429535
40
168.05804514298399
40
169.11501398036123
40
169.64349839904986
40
170.17198281773847
40
170.7004672364271
40
171.22895165511574
40
172.28592049249301
40
172.81440491118164
40
173.34288932987027
40
174.39985816724754
40
174.92834258593615
40
175.45682700462478
40
175.72106921396909
40
175.98531142331342
40
176.24955363265772
40
176.51379584200203
40
177.04228026069066
40
177.57076467937929
40
178.09924909806793
40
178.62773351675656
40
179.15621793544517
40
179.6847023541338
40
180.74167119151105
40
181.79864002888831
40
182.32712444757695
40
182.85560886626558
40
183.91257770364282
40
184.96954654102007
40
186.02651537839733
40
187.0834842157746
40
187.61196863446321
40
188.14045305315184
40
188.66893747184048
40
189.19742189052909
40
189.72590630921772
40
190.25439072790635
40
190.78287514659499
40
191.31135956528362
40
192.36832840266089
40
193.42529724003816
40
193.95378165872677
40
194.4822660774154
40
195.01075049610404
40
195.53923491479264
40
196.59620375216991
40
197.12468817085855
40
197.65317258954718
40
198.18165700823582
40
198.71014142692445
40
199.76711026430172
40
200.29559468299033
40
200.82407910167896
40
201.3525635203676
40
201.8810479390562
40
202.40953235774484
40
202.93801677643347
40
203.46650119512211
40
203.99498561381074
40
204.52347003249935
40
205.05195445118798
40
206.10892328856522
40
206.63740770725386
40
207.16589212594249
40
207.69437654463113
40
208.22286096331976
40
209.27982980069703
40
210.3367986380743
40
210.86528305676291
40
211.39376747545154
40
211.92225189414017
40
212.45073631282878
40
212.97922073151742
40
213.50770515020605
40
214.03618956889468
40
214.56467398758332
40
215.09315840627195
40
215.62164282496059
40
216.15012724364922
40
216.67861166233786
40
217.20709608102646
40
217.7355804997151
40
218.26406491840373
40
218.79254933709234
40
219.32103375578097
40
219.84951817446961
40
220.90648701184688
40
221.96345584922412
40
222.49194026791275
40
223.02042468660136
40
223.54890910528999
40
224.07739352397863
40
225.1343623613559
40
225.6628467800445
40
226.19133119873314
40
226.71981561742177
40
227.24830003611038
40
228.30526887348765
40
229.36223771086492
40
230.41920654824216
40
231.4761753856194
40
232.00465980430803
40
232.53314422299667
40
233.0616286416853
40
233.59011306037394
40
234.64708189775121
40
235.17556631643984
40
235.70405073512848
40
236.23253515381708
40
236.76101957250572
40
237.81798840988296
40
238.34647282857159
40
238.87495724726023
40
239.40344166594886
40
239.9319260846375
40
240.46041050332613
40
240.98889492201477
40
241.5173793407034
40
242.04586375939203
40
242.57434817808064
40
243.10283259676928
40
244.15980143414652
40
244.68828585283515
40
245.21677027152379
40
246.27373910890105
40
247.3307079462783
40
247.85919236496693
40
248.38767678365554
40
248.91616120234417
40
249.44464562103281
40
249.97313003972144
40
250.50161445841007
40
251.03009887709868
40
251.55858329578732
40
252.08706771447595
40
252.61555213316456
40
253.14403655185319
40
253.67252097054183
40
254.20100538923046
40
254.72948980791909
40
255.78645864529634
40
256.31494306398497
40
256.84342748267358
40
257.37191190136218
40
257.90039632005085
40
258.42888073873951
40
258.95736515742811
40
260.01433399480538
40
260.54281841349405
40
261.07130283218265
40
261.59978725087126
40
262.12827166955992
40
264.24220934431446
40
264.77069376300307
40
265.29917818169167
40
265.82766260038034
40
266.35614701906894
40
267.41311585644621
40
268.47008469382342
40
269.52705353120069
40
270.58402236857796
40
271.64099120595523
40
272.16947562464384
40
272.6979600433325
40
273.22644446202111
40
273.75492888070971
40
274.81189771808698
40
275.86886655546425
40
276.39735097415286
40
276.92583539284146
40
277.45431981153013
40
277.98280423021873
40
278.51128864890734
40
279.039773067596
40
279.56825748628466
40
280.09674190497327
40
280.62522632366188
40
280.88946853300621
40
281.15371074235054
40
281.6821951610392
40
282.21067957972781
40
282.73916399841642
40
283.26764841710508
40
283.79613283579374
40
284.32461725448235
40
284.85310167317095
40
285.38158609185962
40
285.91007051054822
40
286.43855492923683
40
287.4955237666141
40
289.60946144136858
40
290.13794586005724
40
290.66643027874585
40
291.19491469743446
40
291.72339911612312
40
291.98764132546745
40
292.25188353481178
40
292.78036795350039
40
293.30885237218899
40
293.83733679087766
40
295.9512744656322
40
296.47975888432086
40
297.00824330300946
40
298.06521214038673
40
299.12218097776395
40
299.65066539645261
40
300.17914981514122
40
300.70763423382982
40
301.23611865251848
40
302.2930874898957
40
302.82157190858436
40
303.35005632727297
40
304.40702516465024
40
304.9355095833389
40
305.4639940020275
40
306.52096283940477
40
307.57793167678199
40
308.10641609547065
40
308.63490051415926
40
309.16338493284786
40
309.69186935153652
40
310.74883818891374
40
311.80580702629101
40
312.33429144497961
40
312.86277586366828
40
313.39126028235694
40
313.91974470104554
40
314.44822911973415
40
314.97671353842281
40
316.03368237580003
40
317.0906512131773
40
317.6191356318659
40
318.14762005055456
40
318.67610446924317
40
319.20458888793178
40
319.73307330662044
40
320.26155772530905
40
320.79004214399765
40
321.31852656268632
40
321.84701098137498
40
322.11125319071925
40
322.37549540006358
40
322.90397981875219
40
323.43246423744085
40
324.48943307481807
40
325.54640191219534
40
326.07488633088394
40
326.6033707495726
40
327.13185516826121
40
327.66033958694982
40
328.71730842432709
40
329.24579284301569
40
329.77427726170436
40
330.83124609908162
40
331.35973051777023
40
331.88821493645889
40
332.94518377383616
40
334.00215261121343
40
335.0591214485907
40
335.58760586727931
40
336.11609028596797
40
336.64457470465658
40
337.17305912334518
40
337.70154354203385
40
338.23002796072245
40
338.49427017006678
40
338.75851237941106
40
339.02275458875539
40
339.28699679809972
40
339.81548121678833
40
340.34396563547693
40
340.60820784482127
40
340.8724500541656
40
341.13669226350987
40
341.4009344728542
40
341.92941889154281
40
342.45790331023147
40
342.98638772892014
40
343.51487214760874
40
343.77911435695307
40
344.04335656629735
40
344.57184098498601
40
345.10032540367467
40
345.62880982236328
40
346.15729424105189
40
346.68577865974055
40
347.74274749711782
40
348.00698970646215
40
348.27123191580642
40
348.79971633449509
40
349.32820075318369
40
349.8566851718723
40
350.38516959056096
40
350.91365400924957
40
351.44213842793818
40
351.70638063728251
40
351.97062284662684
40
352.49910726531544
40
353.02759168400405
40
353.55607610269271
40
353.82031831203699
40
354.08456052138132
40
354.61304494006993
40
355.14152935875859
40
355.67001377744725
40
356.19849819613586
40
357.25546703351313
40
357.78395145220173
40
358.31243587089034
40
358.57667808023467
40
358.840920289579
40
359.36940470826761
40
359.63364691761194
40
359.89788912695622
40
360.42637354564488
40
360.95485796433348
40
361.48334238302209
40
362.01182680171075
40
362.54031122039936
40
363.59728005777663
40
364.12576447646529
40
364.6542488951539
40
365.1827333138425
40
365.71121773253117
40
366.23970215121977
40
366.76818656990838
40
367.29667098859704
40
367.82515540728565
40
368.35363982597426
40
368.88212424466292
40
369.41060866335152
40
369.93909308204013
40
370.20333529138446
40
370.46757750072879
40
370.9960619194174
40
371.26030412876173
40
371.52454633810601
40
371.78878854745034
40
372.05303075679467
40
372.317272966139
40
372.58151517548333
40
372.84575738482761
40
373.10999959417194
40
373.63848401286054
40
373.90272622220488
40
374.16696843154921
40
374.69545285023781
40
375.22393726892642
40
375.75242168761508
40
376.01666389695936
40
376.28090610630369
40
376.8093905249923
40
377.33787494368096
40
377.86635936236956
40
378.39484378105817
40
379.45181261843544
40
379.98029703712405
40
380.50878145581271
40
381.03726587450137
40
381.56575029318998
40
382.09423471187858
40
382.62271913056725
40
383.15120354925591
40
383.67968796794452
40
383.94393017728885
40
384.20817238663312
40
384.73665680532179
40
385.26514122401045
40
385.79362564269906
40
386.85059448007632
40
387.90756331745354
40
388.96453215483081
40
389.49301657351941
40
390.02150099220808
40
390.54998541089668
40
391.07846982958529
40
391.60695424827395
40
392.13543866696256
40
393.19240750433983
40
393.45664971368416
40
393.72089192302849
40
393.98513413237276
40
394.2493763417171
40
394.7778607604057
40
395.30634517909436
40
396.36331401647163
40
397.4202828538489
40
398.47725169122617
40
399.00573610991478
40
399.53422052860344
40
400.59118936598065
40
401.64815820335792
40
402.70512704073519
40
403.2336114594238
40
403.7620958781124
40
404.81906471548967
40
405.87603355286694
40
406.40451797155561
40
406.93300239024421
40
407.98997122762148
40
409.04694006499869
40
410.10390890237596
40
411.16087773975323
40
412.21784657713044
40
412.74633099581911
40
413.27481541450771
40
413.80329983319632
40
414.33178425188498
40
415.38875308926225
40
416.44572192663952
40
417.50269076401679
40
418.0311751827054
40
418.55965960139406
40
419.61662843877133
40
420.6735972761486
40
421.73056611352581
40
422.25905053221447
40
422.78753495090308
40
423.31601936959169
40
423.84450378828035
40
424.37298820696896
40
424.90147262565756
40
425.42995704434622
40
425.95844146303483
40
426.48692588172344
40
427.0154103004121
40
428.07237913778937
40
429.12934797516664
40
430.18631681254391
40
431.24328564992118
40
432.30025448729845
40
433.35722332467572
40
435.4711609994302
40
437.58509867418468
40
439.69903634893922
40
443.92691169844824
40
448.15478704795726
40
452.38266239746628
40
456.6105377469753
40
458.72447542172984
40
459.78144425910705
40
460.83841309648432
40
461.89538193386159
40
462.9523507712388
40
464.00931960861607
40
465.06628844599334
40
469.29416379550241
40
471.40810147025695
40
473.52203914501143
40
475.63597681976592
40
477.74991449452045
40
479.86385216927499
40
480.92082100665226
40
481.97778984402953
40
482.50627426271819
40
483.0347586814068
40
483.56324310009541
40
484.09172751878407
40
485.14869635616128
40
485.67718077484994
40
486.20566519353855
40
486.73414961222716
40
487.26263403091582
40
487.52687624026009
40
487.79111844960443
40
488.31960286829303
40
488.84808728698169
40
489.3765717056703
40
490.43354054304757
40
491.49050938042484
40
491.75475158976917
40
492.01899379911345
40
492.54747821780211
40
493.07596263649071
40
493.60444705517932
40
494.13293147386798
40
494.66141589255659
40
495.71838472993386
40
496.24686914862247
40
496.77535356731107
40
497.30383798599973
40
497.83232240468834
40
498.88929124206561
40
499.41777566075427
40
499.94626007944288
40
500.47474449813149
40
501.00322891682015
40
501.53171333550875
40
501.79595554485309
40
502.06019775419736
40
502.58868217288602
40
502.8529243822303
40
503.11716659157463
40
503.64565101026324
40
503.90989321960757
40
504.1741354289519
40
504.70261984764051
40
505.23110426632911
40
506.28807310370638
40
507.34504194108365
40
508.40201077846092
40
509.45897961583819
40
509.98746403452679
40
510.5159484532154
40
511.04443287190406
40
511.30867508124834
40
511.57291729059267
40
512.10140170928128
40
512.62988612796994
40
513.15837054665849
40
513.68685496534715
40
514.21533938403581
40
514.74382380272436
40
515.00806601206864
40
515.27230822141303
40
515.80079264010169
40
516.85776147747902
40
517.38624589616757
40
517.91473031485623
40
518.44321473354489
40
518.97169915223344
40
519.5001835709221
40
520.02866798961077
40
521.08563682698809
40
521.61412124567664
40
522.14260566436531
40
522.67109008305397
40
523.19957450174252
40
523.72805892043118
40
524.25654333911984
40
524.78502775780851
40
525.0492699671529
40
525.31351217649717
40
525.84199659518572
40
526.37048101387438
40
526.89896543256305
40
527.42744985125159
40
527.95593426994026
40
528.48441868862892
40
529.54138752600613
40
530.0698719446948
40
530.59835636338335
40
531.12684078207201
40
531.65532520076067
40
532.18380961944922
40
532.71229403813788
40
533.7692628755151
40
534.29774729420376
40
534.82623171289242
40
535.35471613158097
40
535.88320055026963
40
536.94016938764685
40
537.99713822502417
40
539.05410706240139
40
539.58259148109005
40
540.1110758997786
40
540.63956031846726
40
541.16804473715592
40
541.69652915584459
40
542.22501357453325
40
542.7534979932218
40
543.28198241191046
40
543.81046683059913
40
544.33895124928767
40
545.395920086665
40
545.92440450535355
40
546.45288892404221
40
546.7171311333866
40
546.98137334273088
40
547.50985776141943
40
548.56682659879675
40
549.62379543617396
40
550.68076427355118
40
551.20924869223984
40
551.7377331109285
40
552.79470194830571
40
553.32318636699438
40
553.85167078568293
40
554.38015520437159
40
554.90863962306025
40
555.96560846043747
40
556.22985066978185
40
556.49409287912613
40
557.02257729781468
40
557.55106171650334
40
557.81530392584773
40
558.079546135192
40
558.60803055388067
40
558.87227276322506
40
559.13651497256933
40
559.66499939125788
40
560.19348380994654
40
560.72196822863521
40
560.98621043797948
40
561.25045264732375
40
561.77893706601242
40
562.04317927535681
40
562.30742148470108
40
562.83590590338974
40
563.36439032207841
40
563.89287474076696
40
564.42135915945562
40
564.94984357814428
40
565.47832799683283
40
566.53529683421016
40
567.06378125289882
40
567.59226567158748
40
568.12075009027603
40
568.6492345089647
40
569.17771892765336
40
569.44196113699763
40
569.70620334634191
40
570.76317218371923
40
571.29165660240778
40
571.82014102109645
40
572.34862543978511
40
572.87710985847366
40
573.40559427716232
40
573.93407869585099
40
574.46256311453953
40
574.9910475332282
40
575.51953195191686
40
575.78377416126114
40
576.04801637060541
40
576.57650078929407
40
576.84074299863846
40
577.10498520798274
40
577.36922741732701
40
577.50134852199915
40
577.63346962667129
40
577.89771183601556
40
578.16195404535995
40
578.42619625470434
40
578.69043846404861
40
579.21892288273716
40
579.74740730142582
40
580.27589172011449
40
580.54013392945876
40
580.80437613880304
40
581.06861834814731
40
581.3328605574917
40
581.86134497618036
40
582.38982939486891
40
582.91831381355757
40
583.44679823224624
40
583.9752826509349
40
584.50376706962356
40
585.03225148831211
40
585.29649369765639
40
585.56073590700078
40
585.82497811634516
40
586.08922032568944
40
586.61770474437799
40
587.67467358175531
40
588.20315800044398
40
588.73164241913264
40
589.26012683782119
40
589.78861125650985
40
590.31709567519852
40
590.84558009388707
40
591.90254893126439
40
592.95951776864172
40
593.48800218733027
40
594.01648660601893
40
595.07345544339614
40
595.33769765274042
40
595.60193986208481
40
596.13042428077347
40
597.18739311815068
40
597.71587753683934
40
598.24436195552789
40
598.77284637421656
40
599.30133079290522
40
600.35829963028243
40
600.88678404897109
40
601.15102625831537
40
601.41526846765964
40
602.47223730503697
40
603.52920614241418
40
604.05769056110285
40
604.32193277044712
40
604.58617497979139
40
605.11465939848006
40
605.64314381716872
40
606.17162823585727
40
606.70011265454593
40
607.2285970732346
40
607.75708149192315
40
608.81405032930047
40
609.8710191666778
40
610.39950358536635
40
610.92798800405501
40
611.98495684143222
40
613.04192567880955
40
613.5704100974981
40
613.83465230684237
40
614.09889451618676
40
614.62737893487542
40
615.15586335356397
40
616.2128321909413
40
616.74131660962985
40
617.00555881897412
40
617.26980102831851
40
617.79828544700717
40
618.06252765635145
40
618.32676986569572
40
618.59101207504
40
618.85525428438439
40
619.11949649372878
40
619.38373870307305
40
619.64798091241732
40
619.9122231217616
40
620.17646533110587
40
620.44070754045026
40
621.49767637782747
40
622.5546452152048
40
623.08312963389335
40
623.61161405258201
40
624.14009847127068
40
624.40434068061495
40
624.66858288995923
40
625.19706730864789
40
625.72555172733655
40
625.98979393668083
40
626.25403614602521
40
626.5182783553696
40
626.78252056471388
40
627.04676277405815
40
627.31100498340243
40
627.83948940209109
40
628.8964582394683
40
629.42494265815697
40
629.95342707684563
40
630.48191149553429
40
631.01039591422295
40
631.5388803329115
40
632.06736475160017
40
632.59584917028883
40
633.12433358897738
40
634.1813024263547
40
635.23827126373203
40
635.76675568242058
40
636.29524010110924
40
636.82372451979791
40
637.35220893848646
40
637.88069335717512
40
638.40917777586378
40
638.93766219455233
40
639.46614661324099
40
639.99463103192966
40
640.52311545061821
40
640.78735765996248
40
641.05159986930687
40
641.58008428799553
40
642.10856870668408
40
642.63705312537274
40
643.16553754406141
40
643.69402196274996
40
644.75099080012728
40
645.27947521881583
40
645.54371742816011
40
645.8079596375045
40
646.07220184684888
40
646.33644405619316
40
646.86492847488171
40
647.39341289357037
40
647.92189731225903
40
648.45038173094758
40
648.97886614963625
40
650.03583498701346
40
650.30007719635773
40
650.56431940570212
40
650.82856161504651
40
651.09280382439078
40
651.35704603373506
40
651.62128824307945
40
652.14977266176811
40
652.67825708045666
40
653.20674149914532
40
654.26371033652254
40
654.7921947552112
40
655.32067917389986
40
655.84916359258852
40
656.11340580193291
40
656.37764801127719
40
656.90613242996574
40
657.4346168486544
40
657.96310126734306
40
658.49158568603161
40
659.02007010472028
40
659.28431231406466
40
659.54855452340894
40
660.0770389420976
40
660.60552336078626
40
661.13400777947481
40
661.66249219816348
40
662.71946103554069
40
663.77642987291802
40
664.83339871029523
40
665.89036754767244
40
666.4188519663611
40
666.68309417570549
40
666.94733638504977
40
667.47582080373832
40
668.00430522242698
40
668.26854743177137
40
668.53278964111564
40
669.06127405980419
40
669.58975847849285
40
670.11824289718152
40
670.64672731587007
40
670.91096952521434
40
671.17521173455873
40
671.70369615324739
40
672.23218057193594
40
672.7606649906246
40
673.28914940931327
40
673.81763382800182
40
674.34611824669048
40
675.40308708406769
40
675.93157150275636
40
676.19581371210074
40
676.46005592144502
40
676.72429813078929
40
676.98854034013368
40
677.51702475882234
40
678.04550917751089
40
678.57399359619956
40
679.10247801488822
40
679.63096243357677
40
680.6879312709541
40
681.21641568964264
40
681.74490010833131
40
682.27338452701997
40
682.80186894570852
40
683.33035336439718
40
683.85883778308585
40
684.3873222017744
40
684.91580662046306
40
685.44429103915172
40
685.97277545784027
40
686.50125987652893
40
687.0297442952176
40
687.55822871390615
40
688.08671313259481
40
688.61519755128347
40
689.14368196997202
40
690.20065080734935
40
691.25761964472656
40
693.3715573194811
40
695.48549499423564
40
697.59943266899018
40
699.71337034374471
40
701.82730801849925
40
702.35579243718792
40
702.88427685587658
40
703.41276127456513
40
703.94124569325379
40
704.998214530631
40
705.52669894931967
40
706.05518336800833
40
707.11215220538554
40
707.6406366240742
40
707.90487883341848
40
708.16912104276275
40
708.69760546145142
40
709.22608988014008
40
709.75457429882863
40
710.28305871751729
40
710.81154313620596
40
711.3400275548945
40
711.86851197358317
40
712.39699639227183
40
713.45396522964904
40
714.51093406702626
40
715.56790290440358
40
716.62487174178079
40
717.15335616046946
40
717.68184057915801
40
718.21032499784667
40
718.73880941653533
40
719.79577825391266
40
720.32426267260121
40
720.85274709128987
40
721.38123150997853
40
721.90971592866708
40
722.96668476604441
40
723.49516918473307
40
724.02365360342174
40
724.55213802211028
40
725.08062244079895
40
725.60910685948761
40
725.87334906883189
40
726.13759127817616
40
726.66607569686482
40
727.19456011555349
40
727.72304453424215
40
728.25152895293081
40
728.78001337161936
40
729.30849779030802
40
729.83698220899669
40
730.36546662768524
40
730.8939510463739
40
731.42243546506256
40
731.95091988375111
40
732.47940430243978
40
733.00788872112844
40
733.53637313981699
40
734.06485755850565
40
734.59334197719431
40
735.65031081457153
40
736.70727965194874
40
737.76424848932606
40
738.29273290801461
40
738.82121732670328
40
739.87818616408049
40
740.40667058276915
40
740.67091279211354
40
740.93515500145782
40
741.99212383883503
40
742.52060825752369
40
743.04909267621224
40
744.10606151358957
40
744.63454593227823
40
745.16303035096689
40
745.69151476965544
40
746.2199991883441
40
746.74848360703277
40
747.27696802572132
40
747.80545244440998
40
748.33393686309864
40
749.39090570047586
40
750.44787453785307
40
750.97635895654173
40
751.50484337523039
40
752.56181221260761
40
753.61878104998482
40
754.14726546867348
40
754.67574988736214
40
755.20423430605069
40
755.73271872473936
40
756.26120314342802
40
756.78968756211657
40
757.31817198080523
40
757.8466563994939
40
758.90362523687111
40
759.43210965555977
40
759.96059407424832
40
761.01756291162565
40
761.54604733031431
40
762.07453174900297
40
762.60301616769152
40
763.13150058638018
40
763.65998500506885
40
764.1884694237574
40
764.71695384244606
40
765.24543826113472
40
765.77392267982339
40
766.30240709851205
40
766.8308915172006
40
767.35937593588926
40
767.88786035457792
40
768.41634477326647
40
768.94482919195514
40
769.4733136106438
40
770.53028244802113
40
771.58725128539834
40
772.64422012277555
40
773.17270454146421
40
773.70118896015288
40
774.75815779753009
40
775.28664221621875
40
775.8151266349073
40
776.34361105359596
40
776.87209547228463
40
777.40057989097318
40
777.92906430966184
40
778.98603314703905
40
779.51451756572772
40
780.04300198441638
40
780.57148640310493
40
781.09997082179359
40
781.62845524048225
40
782.1569396591708
40
782.68542407785947
40
783.21390849654813
40
783.74239291523668
40
784.27087733392534
40
785.32784617130255
40
785.85633058999122
40
786.38481500867988
40
786.91329942736854
40
787.44178384605721
40
787.97026826474576
40
788.49875268343442
40
789.02723710212308
40
789.55572152081163
40
790.08420593950029
40
790.61269035818896
40
791.14117477687762
40
791.66965919556628
40
792.19814361425483
40
792.72662803294349
40
793.25511245163216
40
793.78359687032071
40
794.31208128900937
40
794.84056570769803
40
795.3690501263867
40
795.89753454507536
40
796.95450338245257
40
797.48298780114123
40
798.01147221982978
40
799.06844105720711
40
799.59692547589566
40
800.12540989458432
40
800.38965210392871
40
800.65389431327299
40
801.18237873196153
40
801.7108631506502
40
802.23934756933886
40
803.29631640671607
40
803.82480082540474
40
804.35328524409329
40
804.88176966278195
40
805.41025408147061
40
805.67449629081489
40
805.93873850015916
40
806.46722291884782
40
806.99570733753649
40
807.52419175622504
40
808.58116059360236
40
809.63812943097957
40
810.16661384966824
40
810.69509826835679
40
811.22358268704545
40
811.75206710573411
40
812.28055152442278
40
812.80903594311144
40
813.33752036179999
40
813.86600478048865
40
814.39448919917731
40
814.92297361786586
40
815.97994245524319
40
817.0369112926204
40
818.09388012999761
40
819.15084896737494
40
820.20781780475215
40
821.26478664212937
40
822.32175547950669
40
823.3787243168839
40
824.43569315426112
40
825.49266199163844
40
826.02114641032699
40
826.54963082901565
40
827.07811524770432
40
827.60659966639287
40
828.13508408508153
40
828.66356850377019
40
828.92781071311447
40
829.19205292245886
40
829.45629513180324
40
829.72053734114752
40
830.24902175983607
40
830.77750617852473
40
831.83447501590194
40
832.89144385327927
40
833.9484126906566
40
835.00538152803381
40
836.06235036541102
40
837.11931920278835
40
837.64780362147701
40
838.17628804016567
40
839.23325687754289
40
840.2902257149201
40
840.81871013360876
40
841.34719455229742
40
841.87567897098597
40
842.40416338967464
40
842.9326478083633
40
843.46113222705185
40
843.98961664574051
40
844.51810106442917
40
845.57506990180639
40
846.6320387391836
40
847.68900757656093
40
849.80294525131535
40
851.91688292606989
40
852.44536734475855
40
852.9738517634471
40
853.23809397279138
40
853.50233618213576
40
854.03082060082443
40
854.55930501951309
40
855.08778943820175
40
855.6162738568903
40
855.88051606623458
40
856.14475827557897
40
856.67324269426763
40
857.20172711295618
40
858.2586959503335
40
858.78718036902217
40
859.31566478771083
40
860.37263362508804
40
861.42960246246525
40
861.95808688115392
40
862.48657129984258
40
863.54354013721991
40
864.60050897459712
40
865.12899339328578
40
865.65747781197433
40
866.71444664935166
40
867.24293106804021
40
867.77141548672887
40
868.29989990541753
40
868.82838432410608
40
869.35686874279475
40
869.88535316148341
40
870.94232199886062
40
871.99929083623783
40
873.05625967361516
40
874.11322851099237
40
875.17019734836958
40
876.22716618574691
40
876.75565060443546
40
877.28413502312412
40
878.34110386050133
40
878.86958827919
40
879.39807269787866
40
879.92655711656732
40
880.45504153525599
40
880.98352595394454
40
881.24776816328881
40
881.5120103726332
40
882.04049479132186
40
882.56897921001041
40
883.62594804738774
40
884.68291688476495
40
885.21140130345361
40
885.47564351279789
40
885.73988572214216
40
886.26837014083083
40
886.53261235017521
40
886.79685455951949
40
887.32533897820804
40
887.8538233968967
40
888.38230781558536
40
888.91079223427391
40
889.43927665296258
40
889.96776107165124
40
890.49624549033979
40
891.02472990902845
40
892.08169874640566
40
893.13866758378299
40
893.66715200247154
40
894.1956364211602
40
895.25260525853741
40
895.78108967722608
40
896.30957409591474
40
896.8380585146034
40
897.36654293329207
40
898.42351177066928
40
898.95199618935794
40
899.48048060804649
40
900.53744944542382
40
901.59441828280114
40
902.65138712017836
40
903.70835595755557
40
904.76532479493289
40
905.82229363231022
40
906.87926246968743
40
907.4077468883761
40
907.93623130706465
40
908.46471572575331
40
908.99320014444197
40
909.25744235378625
40
909.52168456313052
40
910.05016898181918
40
910.31441119116357
40
910.57865340050785
40
911.1071378191964
40
912.16410665657372
40
913.22107549395093
40
914.27804433132815
40
914.80652875001681
40
915.33501316870547
40
916.39198200608269
40
916.92046642477135
40
917.4489508434599
40
917.97743526214856
40
918.50591968083722
40
919.56288851821444
40
920.0913729369031
40
920.61985735559165
40
921.67682619296897
40
922.20531061165764
40
922.7337950303463
40
923.79076386772351
40
924.84773270510073
40
925.37621712378939
40
925.90470154247805
40
926.43318596116671
40
926.96167037985538
40
927.22591258919965
40
927.49015479854393
40
928.01863921723259
40
928.54712363592125
40
929.0756080546098
40
929.60409247329846
40
930.13257689198713
40
931.18954572936445
40
931.718030148053
40
932.24651456674167
40
933.30348340411888
40
933.83196782280754
40
934.3604522414962
40
934.88893666018475
40
935.41742107887342
40
935.94590549756208
40
936.47438991625063
40
937.00287433493929
40
937.53135875362796
40
938.0598431723165
40
938.58832759100517
40
939.64529642838238
40
940.17378084707104
40
940.70226526575971
40
941.23074968444826
40
941.75923410313692
40
942.81620294051413
40
943.34468735920279
40
943.87317177789146
40
944.40165619658001
40
944.93014061526867
40
945.19438282461306
40
945.45862503395733
40
945.98710945264588
40
946.51559387133454
40
947.04407829002321
40
947.57256270871187
40
948.10104712740053
40
948.62953154608908
40
949.15801596477775
40
950.21498480215496
40
951.27195363953228
40
952.3289224769095
40
953.38589131428671
40
954.44286015166404
40
954.97134457035258
40
955.49982898904125
40
956.02831340772991
40
956.55679782641846
40
957.61376666379579
40
958.670735501173
40
959.72770433855021
40
960.25618875723887
40
960.78467317592754
40
961.31315759461609
40
961.57739980396036
40
961.84164201330475
40
962.37012643199341
40
962.89861085068196
40
963.95557968805929
40
965.01254852543661
40
966.06951736281383
40
967.12648620019104
40
967.6549706188797
40
968.18345503756836
40
969.24042387494569
40
970.2973927123229
40
971.35436154970012
40
972.41133038707744
40
972.9398148057661
40
973.46829922445477
40
973.99678364314332
40
974.52526806183198
40
975.05375248052064
40
975.58223689920919
40
976.63920573658652
40
977.16769015527507
40
977.69617457396373
40
978.22465899265239
40
978.75314341134094
40
979.28162783002961
40
979.81011224871827
40
980.33859666740682
40
980.86708108609548
40
981.92404992347269
40
982.98101876085002
40
984.03798759822723
40
984.5664720169159
40
985.09495643560444
40
986.15192527298177
40
986.68040969167032
40
987.20889411035898
40
988.2658629477362
40
989.32283178511352
40
989.85131620380218
40
990.37980062249085
40
991.43676945986806
40
992.49373829724527
40
993.5507071346226
40
994.60767597199992
40
995.66464480937714
40
996.1931292280658
40
996.72161364675435
40
997.25009806544301
40
997.77858248413168
40
999.89252015888621
40
1002.0064578336408
40
1002.5349422523293
40
1003.063426671018
40
1004.1203955083952
40
1006.2343331831497
40
1008.3482708579043
40
1010.4622085326587
40
1012.5761462074132
40
1014.6900838821678
40
1015.7470527195451
40
1016.2755371382336
40
1016.8040215569223
40
1017.8609903942995
40
1018.3894748129882
40
1018.9179592316768
40
1019.974928069054
40
1021.0318969064313
40
1022.0888657438086
40
1022.6173501624971
40
1023.1458345811858
40
1024.202803418563
40
1025.2597722559403
40
1027.3737099306948
40
1028.4306787680721
40
1029.4876476054492
40
1030.5446164428265
40
1031.6015852802038
40
1032.6585541175809
40
1033.1870385362695
40
1033.7155229549583
40
1034.244007373647
40
1034.7724917923356
40
1035.8294606297127
40
1036.88642946709
40
1037.9433983044673
40
1040.0573359792218
40
1041.1143048165991
40
1041.6427892352876
40
1042.1712736539762
40
1042.6997580726647
40
1043.2282424913535
40
1043.7567269100423
40
1044.2852113287308
40
1044.8136957474194
40
1045.3421801661079
40
1046.3991490034853
40
1047.4561178408626
40
1048.5130866782397
40
1049.0415710969282
40
1049.570055515617
40
1050.0985399343058
40
1050.6270243529943
40
1051.1555087716829
40
1051.6839931903714
40
1052.7409620277488
40
1053.2694464464375
40
1053.7979308651261
40
1054.8548997025032
40
1055.9118685398805
40
1056.9688373772578
40
1057.4973217959464
40
1057.7615640052907
40
1058.0258062146349
40
1058.5542906333235
40
1059.0827750520123
40
1059.3470172613565
40
1059.611259470701
40
1059.8755016800453
40
1060.1397438893896
40
1060.6682283080781
40
1061.1967127267667
40
1061.7251971454552
40
1062.253681564144
40
1062.7821659828328
40
1063.3106504015213
40
1063.5748926108656
40
1063.8391348202099
40
1064.3676192388984
40
1065.4245880762758
40
1065.9530724949645
40
1066.4815569136531
40
1067.0100413323416
40
1067.5385257510302
40
1068.0670101697187
40
1068.5954945884075
40
1069.6524634257848
40
1070.1809478444734
40
1070.7094322631619
40
1071.2379166818505
40
1071.7664011005393
40
1072.8233699379166
40
1073.3518543566051
40
1073.8803387752937
40
1074.4088231939822
40
1074.937307612671
40
1075.4657920313598
40
1075.9942764500483
40
1077.0512452874254
40
1078.1082141248028
40
1079.1651829621801
40
1080.2221517995572
40
1081.2791206369345
40
1081.8076050556233
40
1082.3360894743118
40
1082.3360894743118
40
1082.3360894743118
40
1082.3360894743118
10
1211.4244079589846
20
-414.65923309326195
30
0
10
1213.1008304607399
20
-415.29631479122833
30
0
10
1217.0851114566503
20
-415.04031711895857
30
0
10
1222.6795882978304
20
-412.45949654732152
30
0
10
1230.0256295820079
20
-412.90387701207914
30
0
10
1234.7876839598371
20
-407.65652076449555
30
0
10
1239.0737040293791
20
-404.26941685823931
30
0
10
1244.7402593074758
20
-404.04393659398886
30
0
10
1243.8142114136381
20
-396.49501131583179
30
0
10
1251.4292199546635
20
-397.38567856615299
30
0
10
1253.3990730722155
20
-392.64643078118553
30
0
10
1256.0185329599149
20
-387.2830557933047
30
0
10
1264.455224947043
20
-388.90668694689901
30
0
10
1266.6360501911327
20
-378.90222650796841
30
0
10
1275.2807450292116
20
-381.1020331565424
30
0
10
1278.3085308406871
20
-372.73544741190136
30
0
10
1289.1969826645327
20
-376.39431473550121
30
0
10
1294.2608694126525
20
-366.965262970303
30
0
10
1302.2866769450343
20
-368.06922701273953
30
0
10
1305.0869445301482
20
-362.80784453512797
30
0
10
1307.9988048626078
20
-358.62626744018002
30
0
10
1312.5343795775225
20
-355.81499175814747
30
0
10
1317.7939405998259
20
-354.09603690382176
30
0
10
1320.2673435840622
20
-347.31420957032759
30
0
10
1321.4985317131923
20
-337.12575434128297
30
0
10
1336.1615132894922
20
-338.45588611585868
30
0
10
1335.3132022777863
20
-325.10258753107985
30
0
10
1341.4815470992421
20
-316.71040231295797
30
0
10
1340.649541531654
20
-307.38245066139677
30
0
10
1341.789608560392
20
-300.95988220429609
30
0
10
1351.1048908706134
20
-300.4770513795138
30
0
10
1347.6982393881931
20
-289.20240054554296
30
0
10
1356.7369143162634
20
-288.16173372018864
30
0
10
1355.9721512361361
20
-281.60411056929064
30
0
10
1359.6447323972675
20
-277.04491916066149
30
0
10
1365.4267255687755
20
-277.90157962404078
30
0
10
1370.0697049385351
20
-275.56467134025263
30
0
10
1376.431842254606
20
-276.49241726538298
30
0
10
1379.3558980746952
20
-272.95513227106176
30
0
10
1379.5328223044853
20
-267.00337636904442
30
0
10
1382.2268222041475
20
-262.98027660337647
30
0
10
1381.3986467864547
20
-256.9460026531919
30
0
10
1386.0393750325288
20
-257.13422337443041
30
0
10
1387.4883222411618
20
-253.68516536307413
30
0
10
1395.0712500738396
20
-253.10185765550057
30
0
10
1394.7800331795706
20
-243.57074567505745
30
0
10
1401.7664831740356
20
-240.88133326091108
30
0
10
1403.5564808837703
20
-235.53305578247293
30
0
10
1405.7117413279225
20
-230.82492290307164
30
0
10
1411.8971709865164
20
-226.78180943449919
30
0
10
1412.26108505507
20
-216.95311722177587
30
0
10
1419.8518876010187
20
-209.32684748891236
30
0
10
1422.0755471820139
20
-200.22439899292982
30
0
10
1429.1600103128067
20
-196.73190555269028
30
0
10
1427.8917274010073
20
-190.28039792079807
30
0
10
1432.9832032093655
20
-187.39437396003308
30
0
10
1435.0410302642397
20
-180.49994519354306
30
0
10
1433.2972979551867
20
-169.54052792246046
30
0
10
1448.5252157893367
20
-169.23565572935271
30
0
10
1445.7429196620028
20
-155.80877270871528
30
0
10
1448.7576436378097
20
-148.30210842502649
30
0
10
1448.2094469540502
20
-140.22176769335607
30
0
10
1453.4793170856947
20
-137.78335995854673
30
0
10
1459.3771561496076
20
-139.70393515493268
30
0
10
1462.124499607979
20
-133.33819087175743
30
0
10
1468.190707675644
20
-135.62631161861407
30
0
10
1473.1869892332238
20
-134.3104884957234
30
0
10
1478.2849982616051
20
-132.6950220096443
30
0
10
1479.8873369823677
20
-127.17608646431304
30
0
10
1481.1225310319123
20
-121.81708775908706
30
0
10
1487.5529188556504
20
-120.9933328737807
30
0
10
1487.5277507978758
20
-114.48706814653644
30
0
10
1489.6319755383126
20
-109.99914115605812
30
0
10
1491.3378923104847
20
-104.50839589249316
30
0
10
1496.9804896220407
20
-103.62562500700321
30
0
10
1498.1136504930566
20
-96.999279636374666
30
0
10
1505.3717440728242
20
-96.007809779225454
30
0
10
1513.3074378316908
20
-92.170794698449242
30
0
10
1516.7398687822035
20
-81.487958773964408
30
0
10
1525.2604020782919
20
-74.831359612826006
30
0
10
1529.4829162840924
20
-60.73615875922993
30
0
10
1526.6713691369714
20
-43.264826151603728
30
0
10
1526.1566663823833
20
-25.927936156787354
30
0
10
1526.3556204683505
20
-13.174760018892069
30
0
10
1528.3647637637046
20
-7.0847507710084958
30
0
10
1533.0282093423493
20
0.25619885304351508
30
0
10
1540.1670647371077
20
-7.1141572657921994
30
0
10
1542.5584535818564
20
-11.551578750739726
30
0
10
1544.896091412752
20
-15.21762850181354
30
0
10
1547.2844794588373
20
-11.262999101082423
30
0
10
1550.3019936160613
20
-8.3725909125416287
30
0
10
1551.8181589179242
20
-1.4922920276438343
30
0
10
1554.3179299186183
20
6.5003693458793226
30
0
10
1556.2943034351931
20
17.445265985633366
30
0
10
1551.7759112282283
20
25.530771494909892
30
0
10
1553.1435469475368
20
32.966906013607904
30
0
10
1557.4261606143912
20
34.508103295308949
30
0
10
1558.5454184441028
20
38.663309633311343
30
0
10
1563.2825222306592
20
37.884114993943278
30
0
10
1563.7379076777106
20
43.365321468692485
30
0
10
1565.0921101941053
20
47.817281101626804
30
0
10
1565.5493984428113
20
54.5027836362435
30
0
10
1573.006477591754
20
53.494933415685935
30
0
10
1571.7919623847156
20
58.963117260277528
30
0
10
1572.1736224472152
20
63.18551878393518
30
0
10
1568.0185089255037
20
63.680328670135722
30
0
10
1565.1466482325795
20
68.980802176280918
30
0
10
1564.6127718956325
20
76.832451882411974
30
0
10
1557.874352437434
20
80.203901159831759
30
0
10
1556.1355146430087
20
85.638490996750889
30
0
10
1557.530624095908
20
90.519757567875672
30
0
10
1559.6126747644662
20
95.611866348261628
30
0
10
1565.1587336722514
20
97.289064246778381
30
0
10
1567.4977001751565
20
102.51758187485191
30
0
10
1573.2255774057417
20
102.39440297297391
30
0
10
1577.978907477036
20
104.89405253520337
30
0
10
1583.5518302063131
20
104.2573648555542
30
0
10
1589.4158688099071
20
108.52837613540338
30
0
10
1597.4451004581681
20
105.83170184637611
30
0
10
1602.5590569814815
20
112.18260882613708
30
0
10
1608.0208936872461
20
111.38459775759168
30
0
10
1613.7436472620823
20
112.49383780589541
30
0
10
1616.0431813225155
20
118.18494058349037
30
0
10
1623.5719055347715
20
114.92262266255757
30
0
10
1626.074601992583
20
119.17982615894093
30
0
10
1629.1336094267745
20
122.05917457379046
30
0
10
1629.2079798785576
20
126.45078758566189
30
0
10
1633.278085653139
20
126.78971302646084
30
0
10
1633.8963133148047
20
131.47891771539284
30
0
10
1637.05272318167
20
135.73198786198614
30
0
10
1636.7966805030392
20
141.47975412940156
30
0
10
1640.7727736911988
20
145.34698199563363
30
0
10
1640.9746569285414
20
150.06072205384612
30
0
10
1641.8295735526112
20
156.90346675724771
30
0
10
1647.9887824771617
20
156.54766731221201
30
0
10
1647.9131337026024
20
163.55615198024435
30
0
10
1654.6442171930007
20
164.66168089307189
30
0
10
1653.1865525919065
20
170.98020054695908
30
0
10
1658.3360479777991
20
174.40792346284076
30
0
10
1661.5208934314128
20
176.89217956829484
30
0
10
1660.36334337924
20
183.22618529877818
30
0
10
1662.6722830502899
20
189.70229792059376
30
0
10
1661.8997464974711
20
198.88908409254333
30
0
10
1659.5174429183471
20
208.90399135131534
30
0
10
1655.6506914808504
20
218.45600961455199
30
0
10
1658.4804907128896
20
231.32062233575155
30
0
10
1645.0163145679983
20
232.48632755482532
30
0
10
1637.4164323211417
20
239.52844096234386
30
0
10
1628.4428581274751
20
240.35821003631889
30
0
10
1622.113696480847
20
243.85393889312982
30
0
10
1616.1571333607644
20
242.20359188121239
30
0
10
1612.9056180065045
20
247.47299121343013
30
0
10
1607.4589059714706
20
248.02561166933228
30
0
10
1601.7935538491033
20
247.91990801602637
30
0
10
1598.1835008513399
20
254.97403528605571
30
0
10
1595.028108218336
20
260.70538078668102
30
0
10
1595.1545882588141
20
268.8547079222547
30
0
10
1588.5518988354797
20
270.36737742902966
30
0
10
1588.6916915933334
20
276.46798039436806
30
0
10
1585.8048461512897
20
280.73517580048099
30
0
10
1585.9786645405006
20
287.14817811916407
30
0
10
1576.8980510710139
20
287.6513033295272
30
0
10
1580.2939931456744
20
302.24840901612083
30
0
10
1566.6904131078675
20
299.49946548877335
30
0
10
1559.733321590825
20
306.86651490803081
30
0
10
1552.9694654617003
20
314.06976363895575
30
0
10
1548.2286170919783
20
310.48858788434859
30
0
10
1544.9845181126634
20
313.41685407035692
30
0
10
1538.3031073285256
20
311.7298578321774
30
0
10
1533.99574776797
20
321.48857567321107
30
0
10
1528.858755238693
20
330.24848308986577
30
0
10
1523.5451201909325
20
338.91479590341021
30
0
10
1526.0410865530105
20
351.14031948564718
30
0
10
1517.6232908224188
20
350.96180082784213
30
0
10
1515.6893749280603
20
356.09571118370252
30
0
10
1516.0860402196774
20
361.43018780738379
30
0
10
1515.7816169464159
20
366.38256399254306
30
0
10
1516.0669468996605
20
372.80634460768766
30
0
10
1521.6140416177013
20
373.79130012845053
30
0
10
1525.5032388540822
20
375.84621641837737
30
0
10
1526.158144767011
20
380.9108469840204
30
0
10
1527.999846675561
20
378.79905728839901
30
0
10
1530.8979435962544
20
376.12892365195603
30
0
10
1533.1164657422837
20
379.71901183323666
30
0
10
1539.4046937824598
20
378.34507200299208
30
0
10
1537.2350117564706
20
384.89789001606198
30
0
10
1541.2870796507239
20
390.63013389598825
30
0
10
1534.9007236208431
20
392.89141124753542
30
0
10
1528.919723671032
20
394.99289131942197
30
0
10
1521.4582891047171
20
396.19276097284308
30
0
10
1515.7339129291022
20
398.66312930760779
30
0
10
1514.758592937603
20
404.59324584831671
30
0
10
1512.9441673847859
20
409.27202912855068
30
0
10
1503.1647755358135
20
406.82138697040762
30
0
10
1506.1562805229214
20
412.52881628555321
30
0
10
1505.418071475528
20
417.47932208180555
30
0
10
1504.1115156847084
20
422.20607791977847
30
0
10
1505.884590609744
20
429.45273256910156
30
0
10
1498.755209465937
20
428.38629669277827
30
0
10
1496.2858675159637
20
435.962264449266
30
0
10
1492.3505913766801
20
443.35993772129632
30
0
10
1491.8908633880824
20
454.30247906193063
30
0
10
1497.1221390638743
20
461.16803840031855
30
0
10
1496.8626678131777
20
468.89780891746284
30
0
10
1502.5782707413568
20
471.15149005897524
30
0
10
1506.4135030995751
20
468.48913734372616
30
0
10
1511.3624748673265
20
462.42525364654858
30
0
10
1504.4741461337937
20
461.34609091926905
30
0
10
1503.7515618858993
20
453.29139111210418
30
0
10
1507.5652834005696
20
444.85778690150653
30
0
10
1518.8117454170542
20
446.19366778799474
30
0
10
1521.6555087415059
20
453.43498091170159
30
0
10
1527.781340577144
20
452.36271085083558
30
0
10
1528.0285591239874
20
460.08228541650936
30
0
10
1519.7121283301472
20
462.04757159757031
30
0
10
1526.9023512678073
20
464.46293102704215
30
0
10
1527.5177576029891
20
469.17822614914365
30
0
10
1529.6932202249752
20
473.98080123923546
30
0
10
1533.2269186214294
20
479.87621516828995
30
0
10
1529.6745191508408
20
487.83414150572213
30
0
10
1523.2640560711468
20
490.80412835162838
30
0
10
1519.896108300454
20
494.95308864027385
30
0
10
1515.1192590315952
20
497.87562113767137
30
0
10
1507.351446101861
20
496.54886172620422
30
0
10
1504.0160336260506
20
507.40063293191542
30
0
10
1494.0578489907136
20
502.86279716935246
30
0
10
1486.9197792521218
20
506.06856603912632
30
0
10
1482.973152394482
20
503.20769780331835
30
0
10
1481.5647083951312
20
497.75995866747485
30
0
10
1474.6904933430803
20
494.13302006674002
30
0
10
1467.5988723086743
20
497.09189417031786
30
0
10
1463.7705943372723
20
492.89874855627158
30
0
10
1459.4630774209113
20
494.64525753909641
30
0
10
1457.4260159677408
20
489.11439020029218
30
0
10
1461.7712444720848
20
485.40723314415339
30
0
10
1462.2334168912755
20
479.20317194193058
30
0
10
1468.8944443656646
20
478.80853532591311
30
0
10
1471.112835104615
20
474.59417349085589
30
0
10
1471.7058942604594
20
468.40171142102815
30
0
10
1464.6048641419407
20
464.57142921378215
30
0
10
1458.1065274677321
20
466.79459955515517
30
0
10
1451.8953334596054
20
469.66303400166976
30
0
10
1446.2134893985481
20
471.44843954127407
30
0
10
1442.9910747555759
20
466.11216621213742
30
0
10
1448.4697369283213
20
462.57448908562242
30
0
10
1443.3564165389364
20
458.09678022548405
30
0
10
1447.3021964953614
20
454.40115647712275
30
0
10
1444.8532956305012
20
452.80712732191739
30
0
10
1442.4791914271443
20
448.67456279138867
30
0
10
1440.5377945849852
20
441.99229117532781
30
0
10
1438.7175337496083
20
433.10607754360933
30
0
10
1444.223491790392
20
423.07406241389293
30
0
10
1439.7711721017304
20
413.26293929019278
30
0
10
1437.5731622491128
20
400.77736883067467
30
0
10
1424.708471506535
20
405.52701632875397
30
0
10
1417.3660469920987
20
407.67123843078696
30
0
10
1409.0885214281661
20
407.55722905684854
30
0
10
1407.4958436317106
20
413.64758849142362
30
0
10
1402.3475258714291
20
414.8438727839698
30
0
10
1396.2223776315761
20
413.77495441712705
30
0
10
1393.8825034703416
20
419.5634026124178
30
0
10
1388.1696054436593
20
421.9727279043077
30
0
10
1380.6596959756712
20
419.99240281063919
30
0
10
1373.4906786613919
20
419.23987756904063
30
0
10
1368.8690327191312
20
421.62531996518419
30
0
10
1362.5090008115101
20
420.03392394732629
30
0
10
1360.5749962474802
20
428.65546746715273
30
0
10
1352.5791286622123
20
428.75037629745549
30
0
10
1347.2519017148124
20
434.17150399124478
30
0
10
1340.1276623298861
20
433.4649490631827
30
0
10
1332.313536822684
20
436.51578382419814
30
0
10
1331.3350725487221
20
443.90044671596763
30
0
10
1330.9231339712869
20
448.46584091712566
30
0
10
1333.4180848187484
20
451.35404722584843
30
0
10
1336.8319630716644
20
450.32417682051732
30
0
10
1335.2628360211406
20
454.59604215772919
30
0
10
1339.3101040860647
20
455.74587945764051
30
0
10
1339.3449233330202
20
461.33050450982034
30
0
10
1344.656485635699
20
462.88164032402346
30
0
10
1346.6212953060854
20
467.68382019016781
30
0
10
1353.0427189773613
20
468.32557312521737
30
0
10
1354.2945149510876
20
474.19496172867082
30
0
10
1358.035565596864
20
479.52897953565571
30
0
10
1362.3081775646956
20
488.53240735026304
30
0
10
1354.20806897283
20
497.00612953441475
30
0
10
1359.3650503096831
20
502.99779817306239
30
0
10
1357.4207879024732
20
511.02543821843
30
0
10
1367.6771593412382
20
514.27989033020776
30
0
10
1366.7981142374722
20
526.96322239523386
30
0
10
1358.7161918384106
20
534.07853140745954
30
0
10
1352.3345226245801
20
539.48932795385167
30
0
10
1347.9707860851593
20
546.01128508308886
30
0
10
1341.2846487634872
20
544.13768494207807
30
0
10
1339.9176647715592
20
550.55730910153602
30
0
10
1334.6312385218025
20
552.60506859973475
30
0
10
1332.3807550444399
20
557.91645362944723
30
0
10
1327.0755531259044
20
559.40857019267867
30
0
10
1321.4153809701893
20
559.18106661099819
30
0
10
1317.5480754022733
20
565.73740034298021
30
0
10
1306.1723788193078
20
562.37887106151072
30
0
10
1302.3678706695891
20
572.22491224136229
30
0
10
1295.1860126423264
20
572.38821951616853
30
0
10
1293.2192380839501
20
578.13710006811687
30
0
10
1289.851988807832
20
583.31825940163935
30
0
10
1282.8275171693374
20
582.21477061207383
30
0
10
1277.0358542360802
20
587.05358913812267
30
0
10
1268.9687862053679
20
585.99653228130808
30
0
10
1267.2935652497913
20
592.75871758547999
30
0
10
1261.9768554334978
20
594.01706923194729
30
0
10
1258.1642948099257
20
600.51245139834623
30
0
10
1254.5469582899254
20
606.44482927945694
30
0
10
1252.459858635289
20
613.18197550272839
30
0
10
1246.0440346845792
20
613.92926418378931
30
0
10
1246.1693419746823
20
620.36282612644482
30
0
10
1243.6226696178942
20
624.7067162567929
30
0
10
1244.0710481796439
20
630.95688452635625
30
0
10
1238.6749983724744
20
632.86173358438509
30
0
10
1232.1864800798025
20
632.61162397258079
30
0
10
1234.2114271484772
20
640.00058820302934
30
0
10
1226.5530655547698
20
640.25457714832999
30
0
10
1225.3494769419956
20
648.00149062783885
30
0
10
1219.9404338701052
20
653.66373224778727
30
0
10
1226.3673356632971
20
660.35179636700082
30
0
10
1231.5544423708466
20
657.94092008422786
30
0
10
1236.6262703474079
20
657.57624924202219
30
0
10
1244.4837905137429
20
658.37207800908811
30
0
10
1245.438794740958
20
646.62066075651933
30
0
10
1251.6641338372303
20
641.07133702654187
30
0
10
1257.9578625846477
20
638.42070735530694
30
0
10
1263.0040634507757
20
637.11387559270577
30
0
10
1269.4292556392977
20
638.16753811270132
30
0
10
1267.561653744044
20
646.01309789896789
30
0
10
1274.5043722242863
20
644.74704233321745
30
0
10
1277.986237830075
20
648.92998856304985
30
0
10
1279.9588722029332
20
654.88483440280584
30
0
10
1285.7131370615098
20
653.79467566950552
30
0
10
1290.5441188623342
20
656.1110533998783
30
0
10
1294.9168124131947
20
657.02109538056118
30
0
10
1300.6201917650592
20
654.43459470703317
30
0
10
1305.0813110587321
20
658.17118759437881
30
0
10
1310.0671061050969
20
658.85403912387289
30
0
10
1315.3526974175807
20
659.78270151072525
30
0
10
1320.7012836693784
20
660.41782308709412
30
0
10
1321.3307958147993
20
667.54976549692503
30
0
10
1327.4151521431327
20
666.9688282984057
30
0
10
1333.8676690812304
20
669.99743658772229
30
0
10
1336.8093852495572
20
678.76755896960208
30
0
10
1334.6262284601244
20
688.03487942927291
30
0
10
1328.4607184690203
20
692.10399244528912
30
0
10
1321.5192511378643
20
690.04291465937763
30
0
10
1321.5450214208092
20
696.87278331606421
30
0
10
1314.2177125017151
20
698.14902058104394
30
0
10
1306.8876970305496
20
698.69242092275977
30
0
10
1302.6709641902471
20
706.01448852265685
30
0
10
1297.0215348568729
20
704.74585282036492
30
0
10
1292.1367017670432
20
708.51481534605205
30
0
10
1285.8106755433132
20
704.0877161740616
30
0
10
1276.4090148109019
20
704.92100924545957
30
0
10
1266.7726813239481
20
707.51972262021104
30
0
10
1256.7118481464222
20
710.9138990921922
30
0
10
1246.7615687064672
20
709.18088104593812
30
0
10
1243.8089419431205
20
719.11739062774529
30
0
10
1238.6455909452211
20
715.71017899836522
30
0
10
1233.6126860507748
20
716.4382294835558
30
0
10
1225.4062094516564
20
718.99113531537819
30
0
10
1230.6329682671358
20
706.92569424273847
30
0
10
1223.9237950979043
20
703.06061621808738
30
0
10
1224.44146311646
20
697.12286971562548
30
0
10
1223.8086001370723
20
692.64792523018627
30
0
10
1217.3666993906752
20
688.18177858225852
30
0
10
1211.0951591347746
20
686.99324857759223
30
0
10
1204.5262198882867
20
683.76783329800048
30
0
10
1199.250783209749
20
685.42242524106086
30
0
10
1199.0884480616405
20
692.79760818482032
30
0
10
1191.6934194225239
20
691.56178326721965
30
0
10
1192.5229108694077
20
698.83974151360928
30
0
10
1190.1176097574883
20
703.2256744178078
30
0
10
1190.0491672265559
20
708.83561108382185
30
0
10
1186.790997645483
20
712.75608295505424
30
0
10
1180.4248239319586
20
712.41947069749745
30
0
10
1178.405786438736
20
719.64157809186213
30
0
10
1176.0650105115094
20
725.7163496060831
30
0
10
1174.4989724985689
20
733.39793499443954
30
0
10
1166.2485925510616
20
733.87819598400188
30
0
10
1160.5720927434945
20
740.86471793446526
30
0
10
1160.1572618780933
20
751.11572093412155
30
0
10
1154.3348182278887
20
754.47841583319041
30
0
10
1151.3552282863106
20
758.2626365900785
30
0
10
1148.2826125443705
20
763.04770365536456
30
0
10
1147.9319263554091
20
768.10229736362749
30
0
10
1145.195797188836
20
773.43588735864637
30
0
10
1139.8561131711638
20
773.3489516631688
30
0
10
1135.0650331109453
20
776.69757902537208
30
0
10
1136.1906249441777
20
784.26760753943404
30
0
10
1128.8638808673218
20
780.59202258207563
30
0
10
1126.3239846890547
20
787.48489518980921
30
0
10
1120.5958369131192
20
788.16970954055182
30
0
10
1118.3032890402164
20
793.42915054408968
30
0
10
1114.9239652164747
20
797.63692791932738
30
0
10
1106.5952136360775
20
797.04591309570333
30
0
10
1104.2091875714132
20
804.80949445498595
30
0
10
1096.5187303101195
20
805.77811379583272
30
0
10
1091.8380961556672
20
807.16791645116007
30
0
10
1086.7432587533228
20
808.83526392194369
30
0
10
1081.7261210476565
20
809.1980732710656
30
0
10
1075.7153182220804
20
808.16868605102923
30
0
10
1072.7225190178976
20
816.60508134373958
30
0
10
1063.9573433686714
20
813.49435593433486
30
0
10
1058.6460823772911
20
821.1345212466
30
0
10
1054.6106657928854
20
816.3241195977489
30
0
10
1049.8199971998617
20
816.22402680391724
30
0
10
1039.355842420124
20
816.19393474069057
30
0
10
1028.4890965295713
20
818.41593824890413
30
0
10
1018.6338113688849
20
811.86564402235729
30
0
10
1013.6477155229159
20
816.30769054895325
30
0
10
1008.3239070928892
20
811.49323764647295
30
0
10
1003.7930915974475
20
819.54299849196764
30
0
10
994.06256345722102
20
817.98778762799657
30
0
10
983.72795393625267
20
816.76387922020808
30
0
10
973.65056789802281
20
820.14203052525318
30
0
10
963.47008797022704
20
819.77790988977119
30
0
10
953.70555796327858
20
820.46055213758655
30
0
10
951.33560130193518
20
811.61958351268379
30
0
10
945.22716591527342
20
813.15797150854678
30
0
10
940.0832757382999
20
813.62150711144648
30
0
10
932.80537497320256
20
810.94845712477024
30
0
10
927.78272305417147
20
820.51475453509465
30
0
10
925.29845234273807
20
829.23682468167112
30
0
10
917.28858198243051
20
829.82120778973353
30
0
10
916.15516799164925
20
837.05095279822888
30
0
10
908.6440929375392
20
834.79797306333137
30
0
10
909.06711442390645
20
841.74194570209033
30
0
10
906.1588588120843
20
846.88271688739769
30
0
10
899.57809283755125
20
845.19846209114814
30
0
10
897.8551293410743
20
851.60555492268259
30
0
10
894.4256821339045
20
855.41859959652334
30
0
10
894.53268476523567
20
859.88579616824666
30
0
10
895.18111160129433
20
864.0900202077903
30
0
10
890.45618735257017
20
863.49964556057057
30
0
10
886.72403646175439
20
864.47034959124846
30
0
10
881.26163581472042
20
865.40229910265157
30
0
10
876.82322453058316
20
866.75131279578022
30
0
10
871.06584968665959
20
864.54528847981442
30
0
10
868.03719891347771
20
861.73202552180919
30
0
10
868.57573170363162
20
855.46552531110956
30
0
10
866.34769441603657
20
850.60261738581232
30
0
10
862.05295531726733
20
847.61347982628024
30
0
10
859.8294341188888
20
843.65821782835849
30
0
10
858.43034106936966
20
836.52194744932854
30
0
10
857.08171611596617
20
824.38089376586674
30
0
10
855.79052517044465
20
812.3663694924137
30
0
10
856.64842980565879
20
801.31758999369947
30
0
10
852.84994857226593
20
797.22462469456468
30
0
10
846.97043779615706
20
797.43230401287747
30
0
10
844.15876659948719
20
793.64317613218134
30
0
10
840.02487717347481
20
794.31131269568118
30
0
10
838.31343116662902
20
790.31492210251315
30
0
10
832.70173675903254
20
792.11236261909573
30
0
10
830.95263263536231
20
785.27108161077138
30
0
10
820.80433678755912
20
783.95690847512856
30
0
10
811.66237615332125
20
776.70652941606534
30
0
10
800.48924850495155
20
778.1253898840464
30
0
10
794.7582465199439
20
773.62502269485287
30
0
10
785.98821835103217
20
771.93344542490445
30
0
10
777.23655355551114
20
775.38330703701627
30
0
10
770.33130955432989
20
772.1198883277716
30
0
10
765.38177238324033
20
774.6293955514476
30
0
10
759.24160557938023
20
773.06544270236043
30
0
10
755.0242125501295
20
778.89209082000605
30
0
10
747.65962535325127
20
779.71064750702703
30
0
10
740.90585019715934
20
779.36519060690614
30
0
10
734.13738211878376
20
775.13725620216087
30
0
10
729.38083994766293
20
783.51340290946337
30
0
10
721.61661769745956
20
782.25025073799827
30
0
10
716.3102292198289
20
787.68108696984757
30
0
10
707.35878326617819
20
786.89904035791551
30
0
10
698.3227221881275
20
787.58211147235568
30
0
10
692.8909820085014
20
792.8183238340888
30
0
10
687.46658079347878
20
793.14388587053929
30
0
10
682.28918172775536
20
794.03775198334665
30
0
10
677.49205866765578
20
799.10934826024572
30
0
10
667.14699995292358
20
797.10907560559747
30
0
10
662.93230833691098
20
805.74742229778622
30
0
10
652.735046119868
20
805.72953427372681
30
0
10
659.93032393598401
20
801.11646453100298
30
0
10
661.27782549763583
20
796.76399109496913
30
0
10
661.10697721336305
20
791.0134592501081
30
0
10
665.96547653791151
20
787.88132934577811
30
0
10
669.47945025061347
20
781.49125403133087
30
0
10
680.3363796107875
20
780.78132380144211
30
0
10
682.33153621785061
20
771.73933604378874
30
0
10
687.41882466786365
20
765.64216582112272
30
0
10
693.81651232817478
20
768.76710112753676
30
0
10
696.05017107623962
20
762.7417652425479
30
0
10
701.24435490257554
20
761.48548329576158
30
0
10
704.27867872294894
20
757.96931269278639
30
0
10
705.19001970507429
20
752.76759101548487
30
0
10
707.29632488765105
20
746.90290055900368
30
0
10
713.96928479320752
20
749.75880290437794
30
0
10
716.15580074420632
20
741.99659527627637
30
0
10
717.69510198550142
20
746.95871894460208
30
0
10
721.47751879568648
20
747.19122447744644
30
0
10
725.59876801037103
20
748.14434751672718
30
0
10
732.73586676566867
20
748.95851621618226
30
0
10
740.81025134292463
20
743.35235881542076
30
0
10
743.88158792377544
20
735.97340677282568
30
0
10
743.41398931772937
20
728.08683051659978
30
0
10
737.33093080468257
20
727.04061377243829
30
0
10
731.02834840649189
20
727.49379077126662
30
0
10
732.92603441133849
20
719.12609900309781
30
0
10
732.40616435935772
20
711.1847834960065
30
0
10
740.47737309911952
20
710.18661809714581
30
0
10
742.38327632010032
20
702.01362199169478
30
0
10
744.76985780166103
20
696.71214966884986
30
0
10
745.38773666238239
20
688.37057503095252
30
0
10
737.12429650511967
20
687.43432647089548
30
0
10
729.20021626349649
20
686.51432122339759
30
0
10
717.7950280771114
20
686.66632774144841
30
0
10
714.58807880887537
20
697.47797678133281
30
0
10
709.31421213621331
20
699.56679581171124
30
0
10
702.39438932559642
20
700.70068749987649
30
0
10
704.39593424436134
20
693.7658238756112
30
0
10
702.77649462170655
20
688.63406981821174
30
0
10
696.85386117935479
20
690.0692455100351
30
0
10
691.82091051270299
20
692.02893990540531
30
0
10
693.30599674002144
20
695.52636616729671
30
0
10
691.37841435718258
20
699.22491624645443
30
0
10
696.09184989521987
20
697.76643846222146
30
0
10
697.36993642042989
20
700.04894814607724
30
0
10
691.78963514264399
20
703.98046391047217
30
0
10
688.27597416197978
20
700.79501401525499
30
0
10
683.53784302172471
20
703.48446285943169
30
0
10
683.55503922974412
20
700.52962374929189
30
0
10
683.72238677347286
20
697.75197218481208
30
0
10
678.95974510600081
20
698.55723424136147
30
0
10
675.54847857921402
20
702.0238700642094
30
0
10
671.22345243793859
20
696.93610114727585
30
0
10
663.68364253436107
20
699.9026001893742
30
0
10
666.77745529870754
20
692.5683933155567
30
0
10
670.77722676680889
20
694.28358605964308
30
0
10
673.83934874255488
20
690.80648433324336
30
0
10
665.90873486672979
20
692.23105101214571
30
0
10
663.83483782457074
20
686.56545592569637
30
0
10
663.83030129168958
20
682.05039519634033
30
0
10
663.26570855786713
20
674.9545442266184
30
0
10
659.08974763034496
20
674.0009294659086
30
0
10
654.47754837892444
20
685.36871691817862
30
0
10
650.01256333098604
20
680.14305496749614
30
0
10
646.02398641284924
20
681.08007365274614
30
0
10
645.78965843975197
20
674.80810562690795
30
0
10
655.71158738357462
20
675.73400124615227
30
0
10
648.56378324961634
20
673.27749320628618
30
0
10
642.80758329510661
20
673.72979364574792
30
0
10
644.31256513854748
20
680.45087142616137
30
0
10
640.6247943281295
20
683.47198539614851
30
0
10
641.93034173657361
20
687.92953437104484
30
0
10
637.97398596698122
20
689.04003192740174
30
0
10
633.86862470785854
20
688.80737169679151
30
0
10
628.6539531012163
20
689.93154967906116
30
0
10
624.2527414885426
20
690.17602217126682
30
0
10
622.27213426261346
20
686.45913522993965
30
0
10
618.47928108804251
20
687.43873306028502
30
0
10
614.17545424492926
20
688.01165719716028
30
0
10
608.95300809360106
20
686.6342071011594
30
0
10
603.34046641899465
20
689.49766226047404
30
0
10
598.62065793988631
20
682.51527183892472
30
0
10
590.69514871530168
20
685.12818430274842
30
0
10
585.05436707864146
20
678.92206051795847
30
0
10
580.48782811869467
20
683.19017328291477
30
0
10
577.51666425966721
20
679.55704549489428
30
0
10
574.19168046433776
20
681.01768176003134
30
0
10
570.60732667983996
20
682.43112631176109
30
0
10
567.35969406734046
20
679.7692923104903
30
0
10
565.01123046650866
20
683.64087064871342
30
0
10
561.20531682381102
20
685.31997897411588
30
0
10
555.85807469045449
20
683.71252459120092
30
0
10
550.37511881143655
20
687.78180848925854
30
0
10
550.82146688136208
20
679.48763838546552
30
0
10
554.66821153877254
20
673.56804086971988
30
0
10
564.14549419828847
20
678.47166441618413
30
0
10
566.08110441792655
20
667.22208556266514
30
0
10
559.18783010272944
20
669.73093840829836
30
0
10
555.51629553507075
20
665.09942373615672
30
0
10
549.5744240806448
20
669.88772673064886
30
0
10
553.34262397308919
20
661.50888680120215
30
0
10
551.94648391664077
20
657.96087584627401
30
0
10
548.49672959605959
20
653.60662804136393
30
0
10
542.76235637295451
20
654.45265518874078
30
0
10
537.45270116202312
20
654.57291160711316
30
0
10
532.92078091011558
20
651.60410673910974
30
0
10
527.66477433543741
20
650.74437301847524
30
0
10
523.75600413671361
20
649.8097152179048
30
0
10
519.39488778477426
20
651.03170281558596
30
0
10
519.61789627570602
20
646.29550889919585
30
0
10
522.66483014044343
20
643.66047010966145
30
0
10
526.28038240324724
20
644.33773518865235
30
0
10
528.95779035781322
20
642.07747315246695
30
0
10
524.26680086859142
20
642.5792653316563
30
0
10
523.45335439416567
20
639.58473828645174
30
0
10
523.69562550459614
20
637.41095311260426
30
0
10
521.47118875363549
20
639.96967316689177
30
0
10
518.35803765121295
20
642.55795047482934
30
0
10
513.10860924692702
20
641.92035800466726
30
0
10
514.93565516008812
20
645.39583347279427
30
0
10
517.88725146334218
20
647.85171457627416
30
0
10
513.37188273021025
20
650.18521049565163
30
0
10
514.16102722071719
20
654.79573803181893
30
0
10
510.19967292438764
20
659.57587081711551
30
0
10
512.7681957095424
20
663.65312754077172
30
0
10
511.23796665856702
20
667.18016453331404
30
0
10
514.42326616531648
20
670.89450045880631
30
0
10
507.43501920581002
20
671.73508700198454
30
0
10
503.38967958762998
20
673.12573719661009
30
0
10
497.71208475441438
20
673.9307018837942
30
0
10
496.85310695605745
20
681.92339991305914
30
0
10
499.73786726731407
20
688.51870250392597
30
0
10
497.71304030115789
20
695.32403299085684
30
0
10
498.44729983514611
20
701.25884705167607
30
0
10
493.30530417491104
20
703.96860688663219
30
0
10
487.55950057485495
20
703.45349333848617
30
0
10
484.58987685996789
20
707.26473041876773
30
0
10
484.41827880061106
20
714.06026078832281
30
0
10
478.96711796792147
20
714.95174806918703
30
0
10
475.91610040113636
20
718.63505112961457
30
0
10
471.51016713066963
20
717.69916117976379
30
0
10
472.24580465834003
20
713.05602084031204
30
0
10
465.64125114116871
20
714.83542908736911
30
0
10
462.7741610484826
20
710.4845132654782
30
0
10
454.23690804948887
20
709.50753356133066
30
0
10
450.8644170492687
20
718.86660089923282
30
0
10
449.53387301948499
20
730.4304683954997
30
0
10
462.06539102012073
20
735.04634193408583
30
0
10
463.26357416756161
20
724.35374531130833
30
0
10
468.86420910706988
20
725.95495695783802
30
0
10
475.73064535402398
20
723.05100375743893
30
0
10
475.17720465449611
20
729.08157261306746
30
0
10
477.55896631341716
20
733.75554964697744
30
0
10
474.90651601709158
20
740.66590066373692
30
0
10
475.03701637189761
20
747.22750923872297
30
0
10
471.0437260982053
20
751.08701166036622
30
0
10
472.81407184140107
20
753.29919776531426
30
0
10
470.38041383921581
20
756.5439119346297
30
0
10
474.96496815189312
20
757.85486626302804
30
0
10
473.87805398671662
20
763.21212081002841
30
0
10
475.6397789837601
20
769.75070054829064
30
0
10
475.63000933961581
20
778.84606198274639
30
0
10
474.96031908002692
20
788.92118067771116
30
0
10
473.74426311984462
20
798.75568745337318
30
0
10
465.66857699804132
20
799.32408588139674
30
0
10
461.24189650538
20
803.83501294429107
30
0
10
461.8121097554415
20
816.75967314262164
30
0
10
476.03637134669827
20
813.30070523556162
30
0
10
479.21064009504369
20
821.44164613199439
30
0
10
483.68519998195836
20
826.77707770699737
30
0
10
486.60453700125333
20
832.05392276027078
30
0
10
483.40576362044175
20
841.64310803034709
30
0
10
483.17850526315613
20
850.21094147894235
30
0
10
480.34089627091873
20
856.73664200424446
30
0
10
482.73702429079037
20
864.73051010201334
30
0
10
472.29234976452693
20
867.87819082418582
30
0
10
462.34789327406747
20
867.69888959104401
30
0
10
451.59729328428932
20
867.73202434493373
30
0
10
441.12303232094052
20
867.75350762356902
30
0
10
432.16425282602688
20
867.6245410140516
30
0
10
425.60856582842433
20
867.52959804201873
30
0
10
421.79083171038587
20
862.43538785360147
30
0
10
416.4199694023859
20
866.1687571319203
30
0
10
409.4871554190189
20
865.56197497024368
30
0
10
400.99919162061752
20
868.28765522737865
30
0
10
390.23883630863941
20
868.06558429636766
30
0
10
381.7079468732033
20
866.73112354434136
30
0
10
374.32291541745315
20
867.08862382586756
30
0
10
368.75801372737862
20
862.6619001244286
30
0
10
359.36163163789047
20
865.43404730950431
30
0
10
348.75441597678105
20
864.49622790509864
30
0
10
340.80045894878822
20
863.17664876279514
30
0
10
331.96183503606818
20
865.0300189416397
30
0
10
331.57438561424868
20
858.90682539293107
30
0
10
334.18627598423143
20
853.92107555403197
30
0
10
339.76658136483428
20
852.81341027862345
30
0
10
344.4870116594858
20
851.31379354943329
30
0
10
350.93939430821479
20
851.22373501654715
30
0
10
351.0254083600106
20
844.05781930067496
30
0
10
345.9704336932308
20
841.67261961222709
30
0
10
342.20930526540826
20
838.9018672353086
30
0
10
334.79167951275667
20
837.93762750946814
30
0
10
326.35614921409115
20
841.91288291622914
30
0
10
320.52848529035879
20
849.84605723534264
30
0
10
319.24166091148999
20
860.52065838444548
30
0
10
312.62740315976328
20
869.68365304068755
30
0
10
300.98613999057375
20
867.21057981097772
30
0
10
287.24924361525393
20
868.02958759947626
30
0
10
269.45857279833672
20
867.6284835771429
30
0
10
248.37566277396274
20
867.75641773188227
30
0
10
220.16790669497402
20
867.71586470770569
30
0
10
184.97254868767217
20
867.72552264797582
30
0
10
142.57511510724044
20
867.76413375914854
30
0
10
100.72675806718809
20
867.59809978613305
30
0
10
64.158708709343145
20
868.11937043580565
30
0
10
41.879017310479554
20
867.18886678891567
30
0
10
23.976059990231938
20
868.65917333137099
30
0
10
25.381974353331987
20
856.11106124317257
30
0
10
25.200815734197928
20
846.32666209275499
30
0
10
25.585304337193755
20
835.50235571778626
30
0
10
22.823567787257744
20
825.32828559965787
30
0
10
24.498068219423267
20
803.94704034094411
30
0
10
23.315873306490968
20
779.42791107435278
30
0
10
23.85644525085349
20
751.33385338190988
30
0
10
27.296603365184289
20
730.34177384068698
30
0
10
23.793340265049569
20
709.37605502026463
30
0
10
23.422099045123037
20
688.42569167024055
30
0
10
23.873801535240101
20
670.83051243638397
30
0
10
23.083814504274006
20
656.60233539381784
30
0
10
25.170813032839348
20
648.18330594332906
30
0
10
27.601636080416601
20
641.96775496412147
30
0
10
26.809146527242955
20
635.32400290435646
30
0
10
33.494421570636575
20
635.77678736554367
30
0
10
39.568436628344983
20
631.93464834877841
30
0
10
42.438052428473924
20
624.97041063867016
30
0
10
46.53070389107495
20
620.54207098210316
30
0
10
47.627366855368862
20
612.02026648446463
30
0
10
40.062390536145323
20
616.01599623714981
30
0
10
40.628172273684328
20
609.66953235924518
30
0
10
37.732499960771513
20
606.77864746498631
30
0
10
40.820688178766119
20
603.76809857056082
30
0
10
40.096311232745762
20
598.35399264871239
30
0
10
47.492975105052444
20
598.97962361361704
30
0
10
45.958917383205737
20
589.00511253844468
30
0
10
49.208465914970603
20
583.82536851959355
30
0
10
48.258407428554193
20
569.64056249770033
30
0
10
42.321254383224357
20
574.78091995338957
30
0
10
39.810490093715316
20
571.43453330847638
30
0
10
34.450911739574266
20
572.72758821144214
30
0
10
35.763800302843521
20
564.40225098859378
30
0
10
28.004320227686925
20
571.70825845136608
30
0
10
27.656790447704562
20
564.89024661186795
30
0
10
26.274760302444037
20
558.72135149291114
30
0
10
26.070532855249411
20
551.18609009058582
30
0
10
27.181555820477278
20
544.46929710607128
30
0
10
26.454313166986765
20
538.49608737253823
30
0
10
29.018302692994538
20
534.57770810396505
30
0
10
37.702075534123509
20
536.54836530312127
30
0
10
42.072746423403643
20
531.61942549265996
30
0
10
51.107670449230163
20
531.63143938705559
30
0
10
46.594430798116086
20
539.02789410296293
30
0
10
40.721647433794786
20
536.78829693274918
30
0
10
38.065949789370244
20
543.25365751622121
30
0
10
38.542741074345315
20
546.50593538057274
30
0
10
37.973151551735306
20
551.36711884981901
30
0
10
41.135891005844123
20
551.11672649574325
30
0
10
46.25695509210091
20
552.70637390799163
30
0
10
41.29355179026183
20
555.6572649713064
30
0
10
41.840014452685033
20
559.11772365050274
30
0
10
45.095211869606153
20
553.75755313189404
30
0
10
49.418974121467691
20
554.18262993312283
30
0
10
48.63892947695593
20
559.1584643061318
30
0
10
55.06046766932387
20
557.20887681098066
30
0
10
61.301117950337904
20
557.80174964904086
30
0
10
70.587313719043422
20
556.78660228482397
30
0
10
80.671609607755499
20
559.52586526797108
30
0
10
91.519801086567298
20
558.65930408472298
30
0
10
99.508564286717828
20
560.75055907594879
30
0
10
107.79480022197929
20
559.71426800474126
30
0
10
108.28561933120396
20
554.15793231872294
30
0
10
108.70016090566878
20
549.22606738988407
30
0
10
113.44511485663796
20
550.28264370823013
30
0
10
115.32738554291056
20
546.93944043596139
30
0
10
120.03212813863769
20
543.57934675090223
30
0
10
111.29520614046287
20
542.9391722053856
30
0
10
107.61576318392662
20
541.03247258431372
30
0
10
106.32054047554803
20
535.56808853859809
30
0
10
102.29281773862246
20
531.2540537760334
30
0
10
98.964714314857446
20
531.49353176356703
30
0
10
93.16448440918947
20
530.94530665434604
30
0
10
97.2802765004474
20
528.65236663473252
30
0
10
100.00725325602912
20
523.77821455627827
30
0
10
104.65269820856798
20
518.52262149419016
30
0
10
106.43405611044582
20
510.71721831229763
30
0
10
111.56753541865075
20
509.43830940465443
30
0
10
116.16850285605906
20
507.4485513567605
30
0
10
119.33727140251987
20
502.78810752460981
30
0
10
124.57067775095416
20
502.00716130936877
30
0
10
129.26529502379464
20
495.8975091363269
30
0
10
137.24266101528096
20
496.80275590065776
30
0
10
142.8042466436296
20
492.25238811265478
30
0
10
149.05000195661529
20
495.31360757457441
30
0
10
152.89362534899666
20
489.55025227246864
30
0
10
158.57362721058934
20
494.78434279858186
30
0
10
161.36324265484103
20
488.54161390308371
30
0
10
168.8939468689735
20
488.38871265314094
30
0
10
167.77782226203902
20
492.83817909774791
30
0
10
172.20841954693611
20
496.49974581371669
30
0
10
172.81623966236239
20
491.63049237042003
30
0
10
178.67557921056263
20
492.41137913637306
30
0
10
182.27427201714929
20
490.06485446803589
30
0
10
185.06971070141731
20
484.40331681205038
30
0
10
191.06624570151664
20
485.91558259472924
30
0
10
196.19224327466196
20
486.10926887562749
30
0
10
202.83168931251126
20
482.93086409444118
30
0
10
209.79603722596138
20
486.42103243305826
30
0
10
217.19676246346498
20
485.35024213839995
30
0
10
220.56627872288314
20
479.96018781096814
30
0
10
227.34599425388291
20
483.61707174606687
30
0
10
227.2588367983256
20
476.96162239490911
30
0
10
225.33385680567804
20
471.35146992143376
30
0
10
233.73939710955366
20
468.19072446485313
30
0
10
236.96701136268695
20
477.98168838340877
30
0
10
244.59296963754085
20
476.59578440776454
30
0
10
249.3109561550171
20
479.51718553841556
30
0
10
252.71966408817826
20
484.0817776479405
30
0
10
246.59224456925176
20
488.44090486958601
30
0
10
237.71325734791546
20
488.6021476466351
30
0
10
229.56066023639892
20
496.6920782044661
30
0
10
233.06209070756813
20
507.47437992464944
30
0
10
240.87615956853742
20
505.71891514423902
30
0
10
245.78090530566425
20
507.45252653782143
30
0
10
251.14834300776224
20
506.15471324016795
30
0
10
256.67290774264825
20
509.22773300114812
30
0
10
259.98827960606769
20
503.96291179433859
30
0
10
264.34538202168363
20
502.67487780913177
30
0
10
269.26860786043341
20
500.78503015091803
30
0
10
274.2019864308848
20
499.56019696554517
30
0
10
279.28189003803055
20
496.5519254684491
30
0
10
285.14496369941497
20
500.60614761868436
30
0
10
292.75013176620814
20
497.68531395873146
30
0
10
295.98978901596178
20
491.69555847438943
30
0
10
295.62217468425104
20
486.51772475880716
30
0
10
291.03331291285059
20
487.28179386451461
30
0
10
292.43622689736264
20
482.2836878307802
30
0
10
292.37884725542301
20
477.50715244244464
30
0
10
299.25025856047506
20
468.62438743816034
30
0
10
311.04018456026967
20
471.32152899232847
30
0
10
316.13679265037325
20
463.55537611730585
30
0
10
322.28399543586448
20
459.2706602742262
30
0
10
329.57564167494729
20
459.75655677029158
30
0
10
334.27002067683543
20
454.59046328227231
30
0
10
340.71224809693547
20
449.81873498503717
30
0
10
338.98137067775781
20
444.03957911236819
30
0
10
341.69512727868482
20
439.13976130446662
30
0
10
334.5287035070271
20
435.79095483105363
30
0
10
334.94145303542643
20
428.02015072941276
30
0
10
329.63777083018812
20
425.92064749509774
30
0
10
328.95861191852163
20
421.62969831839075
30
0
10
323.27105671044887
20
423.21044603998189
30
0
10
319.79843438500774
20
426.86267026640098
30
0
10
316.47882733494151
20
423.90362016104496
30
0
10
312.60743240540415
20
426.83354107035439
30
0
10
311.27984324837126
20
421.2093559376973
30
0
10
308.93260465944093
20
427.03424591649639
30
0
10
305.56831787198865
20
427.73668394225683
30
0
10
300.94327139537199
20
427.8628800543143
30
0
10
296.11942538583753
20
426.93008464241819
30
0
10
290.94964433590019
20
427.6117408489057
30
0
10
288.87398115651052
20
423.60265356448059
30
0
10
285.61595263883919
20
426.71004647745463
30
0
10
281.70345210233972
20
425.24141836496324
30
0
10
281.15231637723042
20
421.1682481556557
30
0
10
277.03291829780932
20
421.87656227823737
30
0
10
272.69788409692535
20
420.45723421980881
30
0
10
268.32722247269737
20
423.73872623748707
30
0
10
265.22019839387445
20
427.21939996143885
30
0
10
259.7432708632108
20
427.69427289670745
30
0
10
256.15494815183303
20
431.95328056818255
30
0
10
248.76736207904429
20
432.90143081383337
30
0
10
242.26452697904756
20
431.86003154956319
30
0
10
234.1514837384218
20
433.37716919253211
30
0
10
232.27471669978286
20
427.52885463304222
30
0
10
226.87521228688416
20
425.46387765257168
30
0
10
222.0324011588045
20
424.87382722080338
30
0
10
216.44194543267545
20
426.96874948907532
30
0
10
216.98393425968706
20
421.9082459458304
30
0
10
210.59873743577424
20
423.10070554376841
30
0
10
205.03278006681279
20
423.09179829698536
30
0
10
197.43935836342686
20
422.51295127468177
30
0
10
194.0806532252069
20
427.79114888947606
30
0
10
195.2915715676356
20
433.14489464018527
30
0
10
194.28867954527999
20
438.34769862734174
30
0
10
196.06258532449874
20
443.76536825480974
30
0
10
201.04619649355539
20
446.12222719708382
30
0
10
201.84606272102653
20
450.89200225165621
30
0
10
197.02872794079803
20
454.03339337260974
30
0
10
197.17873239410869
20
460.44053502699597
30
0
10
202.310060778961
20
459.19312280038417
30
0
10
201.75175103654675
20
463.40225380186371
30
0
10
203.12859128490385
20
466.25759427745351
30
0
10
199.1653707393607
20
471.09211749833105
30
0
10
198.5592142840502
20
467.82839525991881
30
0
10
195.76121379107468
20
467.57534642691598
30
0
10
196.42851559534208
20
465.06673635500999
30
0
10
194.07654591783253
20
467.17946397164565
30
0
10
193.29453459362372
20
464.57811931810545
30
0
10
189.78189980577832
20
463.29733413629646
30
0
10
191.68784844725639
20
460.82676762642632
30
0
10
186.08993019525633
20
461.99309333128377
30
0
10
183.48699697117112
20
459.61070223409507
30
0
10
182.78473427458101
20
453.83090547471738
30
0
10
182.74696671826834
20
450.28264200026751
30
0
10
182.45605386588443
20
445.93048759666004
30
0
10
178.75814556144135
20
446.43687324931653
30
0
10
178.59453416512594
20
443.14564546988936
30
0
10
174.5504530591127
20
443.12903420423629
30
0
10
176.28987112084232
20
436.90746100659396
30
0
10
174.84422575588286
20
432.0093774829931
30
0
10
177.48106576018131
20
427.58463672388825
30
0
10
183.42664410593213
20
427.09068972882534
30
0
10
181.8235466061918
20
420.490167203167
30
0
10
182.47983485835994
20
415.63628446037143
30
0
10
180.67766541746292
20
411.0410057398484
30
0
10
175.84748419895413
20
412.26533221691653
30
0
10
175.70256014206052
20
408.83491372067772
30
0
10
175.27636824212857
20
405.97927973201524
30
0
10
171.03481221758204
20
405.68520553848197
30
0
10
171.00597192828241
20
399.01929895336082
30
0
10
170.49104737852289
20
390.42645014295005
30
0
10
179.12616452723859
20
392.77253138468916
30
0
10
183.21695854400289
20
389.28060685269855
30
0
10
171.56730694195551
20
392.32284586035888
30
0
10
171.97850001939179
20
386.97825386780045
30
0
10
173.89695727067817
20
381.70984568534277
30
0
10
171.36091802949562
20
374.85904482566758
30
0
10
167.81101754902539
20
366.66720211263669
30
0
10
168.7333244776751
20
357.91655671734145
30
0
10
167.84278161918633
20
350.97053410686868
30
0
10
158.46759980501102
20
351.80825044561152
30
0
10
161.76980159657722
20
343.1141116909215
30
0
10
163.13730461772198
20
338.19491200980019
30
0
10
168.0594629108397
20
339.2734310502945
30
0
10
170.73487738934506
20
332.7621616032414
30
0
10
179.34534725831114
20
334.93343337118461
30
0
10
185.80104393718977
20
332.31000792278968
30
0
10
191.04953106643842
20
333.89751723897183
30
0
10
196.02470162430879
20
331.97558644777257
30
0
10
203.75424308907907
20
334.7163275156712
30
0
10
207.21881389652197
20
326.50591300630322
30
0
10
213.75768038014201
20
325.92993564933761
30
0
10
217.48398440039128
20
327.3792067254227
30
0
10
219.08244177662249
20
321.01835556751473
30
0
10
220.4105417702695
20
313.81297560042987
30
0
10
224.84832322670763
20
306.349896592569
30
0
10
231.21388204616892
20
302.8822865057852
30
0
10
230.39573596487264
20
298.76728850350383
30
0
10
227.73458211163938
20
304.17633977139639
30
0
10
223.82991273564295
20
304.29026463582153
30
0
10
219.51994921396292
20
301.7420945701395
30
0
10
220.36381302189528
20
294.36926291505955
30
0
10
226.47597370528118
20
295.57207096520074
30
0
10
232.06109240506692
20
294.85749814037365
30
0
10
232.04516719580297
20
286.16056388136434
30
0
10
237.35054672040144
20
279.5081090753672
30
0
10
234.2204558095753
20
268.87508400778535
30
0
10
243.34282355938399
20
266.3347603373727
30
0
10
241.00245177259478
20
257.59339013427075
30
0
10
252.70344115196224
20
255.73943248992737
30
0
10
258.92770089948522
20
249.93758541916378
30
0
10
259.1501455703301
20
243.82893385331329
30
0
10
259.44112299687282
20
239.81344898020632
30
0
10
254.59399951005096
20
241.00414842739559
30
0
10
250.78078326415914
20
240.86254354499144
30
0
10
244.17247186278286
20
237.70725529873533
30
0
10
237.13606262849868
20
238.51884200213817
30
0
10
231.23625059081479
20
235.7724526999275
30
0
10
230.70557006560995
20
231.46682278302745
30
0
10
224.91699310100134
20
233.1272542260233
30
0
10
230.43211777525443
20
227.14703817527885
30
0
10
227.21403216136758
20
225.09387964776869
30
0
10
223.48928865339553
20
227.39111618826118
30
0
10
222.47212973814996
20
227.93186056464731
30
0
10
222.83870747401556
20
222.92558561385556
30
0
10
219.7928004000124
20
225.37398725018517
30
0
10
220.62302111231764
20
227.8675050312844
30
0
10
219.71784204390559
20
230.78209253205699
30
0
10
222.5724004285326
20
231.08043758790319
30
0
10
225.28562781083218
20
233.75793044015879
30
0
10
218.12453080611692
20
235.8007451649575
30
0
10
211.35959255559541
20
232.66762957116114
30
0
10
203.58370445332832
20
237.50837982997555
30
0
10
196.83061586868769
20
239.43894812351289
30
0
10
192.14200146828188
20
240.53280953274779
30
0
10
191.23871347634724
20
247.34347078023674
30
0
10
186.85634580310807
20
245.22586209444432
30
0
10
183.83468559496373
20
249.05547384159445
30
0
10
192.54587234522
20
247.5942084098813
30
0
10
190.26860067131202
20
253.11682331739831
30
0
10
190.47817416242418
20
257.53884830104539
30
0
10
187.28784702618341
20
256.81664392352513
30
0
10
184.91713500214897
20
254.23186110482547
30
0
10
184.58368411242802
20
256.97727069699368
30
0
10
184.51248156737481
20
260.94166902684162
30
0
10
182.0947484764466
20
263.36625227360747
30
0
10
178.41695677138151
20
267.92807493678475
30
0
10
170.20741610511652
20
266.33268821144753
30
0
10
163.35083296018951
20
267.44439587612902
30
0
10
157.99870207025822
20
264.59386527057075
30
0
10
153.77366306214722
20
269.18494415324591
30
0
10
149.47672369145164
20
271.2120802288257
30
0
10
146.71056075633982
20
278.9553822724663
30
0
10
142.18097068829513
20
275.21788158997941
30
0
10
138.9579817254386
20
272.54821675074402
30
0
10
141.81135906585632
20
264.64076360199238
30
0
10
145.94623677717937
20
257.2175842943484
30
0
10
145.31907378722667
20
248.84300438153062
30
0
10
148.0142308964262
20
240.69279278775446
30
0
10
154.77705962954485
20
242.85244804646561
30
0
10
156.35894488975924
20
235.35619900919744
30
0
10
162.22052632434384
20
237.62513352218903
30
0
10
167.4532630788176
20
236.49495796313175
30
0
10
170.76048262949411
20
232.07955240536108
30
0
10
174.58315140363277
20
228.50319563424608
30
0
10
181.16307167251978
20
231.12882614301026
30
0
10
183.05164028629773
20
223.52910481514908
30
0
10
189.68386486265246
20
226.4611620164024
30
0
10
189.94040779020872
20
222.55906872997798
30
0
10
184.55770293827527
20
222.64570442597676
30
0
10
192.55055277392486
20
218.92240119604239
30
0
10
192.42900237192327
20
213.59010498132284
30
0
10
198.67279879069815
20
210.01592433466749
30
0
10
192.67606692965103
20
205.46895018829503
30
0
10
199.05429570600285
20
199.4649583064928
30
0
10
204.33312458705032
20
194.73261525552002
30
0
10
203.35089881233472
20
188.28618249777875
30
0
10
204.76218539397482
20
183.69706004769495
30
0
10
201.58948114542102
20
183.74558232966106
30
0
10
199.38164567315752
20
186.07329214182846
30
0
10
195.96594455844831
20
182.7808588637923
30
0
10
203.34074578286035
20
177.69846157485375
30
0
10
193.37924394689392
20
178.47545213282314
30
0
10
198.18536949761813
20
171.83073707929327
30
0
10
201.24622904510576
20
169.44591179556306
30
0
10
208.06728910358572
20
160.60973143991197
30
0
10
194.78513693862581
20
172.91826057754579
30
0
10
195.91176393470204
20
165.91640766329337
30
0
10
195.19462863690444
20
163.9551857914272
30
0
10
190.60296590083794
20
165.63373769957383
30
0
10
191.97947720900004
20
162.2928369722685
30
0
10
189.16296948198533
20
160.15804146515717
30
0
10
188.76724388911487
20
164.8090217160042
30
0
10
186.27875049827503
20
170.78686686784891
30
0
10
182.93261634475212
20
165.23108587060227
30
0
10
174.88563834440436
20
168.02908658056239
30
0
10
168.11467070412328
20
166.32274348131332
30
0
10
162.04791313634342
20
170.53246335483499
30
0
10
156.57794255524499
20
170.18618858482054
30
0
10
153.46884695194441
20
174.34428407847167
30
0
10
149.25515373059963
20
173.27476266660767
30
0
10
147.75192198059113
20
176.82253567667385
30
0
10
146.68184689913383
20
181.08058782358765
30
0
10
143.3185108350863
20
184.99479891733955
30
0
10
141.25083530365376
20
190.93685281216625
30
0
10
135.03263344648576
20
189.23933755205482
30
0
10
131.32006145247283
20
192.45664538055766
30
0
10
127.40225810862468
20
191.96496347194505
30
0
10
127.50883784978379
20
186.35887849320684
30
0
10
123.00551705448478
20
192.14261146399551
30
0
10
117.6676582758928
20
191.99451676359917
30
0
10
112.8909707005527
20
190.28043446708213
30
0
10
105.82312569312154
20
190.29721880210479
30
0
10
97.57738272496006
20
184.62605692965784
30
0
10
89.038344226234599
20
193.46493513365971
30
0
10
77.857499723523901
20
191.63502807793026
30
0
10
69.367979605620803
20
191.92424579670052
30
0
10
63.124934042560845
20
192.01470948776858
30
0
10
59.796073537036563
20
190.56388652032126
30
0
10
56.012764284935173
20
193.08499152097539
30
0
10
53.643035044050947
20
187.69884302390312
30
0
10
46.980900400986499
20
193.04076024007514
30
0
10
47.924243442988022
20
187.85688772863824
30
0
10
44.507572881493978
20
186.00221542855121
30
0
10
45.303615497583337
20
180.4437959835476
30
0
10
50.191872784510458
20
177.60923396059172
30
0
10
52.011401373126311
20
172.52316123358054
30
0
10
52.462709298728747
20
168.26909966136611
30
0
10
56.605326552773356
20
166.50852348265909
30
0
10
55.746900120065689
20
162.36079474138097
30
0
10
59.023843896939418
20
159.70760478466934
30
0
10
64.339016055021517
20
158.08170215232587
30
0
10
67.328194001635609
20
153.09096950730193
30
0
10
74.122390940348339
20
153.96900589514149
30
0
10
73.788515465450914
20
147.30977924295382
30
0
10
78.880766989538841
20
141.49368269073148
30
0
10
87.490616536768442
20
145.73308967098686
30
0
10
92.199053074764066
20
138.76632073130011
30
0
10
86.435300402623781
20
138.86888026534922
30
0
10
86.845525756778258
20
136.33299815591002
30
0
10
87.155721586249996
20
132.55911202975537
30
0
10
81.647062479784083
20
134.24845184095011
30
0
10
83.447630569863094
20
128.07140892429371
30
0
10
77.589580511818014
20
125.18292604717688
30
0
10
78.98502133753081
20
119.34961457692317
30
0
10
76.633422797797863
20
114.66279528827985
30
0
10
77.523100264758952
20
107.35404777757699
30
0
10
74.518866996545171
20
101.03601767793788
30
0
10
75.118986510908158
20
93.335060050945202
30
0
10
71.167781880780467
20
90.082298598985375
30
0
10
66.262509439699912
20
88.67543790625534
30
0
10
61.249913320769203
20
85.189838182426172
30
0
10
63.3805644036389
20
78.952210748358297
30
0
10
56.882329571513822
20
76.710843952193088
30
0
10
58.618520769533859
20
70.348323430778947
30
0
10
53.104374159550545
20
67.445911082847758
30
0
10
51.950649805717006
20
62.057569684426852
30
0
10
46.218475672437492
20
59.740518805184628
30
0
10
45.491927126524502
20
54.481137055639991
30
0
10
41.386142992767041
20
50.866351969045567
30
0
10
39.47526051648785
20
45.463641455978994
30
0
10
33.366555636664955
20
44.876207065374878
30
0
10
31.087234758268714
20
39.724696440919296
30
0
10
25.204108784542978
20
36.301782769733123
30
0
10
22.967769897654442
20
26.920660435553604
30
0
10
23.931984597211617
20
13.052989894950024
30
0
10
23.429764641856899
20
-4.7247336322529687
30
0
10
23.694843645419688
20
-25.602349257651476
30
0
10
23.237203254521539
20
-47.594879912424574
30
0
10
24.802646465290479
20
-65.58341790364544
30
0
10
20.450393594075258
20
-90.250263341690641
30
0
10
31.646474978350252
20
-87.218229810128605
30
0
10
32.999366387256856
20
-81.583559774874956
30
0
10
34.179345523068278
20
-76.359128341671024
30
0
10
40.009211100758733
20
-72.076451669464717
30
0
10
44.326240685913838
20
-65.465971219581974
30
0
10
50.943230302287688
20
-66.328555144148538
30
0
10
57.348953315353775
20
-63.082599977891086
30
0
10
66.085733543667658
20
-66.271923295038576
30
0
10
65.712615399290243
20
-56.661047954117279
30
0
10
70.11240059356804
20
-58.689499214138692
30
0
10
70.75076934033244
20
-53.602074099116052
30
0
10
74.224804036185006
20
-51.153375731272575
30
0
10
79.618214653749192
20
-53.119212206529546
30
0
10
85.155790625518719
20
-53.137947473959777
30
0
10
89.297455529466774
20
-51.409325317071179
30
0
10
92.294087940883358
20
-45.900842680114295
30
0
10
98.227931102569158
20
-47.847088940137283
30
0
10
103.29942459924028
20
-47.212137257091754
30
0
10
108.37111989999272
20
-41.332181767668672
30
0
10
117.8040060963784
20
-41.782454309406575
30
0
10
126.50205295940114
20
-48.560995864630236
30
0
10
137.08748615728385
20
-46.323277190268925
30
0
10
145.52852941692885
20
-46.336255468610723
30
0
10
153.30134239705617
20
-47.557107895021943
30
0
10
156.8676888886211
20
-43.085759855394755
30
0
10
162.24537391466001
20
-42.547760848213073
30
0
10
163.27197038903586
20
-33.71273195235608
30
0
10
174.03024953585577
20
-36.762510021094656
30
0
10
175.16692079442262
20
-27.548617593897291
30
0
10
180.33084704713929
20
-26.982532626915653
30
0
10
186.3099398573865
20
-29.093582627391889
30
0
10
189.74450219494838
20
-25.78292603063694
30
0
10
200.0525662465281
20
-25.706762169861129
30
0
10
200.3637158099227
20
-33.598378358861694
30
0
10
201.8844657330753
20
-39.511195103676684
30
0
10
207.78638164837236
20
-39.962162009282082
30
0
10
208.06768084370975
20
-46.060903464151167
30
0
10
207.72748582371003
20
-50.117558488164676
30
0
10
209.05738132071394
20
-54.484200832627607
30
0
10
204.68132966009949
20
-55.34350881521577
30
0
10
204.69719964607154
20
-59.708215562028073
30
0
10
201.63463410501521
20
-64.227972758881904
30
0
10
198.22749543324593
20
-68.14185391017628
30
0
10
192.58630498474008
20
-68.798392907602235
30
0
10
189.69975248112846
20
-71.923067687272081
30
0
10
186.51015687271899
20
-77.219959587195476
30
0
10
190.46169737685142
20
-81.793358327397527
30
0
10
188.87730128437829
20
-87.743711668544648
30
0
10
194.45552665888329
20
-90.904124923806734
30
0
10
192.42753565512061
20
-97.255523241096483
30
0
10
197.74906642043959
20
-100.23085714975733
30
0
10
200.75033115939129
20
-103.82332280403949
30
0
10
207.53417412965956
20
-106.78674506004714
30
0
10
204.40128579758581
20
-111.92102250318784
30
0
10
202.67813941937675
20
-115.957389531339
30
0
10
195.26270679968886
20
-118.10150611068991
30
0
10
187.80380243773482
20
-122.02944634673034
30
0
10
187.66188397081763
20
-135.86532051341365
30
0
10
196.97918071462084
20
-138.85691278898094
30
0
10
204.17612342917369
20
-140.53397421516553
30
0
10
206.55571100646014
20
-147.74061991240364
30
0
10
213.23082741094467
20
-152.35850225814443
30
0
10
210.33923546513122
20
-159.27145844602077
30
0
10
214.97732476289826
20
-162.04532168394917
30
0
10
210.67093648929372
20
-165.82797686812992
30
0
10
209.48049863428622
20
-172.44168521054235
30
0
10
205.22516310822436
20
-176.8954809837374
30
0
10
210.02556987837838
20
-185.27395431747505
30
0
10
208.95797157609221
20
-191.00207691269648
30
0
10
211.60903916966561
20
-198.88856439808907
30
0
10
218.0367366759086
20
-198.13492696445607
30
0
10
222.65553273819262
20
-196.90608098980533
30
0
10
224.29958316885561
20
-190.60907742376912
30
0
10
230.62272654351901
20
-192.81774647593085
30
0
10
234.85967239462778
20
-187.85512727009382
30
0
10
239.15886420800078
20
-193.5468592272274
30
0
10
246.48747283838955
20
-191.80622139175458
30
0
10
255.29736829468959
20
-191.71165904785497
30
0
10
263.51563913903448
20
-193.14235270421193
30
0
10
271.50192618730676
20
-193.93130111386097
30
0
10
275.30607568076556
20
-187.95645010914166
30
0
10
281.89904015405205
20
-182.04316075375453
30
0
10
292.83229485290832
20
-184.60842920714182
30
0
10
296.26294251851903
20
-177.72472019303692
30
0
10
300.64443984474218
20
-174.62238058579737
30
0
10
305.85175626112311
20
-173.48002325420097
30
0
10
309.2378173485252
20
-168.84907691037452
30
0
10
313.28272447093701
20
-165.97758589205063
30
0
10
319.15483749248182
20
-167.3450346378055
30
0
10
323.96838261612356
20
-164.97692628323406
30
0
10
327.70112493224894
20
-158.83733380592633
30
0
10
334.30408012141402
20
-155.75672753033902
30
0
10
340.07658436108812
20
-153.23774094254625
30
0
10
346.19030053683139
20
-149.41347696185125
30
0
10
352.31841613066536
20
-153.34659953834023
30
0
10
360.42821539160394
20
-155.10160982793712
30
0
10
363.20886343227045
20
-150.37851996933992
30
0
10
366.75254165100091
20
-147.22111740275378
30
0
10
372.60424880514933
20
-148.8531329917912
30
0
10
377.20736676766757
20
-145.78039241616807
30
0
10
382.95370331617835
20
-145.99626279637016
30
0
10
386.36233252316163
20
-141.22250293349128
30
0
10
390.86404273295267
20
-139.65279073733569
30
0
10
396.42916271768223
20
-140.96802137967177
30
0
10
401.36054684154084
20
-137.20248483493771
30
0
10
406.18736507986182
20
-141.30700307118485
30
0
10
411.30165509758746
20
-140.4832407604224
30
0
10
416.86702317844407
20
-143.96606215006898
30
0
10
416.40548438921655
20
-148.80523405061064
30
0
10
416.38529176089213
20
-154.24912801857005
30
0
10
420.82307030877871
20
-160.13412809080464
30
0
10
419.09132644830618
20
-169.52453101543014
30
0
10
420.81033466823186
20
-179.15610895451744
30
0
10
415.3724655840881
20
-188.72223722690265
30
0
10
422.32293992672214
20
-193.44633070688957
30
0
10
421.77359953530731
20
-201.06349550274419
30
0
10
427.32346838239948
20
-205.87910419460869
30
0
10
427.55933939557667
20
-214.75526208178383
30
0
10
434.90207276936081
20
-212.02529242533183
30
0
10
436.7247060712034
20
-218.7021107673956
30
0
10
440.55687090892235
20
-221.86478235954252
30
0
10
445.79858932733634
20
-224.6213546031442
30
0
10
444.77955920171792
20
-233.60742365976935
30
0
10
454.47246569242503
20
-232.12138587395361
30
0
10
459.34920071725867
20
-238.23202210597481
30
0
10
465.07548004834996
20
-236.87636848353497
30
0
10
470.24281207612603
20
-239.56185917184254
30
0
10
469.18406843122659
20
-246.00082615382598
30
0
10
471.67778440973518
20
-250.31444580865247
30
0
10
472.96426418735973
20
-256.34105284925926
30
0
10
479.91109245029634
20
-253.79072644572324
30
0
10
479.71260886888416
20
-260.93861060941953
30
0
10
480.80130991505911
20
-266.60897259603331
30
0
10
488.37979057927612
20
-266.97024117433534
30
0
10
493.15435538774261
20
-272.50317847303387
30
0
10
501.10735122926553
20
-272.43690865838812
30
0
10
503.05827341720993
20
-278.1718460551113
30
0
10
504.35330874170967
20
-283.05381128116272
30
0
10
506.65628980091952
20
-287.57454092026069
30
0
10
505.85554379145088
20
-293.88735199667514
30
0
10
512.11170947702738
20
-294.99045702335013
30
0
10
515.25954041364639
20
-299.10392621401627
30
0
10
521.35966883922481
20
-298.05701683331387
30
0
10
526.6318702795063
20
-298.86415557036139
30
0
10
530.41442585891218
20
-302.45128587835717
30
0
10
532.33426704763656
20
-307.6162670613636
30
0
10
539.90675746356033
20
-305.4055270612289
30
0
10
538.69457470467307
20
-299.41524915455119
30
0
10
534.68848441236116
20
-295.89409789028917
30
0
10
530.18508997943036
20
-293.21570368300036
30
0
10
528.5511739793385
20
-287.10285538047196
30
0
10
522.83996526143949
20
-287.29070053447043
30
0
10
518.71090110907846
20
-284.08744242534345
30
0
10
512.18081108712465
20
-283.417854857912
30
0
10
512.44953964620083
20
-276.06841424850364
30
0
10
509.42191435300526
20
-270.61885381928971
30
0
10
510.5494330645638
20
-261.47213993733124
30
0
10
501.2344860465837
20
-263.4470738289412
30
0
10
502.03906524186993
20
-253.34070401013747
30
0
10
500.3757908965863
20
-246.7197695748676
30
0
10
495.04545370618825
20
-245.17115867685123
30
0
10
493.21300899407538
20
-242.93297742066807
30
0
10
496.69344851700856
20
-238.40502145018405
30
0
10
489.70113386288853
20
-238.06757048028629
30
0
10
490.46636983307928
20
-231.58885837508709
30
0
10
487.85411600214792
20
-225.28746957536282
30
0
10
489.0808265999359
20
-217.37274962039913
30
0
10
485.09029463391744
20
-211.82774793675679
30
0
10
480.64263878623535
20
-209.97891156458738
30
0
10
479.25999847857014
20
-203.86058728973842
30
0
10
477.54265551081295
20
-200.54916037041821
30
0
10
473.022472252618
20
-201.05703623846236
30
0
10
472.30361539713721
20
-196.92189547542694
30
0
10
470.64780401453072
20
-193.42161922610427
30
0
10
469.39066348025563
20
-187.25819817325035
30
0
10
460.31514035989869
20
-188.96017054888941
30
0
10
457.35734130866086
20
-178.60718514824657
30
0
10
455.70762627471538
20
-170.84900133536138
30
0
10
455.2449274716173
20
-163.30989784550408
30
0
10
450.29008538450501
20
-160.8194732777271
30
0
10
444.72180179927898
20
-157.49040614937437
30
0
10
447.92431662167519
20
-152.82750929357061
30
0
10
453.90282897248431
20
-152.73976549594889
30
0
10
459.28446292503764
20
-151.55565999141575
30
0
10
461.31671074844286
20
-146.2697867361278
30
0
10
465.31522172847787
20
-142.80574506100353
30
0
10
470.36143918000738
20
-140.52169830942336
30
0
10
470.31017291790101
20
-132.37158372338178
30
0
10
471.02240770195743
20
-124.47762320869887
30
0
10
472.08265414587436
20
-113.63704142893698
30
0
10
467.78712697253837
20
-104.08407293670973
30
0
10
464.78483858272199
20
-94.123509879654407
30
0
10
464.70952582911661
20
-83.457268049288274
30
0
10
461.67954480107778
20
-73.157540237222619
30
0
10
463.30230898511729
20
-62.846900370086701
30
0
10
465.90830781396005
20
-52.782837761863632
30
0
10
469.91048415842016
20
-43.489732547413681
30
0
10
471.73495059920242
20
-33.293056645145377
30
0
10
480.02611344806905
20
-34.752763308825607
30
0
10
484.28514278556906
20
-31.550316574667097
30
0
10
483.84051771854649
20
-25.628778244791675
30
0
10
488.14488666941571
20
-22.080495871277481
30
0
10
493.01608090341693
20
-20.280318201860123
30
0
10
491.77537410230485
20
-15.218716814984436
30
0
10
492.82258004637271
20
-11.115964188835401
30
0
10
488.53806893486365
20
-10.053908468154093
30
0
10
488.21706399115897
20
-9.4328896564723372
30
0
10
491.83141611600485
20
-5.9792658360355855
30
0
10
487.46480393353215
20
-1.9344702818885129
30
0
10
485.88433234698607
20
4.2907491019388893
30
0
10
485.23571429044915
20
13.474026475501354
30
0
10
484.41089230242738
20
23.867205391442056
30
0
10
483.52903287780271
20
34.453214280374539
30
0
10
485.35186936645943
20
44.941257499293634
30
0
10
483.52234190125944
20
55.192065833578781
30
0
10
484.23667810061886
20
64.753761424123908
30
0
10
480.90855930935925
20
70.106739973261071
30
0
10
472.60144491479883
20
71.098450963099523
30
0
10
471.53995797056109
20
80.672245262402555
30
0
10
466.70669837696465
20
88.402310883831802
30
0
10
465.72249349770766
20
94.726429662979143
30
0
10
465.88249643511352
20
102.56190636496473
30
0
10
459.93302906134971
20
99.400973934377646
30
0
10
456.48185471757131
20
105.56442682732202
30
0
10
449.80614844517515
20
102.46064521524501
30
0
10
448.832697684403
20
109.48098758857428
30
0
10
447.18090557093291
20
114.16381661088883
30
0
10
446.25857496933213
20
120.47692756270118
30
0
10
446.86124528552466
20
129.77533201822251
30
0
10
451.94364269679727
20
138.97214796052739
30
0
10
449.20312503309538
20
153.44076211370196
30
0
10
449.25947195233897
20
170.75409543612415
30
0
10
448.77575348452723
20
186.77075301413512
30
0
10
450.58793472904176
20
197.13271685624235
30
0
10
450.2099874589689
20
201.76138829348392
30
0
10
450.78578362518778
20
205.1417691272492
30
0
10
455.06233825033115
20
206.08722979964594
30
0
10
453.41553052637659
20
211.07566384833436
30
0
10
456.82601671265678
20
215.26441905098903
30
0
10
458.45080686233007
20
220.24147384338335
30
0
10
458.9084164589064
20
224.63294314544584
30
0
10
459.50376689599057
20
228.58409513083313
30
0
10
464.40737770172223
20
227.28619963904316
30
0
10
465.08396397064877
20
231.58142029071459
30
0
10
466.95299192034986
20
238.28937405364877
30
0
10
466.40935988955232
20
247.77509140195249
30
0
10
475.30940783115904
20
246.37840541294867
30
0
10
473.08469254807625
20
256.37563532554958
30
0
10
477.30387297847471
20
263.18153359407353
30
0
10
476.60614544419082
20
272.88816295364063
30
0
10
479.26025721205758
20
278.89694018585595
30
0
10
485.51219503679221
20
282.42510929464845
30
0
10
484.81389558001115
20
292.8507588002538
30
0
10
487.6517007771314
20
300.38635316061152
30
0
10
489.8405984133563
20
307.69472771587567
30
0
10
498.45754352258211
20
306.79812751383213
30
0
10
500.31070032425771
20
315.00602482272024
30
0
10
499.40217182772381
20
323.13177653042681
30
0
10
505.38071403155158
20
323.89537230815347
30
0
10
510.83358190990845
20
325.03101534669105
30
0
10
512.18041077042835
20
331.28515423626186
30
0
10
517.96989933414318
20
332.44966708461214
30
0
10
523.03889777041991
20
326.75757327272009
30
0
10
532.78774602401359
20
329.52544256068938
30
0
10
541.80360542221354
20
323.56342535247194
30
0
10
550.85079309270691
20
316.66003281168503
30
0
10
562.3634613985912
20
322.1159331974111
30
0
10
560.2061684569527
20
333.94756303132937
30
0
10
561.01587162833584
20
342.04182139864992
30
0
10
558.93113842982007
20
349.52932022309665
30
0
10
551.5718319085488
20
351.54770355053813
30
0
10
549.1386932023205
20
361.0164273528402
30
0
10
555.03973606438672
20
365.73136397201142
30
0
10
561.33109971983242
20
364.80479364401282
30
0
10
563.0975336602902
20
371.29542130241447
30
0
10
571.7145098563692
20
367.06734120871101
30
0
10
570.42199765447617
20
374.02643773082929
30
0
10
575.5135881841743
20
373.12549745620692
30
0
10
576.87316494294737
20
376.39169147384723
30
0
10
579.61758745297277
20
380.09739127740886
30
0
10
585.28282483710655
20
383.70430309694342
30
0
10
593.93065384630461
20
383.53633964192289
30
0
10
604.7430878481855
20
384.99399766081319
30
0
10
603.52483897002469
20
392.69974274750382
30
0
10
607.81153833391409
20
394.63017570653733
30
0
10
606.16808006366432
20
398.12379768634395
30
0
10
610.34645123733401
20
400.59851309707074
30
0
10
614.90668188023096
20
396.75261938953645
30
0
10
615.43212613239984
20
401.00205186578739
30
0
10
620.36288308144299
20
400.12884184832615
30
0
10
626.13692399361355
20
400.63069451142007
30
0
10
627.11635530534659
20
406.48526603827702
30
0
10
634.02239354951132
20
404.2458631063032
30
0
10
638.72732452245498
20
406.92221763965102
30
0
10
639.22976302309644
20
412.75816257232373
30
0
10
641.3588079060379
20
416.97568368760199
30
0
10
645.42449096489941
20
422.23297531970479
30
0
10
657.33635270736249
20
422.0995928921086
30
0
10
654.72864883574459
20
434.32452080199494
30
0
10
659.16931205446315
20
438.23790137849193
30
0
10
662.71773089577539
20
444.39438223571869
30
0
10
670.5179738581586
20
445.46111885806368
30
0
10
677.826970755704
20
444.86783433707132
30
0
10
682.18478311376759
20
447.83931090387853
30
0
10
686.24486516090599
20
451.00039922600388
30
0
10
693.60400273342577
20
451.26919301311375
30
0
10
700.42816555574916
20
452.28975404047515
30
0
10
704.97750994902867
20
458.13760941720193
30
0
10
712.63002424428453
20
457.28563126302419
30
0
10
720.22313646819896
20
462.3951480404462
30
0
10
730.05482961794212
20
465.24416396137451
30
0
10
739.8972291432342
20
467.80557782218534
30
0
10
751.63779024185203
20
464.47758056767589
30
0
10
758.08736495010191
20
474.75157469381685
30
0
10
769.43823629330097
20
474.34779642653905
30
0
10
775.24708928556379
20
481.57972870135433
30
0
10
780.34833238680653
20
484.43731661987295
30
0
10
786.38301155268209
20
483.92244131343023
30
0
10
789.75522383909652
20
488.20865469095736
30
0
10
791.95556004581249
20
491.65285136102597
30
0
10
796.31091606445921
20
491.21532924598921
30
0
10
795.86953874288736
20
495.89129941151828
30
0
10
792.26898134302246
20
499.45931701794933
30
0
10
797.62620709463135
20
494.54155861706857
30
0
10
797.97943244326677
20
499.05861784859673
30
0
10
804.8075638327748
20
501.14558078906975
30
0
10
812.53846098423674
20
497.91228776140457
30
0
10
823.48089433118366
20
499.93126535108274
30
0
10
831.76152411375028
20
502.84660999408402
30
0
10
837.95128742330792
20
505.49564322147671
30
0
10
844.52559620375439
20
505.45811194410908
30
0
10
851.80826649934602
20
506.62401632995306
30
0
10
857.02787271030525
20
501.20951587902346
30
0
10
862.56419911164335
20
501.54458973324409
30
0
10
868.1238412953619
20
501.75936636473239
30
0
10
873.44781045616628
20
497.14160681981787
30
0
10
875.99268073419171
20
490.90711086592125
30
0
10
877.227944854101
20
482.82063173606963
30
0
10
885.07704520319817
20
482.01363368611453
30
0
10
889.90972864299806
20
476.88636975148853
30
0
10
897.19781285990189
20
474.86996977670833
30
0
10
899.64043214386709
20
467.56943665267499
30
0
10
901.67091061991982
20
459.43396734057319
30
0
10
908.03019825667798
20
451.87521134477311
30
0
10
915.45378516366304
20
451.9251518082234
30
0
10
918.86060633647514
20
447.34805300351115
30
0
10
922.85327875310657
20
443.93258315480102
30
0
10
925.57739034295025
20
441.24830146000221
30
0
10
928.75329099255282
20
438.3159085759192
30
0
10
931.65058708401614
20
440.98163375792745
30
0
10
936.36472867473117
20
439.97757427683075
30
0
10
940.53981456283213
20
436.52772164290104
30
0
10
945.86092799655444
20
436.65213049950569
30
0
10
950.85883262704601
20
434.16720628712937
30
0
10
957.8751745785064
20
436.66137241102558
30
0
10
964.6114963275013
20
436.48410456009486
30
0
10
972.08772598154974
20
437.72619511598242
30
0
10
977.48476952842088
20
432.00752089566015
30
0
10
984.61727743583026
20
433.81054031346594
30
0
10
992.17469683246645
20
432.13873530573323
30
0
10
996.02001059669476
20
436.05892365442514
30
0
10
1001.9771035443217
20
433.69057752320003
30
0
10
1006.5930078845763
20
436.21272557569421
30
0
10
1011.6332600154317
20
437.75171302275498
30
0
10
1013.5484778383126
20
443.05193821946443
30
0
10
1019.5730366968052
20
442.41319434142957
30
0
10
1024.3734058401274
20
445.08433173105169
30
0
10
1029.2942412146847
20
444.10124254437551
30
0
10
1036.4148831883324
20
445.6411038799647
30
0
10
1042.4197099736598
20
441.89697307126335
30
0
10
1047.0222570315298
20
436.06348329476128
30
0
10
1046.4654256816284
20
430.77048240352258
30
0
10
1046.4052624493588
20
424.72571405921082
30
0
10
1055.4533720197978
20
425.83225688011498
30
0
10
1061.3747333683173
20
425.97011583615648
30
0
10
1069.2254737170958
20
424.55323571330678
30
0
10
1071.4899627806285
20
429.72469155189202
30
0
10
1070.2766726111238
20
436.28006893357986
30
0
10
1075.1335627871308
20
436.90042264258989
30
0
10
1078.996657867604
20
437.07635760175106
30
0
10
1080.650175845527
20
431.75490487861452
30
0
10
1082.8671321827062
20
437.08914011094271
30
0
10
1083.3381281274276
20
441.92852059985466
30
0
10
1085.1977722424558
20
446.44396248908731
30
0
10
1091.5521240874443
20
446.80270705934629
30
0
10
1091.7310642302705
20
453.51281842496007
30
0
10
1096.0715851333687
20
455.74623473514322
30
0
10
1101.6879704175528
20
460.72169202673939
30
0
10
1110.9343280060525
20
459.7774131961695
30
0
10
1121.3149452111431
20
461.40535500958771
30
0
10
1131.6564084188519
20
462.56928265375905
30
0
10
1139.4172589465823
20
470.86729722931727
30
0
10
1148.4992140387508
20
466.85941758171509
30
0
10
1156.024708669526
20
469.83489795485207
30
0
10
1159.3166261856643
20
464.65835281541138
30
0
10
1164.8989521389426
20
465.26460997561674
30
0
10
1170.3151191880679
20
461.17581205405116
30
0
10
1178.9964416898574
20
459.48415755694714
30
0
10
1189.4199163827279
20
458.58350302395047
30
0
10
1198.1631352383313
20
457.98933925218478
30
0
10
1205.0360839457976
20
456.70524810007703
30
0
10
1210.7930435730054
20
459.00854946351694
30
0
10
1213.7331359035959
20
456.48148105407955
30
0
10
1216.0253056181416
20
452.73371052587316
30
0
10
1220.2204419332952
20
454.2872496634576
30
0
10
1222.2090074800612
20
449.74298824104903
30
0
10
1228.9584209056402
20
449.78271762540703
30
0
10
1237.637964494239
20
448.9672470628434
30
0
10
1248.1742313259174
20
448.42185266912685
30
0
10
1258.3051544313421
20
446.18099845518361
30
0
10
1266.8751850746935
20
445.62430995188993
30
0
10
1274.4514784570501
20
447.24780551964869
30
0
10
1279.3572185696089
20
441.01195750942554
30
0
10
1289.1065447340306
20
443.14745148103242
30
0
10
1298.5532822402029
20
438.99785001177798
30
0
10
1309.0590112785999
20
437.68331441437726
30
0
10
1317.4291383945388
20
434.51785257668166
30
0
10
1321.5104748909173
20
428.24582067913519
30
0
10
1326.1910161152218
20
426.80847725376373
30
0
10
1331.0055048882527
20
423.78688887185342
30
0
10
1336.1469779539402
20
425.12043240144209
30
0
10
1340.1042684051765
20
421.4975880206751
30
0
10
1347.3706385812775
20
420.92936096043718
30
0
10
1350.0021083069914
20
413.47225783584122
30
0
10
1354.7759770982759
20
408.40804277139796
30
0
10
1355.3567275714568
20
402.85718868614197
30
0
10
1360.5701713732387
20
399.99129145467043
30
0
10
1360.619618489799
20
394.1561762717941
30
0
10
1364.2680816290433
20
390.12620941436745
30
0
10
1362.8986445017226
20
383.59541405565403
30
0
10
1369.357152899398
20
381.8284227641501
30
0
10
1368.8769560792321
20
373.69871093129746
30
0
10
1367.7781086693619
20
365.65948619074157
30
0
10
1368.1023347604296
20
354.65922864639731
30
0
10
1370.7062042895461
20
346.79775930862297
30
0
10
1371.7603988330438
20
338.80153010358526
30
0
10
1378.3646338436617
20
336.44210586670465
30
0
10
1385.5669352279474
20
336.0296703723709
30
0
10
1391.9156062997774
20
332.59518024089965
30
0
10
1395.6682295310488
20
325.48203949172
30
0
10
1408.3460689159247
20
330.97161361380086
30
0
10
1406.8235987853377
20
317.301184149584
30
0
10
1413.9508951953203
20
314.36909345611519
30
0
10
1414.5755912661566
20
306.41361397568403
30
0
10
1424.1197524115796
20
302.52765075008438
30
0
10
1428.5073330699072
20
292.78810095714789
30
0
10
1428.3275394748343
20
281.98871654129709
30
0
10
1429.5348234398739
20
271.63489442218531
30
0
10
1430.8448365926904
20
262.73205729482839
30
0
10
1432.5652922814243
20
256.2514669834062
30
0
10
1437.9522872356342
20
253.48669724579679
30
0
10
1436.5460649329918
20
247.38104201380906
30
0
10
1440.1237879702237
20
237.56031168159035
30
0
10
1440.0277471534434
20
221.11678138035472
30
0
10
1440.9843489687844
20
205.93990833324153
30
0
10
1440.9226972879746
20
194.70136044036099
30
0
10
1445.7127970873032
20
189.36495254756807
30
0
10
1447.0935348099106
20
176.92373052860972
30
0
10
1448.0044407812716
20
159.63606094585177
30
0
10
1447.5072140132349
20
138.75013404418655
30
0
10
1447.8716405240061
20
116.83685162824455
30
0
10
1460.9822545801831
20
99.578348441806114
30
0
10
1463.7566362436542
20
81.664390724698592
30
0
10
1461.6272752856175
20
69.267518815560706
30
0
10
1459.7403729205403
20
62.789201735141553
30
0
10
1459.6662091707599
20
54.587712054027207
30
0
10
1448.0706196156962
20
57.560398738851504
30
0
10
1448.4625889299668
20
49.189687630693641
30
0
10
1447.3061142402209
20
42.574371188857334
30
0
10
1448.5318511101093
20
33.769743079865357
30
0
10
1448.0342497779975
20
22.57201809642627
30
0
10
1454.0465461555036
20
16.282292816938927
30
0
10
1460.0705989576797
20
11.930840606094485
30
0
10
1459.6251099934052
20
4.0084896587362602
30
0
10
1460.7072521129016
20
-4.245414415469889
30
0
10
1460.2755438030904
20
-18.448691782671574
30
0
10
1458.5099216155454
20
-32.664680004876011
30
0
10
1459.786074511678
20
-46.207006839205569
30
0
10
1460.6473787789685
20
-58.240157124728469
30
0
10
1450.1144359882569
20
-63.474342107540679
30
0
10
1448.193876708481
20
-74.519584332471837
30
0
10
1447.8946573126136
20
-83.117538460383969
30
0
10
1443.4433840890958
20
-89.351591000552943
30
0
10
1437.2656868173417
20
-89.738109290026642
30
0
10
1436.0724567339219
20
-95.629780710467159
30
0
10
1430.8336376319573
20
-100.25017298989609
30
0
10
1429.7090587163075
20
-109.75013776886
30
0
10
1424.0813652220038
20
-118.20413692622417
30
0
10
1416.1743170261886
20
-130.28456549171267
30
0
10
1417.3829293550182
20
-145.08080318574949
30
0
10
1418.9446518583225
20
-157.26281792413204
30
0
10
1418.4711876990584
20
-164.24794150266098
30
0
10
1417.4924689309548
20
-169.63834001046467
30
0
10
1408.7559057063718
20
-170.76239793603165
30
0
10
1416.1256701966124
20
-176.07083815830524
30
0
10
1410.3384390871611
20
-180.41486808841051
30
0
10
1404.7811874984111
20
-179.86779419609948
30
0
10
1402.2064754270937
20
-185.60596110169706
30
0
10
1394.6134625017798
20
-186.73473920769885
30
0
10
1390.1562979408995
20
-194.49443305440758
30
0
10
1376.7786864689629
20
-193.80751801094377
30
0
10
1375.2011503118019
20
-204.20446554211412
30
0
10
1369.8234163955792
20
-208.51413246026451
30
0
10
1364.4681969668268
20
-208.72079985628343
30
0
10
1358.5145588210817
20
-208.93958341400258
30
0
10
1357.0868393210333
20
-214.38291963453486
30
0
10
1355.2872145339084
20
-219.43507562757759
30
0
10
1347.65510636779
20
-220.67646632286846
30
0
10
1348.2216700172453
20
-229.9274493879393
30
0
10
1342.6469558285949
20
-234.45565681226472
30
0
10
1342.1594334145793
20
-241.93765294125797
30
0
10
1341.1686896658002
20
-250.30320062379354
30
0
10
1339.2226316140641
20
-261.11696802937712
30
0
10
1335.4305798669698
20
-268.11181554526098
30
0
10
1333.8861448864172
20
-275.58609716126466
30
0
10
1329.2466135733648
20
-274.33233152697431
30
0
10
1327.9916163434568
20
-278.15309480678815
30
0
10
1327.2529861801845
20
-282.20346685220471
30
0
10
1324.2719654234456
20
-285.11759826026798
30
0
10
1324.8746824309505
20
-289.64596204952392
30
0
10
1322.5297445413557
20
-290.4454818217601
30
0
10
1319.0194199630591
20
-289.6544992490937
30
0
10
1318.5307115767089
20
-293.91085079613305
30
0
10
1316.2941722215919
20
-297.75098215716872
30
0
10
1312.1244507659267
20
-300.11580807037774
30
0
10
1305.5735684094645
20
-300.45558779013129
30
0
10
1305.1687018718944
20
-306.38763383927113
30
0
10
1303.2452173067006
20
-310.80916065877693
30
0
10
1302.4398557519207
20
-316.29598515986959
30
0
10
1297.8826422215091
20
-315.55899718499398
30
0
10
1296.3345150434168
20
-319.0051205761896
30
0
10
1290.3878738490707
20
-321.25944836758043
30
0
10
1288.7003026880143
20
-329.55363119417393
30
0
10
1281.3101721215673
20
-331.2911684198005
30
0
10
1277.6726805927624
20
-334.39954996030821
30
0
10
1277.6161864413823
20
-340.47037588828709
30
0
10
1272.9684776279082
20
-343.43639203679163
30
0
10
1268.911768858401
20
-345.7821131595781
30
0
10
1264.7684933262301
20
-352.54113809756518
30
0
10
1255.3280982832621
20
-348.64614919472046
30
0
10
1254.1537575824113
20
-358.8855540388945
30
0
10
1247.2368115479562
20
-355.94270694806426
30
0
10
1244.777427590345
20
-362.11311242195075
30
0
10
1237.4940755790835
20
-362.76517928046695
30
0
10
1232.9655999534507
20
-368.91357527720686
30
0
10
1226.0896007128481
20
-369.87942767042296
30
0
10
1221.9101769064871
20
-373.63389923785826
30
0
10
1215.764804647888
20
-371.9949300685272
30
0
10
1212.790278394129
20
-376.82381020746271
30
0
10
1209.9321255447583
20
-380.58790943260254
30
0
10
1204.8212195455721
20
-385.66846523778008
30
0
10
1205.2768508423696
20
-396.28069401308483
30
0
10
1194.1576702047125
20
-399.57302463839721
30
0
10
1184.173051852981
20
-405.17542550118469
30
0
10
1190.208407298938
20
-417.45114756533815
30
0
10
1199.7762648899293
20
-412.7380716956983
30
0
10
1207.0265764461171
20
-411.21782693115927
30
0
10
1209.7479854572293
20
-414.02215139529545
30
0
10
1211.4244079589846
20
-414.65923309326195
30
0
0
SPLINE
5
102
100
AcDbEntity
8
0
100
AcDbSpline
70
2
71
3
72
118
73
114
74
0
42
0.000000001
43
0.0000000001
44
0.0000000001
40
0
40
0
40
0
40
0
40
0.70196742683791624
40
1.4039348536758325
40
1.7549185670947907
40
2.1059022805137486
40
2.4568859939327066
40
2.807869707351665
40
3.5098371341895813
40
4.2118045610274972
40
5.6157394147033299
40
6.3177068415412467
40
7.0196742683791626
40
8.4236091220549945
40
9.1255765488929104
40
9.4765602623118674
40
9.8275439757308263
40
10.529511402568744
40
11.23147882940666
40
11.933446256244576
40
12.635413683082493
40
13.337381109920409
40
13.688364823339366
40
14.039348536758325
40
14.741315963596241
40
15.092299677015198
40
15.443283390434157
40
16.145250817272071
40
16.847218244109989
40
17.549185670947907
40
18.251153097785821
40
19.655087951461653
40
21.059022805137488
40
22.46295765881332
40
23.164925085651234
40
23.866892512489152
40
25.270827366164987
40
26.674762219840819
40
27.376729646678733
40
28.078697073516651
40
28.429680786935609
40
28.780664500354568
40
29.482631927192482
40
30.886566780868314
40
32.290501634544142
40
33.694436488219978
40
35.098371341895813
40
35.800338768733724
40
36.151322482152679
40
36.502306195571641
40
36.853289908990604
40
37.204273622409559
40
37.90624104924747
40
39.310175902923305
40
40.012143329761223
40
40.71411075659914
40
41.065094470018096
40
41.416078183437058
40
42.118045610274976
40
42.820013037112894
40
43.521980463950811
40
44.223947890788722
40
44.925915317626639
40
45.627882744464557
40
45.978866457883512
40
46.329850171302468
40
47.031817598140385
40
47.733785024978303
40
48.435752451816221
40
49.137719878654138
40
49.839687305492056
40
50.541654732329974
40
50.892638445748929
40
51.243622159167892
40
51.945589586005809
40
52.64755701284372
40
53.349524439681637
40
54.051491866519555
40
54.753459293357466
40
55.104443006776421
40
55.455426720195383
40
56.157394147033301
40
57.561329000709136
40
58.263296427547047
40
58.614280140966002
40
58.965263854384965
40
59.667231281222882
40
60.369198708060793
40
61.773133561736628
40
63.177068415412457
40
63.879035842250374
40
64.581003269088285
40
65.98493812276412
40
67.388872976439956
40
70.196742683791626
40
73.004612391143283
40
75.812482098494939
40
77.216416952170775
40
78.62035180584661
40
80.024286659522446
40
81.428221513198281
40
82.130188940036192
40
82.832156366874116
40
83.534123793712041
40
84.236091220549952
40
84.938058647387862
40
85.640026074225787
40
86.341993501063712
40
87.043960927901622
40
88.447895781577444
40
89.149863208415354
40
89.500846921834324
40
89.851830635253279
40
89.851830635253279
40
89.851830635253279
40
89.851830635253279
10
954.92439270019543
20
493.89530181884777
30
0
10
956.83174804040095
20
493.07455816635331
30
0
10
962.1054086049088
20
493.54853783635656
30
0
10
967.69241378921504
20
492.7027559148417
30
0
10
972.52146884909644
20
493.82273839375392
30
0
10
975.71439081510846
20
491.10117896366819
30
0
10
978.49892605074797
20
494.95036077968189
30
0
10
983.5737618307179
20
493.49991879496542
30
0
10
989.1898815589667
20
495.31881368463183
30
0
10
998.61292544999151
20
493.41167025084087
30
0
10
1007.7487527595555
20
497.15097320319126
30
0
10
1016.65304608885
20
493.72968363300492
30
0
10
1025.6732540057164
20
491.84875328137684
30
0
10
1035.1180563905825
20
490.1756806830424
30
0
10
1042.8153847003737
20
492.5608446415535
30
0
10
1047.0400467754193
20
494.6335149339746
30
0
10
1046.8439005700309
20
500.28470810025101
30
0
10
1055.4406775596092
20
497.70354114382121
30
0
10
1060.4737495589886
20
502.8186409214407
30
0
10
1065.8785680679719
20
506.99230406141794
30
0
10
1073.3703075251026
20
507.05134146773509
30
0
10
1077.9297048209337
20
511.47585415085956
30
0
10
1076.5495890817651
20
516.57874588414893
30
0
10
1080.4968625683566
20
520.00812162922307
30
0
10
1080.4300960957908
20
525.35213515500845
30
0
10
1084.9551845087735
20
527.70728110473112
30
0
10
1085.8943499705758
20
532.70011237524795
30
0
10
1091.8895074337272
20
535.56641790151571
30
0
10
1093.5250226261228
20
542.73621970055922
30
0
10
1094.6816735370644
20
549.88338932812121
30
0
10
1101.0758362639219
20
556.33080937493378
30
0
10
1100.2628186712936
20
569.57392708382088
30
0
10
1104.9929489467058
20
582.12928769640723
30
0
10
1114.6424407900845
20
590.65619616766548
30
0
10
1114.7190585279591
20
600.3699430211135
30
0
10
1118.6610503605284
20
609.00631070733061
30
0
10
1118.1617763574554
20
620.9262195060187
30
0
10
1122.6810789261147
20
632.10270209253906
30
0
10
1131.1663011515629
20
637.86082417217006
30
0
10
1129.2105590919064
20
644.99443150725153
30
0
10
1135.1039980845512
20
647.09093068938728
30
0
10
1131.8499892914042
20
652.24871690217583
30
0
10
1130.2201216908286
20
659.42903621898438
30
0
10
1122.3042245817667
20
669.33720453574438
30
0
10
1121.0310375323984
20
683.49220467404382
30
0
10
1115.5249119612529
20
695.73361780706591
30
0
10
1115.0875099547195
20
710.20246040011114
30
0
10
1105.6467433675105
20
711.30254837295161
30
0
10
1104.7731809459251
20
717.54905689317798
30
0
10
1101.9233592215803
20
718.52907847337917
30
0
10
1098.2221786586283
20
719.22323621745568
30
0
10
1096.1868930003905
20
723.83881005091803
30
0
10
1090.1186643131173
20
729.34445148635837
30
0
10
1078.0003520587902
20
725.38820665722619
30
0
10
1073.5411721106575
20
733.76158887094425
30
0
10
1068.7941103369308
20
738.62520677889097
30
0
10
1063.92257488019
20
735.87415219647585
30
0
10
1059.907805457485
20
739.15176042792905
30
0
10
1054.7897770301583
20
741.15548389981302
30
0
10
1046.9413105335545
20
739.49852195110884
30
0
10
1042.4751600138979
20
745.48080230805056
30
0
10
1035.2114502894356
20
746.86901217060245
30
0
10
1032.356170803748
20
754.98201209359127
30
0
10
1025.5072579797147
20
753.80135250638989
30
0
10
1021.484372334731
20
755.99046812302072
30
0
10
1016.3906581149574
20
752.43634826317873
30
0
10
1013.6374534142478
20
761.60111536277623
30
0
10
1005.6777028459626
20
756.7917491090783
30
0
10
999.14118994375917
20
758.08047336539164
30
0
10
991.41248216660665
20
757.70283433004249
30
0
10
987.33347171740297
20
763.80078170878221
30
0
10
982.45001825355735
20
767.34444730955079
30
0
10
977.04438212325363
20
766.71111759669759
30
0
10
975.07610240831639
20
772.16885104454059
30
0
10
967.73918569808279
20
770.68182813862018
30
0
10
961.9324459560894
20
768.49112275023356
30
0
10
954.26986301493707
20
770.43903391143783
30
0
10
948.18644541014055
20
767.28762300394976
30
0
10
941.82589705852365
20
768.68892030970289
30
0
10
938.27593190825326
20
764.8980580425191
30
0
10
933.05924456592322
20
765.20420393151676
30
0
10
928.03666869226822
20
759.7974419054774
30
0
10
917.54893015026119
20
756.98798585687643
30
0
10
916.85365195784925
20
748.28761347660486
30
0
10
915.25322281888759
20
743.36342981487394
30
0
10
909.75776065304115
20
743.19555656771104
30
0
10
906.35435472472273
20
738.2553590940995
30
0
10
901.41977698766323
20
730.88831133671283
30
0
10
898.16120702637807
20
719.43707435092028
30
0
10
888.27141229028052
20
713.06119211625219
30
0
10
878.24440131565711
20
710.54721890428482
30
0
10
876.42943972437649
20
700.65256055867098
30
0
10
873.23876699319817
20
689.72285895941718
30
0
10
872.68475459159674
20
670.82228820279897
30
0
10
871.28159198839126
20
647.68429295981969
30
0
10
869.9353919025541
20
619.55618614421053
30
0
10
871.39981529641364
20
596.26485626621434
30
0
10
873.80192676991692
20
577.76134425586872
30
0
10
876.85938027826512
20
564.19929975006255
30
0
10
879.2743585678661
20
549.86953245483403
30
0
10
891.50284938862455
20
544.90211635231378
30
0
10
898.71353334933644
20
540.41094546522561
30
0
10
903.09550023197812
20
534.84510988749139
30
0
10
906.16374411506979
20
527.35700176890282
30
0
10
912.91536571813504
20
526.26062470767783
30
0
10
919.48827387236315
20
523.1600366093636
30
0
10
920.98155455681581
20
514.44214599651173
30
0
10
928.72208465461722
20
515.08835006205743
30
0
10
937.48794204109288
20
511.30986449578825
30
0
10
943.71422504318264
20
504.68501930686966
30
0
10
951.74006535753369
20
500.6689370276863
30
0
10
952.42809716091142
20
495.65528404133744
30
0
10
953.97071503009272
20
494.305673645095
30
0
10
954.92439270019543
20
493.89530181884777
30
0
0
SPLINE
5
103
100
AcDbEntity
8
0
100
AcDbSpline
70
2
71
3
72
33
73
29
74
0
42
0.000000001
43
0.0000000001
44
0.0000000001
40
0
40
0
40
0
40
0
40
0.54192355427464056
40
0.81288533141196084
40
1.0838471085492811
40
1.6257706628239217
40
2.1676942170985622
40
2.7096177713732028
40
3.2515413256478434
40
3.7934648799224839
40
4.3353884341971245
40
4.8773119884717655
40
5.4192355427464056
40
6.5030826512956867
40
7.5869297598449679
40
8.128853314119608
40
8.670776868394249
40
9.21270042266889
40
9.754623976943531
40
10.29654753121817
40
10.838471085492811
40
11.922318194042091
40
12.464241748316732
40
13.006165302591373
40
13.548088856866014
40
14.090012411140656
40
15.173859519689936
40
17.341553736788498
40
17.341553736788498
40
17.341553736788498
40
17.341553736788498
10
950.42442321777344
20
110.93717575073242
30
0
10
951.86540735734047
20
109.13889429625937
30
0
10
954.368639924332
20
106.44483551835266
30
0
10
956.02841239561235
20
111.83791786765296
30
0
10
959.59372715262339
20
108.16320111205596
30
0
10
964.06920830141462
20
110.01786702324256
30
0
10
969.63503033374445
20
109.99324128904378
30
0
10
973.77006680295733
20
113.49592756414233
30
0
10
979.93693442073049
20
113.27060991609986
30
0
10
981.77827269866998
20
119.57029541238732
30
0
10
989.07755433351258
20
118.49393261354874
30
0
10
989.33040582687818
20
125.22031839346026
30
0
10
993.39101127569279
20
130.86929649375261
30
0
10
992.02243726724475
20
140.71149769837976
30
0
10
992.26558810420829
20
149.16952396501125
30
0
10
992.12438580819196
20
157.10860539123905
30
0
10
987.90832516515604
20
160.23085900262484
30
0
10
981.51007580830833
20
160.1584727234827
30
0
10
979.87252649235552
20
166.03211670187193
30
0
10
972.78987350558953
20
167.82936744398825
30
0
10
971.12645909976766
20
159.6979495286227
30
0
10
968.77548281482007
20
152.4277216973118
30
0
10
960.81373736380431
20
151.51558032691796
30
0
10
957.21834996504072
20
147.56151784836086
30
0
10
957.39300778374798
20
141.58759276833661
30
0
10
951.83408909981949
20
136.92078269707221
30
0
10
941.48268354436345
20
128.97380475630976
30
0
10
944.66048665950552
20
118.13030156862467
30
0
10
950.42442321777344
20
110.93717575073242
30
0
0
SPLINE
5
104
100
AcDbEntity
8
0
100
AcDbSpline
70
2
71
3
72
46
73
42
74
0
42
0.000000001
43
0.0000000001
44
0.0000000001
40
0
40
0
40
0
40
0
40
1.6785552744264911
40
2.5178329116397364
40
3.3571105488529822
40
4.196388186066228
40
5.0356658232794729
40
5.4553046418860962
40
5.8749434604927186
40
6.2945822790993411
40
6.7142210977059644
40
7.1338599163125878
40
7.5534987349192102
40
7.9731375535258326
40
8.392776372132456
40
8.8124151907390775
40
9.2320540093457009
40
10.071331646558946
40
10.910609283772192
40
11.330248102378814
40
11.749886920985437
40
12.169525739592061
40
12.589164558198682
40
13.428442195411929
40
14.267719832625176
40
15.10699746983842
40
15.946275107051665
40
16.785552744264912
40
17.624830381478155
40
18.464108018691402
40
19.303385655904648
40
20.142663293117891
40
21.821218567544385
40
22.660496204757628
40
23.499773841970875
40
23.9194126605775
40
24.339051479184121
40
25.178329116397364
40
26.017606753610611
40
26.437245572217236
40
26.856884390823858
40
26.856884390823858
40
26.856884390823858
40
26.856884390823858
10
1022.4243927001953
20
25.599520206451416
30
0
10
1027.7649715830566
20
24.21319829653676
30
0
10
1036.1226422851614
20
25.449219024458433
30
0
10
1046.9170999723572
20
31.687491184038482
30
0
10
1040.7130745105062
20
40.71925646218267
30
0
10
1035.8239536645945
20
47.112607215356874
30
0
10
1036.6567196529272
20
53.99413567442484
30
0
10
1037.8638574907404
20
60.726148039574539
30
0
10
1043.6070708433479
20
59.07041495233004
30
0
10
1044.3921075928092
20
64.962657243310218
30
0
10
1050.5683613621086
20
62.654737084917102
30
0
10
1051.0593870914986
20
67.774490788607466
30
0
10
1054.4548611481603
20
70.16492822579842
30
0
10
1059.9624000442257
20
69.676774658672002
30
0
10
1058.5079312218229
20
74.666987478234844
30
0
10
1059.801386459209
20
79.684601023383138
30
0
10
1054.511626720885
20
82.107102307636026
30
0
10
1050.7906692347606
20
88.370046660243077
30
0
10
1049.1968432040924
20
94.240934245033387
30
0
10
1050.7781438650388
20
101.89043329691322
30
0
10
1047.4007055745458
20
102.8162621800915
30
0
10
1043.1579034108515
20
104.21618252244839
30
0
10
1038.9836693628151
20
107.92053907344682
30
0
10
1033.347701576381
20
112.29924806406092
30
0
10
1023.5052732646074
20
111.91967268673841
30
0
10
1019.969123158388
20
103.57128145707694
30
0
10
1021.2944693627512
20
94.659738830830292
30
0
10
1014.3028512180222
20
88.988391056168737
30
0
10
1006.7070474077598
20
88.086389095324904
30
0
10
998.14283008218263
20
85.971182175400429
30
0
10
994.27448161924656
20
78.212092146778943
30
0
10
995.90840471066929
20
66.758620911960634
30
0
10
994.24141898386711
20
55.971110761431717
30
0
10
993.61038361475516
20
44.453735340653481
30
0
10
994.17362715997228
20
38.238685128516956
30
0
10
994.3614065195635
20
31.196653649627283
30
0
10
1001.0240567973069
20
32.158320870044015
30
0
10
1008.2249634756781
20
33.109892286475571
30
0
10
1012.3343360993558
20
26.039517517861302
30
0
10
1018.4478587362004
20
26.915553604953544
30
0
10
1021.08924797948
20
25.94610068393008
30
0
10
1022.4243927001953
20
25.599520206451416
30
0
0
SPLINE
5
105
100
AcDbEntity
8
0
100
AcDbSpline
70
2
71
3
72
22
73
18
74
0
42
0.000000001
43
0.0000000001
44
0.0000000001
40
0
40
0
40
0
40
0
40
0.57356815138600159
40
1.1471363027720032
40
2.2942726055440064
40
2.8678407569300077
40
3.4414089083160095
40
4.0149770597020114
40
4.5885452110880127
40
5.1621133624740141
40
5.7356815138600155
40
6.3092496652460177
40
6.8828178166320191
40
7.4563859680180204
40
8.0299541194040227
40
8.6035222707900232
40
9.1770904221760254
40
9.1770904221760254
40
9.1770904221760254
40
9.1770904221760254
10
999.92439270019543
20
0.57864751666784442
30
0
10
1001.5032207404466
20
-0.1879025539609977
30
0
10
1005.9763849687304
20
1.3000554572815373
30
0
10
1011.5635779217441
20
5.4949618927777868
30
0
10
1010.1937164547453
20
15.033478198942781
30
0
10
1007.9054720496696
20
21.179982855115341
30
0
10
1001.8463391726522
20
23.354541928693621
30
0
10
999.7465779584702
20
29.081383110491608
30
0
10
993.47178731003953
20
28.377481153452209
30
0
10
989.3482370168324
20
24.120339636172101
30
0
10
982.92935579556899
20
23.887702022585739
30
0
10
980.12851078174981
20
19.18058108479816
30
0
10
980.71701625490789
20
12.093225274785997
30
0
10
987.33640302250762
20
11.110561406028602
30
0
10
989.28145546377539
20
4.1997577934861567
30
0
10
996.50341672722311
20
5.899355881054583
30
0
10
998.34556465994422
20
1.3451975872966861
30
0
10
999.92439270019543
20
0.57864751666784442
30
0
0
SPLINE
5
106
100
AcDbEntity
8
0
100
AcDbSpline
70
2
71
3
72
28
73
24
74
0
42
0.000000001
43
0.0000000001
44
0.0000000001
40
0
40
0
40
0
40
0
40
0.45685778300086566
40
0.91371556600173132
40
1.3705733490025969
40
1.8274311320034626
40
2.7411466980051937
40
3.6548622640069253
40
4.5685778300086568
40
5.4822933960103875
40
6.396008962012119
40
7.3097245280138505
40
8.223440094015583
40
9.1371556600173136
40
10.964586792020775
40
11.42144457502164
40
11.878302358022506
40
12.106731249522939
40
12.335160141023373
40
12.792017924024238
40
13.70573349002597
40
14.162591273026836
40
14.619449056027701
40
14.619449056027701
40
14.619449056027701
40
14.619449056027701
10
41.424388885498047
20
385.62255859375
30
0
10
42.343756843546707
20
385.29587255299145
30
0
10
45.911843916822576
20
388.52656606159474
30
0
10
48.344812751328128
20
384.57207709843601
30
0
10
52.016981093066327
20
381.52749929371646
30
0
10
58.820797095151249
20
382.51584163274509
30
0
10
65.66056320522415
20
383.8049141986948
30
0
10
74.570351218051371
20
385.89119148365961
30
0
10
81.236862371456766
20
392.48009234375434
30
0
10
92.337914483855826
20
392.11995086720367
30
0
10
93.751490837901116
20
402.51944001210359
30
0
10
92.841463920155377
20
412.72003361275836
30
0
10
81.799051482543632
20
412.40017638325958
30
0
10
70.339093536800419
20
414.12506370515666
30
0
10
59.155422037280815
20
411.89771098163908
30
0
10
50.967866796193803
20
408.98330320744026
30
0
10
46.055005400003068
20
409.56521149040606
30
0
10
45.638028241280708
20
406.26783877780133
30
0
10
40.86658992179153
20
407.93397934809354
30
0
10
40.01338391360531
20
401.33027186256197
30
0
10
38.506299649527818
20
395.77337934211209
30
0
10
40.395636168530629
20
390.48668230614589
30
0
10
40.505020927449387
20
385.94924463450855
30
0
10
41.424388885498047
20
385.62255859375
30
0
0
SPLINE
5
107
100
AcDbEntity
8
0
100
AcDbSpline
70
2
71
3
72
32
73
28
74
0
42
0.000000001
43
0.0000000001
44
0.0000000001
40
0
40
0
40
0
40
0
40
0.23223465492483167
40
0.46446930984966334
40
0.69670396477449503
40
0.92893861969932667
40
1.3934079295489901
40
1.8578772393986533
40
2.3223465492483166
40
2.7868158590979801
40
3.7157544787973067
40
4.6446930984966333
40
5.5736317181959603
40
6.5025703378952873
40
7.4315089575946134
40
8.3604475772939395
40
8.824916887143603
40
9.2893861969932665
40
9.75385550684293
40
10.218324816692594
40
11.147263436391921
40
12.076202056091248
40
13.005140675790575
40
13.469609985640238
40
13.934079295489902
40
14.398548605339563
40
14.863017915189227
40
14.863017915189227
40
14.863017915189227
40
14.863017915189227
10
261.92438125610352
20
125.28762817382812
30
0
10
262.18199958083585
20
125.59277636501693
30
0
10
262.55313190110098
20
127.84923162873505
30
0
10
265.01193280125824
20
128.30217918069161
30
0
10
267.39311142982581
20
129.2886928291158
30
0
10
264.58216314631682
20
132.16946063451496
30
0
10
258.95432132568436
20
131.62705516054558
30
0
10
261.29257142246519
20
136.61617024071387
30
0
10
258.36495604337307
20
140.66913333457276
30
0
10
259.12028267531417
20
147.93746740045972
30
0
10
249.59432732608286
20
149.19032988411504
30
0
10
245.33284762703133
20
159.04377205921583
30
0
10
233.6637194822311
20
156.75782816665571
30
0
10
230.13022736095633
20
168.01907085725875
30
0
10
219.77624615977166
20
166.79011171251125
30
0
10
214.40327771552322
20
161.63916317228288
30
0
10
216.42062070248016
20
156.38627766902277
30
0
10
219.18913747669887
20
152.7082693930117
30
0
10
220.31160681867243
20
147.6007265720483
30
0
10
227.51607306366904
20
146.58604280108921
30
0
10
228.20398913177604
20
136.8406962692747
30
0
10
238.86389985737765
20
135.85337496157132
30
0
10
245.84995679872168
20
133.21642048535725
30
0
10
251.83055774341727
20
133.56211960986886
30
0
10
256.15541446579675
20
132.26629285302332
30
0
10
259.80225399091057
20
130.04137455205682
30
0
10
261.40914460663873
20
124.67733179145043
30
0
10
261.92438125610352
20
125.28762817382812
30
0
0
SPLINE
5
108
100
AcDbEntity
8
0
100
AcDbSpline
70
2
71
3
72
29
73
25
74
0
42
0.000000001
43
0.0000000001
44
0.0000000001
40
0
40
0
40
0
40
0
40
0.82610508086293166
40
1.2391576212943975
40
1.6522101617258633
40
2.0652627021573293
40
2.4783152425887951
40
3.3044203234517266
40
4.1305254043146586
40
4.9566304851775902
40
5.3696830256090564
40
5.7827355660405217
40
6.1957881064719871
40
6.6088406469034533
40
7.4349457277663848
40
8.2610508086293173
40
9.087155889492248
40
9.9132609703551804
40
10.326313510786647
40
10.739366051218113
40
11.565471132081043
40
12.391576212943974
40
12.804628753375439
40
13.217681293806907
40
13.217681293806907
40
13.217681293806907
40
13.217681293806907
10
1089.9243927001951
20
-450.8344268798827
30
0
10
1091.9404436242221
20
-451.13018208975342
30
0
10
1096.2938805997615
20
-447.17398186781901
30
0
10
1100.9885122799787
20
-446.86973314539699
30
0
10
1104.2281277144937
20
-443.76029244385211
30
0
10
1108.7383554328999
20
-444.66331588398424
30
0
10
1113.1238628559734
20
-440.64546912147716
30
0
10
1120.4710913318415
20
-440.45474137932609
30
0
10
1127.3351092815933
20
-437.03271015054008
30
0
10
1136.0345226229545
20
-435.43507287561113
30
0
10
1135.3191539183306
20
-429.86167781069037
30
0
10
1136.0643097959314
20
-424.34055372175249
30
0
10
1130.8522728124597
20
-424.94270111962021
30
0
10
1126.0430828070564
20
-422.76663748254828
30
0
10
1118.8384888308369
20
-423.12586733365106
30
0
10
1110.7734125706274
20
-421.94218174778229
30
0
10
1102.7578853211414
20
-419.51060770047127
30
0
10
1096.5130422208938
20
-423.00532529446974
30
0
10
1094.0639927245618
20
-427.90366635531285
30
0
10
1088.0973003993629
20
-429.46646679467267
30
0
10
1089.1525574927023
20
-437.76532639302957
30
0
10
1083.4857195024424
20
-444.11002009925073
30
0
10
1087.3434365106543
20
-448.92418305282979
30
0
10
1088.9163672381817
20
-450.68654927494731
30
0
10
1089.9243927001951
20
-450.8344268798827
30
0
0
SPLINE
5
109
100
AcDbEntity
8
0
100
AcDbSpline
70
2
71
3
72
32
73
28
74
0
42
0.000000001
43
0.0000000001
44
0.0000000001
40
0
40
0
40
0
40
0
40
0.85248638338992
40
1.2787295750848799
40
1.70497276677984
40
2.1312159584748001
40
2.5574591501697599
40
3.40994553355968
40
3.8361887252546403
40
4.2624319169496001
40
4.6886751086445599
40
5.1149183003395198
40
5.5411614920344796
40
5.7542830878819595
40
5.9674046837294394
40
6.3936478754243993
40
6.81989106711936
40
7.2461342588143207
40
7.6723774505092805
40
8.5248638338992002
40
9.3773502172891199
40
10.22983660067904
40
10.656079792373999
40
11.082322984068959
40
11.934809367458879
40
12.787295750848799
40
13.63978213423872
40
13.63978213423872
40
13.63978213423872
40
13.63978213423872
10
1391.4244079589844
20
493.6834716796875
30
0
10
1394.1582145534785
20
492.8278541433383
30
0
10
1398.4445156767504
20
493.36108007936036
30
0
10
1404.3541107813032
20
493.60535585297413
30
0
10
1407.8946513824303
20
493.83950266800935
30
0
10
1411.6447029586755
20
496.67288955653635
30
0
10
1417.0165508629814
20
494.55711947982053
30
0
10
1423.9142830652904
20
491.89113307858742
30
0
10
1426.8899974595035
20
496.0315990671296
30
0
10
1428.2447716547481
20
499.61669876377817
30
0
10
1429.6073676268065
20
503.83942477642449
30
0
10
1426.3825061853811
20
507.50310264911263
30
0
10
1421.7755089681534
20
506.16463088915674
30
0
10
1421.4454925502841
20
509.92467377340779
30
0
10
1426.4773331967808
20
508.27213804155519
30
0
10
1424.7615373391873
20
512.65728309094038
30
0
10
1421.0332486200487
20
515.08826934779904
30
0
10
1416.6694246881545
20
514.43041365308443
30
0
10
1413.9770172626827
20
508.09789020873927
30
0
10
1408.8649847288334
20
519.07482168989804
30
0
10
1400.5342733045759
20
518.99304391659632
30
0
10
1393.0930183661837
20
520.01137518736482
30
0
10
1388.4618220833045
20
516.83026165762544
30
0
10
1381.7118479370429
20
515.81751802539134
30
0
10
1384.7851891495543
20
507.14637947105825
30
0
10
1383.4704431508771
20
498.6725272761297
30
0
10
1388.6906013644902
20
494.5390892160367
30
0
10
1391.4244079589844
20
493.6834716796875
30
0
0
SPLINE
5
110
100
AcDbEntity
8
0
100
AcDbSpline
70
2
71
3
72
24
73
20
74
0
42
0.000000001
43
0.0000000001
44
0.0000000001
40
0
40
0
40
0
40
0
40
0.64095371797676093
40
1.2819074359535219
40
2.5638148719070437
40
3.2047685898838045
40
3.8457223078605658
40
4.4866760258373262
40
5.1276297438140874
40
5.7685834617908487
40
6.0890603207792289
40
6.4095371797676091
40
6.7300140387559892
40
7.0504908977443703
40
7.6914446157211316
40
8.332398333697892
40
8.9733520516746523
40
9.6143057696514127
40
10.255259487628175
40
10.255259487628175
40
10.255259487628175
40
10.255259487628175
10
1512.9243469238279
20
533.5419464111327
30
0
10
1514.5521811623671
20
532.81728399709903
30
0
10
1519.5214994652915
20
535.39463504143237
30
0
10
1518.3786190719409
20
545.16141481775503
30
0
10
1520.7541640547831
20
553.34466910985475
30
0
10
1518.6016985775407
20
561.25011253648222
30
0
10
1519.0583439242062
20
569.39278116769071
30
0
10
1510.6465499001738
20
566.65789988450911
30
0
10
1505.5312946552692
20
565.12306237503697
30
0
10
1499.4952110094432
20
566.15300067465785
30
0
10
1495.3995216624439
20
564.67030400798285
30
0
10
1497.4029399510957
20
560.2494653967774
30
0
10
1493.4550205397913
20
558.78275002469525
30
0
10
1494.381316970175
20
554.41404139650729
30
0
10
1498.3138159981902
20
550.08610098202655
30
0
10
1497.4708266612047
20
542.45368470529104
30
0
10
1503.5896080022435
20
540.78954055027179
30
0
10
1509.7544940340549
20
539.74260952563384
30
0
10
1511.2965126852885
20
534.26660882516626
30
0
10
1512.9243469238279
20
533.5419464111327
30
0
0
ENDSEC
0
SECTION
2
OBJECTS
0
DICTIONARY
5
C
100
AcDbDictionary
3
ACAD_GROUP
350
D
3
ACAD_MLINESTYLE
350
17
0
DICTIONARY
5
D
100
AcDbDictionary
0
DICTIONARY
5
1A
330
C
100
AcDbDictionary
0
DICTIONARY
5
17
100
AcDbDictionary
0
ENDSEC
0
EOF
