0
SECTION
2
HEADER
9
$INSUNITS
70
4
9
$ACADVER
1
AC1014
9
$HANDSEED
5
FFFF
0
ENDSEC
0
SECTION
2
TABLES
0
TABLE
2
VPORT
5
8
100
AcDbSymbolTable
0
ENDTAB
0
TABLE
2
LTYPE
5
5
100
AcDbSymbolTable
0
LTYPE
5
14
100
AcDbSymbolTableRecord
100
AcDbLinetypeTableRecord
2
BYBLOCK
70
0
0
LTYPE
5
15
100
AcDbSymbolTableRecord
100
AcDbLinetypeTableRecord
2
BYLAYER
70
0
0
LTYPE
5
16
100
AcDbSymbolTableRecord
100
AcDbLinetypeTableRecord
2
DASHED
70
0
3
Dashed __ __ __ __ __ __ __ __ __ __ __ __ __ _
72
65
73
2
40
0.75
49
0.5
74
0
49
-0.25
74
0
0
ENDTAB
0
TABLE
2
LAYER
5
2
100
AcDbSymbolTable
70
2
0
LAYER
5
50
100
AcDbSymbolTableRecord
100
AcDbLayerTableRecord
2
0
70
0
62
7
6
CONTINUOUS
0
ENDTAB
0
TABLE
2
STYLE
5
3
100
AcDbSymbolTable
70
1
0
STYLE
5
11
100
AcDbSymbolTableRecord
100
AcDbTextStyleTableRecord
2
STANDARD
70
0
0
ENDTAB
0
TABLE
2
VIEW
5
6
100
AcDbSymbolTable
70
0
0
ENDTAB
0
TABLE
2
UCS
5
7
100
AcDbSymbolTable
70
0
0
ENDTAB
0
TABLE
2
APPID
5
9
100
AcDbSymbolTable
70
2
0
APPID
5
12
100
AcDbSymbolTableRecord
100
AcDbRegAppTableRecord
2
ACAD
70
0
0
ENDTAB
0
TABLE
2
DIMSTYLE
5
A
100
AcDbSymbolTable
70
1
0
ENDTAB
0
TABLE
2
BLOCK_RECORD
5
1
100
AcDbSymbolTable
70
1
0
BLOCK_RECORD
5
1F
100
AcDbSymbolTableRecord
100
AcDbBlockTableRecord
2
*MODEL_SPACE
0
BLOCK_RECORD
5
1B
100
AcDbSymbolTableRecord
100
AcDbBlockTableRecord
2
*PAPER_SPACE
0
ENDTAB
0
ENDSEC
0
SECTION
2
BLOCKS
0
BLOCK
5
20
100
AcDbEntity
100
AcDbBlockBegin
2
*MODEL_SPACE
0
ENDBLK
5
21
100
AcDbEntity
100
AcDbBlockEnd
0
BLOCK
5
1C
100
AcDbEntity
100
AcDbBlockBegin
2
*PAPER_SPACE
0
ENDBLK
5
1D
100
AcDbEntity
100
AcDbBlockEnd
0
ENDSEC
0
SECTION
2
ENTITIES
0
LWPOLYLINE
5
100
100
AcDbEntity
8
0
100
AcDbPolyline
90
4
70
1
43
0.0
10
1900
20
-800
10
0
20
-800
10
0
20
900
10
1900
20
900
0
SPLINE
5
101
100
AcDbEntity
8
0
100
AcDbSpline
70
2
71
3
72
1271
73
1267
74
0
42
0.000000001
43
0.0000000001
44
0.0000000001
40
0
40
0
40
0
40
0
40
0.81508939770656486
40
1.6301787954131297
40
2.4452681931196945
40
3.2603575908262594
40
3.6679022896795415
40
4.0754469885328239
40
4.4829916873861064
40
4.8905363862393889
40
5.7056257839459539
40
6.5207151816525188
40
6.9282598805058004
40
7.3358045793590829
40
7.7433492782123654
40
8.1508939770656479
40
8.5584386759189304
40
8.9659833747722129
40
9.7810727724787778
40
10.596162170185343
40
11.411251567891908
40
13.041430363305038
40
13.856519761011601
40
14.671609158718166
40
15.486698556424731
40
16.301787954131296
40
17.116877351837861
40
17.931966749544426
40
19.562145544957556
40
20.377234942664121
40
21.192324340370686
40
22.007413738077251
40
22.822503135783816
40
24.452681931196945
40
25.26777132890351
40
26.082860726610075
40
26.897950124316637
40
27.305494823169919
40
27.713039522023202
40
28.528128919729767
40
29.343218317436332
40
30.158307715142897
40
30.973397112849462
40
31.788486510556027
40
32.603575908262592
40
33.418665305969157
40
34.233754703675721
40
35.048844101382286
40
35.863933499088851
40
36.679022896795416
40
37.494112294501981
40
38.309201692208546
40
39.124291089915111
40
39.939380487621676
40
40.754469885328241
40
41.569559283034806
40
41.977103981888092
40
42.384648680741371
40
43.199738078447936
40
44.014827476154501
40
44.829916873861066
40
45.645006271567631
40
46.460095669274196
40
47.275185066980761
40
47.68272976583404
40
48.090274464687326
40
48.905363862393891
40
49.720453260100456
40
50.535542657807021
40
52.165721453220151
40
53.795900248633274
40
54.610989646339839
40
55.426079044046404
40
56.241168441752968
40
57.056257839459533
40
57.463802538312819
40
57.871347237166098
40
58.686436634872663
40
60.316615430285793
40
61.946794225698923
40
62.761883623405488
40
63.576973021112053
40
65.207151816525183
40
65.614696515378455
40
66.022241214231741
40
66.429785913085027
40
66.837330611938313
40
67.244875310791599
40
67.652420009644885
40
68.467509407351443
40
70.097688202764573
40
71.727866998177703
40
73.358045793590833
40
74.173135191297405
40
74.988224589003963
40
75.395769287857235
40
75.803313986710521
40
76.618403384417093
40
77.433492782123665
40
78.248582179830223
40
78.656126878683494
40
79.06367157753678
40
79.878760975243353
40
80.693850372949925
40
81.101395071803211
40
81.508939770656482
40
82.32402916836304
40
83.139118566069612
40
83.954207963776184
40
84.36175266262947
40
84.769297361482742
40
85.5843867591893
40
86.399476156895872
40
87.214565554602444
40
88.029654952309002
40
89.659833747722132
40
90.474923145428704
40
90.88246784428199
40
91.290012543135262
40
91.697557241988534
40
92.10510194084182
40
92.512646639695106
40
92.920191338548392
40
93.327736037401678
40
93.735280736254964
40
94.14282543510825
40
94.550370133961522
40
95.36545953166808
40
96.180548929374652
40
96.588093628227938
40
96.995638327081224
40
97.40318302593451
40
97.810727724787782
40
98.218272423641054
40
98.62581712249434
40
99.033361821347626
40
99.440906520200912
40
99.848451219054198
40
100.25599591790748
40
101.07108531561404
40
101.8861747133206
40
102.70126411102717
40
103.51635350873374
40
104.3314429064403
40
105.14653230414686
40
105.96162170185343
40
106.16539405128007
40
106.36916640070672
40
106.77671109955999
40
107.59180049726655
40
108.40688989497312
40
108.81443459382641
40
109.22197929267968
40
109.62952399153295
40
110.03706869038623
40
110.44461338923952
40
110.85215808809281
40
111.05593043751945
40
111.25970278694609
40
111.66724748579938
40
112.48233688350594
40
113.29742628121249
40
114.11251567891907
40
114.92760507662564
40
115.7426944743322
40
116.55778387203875
40
117.37287326974533
40
118.1879626674519
40
119.00305206515846
40
119.41059676401173
40
119.81814146286501
40
120.63323086057159
40
121.04077555942487
40
121.44832025827816
40
121.85586495713144
40
122.26340965598472
40
123.07849905369127
40
123.48604375254456
40
123.89358845139785
40
124.30113315025113
40
124.70867784910442
40
125.52376724681098
40
126.33885664451753
40
127.15394604222411
40
127.56149074107739
40
127.96903543993068
40
128.78412483763725
40
130.41430363305037
40
131.22939303075691
40
132.04448242846348
40
132.45202712731677
40
132.85957182617005
40
133.26711652502334
40
133.67466122387663
40
134.4897506215832
40
135.30484001928977
40
136.11992941699634
40
136.5274741158496
40
136.93501881470289
40
137.34256351355617
40
137.75010821240943
40
138.565197610116
40
139.38028700782257
40
140.19537640552915
40
141.01046580323572
40
141.82555520094229
40
143.45573399635541
40
144.27082339406195
40
145.08591279176852
40
145.90100218947509
40
146.30854688832838
40
146.71609158718167
40
147.12363628603495
40
147.53118098488824
40
148.34627038259481
40
149.16135978030138
40
149.97644917800793
40
150.79153857571447
40
151.60662797342104
40
152.01417267227433
40
152.42171737112761
40
153.23680676883419
40
153.64435146768747
40
154.05189616654076
40
154.86698556424733
40
155.6820749619539
40
156.49716435966045
40
157.31225375736699
40
158.12734315507356
40
158.53488785392685
40
158.94243255278013
40
159.34997725163342
40
159.75752195048671
40
160.57261134819328
40
161.38770074589985
40
161.79524544475314
40
162.20279014360642
40
162.61033484245968
40
163.01787954131296
40
163.83296893901951
40
164.64805833672608
40
165.05560303557937
40
165.46314773443265
40
166.27823713213922
40
167.0933265298458
40
167.90841592755237
40
168.72350532525894
40
169.1310500241122
40
169.53859472296548
40
169.94613942181877
40
170.35368412067203
40
171.1687735183786
40
171.98386291608517
40
172.79895231379174
40
173.61404171149832
40
174.0215864103516
40
174.42913110920489
40
174.83667580805817
40
175.24422050691146
40
176.059309904618
40
176.87439930232455
40
177.28194400117783
40
177.68948870003112
40
178.09703339888441
40
178.50457809773769
40
178.91212279659098
40
179.31966749544426
40
180.13475689315084
40
180.54230159200412
40
180.94984629085741
40
181.76493568856398
40
182.58002508627052
40
182.98756978512381
40
183.39511448397707
40
184.21020388168364
40
185.02529327939021
40
185.84038267709678
40
187.47056147250993
40
189.10074026792304
40
189.91582966562959
40
190.32337436448287
40
190.73091906333616
40
191.54600846104273
40
192.3610978587493
40
193.99127665416245
40
194.80636605186902
40
195.62145544957556
40
197.25163424498868
40
197.65917894384197
40
198.06672364269525
40
198.47426834154854
40
198.88181304040182
40
199.28935773925511
40
199.6969024381084
40
200.51199183581497
40
202.14217063122808
40
203.7723494266412
40
204.58743882434777
40
205.40252822205434
40
206.21761761976092
40
207.03270701746749
40
207.44025171632077
40
207.84779641517406
40
208.6628858128806
40
209.47797521058715
40
209.88551990944043
40
210.29306460829372
40
211.92324340370686
40
212.73833280141343
40
213.55342219911998
40
214.36851159682652
40
214.77605629567981
40
215.18360099453309
40
215.99869039223967
40
216.81377978994624
40
217.62886918765281
40
218.44395858535935
40
219.2590479830659
40
220.07413738077247
40
220.88922677847904
40
221.70431617618561
40
222.51940557389219
40
223.33449497159876
40
224.14958436930533
40
224.96467376701187
40
225.77976316471842
40
226.59485256242499
40
227.40994196013156
40
228.22503135783813
40
228.63257605669142
40
229.04012075554471
40
229.85521015325128
40
230.67029955095785
40
231.48538894866439
40
232.30047834637094
40
233.11556774407751
40
233.93065714178408
40
234.74574653949065
40
235.56083593719723
40
236.3759253349038
40
238.00610413031691
40
241.26646172114317
40
242.89664051655632
40
244.52681931196943
40
246.15699810738255
40
246.97208750508912
40
247.78717690279569
40
248.60226630050227
40
249.41735569820884
40
250.23244509591541
40
251.04753449362195
40
251.8626238913285
40
252.67771328903507
40
254.30789208444821
40
255.12298148215478
40
255.93807087986136
40
256.34561557871461
40
256.75316027756793
40
257.5682496752745
40
257.97579437412776
40
258.38333907298107
40
259.19842847068765
40
260.01351786839416
40
260.42106256724742
40
260.82860726610073
40
261.6436966638073
40
262.45878606151382
40
263.27387545922039
40
264.08896485692696
40
264.90405425463354
40
265.71914365234011
40
266.53423305004668
40
267.34932244775325
40
268.16441184545982
40
268.9795012431664
40
269.38704594201965
40
269.79459064087297
40
270.60968003857954
40
271.42476943628611
40
272.23985883399268
40
272.64740353284594
40
273.0549482316992
40
273.87003762940577
40
274.27758232825909
40
274.68512702711234
40
275.50021642481886
40
276.31530582252543
40
276.72285052137875
40
277.130395220232
40
277.94548461793858
40
278.76057401564515
40
279.16811871449841
40
279.57566341335172
40
279.98320811220503
40
280.39075281105829
40
281.20584220876486
40
282.02093160647144
40
283.65111040188458
40
284.46619979959115
40
285.28128919729772
40
285.68883389615098
40
286.09637859500424
40
286.5039232938575
40
286.91146799271081
40
287.72655739041738
40
288.5416467881239
40
289.35673618583047
40
290.17182558353704
40
290.98691498124361
40
291.80200437895019
40
292.20954907780344
40
292.61709377665676
40
293.43218317436333
40
294.2472725720699
40
295.06236196977648
40
295.87745136748305
40
296.69254076518962
40
297.50763016289619
40
298.32271956060276
40
299.13780895830928
40
299.95289835601585
40
300.76798775372242
40
301.17553245257568
40
301.58307715142894
40
302.39816654913551
40
303.21325594684208
40
304.02834534454865
40
304.43589004340197
40
304.84343474225523
40
305.6585241399618
40
306.47361353766837
40
306.88115823652163
40
307.28870293537494
40
307.69624763422826
40
308.10379233308151
40
308.91888173078809
40
309.73397112849466
40
310.14151582734792
40
310.54906052620123
40
311.3641499239078
40
312.17923932161432
40
312.99432871932089
40
313.80941811702746
40
314.21696281588072
40
314.62450751473398
40
315.03205221358724
40
315.43959691244055
40
316.25468631014712
40
316.66223100900038
40
317.06977570785369
40
317.88486510556027
40
318.69995450326684
40
319.51504390097341
40
320.33013329867998
40
321.14522269638655
40
322.7754014917997
40
323.18294619065296
40
323.59049088950627
40
323.99803558835958
40
324.40558028721284
40
325.22066968491936
40
326.03575908262593
40
326.8508484803325
40
327.66593787803902
40
329.29611667345216
40
330.11120607115873
40
330.51875077001205
40
330.92629546886531
40
331.74138486657188
40
332.55647426427845
40
332.96401896313171
40
333.37156366198502
40
334.18665305969159
40
335.00174245739817
40
335.81683185510474
40
336.63192125281131
40
337.44701065051788
40
338.2621000482244
40
338.66964474707765
40
339.07718944593097
40
339.89227884363754
40
340.70736824134406
40
341.11491294019731
40
341.52245763905063
40
341.93000233790394
40
342.3375470367572
40
343.15263643446377
40
343.96772583217034
40
344.3752705310236
40
344.78281522987692
40
345.59790462758349
40
346.41299402529006
40
347.22808342299663
40
348.04317282070321
40
348.45071751955652
40
348.85826221840978
40
349.67335161611635
40
350.48844101382292
40
351.30353041152944
40
352.11861980923601
40
352.93370920694258
40
353.34125390579584
40
353.7487986046491
40
354.56388800235567
40
355.37897740006224
40
355.7865220989155
40
356.19406679776881
40
356.60161149662213
40
357.00915619547538
40
357.82424559318196
40
358.63933499088853
40
359.04687968974179
40
359.4544243885951
40
359.86196908744841
40
360.26951378630167
40
360.67705848515493
40
361.08460318400824
40
361.89969258171482
40
362.71478197942139
40
363.1223266782747
40
363.52987137712796
40
364.34496077483448
40
364.75250547368773
40
365.16005017254105
40
365.97513957024762
40
366.79022896795414
40
367.19777366680739
40
367.60531836566071
40
368.42040776336728
40
369.23549716107385
40
370.05058655878042
40
370.865675956487
40
371.68076535419357
40
372.49585475190014
40
373.31094414960671
40
374.12603354731328
40
374.94112294501986
40
375.34866764387311
40
375.75621234272643
40
376.16375704157974
40
376.571301740433
40
377.38639113813952
40
377.79393583699277
40
378.20148053584609
40
379.01656993355266
40
379.83165933125917
40
380.23920403011243
40
380.64674872896575
40
381.05429342781906
40
381.46183812667232
40
381.86938282552558
40
382.27692752437889
40
383.09201692208546
40
383.49956162093872
40
383.90710631979204
40
384.31465101864535
40
384.72219571749861
40
385.12974041635186
40
385.53728511520518
40
385.94482981405849
40
386.35237451291175
40
387.16746391061832
40
387.57500860947164
40
387.9825533083249
40
388.79764270603147
40
389.61273210373804
40
390.0202768025913
40
390.42782150144455
40
391.24291089915113
40
392.0580002968577
40
392.87308969456421
40
393.28063439341747
40
393.68817909227079
40
394.50326848997736
40
394.91081318883062
40
395.31835788768393
40
396.1334472853905
40
396.94853668309707
40
397.1523090325237
40
397.35608138195039
40
397.76362608080365
40
398.1711707796569
40
398.57871547851022
40
399.39380487621679
40
401.02398367162994
40
401.43152837048319
40
401.83907306933651
40
402.65416246704308
40
403.46925186474959
40
404.28434126245617
40
405.09943066016274
40
405.91452005786925
40
406.72960945557583
40
407.5446988532824
40
408.35978825098897
40
408.76733294984228
40
409.17487764869554
40
409.5824223475488
40
409.98996704640211
40
410.39751174525543
40
410.80505644410869
40
411.21260114296194
40
411.41637349238863
40
411.62014584181526
40
412.43523523952183
40
413.2503246372284
40
414.06541403493497
40
415.69559283034812
40
416.51068222805463
40
416.91822692690789
40
417.32577162576121
40
417.73331632461452
40
418.14086102346778
40
418.95595042117429
40
419.77103981888087
40
420.17858451773418
40
420.58612921658744
40
420.9936739154407
40
421.40121861429401
40
422.21630801200058
40
422.42008036142721
40
422.62385271085384
40
423.03139740970715
40
423.43894210856047
40
423.84648680741373
40
424.25403150626698
40
424.6615762051203
40
425.47666560282687
40
426.29175500053344
40
427.10684439824001
40
427.51438909709327
40
427.92193379594659
40
428.73702319365316
40
429.55211259135967
40
430.36720198906625
40
431.18229138677282
40
431.99738078447933
40
432.8124701821859
40
433.62755957989248
40
434.03510427874573
40
434.44264897759905
40
434.85019367645236
40
435.25773837530562
40
435.66528307415888
40
436.07282777301219
40
436.88791717071877
40
437.70300656842534
40
438.51809596613191
40
439.33318536383848
40
439.7407300626918
40
440.14827476154505
40
440.96336415925163
40
441.7784535569582
40
442.59354295466471
40
443.40863235237128
40
444.22372175007786
40
444.63126644893111
40
445.03881114778437
40
445.85390054549094
40
446.26144524434426
40
446.66898994319752
40
447.48407934090409
40
448.29916873861066
40
449.11425813631723
40
449.9293475340238
40
450.74443693173038
40
451.55952632943695
40
452.37461572714352
40
452.78216042599684
40
453.18970512485009
40
454.00479452255667
40
454.41233922140998
40
454.81988392026324
40
455.22742861911649
40
455.63497331796975
40
456.04251801682301
40
456.45006271567632
40
457.2651521133829
40
458.08024151108941
40
458.89533090879598
40
459.71042030650256
40
460.52550970420913
40
460.93305440306244
40
461.3405991019157
40
461.74814380076896
40
462.15568849962227
40
462.56323319847559
40
462.97077789732884
40
464.60095669274199
40
465.00850139159525
40
465.41604609044856
40
465.82359078930187
40
466.23113548815513
40
467.0462248858617
40
467.86131428356828
40
468.67640368127479
40
469.49149307898136
40
470.30658247668794
40
471.12167187439445
40
471.52921657324771
40
471.93676127210102
40
472.7518506698076
40
473.15939536866085
40
473.56694006751417
40
473.97448476636748
40
474.38202946522074
40
474.789574164074
40
475.19711886292731
40
475.60466356178063
40
476.01220826063388
40
476.82729765834046
40
477.23484235719377
40
477.64238705604703
40
478.45747645375354
40
478.8650211526068
40
479.27256585146012
40
480.08765524916669
40
480.49519994801994
40
480.9027446468732
40
481.71783404457977
40
482.53292344228635
40
482.73669579171298
40
482.9404681411396
40
483.14424049056629
40
483.34801283999292
40
483.55178518941955
40
483.75555753884623
40
484.16310223769949
40
484.36687458712612
40
484.57064693655275
40
484.97819163540606
40
485.79328103311263
40
486.60837043081921
40
487.42345982852578
40
488.23854922623229
40
488.64609392508555
40
489.05363862393887
40
489.86872802164544
40
490.68381741935195
40
492.3139962147651
40
493.12908561247167
40
493.53663031132498
40
493.74040266075161
40
493.94417501017824
40
494.3517197090315
40
494.75926440788481
40
495.57435380559139
40
496.38944320329796
40
497.20453260100453
40
498.0196219987111
40
498.83471139641767
40
499.24225609527093
40
499.64980079412425
40
499.85357314355088
40
500.05734549297756
40
500.46489019183082
40
501.27997958953733
40
501.68752428839059
40
502.09506898724391
40
502.50261368609722
40
502.91015838495048
40
503.31770308380374
40
503.72524778265699
40
504.54033718036357
40
505.35542657807014
40
506.17051597577671
40
506.98560537348328
40
507.39315007233654
40
507.80069477118985
40
508.61578416889643
40
509.430873566603
40
510.24596296430957
40
511.06105236201614
40
511.46859706086946
40
511.87614175972271
40
512.69123115742923
40
513.50632055513586
40
515.136499350549
40
516.76667814596215
40
517.58176754366878
40
518.39685694137529
40
519.21194633908181
40
520.02703573678832
40
521.65721453220146
40
524.91757212302764
40
528.17792971385393
40
531.43828730468022
40
534.6986448955065
40
536.32882369091965
40
537.14391308862628
40
537.55145778747953
40
537.95900248633279
40
538.36654718518605
40
538.77409188403931
40
539.58918128174594
40
540.40427067945257
40
541.21936007715908
40
541.62690477601234
40
542.0344494748656
40
542.44199417371897
40
542.84953887257223
40
544.47971766798537
40
544.88726236683863
40
545.29480706569188
40
545.70235176454514
40
546.1098964633984
40
547.74007525881154
40
548.55516465651817
40
549.37025405422469
40
549.77779875307795
40
550.1853434519312
40
550.59288815078446
40
551.00043284963772
40
551.40797754849098
40
551.81552224734423
40
552.2230669461976
40
552.63061164505086
40
553.03815634390412
40
553.44570104275749
40
554.26079044046401
40
554.66833513931726
40
555.07587983817052
40
555.89096923587715
40
556.70605863358378
40
557.52114803129029
40
557.92869273014355
40
558.33623742899681
40
559.15132682670344
40
559.96641622441007
40
560.78150562211658
40
561.5965950198231
40
562.00413971867647
40
562.41168441752973
40
562.81922911638299
40
563.22677381523636
40
564.04186321294287
40
565.67204200835602
40
566.48713140606264
40
566.8946761049159
40
567.30222080376916
40
567.70976550262242
40
568.11731020147568
40
568.9323995991823
40
570.56257839459545
40
571.37766779230196
40
572.19275719000848
40
573.00784658771499
40
573.82293598542162
40
575.45311478083477
40
577.0832935762478
40
578.71347237166094
40
580.34365116707409
40
581.1587405647806
40
581.97382996248723
40
582.78891936019386
40
583.19646405904712
40
583.60400875790037
40
584.41909815560689
40
584.82664285446026
40
585.23418755331352
40
585.64173225216678
40
586.04927695102015
40
586.86436634872666
40
587.67945574643318
40
587.88322809585986
40
588.08700044528655
40
588.49454514413981
40
589.30963454184644
40
589.71717924069969
40
590.12472393955295
40
590.53226863840621
40
590.93981333725947
40
591.75490273496609
40
593.38508153037924
40
594.20017092808575
40
595.01526032579238
40
595.42280502464564
40
595.83034972349901
40
596.64543912120553
40
597.46052851891204
40
597.8680732177653
40
598.27561791661856
40
598.68316261547182
40
599.09070731432507
40
599.9057967120317
40
600.72088610973833
40
601.53597550744485
40
602.35106490515136
40
603.16615430285788
40
603.57369900171113
40
603.98124370056439
40
604.79633309827102
40
605.61142249597765
40
606.42651189368416
40
606.83405659253742
40
607.24160129139068
40
607.64914599024405
40
608.05669068909731
40
608.46423538795057
40
608.87178008680394
40
609.68686948451045
40
610.50195888221697
40
611.3170482799236
40
612.13213767763023
40
612.94722707533674
40
613.35477177419
40
613.76231647304326
40
614.16986117189663
40
614.57740587074989
40
614.98495056960314
40
615.39249526845651
40
615.80003996730977
40
616.20758466616303
40
616.61512936501629
40
617.02267406386954
40
617.43021876272292
40
617.83776346157617
40
618.24530816042943
40
618.6528528592828
40
618.85662520870937
40
619.06039755813606
40
619.46794225698932
40
620.28303165469583
40
621.09812105240246
40
621.91321045010909
40
622.72829984781561
40
624.35847864322864
40
625.17356804093515
40
625.98865743864178
40
626.80374683634841
40
627.21129153520167
40
627.61883623405492
40
627.8226085834815
40
628.02638093290818
40
628.43392563176144
40
629.24901502946796
40
629.65655972832121
40
630.06410442717447
40
630.8791938248811
40
631.69428322258773
40
632.10182792144099
40
632.50937262029424
40
633.32446201800076
40
633.73200671685413
40
634.13955141570739
40
634.95464081341402
40
635.76973021112053
40
636.17727490997379
40
636.58481960882705
40
636.99236430768042
40
637.39990900653368
40
638.2149984042403
40
638.62254310309356
40
639.03008780194682
40
639.43763250080008
40
639.84517719965334
40
640.66026659735996
40
641.47535599506659
40
642.29044539277311
40
643.10553479047962
40
643.92062418818625
40
644.73571358589288
40
645.5508029835994
40
645.95834768245265
40
646.36589238130591
40
646.77343708015928
40
647.18098177901254
40
647.99607117671917
40
648.81116057442568
40
649.6262499721322
40
650.44133936983872
40
651.25642876754523
40
652.07151816525186
40
653.701696960665
40
654.10924165951826
40
654.51678635837152
40
655.33187575607803
40
656.14696515378455
40
656.96205455149118
40
657.36959925034444
40
657.77714394919781
40
658.18468864805106
40
658.59223334690432
40
659.40732274461084
40
659.81486744346421
40
660.22241214231747
40
661.0375015400241
40
661.85259093773061
40
662.66768033543713
40
663.48276973314375
40
664.29785913085038
40
664.70540382970364
40
665.1129485285569
40
665.52049322741016
40
665.92803792626341
40
666.74312732397004
40
666.94689967339673
40
667.1506720228233
40
667.55821672167667
40
667.96576142052993
40
668.37330611938319
40
668.78085081823644
40
669.1883955170897
40
669.59594021594307
40
670.00348491479633
40
670.41102961364959
40
670.61480196307627
40
670.81857431250296
40
671.22611901135622
40
671.63366371020948
40
672.04120840906273
40
672.44875310791599
40
672.85629780676936
40
673.26384250562262
40
673.67138720447588
40
674.07893190332925
40
674.89402130103576
40
675.70911069874228
40
676.52420009644879
40
678.15437889186194
40
678.96946828956857
40
679.78455768727508
40
680.19210238612834
40
680.5996470849816
40
681.41473648268811
40
681.82228118154137
40
682.22982588039463
40
683.04491527810126
40
684.6750940735144
40
685.08263877236766
40
685.49018347122092
40
686.30527286892755
40
687.12036226663417
40
687.93545166434069
40
688.7505410620472
40
689.56563045975383
40
690.38071985746046
40
691.19580925516698
40
691.60335395402024
40
692.01089865287349
40
692.82598805058012
40
694.45616684599327
40
695.27125624369978
40
696.08634564140641
40
696.49389034025967
40
696.90143503911304
40
697.71652443681955
40
698.53161383452607
40
698.93915853337944
40
699.3467032322327
40
699.75424793108596
40
700.16179262993933
40
700.56933732879259
40
700.97688202764584
40
701.79197142535236
40
702.60706082305887
40
703.42215022076539
40
703.82969491961876
40
704.23723961847202
40
704.64478431732527
40
705.05232901617865
40
705.4598737150319
40
705.86741841388516
40
706.27496311273842
40
706.68250781159168
40
707.09005251044493
40
707.49759720929819
40
707.90514190815145
40
708.31268660700471
40
709.12777600471134
40
709.94286540241797
40
710.35041010127122
40
710.75795480012448
40
711.573044197831
40
712.38813359553762
40
713.20322299324425
40
713.61076769209751
40
714.01831239095077
40
714.42585708980403
40
714.83340178865728
40
715.64849118636391
40
716.46358058407054
40
716.8711252829238
40
717.27866998177706
40
717.68621468063031
40
718.09375937948357
40
718.9088487771902
40
720.53902757260335
40
720.9465722714566
40
721.35411697030986
40
722.16920636801649
40
722.98429576572312
40
723.39184046457638
40
723.79938516342963
40
724.61447456113615
40
725.42956395884278
40
725.83710865769604
40
726.24465335654941
40
726.65219805540266
40
727.05974275425592
40
727.87483215196244
40
728.28237685081569
40
728.68992154966895
40
729.09746624852221
40
729.50501094737547
40
730.3201003450821
40
730.72764504393535
40
731.13518974278873
40
731.54273444164198
40
731.95027914049524
40
732.3578238393485
40
732.76536853820176
40
733.58045793590827
40
733.98800263476153
40
734.39554733361479
40
735.21063673132142
40
736.02572612902804
40
736.4332708278813
40
736.84081552673456
40
737.24836022558782
40
737.65590492444107
40
738.4709943221477
40
739.28608371985433
40
740.10117311756085
40
740.91626251526736
40
741.73135191297399
40
742.13889661182725
40
742.54644131068062
40
743.36153070838714
40
743.76907540724039
40
744.17662010609365
40
744.99170950380028
40
745.39925420265354
40
745.80679890150691
40
746.21434360036017
40
746.62188829921342
40
747.43697769691994
40
748.25206709462657
40
749.0671564923332
40
749.88224589003971
40
750.69733528774623
40
751.51242468545286
40
752.32751408315949
40
752.73505878201274
40
753.142603480866
40
754.77278227627903
40
755.58787167398555
40
756.40296107169218
40
757.2180504693988
40
758.03313986710532
40
758.44068456595858
40
758.84822926481183
40
759.66331866251835
40
760.47840806022487
40
760.88595275907824
40
761.29349745793149
40
762.10858685563812
40
762.92367625334464
40
763.73876565105115
40
764.55385504875778
40
765.36894444646441
40
766.18403384417093
40
766.59157854302418
40
766.99912324187744
40
767.40666794073081
40
767.81421263958407
40
768.22175733843733
40
768.6293020372907
40
769.03684673614396
40
769.44439143499721
40
770.25948083270373
40
771.07457023041036
40
771.48211492926362
40
771.88965962811699
40
772.29720432697025
40
772.7047490258235
40
773.51983842353002
40
773.92738312238339
40
774.33492782123665
40
774.7424725200899
40
775.15001721894328
40
775.55756191779653
40
775.96510661664979
40
776.78019601435631
40
777.18774071320968
40
777.59528541206294
40
778.41037480976956
40
779.22546420747608
40
780.04055360518259
40
780.44809830403585
40
780.85564300288911
40
781.67073240059563
40
782.48582179830225
40
783.30091119600888
40
783.70845589486214
40
784.1160005937154
40
784.52354529256866
40
784.93108999142191
40
785.33863469027517
40
785.74617938912843
40
786.56126878683494
40
787.37635818454157
40
789.00653697995472
40
790.63671577536786
40
791.45180517307449
40
792.26689457078101
40
792.67443926963426
40
793.08198396848752
40
793.48952866734089
40
793.89707336619415
40
794.30461806504741
40
794.71216276390078
40
795.52725216160729
40
797.15743095702044
40
797.97252035472707
40
798.78760975243358
40
799.6026991501401
40
800.01024384899347
40
800.41778854784673
40
801.23287794555335
40
802.04796734325987
40
802.86305674096639
40
803.67814613867301
40
804.49323553637964
40
805.30832493408616
40
806.12341433179267
40
806.93850372949919
40
807.7535931272057
40
808.56868252491233
40
809.38377192261896
40
810.19886132032548
40
811.01395071803199
40
811.42149541688525
40
811.82904011573851
40
812.64412951344502
40
813.05167421229839
40
813.45921891115165
40
814.27430830885828
40
815.0893977065648
40
815.90448710427131
40
816.71957650197794
40
817.53466589968457
40
818.34975529739108
40
819.1648446950976
40
819.97993409280423
40
820.79502349051086
40
821.20256818936411
40
821.61011288821737
40
822.01765758707063
40
822.42520228592389
40
822.83274698477726
40
823.24029168363052
40
824.05538108133715
40
824.4629257801904
40
824.87047047904366
40
826.5006492744568
40
828.13082806986995
40
828.94591746757646
40
829.76100686528309
40
830.57609626298972
40
831.39118566069624
40
832.20627505840275
40
833.02136445610927
40
833.42890915496253
40
833.83645385381578
40
834.65154325152241
40
834.65154325152241
40
834.65154325152241
40
834.65154325152241
10
270.92439651489269
20
-181.14124298095709
30
0
10
273.28583351063509
20
-181.23905790058288
30
0
10
277.73164394957064
20
-177.00099793987877
30
0
10
285.52740944505734
20
-175.77001083757546
30
0
10
294.11242368000308
20
-174.26649963680933
30
0
10
297.86511690115776
20
-168.17875185197298
30
0
10
304.59067138293074
20
-168.60794227711241
30
0
10
304.22772784541661
20
-163.18485898413613
30
0
10
308.89049013424739
20
-161.97629291641385
30
0
10
311.7715521909326
20
-156.70869390631324
30
0
10
321.50923584215218
20
-161.45565399446662
30
0
10
322.35417530042901
20
-151.42550721115538
30
0
10
328.70020601774348
20
-151.81912457665695
30
0
10
331.79285063778087
20
-149.13017219441733
30
0
10
334.39051277283767
20
-145.8055882663721
30
0
10
339.15102898857498
20
-146.79015703240509
30
0
10
341.48481104991498
20
-142.44872108249868
30
0
10
347.51608271700212
20
-143.54790716225807
30
0
10
353.76034236755805
20
-142.00338081379837
30
0
10
362.7219183647095
20
-142.49419370325126
30
0
10
368.34365249544567
20
-131.87188077355924
30
0
10
381.51176124329817
20
-134.16785825130725
30
0
10
391.3040504977406
20
-132.34877573789299
30
0
10
398.95464766770289
20
-128.38436182902117
30
0
10
406.92522548022254
20
-130.21378727358478
30
0
10
414.70601396652961
20
-133.31852102631339
30
0
10
421.74611859430217
20
-131.53828197060352
30
0
10
432.8283669969212
20
-127.89740247015504
30
0
10
441.74154879767889
20
-135.38463488951751
30
0
10
453.74115899724552
20
-136.33591100116013
30
0
10
459.05756135631293
20
-129.620435233227
30
0
10
455.40049102891078
20
-121.06786657030158
30
0
10
462.69822712015855
20
-111.63776042261017
30
0
10
458.65299043760399
20
-100.0861735956818
30
0
10
457.38291403100726
20
-89.84236834142898
30
0
10
456.97503906949828
20
-80.534654480154288
30
0
10
450.91345966998233
20
-77.960937425055207
30
0
10
445.40722194486733
20
-75.192971196402638
30
0
10
447.09927949309349
20
-68.725571319061771
30
0
10
442.2681364948794
20
-63.61581633502518
30
0
10
441.1610633579013
20
-55.246090523488398
30
0
10
436.01544606716413
20
-49.906480685422927
30
0
10
426.98876739180406
20
-48.455576494908037
30
0
10
425.46370384936756
20
-39.171949088914005
30
0
10
417.01563947164937
20
-36.127801249411675
30
0
10
412.30009073730014
20
-29.232122575726503
30
0
10
413.01747690770276
20
-19.363767563831967
30
0
10
404.28258009604241
20
-16.937600754586228
30
0
10
402.70386285582248
20
-8.6490021321542017
30
0
10
398.09419343710454
20
0.38859020543010381
30
0
10
407.94852861942189
20
2.7507905254959852
30
0
10
412.29290021315109
20
-5.2583652293869809
30
0
10
418.80742869542956
20
-9.6234211313940001
30
0
10
425.44615102029798
20
-15.15286234868789
30
0
10
429.13768078654863
20
-21.559443547386149
30
0
10
432.49543453103223
20
-28.803707187604275
30
0
10
438.77146041858975
20
-26.798026819102198
30
0
10
440.5451488488643
20
-33.940343657126448
30
0
10
441.9332936733577
20
-39.57302351135958
30
0
10
446.98274252569433
20
-46.151783240787125
30
0
10
456.97548028383198
20
-44.909499830567313
30
0
10
460.0092650626334
20
-36.329665996161424
30
0
10
460.20106084806605
20
-29.005610516830526
30
0
10
458.20969519187929
20
-20.042959145954455
30
0
10
464.28536387254633
20
-18.783336079950217
30
0
10
466.59026717913252
20
-13.568502561083534
30
0
10
470.63816036979256
20
-8.5404903236325875
30
0
10
469.91162118485659
20
0.20623633627940591
30
0
10
471.25631015433089
20
10.781976635099085
30
0
10
470.20389282447951
20
24.412251183364301
30
0
10
469.9731300706344
20
38.016446562336732
30
0
10
469.24084858585172
20
48.747400490209507
30
0
10
470.41154133380212
20
57.299254798655248
30
0
10
463.84509674511764
20
64.049528247935456
30
0
10
457.2887498885097
20
63.248188501272516
30
0
10
450.855219161587
20
62.084541612297812
30
0
10
448.66182207624325
20
67.682563129432566
30
0
10
447.08093542479401
20
77.048067436931532
30
0
10
450.08335124917471
20
89.287232654848751
30
0
10
450.05391473730731
20
106.37931013927826
30
0
10
435.93472756026074
20
105.41446023245749
30
0
10
435.03812689742551
20
118.46323712790266
30
0
10
435.41937442239612
20
126.72963664356296
30
0
10
436.37009762800739
20
135.32454535203325
30
0
10
438.42255035157007
20
138.59194904625511
30
0
10
443.784977882097
20
138.50822308378639
30
0
10
437.72948510125752
20
143.35954205276727
30
0
10
441.87219446784025
20
146.98184057715008
30
0
10
438.9535828102114
20
152.2064204775846
30
0
10
436.26511786004727
20
161.08966206995402
30
0
10
437.68128674731145
20
174.95374379968865
30
0
10
436.84280448141834
20
191.52957734783604
30
0
10
447.54763381618648
20
201.83124035291439
30
0
10
446.74435868731365
20
213.36511214394721
30
0
10
449.90649956122024
20
219.13664078887166
30
0
10
449.88157002184158
20
225.45506685256282
30
0
10
454.5004195274953
20
227.4900581218071
30
0
10
456.76833095367016
20
234.67006347724163
30
0
10
459.10709962975284
20
241.81363276840278
30
0
10
458.81300736876739
20
250.26024894152039
30
0
10
465.41180308479761
20
251.03528026865746
30
0
10
465.13302070465056
20
257.78310989121979
30
0
10
466.90507122236909
20
263.89864636746898
30
0
10
468.85945741072317
20
269.94789609900192
30
0
10
467.81749482150934
20
276.74862954594511
30
0
10
475.52623170525834
20
276.74790576867764
30
0
10
473.59353416486806
20
285.73948930704341
30
0
10
477.61078836198914
20
292.34256032728024
30
0
10
475.87791705036608
20
300.69662282590861
30
0
10
482.04145239370069
20
302.94009510262674
30
0
10
483.30470878081371
20
308.26181611645183
30
0
10
485.31615857368195
20
314.40615184617792
30
0
10
484.65526296389163
20
324.29297395846908
30
0
10
495.13051134285774
20
325.72722548544385
30
0
10
494.14569715361716
20
338.44750738035424
30
0
10
508.90051051144451
20
340.28699571618165
30
0
10
511.92856531065604
20
349.40305587973103
30
0
10
514.41520936536074
20
354.35447347804643
30
0
10
519.43519860870663
20
354.15328500247341
30
0
10
519.83527662686697
20
359.24165734233452
30
0
10
523.1529579655039
20
361.59039203734778
30
0
10
527.95849433786225
20
361.75173463200707
30
0
10
529.37360095769134
20
366.16507276720881
30
0
10
529.54523272463484
20
370.41557335502807
30
0
10
534.26762195540573
20
372.21725539271205
30
0
10
531.24083943108099
20
377.69547500830703
30
0
10
539.52009542178064
20
377.64948623281214
30
0
10
541.2322409465969
20
384.72861085885381
30
0
10
549.8883002322184
20
381.89362567254847
30
0
10
554.88346218235654
20
381.80465644331287
30
0
10
559.86871352630465
20
380.34755606720137
30
0
10
559.77907469353045
20
386.18981637118162
30
0
10
564.60023041015779
20
386.89578227335903
30
0
10
568.22902900816234
20
388.16751662950946
30
0
10
572.82060458555452
20
385.13900855023542
30
0
10
574.40539009398196
20
390.49965830702519
30
0
10
577.59593675917608
20
392.26690461220306
30
0
10
582.38393493443607
20
392.79020989982945
30
0
10
583.34219924845922
20
397.98734609058789
30
0
10
584.10205708873548
20
404.47762210494966
30
0
10
581.07135866749456
20
411.90328227049343
30
0
10
581.4113256167833
20
421.37755543766951
30
0
10
590.05362723280564
20
423.92812543700785
30
0
10
597.98531632043125
20
423.16836337316403
30
0
10
606.12298009818926
20
426.10089916144346
30
0
10
609.39656042360969
20
430.70651802884709
30
0
10
615.52795656112312
20
427.39022393640744
30
0
10
612.42923521947978
20
426.36924105166605
30
0
10
615.40102425795214
20
420.83355864918076
30
0
10
613.14409080134601
20
415.38479818863919
30
0
10
617.57553105533862
20
405.16860356115677
30
0
10
619.91007217727099
20
412.14575715011222
30
0
10
625.46723502160842
20
411.36448338416471
30
0
10
624.6616572921771
20
416.99153018047247
30
0
10
627.82733804611973
20
418.93330856092234
30
0
10
633.24922093589112
20
418.20853571927239
30
0
10
634.644774555048
20
421.54315801420159
30
0
10
632.03640942272204
20
425.12737149378142
30
0
10
635.76212677821002
20
424.62033366784732
30
0
10
635.46869229282629
20
430.34944051326272
30
0
10
637.51618215091469
20
436.04222771386816
30
0
10
636.95319056600499
20
445.57659538915146
30
0
10
644.497275925954
20
448.87054549668846
30
0
10
652.68475619673211
20
450.25430351871194
30
0
10
657.68435871958945
20
457.60541733353318
30
0
10
665.79074133422955
20
455.80735933025602
30
0
10
673.99433671848647
20
456.98978825185213
30
0
10
681.69824722651458
20
457.66105792939504
30
0
10
689.84484577711282
20
456.15315753255521
30
0
10
692.18796896307879
20
461.95982043706908
30
0
10
698.36680070932505
20
461.34372004663146
30
0
10
703.91589625849383
20
463.09692101603434
30
0
10
706.16064886595098
20
468.44894541124773
30
0
10
711.23558984399199
20
466.54262343137361
30
0
10
714.04591981134388
20
469.3401956590256
30
0
10
720.02135806961246
20
469.52948523577021
30
0
10
722.34317567002881
20
476.57718226571728
30
0
10
728.48881300526102
20
475.51613438771648
30
0
10
731.6411823049948
20
477.0865900295255
30
0
10
734.30579292184802
20
480.99202486827073
30
0
10
740.71832483272578
20
479.67540287575616
30
0
10
743.08891157238918
20
488.29557009750749
30
0
10
742.33093149721299
20
495.51979874469123
30
0
10
745.89637687493973
20
503.08327751955682
30
0
10
752.29772160746563
20
501.27099628421229
30
0
10
754.79180460481518
20
507.79725577946431
30
0
10
765.71107547599399
20
504.54590987684463
30
0
10
776.04728058658202
20
506.59022876495555
30
0
10
786.34488160833723
20
509.37862240347852
30
0
10
792.60990291448024
20
510.86278887300659
30
0
10
798.38637011288006
20
511.08211837575698
30
0
10
801.03890064701523
20
514.50842325636211
30
0
10
804.49854877293183
20
516.23719760305028
30
0
10
809.95914962916004
20
513.58094307886677
30
0
10
816.73946366357291
20
515.7202330730637
30
0
10
824.51749313290088
20
515.01896904822001
30
0
10
832.07455138059129
20
517.98416153577557
30
0
10
836.01529785332013
20
515.02489394782106
30
0
10
839.96329459989192
20
518.04711631005671
30
0
10
844.12787700198476
20
516.6832825200637
30
0
10
849.6440929277619
20
518.9308424007362
30
0
10
855.4597303950078
20
513.51469231598048
30
0
10
863.43988613895021
20
514.33174115858708
30
0
10
873.25101152846196
20
514.74543752087493
30
0
10
874.49835810646175
20
505.46740932088028
30
0
10
878.83312975327362
20
495.24524463840606
30
0
10
890.78758720411486
20
492.51556394014756
30
0
10
899.41439232070923
20
486.19294429520465
30
0
10
900.14197990872685
20
476.931320405919
30
0
10
905.98716404675088
20
473.43976243607187
30
0
10
910.32072232387281
20
469.44533243250333
30
0
10
914.56240558869683
20
471.32501011188413
30
0
10
918.97486257294076
20
466.41070878747115
30
0
10
917.59906259164336
20
474.98994121394054
30
0
10
925.2917142730189
20
478.47807513170937
30
0
10
932.39424699820279
20
473.92798191506404
30
0
10
941.80982528894913
20
474.46037455520639
30
0
10
943.34694741859767
20
465.2759106447146
30
0
10
940.04920116963581
20
459.82263252065195
30
0
10
940.54701175528839
20
453.17180080519455
30
0
10
946.39688555109376
20
453.25809316419759
30
0
10
952.37038778895965
20
451.92652265158233
30
0
10
955.06121520855481
20
456.16901638985178
30
0
10
955.06269323073695
20
463.70688335655728
30
0
10
962.25766091141372
20
459.31044331074673
30
0
10
970.40498583136298
20
461.8712348357559
30
0
10
977.92426117458945
20
458.54665359107679
30
0
10
986.24744542053713
20
457.93001933560419
30
0
10
992.45108325361457
20
457.38577368137487
30
0
10
997.96328898474462
20
454.15469789885594
30
0
10
1001.1854333766418
20
457.49316052226283
30
0
10
1004.1792545833175
20
459.97216313743928
30
0
10
1010.0258449669777
20
459.50513196076741
30
0
10
1016.0289758734118
20
458.24117245685568
30
0
10
1024.4887679429899
20
457.28914782838564
30
0
10
1026.5695246051084
20
463.14704550404821
30
0
10
1031.1430644889372
20
463.45586494379654
30
0
10
1035.6000362443594
20
461.9277668244834
30
0
10
1038.3698548990542
20
467.03303531704643
30
0
10
1044.2190489050097
20
470.15000380031847
30
0
10
1044.1009985012686
20
478.61515316337795
30
0
10
1047.2861109841783
20
481.53460569098218
30
0
10
1042.0998307576551
20
487.02465401063535
30
0
10
1035.5772686339365
20
486.59287301817466
30
0
10
1027.1873546047229
20
486.02678445008553
30
0
10
1019.5344732505396
20
488.73447111242257
30
0
10
1013.0645303067092
20
486.80305280617961
30
0
10
1007.5634684697718
20
490.83148733273765
30
0
10
1003.8177427859439
20
486.62271410089045
30
0
10
1000.4870814933848
20
488.5849871823836
30
0
10
994.88996189140664
20
487.90899035077325
30
0
10
988.37361989332771
20
487.50495482114627
30
0
10
980.01870162225214
20
485.13278133890412
30
0
10
973.12173309129048
20
489.23748762961327
30
0
10
965.42759472985665
20
488.96154494797179
30
0
10
961.62825126092912
20
486.31461291889053
30
0
10
958.05830562229949
20
483.16104731414492
30
0
10
955.58015401890418
20
488.5427716298895
30
0
10
949.34043734701447
20
487.34479230722513
30
0
10
946.26047275146152
20
494.9691901956848
30
0
10
942.1812440157305
20
499.4496776123533
30
0
10
938.15503323897121
20
503.439813192266
30
0
10
934.2424263358804
20
504.47146939787359
30
0
10
930.41818704483615
20
504.88759445863104
30
0
10
928.53010130554776
20
510.55745846358042
30
0
10
923.69201780131277
20
507.39757811088458
30
0
10
919.5798887391777
20
510.93345551006729
30
0
10
916.62714872530614
20
516.99501562094702
30
0
10
910.87068787675889
20
516.5487367467689
30
0
10
906.26678419228369
20
519.6772874929926
30
0
10
904.47152104556926
20
526.38952063274655
30
0
10
898.84726922369452
20
530.6461675595549
30
0
10
897.76128633745316
20
536.74349691492409
30
0
10
892.41276347241057
20
538.39901328305609
30
0
10
886.37544941685576
20
540.60168156055499
30
0
10
876.63179526458578
20
541.51555442444089
30
0
10
877.03031107997776
20
554.44135300221171
30
0
10
872.14653090729701
20
566.30395633586261
30
0
10
872.21069312814609
20
580.56862261881906
30
0
10
866.25537973973962
20
588.80804137160146
30
0
10
867.4157861007543
20
594.54670314413499
30
0
10
861.00177575743419
20
597.09049924143687
30
0
10
860.03351482762037
20
604.04492770733225
30
0
10
859.81764067609845
20
614.82777883577955
30
0
10
860.2510864096123
20
625.66540658224892
30
0
10
859.63014227980455
20
636.68654112411434
30
0
10
863.44658325667297
20
646.97566247394093
30
0
10
858.06352995781003
20
657.93621570593405
30
0
10
865.1097745161394
20
663.66404644585657
30
0
10
864.50332824140958
20
668.34596636666652
30
0
10
867.99894841939954
20
671.07206204663157
30
0
10
866.24686214002418
20
675.85320887591251
30
0
10
870.59733625365709
20
678.24684166827967
30
0
10
868.60475778371097
20
684.25762476010448
30
0
10
872.12972685642399
20
693.14150308143667
30
0
10
874.21639573378332
20
706.12710551052146
30
0
10
876.80421618173125
20
720.30760050531421
30
0
10
887.14551526304604
20
725.24415305665821
30
0
10
893.21516537005209
20
730.664449455458
30
0
10
898.98927337832959
20
735.47047673890847
30
0
10
900.52833585469216
20
743.37576199193973
30
0
10
906.61201034467445
20
744.34327874687256
30
0
10
906.84883083423551
20
750.38884923790192
30
0
10
905.83574876760042
20
758.0867670862624
30
0
10
912.9986443088294
20
760.33949282408923
30
0
10
916.12121255454076
20
764.35849976828104
30
0
10
921.97436891079542
20
767.45948751959099
30
0
10
931.07237786860696
20
772.29692761652188
30
0
10
940.07237255737311
20
777.38700888984408
30
0
10
948.82773607124159
20
777.10908596412264
30
0
10
954.98173593730212
20
775.02141543833886
30
0
10
961.00314317912989
20
776.94174814936105
30
0
10
962.0625282863225
20
782.49505946153477
30
0
10
970.7968079484566
20
782.22508396152523
30
0
10
977.95548579411252
20
784.70814848723296
30
0
10
986.49443926564902
20
783.84345868426908
30
0
10
994.21061298162908
20
786.3140561802652
30
0
10
1002.3193394981921
20
786.4446388004103
30
0
10
1006.9023222015461
20
778.47824413218075
30
0
10
1014.3040651951219
20
775.09625160556527
30
0
10
1020.4616401259234
20
770.11007078829289
30
0
10
1026.5105879132407
20
763.27752242266774
30
0
10
1035.3586163262098
20
766.60553735108454
30
0
10
1042.664323949014
20
761.97056358870077
30
0
10
1047.9810755344097
20
754.79521533217849
30
0
10
1056.8373269870042
20
755.94198170104903
30
0
10
1062.5988379234955
20
748.79920829227456
30
0
10
1071.8999958831619
20
749.27085241483326
30
0
10
1075.0090182894917
20
741.39438347073678
30
0
10
1081.3995753505683
20
742.69583072766807
30
0
10
1084.6221217123657
20
737.57270595427667
30
0
10
1091.366141451078
20
735.88498721634153
30
0
10
1097.8891581680782
20
730.24713984595439
30
0
10
1106.0264625779857
20
730.079400519106
30
0
10
1113.1535086204651
20
725.85948821688498
30
0
10
1121.2715272628407
20
724.4627447446544
30
0
10
1128.8001270028908
20
721.67489697163069
30
0
10
1137.6105275539383
20
721.13401984868597
30
0
10
1137.8018173171986
20
711.33123769561644
30
0
10
1140.7131818236026
20
701.20594694515432
30
0
10
1133.11219071657
20
682.43834812623186
30
0
10
1139.9852368376351
20
660.6817830113863
30
0
10
1137.5760905947245
20
639.43431673475379
30
0
10
1137.2931215972496
20
622.19908556856774
30
0
10
1127.7764919317069
20
611.99744948440889
30
0
10
1123.7611333511502
20
601.76413762938751
30
0
10
1123.4213912755447
20
593.30224834736373
30
0
10
1117.091090705479
20
587.3592434438749
30
0
10
1116.6720878871256
20
578.54818932679973
30
0
10
1110.0781027507023
20
573.21194755770102
30
0
10
1106.8149678172717
20
566.03153707578178
30
0
10
1101.7304627539356
20
559.6538650767302
30
0
10
1102.7732450018743
20
548.10252948006837
30
0
10
1098.1161928938964
20
537.85588914035554
30
0
10
1092.9580838845548
20
529.00299418775671
30
0
10
1091.7904291588802
20
520.24685550758159
30
0
10
1084.6275776193604
20
522.21005502888909
30
0
10
1083.8603080701193
20
515.20229463867327
30
0
10
1081.3954085793202
20
511.42666980425179
30
0
10
1080.6879031150165
20
504.96982233107724
30
0
10
1074.5218879950132
20
503.75932153748386
30
0
10
1074.4201461696355
20
494.4664604870336
30
0
10
1065.0325974899793
20
495.5395950869389
30
0
10
1063.3372035075381
20
489.23774402380889
30
0
10
1055.5127373474927
20
490.91582465866793
30
0
10
1065.2805577879462
20
482.06654460600487
30
0
10
1063.5780793576241
20
474.61900674624962
30
0
10
1071.6496993843575
20
468.16007669213809
30
0
10
1079.8220419675795
20
471.31927341199219
30
0
10
1087.701911259257
20
465.88413558032187
30
0
10
1094.4818692683987
20
470.6995743301045
30
0
10
1102.2160056760615
20
473.52431559961013
30
0
10
1110.3752155927773
20
473.9688155221645
30
0
10
1118.3671835239852
20
475.751880761444
30
0
10
1124.5679080147379
20
477.76734817683905
30
0
10
1129.7295433160648
20
479.26605617217672
30
0
10
1134.5987811325308
20
478.58734078477033
30
0
10
1140.8442066989348
20
478.40830716334199
30
0
10
1148.2143270248662
20
474.17632718918344
30
0
10
1155.5609757701204
20
476.52379894116592
30
0
10
1160.2166507552124
20
473.03217708924143
30
0
10
1166.2248857756172
20
475.30850878236953
30
0
10
1169.1678576975064
20
467.91336105560401
30
0
10
1175.0546615863548
20
469.32749741158091
30
0
10
1180.1677732374901
20
467.068244364831
30
0
10
1187.1804567535924
20
468.84080239070533
30
0
10
1193.5829418067194
20
469.12258802164058
30
0
10
1199.1209379563302
20
469.29476337812957
30
0
10
1202.7311550355059
20
463.80533013459592
30
0
10
1210.6899920489827
20
467.46737321998262
30
0
10
1215.9109603775976
20
463.18090544724623
30
0
10
1221.7745106830671
20
463.39879627424443
30
0
10
1223.5153959459963
20
458.01833773270982
30
0
10
1227.552068210013
20
458.81287872620203
30
0
10
1232.8828860921276
20
457.22123588377718
30
0
10
1239.4370932241384
20
456.35191191928459
30
0
10
1250.3350052202497
20
456.26459325394313
30
0
10
1260.8665588486733
20
454.17096994739751
30
0
10
1271.8088120116217
20
454.97846001670615
30
0
10
1278.4094894548493
20
453.4450471917005
30
0
10
1284.2838055186444
20
453.24578727450171
30
0
10
1285.4614029328343
20
457.92906245242654
30
0
10
1288.0150561317939
20
461.42647416988962
30
0
10
1293.8239851607723
20
459.11287962714778
30
0
10
1301.8986107043715
20
454.63829484366209
30
0
10
1303.7548065797407
20
467.76281546211095
30
0
10
1295.2211015398698
20
467.2983438520622
30
0
10
1290.0184320606331
20
475.08861244157634
30
0
10
1288.8069476449984
20
483.61111762799419
30
0
10
1295.3012034028645
20
488.02427288998717
30
0
10
1297.3032289746152
20
492.84805029368749
30
0
10
1303.6613009923483
20
491.93897676289293
30
0
10
1309.6310880937494
20
491.45869952275893
30
0
10
1318.4665728356167
20
490.2123061921688
30
0
10
1324.6031499278047
20
494.76302867327689
30
0
10
1334.182751166627
20
495.45667064742918
30
0
10
1335.8098717509745
20
503.15443356550105
30
0
10
1335.8116612969834
20
511.37502167565037
30
0
10
1338.1564390841345
20
519.42093160012689
30
0
10
1336.108679980531
20
527.32603469437902
30
0
10
1337.0779008921136
20
535.76768267022646
30
0
10
1330.7475643543651
20
541.34990040547007
30
0
10
1325.0642928018726
20
539.62114360794931
30
0
10
1320.6295073552044
20
542.31500898286481
30
0
10
1314.3107882870368
20
545.31065442182523
30
0
10
1305.6116586033284
20
541.55323924779304
30
0
10
1300.852937973357
20
548.31262030428218
30
0
10
1295.0648193753204
20
547.09895384449976
30
0
10
1291.4925069494675
20
552.07322927515975
30
0
10
1285.9916105117702
20
555.94879470975695
30
0
10
1278.2064263849456
20
555.74656308679346
30
0
10
1276.4145977736437
20
561.46475385880524
30
0
10
1273.2860724904463
20
564.00403969906324
30
0
10
1268.6907876166267
20
563.17225078342994
30
0
10
1267.0747275502472
20
570.66348021016734
30
0
10
1258.6663062661301
20
568.19583814781186
30
0
10
1254.3195021403239
20
572.60047577753517
30
0
10
1247.8269159459753
20
573.90973493763136
30
0
10
1247.3227918425091
20
579.12573013823112
30
0
10
1244.1530795702704
20
585.00831884628963
30
0
10
1245.3852685001998
20
596.04639764806302
30
0
10
1234.339231975986
20
593.25016913222566
30
0
10
1231.6902444563207
20
601.33917730317194
30
0
10
1227.1779308064104
20
602.20089796917205
30
0
10
1223.2801727459321
20
602.6116315495359
30
0
10
1221.6163580591492
20
607.45739952056113
30
0
10
1215.7453143669359
20
607.79994747174237
30
0
10
1214.1101366234093
20
614.31971663592765
30
0
10
1208.9425087070733
20
616.48199760162538
30
0
10
1210.2329295433626
20
623.49201845935545
30
0
10
1203.0362293337296
20
627.21072326071919
30
0
10
1202.4407089367342
20
635.61446008440964
30
0
10
1198.9826757808569
20
642.99360020401753
30
0
10
1199.7078937337019
20
651.94369462972816
30
0
10
1189.9037288902846
20
658.61321273024282
30
0
10
1192.2660090165205
20
670.82789801078502
30
0
10
1187.1900836803015
20
676.0711591063681
30
0
10
1183.1787860810114
20
676.99649509628966
30
0
10
1179.0034166726723
20
678.16849444268223
30
0
10
1178.7455641507913
20
684.52268199691491
30
0
10
1177.4139560721264
20
690.12645517323085
30
0
10
1177.8065279599243
20
701.04883117927102
30
0
10
1166.7292669064495
20
698.66263705073834
30
0
10
1162.9788366453422
20
709.82106958239967
30
0
10
1157.8617385163698
20
717.9545295732446
30
0
10
1159.1064157532799
20
730.00200490841507
30
0
10
1152.0569744813974
20
729.73116831222956
30
0
10
1151.1436090236691
20
736.15955966014531
30
0
10
1147.7135428208899
20
741.03031870017821
30
0
10
1146.2162411810825
20
749.97674073347571
30
0
10
1139.1327218403326
20
748.41318636662754
30
0
10
1137.7279027106506
20
754.56734274355983
30
0
10
1137.1223180996303
20
761.49038187261624
30
0
10
1130.2386232051304
20
765.68627646844516
30
0
10
1121.8065558371932
20
765.68816357038463
30
0
10
1114.4042358577167
20
768.70659640921929
30
0
10
1105.4545409110312
20
770.13546950123146
30
0
10
1104.557435261813
20
778.8553059855833
30
0
10
1097.8567583713434
20
778.02652852514245
30
0
10
1094.3759089682269
20
783.33462683599964
30
0
10
1086.7734500152321
20
780.14060149255693
30
0
10
1080.3823026985935
20
781.69857200963747
30
0
10
1074.7677191879341
20
782.33275454521004
30
0
10
1073.3270816036502
20
786.8530343639485
30
0
10
1070.4600378190189
20
789.24773795768306
30
0
10
1064.2816043652533
20
788.32413960032454
30
0
10
1060.8600947462658
20
795.40930517331401
30
0
10
1054.1356161341532
20
796.50648167509894
30
0
10
1050.3892637785884
20
801.46320785420119
30
0
10
1045.3651772080764
20
801.12583286592735
30
0
10
1038.0987115117086
20
800.33493848057094
30
0
10
1030.8821136380307
20
804.22867989472945
30
0
10
1022.9305677941027
20
802.42361122183752
30
0
10
1015.7478674716573
20
804.60235095367705
30
0
10
1011.6929370287007
20
800.06956522034329
30
0
10
1006.4752939947443
20
805.58536016736548
30
0
10
1000.7366890930525
20
807.46012890030215
30
0
10
992.06352188341748
20
807.01493416575681
30
0
10
985.0997255215417
20
802.93932945123925
30
0
10
976.77592037723775
20
802.52501850047884
30
0
10
970.18890617558691
20
802.64013195990685
30
0
10
964.45177225724387
20
802.60333150425129
30
0
10
960.6216701624287
20
800.19410367173282
30
0
10
953.94301140079563
20
798.57953446947977
30
0
10
947.72071234475311
20
796.90202002795002
30
0
10
941.31495400528763
20
798.01243567287838
30
0
10
940.07267091257904
20
793.73020478749424
30
0
10
937.24981713250099
20
790.65181893150771
30
0
10
931.11957366460786
20
790.87613177225512
30
0
10
928.18797964139389
20
783.90156367537202
30
0
10
919.456728177689
20
784.76985336597465
30
0
10
918.16086577730061
20
778.67591318515997
30
0
10
914.32590737087389
20
776.58783870812283
30
0
10
909.48907358374026
20
777.4977089887941
30
0
10
908.53625190808725
20
772.92387631880285
30
0
10
906.50657856514977
20
768.81607595059234
30
0
10
901.21139867347961
20
768.46775873818137
30
0
10
895.46050438301836
20
764.45781336178914
30
0
10
888.4952106322246
20
763.29531159494559
30
0
10
882.96288301169284
20
765.47839436105835
30
0
10
878.31941299388336
20
762.01909597358622
30
0
10
871.99446751976211
20
762.13485250368751
30
0
10
871.32662179477109
20
755.19432083500578
30
0
10
865.49112724998497
20
754.8315224912435
30
0
10
858.2113017490268
20
753.11693166930638
30
0
10
858.65880254174272
20
744.88298271005124
30
0
10
856.22171460757215
20
740.26581260214425
30
0
10
857.40439668156102
20
733.56518773386267
30
0
10
848.14037760306564
20
733.95465142768558
30
0
10
845.44775350180316
20
725.44289331452705
30
0
10
839.43738286846838
20
720.02344547084704
30
0
10
830.74584467782086
20
719.7649379583986
30
0
10
831.35854960894505
20
708.43730387872358
30
0
10
822.97346911994191
20
706.42434874669095
30
0
10
815.57271197951877
20
703.61251305293581
30
0
10
807.50934804783105
20
700.88752506595756
30
0
10
808.99818820096107
20
691.16793131660245
30
0
10
803.3812209370717
20
690.52762647961049
30
0
10
800.68909212877975
20
688.28198377449758
30
0
10
797.76121290246715
20
684.6455859026014
30
0
10
792.06462929008057
20
686.16570583475664
30
0
10
787.09200456809765
20
684.02553651913945
30
0
10
781.52488470967091
20
685.71942544179478
30
0
10
777.48793619558251
20
680.24091645067051
30
0
10
769.82326224421797
20
685.80303724588566
30
0
10
764.51252422611788
20
681.22094282549938
30
0
10
756.69414467437923
20
684.8376497884467
30
0
10
757.23363035332852
20
680.2849037507309
30
0
10
753.913999462535
20
677.43121224529091
30
0
10
750.59100544064438
20
675.4828038062152
30
0
10
746.3251771517107
20
675.09168956778649
30
0
10
745.44329937751604
20
668.81159049162181
30
0
10
740.26584027055833
20
665.74076963048174
30
0
10
734.48872319651014
20
667.14116867090524
30
0
10
731.33376193933316
20
663.94062338450317
30
0
10
731.58944128902976
20
659.01298831037707
30
0
10
728.02200808640828
20
657.26205602903474
30
0
10
723.71415245574349
20
659.3171322144683
30
0
10
721.08899626574498
20
654.01791354808552
30
0
10
716.39920663298631
20
658.76262311123753
30
0
10
713.30965189797507
20
652.18674199872294
30
0
10
705.89565730618051
20
655.40540014327746
30
0
10
704.28481316858677
20
648.77966474174752
30
0
10
697.65302516675706
20
650.52119435780378
30
0
10
692.37956701125336
20
647.36574089977125
30
0
10
683.65921185910815
20
647.91816520808629
30
0
10
682.40299961556457
20
642.03400543319367
30
0
10
677.06478151465376
20
640.86658874944146
30
0
10
669.59306525057764
20
639.88326464366605
30
0
10
666.62907239671301
20
631.49197689350797
30
0
10
656.67057987186126
20
633.66009007437572
30
0
10
655.37454140372847
20
627.67335953328245
30
0
10
650.55971361949787
20
625.19410463309339
30
0
10
644.98080176280996
20
624.34030739243849
30
0
10
639.63811423552329
20
623.98144756347983
30
0
10
639.08610029986437
20
617.25147056217224
30
0
10
631.85338303780827
20
614.7366916899382
30
0
10
625.75358117905705
20
613.62660133606926
30
0
10
624.16802471579558
20
608.74195399543305
30
0
10
621.1197262232813
20
610.45349731942497
30
0
10
617.73282777473332
20
608.48572947557068
30
0
10
614.46123874001262
20
611.61252237621545
30
0
10
608.71129556434062
20
611.57209472982959
30
0
10
602.60655179005823
20
620.24973901697808
30
0
10
590.75436227381329
20
613.24369191970436
30
0
10
583.85237432806207
20
618.7538343462013
30
0
10
578.32226572189779
20
616.01049745462592
30
0
10
576.58956824549773
20
627.20463816805409
30
0
10
567.25590462167554
20
626.18773100848375
30
0
10
559.6083296004432
20
627.80684062198009
30
0
10
551.65551392146756
20
626.66479268284297
30
0
10
549.88690066204663
20
617.67530435879144
30
0
10
552.34826520981392
20
608.40957271464538
30
0
10
544.68590239338164
20
604.50184538016379
30
0
10
538.39866725943648
20
607.76396296991197
30
0
10
532.33934904068246
20
606.96162984570969
30
0
10
529.81195882088991
20
609.97387392017185
30
0
10
526.85241446967677
20
613.42574696966562
30
0
10
522.29368586440739
20
612.33110250821619
30
0
10
519.53873210858421
20
616.66619672893705
30
0
10
515.33372423407479
20
615.04758311341379
30
0
10
512.04280526760601
20
618.83446628641877
30
0
10
511.19294373361708
20
614.94792865519901
30
0
10
506.14148701166977
20
616.05656100182011
30
0
10
500.63250974146342
20
615.06204972510591
30
0
10
493.27239755593183
20
617.13986971080158
30
0
10
484.34362674902047
20
625.69644824772706
30
0
10
485.31635365335876
20
637.24622520913647
30
0
10
481.99740000988953
20
645.86243626595933
30
0
10
483.47833919649065
20
652.2994785038743
30
0
10
479.02631596566374
20
653.41604720414978
30
0
10
477.21442528510244
20
656.74293569622125
30
0
10
477.84142196398591
20
662.37675007371831
30
0
10
476.86903327344521
20
669.0414936811419
30
0
10
476.075391879329
20
675.74781301916858
30
0
10
472.50151197450003
20
680.52948857913975
30
0
10
467.70639213472015
20
679.14000527580356
30
0
10
463.51280976239457
20
679.55808988417493
30
0
10
462.46506389790341
20
686.04098253031316
30
0
10
460.33205564285169
20
689.5425183060388
30
0
10
459.99089027727996
20
694.27913924402162
30
0
10
456.70938098119223
20
692.10261009731471
30
0
10
453.89460776012561
20
692.66451839846934
30
0
10
454.95691600005739
20
699.18047350014547
30
0
10
451.12687472449454
20
701.73554799524766
30
0
10
445.85130806613626
20
699.68543693320669
30
0
10
446.81052243144967
20
706.97733315942037
30
0
10
442.22440481114984
20
711.76911482684727
30
0
10
444.4319909681837
20
722.43119734902712
30
0
10
436.09724748945666
20
723.26635279511606
30
0
10
436.69040900667414
20
729.88576175129015
30
0
10
434.26151927636624
20
734.69437292071552
30
0
10
436.2003654424197
20
741.78890532154628
30
0
10
434.95868705782897
20
749.66663108386774
30
0
10
433.55791382466646
20
758.05685970605123
30
0
10
442.47204748448354
20
764.09932091112285
30
0
10
445.42900602714712
20
752.23800964228826
30
0
10
455.55918628610914
20
757.00304636346277
30
0
10
452.47729334759458
20
766.91242936149183
30
0
10
458.31445098064694
20
767.07536587293419
30
0
10
460.94688369884153
20
769.57690911116629
30
0
10
459.51352328805024
20
773.62151217798726
30
0
10
460.64577591174827
20
778.95327404514262
30
0
10
455.01520868059373
20
777.84569285901284
30
0
10
451.48969673112703
20
782.46544173464656
30
0
10
444.79636375410047
20
784.19576147868884
30
0
10
435.53835956843244
20
782.65449945121247
30
0
10
434.61392944171848
20
793.35377895363933
30
0
10
435.07596981568543
20
799.16734123831156
30
0
10
433.72046565883636
20
805.08230758670015
30
0
10
428.82664739055144
20
807.21390884140897
30
0
10
424.01573390651674
20
812.28326130233324
30
0
10
421.99182523154479
20
820.62186986669474
30
0
10
425.41060187004831
20
827.87850089693666
30
0
10
434.99093546779818
20
828.89497878581562
30
0
10
441.20199461385869
20
825.9857144062106
30
0
10
446.29779020209116
20
827.22732727230459
30
0
10
452.98128768910379
20
825.78084190412915
30
0
10
452.05123117601829
20
835.23348729804434
30
0
10
459.08889232317046
20
833.37029694020646
30
0
10
461.97411039768167
20
838.67965863107611
30
0
10
462.82878123802647
20
845.34239815373417
30
0
10
461.42120354334048
20
853.26317069440529
30
0
10
462.75884471759991
20
862.14523460047326
30
0
10
456.58714693921593
20
867.43323505316812
30
0
10
448.36590417907325
20
867.41477474221506
30
0
10
439.61688214201934
20
869.24205038688058
30
0
10
434.41996641558234
20
864.42306270388531
30
0
10
431.87999209088076
20
860.07354573616385
30
0
10
426.59588731742258
20
857.4299585221637
30
0
10
426.66489984048411
20
850.6636623383738
30
0
10
423.52166714903007
20
847.34706363614464
30
0
10
418.59656402733697
20
844.9800895875876
30
0
10
417.63787042667639
20
850.58158776002767
30
0
10
414.72796194122344
20
853.41389227926072
30
0
10
409.80610707830601
20
852.31328041745439
30
0
10
407.43512880096648
20
858.14408150083011
30
0
10
403.62998999281058
20
863.729597732922
30
0
10
393.77726832308889
20
865.13855491313723
30
0
10
389.12935776740682
20
859.04699293403519
30
0
10
385.46646274982299
20
851.42212550182546
30
0
10
390.14016394013169
20
843.07157686921357
30
0
10
385.87846172880836
20
840.42686962975972
30
0
10
384.81371716262117
20
835.96415415318006
30
0
10
380.06873924691627
20
835.70631187184847
30
0
10
378.13206570062914
20
831.79423337125149
30
0
10
375.57038150688038
20
828.60590090832204
30
0
10
372.49609557640224
20
821.73927083851208
30
0
10
374.64091311485703
20
813.53802757276776
30
0
10
370.71035417129536
20
804.76570863302004
30
0
10
364.97465677653702
20
806.75537761367514
30
0
10
365.01539060350956
20
801.56333019511987
30
0
10
359.77340185398339
20
799.58342708341104
30
0
10
353.95407838042672
20
796.68971015661953
30
0
10
346.3818560085225
20
793.1095385109918
30
0
10
337.68093106383247
20
794.27482895595517
30
0
10
332.90085929495365
20
787.64943055192384
30
0
10
328.69423521694512
20
781.06852608521251
30
0
10
321.15804993435813
20
780.2597361252424
30
0
10
318.5388529189155
20
775.97225119452673
30
0
10
313.00622761128921
20
775.27474791867098
30
0
10
308.8161705355576
20
772.69380827271607
30
0
10
303.08389810846569
20
771.57672340133422
30
0
10
301.4068451871683
20
767.52586226541382
30
0
10
299.17866179236768
20
764.1037978815998
30
0
10
293.37051618873249
20
766.64934953403804
30
0
10
292.5359841973181
20
761.2368554883368
30
0
10
286.90135925539732
20
761.94757543140895
30
0
10
289.15043652080794
20
756.42058382754715
30
0
10
289.41672322142841
20
752.78909061600655
30
0
10
287.64362182524047
20
746.70417418896386
30
0
10
284.56612146160415
20
742.27861339595688
30
0
10
286.33579211482811
20
735.47553325872741
30
0
10
278.75087932837113
20
736.04942617209394
30
0
10
273.16037684024337
20
736.04387814204802
30
0
10
270.44908782065204
20
730.59537864411254
30
0
10
262.12099493462637
20
732.70815095138892
30
0
10
263.05933263441636
20
725.14031995519281
30
0
10
260.33927469954074
20
722.07859127862378
30
0
10
251.26664679837859
20
723.72727354352833
30
0
10
247.2684637557374
20
720.51679942388159
30
0
10
241.95799054085029
20
721.81080570858626
30
0
10
241.64896088461853
20
719.79039403147453
30
0
10
242.05530238899439
20
717.09426812783147
30
0
10
240.1223398533044
20
716.7705177402238
30
0
10
236.88338995955218
20
717.95542767966822
30
0
10
237.58848098059147
20
714.99623748531803
30
0
10
235.48197451785717
20
713.17631234518763
30
0
10
235.98464661996115
20
709.67058635269814
30
0
10
232.63053135566025
20
711.29271948462201
30
0
10
233.46924106254164
20
716.67474950775954
30
0
10
234.79259869869639
20
722.95453270119583
30
0
10
230.73701498053515
20
730.61580613956357
30
0
10
224.68851438661716
20
735.94916203908213
30
0
10
225.27382822358871
20
745.31654613284434
30
0
10
231.89841118234941
20
745.3701269984158
30
0
10
230.82136730965578
20
752.70884665125106
30
0
10
233.68123331950198
20
758.16701376738922
30
0
10
232.60289898041049
20
769.56219283147971
30
0
10
231.71594738087873
20
780.46460330711284
30
0
10
234.63816781235917
20
788.95618787408785
30
0
10
233.45048287619187
20
794.51446418865567
30
0
10
236.89493019876548
20
795.96612893010024
30
0
10
233.21883853340356
20
798.2686804612265
30
0
10
234.89744286954027
20
801.97906557961744
30
0
10
232.189100576729
20
806.83658715093372
30
0
10
232.07432086853663
20
814.44781050292193
30
0
10
224.17568916079153
20
817.86279168357851
30
0
10
223.54060538778387
20
828.69342663920577
30
0
10
212.23013354397594
20
826.02397913511209
30
0
10
210.28221320216835
20
831.99732050515695
30
0
10
211.14872284516255
20
840.62902700688119
30
0
10
215.14031181838718
20
837.54545768513799
30
0
10
215.01913258067191
20
841.76604809789922
30
0
10
218.32269994719681
20
841.69919091725069
30
0
10
223.66470733112888
20
840.70971924670039
30
0
10
223.08102618450584
20
850.28643135370339
30
0
10
230.78604004071633
20
847.40979905078893
30
0
10
230.93967121455904
20
853.09313926910465
30
0
10
236.02344026779068
20
853.2405814434569
30
0
10
237.02540544051854
20
856.73545974457215
30
0
10
238.30377252375544
20
860.85874334319908
30
0
10
244.72617810706004
20
859.3263919560992
30
0
10
250.59139454792972
20
860.99750006332226
30
0
10
259.23145787559463
20
863.7972096554513
30
0
10
263.8098088405323
20
854.68800266363462
30
0
10
266.13894699839273
20
849.24671888949297
30
0
10
264.81122804904021
20
842.18052969542998
30
0
10
271.35538033589961
20
842.83015232936521
30
0
10
277.16542077970178
20
838.25292998405553
30
0
10
283.74595840140722
20
842.90839036172326
30
0
10
292.12025892432644
20
842.96657378524651
30
0
10
298.51181405729739
20
844.37464935709818
30
0
10
303.95233848642266
20
845.05177109400495
30
0
10
305.42984511810744
20
851.14664925197303
30
0
10
304.41323663040117
20
857.41990324001335
30
0
10
302.44520311616537
20
868.93469166234922
30
0
10
285.51922463563182
20
867.24842993722086
30
0
10
272.79281940269254
20
868.00658629813381
30
0
10
262.11283849864213
20
867.13518277950243
30
0
10
255.67553599663202
20
862.73976977457255
30
0
10
246.82734722762541
20
865.01044021013786
30
0
10
236.2252569440451
20
863.51205567012585
30
0
10
217.27864543081267
20
866.82583612873532
30
0
10
190.45132536150965
20
868.04257108994716
30
0
10
157.75373983594332
20
867.62577038690642
30
0
10
125.11568069804068
20
867.83450434883105
30
0
10
98.13931966179652
20
867.4860587218925
30
0
10
78.763374114636107
20
868.06588944491773
30
0
10
69.729958128021806
20
867.30718402769571
30
0
10
63.429097654086775
20
868.72140912657619
30
0
10
62.388673053987638
20
863.66142598105148
30
0
10
55.778381220232909
20
864.78647778780623
30
0
10
58.578211870427552
20
857.48423035870132
30
0
10
65.423091039822935
20
858.65688507064442
30
0
10
73.531421691647282
20
854.0740273440407
30
0
10
69.042621211600945
20
847.11190967647872
30
0
10
70.140587599039065
20
841.03700148089274
30
0
10
66.054051034942219
20
838.80971938741254
30
0
10
65.448189926221417
20
834.36463756669491
30
0
10
56.362687714766516
20
832.66637663852623
30
0
10
55.224654869541077
20
821.15780101402333
30
0
10
47.591256563286557
20
818.99425003331191
30
0
10
46.933908717217705
20
813.61517495603209
30
0
10
50.776168581199002
20
811.31481259789575
30
0
10
51.957539395049956
20
802.83283989040001
30
0
10
51.587811700054907
20
794.38363500670721
30
0
10
51.878594326838964
20
782.05271772672427
30
0
10
39.14745559578197
20
784.82914758671029
30
0
10
43.38302483724911
20
778.6149487254205
30
0
10
42.288231342766892
20
774.57435113318968
30
0
10
44.63292806665153
20
771.14917119745314
30
0
10
44.626462599409479
20
766.17885558312935
30
0
10
50.74696196110645
20
767.5893652409286
30
0
10
51.13591013316907
20
762.84584756543154
30
0
10
54.301180137966121
20
760.09807801468571
30
0
10
53.641024310806664
20
754.71743888493097
30
0
10
58.778536146753446
20
755.22322491563557
30
0
10
63.524006977690341
20
752.63128897762181
30
0
10
69.652648470933769
20
753.28596469561944
30
0
10
72.632875799830586
20
747.81770922956207
30
0
10
79.82068813821995
20
749.34747884848537
30
0
10
77.748632416303252
20
739.46531118378903
30
0
10
79.455846292480174
20
732.11913659093716
30
0
10
78.015551744440089
20
725.92039234771414
30
0
10
79.098725728856095
20
718.88906055960092
30
0
10
72.887297735260631
20
718.74733463483165
30
0
10
66.694466985028171
20
717.30164380664428
30
0
10
57.50551927394423
20
716.64544676276012
30
0
10
54.007001946358187
20
709.44154026117246
30
0
10
52.599479347382278
20
703.26401524866071
30
0
10
51.57284450756687
20
697.18754849502898
30
0
10
46.748204307101595
20
697.07545832764731
30
0
10
43.092827764104996
20
699.55851363210957
30
0
10
38.000740612637109
20
698.73563063425559
30
0
10
27.781253680158343
20
700.16801896336528
30
0
10
24.329738384213179
20
687.50695906658029
30
0
10
25.053327705230416
20
678.41574221922826
30
0
10
26.997978772152351
20
673.23892676717469
30
0
10
30.395147984037763
20
670.20954484652395
30
0
10
27.911481664746379
20
665.52326136986017
30
0
10
32.308469831577703
20
661.94666485801781
30
0
10
40.16679954385949
20
656.27080420773837
30
0
10
50.884875781799934
20
654.24902987829068
30
0
10
61.212481985203596
20
658.55710073758905
30
0
10
68.976267149745098
20
659.30077330829681
30
0
10
76.332470680983192
20
668.10356305462233
30
0
10
81.349193568800928
20
656.01413267078101
30
0
10
80.927591498735978
20
643.52744449389843
30
0
10
80.317190745382035
20
627.14697370683564
30
0
10
76.024158384952585
20
610.84058286265042
30
0
10
82.464790516544625
20
598.04448223654413
30
0
10
79.727958334857135
20
586.58207242260369
30
0
10
85.964043304368104
20
579.13246195065017
30
0
10
92.438436516144407
20
581.92657261999602
30
0
10
99.38528191677193
20
579.02814374787545
30
0
10
101.14800202979833
20
584.93556472448347
30
0
10
105.62561370203451
20
588.23506870955509
30
0
10
105.25320632886975
20
594.47398353688959
30
0
10
109.67010145039276
20
596.07179060271847
30
0
10
113.98803092520355
20
594.98536994390565
30
0
10
117.4857485123983
20
600.20469636283633
30
0
10
125.40966906725163
20
598.89652792131767
30
0
10
124.81069839361882
20
590.97434004949707
30
0
10
128.44730445261837
20
588.62377241888714
30
0
10
124.97778835501916
20
586.43785786832041
30
0
10
126.44669373891102
20
581.32667220082101
30
0
10
125.64959913485211
20
576.54138758752879
30
0
10
124.72749440076117
20
570.05641847516711
30
0
10
129.12602503564185
20
569.09665530633674
30
0
10
132.93716881910518
20
568.42679657745532
30
0
10
135.47473796785849
20
562.76067268944757
30
0
10
139.72419242763567
20
554.64616455017688
30
0
10
137.93838104730892
20
543.52443548557039
30
0
10
137.20546155569411
20
532.54089221371328
30
0
10
137.00897578049123
20
526.26868135717643
30
0
10
139.09742698935025
20
520.28203384086464
30
0
10
144.95799966588686
20
520.35947585473468
30
0
10
151.37544537815427
20
519.89543401205367
30
0
10
158.50868723838818
20
518.13571870568023
30
0
10
162.55901880773408
20
522.68027160039253
30
0
10
167.00083478351632
20
521.93178349515415
30
0
10
170.22303014662236
20
524.34863133299677
30
0
10
175.76747393842371
20
524.59518094663781
30
0
10
182.51982326665251
20
524.28589222210621
30
0
10
189.87165679703409
20
526.13824271238275
30
0
10
200.78633369613175
20
522.96431812732465
30
0
10
199.54835114133701
20
533.89299779006376
30
0
10
200.69274005660213
20
539.75139138313079
30
0
10
205.86104694567837
20
543.68022531135568
30
0
10
202.82728468904753
20
547.28941585832354
30
0
10
202.63005697428113
20
554.76594406748302
30
0
10
200.79514460623884
20
563.34191475258615
30
0
10
206.48271291476476
20
567.81388733364736
30
0
10
212.16613607907931
20
566.80078281919998
30
0
10
215.49157220983238
20
570.50687870440856
30
0
10
219.17520300656193
20
568.98066287596703
30
0
10
221.6489855523397
20
573.28978962704889
30
0
10
224.68178961077592
20
575.14729788180364
30
0
10
229.75352779947175
20
577.39555687643508
30
0
10
231.01166922401524
20
567.80832443668999
30
0
10
228.92143701448359
20
560.93399098736654
30
0
10
228.53439293434809
20
551.85166706123948
30
0
10
238.50099703458085
20
550.26060390922544
30
0
10
244.7462820588496
20
552.48872595070122
30
0
10
250.327234871353
20
550.87137180932962
30
0
10
253.97910150826604
20
553.74288399348211
30
0
10
258.82181246862666
20
550.46212987869717
30
0
10
260.58243918220637
20
555.45032322819236
30
0
10
265.83213341420651
20
552.37710461562699
30
0
10
267.08460893649311
20
557.15195206493706
30
0
10
270.05284784723949
20
560.17211375022032
30
0
10
273.86169195427465
20
561.50770652448193
30
0
10
278.05769748108202
20
558.71525736207832
30
0
10
280.55670046741932
20
562.32751991587907
30
0
10
285.66627765963273
20
560.45245494159508
30
0
10
286.94177533059866
20
565.98827389331234
30
0
10
292.07147037283477
20
565.68619901673117
30
0
10
292.95459133984605
20
569.55691175372283
30
0
10
296.43785279756509
20
569.85173559329826
30
0
10
296.30381056010958
20
573.98116013737183
30
0
10
300.48765372091543
20
566.25649553746155
30
0
10
298.75327496676965
20
560.61705589882774
30
0
10
307.25584962416474
20
556.2794778335882
30
0
10
315.16661191759442
20
556.430006329854
30
0
10
324.67175297684355
20
550.13440392034545
30
0
10
336.53874030899215
20
550.7678741275945
30
0
10
342.58415970877775
20
540.15845670308602
30
0
10
351.73230283852831
20
541.48655175918418
30
0
10
357.15330487019122
20
536.65181546677354
30
0
10
357.88833461031982
20
531.10761042799732
30
0
10
356.48989979491557
20
527.755849824797
30
0
10
353.84319213910965
20
527.67342567180788
30
0
10
356.6574543172689
20
524.51381976740913
30
0
10
359.98861267767217
20
520.39362930558639
30
0
10
351.68372523214191
20
519.08472177559145
30
0
10
349.87179914740659
20
514.80112263236435
30
0
10
347.7930251095587
20
510.02867895771408
30
0
10
349.10998374088655
20
501.54084700831379
30
0
10
357.26996903191036
20
501.93102169501401
30
0
10
360.78120409957711
20
497.2974746257936
30
0
10
367.68352584144856
20
498.28751515656961
30
0
10
366.4356700310675
20
506.6501480041739
30
0
10
372.96079520312469
20
506.18177857805165
30
0
10
377.63855434890905
20
508.38186970172637
30
0
10
384.8089896397787
20
508.42208133041436
30
0
10
390.04146724086723
20
513.21344956008772
30
0
10
396.84180247224776
20
510.66859345799713
30
0
10
398.57504687762093
20
515.31457531701278
30
0
10
396.02334888196242
20
518.89032774481063
30
0
10
389.6553987248958
20
518.15831215100604
30
0
10
385.20988101656167
20
521.49859621652149
30
0
10
379.31746651269583
20
520.45968901796323
30
0
10
376.27127276600186
20
522.50971391999269
30
0
10
375.81857503747472
20
526.698098897975
30
0
10
369.26628358324109
20
528.37109475894249
30
0
10
369.23220763186362
20
536.40714946658341
30
0
10
373.05920471312197
20
543.22270157317632
30
0
10
373.64513878972701
20
551.28118139434878
30
0
10
377.6532850052684
20
558.14698376265028
30
0
10
379.06426669785606
20
567.39262188449561
30
0
10
389.1899660498263
20
567.08610924547133
30
0
10
390.04117238723097
20
576.15852031541249
30
0
10
396.21398001959534
20
576.43669788921443
30
0
10
399.901499404368
20
578.04647269241718
30
0
10
401.68467446795347
20
582.40772723675741
30
0
10
408.36121940652345
20
580.11355956371278
30
0
10
411.57924352781379
20
590.31134303113663
30
0
10
419.89625600484101
20
582.94636475000743
30
0
10
418.91906651586407
20
574.68840576741354
30
0
10
418.76442897457048
20
566.42806188082022
30
0
10
413.60425715706361
20
559.60382280686576
30
0
10
413.13974340253912
20
549.41055415746973
30
0
10
416.22762226297317
20
541.33886967587216
30
0
10
417.84588415223476
20
531.38963561595028
30
0
10
423.90333919295466
20
531.74491621206539
30
0
10
427.74193612844488
20
525.48491366306894
30
0
10
431.72299550805394
20
518.6311109070499
30
0
10
433.91065780338693
20
512.0073842156545
30
0
10
435.19538744994247
20
507.04149740019972
30
0
10
439.29407591372211
20
503.56514984712965
30
0
10
435.11876616497761
20
501.1765306961247
30
0
10
433.87069520319244
20
495.51276344108726
30
0
10
426.98935034854151
20
494.9053353595765
30
0
10
427.15782691621968
20
488.63530160614056
30
0
10
424.13009407024953
20
484.00306185987091
30
0
10
425.01483681613303
20
476.59015720929807
30
0
10
429.59335451379025
20
470.09903366967376
30
0
10
433.36361900901892
20
462.68473917613045
30
0
10
428.69823637794991
20
454.75393633922664
30
0
10
422.21852549576602
20
455.10780088751005
30
0
10
415.44532309090459
20
454.91261829392215
30
0
10
416.55347902354271
20
449.6745987467865
30
0
10
412.48822911492533
20
447.24254416754826
30
0
10
413.60694214364094
20
441.0479704037449
30
0
10
408.20122662430896
20
438.72654610997381
30
0
10
408.64796557140767
20
433.67614723801353
30
0
10
405.72506085385658
20
433.65080618918199
30
0
10
404.45859647928035
20
430.07060530370126
30
0
10
402.48222301221165
20
426.51001095973783
30
0
10
398.35713339408704
20
424.86623464608266
30
0
10
398.25188743462024
20
419.76205614211085
30
0
10
394.44263211380883
20
418.66441109057712
30
0
10
390.79982511979335
20
419.09384901901876
30
0
10
389.12603294344115
20
414.82085898638343
30
0
10
388.74278027566839
20
410.76840111074546
30
0
10
385.10090712868782
20
411.39215188599502
30
0
10
385.91420460027723
20
407.60974373931759
30
0
10
382.88512032478786
20
405.4779689437118
30
0
10
379.72611441130505
20
403.01882136750714
30
0
10
375.02587164269687
20
403.7514713753028
30
0
10
372.95079474524005
20
399.842132082972
30
0
10
367.02074619638677
20
401.22513455123089
30
0
10
367.86417231838971
20
396.21595350980641
30
0
10
361.51798500125255
20
397.60026161923338
30
0
10
359.9096371086971
20
401.53019217918109
30
0
10
357.80456815044397
20
409.62016572534105
30
0
10
348.53888810016406
20
409.59375682913566
30
0
10
338.02820235997831
20
408.715643312574
30
0
10
326.91590219509629
20
412.31000382708538
30
0
10
317.5021426690667
20
409.14726222287521
30
0
10
310.34635968010741
20
408.35617698366093
30
0
10
306.39736377407064
20
412.86720533201571
30
0
10
300.36474468635413
20
412.25316054830591
30
0
10
296.08219890875239
20
408.46668201399871
30
0
10
289.86355418959528
20
410.83790609432748
30
0
10
286.59160718778514
20
405.39097395981508
30
0
10
277.27514067708478
20
403.3400242779573
30
0
10
266.90953841104044
20
402.97961162152012
30
0
10
260.10974023708684
20
404.32931918963834
30
0
10
254.95036018154997
20
406.52508598701326
30
0
10
248.07816101967865
20
404.59338072485252
30
0
10
239.88483741982958
20
405.41593680244029
30
0
10
232.11231938259311
20
403.29336012206426
30
0
10
226.09295365933752
20
397.58317854945608
30
0
10
215.46304571815739
20
399.8755946110158
30
0
10
215.66479763570334
20
388.12334205715058
30
0
10
207.31787122067192
20
388.85854498287142
30
0
10
205.98342716887311
20
382.59161379726368
30
0
10
200.29583356038714
20
381.11867586227311
30
0
10
189.63205234999404
20
379.45702861058777
30
0
10
193.62428153942034
20
366.23638364563612
30
0
10
192.83032180477051
20
355.33106812622947
30
0
10
201.73393792724011
20
352.33727395096827
30
0
10
205.83512102072586
20
356.58125382076139
30
0
10
211.27409859441269
20
356.20557535214664
30
0
10
219.53301504939063
20
357.62157329996319
30
0
10
215.78026176293912
20
366.48046537256801
30
0
10
219.42226141219251
20
370.31622320986503
30
0
10
220.69645051974558
20
375.10860894552081
30
0
10
225.53760672617744
20
373.60690036297103
30
0
10
229.15296591991788
20
375.41741855660399
30
0
10
233.26733224643888
20
374.50685114397686
30
0
10
234.22741949941556
20
381.00105151589059
30
0
10
233.48994128084527
20
389.37318969751084
30
0
10
243.38885917262331
20
383.01660944829109
30
0
10
249.03011109820534
20
380.13884411045666
30
0
10
251.32133606079543
20
375.338716088865
30
0
10
252.52961841708674
20
371.74936206150312
30
0
10
257.88664265074209
20
373.32629329373776
30
0
10
259.60241638714825
20
369.63867250617352
30
0
10
266.63692867703156
20
368.48279450506175
30
0
10
264.7416303843213
20
368.41961764219633
30
0
10
259.0876001626296
20
366.47177288888912
30
0
10
260.24625372242093
20
362.00399402000096
30
0
10
259.68930064628023
20
358.07587165476548
30
0
10
254.56973848448138
20
357.24613515101674
30
0
10
254.58371940408983
20
353.08310001583783
30
0
10
249.54543370314937
20
349.71436594406077
30
0
10
245.13709297681473
20
344.52523705426063
30
0
10
246.77021147424688
20
337.53900116152266
30
0
10
245.99010783559294
20
331.51856819851076
30
0
10
252.47837535282395
20
330.07836509925374
30
0
10
258.5706276837833
20
329.63281129496744
30
0
10
264.14979836692328
20
320.69839220306562
30
0
10
271.38600336395052
20
326.27424034981317
30
0
10
275.51883217659685
20
319.74990570096617
30
0
10
278.64837111314324
20
324.11265238211143
30
0
10
282.49198719717037
20
325.71725546920328
30
0
10
287.70646293758131
20
324.31560304484009
30
0
10
294.61274759140019
20
324.83470092362541
30
0
10
300.43704485078564
20
320.02416468969216
30
0
10
306.18973503394585
20
321.20069542930366
30
0
10
309.62712210508948
20
317.65192878615017
30
0
10
307.4039375494109
20
313.80044431860875
30
0
10
309.01047379628818
20
308.33152768440408
30
0
10
308.2585156223721
20
299.34693229493485
30
0
10
313.0347196540979
20
288.59372187607966
30
0
10
306.4471083309129
20
282.67198682884219
30
0
10
300.42979315348617
20
284.364056990226
30
0
10
296.65852730909864
20
276.06781973755574
30
0
10
287.91579790685364
20
281.22874456004143
30
0
10
285.24889631847168
20
275.99251189975939
30
0
10
282.26385661382824
20
271.78181624672538
30
0
10
284.07343816818207
20
264.4353664102278
30
0
10
283.80437280914418
20
258.02845181561889
30
0
10
282.91202971872684
20
252.08314601136277
30
0
10
285.91922096036024
20
249.5292132119888
30
0
10
290.4572813324296
20
249.41962038509442
30
0
10
291.10563984313541
20
242.74874055369079
30
0
10
291.50577542087234
20
237.97628314886441
30
0
10
291.5707154897263
20
232.25029740663743
30
0
10
290.30924215961659
20
229.14324792156694
30
0
10
290.13836644473025
20
224.17194785294225
30
0
10
284.00372439224128
20
223.26342813012573
30
0
10
283.50465172814063
20
217.20733548331083
30
0
10
280.57720184783125
20
211.62665877089682
30
0
10
276.34500754775559
20
212.53820466368225
30
0
10
271.76085944591279
20
210.63714102949561
30
0
10
272.97774459121206
20
205.81740913198257
30
0
10
268.47785718602609
20
203.65284696510935
30
0
10
269.15179174782401
20
197.57454221491585
30
0
10
265.2881940202106
20
193.45379040884518
30
0
10
264.53969442246375
20
187.64068953195664
30
0
10
260.19164448781578
20
184.81568615910629
30
0
10
256.69364781282974
20
178.18460027068053
30
0
10
260.28186342510492
20
171.69846495211169
30
0
10
261.35350995111531
20
166.19898764327741
30
0
10
263.60517305863016
20
163.32552015190549
30
0
10
267.57053477109037
20
161.21391568664114
30
0
10
267.75319742976086
20
155.1161581407307
30
0
10
269.40362306453591
20
149.21069236675609
30
0
10
268.59605898938418
20
139.34504620024404
30
0
10
277.32125167281828
20
137.00374141713985
30
0
10
281.80690371110347
20
130.66769074737368
30
0
10
283.62481256930192
20
124.64057251402599
30
0
10
283.39644846136883
20
117.63790236839939
30
0
10
290.03048228440724
20
118.16065492739625
30
0
10
293.06088440772817
20
112.5365684172431
30
0
10
298.75702392170092
20
114.86948382826355
30
0
10
304.22296401289327
20
112.2596895792541
30
0
10
305.68682567492795
20
107.31426870621303
30
0
10
308.66678141381635
20
102.10945134849199
30
0
10
305.11364652555011
20
98.648147135204468
30
0
10
306.74974129495234
20
94.153401054653116
30
0
10
302.70931726534013
20
89.800262516522835
30
0
10
301.04423056573319
20
83.098001875640719
30
0
10
291.56843973267297
20
82.08319054811966
30
0
10
283.64964958674148
20
83.899050689516557
30
0
10
276.40601035922799
20
78.935025204783486
30
0
10
268.49691462656199
20
78.817887059100485
30
0
10
259.19052876660385
20
77.591043598833437
30
0
10
259.88453382627932
20
87.528368047810702
30
0
10
253.64728317980729
20
88.743004697517563
30
0
10
250.63522912346772
20
96.948886333335167
30
0
10
249.29947341998917
20
107.2360800757933
30
0
10
238.64053693798454
20
111.35235611404254
30
0
10
232.66655309376438
20
116.7699684870952
30
0
10
231.19638208428952
20
126.93389429613157
30
0
10
222.31776446894264
20
124.24098241527268
30
0
10
218.6548815677159
20
128.96833438970765
30
0
10
212.72509574853328
20
128.43509279648424
30
0
10
207.37751719531622
20
132.66064293273817
30
0
10
200.83043040773106
20
136.13968296839835
30
0
10
195.70879912427091
20
132.32755132697358
30
0
10
191.47879578644455
20
136.39626712151372
30
0
10
184.30721239460749
20
135.9086993593761
30
0
10
176.74861218775507
20
138.22945786633562
30
0
10
168.81137596655071
20
140.27770363280399
30
0
10
160.36950611124919
20
138.42762110610005
30
0
10
152.96558383042134
20
141.21694930929738
30
0
10
145.50377223334198
20
142.83284865948752
30
0
10
141.19572026164693
20
139.24285169707349
30
0
10
136.54333105580827
20
141.4287867305938
30
0
10
134.01417556166135
20
137.58489822458134
30
0
10
129.64944473243835
20
137.34129274063508
30
0
10
125.98187418887758
20
135.39531410033766
30
0
10
124.10048133648928
20
131.51048172922341
30
0
10
119.14490467640228
20
132.92944511665681
30
0
10
115.5367506004541
20
127.84235708314448
30
0
10
107.59141838858346
20
129.68479373636833
30
0
10
103.86512892162408
20
123.50769051730339
30
0
10
100.8156347973368
20
118.87323151928265
30
0
10
102.40035565407149
20
114.2746810731787
30
0
10
97.773223903198982
20
111.86792736859813
30
0
10
101.81432673275687
20
105.96556770941994
30
0
10
100.58191293720233
20
100.74486982865764
30
0
10
98.493673050365231
20
96.023308904241162
30
0
10
98.583597103636464
20
90.648254571952805
30
0
10
93.544698582403981
20
91.723663424648421
30
0
10
92.518705693529029
20
86.496434492228218
30
0
10
88.526220111002445
20
85.382256370058542
30
0
10
85.008441973373351
20
83.819483624697966
30
0
10
81.764130530096139
20
76.978438454748414
30
0
10
87.853749560770055
20
72.106497264020973
30
0
10
81.899021340510785
20
70.988529082108599
30
0
10
79.622672461299473
20
64.170465684241336
30
0
10
72.035737202900634
20
59.253983243407674
30
0
10
74.916916126175252
20
50.483004334739064
30
0
10
69.340478782408837
20
48.235243428539654
30
0
10
69.530417172734744
20
41.693038127990725
30
0
10
60.348622514511106
20
42.217015948883478
30
0
10
54.734033932021013
20
36.468849474632826
30
0
10
48.052800740518791
20
34.178639014316722
30
0
10
43.611257142957413
20
31.615994882222775
30
0
10
39.016224898408133
20
32.778244429465808
30
0
10
38.250950943893969
20
27.514621227745298
30
0
10
34.780106745384721
20
25.426856351318122
30
0
10
33.552978196751937
20
20.400287539645365
30
0
10
27.198083364301773
20
22.710874265117859
30
0
10
21.815117861434917
20
16.802067957989088
30
0
10
24.50716549821561
20
5.2406359676233887
30
0
10
23.768315281667164
20
-7.7938008675828208
30
0
10
22.056198433285267
20
-22.276526660300895
30
0
10
25.844658231565177
20
-31.632374050138697
30
0
10
32.479368568939847
20
-36.355042329219032
30
0
10
37.31350418713432
20
-32.850635211967472
30
0
10
42.049379904122304
20
-34.592005966127772
30
0
10
43.702257593072282
20
-29.76415057319705
30
0
10
47.200390332050155
20
-27.855228896491312
30
0
10
51.589249018461949
20
-28.498718439772361
30
0
10
56.769069762730993
20
-27.033981868311638
30
0
10
66.413178479728941
20
-26.551996716327203
30
0
10
77.009193780040476
20
-27.414714289944499
30
0
10
88.076070000285711
20
-26.369945006051484
30
0
10
95.713786740864379
20
-30.842192251046452
30
0
10
102.03587296404893
20
-26.979409839058441
30
0
10
107.86494052653836
20
-28.463916760212435
30
0
10
111.97265990448876
20
-24.827681453923969
30
0
10
119.13790096089443
20
-25.72276586465291
30
0
10
126.90530439402501
20
-24.095167248503682
30
0
10
133.69807938953738
20
-30.173579753824654
30
0
10
141.69576623552717
20
-30.860265898715234
30
0
10
149.47544362577992
20
-32.95979094422605
30
0
10
157.15555780487415
20
-31.600241158365595
30
0
10
163.68416073366524
20
-26.106155590625608
30
0
10
165.24851865229579
20
-16.549702398264358
30
0
10
174.75132097073072
20
-16.473311061127522
30
0
10
174.6328282602642
20
-4.8992372787593244
30
0
10
185.03203374372137
20
-7.3496602620013078
30
0
10
192.2389395633094
20
-6.0959859307243889
30
0
10
199.89066092620004
20
-4.5942229286333109
30
0
10
202.39110236693068
20
-11.07154960233431
30
0
10
209.19928746368569
20
-9.3102293638606231
30
0
10
209.75695995562552
20
-17.190952087939479
30
0
10
216.7249180839159
20
-17.413355226639368
30
0
10
217.88614048429099
20
-22.457224083622727
30
0
10
218.94042017759847
20
-29.580227464823366
30
0
10
224.60059492603068
20
-35.851752881521882
30
0
10
226.37224305835053
20
-43.756266097363543
30
0
10
236.56801863304008
20
-45.566737299460591
30
0
10
235.98444538317273
20
-54.626523128125619
30
0
10
237.06202394182714
20
-62.735575293104361
30
0
10
231.90148868179494
20
-70.025005043992479
30
0
10
234.74749960731117
20
-78.438353817365225
30
0
10
231.10033003042687
20
-84.892403208879699
30
0
10
233.67388537705443
20
-90.184008517417141
30
0
10
236.88548651571779
20
-92.682566346684027
30
0
10
238.96830750117454
20
-96.630864981916034
30
0
10
234.51934626558261
20
-98.789581182325236
30
0
10
230.70618367759016
20
-100.66585130307487
30
0
10
232.85027193228532
20
-108.36608046839572
30
0
10
224.33378956246264
20
-106.90206547288012
30
0
10
224.40904108030981
20
-113.71106728310593
30
0
10
219.69976143910614
20
-120.20285007389104
30
0
10
215.8165095887253
20
-132.80546228058819
30
0
10
220.77106768340869
20
-144.92154842737799
30
0
10
224.96419512612596
20
-155.8996284614511
30
0
10
234.14518764045172
20
-157.14404738249667
30
0
10
234.83956246555991
20
-167.09127990888982
30
0
10
242.85945279069469
20
-169.82999895538597
30
0
10
250.45424279515396
20
-170.52677804386857
30
0
10
258.96169048434831
20
-169.48979950830804
30
0
10
260.33946901934911
20
-175.90237807593729
30
0
10
264.813006361124
20
-177.57143833192538
30
0
10
268.56295951915001
20
-181.0434280613313
30
0
10
270.92439651489269
20
-181.14124298095709
30
0
0
SPLINE
5
102
100
AcDbEntity
8
0
100
AcDbSpline
70
2
71
3
72
221
73
217
74
0
42
0.000000001
43
0.0000000001
44
0.0000000001
40
0
40
0
40
0
40
0
40
0.60987210723888485
40
1.2197442144777697
40
2.4394884289555394
40
3.049360536194424
40
3.6592326434333091
40
4.2691047506721942
40
4.8789768579110788
40
5.4888489651499635
40
6.0987210723888481
40
7.3184652868666182
40
7.6234013404860601
40
7.9283373941055029
40
8.5382095013443884
40
9.1480816085832721
40
9.7579537158221576
40
10.977697930299927
40
12.197442144777696
40
13.417186359255467
40
14.636930573733236
40
15.856674788211006
40
17.076419002688777
40
17.686291109927659
40
18.296163217166544
40
18.601099270785987
40
18.90603532440543
40
19.210971378024873
40
19.515907431644315
40
19.820843485263758
40
20.125779538883201
40
20.735651646122086
40
21.345523753360972
40
21.955395860599854
40
22.565267967838736
40
23.175140075077621
40
23.785012182316507
40
24.394884289555392
40
25.004756396794278
40
25.614628504033163
40
26.224500611272049
40
26.834372718510934
40
28.054116932988705
40
29.273861147466473
40
30.49360536194424
40
31.713349576422011
40
32.323221683660897
40
32.933093790899783
40
33.542965898138668
40
34.152838005377554
40
34.762710112616432
40
35.372582219855317
40
36.592326434333089
40
37.81207064881086
40
38.421942756049745
40
39.031814863288631
40
39.641686970527516
40
40.251559077766402
40
40.861431185005287
40
41.16636723862473
40
41.471303292244173
40
42.081175399483058
40
42.691047506721944
40
43.910791721199708
40
44.520663828438586
40
45.130535935677472
40
45.740408042916357
40
46.350280150155243
40
46.655216203774685
40
46.960152257394128
40
47.570024364633014
40
48.789768579110785
40
50.009512793588556
40
50.619384900827441
40
51.229257008066327
40
51.839129115305212
40
52.449001222544098
40
53.058873329782983
40
53.363809383402426
40
53.668745437021869
40
53.973681490641312
40
54.126149517451033
40
54.278617544260754
40
54.88848965149964
40
55.498361758738525
40
55.803297812357968
40
56.108233865977411
40
56.413169919596854
40
56.718105973216296
40
57.327978080455182
40
57.937850187694067
40
58.547722294932946
40
59.157594402171824
40
59.76746650941071
40
60.377338616649595
40
60.987210723888481
40
61.597082831127366
40
62.206954938366252
40
62.816827045605137
40
63.12176309922458
40
63.426699152844023
40
63.731635206463466
40
64.036571260082908
40
64.646443367321794
40
65.866187581799565
40
67.085931796277336
40
67.695803903516222
40
68.000739957135664
40
68.305676010755107
40
69.525420225232864
40
70.745164439710635
40
71.050100493330078
40
71.35503654694952
40
71.964908654188406
40
72.574780761427292
40
73.184652868666177
40
73.794524975905063
40
74.404397083143948
40
74.709333136763391
40
75.014269190382834
40
75.624141297621719
40
76.234013404860605
40
76.84388551209949
40
77.148821565718933
40
77.453757619338376
40
78.063629726577261
40
79.283373941055032
40
80.503118155532803
40
81.112990262771689
40
81.722862370010574
40
82.33273447724946
40
82.637670530868903
40
82.942606584488345
40
83.552478691727231
40
84.162350798966116
40
85.382095013443887
40
85.991967120682773
40
86.296903174302216
40
86.601839227921658
40
87.211711335160544
40
87.516647388779973
40
87.821583442399415
40
88.431455549638287
40
89.041327656877172
40
89.346263710496615
40
89.651199764116058
40
90.261071871354943
40
90.566007924974386
40
90.870943978593829
40
91.480816085832714
40
92.0906881930716
40
92.395624246691042
40
92.700560300310485
40
93.310432407549371
40
93.920304514788256
40
95.140048729266027
40
96.359792943743798
40
97.579537158221569
40
98.189409265460455
40
98.79928137269934
40
99.409153479938226
40
100.01902558717711
40
101.23876980165488
40
102.45851401613265
40
103.67825823061042
40
104.8980024450882
40
105.50787455232708
40
106.11774665956597
40
106.72761876680485
40
107.33749087404372
40
108.55723508852148
40
109.16710719576037
40
109.77697930299925
40
110.38685141023814
40
110.99672351747702
40
111.60659562471591
40
112.21646773195479
40
113.43621194643256
40
114.65595616091034
40
115.26582826814922
40
115.87570037538811
40
117.09544458986588
40
119.53493301882142
40
120.75467723329919
40
121.36454934053808
40
121.97442144777696
40
123.19416566225473
40
124.4139098767325
40
126.85339830568803
40
129.29288673464356
40
131.7323751635991
40
132.95211937807687
40
133.56199148531576
40
134.17186359255464
40
135.39160780703241
40
136.61135202151019
40
137.83109623598796
40
138.44096834322684
40
139.05084045046573
40
139.66071255770461
40
140.2705846649435
40
141.49032887942127
40
143.92981730837681
40
146.36930573733235
40
148.8087941662879
40
151.24828259524344
40
152.46802680972121
40
153.07789891696009
40
153.38283497057955
40
153.68777102419898
40
154.29764313143787
40
154.60257918505732
40
154.90751523867675
40
155.51738734591564
40
155.82232339953509
40
156.12725945315452
40
156.12725945315452
40
156.12725945315452
40
156.12725945315452
10
1463.4243774414062
20
-97.518491744995131
30
0
10
1465.313733408655
20
-98.466988050027581
30
0
10
1469.4128325155386
20
-98.680167255760153
30
0
10
1477.3632933062006
20
-99.697153927860853
30
0
10
1486.2288777108608
20
-99.910958676828812
30
0
10
1492.2484179194387
20
-94.796959794435836
30
0
10
1498.2724777110698
20
-92.866144340562187
30
0
10
1498.7452384169112
20
-85.463381997823774
30
0
10
1506.1720078767007
20
-84.936184084381296
30
0
10
1509.9512692761227
20
-80.490578900231725
30
0
10
1511.1967985803403
20
-72.016217422121699
30
0
10
1517.401498663502
20
-67.494684408017051
30
0
10
1517.4749151136177
20
-60.424972034654189
30
0
10
1522.3659867377776
20
-59.717614488183479
30
0
10
1523.5416771615428
20
-52.69114711625182
30
0
10
1516.07513094858
20
-51.044219709007102
30
0
10
1516.5620509938008
20
-41.764499771802903
30
0
10
1512.2035084645158
20
-32.901163977221813
30
0
10
1512.6948045767315
20
-20.405072166528807
30
0
10
1510.9516532730236
20
-8.1039375765244657
30
0
10
1516.5213719029502
20
3.3772414560892612
30
0
10
1516.6089547245288
20
15.079483278279316
30
0
10
1514.4605279047382
20
25.720452260537506
30
0
10
1512.5129827476476
20
32.422385436144388
30
0
10
1511.0627740931079
20
39.659658290814221
30
0
10
1515.0628771308654
20
40.368326932307298
30
0
10
1517.5027266181476
20
43.073828757759969
30
0
10
1521.1103230494725
20
40.099545369407828
30
0
10
1522.2594007574439
20
45.062310424249063
30
0
10
1525.8277052588526
20
41.751465232085764
30
0
10
1529.0439890821876
20
44.921074314986512
30
0
10
1532.2793286367387
20
48.199791789295233
30
0
10
1534.5735039909955
20
54.967609541507692
30
0
10
1542.3575447471694
20
53.638088979275516
30
0
10
1545.4234206376063
20
58.714347150269418
30
0
10
1552.2326358852899
20
61.392706244256551
30
0
10
1550.1728002661821
20
68.798640704611941
30
0
10
1544.4477639996526
20
71.154852205071649
30
0
10
1541.196082431338
20
77.201938437630218
30
0
10
1533.565458083383
20
75.998647459324559
30
0
10
1533.9294869944931
20
84.91852275510233
30
0
10
1542.6184158059116
20
85.57721188630849
30
0
10
1541.7503667788799
20
98.849538447101452
30
0
10
1548.5968536017872
20
108.37697752496746
30
0
10
1550.3615825424347
20
120.98034632393272
30
0
10
1549.8582810128592
20
130.96572915257235
30
0
10
1553.0101948886295
20
139.04164450213003
30
0
10
1559.1202407440433
20
141.07105202780315
30
0
10
1563.6843004002421
20
144.48185378638277
30
0
10
1569.5106208849775
20
138.52592156069917
30
0
10
1572.8261657740734
20
134.73436976112009
30
0
10
1573.6867766074354
20
125.48973568038775
30
0
10
1584.054768434009
20
122.12469920983082
30
0
10
1593.9391642631301
20
120.84239991047328
30
0
10
1601.9673958636552
20
122.28124313711989
30
0
10
1607.5643954286013
20
123.56221609563389
30
0
10
1613.671190773571
20
125.73361243200486
30
0
10
1614.0384164056152
20
132.71684500228886
30
0
10
1615.9677254382991
20
137.12725870012727
30
0
10
1616.2246017642281
20
141.53095308682009
30
0
10
1621.7913060698313
20
142.21621519037529
30
0
10
1620.9652787953303
20
148.13427430590733
30
0
10
1622.9076723815026
20
155.7933989349429
30
0
10
1626.8859180042818
20
163.40355252502752
30
0
10
1625.8153868265449
20
171.13662594627615
30
0
10
1627.5343290948167
20
178.48411513366847
30
0
10
1635.9027884224749
20
177.33251022552483
30
0
10
1634.4177585904645
20
184.10224758922107
30
0
10
1638.3111862681458
20
186.02047579819572
30
0
10
1638.85122605009
20
190.54425587635598
30
0
10
1641.8357012049801
20
196.71451011103699
30
0
10
1639.6289843776681
20
206.83481222515843
30
0
10
1637.2181993828769
20
218.6262653917853
30
0
10
1628.2796697505364
20
218.79225518609769
30
0
10
1623.3604137677639
20
222.77697629810257
30
0
10
1619.3605981768235
20
226.66706790854118
30
0
10
1611.7289058013237
20
225.52575136142787
30
0
10
1612.7861378314678
20
219.22827215959506
30
0
10
1612.8557181321626
20
214.6704693965284
30
0
10
1608.6123887261479
20
215.51211247483587
30
0
10
1607.5289771030039
20
212.59169164044607
30
0
10
1604.7019952875089
20
213.67281796476999
30
0
10
1605.8828487953524
20
209.58529432975465
30
0
10
1598.8785012931569
20
208.88705159076423
30
0
10
1596.1829336597184
20
212.95735578762645
30
0
10
1596.3834543894463
20
218.09150930854611
30
0
10
1600.6631820251787
20
216.69702165167521
30
0
10
1602.6264931900591
20
216.75591621112113
30
0
10
1600.9368865377976
20
222.69721398973616
30
0
10
1597.77002637175
20
225.30250514935162
30
0
10
1594.7835707954473
20
231.35758419266415
30
0
10
1587.5806326032691
20
232.30259907054949
30
0
10
1588.4848463209244
20
239.85767134397611
30
0
10
1587.7515710109853
20
245.617207267662
30
0
10
1586.9202805579766
20
251.49318247474844
30
0
10
1585.5559052265528
20
258.35616361108191
30
0
10
1578.6104808418829
20
258.66350167846264
30
0
10
1575.2182552236104
20
264.2566215874599
30
0
10
1569.2994170644938
20
263.66570445599496
30
0
10
1565.6091425590582
20
262.41061620175805
30
0
10
1563.6496501273
20
267.40227833976996
30
0
10
1562.0819373602637
20
267.78300837022846
30
0
10
1558.8118976370529
20
264.01943213193925
30
0
10
1550.1702251964264
20
267.19482536554375
30
0
10
1550.0665621032247
20
278.3131185206629
30
0
10
1548.9341272536401
20
288.45840196998
30
0
10
1542.8855230210363
20
293.14733515329357
30
0
10
1539.0446961984303
20
293.62122629386556
30
0
10
1538.1289956539254
20
301.17198640071706
30
0
10
1530.1754894704129
20
306.27468822878541
30
0
10
1524.4039779247396
20
312.87244741106377
30
0
10
1523.2065744198421
20
319.70359284509362
30
0
10
1518.4740788268298
20
319.74476284982404
30
0
10
1514.3289539739399
20
322.461634622269
30
0
10
1515.2151359016293
20
330.10807252435268
30
0
10
1509.4710902605493
20
332.7296781670492
30
0
10
1502.819448603185
20
333.52001257908876
30
0
10
1501.3185587852647
20
338.78113338883111
30
0
10
1499.8172283339929
20
343.21267677368922
30
0
10
1494.8661535648143
20
342.08810671340677
30
0
10
1491.9592259477195
20
347.28328285167095
30
0
10
1494.1863479577344
20
352.86864259438693
30
0
10
1494.191521308815
20
359.2103537489503
30
0
10
1499.9291168418563
20
358.4774048869869
30
0
10
1499.7395546851153
20
362.80598367670001
30
0
10
1501.4071837603319
20
370.01422135515833
30
0
10
1501.7481623874048
20
379.87060748671024
30
0
10
1503.9100742380026
20
389.72297747667449
30
0
10
1500.4148781722472
20
397.7269560673426
30
0
10
1494.2969245371664
20
399.92575148853888
30
0
10
1491.2750773350729
20
404.44560248671172
30
0
10
1490.1908447953842
20
408.19321130746437
30
0
10
1484.6328781058776
20
407.16543544303823
30
0
10
1483.7390439308338
20
415.0581802072881
30
0
10
1475.8511761822967
20
410.63779348523451
30
0
10
1468.0709908845079
20
410.43825376753233
30
0
10
1460.2986892335407
20
410.83099833766414
30
0
10
1458.7322789686402
20
406.00171871431149
30
0
10
1454.2522541510652
20
406.18604647925963
30
0
10
1453.3344204710515
20
401.59196528953191
30
0
10
1448.0010359255245
20
400.93568411055543
30
0
10
1448.8031758361799
20
396.02268916932792
30
0
10
1442.3324025563588
20
394.79218995080407
30
0
10
1442.6549419961407
20
387.49259871883919
30
0
10
1438.0185264921879
20
387.67474795085514
30
0
10
1435.2056572961012
20
384.24983563936098
30
0
10
1429.2572988857455
20
388.40000669985761
30
0
10
1427.4388257198141
20
382.7285955404808
30
0
10
1424.041181967817
20
388.31713968824977
30
0
10
1418.5440552866971
20
385.95615556007664
30
0
10
1414.1491291787479
20
388.53740024332853
30
0
10
1409.1539650247137
20
387.45190035019897
30
0
10
1408.1540100323828
20
392.06976953908764
30
0
10
1404.2131615567052
20
395.35128167906134
30
0
10
1394.9981597381161
20
395.69380992768635
30
0
10
1394.3485018852912
20
409.86287082617605
30
0
10
1380.1734811315157
20
411.18299099722049
30
0
10
1372.4557350211535
20
411.99173997503857
30
0
10
1360.392042827508
20
414.11600543591317
30
0
10
1363.1575039999611
20
408.54951620666276
30
0
10
1362.0908685181307
20
400.98812845310715
30
0
10
1370.9503358146358
20
399.28336600321734
30
0
10
1371.6087696165775
20
387.57045485597246
30
0
10
1372.5597354721717
20
375.87841119225294
30
0
10
1372.7389470544085
20
363.88270358926707
30
0
10
1371.0689809329419
20
352.62431025994766
30
0
10
1376.3043079132553
20
346.94495383838762
30
0
10
1382.4726635821498
20
345.73460672597946
30
0
10
1388.4733693660778
20
343.36730629724912
30
0
10
1390.1433007235187
20
333.96373499549378
30
0
10
1399.8727508235936
20
334.18464395797753
30
0
10
1408.0887370948119
20
333.45492020358216
30
0
10
1411.4779607268144
20
327.88727960502388
30
0
10
1417.4292093455638
20
325.27709049949021
30
0
10
1419.4662685860224
20
318.95640300925879
30
0
10
1426.0004780784907
20
316.70895807662009
30
0
10
1428.9852288638604
20
309.50556640860219
30
0
10
1429.7982643313885
20
298.88634187832997
30
0
10
1431.9358447970719
20
289.36543649647672
30
0
10
1430.614242044611
20
280.34389904923586
30
0
10
1437.711890154465
20
275.08794826680111
30
0
10
1439.4894162978087
20
260.07095168777732
30
0
10
1442.977849680284
20
244.72194222858923
30
0
10
1443.7339479944144
20
230.10729575310455
30
0
10
1446.4600023649484
20
222.71180093051805
30
0
10
1452.3101565281754
20
216.84729712116732
30
0
10
1449.218230650531
20
205.42229903495559
30
0
10
1452.3936961324919
20
189.79536127634225
30
0
10
1454.5653163274776
20
169.38985662329287
30
0
10
1454.4880060216565
20
145.02859669405052
30
0
10
1457.5528426490939
20
124.78078060096927
30
0
10
1460.4820718913465
20
111.16330867787053
30
0
10
1462.3123061488868
20
102.83796339229205
30
0
10
1467.7286131227243
20
97.428942812637658
30
0
10
1477.1089682904003
20
91.371954952144137
30
0
10
1478.657038892519
20
78.637625141242296
30
0
10
1476.4172338135506
20
69.174134112450247
30
0
10
1472.1938004107133
20
62.142664279016714
30
0
10
1468.2034600647357
20
58.031858480455647
30
0
10
1462.309605127143
20
55.136879966590683
30
0
10
1461.6882519491378
20
46.235140229680525
30
0
10
1459.953020982312
20
32.67217779552783
30
0
10
1462.2087161438244
20
12.050337681653103
30
0
10
1464.0785732070799
20
-12.079870124365026
30
0
10
1461.040428938797
20
-36.291548240893896
30
0
10
1464.5679814466316
20
-57.15683090114684
30
0
10
1459.8692253537565
20
-70.251937095314389
30
0
10
1460.5401524319166
20
-78.396905209907914
30
0
10
1457.9681001745003
20
-81.191251539875964
30
0
10
1452.0300558684651
20
-80.991261152827292
30
0
10
1458.1120655597219
20
-85.669067261395554
30
0
10
1457.823553059475
20
-90.022161654639092
30
0
10
1451.4903793575963
20
-90.115128969116185
30
0
10
1461.0744710211929
20
-91.058705906469868
30
0
10
1460.6704402836303
20
-95.674793936363471
30
0
10
1462.4796994577821
20
-97.044243592478949
30
0
10
1463.4243774414062
20
-97.518491744995131
30
0
0
SPLINE
5
103
100
AcDbEntity
8
0
100
AcDbSpline
70
2
71
3
72
31
73
27
74
0
42
0.000000001
43
0.0000000001
44
0.0000000001
40
0
40
0
40
0
40
0
40
0.57610398444966526
40
1.1522079688993305
40
1.7283119533489959
40
2.3044159377986611
40
2.8805199222483262
40
3.4566239066979918
40
4.0327278911476565
40
4.6088318755973221
40
5.1849358600469877
40
5.7610398444966524
40
6.9132478133959836
40
8.065455782295313
40
8.6415597667449795
40
9.2176637511946442
40
9.7937677356443089
40
10.369871720093975
40
11.522079688993305
40
12.098183673442971
40
12.674287657892636
40
13.250391642342301
40
13.826495626791967
40
16.130911564590626
40
17.283119533489959
40
18.435327502389288
40
18.435327502389288
40
18.435327502389288
40
18.435327502389288
10
1431.9244384765623
20
-160.67855834960938
30
0
10
1432.153591669155
20
-160.02631803490794
30
0
10
1432.6454390898878
20
-154.2936392694649
30
0
10
1433.116573133419
20
-149.36523307909104
30
0
10
1433.8802125827724
20
-143.61636322822943
30
0
10
1434.3596390889254
20
-137.23067312770604
30
0
10
1439.7372676834384
20
-134.71266784698079
30
0
10
1446.6276232537882
20
-135.50744884639701
30
0
10
1446.6096660046137
20
-127.37098456610295
30
0
10
1453.7005703710008
20
-127.97871676748042
30
0
10
1459.2085309795661
20
-127.34689030213491
30
0
10
1464.9850228749344
20
-121.68066940400371
30
0
10
1476.2409956856939
20
-122.6337126118176
30
0
10
1478.51686749992
20
-112.06730387534803
30
0
10
1475.8313914595219
20
-103.34930536683913
30
0
10
1470.8987148829096
20
-109.21922811461758
30
0
10
1464.2805206941259
20
-110.2882325778147
30
0
10
1459.8196216838305
20
-103.38846579986102
30
0
10
1451.1681762195785
20
-101.38598840769399
30
0
10
1444.8348819956198
20
-106.36492974900543
30
0
10
1438.5809234123794
20
-106.38869882383737
30
0
10
1435.1245876327212
20
-110.12454485941706
30
0
10
1428.5625759157031
20
-119.89592572208304
30
0
10
1429.8829137589923
20
-135.38548211118118
30
0
10
1430.6836834631936
20
-146.87920769365738
30
0
10
1431.4661320913765
20
-161.98303897901226
30
0
10
1431.9244384765623
20
-160.67855834960938
30
0
0
SPLINE
5
104
100
AcDbEntity
8
0
100
AcDbSpline
70
2
71
3
72
35
73
31
74
0
42
0.000000001
43
0.0000000001
44
0.0000000001
40
0
40
0
40
0
40
0
40
1.1965311537745063
40
2.3930623075490125
40
2.6921950959926391
40
2.9913278844362656
40
3.2904606728798922
40
3.5895934613235188
40
4.1878590382107719
40
4.786124615098025
40
5.9826557688725313
40
7.1791869226470375
40
8.3757180764215438
40
8.973983653308796
40
9.57224923019605
40
9.871382018639677
40
10.170514807083304
40
10.768780383970556
40
11.367045960857808
40
11.965311537745063
40
12.563577114632317
40
13.161842691519569
40
14.358373845294075
40
14.956639422181329
40
15.554904999068581
40
16.153170575955833
40
16.751436152843088
40
17.947967306617592
40
18.546232883504846
40
19.1444984603921
40
19.1444984603921
40
19.1444984603921
40
19.1444984603921
10
1355.4243469238281
20
-261.92945480346685
30
0
10
1359.4337737199698
20
-261.78465600590533
30
0
10
1364.468660304781
20
-254.23507391222336
30
0
10
1371.6117846901986
20
-249.63575484521371
30
0
10
1378.264164811203
20
-248.96819323524497
30
0
10
1378.9844066744408
20
-245.12736247831765
30
0
10
1382.5052221742967
20
-245.42110339247665
30
0
10
1384.6755828719986
20
-242.61846712649654
30
0
10
1385.1228673607895
20
-236.41898092074882
30
0
10
1393.3677762157381
20
-235.38363584332075
30
0
10
1398.3398642152306
20
-225.69173008410502
30
0
10
1401.256108062255
20
-213.85249503898822
30
0
10
1404.444233577603
20
-206.39035493287352
30
0
10
1400.837908894991
20
-193.75400639988499
30
0
10
1399.1464111705127
20
-201.32262044572258
30
0
10
1394.6228383101825
20
-202.12627572157777
30
0
10
1395.2389737275712
20
-207.12978432408471
30
0
10
1391.1188956723515
20
-210.25399416732859
30
0
10
1385.6580306714136
20
-211.98136893012963
30
0
10
1378.8864362506083
20
-211.31993659428761
30
0
10
1376.4637863820872
20
-216.95034903073582
30
0
10
1368.672299640077
20
-218.98934882487941
30
0
10
1359.3061789840162
20
-219.31923110955927
30
0
10
1357.5624602257719
20
-227.69161827133098
30
0
10
1357.0273225749268
20
-234.67194596728748
30
0
10
1349.9814829806619
20
-235.21780767692778
30
0
10
1348.8059009347371
20
-244.35760621173762
30
0
10
1350.597142387438
20
-251.26917219593878
30
0
10
1348.6642149777479
20
-260.3316568751693
30
0
10
1353.4196335257573
20
-262.00185420224756
30
0
10
1355.4243469238281
20
-261.92945480346685
30
0
0
SPLINE
5
105
100
AcDbEntity
8
0
100
AcDbSpline
70
2
71
3
72
38
73
34
74
0
42
0.000000001
43
0.0000000001
44
0.0000000001
40
0
40
0
40
0
40
0
40
0.49880509136364576
40
0.99761018272729152
40
1.4964152740909373
40
1.995220365454583
40
2.9928305481818747
40
3.4916356395455201
40
3.9904407309091661
40
4.489245822272812
40
4.9880509136364575
40
5.9856610963637493
40
6.4844661877273948
40
6.9832712790910403
40
7.4820763704546867
40
7.9808814618183321
40
8.978491644545624
40
9.9761018272729149
40
10.973712010000206
40
11.472517101363852
40
11.971322192727499
40
12.470127284091145
40
12.719529829772966
40
12.96893237545479
40
13.467737466818434
40
13.717140012500257
40
13.966542558182081
40
14.215945103863904
40
14.465347649545727
40
14.71475019522755
40
14.964152740909373
40
15.46295783227302
40
15.961762923636664
40
15.961762923636664
40
15.961762923636664
40
15.961762923636664
10
1292.4243164062498
20
-352.13718414306641
30
0
10
1293.8988141610846
20
-352.05618374153374
30
0
10
1296.5829390125627
20
-349.16101150839182
30
0
10
1300.6108491821328
20
-347.02290680820289
30
0
10
1304.2738612987384
20
-343.25790291312262
30
0
10
1303.4812242518942
20
-335.57952096313755
30
0
10
1315.0168080755575
20
-339.25553820139788
30
0
10
1316.4725410252688
20
-332.1475711046707
30
0
10
1319.4092820064516
20
-328.60068271733149
30
0
10
1321.1495450843772
20
-323.77586672893671
30
0
10
1325.881940766893
20
-319.08351028019518
30
0
10
1325.2804249100891
20
-311.56000570768549
30
0
10
1331.4865716147206
20
-306.67736609516385
30
0
10
1326.2241590477822
20
-301.90682266570957
30
0
10
1321.2844592702438
20
-301.54394278864038
30
0
10
1316.6962499406757
20
-305.66682457154081
30
0
10
1319.5343570570196
20
-317.43258623276301
30
0
10
1304.1305418303905
20
-314.75856280867185
30
0
10
1305.0896337264921
20
-325.37191365696651
30
0
10
1299.8706415000549
20
-328.42074010417087
30
0
10
1295.5611459270121
20
-329.75751828545577
30
0
10
1295.9772988663897
20
-336.60005640085569
30
0
10
1291.7945587052418
20
-334.91314517862355
30
0
10
1291.010820246071
20
-339.22008021781716
30
0
10
1288.6381011225226
20
-341.47784011749985
30
0
10
1291.4692481009795
20
-345.60261059579153
30
0
10
1290.5016512290131
20
-346.2749672250896
30
0
10
1286.5958415157936
20
-345.76904081718601
30
0
10
1285.3655153406362
20
-347.09444927214889
30
0
10
1280.8477359692893
20
-346.56043320363642
30
0
10
1284.213866584563
20
-349.32429309876852
30
0
10
1287.7359524835529
20
-349.64701391758757
30
0
10
1290.9498186514147
20
-352.21818454459901
30
0
10
1292.4243164062498
20
-352.13718414306641
30
0
0
SPLINE
5
106
100
AcDbEntity
8
0
100
AcDbSpline
70
2
71
3
72
29
73
25
74
0
42
0.000000001
43
0.0000000001
44
0.0000000001
40
0
40
0
40
0
40
0
40
0.51090495875863207
40
1.0218099175172641
40
1.2772623968965802
40
1.5327148762758962
40
2.0436198350345283
40
2.2990723144138441
40
2.5545247937931603
40
2.8099772731724766
40
3.0654297525517924
40
3.5763347113104245
40
3.8317871906897407
40
4.0872396700690565
40
4.5981446288276882
40
5.1090495875863207
40
5.3645020669656365
40
5.6199545463449532
40
6.1308595051035848
40
6.6417644638622164
40
7.1526694226208489
40
7.4081219020001647
40
7.6635743813794814
40
8.1744793401381131
40
8.1744793401381131
40
8.1744793401381131
40
8.1744793401381131
10
1224.9243927001953
20
-383.62945556640625
30
0
10
1224.9290796435105
20
-383.92221605414414
30
0
10
1230.6937914137993
20
-384.07608184866422
30
0
10
1234.0538549460975
20
-387.13970666381772
30
0
10
1235.4924892573883
20
-382.77593257678245
30
0
10
1239.849571168849
20
-383.99960809785108
30
0
10
1243.3821182105155
20
-384.12092398212855
30
0
10
1244.0248019095325
20
-380.14986349238472
30
0
10
1247.8815823197751
20
-379.03977390491991
30
0
10
1245.4919900034065
20
-377.05886928152523
30
0
10
1249.1613987459136
20
-374.91793230783765
30
0
10
1253.9633166949548
20
-375.97021910836224
30
0
10
1251.9745189230644
20
-371.47235312655346
30
0
10
1256.2529795085713
20
-369.15915955958332
30
0
10
1249.4722976426553
20
-368.16253618442596
30
0
10
1245.4742428088691
20
-369.13249558859457
30
0
10
1246.9221533876926
20
-373.77855967187401
30
0
10
1242.3357029811448
20
-372.52293878073993
30
0
10
1238.2914602705921
20
-372.87431433763902
30
0
10
1234.114450177248
20
-374.60122414033549
30
0
10
1230.1534288779237
20
-378.17970594873236
30
0
10
1233.3266077379824
20
-382.14018542013412
30
0
10
1229.2291787546519
20
-382.57381296134486
30
0
10
1224.9197057568801
20
-383.33669507866836
30
0
10
1224.9243927001953
20
-383.62945556640625
30
0
0
SPLINE
5
107
100
AcDbEntity
8
0
100
AcDbSpline
70
2
71
3
72
32
73
28
74
0
42
0.000000001
43
0.0000000001
44
0.0000000001
40
0
40
0
40
0
40
0
40
0.45737419983766114
40
0.91474839967532229
40
1.8294967993506446
40
2.7442451990259666
40
3.6589935987012892
40
4.1163677985389509
40
4.5737419983766117
40
5.0311161982142725
40
5.4884903980519333
40
6.4032387977272558
40
7.3179871974025783
40
7.77536139724024
40
8.2327355970779017
40
8.6901097969155625
40
9.1474839967532233
40
9.6048581965908841
40
10.062232396428545
40
10.519606596266206
40
10.976980796103867
40
11.434354995941527
40
11.891729195779188
40
12.806477595454512
40
13.263851795292172
40
13.721225995129835
40
14.635974394805157
40
14.635974394805157
40
14.635974394805157
40
14.635974394805157
10
1013.4243774414061
20
39.423754215240471
30
0
10
1014.578243350094
20
39.005629570296605
30
0
10
1018.1307470812719
20
39.73043282295081
30
0
10
1024.1508719452404
20
38.070137447613611
30
0
10
1030.3945945566247
20
44.028804555167483
30
0
10
1027.40568512037
20
54.196379067190925
30
0
10
1031.998610344717
20
59.954921236788834
30
0
10
1033.4160417674432
20
66.497059395579868
30
0
10
1038.7744247872217
20
67.620676966986352
30
0
10
1039.1343055799009
20
72.519421818457076
30
0
10
1046.0115786177876
20
75.294655082922787
30
0
10
1040.0596918168762
20
83.919954734256095
30
0
10
1035.9323581568246
20
89.883513804935674
30
0
10
1028.6725292157732
20
87.779827248593122
30
0
10
1027.2700631687849
20
82.626287871759871
30
0
10
1021.4218387346385
20
84.510483531433465
30
0
10
1020.2460531682325
20
78.806892767237059
30
0
10
1018.2644257947453
20
75.354779482482272
30
0
10
1019.2921291187281
20
68.997974388253908
30
0
10
1012.2632347535108
20
70.827123575961537
30
0
10
1012.5414584350488
20
64.890532531095673
30
0
10
1009.3539468238463
20
61.437747299038072
30
0
10
1002.1946235068862
20
62.537518500445437
30
0
10
1001.4633216315181
20
50.790391893924898
30
0
10
1008.840303060912
20
52.048289430719322
30
0
10
1011.3893636393732
20
46.19753506758564
30
0
10
1011.1166456240303
20
40.260003505128203
30
0
10
1013.4243774414061
20
39.423754215240471
30
0
0
SPLINE
5
108
100
AcDbEntity
8
0
100
AcDbSpline
70
2
71
3
72
21
73
17
74
0
42
0.000000001
43
0.0000000001
44
0.0000000001
40
0
40
0
40
0
40
0
40
0.56060111420636338
40
1.1212022284127268
40
1.6818033426190901
40
2.2424044568254535
40
3.3636066852381803
40
3.9242077994445435
40
4.4848089136509071
40
5.0454100278572707
40
5.6060111420636343
40
6.7272133704763606
40
7.2878144846827233
40
7.8484155988890869
40
8.4090167130954505
40
8.9696178273018141
40
8.9696178273018141
40
8.9696178273018141
40
8.9696178273018141
10
959.42436218261707
20
118.57640266418457
30
0
10
960.98491872031047
20
118.0580296495782
30
0
10
965.25132141492099
20
119.30782605849215
30
0
10
970.12888448692524
20
120.28794111642495
30
0
10
976.97661712710612
20
119.68295811909746
30
0
10
978.44532318885615
20
127.30673412385487
30
0
10
981.02042337792318
20
134.67997594916818
30
0
10
978.86316154898793
20
141.48824920824117
30
0
10
979.43351529421022
20
148.26853563206049
30
0
10
971.49341858041521
20
149.23600890802086
30
0
10
970.5696389643058
20
139.64348789105725
30
0
10
958.24455397998076
20
141.79028135806917
30
0
10
959.87878337437496
20
132.43249218139366
30
0
10
956.76308144008021
20
127.89570959137224
30
0
10
955.88798218876047
20
122.41806414613035
30
0
10
957.86380564492356
20
119.09477567879094
30
0
10
959.42436218261707
20
118.57640266418457
30
0
0
SPLINE
5
109
100
AcDbEntity
8
0
100
AcDbSpline
70
2
71
3
72
25
73
21
74
0
42
0.000000001
43
0.0000000001
44
0.0000000001
40
0
40
0
40
0
40
0
40
0.70978284678107861
40
1.4195656935621572
40
2.1293485403432357
40
2.4842399637337751
40
2.8391313871243145
40
3.1940228105148538
40
3.5489142339053927
40
4.2586970806864715
40
4.9684799274675502
40
5.6782627742486289
40
6.3880456210297076
40
7.0978284678107855
40
7.8076113145918642
40
8.5173941613729429
40
9.2271770081540225
40
9.9369598549351004
40
10.646742701716178
40
11.356525548497258
40
11.356525548497258
40
11.356525548497258
40
11.356525548497258
10
446.4244079589846
20
-216.63047790527349
30
0
10
447.83192014449236
20
-217.73265261232814
30
0
10
453.94981988692024
20
-215.24605442900861
30
0
10
461.02052155471358
20
-219.83625830550747
30
0
10
464.36498613297653
20
-213.86110896691548
30
0
10
469.83277981016886
20
-213.59574606198379
30
0
10
469.56208516812177
20
-209.42663756201625
30
0
10
469.36983175005969
20
-205.30691798582794
30
0
10
462.46037858718915
20
-207.24984268581534
30
0
10
463.46301053454533
20
-198.41816258280141
30
0
10
457.07394233163859
20
-195.13494305062832
30
0
10
455.85707519251201
20
-186.72795895915783
30
0
10
447.00879154518981
20
-187.94053475131233
30
0
10
442.40417136700148
20
-180.47778083226294
30
0
10
435.11231884660742
20
-186.39762722399638
30
0
10
432.69345608459156
20
-192.31583331182463
30
0
10
437.20667215411095
20
-199.09165603793315
30
0
10
437.18920042240654
20
-206.0775763568854
30
0
10
445.50474677387336
20
-208.63300618668086
30
0
10
445.01689577347679
20
-215.52830319821891
30
0
10
446.4244079589846
20
-216.63047790527349
30
0
0
SPLINE
5
110
100
AcDbEntity
8
0
100
AcDbSpline
70
2
71
3
72
22
73
18
74
0
42
0.000000001
43
0.0000000001
44
0.0000000001
40
0
40
0
40
0
40
0
40
0.5349313035000548
40
1.0698626070001096
40
1.6047939105001645
40
2.1397252140002192
40
2.4071908657502465
40
2.6746565175002743
40
3.209587821000329
40
4.2794504280004384
40
4.8143817315004931
40
5.3493130350005487
40
5.8842443385006034
40
6.419175642000658
40
7.4890382490007674
40
8.023969552500823
40
8.5589008560008768
40
8.5589008560008768
40
8.5589008560008768
40
8.5589008560008768
10
873.92440795898438
20
807.0197296142577
30
0
10
875.02615260904463
20
806.36463146016933
30
0
10
879.37464499345299
20
808.55690864977589
30
0
10
884.37834748387672
20
808.75906650633897
30
0
10
889.09939459060433
20
811.77543810641691
30
0
10
893.31873409887532
20
812.96998489224154
30
0
10
897.1041699494092
20
811.54420670253921
30
0
10
897.41462920236597
20
816.21016035114371
30
0
10
896.52175945702902
20
822.30147770913288
30
0
10
888.55399793311005
20
824.78950980107857
30
0
10
883.01043565935288
20
829.37618971026291
30
0
10
877.40334407153739
20
828.56284785422929
30
0
10
873.20349392750336
20
835.9281882974069
30
0
10
872.35620040645586
20
824.74827745474522
30
0
10
870.7617638264685
20
819.16422366039126
30
0
10
872.76417709309112
20
812.48749757430517
30
0
10
872.82266330892401
20
807.67482776834584
30
0
10
873.92440795898438
20
807.0197296142577
30
0
0
ENDSEC
0
SECTION
2
OBJECTS
0
DICTIONARY
5
C
100
AcDbDictionary
3
ACAD_GROUP
350
D
3
ACAD_MLINESTYLE
350
17
0
DICTIONARY
5
D
100
AcDbDictionary
0
DICTIONARY
5
1A
330
C
100
AcDbDictionary
0
DICTIONARY
5
17
100
AcDbDictionary
0
ENDSEC
0
EOF
