0
SECTION
2
HEADER
9
$INSUNITS
70
4
9
$ACADVER
1
AC1014
9
$HANDSEED
5
FFFF
0
ENDSEC
0
SECTION
2
TABLES
0
TABLE
2
VPORT
5
8
100
AcDbSymbolTable
0
ENDTAB
0
TABLE
2
LTYPE
5
5
100
AcDbSymbolTable
0
LTYPE
5
14
100
AcDbSymbolTableRecord
100
AcDbLinetypeTableRecord
2
BYBLOCK
70
0
0
LTYPE
5
15
100
AcDbSymbolTableRecord
100
AcDbLinetypeTableRecord
2
BYLAYER
70
0
0
LTYPE
5
16
100
AcDbSymbolTableRecord
100
AcDbLinetypeTableRecord
2
DASHED
70
0
3
Dashed __ __ __ __ __ __ __ __ __ __ __ __ __ _
72
65
73
2
40
0.75
49
0.5
74
0
49
-0.25
74
0
0
ENDTAB
0
TABLE
2
LAYER
5
2
100
AcDbSymbolTable
70
2
0
LAYER
5
50
100
AcDbSymbolTableRecord
100
AcDbLayerTableRecord
2
0
70
0
62
7
6
CONTINUOUS
0
ENDTAB
0
TABLE
2
STYLE
5
3
100
AcDbSymbolTable
70
1
0
STYLE
5
11
100
AcDbSymbolTableRecord
100
AcDbTextStyleTableRecord
2
STANDARD
70
0
0
ENDTAB
0
TABLE
2
VIEW
5
6
100
AcDbSymbolTable
70
0
0
ENDTAB
0
TABLE
2
UCS
5
7
100
AcDbSymbolTable
70
0
0
ENDTAB
0
TABLE
2
APPID
5
9
100
AcDbSymbolTable
70
2
0
APPID
5
12
100
AcDbSymbolTableRecord
100
AcDbRegAppTableRecord
2
ACAD
70
0
0
ENDTAB
0
TABLE
2
DIMSTYLE
5
A
100
AcDbSymbolTable
70
1
0
ENDTAB
0
TABLE
2
BLOCK_RECORD
5
1
100
AcDbSymbolTable
70
1
0
BLOCK_RECORD
5
1F
100
AcDbSymbolTableRecord
100
AcDbBlockTableRecord
2
*MODEL_SPACE
0
BLOCK_RECORD
5
1B
100
AcDbSymbolTableRecord
100
AcDbBlockTableRecord
2
*PAPER_SPACE
0
ENDTAB
0
ENDSEC
0
SECTION
2
BLOCKS
0
BLOCK
5
20
100
AcDbEntity
100
AcDbBlockBegin
2
*MODEL_SPACE
0
ENDBLK
5
21
100
AcDbEntity
100
AcDbBlockEnd
0
BLOCK
5
1C
100
AcDbEntity
100
AcDbBlockBegin
2
*PAPER_SPACE
0
ENDBLK
5
1D
100
AcDbEntity
100
AcDbBlockEnd
0
ENDSEC
0
SECTION
2
ENTITIES
0
LWPOLYLINE
5
100
100
AcDbEntity
8
0
100
AcDbPolyline
90
4
70
1
43
0.0
10
1900
20
-800
10
0
20
-800
10
0
20
900
10
1900
20
900
0
SPLINE
5
101
100
AcDbEntity
8
0
100
AcDbSpline
70
2
71
3
72
184
73
180
74
0
42
0.000000001
43
0.0000000001
44
0.0000000001
40
0
40
0
40
0
40
0
40
0.84688973764404052
40
1.693779475288081
40
2.1172243441101015
40
2.5406692129321216
40
2.9641140817541416
40
3.3875589505761621
40
3.8110038193981826
40
4.234448688220203
40
5.0813384258642431
40
5.9282281635082832
40
6.3516730323303037
40
6.7751179011523242
40
7.6220076387963651
40
8.4688973764404061
40
9.315787114084447
40
9.5275095484954573
40
9.7392319829064675
40
10.162676851728486
40
11.856456327016566
40
12.279901195838587
40
12.703346064660607
40
13.550235802304648
40
14.397125539948689
40
14.82057040877071
40
15.24401527759273
40
16.090905015236771
40
16.937794752880812
40
17.784684490524853
40
18.208129359346874
40
18.631574228168894
40
19.478463965812935
40
20.325353703456972
40
21.17224344110101
40
21.59568830992303
40
22.019133178745051
40
22.866022916389092
40
23.712912654033133
40
24.559802391677174
40
25.406692129321215
40
26.253581866965256
40
27.100471604609297
40
27.523916473431317
40
27.947361342253338
40
28.794251079897379
40
29.641140817541419
40
30.06458568636344
40
30.48803055518546
40
31.334920292829501
40
31.758365161651522
40
32.181810030473542
40
32.605254899295559
40
33.028699768117583
40
33.452144636939607
40
33.875589505761624
40
34.299034374583641
40
34.722479243405665
40
35.145924112227689
40
35.569368981049706
40
36.416258718693747
40
37.263148456337788
40
38.110038193981829
40
38.533483062803853
40
38.95692793162587
40
39.803817669269904
40
40.650707406913945
40
42.34448688220202
40
43.191376619846061
40
43.614821488668085
40
44.038266357490102
40
44.885156095134143
40
45.732045832778184
40
46.578935570422225
40
47.425825308066266
40
48.272715045710306
40
49.119604783354347
40
49.966494520998388
40
50.389939389820412
40
50.813384258642429
40
51.236829127464446
40
51.66027399628647
40
52.083718865108494
40
52.507163733930511
40
52.930608602752528
40
53.354053471574552
40
54.200943209218593
40
55.894722684506675
40
57.588502159794757
40
58.435391897438798
40
59.282281635082839
40
59.705726503904856
40
60.12917137272688
40
60.552616241548904
40
60.976061110370921
40
61.399505979192938
40
61.822950848014962
40
62.669840585659003
40
63.516730323303044
40
63.940175192125068
40
64.363620060947085
40
64.787064929769102
40
65.210509798591119
40
65.63395466741315
40
66.057399536235167
40
66.904289273879215
40
67.751179011523249
40
68.174623880345266
40
68.598068749167282
40
69.444958486811331
40
69.868403355633347
40
70.291848224455379
40
70.715293093277396
40
71.138737962099412
40
71.562182830921429
40
71.985627699743446
40
72.832517437387494
40
73.679407175031542
40
74.102852043853559
40
74.526296912675576
40
74.949741781497593
40
75.37318665031961
40
76.220076387963658
40
76.643521256785675
40
77.066966125607706
40
77.91385586325174
40
78.337300732073757
40
78.760745600895774
40
79.184190469717805
40
79.607635338539822
40
80.031080207361839
40
80.45452507618387
40
80.877969945005887
40
81.301414813827904
40
82.148304551471938
40
82.571749420293969
40
82.995194289115986
40
83.418639157938003
40
83.842084026760034
40
84.688973764404068
40
85.535863502048102
40
85.959308370870133
40
86.38275323969215
40
86.806198108514167
40
87.229642977336198
40
88.076532714980232
40
88.499977583802249
40
88.923422452624266
40
89.346867321446297
40
89.770312190268314
40
90.617201927912362
40
91.464091665556396
40
92.310981403200429
40
92.734426272022461
40
93.157871140844478
40
94.004760878488526
40
94.851650616132559
40
95.275095484954576
40
95.698540353776593
40
96.545430091420641
40
96.968874960242658
40
97.392319829064689
40
97.815764697886706
40
98.239209566708723
40
99.086099304352757
40
99.509544173174774
40
99.932989041996791
40
100.77987877964082
40
101.62676851728487
40
102.47365825492892
40
103.32054799257295
40
104.16743773021699
40
104.59088259903901
40
105.01432746786102
40
105.43777233668304
40
105.86121720550506
40
106.7081069431491
40
107.55499668079315
40
108.40188641843719
40
108.40188641843719
40
108.40188641843719
40
108.40188641843719
10
158.42438697814941
20
570.792236328125
30
0
10
160.62518990648798
20
571.34939689673024
30
0
10
163.35865702037808
20
577.78520972327465
30
0
10
169.2244707452374
20
582.70898872796465
30
0
10
165.37819648959578
20
589.46458865591455
30
0
10
170.60491475923013
20
590.61927755929412
30
0
10
172.2454362909416
20
593.2572475111798
30
0
10
175.202016972118
20
596.50310874681645
30
0
10
177.07310781309801
20
600.44889899391308
30
0
10
183.5511395092868
20
599.82369999334298
30
0
10
190.07544102953278
20
599.84016246668079
30
0
10
197.58037900138703
20
602.52622909750198
30
0
10
202.38957776127302
20
598.67152792698846
30
0
10
207.89466571506975
20
598.88784965173249
30
0
10
216.01588576170968
20
596.37863001754056
30
0
10
220.99980653615029
20
604.65717376218254
30
0
10
226.46323407021313
20
606.93402038548447
30
0
10
231.95542575713506
20
604.74343296266716
30
0
10
232.40508008755867
20
608.48226491057994
30
0
10
241.18659541712742
20
607.06695529613262
30
0
10
247.93933051998479
20
608.43042203288417
30
0
10
258.09862427083851
20
607.23120601441201
30
0
10
258.84323679042342
20
613.17167637777266
30
0
10
266.989151258064
20
614.80873348458636
30
0
10
267.10625833043264
20
624.0007952986299
30
0
10
261.54408276538459
20
626.48048569179036
30
0
10
260.54436048710136
20
632.53659699604555
30
0
10
264.04757037002571
20
638.97175357654214
30
0
10
263.59520799617286
20
647.46413573143718
30
0
10
265.87139854900187
20
653.28061024054023
30
0
10
265.14913377425012
20
661.09064413459555
30
0
10
273.15428341407005
20
658.84577804230184
30
0
10
271.09076242141379
20
670.22412987735242
30
0
10
260.47084893969378
20
668.77882046323953
30
0
10
259.95601498003617
20
679.77661784303848
30
0
10
253.51753824843857
20
678.47034279975605
30
0
10
249.17529323822134
20
682.78835268442072
30
0
10
241.93390353583399
20
682.9507213777556
30
0
10
234.424000824275
20
686.5172404937075
30
0
10
226.33189296270243
20
689.34912092924208
30
0
10
217.49961908612323
20
685.76556641209368
30
0
10
210.58768823600332
20
691.79142527811314
30
0
10
202.43719081156868
20
689.55900309740036
30
0
10
199.76773245829787
20
696.05290604227821
30
0
10
193.64496522284816
20
695.90474967437808
30
0
10
187.47748573749715
20
699.35799118736691
30
0
10
181.4893316338227
20
703.39117488765487
30
0
10
174.71261777055417
20
698.9743169579101
30
0
10
172.65251618134249
20
704.9523368402688
30
0
10
173.26425358687897
20
709.78433157913344
30
0
10
176.60795583705118
20
715.2546805803679
30
0
10
181.56819372764949
20
713.97805727821697
30
0
10
185.99677353693511
20
713.83115334458444
30
0
10
188.14055530657612
20
718.15712680359502
30
0
10
191.2738340674795
20
720.67036370363041
30
0
10
193.13516485020185
20
724.33304050886795
30
0
10
197.01513470188576
20
725.52564376001078
30
0
10
200.4631557985166
20
727.75414875965612
30
0
10
198.37232896033015
20
732.64157643958708
30
0
10
202.46945567489416
20
737.22420310079792
30
0
10
204.60271885651264
20
743.7352531127566
30
0
10
214.22735157387194
20
746.31770277762917
30
0
10
211.90707717101026
20
756.30338588803227
30
0
10
213.23111588052794
20
759.71765641194668
30
0
10
219.07983265829571
20
764.2915186967565
30
0
10
211.03903425351888
20
769.38426985950389
30
0
10
211.92917933425633
20
780.96438552406823
30
0
10
210.84907736126937
20
792.36345721139173
30
0
10
209.46866758359633
20
801.61647770031891
30
0
10
208.78325971926364
20
808.04694464664908
30
0
10
202.96526136214024
20
809.61889884304026
30
0
10
196.33837848745659
20
813.05258644034041
30
0
10
194.88479110977877
20
822.22914818349864
30
0
10
187.8250430263173
20
827.4671131157977
30
0
10
187.11631067694071
20
837.28386231765649
30
0
10
177.74986711898345
20
839.92079841849068
30
0
10
172.97620414706978
20
846.43033039769398
30
0
10
169.40635160146357
20
852.93208697738066
30
0
10
163.62345547322971
20
855.22917343517611
30
0
10
159.7542427245989
20
852.65991228624387
30
0
10
156.62213253021704
20
855.34125257031462
30
0
10
155.63058882091394
20
859.35718435430874
30
0
10
158.15987174614673
20
864.15007426833131
30
0
10
152.53538744340182
20
865.20633810589425
30
0
10
148.59839568235915
20
864.79614436676331
30
0
10
143.64894240225948
20
868.53243248962599
30
0
10
133.58547894700712
20
867.10556172023325
30
0
10
119.33040054507124
20
868.21994208453111
30
0
10
106.0861688965045
20
866.88260510646637
30
0
10
92.979344612373438
20
869.02824279063964
30
0
10
90.954043668748596
20
861.24715643839386
30
0
10
91.397489271713269
20
855.32795305988247
30
0
10
87.856671833269957
20
852.53955832725796
30
0
10
89.534232839127185
20
848.26594850859397
30
0
10
83.223588003061124
20
846.34671163773532
30
0
10
86.844757491333212
20
841.74802111330314
30
0
10
80.672697096944219
20
838.14210177730854
30
0
10
82.092209196552631
20
830.61346635019254
30
0
10
79.100349386142483
20
824.60613110663553
30
0
10
78.207920439429529
20
818.33136790147375
30
0
10
73.063016790992791
20
817.48335867237529
30
0
10
72.721762157549946
20
812.742963097038
30
0
10
68.457915322564475
20
809.55894973875047
30
0
10
72.063106070651926
20
805.5091647379536
30
0
10
70.89727005709446
20
799.77633784035288
30
0
10
74.848672444955184
20
793.59609098405781
30
0
10
81.006654656376583
20
788.45541174869732
30
0
10
78.6784607903531
20
782.10330591439345
30
0
10
84.253487187974855
20
778.4573355176874
30
0
10
89.989669925167277
20
779.84131401453624
30
0
10
95.052952773086076
20
775.81066395869527
30
0
10
98.824874697365885
20
777.95363962212321
30
0
10
101.83272612067407
20
781.29394545901823
30
0
10
106.43164973815202
20
779.76548636042048
30
0
10
110.40119695635192
20
782.75647384890976
30
0
10
114.03524044803225
20
775.59363835861052
30
0
10
113.85968250324039
20
769.35737750182273
30
0
10
110.19845330575566
20
761.93755426268831
30
0
10
104.089371975989
20
760.93594687004929
30
0
10
102.61326423573942
20
756.37634849437177
30
0
10
99.073101781019517
20
754.51789542851418
30
0
10
98.425308548877837
20
747.88329722603123
30
0
10
99.008370914824127
20
743.43188340796644
30
0
10
98.862179998713998
20
736.42663624745921
30
0
10
104.60164378379723
20
736.03615597396333
30
0
10
111.26249456085998
20
734.66790914991418
30
0
10
113.32129930267028
20
741.83481918821496
30
0
10
117.95010240691394
20
738.5469030384013
30
0
10
122.38852947890386
20
738.63032570699386
30
0
10
125.58256666953068
20
740.99769230998277
30
0
10
130.15524950729213
20
739.15849060707524
30
0
10
133.9491029936585
20
739.33757342021363
30
0
10
137.53354970231953
20
736.40221395620961
30
0
10
132.9390403556942
20
731.63870777872239
30
0
10
137.38795554433972
20
723.63802643806264
30
0
10
129.93819672255262
20
724.27168628548156
30
0
10
126.46136540842649
20
722.02428471047597
30
0
10
124.05065397033964
20
718.17725549682052
30
0
10
118.91526507575151
20
717.38984045952657
30
0
10
109.44329611853348
20
715.69925211078169
30
0
10
117.32400208520377
20
706.54299863405981
30
0
10
111.94099227920404
20
702.49888734130695
30
0
10
114.19549938462062
20
697.01525301661331
30
0
10
106.13961238477114
20
697.66153087089583
30
0
10
117.48145610392689
20
696.30012760959687
30
0
10
116.40129236527287
20
689.93539489145041
30
0
10
114.98859539834501
20
683.832662990382
30
0
10
118.09764568547715
20
681.61078122065635
30
0
10
122.48489225227893
20
681.82185541005674
30
0
10
128.23985359021316
20
680.50347793835181
30
0
10
133.09006248039523
20
687.93282635622802
30
0
10
141.15943143547722
20
685.02325781056379
30
0
10
148.79495625957355
20
687.04201214215857
30
0
10
153.32512570722707
20
683.3729740934923
30
0
10
159.22182389596406
20
681.25919631173815
30
0
10
158.78317188933752
20
673.80846400982773
30
0
10
159.32438006497344
20
666.86396804984406
30
0
10
158.01085646159265
20
661.19263025460452
30
0
10
152.68587998371541
20
659.11184370121589
30
0
10
150.2362337831799
20
652.82159971687588
30
0
10
143.60865837754457
20
654.67749305844848
30
0
10
140.5575648868988
20
653.9557481989923
30
0
10
137.99796798509644
20
650.25712068148869
30
0
10
133.05823578823873
20
647.17964311963351
30
0
10
134.33377885535003
20
640.64550635100227
30
0
10
132.01107349485707
20
634.8358968738064
30
0
10
125.1894846411727
20
634.67083077943528
30
0
10
124.66691819608249
20
625.95863792947239
30
0
10
122.32546810696404
20
618.41789992220629
30
0
10
125.46985811950769
20
608.83059499707792
30
0
10
134.38751804808209
20
607.48223012500421
30
0
10
137.72354635107817
20
599.96061304034674
30
0
10
142.70314933987152
20
598.37379686221527
30
0
10
145.00918231945067
20
593.09297448685948
30
0
10
150.356734503696
20
597.5703863826111
30
0
10
150.51286095577794
20
588.58253544362333
30
0
10
150.83380909352377
20
583.5971661251665
30
0
10
150.1538394503466
20
574.44224631164343
30
0
10
156.22358404981085
20
570.23507575951976
30
0
10
158.42438697814941
20
570.792236328125
30
0
0
SPLINE
5
102
100
AcDbEntity
8
0
100
AcDbSpline
70
2
71
3
72
119
73
115
74
0
42
0.000000001
43
0.0000000001
44
0.0000000001
40
0
40
0
40
0
40
0
40
1.0779507897084393
40
1.6169261845626588
40
2.1559015794168785
40
3.2338523691253176
40
4.3118031588337571
40
4.8507785536879773
40
5.3897539485421966
40
5.9287293433964159
40
6.4677047382506352
40
7.0066801331048545
40
7.5456555279590747
40
8.0846309228132949
40
8.3541186202404045
40
8.6236063176675142
40
9.1625817125217353
40
9.7015571073759546
40
10.779507897084393
40
11.318483291938612
40
11.857458686792832
40
12.396434081647051
40
12.93540947650127
40
13.47438487135549
40
14.013360266209709
40
14.552335661063928
40
15.091311055918149
40
16.16926184562659
40
17.247212635335028
40
18.325163425043471
40
19.403114214751909
40
20.481065004460348
40
21.559015794168786
40
22.097991189023006
40
22.636966583877225
40
23.175941978731444
40
23.445429676158554
40
23.714917373585664
40
23.984405071012773
40
24.253892768439883
40
24.792868163294102
40
25.331843558148321
40
25.870818953002541
40
26.40979434785676
40
26.948769742710979
40
27.487745137565199
40
28.026720532419418
40
29.104671322127857
40
30.182622111836299
40
31.260572901544741
40
31.79954829639896
40
32.06903599382607
40
32.338523691253179
40
32.877499086107399
40
33.146986783534508
40
33.416474480961618
40
34.494425270670057
40
35.033400665524283
40
35.572376060378502
40
36.111351455232722
40
36.650326850086941
40
36.919814547514051
40
37.18930224494116
40
37.45878994236827
40
37.72827763979538
40
38.267253034649599
40
38.806228429503818
40
39.345203824358038
40
39.884179219212257
40
40.423154614066476
40
40.962130008920695
40
41.501105403774915
40
42.040080798629134
40
43.118031588337573
40
43.657006983191792
40
44.195982378046011
40
45.27393316775445
40
46.351883957462888
40
46.890859352317108
40
47.429834747171327
40
47.699322444598437
40
47.968810142025546
40
48.507785536879766
40
49.585736326588204
40
50.663687116296643
40
51.741637906005089
40
52.280613300859315
40
52.819588695713534
40
53.089076393140644
40
53.358564090567754
40
53.628051787994863
40
53.897539485421973
40
54.436514880276192
40
54.975490275130412
40
55.514465669984631
40
56.05344106483885
40
56.592416459693069
40
57.131391854547289
40
57.670367249401508
40
58.209342644255727
40
58.748318039109947
40
59.287293433964166
40
60.365244223672605
40
60.904219618526824
40
61.443195013381043
40
62.521145803089482
40
63.59909659279792
40
64.677047382506359
40
65.216022777360578
40
65.754998172214798
40
66.293973567069017
40
66.832948961923236
40
67.910899751631675
40
68.988850541340113
40
68.988850541340113
40
68.988850541340113
40
68.988850541340113
10
360.92437744140636
20
570.17200469970714
30
0
10
364.62680618413737
20
569.31092784183306
30
0
10
371.23976635130259
20
568.92393118591747
30
0
10
371.57045915405257
20
577.55516421209461
30
0
10
377.37131708243851
20
582.34731353960922
30
0
10
386.44638394903092
20
584.71372855589277
30
0
10
390.80582092701997
20
592.39091935748729
30
0
10
391.29449097214666
20
600.99258568118535
30
0
10
398.14889489035124
20
599.80244191629561
30
0
10
402.31689003277017
20
602.8446338701259
30
0
10
408.62734668565633
20
602.83990945052801
30
0
10
410.51463938173703
20
608.70545808944269
30
0
10
418.38702769132192
20
605.598221434778
30
0
10
418.04013859074411
20
612.84504612428611
30
0
10
422.99144922705068
20
610.68630658802158
30
0
10
425.39055241032065
20
613.23641566915319
30
0
10
428.2957466209258
20
616.88261046238313
30
0
10
430.9260572488123
20
623.38306512957331
30
0
10
434.39434610994522
20
629.71248654704846
30
0
10
432.78552694188784
20
637.47088788866245
30
0
10
436.69646923637004
20
641.73988078983496
30
0
10
440.86125001373432
20
644.81154190710515
30
0
10
443.30647515427802
20
650.41369656918073
30
0
10
450.19347601016796
20
648.30643309293293
30
0
10
452.62208767193641
20
654.30547439675263
30
0
10
448.78696343173914
20
659.1400552126787
30
0
10
440.24073732402064
20
658.90364300602312
30
0
10
440.64100160920498
20
670.09216102913786
30
0
10
438.0497220932815
20
679.98055662535478
30
0
10
441.12588540524962
20
691.28870435803333
30
0
10
435.27770120165309
20
700.50971836566362
30
0
10
432.12680517469204
20
710.89164709763463
30
0
10
430.0191874796717
20
719.41701107396943
30
0
10
428.8845435454698
20
726.21012066006358
30
0
10
424.90903798618149
20
731.09429827740246
30
0
10
420.21045801421707
20
730.00156098974549
30
0
10
417.97414013850613
20
734.590662818488
30
0
10
421.96776245973302
20
735.26987694676586
30
0
10
419.3049699716023
20
738.3962241243787
30
0
10
424.62097096924481
20
739.81435501456394
30
0
10
425.01440406213737
20
744.1786519646206
30
0
10
424.2086814090905
20
749.2454174074071
30
0
10
425.22570946419489
20
755.91904550811682
30
0
10
418.13667216387546
20
756.30855830972928
30
0
10
416.76501023118846
20
762.65941085299937
30
0
10
418.75423778875029
20
767.58116102002737
30
0
10
416.75582352332913
20
775.17194991060069
30
0
10
406.67739708924097
20
775.04658106854777
30
0
10
399.05084467132104
20
784.26176032767739
30
0
10
389.3423802982029
20
781.35469416976753
30
0
10
383.62003472386846
20
780.94474463978008
30
0
10
379.25342421581661
20
781.36968067668079
30
0
10
378.50565794363894
20
776.92228710678432
30
0
10
373.12445964139926
20
779.30098083066264
30
0
10
374.56934118606102
20
773.61745835600561
30
0
10
368.42118930871385
20
772.17782792469279
30
0
10
361.83345810754446
20
772.58341959665131
30
0
10
358.12452023145784
20
765.74853815472864
30
0
10
352.37352585100695
20
765.90212469034645
30
0
10
347.21139734834719
20
765.16034236042526
30
0
10
342.61379413085467
20
764.35177454407153
30
0
10
338.30287946790168
20
764.88797345009721
30
0
10
341.14252486362574
20
761.47892852842028
30
0
10
341.29736852323128
20
759.05166072094357
30
0
10
336.1278215513297
20
759.59098687400365
30
0
10
332.30676974759854
20
758.12894086819358
30
0
10
331.59818804065509
20
751.74726005062269
30
0
10
327.54407947370345
20
749.1670707604361
30
0
10
322.61159682215811
20
746.96040695776924
30
0
10
318.45680587988915
20
744.34039997990669
30
0
10
314.74630941769641
20
740.44654824472696
30
0
10
311.80458224046106
20
735.59608715106856
30
0
10
305.53212381909782
20
733.86051087344845
30
0
10
299.61212358808865
20
728.2448463155813
30
0
10
293.33092453593912
20
727.87515711087292
30
0
10
289.06610231481858
20
720.82000522692113
30
0
10
288.8493487948291
20
712.25172999955828
30
0
10
283.82965389243822
20
703.64981813806378
30
0
10
274.62490303169568
20
703.70995749102894
30
0
10
274.97409526412065
20
699.06704229885815
30
0
10
274.61880503528801
20
694.30441627662185
30
0
10
278.68237078336324
20
694.56235085106971
30
0
10
284.22297118212231
20
691.91157210010101
30
0
10
292.54031043835846
20
685.41078946143557
30
0
10
288.27888643933136
20
674.7761473105877
30
0
10
287.46769349275405
20
665.60569912303913
30
0
10
282.53738529544967
20
660.78853486265916
30
0
10
285.96476131827706
20
656.96140280765292
30
0
10
285.47687724895809
20
652.63379534648925
30
0
10
281.84535720458149
20
651.98168115440683
30
0
10
285.44059302146229
20
649.14518249948924
30
0
10
284.34953855993058
20
645.47158378613358
30
0
10
283.43628309997661
20
641.95047089726654
30
0
10
288.819929365353
20
633.42755839408755
30
0
10
284.53486958244395
20
638.81063945703863
30
0
10
280.91121484098107
20
630.76408479867428
30
0
10
288.87635786220324
20
634.63018237076324
30
0
10
293.16817667212956
20
631.66594278223045
30
0
10
299.58196131770393
20
633.43086002876021
30
0
10
300.97682987253114
20
623.95485658663677
30
0
10
305.06001184741433
20
627.67097359988395
30
0
10
312.2968793812808
20
624.09068066369753
30
0
10
317.26212795557296
20
619.15928725118874
30
0
10
323.94023901622438
20
616.57168370749218
30
0
10
332.18473011512941
20
617.20636241142859
30
0
10
331.5646430232897
20
604.44430817538114
30
0
10
341.53810982855236
20
599.86542205811111
30
0
10
349.45134059426744
20
596.34619667258164
30
0
10
357.12960614587166
20
594.67477684591677
30
0
10
357.85398751565282
20
587.28863268381986
30
0
10
350.94452007464929
20
587.83041200206253
30
0
10
344.64517123743661
20
583.15568862292264
30
0
10
351.22951395063853
20
573.96139344785661
30
0
10
357.22194869867536
20
571.03308155758111
30
0
10
360.92437744140636
20
570.17200469970714
30
0
0
SPLINE
5
103
100
AcDbEntity
8
0
100
AcDbSpline
70
2
71
3
72
609
73
605
74
0
42
0.000000001
43
0.0000000001
44
0.0000000001
40
0
40
0
40
0
40
0
40
0.38483516637468013
40
0.76967033274936025
40
1.1545054991240404
40
1.5393406654987205
40
1.9241758318734008
40
2.3090109982480809
40
2.6938461646227609
40
3.078681330997441
40
3.8483516637468016
40
4.2331868301214817
40
4.6180219964961617
40
5.0028571628708418
40
5.1952747460581818
40
5.3876923292455219
40
6.157362661994882
40
6.542197828369563
40
6.9270329947442431
40
7.6967033274936032
40
8.4663736602429633
40
9.2360439929923235
40
10.775384658491044
40
11.545054991240404
40
12.314725323989764
40
13.084395656739126
40
13.854065989488486
40
14.238901155863166
40
14.623736322237846
40
15.008571488612526
40
15.393406654987206
40
15.778241821361886
40
16.163076987736567
40
16.547912154111245
40
16.932747320485927
40
17.702417653235287
40
18.087252819609965
40
18.472087985984647
40
19.241758318734007
40
20.011428651483367
40
21.550769316982088
40
22.320439649731448
40
23.090109982480808
40
23.859780315230168
40
24.629450647979528
40
26.168791313478252
40
27.708131978976972
40
28.092967145351651
40
28.477802311726332
40
29.247472644475693
40
30.786813309974413
40
31.171648476349091
40
31.556483642723773
40
32.326153975473133
40
33.09582430822249
40
33.865494640971853
40
35.404835306470574
40
35.789670472845252
40
36.17450563921993
40
36.944175971969294
40
37.329011138343972
40
37.713846304718658
40
37.906263887905993
40
38.098681471093336
40
38.483516637468014
40
39.253186970217371
40
40.022857302966734
40
40.792527635716098
40
41.562197968465455
40
42.331868301214811
40
43.101538633964175
40
43.486373800338853
40
43.871208966713539
40
44.256044133088217
40
44.640879299462895
40
45.025714465837574
40
45.410549632212252
40
46.180219964961616
40
46.565055131336294
40
46.949890297710979
40
47.334725464085658
40
47.719560630460336
40
48.489230963209693
40
48.874066129584378
40
49.258901295959056
40
49.643736462333734
40
50.02857162870842
40
50.798241961457776
40
51.183077127832462
40
51.56791229420714
40
52.337582626956504
40
53.10725295970586
40
53.876923292455224
40
54.646593625204588
40
55.416263957953944
40
56.185934290703301
40
56.955604623452665
40
57.725274956202028
40
58.494945288951385
40
58.879780455326063
40
59.264615621700742
40
60.034285954450105
40
61.573626619948826
40
64.652307950946266
40
66.191648616444979
40
67.730989281943707
40
70.809670612941147
40
72.34901127843986
40
73.888351943938588
40
74.658022276687944
40
75.427692609437315
40
76.967033274936028
40
77.736703607685385
40
78.12153877406007
40
78.506373940434742
40
80.045714605933469
40
80.815384938682826
40
81.200220105057511
40
81.585055271432196
40
83.12439593693091
40
83.509231103305581
40
83.894066269680266
40
84.278901436054952
40
84.663736602429623
40
85.433406935178994
40
86.20307726792835
40
86.587912434303036
40
86.972747600677707
40
87.742417933427078
40
88.127253099801749
40
88.512088266176434
40
88.89692343255112
40
89.281758598925791
40
90.051428931675147
40
90.821099264424504
40
91.590769597173875
40
92.360439929923231
40
92.745275096297917
40
93.130110262672588
40
93.514945429047273
40
93.899780595421959
40
94.28461576179663
40
94.669450928171315
40
95.439121260920672
40
96.208791593670028
40
96.978461926419385
40
97.36329709279407
40
97.748132259168756
40
98.517802591918112
40
99.287472924667469
40
99.672308091042154
40
100.05714325741684
40
100.8268135901662
40
101.59648392291555
40
102.36615425566491
40
102.75098942203959
40
103.13582458841427
40
103.90549492116364
40
104.29033008753831
40
104.67516525391299
40
105.44483558666235
40
106.21450591941172
40
106.98417625216108
40
107.75384658491043
40
108.52351691765979
40
109.29318725040915
40
109.67802241678383
40
110.06285758315852
40
110.44769274953319
40
110.83252791590787
40
111.60219824865723
40
111.98703341503192
40
112.3718685814066
40
113.14153891415596
40
113.91120924690532
40
114.68087957965467
40
115.45054991240403
40
116.2202202451534
40
116.60505541152807
40
116.98989057790276
40
117.75956091065211
40
118.52923124340148
40
118.91406640977615
40
119.29890157615084
40
120.0685719089002
40
120.83824224164955
40
121.22307740802424
40
121.60791257439891
40
122.37758290714828
40
123.14725323989764
40
123.53208840627232
40
123.91692357264699
40
124.68659390539636
40
125.07142907177104
40
125.45626423814572
40
126.22593457089508
40
126.99560490364445
40
127.7652752363938
40
128.15011040276849
40
128.53494556914316
40
128.91978073551786
40
129.30461590189253
40
130.07428623464187
40
130.84395656739125
40
131.61362690014062
40
132.38329723288996
40
133.9226378983887
40
134.69230823113804
40
135.46197856388741
40
136.23164889663678
40
137.00131922938613
40
137.7709895621355
40
138.54065989488487
40
139.31033022763421
40
140.08000056038358
40
140.84967089313295
40
141.61934122588229
40
142.38901155863164
40
143.15868189138101
40
144.69802255687972
40
145.46769288962909
40
146.23736322237846
40
147.0070335551278
40
147.77670388787718
40
149.31604455337589
40
150.08571488612526
40
150.85538521887463
40
151.62505555162397
40
152.39472588437334
40
153.93406654987206
40
157.01274788086948
40
160.09142921186694
40
161.63076987736565
40
163.17011054286439
40
163.93978087561374
40
164.32461604198841
40
164.70945120836311
40
165.09428637473781
40
165.47912154111248
40
165.86395670748715
40
166.24879187386182
40
167.01846220661116
40
167.40329737298583
40
167.78813253936053
40
168.17296770573523
40
168.5578028721099
40
169.32747320485925
40
170.09714353760862
40
170.86681387035799
40
171.63648420310733
40
172.4061545358567
40
173.17582486860607
40
173.94549520135541
40
174.33033036773008
40
174.71516553410478
40
175.10000070047948
40
175.48483586685416
40
175.86967103322883
40
176.2545061996035
40
177.02417653235287
40
177.79384686510224
40
178.17868203147691
40
178.56351719785158
40
178.94835236422625
40
179.33318753060092
40
180.10285786335029
40
181.64219852884901
40
182.41186886159838
40
183.18153919434775
40
183.56637436072242
40
183.95120952709709
40
184.72087985984646
40
185.10571502622116
40
185.49055019259583
40
186.26022052534518
40
186.64505569171985
40
187.02989085809455
40
187.79956119084392
40
189.33890185634263
40
189.72373702271733
40
190.108572189092
40
190.49340735546667
40
190.87824252184134
40
191.26307768821601
40
191.64791285459069
40
192.03274802096536
40
192.41758318734006
40
193.18725352008943
40
193.5720886864641
40
193.95692385283877
40
194.72659418558814
40
195.11142935196284
40
195.30384693515018
40
195.49626451833751
40
195.88109968471218
40
196.26593485108685
40
197.03560518383622
40
197.8052755165856
40
198.19011068296027
40
198.57494584933494
40
199.34461618208431
40
200.11428651483368
40
200.88395684758302
40
201.65362718033239
40
202.42329751308176
40
203.19296784583111
40
203.96263817858045
40
204.34747334495512
40
204.73230851132982
40
205.50197884407919
40
206.27164917682853
40
207.0413195095779
40
207.81098984232727
40
208.58066017507662
40
209.35033050782599
40
210.12000084057536
40
210.8896711733247
40
211.27450633969937
40
211.65934150607407
40
212.04417667244877
40
212.42901183882344
40
213.19868217157278
40
213.96835250432216
40
214.73802283707153
40
215.1228580034462
40
215.50769316982087
40
216.27736350257021
40
216.66219866894488
40
217.04703383531958
40
217.43186900169428
40
217.81670416806895
40
218.58637450081829
40
219.35604483356767
40
220.12571516631704
40
220.51055033269171
40
220.89538549906638
40
221.66505583181575
40
222.43472616456512
40
223.20439649731446
40
223.97406683006383
40
224.35890199643853
40
224.7437371628132
40
225.51340749556255
40
225.89824266193722
40
226.28307782831192
40
226.66791299468662
40
227.05274816106129
40
227.43758332743596
40
227.82241849381063
40
228.2072536601853
40
228.59208882655997
40
229.36175915930934
40
230.13142949205871
40
230.90109982480806
40
231.28593499118273
40
231.67077015755743
40
232.4404404903068
40
232.82527565668147
40
233.21011082305614
40
233.97978115580551
40
234.74945148855488
40
235.51912182130422
40
235.9039569876789
40
236.2887921540536
40
237.05846248680297
40
237.82813281955231
40
238.59780315230168
40
239.36747348505105
40
240.13714381780039
40
240.52197898417506
40
240.90681415054974
40
241.29164931692441
40
241.67648448329911
40
242.06131964967381
40
242.44615481604848
40
243.21582514879782
40
243.60066031517249
40
243.98549548154719
40
244.75516581429656
40
245.5248361470459
40
245.90967131342057
40
246.29450647979527
40
247.06417681254464
40
247.83384714529399
40
248.60351747804336
40
248.98835264441806
40
249.37318781079273
40
249.7580229771674
40
250.14285814354207
40
250.91252847629144
40
251.68219880904081
40
252.45186914179016
40
253.22153947453953
40
253.60637464091423
40
253.9912098072889
40
254.76088014003824
40
255.14571530641291
40
255.53055047278761
40
256.30022080553698
40
256.68505597191165
40
257.06989113828632
40
257.83956147103572
40
258.60923180378506
40
258.99406697015974
40
259.37890213653441
40
259.76373730290908
40
260.14857246928375
40
260.53340763565842
40
260.91824280203309
40
261.68791313478249
40
263.22725380028123
40
263.99692413303057
40
264.76659446577992
40
265.53626479852926
40
266.30593513127866
40
267.07560546402806
40
267.8452757967774
40
269.38461646227609
40
270.15428679502543
40
270.92395712777483
40
271.69362746052423
40
272.46329779327357
40
272.84813295964824
40
273.23296812602291
40
273.61780329239758
40
274.00263845877225
40
274.38747362514692
40
274.57989120833429
40
274.7723087915216
40
275.54197912427099
40
277.08131978976974
40
277.85099012251908
40
278.62066045526842
40
279.39033078801776
40
280.16000112076716
40
281.6993417862659
40
282.46901211901525
40
283.23868245176459
40
284.00835278451393
40
284.3931879508886
40
284.77802311726327
40
285.54769345001262
40
286.31736378276202
40
287.08703411551141
40
287.85670444826076
40
288.6263747810101
40
289.39604511375944
40
290.93538577925818
40
291.32022094563285
40
291.70505611200758
40
292.47472644475693
40
293.24439677750627
40
294.01406711025561
40
294.39890227663028
40
294.78373744300495
40
295.55340777575435
40
296.32307810850375
40
297.09274844125309
40
298.63208910675178
40
299.40175943950112
40
300.17142977225052
40
300.94110010499992
40
301.32593527137459
40
301.71077043774926
40
302.09560560412393
40
302.4804407704986
40
303.25011110324795
40
304.01978143599729
40
304.78945176874669
40
306.32879243424543
40
306.7136276006201
40
307.09846276699477
40
307.48329793336944
40
307.86813309974411
40
308.25296826611878
40
308.63780343249346
40
309.4074737652428
40
309.79230893161747
40
310.17714409799214
40
310.94681443074154
40
311.71648476349094
40
312.48615509624028
40
313.25582542898962
40
314.02549576173897
40
315.56483642723771
40
315.94967159361238
40
316.33450675998711
40
317.10417709273645
40
317.48901225911112
40
317.87384742548579
40
318.25868259186046
40
318.64351775823513
40
319.41318809098448
40
320.18285842373388
40
320.56769359010855
40
320.95252875648328
40
321.72219908923262
40
322.49186942198196
40
323.2615397547313
40
324.03121008748064
40
324.80088042023004
40
325.57055075297944
40
326.34022108572879
40
326.72505625210346
40
327.10989141847813
40
327.4947265848528
40
327.87956175122747
40
328.64923208397681
40
329.41890241672621
40
330.18857274947561
40
330.95824308222495
40
332.49758374772364
40
333.26725408047298
40
334.03692441322232
40
334.42175957959699
40
334.80659474597167
40
335.57626507872106
40
335.96110024509574
40
336.34593541147046
40
336.73077057784513
40
337.11560574421981
40
337.50044091059448
40
337.88527607696915
40
338.65494640971849
40
339.42461674246783
40
340.19428707521723
40
340.96395740796663
40
341.73362774071597
40
342.50329807346532
40
342.88813323983999
40
343.27296840621466
40
344.042638738964
40
344.8123090717134
40
345.19714423808807
40
345.5819794044628
40
346.35164973721214
40
347.12132006996148
40
347.89099040271083
40
348.2758255690855
40
348.66066073546017
40
349.43033106820957
40
350.20000140095897
40
350.96967173370831
40
352.50901239920699
40
354.04835306470574
40
355.58769373020448
40
356.35736406295382
40
356.74219922932849
40
357.12703439570316
40
358.66637506120185
40
360.20571572670059
40
360.97538605944999
40
361.74505639219933
40
363.28439705769802
40
364.05406739044736
40
364.82373772319676
40
365.20857288957143
40
365.59340805594616
40
365.97824322232083
40
366.3630783886955
40
367.13274872144484
40
367.90241905419418
40
368.67208938694353
40
369.05692455331825
40
369.44175971969293
40
369.8265948860676
40
370.21143005244232
40
370.98110038519167
40
371.75077071794101
40
372.52044105069035
40
372.90527621706502
40
373.29011138343969
40
373.67494654981442
40
374.05978171618909
40
374.82945204893849
40
375.59912238168783
40
376.36879271443718
40
377.13846304718652
40
377.90813337993586
40
378.67780371268526
40
380.217144378184
40
380.98681471093334
40
381.37164987730802
40
381.75648504368269
40
382.52615537643203
40
383.29582570918137
40
384.06549604193071
40
384.83516637468011
40
385.60483670742951
40
386.37450704017886
40
387.1441773729282
40
387.52901253930287
40
387.91384770567754
40
388.29868287205221
40
388.68351803842688
40
389.06835320480161
40
389.45318837117628
40
390.99252903667502
40
391.76219936942437
40
392.53186970217371
40
392.91670486854838
40
393.30154003492305
40
393.68637520129778
40
394.07121036767245
40
394.07121036767245
40
394.07121036767245
40
394.07121036767245
10
288.92438888549805
20
-158.24817657470703
30
0
10
289.96563368286706
20
-158.68769434592153
30
0
10
292.61132876386023
20
-158.04965038165372
30
0
10
297.48891561932317
20
-158.85419703229044
30
0
10
297.56479499896642
20
-154.30297985171353
30
0
10
299.73419443158821
20
-151.67767820822257
30
0
10
300.96673619382568
20
-146.7167857688292
30
0
10
305.73481230933908
20
-149.53848450285366
30
0
10
308.16807245978345
20
-148.7728336094014
30
0
10
310.95505857332472
20
-143.47484895396352
30
0
10
316.90129119128028
20
-143.86363629612845
30
0
10
321.31895386647778
20
-142.66912718506336
30
0
10
325.25435834491634
20
-141.7291725650154
30
0
10
326.26837175830991
20
-137.07606915295551
30
0
10
329.16398571503873
20
-138.94525694817904
30
0
10
331.69818711735275
20
-135.49647032147161
30
0
10
337.0883963017252
20
-138.01319311142311
30
0
10
341.53946840275972
20
-135.7875761101034
30
0
10
348.03674432302648
20
-137.42052297336562
30
0
10
349.52552088193875
20
-129.23678967696941
30
0
10
358.38983378887872
20
-130.3066946488762
30
0
10
365.11325524186725
20
-122.82493375332263
30
0
10
376.32331530142125
20
-123.36399438783513
30
0
10
386.75485822775778
20
-121.07403653355496
30
0
10
388.23237027458663
20
-112.48734665308048
30
0
10
396.45115980644874
20
-109.75663417199961
30
0
10
402.33026718030101
20
-112.3139022326929
30
0
10
403.05704525720182
20
-118.19819242553223
30
0
10
407.24498315122105
20
-119.27467601489896
30
0
10
411.1679778537266
20
-118.7159322121241
30
0
10
413.90380027591777
20
-122.36088577596834
30
0
10
417.06936886820824
20
-123.1595775932104
30
0
10
421.97514341950784
20
-125.95004216232304
30
0
10
422.82221320890835
20
-121.21537174859411
30
0
10
428.73526517727362
20
-120.67242503323524
30
0
10
432.67264660292511
20
-118.61526250136313
30
0
10
437.95677700315582
20
-117.94199748961475
30
0
10
443.17033204940412
20
-121.98478753715507
30
0
10
444.56576910843285
20
-112.96053266909844
30
0
10
447.25411826495025
20
-104.30254758016923
30
0
10
444.71428868325279
20
-93.527045761881425
30
0
10
440.63476827502359
20
-83.96335291335663
30
0
10
440.12082352315906
20
-76.596181941974791
30
0
10
439.79417922990677
20
-67.63838220329302
30
0
10
429.93187020048254
20
-65.042197425563288
30
0
10
419.7636101082125
20
-55.9271414244308
30
0
10
413.81200272897985
20
-46.776238267553978
30
0
10
410.53427995134678
20
-38.972841858521299
30
0
10
404.08915377994555
20
-39.583296351949585
30
0
10
402.46882014560549
20
-28.481110830829746
30
0
10
398.11746908018443
20
-21.907309912237075
30
0
10
397.80224025654184
20
-13.155116102978601
30
0
10
392.58385424767073
20
-11.239190913702613
30
0
10
388.91091287161061
20
-5.6190458265180947
30
0
10
389.45160188115432
20
2.2908019486939195
30
0
10
385.82374161073636
20
11.997146295989662
30
0
10
386.47954455126751
20
21.105178562626875
30
0
10
386.83880349043335
20
28.629402153073855
30
0
10
390.15726073274612
20
32.670619712866689
30
0
10
385.84006495305488
20
39.375479476763637
30
0
10
391.35091339133822
20
41.875381055110701
30
0
10
390.9319271284366
20
46.599450766805475
30
0
10
394.56249243819485
20
46.059171785019146
30
0
10
394.77782959815295
20
48.572906183090687
30
0
10
399.22125840679422
20
49.88823834634222
30
0
10
404.84023945534233
20
51.646664908784487
30
0
10
412.19285741401029
20
47.73808170098313
30
0
10
409.31946053708884
20
39.128870015552351
30
0
10
408.10670154361674
20
32.385735575082926
30
0
10
409.24989130321751
20
24.335027339555495
30
0
10
412.32340463463504
20
19.079051506181457
30
0
10
412.94537716400907
20
13.453522341506821
30
0
10
416.33757511741396
20
11.562385283200264
30
0
10
420.33288741258559
20
11.238146536873471
30
0
10
422.54507205726793
20
7.5471065606843286
30
0
10
424.11832722326039
20
4.1835515340616514
30
0
10
429.35608784092108
20
2.3038039724760209
30
0
10
432.06910883524222
20
-2.6543864709452167
30
0
10
437.96252794157954
20
-2.5909902746868561
30
0
10
439.68205839822815
20
-6.618466267634286
30
0
10
441.6173503314422
20
-10.139002247036435
30
0
10
446.968796133772
20
-10.072983213664946
30
0
10
453.68350828778779
20
-11.845265626951491
30
0
10
455.40483848578361
20
-7.1162313241907871
30
0
10
459.32522560223913
20
-5.3730364864927651
30
0
10
459.41136700046968
20
-1.0811097951527358
30
0
10
459.57138187421174
20
3.0198370485982022
30
0
10
453.52626162414481
20
9.9021873236361255
30
0
10
459.72212245927892
20
10.498682331040929
30
0
10
462.20259420655572
20
15.280678447363554
30
0
10
459.23320380650023
20
21.531880643504113
30
0
10
461.29912208523956
20
29.283249945128354
30
0
10
461.20571907834091
20
36.611320049100499
30
0
10
460.23993400191966
20
45.258805523841119
30
0
10
451.47244266001366
20
46.197796773529049
30
0
10
444.40165262183825
20
46.23741206970373
30
0
10
435.52092634968301
20
45.344337174249262
30
0
10
433.02370708966453
20
54.067425339642092
30
0
10
431.06866788669163
20
59.387030573109755
30
0
10
428.24704699322757
20
64.785230099746514
30
0
10
431.82498176632663
20
68.912921984524345
30
0
10
431.9603677581012
20
77.93943366439153
30
0
10
439.87906576219871
20
95.147231835863153
30
0
10
427.68919728866433
20
114.91837719779238
30
0
10
431.85492528050867
20
135.39941335025406
30
0
10
432.85986329228359
20
155.86422494510171
30
0
10
432.35325246217667
20
176.31159561375895
30
0
10
433.55651476347469
20
197.02910850370506
30
0
10
434.2687426004461
20
209.18655703455485
30
0
10
436.14260387218428
20
220.54737985783734
30
0
10
448.03991252537423
20
222.90530248028335
30
0
10
448.59271469297568
20
234.73511027708287
30
0
10
450.76743543866417
20
243.49522813809557
30
0
10
453.8037757080657
20
246.57671578315021
30
0
10
455.65037520758466
20
254.54488948138686
30
0
10
458.42103860714923
20
262.13336190703524
30
0
10
457.95424962931145
20
272.96014237811323
30
0
10
463.79794216232392
20
274.51102436485786
30
0
10
465.90571263391041
20
281.54362893410541
30
0
10
467.29649066348361
20
289.03668216249793
30
0
10
468.25850542389878
20
297.13322756657539
30
0
10
471.3855300685841
20
299.47426783287403
30
0
10
474.65621741581447
20
301.16419350959751
30
0
10
474.04680591806641
20
307.53086157346166
30
0
10
477.22174147712934
20
312.30461039576596
30
0
10
475.59693381166608
20
321.33174947599468
30
0
10
482.68858705386208
20
320.89608912468429
30
0
10
483.42686757979635
20
326.54726594508816
30
0
10
485.55887122987895
20
330.62036475954744
30
0
10
486.44566019398718
20
336.62795280735622
30
0
10
492.12522109186688
20
335.5815613215654
30
0
10
491.93056732510485
20
340.19653458481491
30
0
10
493.97210971910744
20
344.83577797032422
30
0
10
493.99316641865198
20
351.90084487841546
30
0
10
500.04246428925273
20
356.41593753628314
30
0
10
508.63760653570665
20
357.23748722416445
30
0
10
511.74173031530484
20
362.60237600015699
30
0
10
513.31567812780952
20
368.24717112797197
30
0
10
518.98541860680848
20
366.51662601734421
30
0
10
518.87265684032559
20
371.39254696304619
30
0
10
522.38944047022528
20
373.59497653282278
30
0
10
521.48159674899671
20
378.80732683536002
30
0
10
527.83515409226129
20
378.4095700475728
30
0
10
529.85042301850274
20
384.65696735052092
30
0
10
529.01583304691303
20
394.53215900372697
30
0
10
537.96592660433839
20
393.21759301147335
30
0
10
538.09995994655856
20
399.42512926380346
30
0
10
543.67825899837749
20
401.30145878733089
30
0
10
550.57404128416965
20
400.44178123775743
30
0
10
553.02625776286038
20
409.19555412274093
30
0
10
559.14319320224376
20
406.38269982708033
30
0
10
562.2010759035702
20
410.91229170300812
30
0
10
562.60714728742585
20
417.92080305003088
30
0
10
571.38659990667429
20
419.83887462713551
30
0
10
569.96845277830414
20
429.91226319443217
30
0
10
576.55467751773881
20
428.2404675556885
30
0
10
579.31851053036223
20
432.44122498063979
30
0
10
580.08942250671953
20
438.29747018397768
30
0
10
585.53143593739412
20
439.33799587406526
30
0
10
589.89634329893943
20
438.7238935889543
30
0
10
596.6011399518876
20
437.53781567134081
30
0
10
604.50074168215031
20
439.01468332611728
30
0
10
607.33521492728232
20
447.70100510791445
30
0
10
616.1501810846521
20
447.29191902641003
30
0
10
621.34845376582166
20
452.84617988394075
30
0
10
627.27625358936348
20
455.17755857481734
30
0
10
631.44142063011464
20
457.79107395465616
30
0
10
633.46111327944493
20
461.18838391828103
30
0
10
633.55686042000468
20
465.59665121434506
30
0
10
640.33935216033058
20
465.10277489546661
30
0
10
638.08290186777435
20
473.2602684690587
30
0
10
644.86284601503985
20
473.18467597408142
30
0
10
649.2826631997998
20
474.65644912851747
30
0
10
656.86914225055546
20
475.978491012125
30
0
10
654.84553944754475
20
486.72211839612987
30
0
10
663.12733515564469
20
486.77871952679584
30
0
10
670.72940288940299
20
488.58166796942157
30
0
10
676.36240261810008
20
488.23565982398009
30
0
10
682.82529991014781
20
489.98380879812419
30
0
10
682.09327748352302
20
495.14807465476446
30
0
10
685.52909666876099
20
500.08999736554517
30
0
10
683.26217753419326
20
509.75008672755746
30
0
10
689.95814347861869
20
505.70365202514847
30
0
10
693.09486998632315
20
510.90885876598747
30
0
10
700.4095690250864
20
509.09025040490246
30
0
10
706.67569078083204
20
507.45252699342984
30
0
10
711.49256019482607
20
510.02517686874882
30
0
10
716.91347681918671
20
508.15712655244101
30
0
10
721.02470615147718
20
515.89722570464016
30
0
10
728.62634474250399
20
510.61802370311273
30
0
10
732.67728900815257
20
514.70548764201169
30
0
10
738.3183066186142
20
513.48469718293495
30
0
10
741.60433150968004
20
518.6333270286616
30
0
10
747.25789520408193
20
517.54755495498239
30
0
10
751.76373321027995
20
520.33275501002527
30
0
10
758.29909218185151
20
520.2394898670359
30
0
10
764.73042572972872
20
525.93698350167278
30
0
10
771.82997231940453
20
520.32893858946352
30
0
10
775.60693918051106
20
524.42298610871251
30
0
10
780.48337340167541
20
522.63068968083212
30
0
10
781.3861618537403
20
527.96512278185912
30
0
10
787.03612375819148
20
527.48438266294397
30
0
10
792.7850751073255
20
524.50971142034598
30
0
10
800.73391713760225
20
526.69016970028247
30
0
10
808.05427123406957
20
523.8079645344144
30
0
10
818.14056207420606
20
523.35929646561908
30
0
10
828.61029823487286
20
522.69206578450076
30
0
10
838.50285109280367
20
525.9189387941708
30
0
10
846.04856659100062
20
524.67596141394256
30
0
10
853.49069151234153
20
523.30720067294305
30
0
10
860.33297023304067
20
522.44495159575615
30
0
10
868.76898120757141
20
524.60816389154616
30
0
10
874.54116475766159
20
518.59035732498182
30
0
10
881.67002025332386
20
516.03795748464893
30
0
10
888.96955524503483
20
514.57494139516314
30
0
10
897.66372703621437
20
512.84049160840698
30
0
10
898.5211822472063
20
504.64808862637835
30
0
10
908.35929070673956
20
498.35032359710317
30
0
10
908.33100378657605
20
510.81274657543963
30
0
10
899.34886137934257
20
516.98464537205075
30
0
10
898.73035193910755
20
529.00713264448791
30
0
10
890.37122738745666
20
530.64098111196654
30
0
10
883.15203905069791
20
532.83629904560723
30
0
10
874.44121163565956
20
537.63627572375538
30
0
10
873.55921219023014
20
549.69193711043499
30
0
10
871.21044874252095
20
559.08376172556768
30
0
10
871.07435675376439
20
567.93818244132876
30
0
10
862.75039227589275
20
570.63756567546011
30
0
10
858.86032223898724
20
579.72754257593715
30
0
10
858.82305017438239
20
598.24617528513716
30
0
10
856.74244431271393
20
623.48925968681442
30
0
10
857.58021425358606
20
649.29980479016353
30
0
10
857.6720245316435
20
669.68880642770114
30
0
10
857.29495348730143
20
682.73923382370572
30
0
10
857.94897916608556
20
691.1739843062187
30
0
10
859.85993643811048
20
696.38722013592655
30
0
10
857.78268939437055
20
699.92450835176112
30
0
10
862.04746517256785
20
702.66116581564779
30
0
10
856.79538172349953
20
705.76159496713456
30
0
10
852.12663690597697
20
707.32278120712976
30
0
10
849.73101086903125
20
702.71397485316641
30
0
10
844.01973021260517
20
700.03672287129029
30
0
10
846.74565460045744
20
693.77164144418759
30
0
10
843.14566422350708
20
691.74116518253197
30
0
10
843.36582268772395
20
686.62623324716333
30
0
10
836.85465239977998
20
688.46378691706889
30
0
10
830.5430175062304
20
686.04360791929537
30
0
10
828.75475826647153
20
677.55599845598124
30
0
10
820.34180947811024
20
676.27928833219869
30
0
10
813.01723295813872
20
673.49595194177346
30
0
10
808.60609724766414
20
667.82098675822522
30
0
10
808.66132983705234
20
657.66399641678822
30
0
10
802.32955927149669
20
657.87853990729502
30
0
10
798.13389910500428
20
654.97688143096082
30
0
10
793.60942833373747
20
655.7629982568136
30
0
10
794.63456862846226
20
649.19278022880576
30
0
10
789.30666678469947
20
652.58729848488042
30
0
10
786.62312552640185
20
651.77884010981256
30
0
10
783.1801379846388
20
648.55406788478354
30
0
10
779.20562949294788
20
642.95171501273501
30
0
10
779.43081199831227
20
637.06061418157969
30
0
10
780.80089436248898
20
630.55110330573905
30
0
10
778.62332068601086
20
628.51182078387615
30
0
10
773.93665965550372
20
627.84879614224326
30
0
10
772.11696648609279
20
622.79872886872943
30
0
10
763.97814014231142
20
618.07952262549088
30
0
10
759.43740388531808
20
609.74778041340426
30
0
10
756.2153336597969
20
599.95471594662865
30
0
10
752.47134112656613
20
594.29537659059656
30
0
10
746.87261079626967
20
594.91787636391552
30
0
10
744.02601957341767
20
589.85262538474467
30
0
10
738.4830676629665
20
588.79732876653509
30
0
10
733.40058938345715
20
589.16761247783984
30
0
10
731.17720164676086
20
583.03709697082763
30
0
10
725.03288177905176
20
583.40868676120283
30
0
10
720.58607898873447
20
586.88385504133817
30
0
10
715.6346607096898
20
583.43548084374311
30
0
10
707.68879947665835
20
588.46735329882449
30
0
10
701.03016733118352
20
599.23795978288069
30
0
10
694.08689493381553
20
594.36276372864108
30
0
10
689.94179957819392
20
597.07298542566355
30
0
10
691.39615652944804
20
601.9910063215533
30
0
10
685.29533904710524
20
603.78018927675487
30
0
10
685.18958345132671
20
601.08571005915826
30
0
10
689.25986610385382
20
596.72173421572711
30
0
10
683.11659473446161
20
597.88636847767589
30
0
10
680.23287697834064
20
602.53532249891623
30
0
10
674.48512960826929
20
598.84991966259133
30
0
10
669.13515649776514
20
600.27753215995097
30
0
10
665.92071461712044
20
595.19687607802507
30
0
10
658.72598617408767
20
598.35403840910737
30
0
10
659.17944856932968
20
592.17671275173632
30
0
10
654.70111579551417
20
592.91739793129693
30
0
10
656.41901961628366
20
594.70100381176314
30
0
10
656.23138596579906
20
599.047212950225
30
0
10
649.77297410049209
20
598.02201199099693
30
0
10
644.73551015661087
20
597.09698942327509
30
0
10
635.83977353008424
20
600.75926068621311
30
0
10
634.91699952669148
20
594.38810252376197
30
0
10
629.04955270834694
20
593.823902491853
30
0
10
627.34957714008192
20
586.08657565440456
30
0
10
617.78748672077813
20
585.53895596057043
30
0
10
617.24389069391009
20
576.41578272421452
30
0
10
608.1233071786977
20
574.85399821276258
30
0
10
605.8436085745393
20
567.01606013792912
30
0
10
602.40060482057856
20
560.81443253007797
30
0
10
600.40816609547949
20
554.09226105874473
30
0
10
593.82002417336548
20
553.72954867032217
30
0
10
595.31519278151131
20
547.02322156159676
30
0
10
588.18154348454834
20
544.26877285268995
30
0
10
584.10094739394981
20
537.8656508839714
30
0
10
576.21889135393292
20
536.48106718255394
30
0
10
569.80512974282658
20
541.06527108762418
30
0
10
567.30691431774574
20
549.74152106882786
30
0
10
558.9387810610599
20
548.79589164274091
30
0
10
551.58301960440781
20
547.43990560719669
30
0
10
545.58701900482004
20
546.6757516847839
30
0
10
540.04766503673227
20
546.68828410815524
30
0
10
538.84170057784536
20
550.90227438912416
30
0
10
536.98261770308397
20
554.76494511884664
30
0
10
530.91122945102154
20
554.00608063300854
30
0
10
528.15715318285231
20
561.16995467646962
30
0
10
529.9403630117547
20
568.59783580956355
30
0
10
526.84610192102741
20
574.55820447134738
30
0
10
528.40352501537734
20
580.43775108197633
30
0
10
522.36753781495895
20
581.85548520458053
30
0
10
519.68443042064268
20
587.04709193023973
30
0
10
513.74345857809226
20
585.31501702634853
30
0
10
511.22070079570824
20
588.82727936647075
30
0
10
510.557389117311
20
593.26090413367774
30
0
10
505.63577972169873
20
594.58370707695519
30
0
10
498.99414149708639
20
595.57393246556057
30
0
10
491.80705900404587
20
595.85128376184957
30
0
10
488.04579579943368
20
603.37282111054753
30
0
10
482.86756884862888
20
602.17468992960414
30
0
10
476.33051142360324
20
603.85458352125943
30
0
10
476.56036649880241
20
595.48538272050007
30
0
10
473.63662379013351
20
587.83658014008074
30
0
10
463.82669099369434
20
588.72360088740936
30
0
10
461.82404802724415
20
581.07090063761859
30
0
10
456.01365567327662
20
581.18520371181137
30
0
10
452.26393839636205
20
579.40204447097869
30
0
10
451.37302666306084
20
573.5272213072742
30
0
10
451.60929487213031
20
568.28172919908639
30
0
10
447.79282725744201
20
565.42664215735783
30
0
10
450.73724774361432
20
561.53665387477463
30
0
10
447.9509814197163
20
557.55533910222755
30
0
10
442.74917201558299
20
558.39966556942636
30
0
10
441.49020098035533
20
556.19181489037237
30
0
10
441.47454995421219
20
551.47948733321539
30
0
10
436.68525596095958
20
548.75316020367006
30
0
10
432.65523329156395
20
542.89735327869892
30
0
10
437.10854878019404
20
536.07037512052841
30
0
10
436.94942701391642
20
527.86911684737947
30
0
10
442.71208789810942
20
530.60469481486984
30
0
10
447.94834374173854
20
529.156712586808
30
0
10
451.23440242503534
20
534.93943319739276
30
0
10
452.08397808415373
20
539.47609815499607
30
0
10
458.68511238047
20
539.63535065813005
30
0
10
463.64209636197648
20
537.29883503172766
30
0
10
471.88289436167281
20
536.68890469078417
30
0
10
476.81816510268055
20
532.66976242480393
30
0
10
477.71178484341294
20
526.78712651044395
30
0
10
484.52203800913964
20
528.4045164071008
30
0
10
487.06279554422309
20
520.56177571780745
30
0
10
494.97992290088109
20
519.58646103646993
30
0
10
502.12647797064625
20
522.15747764836669
30
0
10
510.18508637189552
20
521.16480720638333
30
0
10
515.85071964217934
20
525.1585296284286
30
0
10
521.16242421138156
20
523.27583141561331
30
0
10
518.53728695528412
20
518.9812348494288
30
0
10
515.00321571912741
20
518.64399398160913
30
0
10
509.40017666667899
20
521.26407123625791
30
0
10
512.80924599284515
20
515.85368357772165
30
0
10
506.69903058779528
20
513.70552965746253
30
0
10
504.12869303690184
20
512.53733706154503
30
0
10
495.03146234796981
20
512.77370322681611
30
0
10
498.13717692634162
20
512.43192143913609
30
0
10
506.42337324229351
20
507.33343508397536
30
0
10
501.4081210970154
20
502.12866998938694
30
0
10
498.25924140035227
20
498.10718333917418
30
0
10
492.30723715777089
20
498.35176491707324
30
0
10
489.21432818730159
20
490.91996810787009
30
0
10
491.67852692647892
20
483.92413899955216
30
0
10
489.06343456237579
20
476.0315211101165
30
0
10
483.46517515432015
20
477.64603603621481
30
0
10
480.61377681373358
20
474.82827723510979
30
0
10
476.72773100294614
20
474.1803913031971
30
0
10
476.81249599382033
20
467.93872881763116
30
0
10
474.8135760904492
20
461.5829644648216
30
0
10
465.9552654351242
20
460.35592605902377
30
0
10
466.74769379651275
20
449.20630865711257
30
0
10
458.85526967791719
20
451.38222150479055
30
0
10
453.53357146150239
20
450.98542729642531
30
0
10
453.16544926592604
20
444.9556190055435
30
0
10
451.47062660090751
20
440.61584339595186
30
0
10
451.54740191422593
20
435.04598282080485
30
0
10
445.87848081006649
20
432.72694104930349
30
0
10
446.65322680869218
20
426.17233183074586
30
0
10
439.82604253817522
20
425.8084466179119
30
0
10
439.31145179472935
20
420.11102203675955
30
0
10
437.1249345045926
20
412.9416006951011
30
0
10
428.49489653364458
20
415.53551222928087
30
0
10
426.56493592613447
20
409.74814521797055
30
0
10
422.63790593258221
20
408.83754423093075
30
0
10
418.49785471921285
20
408.10860638025275
30
0
10
416.33901072610485
20
405.27674557023977
30
0
10
414.70868363410631
20
401.35930508530635
30
0
10
408.38501602607732
20
401.5002769610839
30
0
10
408.4266728983556
20
390.32527606730349
30
0
10
410.71696844589582
20
381.59930909743184
30
0
10
410.32848339587758
20
370.33731126074281
30
0
10
404.25203629792566
20
365.41260818339532
30
0
10
398.24517101645495
20
361.26071954423679
30
0
10
388.31777715299563
20
363.33825445172147
30
0
10
390.13041687905138
20
352.81761910793409
30
0
10
383.44474618219931
20
345.49326794676017
30
0
10
372.43154803045655
20
345.08370784368367
30
0
10
363.3588242301912
20
341.16240562146061
30
0
10
355.35909381779112
20
340.36329430587045
30
0
10
348.10632688431781
20
343.53444203134575
30
0
10
341.89935524306605
20
344.2099759571434
30
0
10
336.59182072639021
20
344.30956744613331
30
0
10
335.51516910199558
20
350.75654547598151
30
0
10
332.45923576686664
20
348.6535494087949
30
0
10
327.79704763591809
20
349.76914497925316
30
0
10
326.11600181490195
20
346.71886239908844
30
0
10
323.31025809235155
20
346.99048009304522
30
0
10
326.8689790490572
20
342.4392207961767
30
0
10
326.29328181673344
20
335.1334679358423
30
0
10
330.88330036166474
20
325.19243547274766
30
0
10
339.97524545744807
20
318.45762753787915
30
0
10
335.19284609979729
20
310.35259408256707
30
0
10
328.17338921477858
20
306.25440405017429
30
0
10
328.9660806773727
20
294.87132908635317
30
0
10
327.83307001566106
20
285.30408926959342
30
0
10
324.97520109873687
20
274.92707259295378
30
0
10
327.20888620219671
20
267.85938803354907
30
0
10
325.34187481323607
20
260.77792663252148
30
0
10
319.84538216705556
20
258.89822754514904
30
0
10
319.53741502990846
20
253.12308728985187
30
0
10
315.76812297666595
20
247.94482939646997
30
0
10
307.75172328766325
20
244.85673591318357
30
0
10
309.10654305896577
20
236.03332238591921
30
0
10
310.78564440155378
20
228.73730498640225
30
0
10
308.07544588578816
20
221.12686656862047
30
0
10
308.7028593127298
20
210.9944336405201
30
0
10
305.17015485589246
20
201.99093400305367
30
0
10
311.52181902401361
20
194.52348388784316
30
0
10
308.73084827332707
20
190.29119342201298
30
0
10
301.33132129918283
20
190.73730865404832
30
0
10
297.14594898917301
20
183.25962306423153
30
0
10
290.49694696428736
20
181.72903376309557
30
0
10
285.07575920691471
20
183.75294066339265
30
0
10
281.5286494529829
20
179.01345119900196
30
0
10
282.55169954030379
20
172.46644070743179
30
0
10
284.07238009600638
20
164.82854244459091
30
0
10
291.68306044191331
20
157.11411740277237
30
0
10
290.78465894135718
20
146.28002431637708
30
0
10
294.87324022967044
20
135.85751429562205
30
0
10
303.74587867122773
20
135.02562991350902
30
0
10
306.37162078811036
20
127.68475330352389
30
0
10
312.3458074144736
20
128.77664476375355
30
0
10
314.63343154672305
20
124.88644080528685
30
0
10
314.64052554555565
20
121.09504742444216
30
0
10
317.77372689637622
20
116.80851055481675
30
0
10
321.90514651155291
20
111.60563526246328
30
0
10
322.37639316214415
20
104.38959965573534
30
0
10
321.83666461422382
20
94.144194642303788
30
0
10
321.60375650067942
20
84.913941480783478
30
0
10
318.52376436173199
20
77.957187553461097
30
0
10
317.97819231999063
20
73.75675156525314
30
0
10
313.9892351889871
20
72.430710460866237
30
0
10
309.19606026415101
20
74.400721607454329
30
0
10
308.95062492833858
20
68.581891852754381
30
0
10
302.55390121784774
20
71.406786360289431
30
0
10
297.92740956422915
20
68.587395343024397
30
0
10
293.08693697018583
20
71.997487176805066
30
0
10
289.10288106192797
20
67.91387228585603
30
0
10
282.10811136971813
20
71.478823014586496
30
0
10
274.97808987758407
20
68.236661288068845
30
0
10
267.14257118315743
20
68.084484894037374
30
0
10
259.92095748469262
20
67.382823697341507
30
0
10
250.46679777809777
20
71.657016506568766
30
0
10
239.79227639753847
20
67.37840917592456
30
0
10
234.96328375610119
20
74.735869040358722
30
0
10
229.01593377543105
20
72.833920634970681
30
0
10
225.72560235277791
20
78.49759137057265
30
0
10
220.12507003049635
20
77.51362062439685
30
0
10
217.60884357179364
20
81.339234691759117
30
0
10
212.76742098586561
20
80.486233573430908
30
0
10
210.8731101333457
20
85.180359359990746
30
0
10
206.17149511271521
20
89.098387188564459
30
0
10
200.07042644235185
20
92.826547484996738
30
0
10
195.21524012933983
20
91.425801259521066
30
0
10
191.20970859681822
20
95.477176720062147
30
0
10
191.30882641280436
20
102.52409467286284
30
0
10
186.20442245616545
20
107.76652597801773
30
0
10
182.29887435884086
20
115.89406500713795
30
0
10
174.16138604569127
20
114.46939748887138
30
0
10
166.723529556416
20
115.66090769825661
30
0
10
158.90908391612118
20
115.62903666352207
30
0
10
152.82172215689727
20
116.65832341617978
30
0
10
147.89128547596289
20
117.70214657977179
30
0
10
145.69235419597806
20
112.73318141140041
30
0
10
141.75083778761862
20
115.97811096906506
30
0
10
136.78399145817355
20
113.98938643222193
30
0
10
131.08877469536236
20
110.69503577534201
30
0
10
131.08259448208111
20
102.4704470672136
30
0
10
129.9447228773912
20
94.445375211726429
30
0
10
118.93701748861409
20
90.770175449053795
30
0
10
121.37485567792936
20
76.66469439527431
30
0
10
111.34981384825323
20
73.090664693320832
30
0
10
105.94779132909336
20
68.508684756576244
30
0
10
108.22033676991539
20
63.051871770448344
30
0
10
105.38061205149845
20
58.664238809668838
30
0
10
104.867651053505
20
52.430660116058093
30
0
10
102.235349937725
20
49.736703719485789
30
0
10
97.313904570288059
20
49.271037193972845
30
0
10
98.722208122989883
20
43.895623673641602
30
0
10
94.331599553565042
20
42.927768825281049
30
0
10
90.330228064902357
20
43.767153285516187
30
0
10
87.279891752079209
20
38.643469529481138
30
0
10
81.469921888904679
20
36.7043953543198
30
0
10
71.626887693850563
20
37.76569861854987
30
0
10
71.796403336287639
20
28.203413641349336
30
0
10
64.966528153658786
20
23.498136103658673
30
0
10
58.210565209008429
20
20.894151667754983
30
0
10
51.784464787106344
20
19.872798782837815
30
0
10
46.917824275471304
20
18.189368859226484
30
0
10
41.021846236357497
20
20.552930446628569
30
0
10
38.983616561344974
20
12.299579903092805
30
0
10
31.844021862988434
20
12.01101641751189
30
0
10
27.024431652691085
20
13.707109785774724
30
0
10
22.78282899689188
20
8.5932362328069853
30
0
10
24.071862801724137
20
2.6422779251972783
30
0
10
23.106195526850367
20
-5.4209254344935527
30
0
10
24.632425169353851
20
-10.897114620774403
30
0
10
22.168267638428301
20
-17.63411824390819
30
0
10
27.129072456180769
20
-19.475616539245536
30
0
10
33.561652179724113
20
-20.649702138506068
30
0
10
40.720323817108536
20
-16.805306781716563
30
0
10
51.277703693362177
20
-20.602787423779532
30
0
10
63.11857691224445
20
-13.905286668815982
30
0
10
78.387250409338407
20
-14.120031950951992
30
0
10
91.244097083072205
20
-10.125093526149435
30
0
10
99.700013501503946
20
-14.114087205932044
30
0
10
104.86423949033961
20
-11.876903074465071
30
0
10
111.89769277526791
20
-16.613251127960417
30
0
10
123.71558966875367
20
-9.9143840200636806
30
0
10
136.01671446928162
20
-14.554578001889906
30
0
10
144.6033431644745
20
-20.270259473745369
30
0
10
156.11863719369094
20
-18.210686500351994
30
0
10
159.60535518119005
20
-8.0059206191784025
30
0
10
165.77289918829419
20
0.015937166496219901
30
0
10
171.98406011944147
20
2.5670115758666872
30
0
10
174.17404376437185
20
7.9854254687044177
30
0
10
178.64813188839247
20
8.0103123080092793
30
0
10
181.69251533103568
20
9.0283759078867138
30
0
10
185.09773330324009
20
13.293513170735885
30
0
10
192.27525456442942
20
15.155563251916096
30
0
10
198.5589923117567
20
10.138580202906622
30
0
10
204.875225938406
20
9.6565062138569395
30
0
10
210.08124647022601
20
8.1748675945877771
30
0
10
210.3534559244917
20
3.7793603545629124
30
0
10
211.79425246707186
20
-0.77534065388566886
30
0
10
218.27322926755522
20
2.1419739210961417
30
0
10
219.72245176082004
20
-7.3457677249292459
30
0
10
228.89587319573775
20
-5.1293368752740101
30
0
10
229.47577867524205
20
-13.729404388847266
30
0
10
228.92989025498849
20
-19.316296833476812
30
0
10
232.7144578943811
20
-20.628194863736944
30
0
10
236.20906171621598
20
-20.138710108027233
30
0
10
239.16061145666743
20
-26.18237075901575
30
0
10
246.5136214430959
20
-24.095941127457216
30
0
10
253.98245989510886
20
-23.857297391018982
30
0
10
261.26325792958926
20
-23.639173110415626
30
0
10
270.7049507118611
20
-22.01045655039049
30
0
10
273.27084933349914
20
-30.108020744774503
30
0
10
274.99377409386011
20
-39.808499238450551
30
0
10
273.6647173777834
20
-50.831312272507184
30
0
10
269.04331814154978
20
-58.077026749111589
30
0
10
267.24561824336342
20
-63.434000636637379
30
0
10
261.90277167248604
20
-64.630902883602801
30
0
10
259.30708799612836
20
-73.928231498653417
30
0
10
269.88948309413473
20
-72.91141141995044
30
0
10
271.75380745795081
20
-82.025795735648629
30
0
10
277.9716541790022
20
-86.658890240248553
30
0
10
278.67977042295416
20
-95.144704698333442
30
0
10
283.89614432915675
20
-100.37140132584868
30
0
10
290.04988319548141
20
-102.16211884397265
30
0
10
295.02380117384178
20
-104.53867619532531
30
0
10
293.33504495825719
20
-109.28169953918753
30
0
10
295.27408633987187
20
-112.86693532190864
30
0
10
293.39989661100196
20
-116.42722935198648
30
0
10
294.93626858601903
20
-121.16092704369352
30
0
10
289.15707402225598
20
-125.39035299323231
30
0
10
281.81672087425534
20
-131.16823525110379
30
0
10
277.02221430414136
20
-141.11834891099514
30
0
10
280.67772092921763
20
-146.66933372407465
30
0
10
278.71423334127576
20
-153.40386589629207
30
0
10
282.05030506742452
20
-154.274855161316
30
0
10
286.36385997964601
20
-155.4125437543664
30
0
10
287.88314408812903
20
-157.80865880349251
30
0
10
288.92438888549805
20
-158.24817657470703
30
0
0
SPLINE
5
104
100
AcDbEntity
8
0
100
AcDbSpline
70
2
71
3
72
106
73
102
74
0
42
0.000000001
43
0.0000000001
44
0.0000000001
40
0
40
0
40
0
40
0
40
1.0429340757349048
40
2.0858681514698096
40
2.6073351893372623
40
3.1288022272047145
40
4.1717363029396193
40
4.6932033408070719
40
5.2146703786745245
40
5.7361374165419772
40
6.2576044544094289
40
6.5183379733431543
40
6.7790714922768807
40
7.3005385301443333
40
8.3434726058792386
40
8.8649396437466912
40
9.3864066816141438
40
9.9078737194815965
40
10.429340757349049
40
10.950807795216502
40
11.472274833083954
40
12.515208908818858
40
13.036675946686309
40
13.558142984553761
40
14.079610022421214
40
14.601077060288667
40
15.122544098156119
40
15.644011136023572
40
16.165478173891024
40
16.686945211758477
40
17.20841224962593
40
17.729879287493382
40
18.772813363228288
40
19.815747438963193
40
20.858681514698098
40
21.380148552565551
40
21.901615590433003
40
22.944549666167909
40
23.987483741902814
40
25.030417817637716
40
25.551884855505165
40
26.073351893372617
40
26.59481893124007
40
27.116285969107523
40
28.159220044842428
40
28.680687082709881
40
29.202154120577333
40
29.723621158444786
40
30.245088196312238
40
31.288022272047144
40
31.809489309914596
40
32.330956347782049
40
33.373890423516954
40
34.416824499251859
40
34.938291537119312
40
35.459758574986765
40
35.981225612854217
40
36.50269265072167
40
37.545626726456575
40
38.588560802191481
40
39.631494877926386
40
40.674428953661291
40
41.717363029396196
40
42.760297105131102
40
43.281764142998554
40
43.803231180866007
40
44.324698218733459
40
44.846165256600912
40
45.889099332335817
40
46.932033408070723
40
47.974967483805628
40
48.496434521673081
40
49.017901559540533
40
49.539368597407986
40
50.060835635275438
40
50.582302673142891
40
51.103769711010344
40
51.625236748877796
40
52.146703786745249
40
53.189637862480154
40
54.23257193821506
40
55.275506013949965
40
55.796973051817417
40
56.31844008968487
40
56.839907127552323
40
57.361374165419775
40
57.882841203287228
40
58.404308241154681
40
58.925775279022133
40
59.447242316889586
40
60.490176392624491
40
61.533110468359396
40
62.576044544094295
40
63.09751158196174
40
63.618978619829193
40
64.140445657696645
40
64.661912695564098
40
65.183379733431551
40
65.704846771299003
40
66.226313809166456
40
66.747780847033908
40
66.747780847033908
40
66.747780847033908
40
66.747780847033908
10
1233.9244079589846
20
462.05024719238281
30
0
10
1236.7231575043643
20
460.31365147604197
30
0
10
1244.8154624530857
20
462.95604602715673
30
0
10
1252.4042155067712
20
463.77809380253638
30
0
10
1260.7650483479254
20
460.75206744591969
30
0
10
1262.5657504910471
20
467.59578410264089
30
0
10
1260.0642036458044
20
474.18837485203227
30
0
10
1254.7757532889732
20
480.11651026293214
30
0
10
1259.0472594311432
20
484.65597523298612
30
0
10
1255.0397096716911
20
489.50546580509626
30
0
10
1255.9059429406961
20
493.78533767023009
30
0
10
1255.9418884244319
20
497.76464921474826
30
0
10
1260.9969200894948
20
497.47372037391926
30
0
10
1260.9619463111896
20
503.57373202781724
30
0
10
1262.5631432179325
20
509.92341887357929
30
0
10
1261.77357783617
20
518.39179674458603
30
0
10
1254.9326736253308
20
517.40461605921905
30
0
10
1255.1485449025408
20
525.54016060338006
30
0
10
1248.1491460917616
20
524.09958848460292
30
0
10
1246.1209058934705
20
528.52267873752294
30
0
10
1246.4262829636284
20
536.07314872166387
30
0
10
1245.7359694794641
20
542.56229155305823
30
0
10
1245.9643855817935
20
549.95594497031198
30
0
10
1242.0407577133803
20
553.38456823750369
30
0
10
1244.1799078056476
20
559.90985327695648
30
0
10
1237.7223462997804
20
558.04787137863616
30
0
10
1232.1354699692811
20
558.68977767310582
30
0
10
1232.0304149546339
20
564.78751697824907
30
0
10
1229.5414744008576
20
569.98204183378675
30
0
10
1223.4809004520002
20
569.06743693275541
30
0
10
1219.0070992438589
20
571.74907877246233
30
0
10
1211.6176922888349
20
572.055510904024
30
0
10
1206.2661061728559
20
579.31493385284546
30
0
10
1200.5044538833899
20
587.17518507727868
30
0
10
1199.8229855510413
20
596.69154136854729
30
0
10
1196.3683796324822
20
602.02797153719291
30
0
10
1191.1954103016365
20
606.65085731027159
30
0
10
1192.6651086785328
20
616.44978965348878
30
0
10
1190.4862570132641
20
626.46966819782847
30
0
10
1190.1691622180938
20
634.87756941997668
30
0
10
1189.9284326142331
20
642.51535399832414
30
0
10
1185.8954073269824
20
645.01176378771106
30
0
10
1180.3268182799793
20
646.88479797298567
30
0
10
1179.6611556290877
20
654.41285648080168
30
0
10
1176.2929205839212
20
660.40239869973334
30
0
10
1175.3501471706477
20
667.43010739776082
30
0
10
1168.8503209958053
20
668.38854163924816
30
0
10
1165.2040425467844
20
669.90947601332846
30
0
10
1160.5874219913258
20
662.48791035539193
30
0
10
1150.0728592232899
20
664.9741491001937
30
0
10
1151.98981899979
20
656.21794427429222
30
0
10
1148.8107479076418
20
650.56438653287455
30
0
10
1148.6177991399711
20
641.08356478056635
30
0
10
1145.0052377163902
20
634.06542684930298
30
0
10
1144.3196538407904
20
625.43279460553276
30
0
10
1137.7022883455916
20
625.77196237269391
30
0
10
1138.7868349978405
20
618.62525662846201
30
0
10
1136.9976669500256
20
612.50437832138732
30
0
10
1135.3844261340321
20
603.90558424475557
30
0
10
1134.4757839819972
20
592.74170487922697
30
0
10
1123.8450108546081
20
587.91645966128897
30
0
10
1123.2051599072233
20
576.37136202591751
30
0
10
1116.0687832879685
20
568.7947620555276
30
0
10
1113.9699895257443
20
560.26809543082254
30
0
10
1112.5556208052874
20
553.13194956287896
30
0
10
1107.7779679169721
20
550.19685301347511
30
0
10
1106.2360666338013
20
544.96135202851019
30
0
10
1103.1281407451711
20
539.69206498171422
30
0
10
1100.9498856682656
20
530.99166748220546
30
0
10
1097.5352614566023
20
521.13959011704969
30
0
10
1092.1784490283744
20
514.34609584919849
30
0
10
1090.7306009896674
20
506.95155475756781
30
0
10
1084.3276207102476
20
505.62326866920984
30
0
10
1084.5752808348627
20
499.5277745225726
30
0
10
1080.807303745325
20
495.84956391637098
30
0
10
1083.509578317025
20
490.08690885177742
30
0
10
1088.376430267333
20
489.53420081804677
30
0
10
1093.0492819224976
20
485.90766350359866
30
0
10
1098.8071100842722
20
489.06447856324172
30
0
10
1107.5814859553288
20
490.29115715039973
30
0
10
1117.9989192507751
20
490.70054307582166
30
0
10
1126.570541821075
20
490.17480348266332
30
0
10
1133.7854947244393
20
491.91446038074019
30
0
10
1138.1143587936465
20
488.34431622073902
30
0
10
1143.9282350169892
20
489.53215725073511
30
0
10
1146.9049265993503
20
483.92482310221465
30
0
10
1151.8073835004141
20
483.50356965446025
30
0
10
1156.9569493689557
20
483.08428575825872
30
0
10
1162.4365120162151
20
482.78300821682637
30
0
10
1166.8271374950907
20
476.38091605965661
30
0
10
1176.3660422336748
20
477.66119567263604
30
0
10
1186.1338285593224
20
474.92166927238964
30
0
10
1195.2142079649961
20
477.59853135249273
30
0
10
1201.5415226573484
20
474.50196981327542
30
0
10
1207.1952211148766
20
475.8929630285827
30
0
10
1210.9668619360787
20
470.94282844692987
30
0
10
1216.6852887774201
20
472.76855487800742
30
0
10
1221.7352691087121
20
472.05346978765988
30
0
10
1224.8283539851402
20
466.86979771667205
30
0
10
1230.3499851054044
20
466.18403726284328
30
0
10
1232.5250331862944
20
462.91854505055323
30
0
10
1233.9244079589846
20
462.05024719238281
30
0
0
SPLINE
5
105
100
AcDbEntity
8
0
100
AcDbSpline
70
2
71
3
72
112
73
108
74
0
42
0.000000001
43
0.0000000001
44
0.0000000001
40
0
40
0
40
0
40
0
40
0.71122680733396215
40
1.4224536146679243
40
2.1336804220018863
40
2.8449072293358486
40
4.2673608440037727
40
5.6898144586716972
40
7.1122680733396209
40
8.5347216880075454
40
11.379628917343394
40
12.090855724677358
40
12.446469128344338
40
12.802082532011319
40
13.51330933934528
40
14.224536146679242
40
14.935762954013203
40
15.646989761347166
40
16.002603165014147
40
16.18040986684764
40
16.358216568681129
40
16.713829972348108
40
17.069443376015091
40
17.780670183349052
40
18.136283587016035
40
18.491896990683017
40
19.203123798016978
40
19.91435060535094
40
20.625577412684901
40
21.336804220018863
40
21.692417623685845
40
22.048031027352827
40
22.759257834686789
40
23.114871238353771
40
23.47048464202075
40
24.181711449354715
40
25.604165064022638
40
26.315391871356599
40
27.026618678690561
40
28.449072293358483
40
29.871525908026406
40
31.293979522694332
40
32.005206330028294
40
32.716433137362259
40
34.138886752030182
40
34.850113559364146
40
35.561340366698104
40
36.983793981366034
40
38.406247596033957
40
39.82870121070188
40
41.251154825369802
40
41.962381632703767
40
42.673608440037725
40
43.38483524737169
40
44.096062054705655
40
44.807288862039613
40
44.985095563873102
40
45.162902265706592
40
45.518515669373578
40
46.229742476707543
40
46.9409692840415
40
47.652196091375465
40
48.36342289870943
40
48.719036302376409
40
49.074649706043388
40
49.785876513377353
40
50.497103320711318
40
50.852716724378297
40
51.208330128045276
40
51.919556935379234
40
52.275170339046213
40
52.630783742713199
40
53.342010550047164
40
54.053237357381121
40
54.4088507610481
40
54.764464164715086
40
55.475690972049051
40
56.898144586716974
40
58.320598201384897
40
59.031825008718862
40
59.743051816052827
40
60.098665219719805
40
60.454278623386784
40
61.165505430720749
40
62.587959045388672
40
65.432866274724518
40
68.277773504060363
40
71.122680733396209
40
72.545134348064138
40
73.25636115539811
40
73.967587962732068
40
75.390041577399984
40
76.812495192067914
40
78.234948806735844
40
79.657402421403759
40
81.079856036071675
40
81.791082843405633
40
82.502309650739605
40
83.213536458073577
40
83.924763265407535
40
84.635990072741492
40
85.34721688007545
40
86.76967049474338
40
88.19212410941131
40
89.614577724079226
40
90.325804531413183
40
91.037031338747155
40
91.037031338747155
40
91.037031338747155
40
91.037031338747155
10
1481.4244079589844
20
-38.943936824798598
30
0
10
1483.3556164149079
20
-40.284136860691206
30
0
10
1489.8849645307773
20
-40.26137635506457
30
0
10
1488.2739409109158
20
-30.586439945472289
30
0
10
1497.5953853599149
20
-29.764505650404239
30
0
10
1495.6969963679453
20
-18.263128687570468
30
0
10
1496.5689489401539
20
-7.4570925988323715
30
0
10
1498.9767225960079
20
6.9522910332763903
30
0
10
1497.4707828674352
20
20.957566523041958
30
0
10
1498.815560161943
20
39.654542426623692
30
0
10
1495.4262538316957
20
57.038432440219637
30
0
10
1498.56617837269
20
68.820113396806775
30
0
10
1498.9340904779956
20
74.439284732260603
30
0
10
1504.5668821113973
20
74.299521396491983
30
0
10
1510.430811392539
20
75.810329481118373
30
0
10
1511.955606407025
20
83.767608956405951
30
0
10
1516.0836539019119
20
89.079321036819096
30
0
10
1516.6880419666945
20
96.501988004056585
30
0
10
1522.460352065573
20
94.678745321787517
30
0
10
1522.7536131352936
20
97.834612544869643
30
0
10
1526.0065905450479
20
97.968205953570035
30
0
10
1524.2470538926873
20
102.12843978581979
30
0
10
1527.8758401243485
20
105.50973664540743
30
0
10
1527.5503732573466
20
110.54729087452904
30
0
10
1532.1408136045386
20
112.99335953046739
30
0
10
1530.9575074324155
20
118.76147911874685
30
0
10
1533.5379679261032
20
124.05407326856141
30
0
10
1530.5505940558655
20
130.90076525985876
30
0
10
1530.17934439497
20
138.23409343890955
30
0
10
1534.2566748301144
20
144.05933884862617
30
0
10
1539.8709286814706
20
142.40829913368631
30
0
10
1542.484236432319
20
146.97121505860918
30
0
10
1545.9816135629608
20
149.52518923948307
30
0
10
1548.1966225243309
20
154.76331088813535
30
0
10
1553.6648706339811
20
153.03405544209807
30
0
10
1558.2791820641096
20
162.22785625923711
30
0
10
1555.4464131567081
20
171.5331242262711
30
0
10
1560.2700993566173
20
180.17785341648352
30
0
10
1560.1632523173157
20
189.79331232092733
30
0
10
1562.5210620739958
20
201.3200179017787
30
0
10
1560.9503200898448
20
215.67496673238028
30
0
10
1561.9194704304439
20
227.18046892428859
30
0
10
1560.1698192704912
20
237.08899440872534
30
0
10
1548.5490615223594
20
238.14630530920923
30
0
10
1549.1615724264043
20
252.58137285519948
30
0
10
1537.9907801606521
20
252.57995782325878
30
0
10
1536.9223890389515
20
264.0192119615723
30
0
10
1532.6993420519668
20
274.16895670489293
30
0
10
1526.6122863782355
20
287.36731488375932
30
0
10
1514.0372284147493
20
295.09325436420693
30
0
10
1516.414972574592
20
309.2863235296756
30
0
10
1507.4060180404094
20
314.37141976622956
30
0
10
1499.3735768941258
20
313.44933804275206
30
0
10
1496.3866796123084
20
320.28608088028523
30
0
10
1493.0483659530589
20
326.69714700185671
30
0
10
1488.2398130957995
20
327.12121342096691
30
0
10
1482.9760877856193
20
327.50019295621917
30
0
10
1485.8238080949943
20
329.39026324628662
30
0
10
1481.9095655144711
20
333.57974409543658
30
0
10
1476.213301569514
20
333.52219274488908
30
0
10
1468.9952669515028
20
334.51418610967585
30
0
10
1462.1915305971265
20
331.68459024709961
30
0
10
1457.075213003053
20
339.3704446482854
30
0
10
1453.3924835465129
20
333.84592575633002
30
0
10
1448.7878306833456
20
335.13560427315485
30
0
10
1442.9014825553331
20
332.28056423253287
30
0
10
1437.0168111648695
20
334.89466026216564
30
0
10
1432.7079502751862
20
333.50045078593809
30
0
10
1426.3481437325015
20
338.18853940031318
30
0
10
1430.4787262757509
20
329.98457970113748
30
0
10
1427.9064770731698
20
326.7046700713334
30
0
10
1429.9443302781615
20
321.58988455911839
30
0
10
1429.7948624409571
20
316.01766027976782
30
0
10
1430.8113184233628
20
309.75116384673777
30
0
10
1431.804892064752
20
305.27072950020818
30
0
10
1437.8807748344989
20
304.45675934990288
30
0
10
1437.4765614254568
20
294.49041277009246
30
0
10
1439.3043456731011
20
283.70137626271793
30
0
10
1441.702824161584
20
271.75907988220843
30
0
10
1445.2779531511846
20
263.17898620661083
30
0
10
1445.4226136160678
20
256.5331563990847
30
0
10
1451.0153646964593
20
255.11693991497197
30
0
10
1450.4530936533624
20
249.33819368024135
30
0
10
1452.9457046607913
20
241.93681740641378
30
0
10
1454.5067867458952
20
224.98457705459242
30
0
10
1456.2930974031181
20
201.60360307079151
30
0
10
1459.6758850285883
20
173.42214498040738
30
0
10
1459.6628759849582
20
149.18129611865453
30
0
10
1461.9759952436027
20
133.62063256496663
30
0
10
1461.6039012142537
20
122.61875537186712
30
0
10
1469.773352221481
20
118.20356145572745
30
0
10
1479.7105338597362
20
110.31047542932507
30
0
10
1479.5430101836191
20
95.213958069750362
30
0
10
1482.920106023058
20
81.327127262399387
30
0
10
1481.4123935431201
20
67.339725999698686
30
0
10
1478.9595770473061
20
55.97892328286602
30
0
10
1477.565974380555
20
46.176137492474076
30
0
10
1471.2930517325135
20
42.376732437049363
30
0
10
1468.1939825665718
20
35.638801085886897
30
0
10
1471.0844868053532
20
28.501746492745834
30
0
10
1478.1637738859486
20
24.652304780692482
30
0
10
1476.6670400744219
20
14.243978961586137
30
0
10
1479.5830240910364
20
3.0413452479992236
30
0
10
1479.9341232945928
20
-11.272442946599348
30
0
10
1478.190814916431
20
-23.209850077807026
30
0
10
1478.297713795238
20
-32.220176139708855
30
0
10
1479.4931995030611
20
-37.603736788905977
30
0
10
1481.4244079589844
20
-38.943936824798598
30
0
0
SPLINE
5
106
100
AcDbEntity
8
0
100
AcDbSpline
70
2
71
3
72
112
73
108
74
0
42
0.000000001
43
0.0000000001
44
0.0000000001
40
0
40
0
40
0
40
0
40
0.71122680733396215
40
1.4224536146679243
40
2.1336804220018863
40
2.8449072293358486
40
4.2673608440037727
40
5.6898144586716972
40
7.1122680733396209
40
8.5347216880075454
40
11.379628917343394
40
12.090855724677358
40
12.446469128344338
40
12.802082532011319
40
13.51330933934528
40
14.224536146679242
40
14.935762954013203
40
15.646989761347166
40
16.002603165014147
40
16.18040986684764
40
16.358216568681129
40
16.713829972348108
40
17.069443376015091
40
17.780670183349052
40
18.136283587016035
40
18.491896990683017
40
19.203123798016978
40
19.91435060535094
40
20.625577412684901
40
21.336804220018863
40
21.692417623685845
40
22.048031027352827
40
22.759257834686789
40
23.114871238353771
40
23.47048464202075
40
24.181711449354715
40
25.604165064022638
40
26.315391871356599
40
27.026618678690561
40
28.449072293358483
40
29.871525908026406
40
31.293979522694332
40
32.005206330028294
40
32.716433137362259
40
34.138886752030182
40
34.850113559364146
40
35.561340366698104
40
36.983793981366034
40
38.406247596033957
40
39.82870121070188
40
41.251154825369802
40
41.962381632703767
40
42.673608440037725
40
43.38483524737169
40
44.096062054705655
40
44.807288862039613
40
44.985095563873102
40
45.162902265706592
40
45.518515669373578
40
46.229742476707543
40
46.9409692840415
40
47.652196091375465
40
48.36342289870943
40
48.719036302376409
40
49.074649706043388
40
49.785876513377353
40
50.497103320711318
40
50.852716724378297
40
51.208330128045276
40
51.919556935379234
40
52.275170339046213
40
52.630783742713199
40
53.342010550047164
40
54.053237357381121
40
54.4088507610481
40
54.764464164715086
40
55.475690972049051
40
56.898144586716974
40
58.320598201384897
40
59.031825008718862
40
59.743051816052827
40
60.098665219719805
40
60.454278623386784
40
61.165505430720749
40
62.587959045388672
40
65.432866274724518
40
68.277773504060363
40
71.122680733396209
40
72.545134348064138
40
73.25636115539811
40
73.967587962732068
40
75.390041577399984
40
76.812495192067914
40
78.234948806735844
40
79.657402421403759
40
81.079856036071675
40
81.791082843405633
40
82.502309650739605
40
83.213536458073577
40
83.924763265407535
40
84.635990072741492
40
85.34721688007545
40
86.76967049474338
40
88.19212410941131
40
89.614577724079226
40
90.325804531413183
40
91.037031338747155
40
91.037031338747155
40
91.037031338747155
40
91.037031338747155
10
1481.4244079589844
20
-38.943936824798598
30
0
10
1483.3556164149079
20
-40.284136860691206
30
0
10
1489.8849645307773
20
-40.26137635506457
30
0
10
1488.2739409109158
20
-30.586439945472289
30
0
10
1497.5953853599149
20
-29.764505650404239
30
0
10
1495.6969963679453
20
-18.263128687570468
30
0
10
1496.5689489401539
20
-7.4570925988323715
30
0
10
1498.9767225960079
20
6.9522910332763903
30
0
10
1497.4707828674352
20
20.957566523041958
30
0
10
1498.815560161943
20
39.654542426623692
30
0
10
1495.4262538316957
20
57.038432440219637
30
0
10
1498.56617837269
20
68.820113396806775
30
0
10
1498.9340904779956
20
74.439284732260603
30
0
10
1504.5668821113973
20
74.299521396491983
30
0
10
1510.430811392539
20
75.810329481118373
30
0
10
1511.955606407025
20
83.767608956405951
30
0
10
1516.0836539019119
20
89.079321036819096
30
0
10
1516.6880419666945
20
96.501988004056585
30
0
10
1522.460352065573
20
94.678745321787517
30
0
10
1522.7536131352936
20
97.834612544869643
30
0
10
1526.0065905450479
20
97.968205953570035
30
0
10
1524.2470538926873
20
102.12843978581979
30
0
10
1527.8758401243485
20
105.50973664540743
30
0
10
1527.5503732573466
20
110.54729087452904
30
0
10
1532.1408136045386
20
112.99335953046739
30
0
10
1530.9575074324155
20
118.76147911874685
30
0
10
1533.5379679261032
20
124.05407326856141
30
0
10
1530.5505940558655
20
130.90076525985876
30
0
10
1530.17934439497
20
138.23409343890955
30
0
10
1534.2566748301144
20
144.05933884862617
30
0
10
1539.8709286814706
20
142.40829913368631
30
0
10
1542.484236432319
20
146.97121505860918
30
0
10
1545.9816135629608
20
149.52518923948307
30
0
10
1548.1966225243309
20
154.76331088813535
30
0
10
1553.6648706339811
20
153.03405544209807
30
0
10
1558.2791820641096
20
162.22785625923711
30
0
10
1555.4464131567081
20
171.5331242262711
30
0
10
1560.2700993566173
20
180.17785341648352
30
0
10
1560.1632523173157
20
189.79331232092733
30
0
10
1562.5210620739958
20
201.3200179017787
30
0
10
1560.9503200898448
20
215.67496673238028
30
0
10
1561.9194704304439
20
227.18046892428859
30
0
10
1560.1698192704912
20
237.08899440872534
30
0
10
1548.5490615223594
20
238.14630530920923
30
0
10
1549.1615724264043
20
252.58137285519948
30
0
10
1537.9907801606521
20
252.57995782325878
30
0
10
1536.9223890389515
20
264.0192119615723
30
0
10
1532.6993420519668
20
274.16895670489293
30
0
10
1526.6122863782355
20
287.36731488375932
30
0
10
1514.0372284147493
20
295.09325436420693
30
0
10
1516.414972574592
20
309.2863235296756
30
0
10
1507.4060180404094
20
314.37141976622956
30
0
10
1499.3735768941258
20
313.44933804275206
30
0
10
1496.3866796123084
20
320.28608088028523
30
0
10
1493.0483659530589
20
326.69714700185671
30
0
10
1488.2398130957995
20
327.12121342096691
30
0
10
1482.9760877856193
20
327.50019295621917
30
0
10
1485.8238080949943
20
329.39026324628662
30
0
10
1481.9095655144711
20
333.57974409543658
30
0
10
1476.213301569514
20
333.52219274488908
30
0
10
1468.9952669515028
20
334.51418610967585
30
0
10
1462.1915305971265
20
331.68459024709961
30
0
10
1457.075213003053
20
339.3704446482854
30
0
10
1453.3924835465129
20
333.84592575633002
30
0
10
1448.7878306833456
20
335.13560427315485
30
0
10
1442.9014825553331
20
332.28056423253287
30
0
10
1437.0168111648695
20
334.89466026216564
30
0
10
1432.7079502751862
20
333.50045078593809
30
0
10
1426.3481437325015
20
338.18853940031318
30
0
10
1430.4787262757509
20
329.98457970113748
30
0
10
1427.9064770731698
20
326.7046700713334
30
0
10
1429.9443302781615
20
321.58988455911839
30
0
10
1429.7948624409571
20
316.01766027976782
30
0
10
1430.8113184233628
20
309.75116384673777
30
0
10
1431.804892064752
20
305.27072950020818
30
0
10
1437.8807748344989
20
304.45675934990288
30
0
10
1437.4765614254568
20
294.49041277009246
30
0
10
1439.3043456731011
20
283.70137626271793
30
0
10
1441.702824161584
20
271.75907988220843
30
0
10
1445.2779531511846
20
263.17898620661083
30
0
10
1445.4226136160678
20
256.5331563990847
30
0
10
1451.0153646964593
20
255.11693991497197
30
0
10
1450.4530936533624
20
249.33819368024135
30
0
10
1452.9457046607913
20
241.93681740641378
30
0
10
1454.5067867458952
20
224.98457705459242
30
0
10
1456.2930974031181
20
201.60360307079151
30
0
10
1459.6758850285883
20
173.42214498040738
30
0
10
1459.6628759849582
20
149.18129611865453
30
0
10
1461.9759952436027
20
133.62063256496663
30
0
10
1461.6039012142537
20
122.61875537186712
30
0
10
1469.773352221481
20
118.20356145572745
30
0
10
1479.7105338597362
20
110.31047542932507
30
0
10
1479.5430101836191
20
95.213958069750362
30
0
10
1482.920106023058
20
81.327127262399387
30
0
10
1481.4123935431201
20
67.339725999698686
30
0
10
1478.9595770473061
20
55.97892328286602
30
0
10
1477.565974380555
20
46.176137492474076
30
0
10
1471.2930517325135
20
42.376732437049363
30
0
10
1468.1939825665718
20
35.638801085886897
30
0
10
1471.0844868053532
20
28.501746492745834
30
0
10
1478.1637738859486
20
24.652304780692482
30
0
10
1476.6670400744219
20
14.243978961586137
30
0
10
1479.5830240910364
20
3.0413452479992236
30
0
10
1479.9341232945928
20
-11.272442946599348
30
0
10
1478.190814916431
20
-23.209850077807026
30
0
10
1478.297713795238
20
-32.220176139708855
30
0
10
1479.4931995030611
20
-37.603736788905977
30
0
10
1481.4244079589844
20
-38.943936824798598
30
0
0
SPLINE
5
107
100
AcDbEntity
8
0
100
AcDbSpline
70
2
71
3
72
39
73
35
74
0
42
0.000000001
43
0.0000000001
44
0.0000000001
40
0
40
0
40
0
40
0
40
1.0543326052404427
40
1.581498907860664
40
2.1086652104808854
40
2.3722483617909962
40
2.635831513101107
40
3.1629978157213281
40
3.6901641183415492
40
4.2173304209617708
40
4.7444967235819924
40
5.0080798748921032
40
5.2716630262022139
40
5.7988293288224355
40
6.3259956314426562
40
6.8531619340628769
40
7.3803282366830985
40
7.90749453930332
40
8.4346608419235416
40
8.9618271445437632
40
9.4889934471639847
40
10.543326052404428
40
11.070492355024649
40
11.597658657644871
40
11.861241808954981
40
12.124824960265091
40
12.651991262885312
40
12.915574414195422
40
13.179157565505534
40
13.706323868125754
40
14.760656473366197
40
15.81498907860664
40
16.34215538122686
40
16.869321683847083
40
16.869321683847083
40
16.869321683847083
40
16.869321683847083
10
293.42439651489252
20
345.8216094970702
30
0
10
296.38248970627166
20
344.92860693357181
30
0
10
301.30618806197111
20
349.25664991812511
30
0
10
308.54022920645042
20
347.89512605685309
30
0
10
312.03067872456563
20
345.32715587170787
30
0
10
314.72931898475343
20
349.01605856196772
30
0
10
319.3237816808587
20
347.62940307282724
30
0
10
316.54239606280294
20
353.67418530302865
30
0
10
319.1135010704794
20
357.85704990297126
30
0
10
320.03755451288794
20
362.34752504416622
30
0
10
319.90830956942671
20
368.2704490656061
30
0
10
324.81471277009354
20
367.28351267622224
30
0
10
325.74061775279108
20
370.23953178007173
30
0
10
328.55428917869222
20
374.41295991146251
30
0
10
327.37419338084817
20
379.8232465026399
30
0
10
326.39931628610952
20
384.52019989450696
30
0
10
321.57972454795345
20
389.44925410792814
30
0
10
317.40569278335192
20
387.52487713651465
30
0
10
310.92310001825257
20
389.73812641347507
30
0
10
309.17307308452291
20
382.9795365120417
30
0
10
301.33128143077573
20
383.49722144174683
30
0
10
296.80667898541662
20
377.87600841225981
30
0
10
288.6753403718227
20
379.7760063426
30
0
10
286.54298940420927
20
382.34472607353297
30
0
10
282.42560984851553
20
385.68257651317549
30
0
10
281.19785749745188
20
382.69197183992384
30
0
10
280.89006282577225
20
379.70551123920143
30
0
10
275.98801835427372
20
377.30748514510947
30
0
10
281.07062785380612
20
375.97238581804481
30
0
10
280.82078456708524
20
369.02557834662036
30
0
10
282.25591841716846
20
361.5017829362734
30
0
10
281.52584762090135
20
350.3689031933402
30
0
10
289.14944291736731
20
349.0502956189182
30
0
10
291.94534991920295
20
346.26811077881945
30
0
10
293.42439651489252
20
345.8216094970702
30
0
0
SPLINE
5
108
100
AcDbEntity
8
0
100
AcDbSpline
70
2
71
3
72
24
73
20
74
0
42
0.000000001
43
0.0000000001
44
0.0000000001
40
0
40
0
40
0
40
0
40
0.83649922480972849
40
1.2547488372145927
40
1.672998449619457
40
2.5094976744291855
40
3.345996899238914
40
4.182496124048642
40
5.018995348858371
40
5.8554945736680999
40
6.6919937984778279
40
7.110243410882692
40
7.528493023287556
40
7.94674263569242
40
8.364992248097284
40
9.2014914729070121
40
10.037990697716742
40
11.7109891473362
40
13.383987596955656
40
13.383987596955656
40
13.383987596955656
40
13.383987596955656
10
1395.924377441406
20
341.09184265136719
30
0
10
1397.9952819887203
20
340.70053155625232
30
0
10
1401.8640517938079
20
342.65321383003106
30
0
10
1410.1159503985259
20
339.4079130892153
30
0
10
1408.8017854406974
20
346.24390316592331
30
0
10
1408.2602107709031
20
352.34688919806075
30
0
10
1407.5130803732241
20
361.28988665576128
30
0
10
1401.7649577886687
20
367.17359575148566
30
0
10
1397.5977606845354
20
374.19244552312483
30
0
10
1394.9863220396082
20
381.80925996807809
30
0
10
1393.6659089920045
20
388.84081350038912
30
0
10
1392.629821249252
20
394.02282366989743
30
0
10
1389.6554776763205
20
398.59373811332608
30
0
10
1387.2001355899401
20
393.27178101012112
30
0
10
1388.5794684699445
20
387.5853687362403
30
0
10
1388.0620946425734
20
380.82304453497238
30
0
10
1387.9219629914153
20
369.41734988661983
30
0
10
1387.5651527394798
20
356.98450344312931
30
0
10
1391.7825683467781
20
341.87446484159699
30
0
10
1395.924377441406
20
341.09184265136719
30
0
0
SPLINE
5
109
100
AcDbEntity
8
0
100
AcDbSpline
70
2
71
3
72
20
73
16
74
0
42
0.000000001
43
0.0000000001
44
0.0000000001
40
0
40
0
40
0
40
0
40
0.58994892931847487
40
1.1798978586369497
40
1.7698467879554247
40
2.3597957172738995
40
3.5396935759108494
40
4.1296425052293237
40
4.7195914345477989
40
5.3095403638662741
40
5.8994892931847485
40
7.0793871518216989
40
8.2592850104586475
40
8.8492339397771218
40
9.4391828690955979
40
9.4391828690955979
40
9.4391828690955979
40
9.4391828690955979
10
1485.9243774414058
20
-81.930713653564425
30
0
10
1487.7717611119474
20
-82.844130393207593
30
0
10
1490.8455137069923
20
-85.753085849992516
30
0
10
1496.9276343007518
20
-83.281500985806574
30
0
10
1495.4886344277693
20
-76.490000396128764
30
0
10
1497.0241597948834
20
-68.827595869321115
30
0
10
1497.1788896823775
20
-62.035620157717247
30
0
10
1496.517954754027
20
-51.593539423895017
30
0
10
1490.0547271265382
20
-53.208914787153709
30
0
10
1486.8253230609716
20
-45.844135538991473
30
0
10
1478.7503016837425
20
-50.958227269097137
30
0
10
1482.8881872251272
20
-62.35867249475654
30
0
10
1479.5624239280096
20
-70.78758108039483
30
0
10
1479.7612116837436
20
-80.272585412133623
30
0
10
1484.0769937708642
20
-81.017296913921285
30
0
10
1485.9243774414058
20
-81.930713653564425
30
0
0
ENDSEC
0
SECTION
2
OBJECTS
0
DICTIONARY
5
C
100
AcDbDictionary
3
ACAD_GROUP
350
D
3
ACAD_MLINESTYLE
350
17
0
DICTIONARY
5
D
100
AcDbDictionary
0
DICTIONARY
5
1A
330
C
100
AcDbDictionary
0
DICTIONARY
5
17
100
AcDbDictionary
0
ENDSEC
0
EOF
